<?xml version="1.0" standalone="no"?>
<!DOCTYPE svg PUBLIC "-//W3C//DTD SVG 1.1//EN" "http://www.w3.org/Graphics/SVG/1.1/DTD/svg11.dtd" >
<svg>
<metadata>
Created by FontForge 20090914 at Wed Mar 16 04:20:22 2016
 By www-data
&#194;&#169; 2014 Apple Inc. All rights reserved.
</metadata>
<defs>
<font id=".HelveticaNeueDeskInterface-Bold" horiz-adv-x="0" >
  <font-face 
    font-family="SFNS Display"
    font-weight="700"
    font-stretch="normal"
    units-per-em="2048"
    panose-1="0 0 8 0 0 0 0 0 0 0"
    ascent="1638"
    descent="-410"
    x-height="1101"
    cap-height="1443"
    bbox="-583 -882 2641 2178"
    underline-thickness="50"
    underline-position="-25"
    unicode-range="U+0020-U+FB02"
  />
<missing-glyph horiz-adv-x="1293" 
d="M120 1365h1053v-1365h-1053v1365zM501 313c0 -32 11 -57.834 33 -77.501s51 -29.5 87 -29.5c37.333 0 67 9.83301 89 29.5s33 45.5 33 77.5c0 32.667 -11 58.834 -33 78.501s-51.667 29.5 -89 29.5c-36 0 -65 -10 -87 -30s-33 -46 -33 -78zM508 887.999
c0.666992 40 12.165 71.665 34.498 94.998s52.5 35 90.5 35c36 0 65 -9.83301 87 -29.5s33 -46.5 33 -80.5c0 -12.667 -1.5 -24.167 -4.5 -34.5s-8.33301 -20.666 -16 -30.999s-18.167 -21.333 -31.5 -33s-30.333 -24.834 -51 -39.501c-46 -32.667 -78 -66.167 -96 -100.5
s-25.333 -74.5 -22 -120.5l1 -18h166v15c0 16 1.33301 29.833 4 41.5s7.66699 23 15 34s18 22.5 32 34.5s32.667 26.333 56 43c24 17.333 44.5 34.333 61.5 51s30.833 33.667 41.5 51s18.334 35.5 23.001 54.5s7 39.5 7 61.5c0 38 -7 72.333 -21 103s-34 56.834 -60 78.501
s-57.167 38.5 -93.5 50.5s-76.833 18 -121.5 18c-47.333 0 -90.166 -6.5 -128.499 -19.5s-70.666 -31.667 -96.999 -56s-46.333 -53.666 -60 -87.999s-19.834 -72.833 -18.501 -115.5h169z" />
    <glyph glyph-name=".notdef" horiz-adv-x="1293" 
d="M120 1365h1053v-1365h-1053v1365zM501 313c0 -32 11 -57.834 33 -77.501s51 -29.5 87 -29.5c37.333 0 67 9.83301 89 29.5s33 45.5 33 77.5c0 32.667 -11 58.834 -33 78.501s-51.667 29.5 -89 29.5c-36 0 -65 -10 -87 -30s-33 -46 -33 -78zM508 887.999
c0.666992 40 12.165 71.665 34.498 94.998s52.5 35 90.5 35c36 0 65 -9.83301 87 -29.5s33 -46.5 33 -80.5c0 -12.667 -1.5 -24.167 -4.5 -34.5s-8.33301 -20.666 -16 -30.999s-18.167 -21.333 -31.5 -33s-30.333 -24.834 -51 -39.501c-46 -32.667 -78 -66.167 -96 -100.5
s-25.333 -74.5 -22 -120.5l1 -18h166v15c0 16 1.33301 29.833 4 41.5s7.66699 23 15 34s18 22.5 32 34.5s32.667 26.333 56 43c24 17.333 44.5 34.333 61.5 51s30.833 33.667 41.5 51s18.334 35.5 23.001 54.5s7 39.5 7 61.5c0 38 -7 72.333 -21 103s-34 56.834 -60 78.501
s-57.167 38.5 -93.5 50.5s-76.833 18 -121.5 18c-47.333 0 -90.166 -6.5 -128.499 -19.5s-70.666 -31.667 -96.999 -56s-46.333 -53.666 -60 -87.999s-19.834 -72.833 -18.501 -115.5h169z" />
    <glyph glyph-name="space" unicode=" " horiz-adv-x="440" 
 />
    <glyph glyph-name="exclam" unicode="!" horiz-adv-x="648" 
d="M474 1443l-24 -968h-252l-24 968h300zM324 -25c-22.667 0 -44 4 -64 12s-37.333 19.167 -52 33.5s-26.167 31 -34.5 50s-12.5 39.5 -12.5 61.5s4.16699 42.5 12.5 61.5s19.833 35.667 34.5 50s32 25.5 52 33.5s41.333 12 64 12s44 -4 64 -12s37.333 -19.167 52 -33.5
s26.167 -31 34.5 -50s12.5 -39.5 12.5 -61.5s-4.16699 -42.5 -12.5 -61.5s-19.833 -35.667 -34.5 -50s-32 -25.5 -52 -33.5s-41.333 -12 -64 -12z" />
    <glyph glyph-name="quotedbl" unicode="&#x22;" horiz-adv-x="929" 
d="M108 868v575h250v-575h-250zM571 868v575h250v-575h-250z" />
    <glyph glyph-name="numbersign" unicode="#" horiz-adv-x="1271" 
d="M1003 861l-53 -260h210l-40 -216h-212l-77 -385h-222l77 385h-234l-78 -385h-220l76 385h-206l41 216h208l52 260h-199l41 214h201l75 369h220l-73 -369h234l74 369h222l-74 -369h217l-40 -214h-220zM476 582h262l61 297h-263z" />
    <glyph glyph-name="dollar" unicode="$" horiz-adv-x="1326" 
d="M600 -137v128.001c-78.667 4.66699 -149.167 17.667 -211.5 39s-115.333 50.166 -159 86.499s-77.167 79.333 -100.5 129s-35 105.167 -35 166.5h286c2 -26 8.5 -50 19.5 -72s26.167 -41.5 45.5 -58.5s42 -31 68 -42s55 -18.167 87 -21.5v390l-106 25
c-121.333 28 -213.333 76 -276 144s-94 154.333 -94 259c0 61.333 10.667 117 32 167s52.5 93.167 93.5 129.5s90.833 65.666 149.5 87.999s125.667 36.5 201 42.5v137h141v-138c70 -6 133.333 -20.5 190 -43.5s105.167 -52.667 145.5 -89s71.5 -78.833 93.5 -127.5
s33.667 -101.667 35 -159h-278c-0.666992 24 -5.66699 46.5 -15 67.5s-22.333 39.833 -39 56.5s-36.167 30.5 -58.5 41.5s-46.833 18.5 -73.5 22.5v-373l107 -21c128.667 -28 224.834 -75.333 288.501 -142s95.5 -154.667 95.5 -264
c0 -63.333 -10.833 -120.666 -32.5 -171.999s-53.334 -95.666 -95.001 -132.999s-93 -67.333 -154 -90s-130.833 -37.334 -209.5 -44.001v-129h-141zM949 399.001c0 48.667 -16.833 88 -50.5 118s-86.167 52 -157.5 66v-366c66 4 117.167 22 153.5 54s54.5 74.667 54.5 128z
M413 1061c0 -44 15.832 -80.6689 47.499 -110.002s78.167 -50.666 139.5 -63.999v345c-27.333 -1.33301 -52.5 -6.66602 -75.5 -15.999s-42.667 -21.5 -59 -36.5s-29.166 -32.5 -38.499 -52.5s-14 -42 -14 -66z" />
    <glyph glyph-name="percent" unicode="%" horiz-adv-x="1621" 
d="M1576 354c0 -57.333 -7.66504 -109.166 -22.998 -155.499s-37.333 -85.666 -66 -117.999s-63.334 -57.333 -104.001 -75s-86 -26.5 -136 -26.5s-95.333 8.83301 -136 26.5s-75.334 42.667 -104.001 75s-50.667 71.666 -66 117.999s-23 98.166 -23 155.499
c0 56.667 7.66699 108 23 154s37.166 85 65.499 117s62.833 56.667 103.5 74s86.334 26 137.001 26s96.334 -8.66699 137.001 -26s75.167 -42 103.5 -74s50.166 -71 65.499 -117s23 -97.333 23 -154zM1247 154c33.333 0 59.167 17.667 77.5 53s27.5 84.333 27.5 147
s-9 111 -27 145s-44 51 -78 51c-32.667 0 -58.334 -17.333 -77.001 -52s-28 -83 -28 -145c0 -61.333 9.33301 -109.833 28 -145.5s44.334 -53.5 77.001 -53.5zM703.003 1112c0 -57.333 -7.66504 -109.166 -22.998 -155.499s-37.333 -85.666 -66 -117.999
s-63.334 -57.333 -104.001 -75s-86 -26.5 -136 -26.5s-95.333 8.83301 -136 26.5s-75.334 42.667 -104.001 75s-50.667 71.666 -66 117.999s-23 98.166 -23 155.499c0 56.667 7.66699 108 23 154s37.166 85 65.499 117s62.833 56.667 103.5 74s86.334 26 137.001 26
s96.334 -8.66699 137.001 -26s75.167 -42 103.5 -74s50.166 -71 65.499 -117s23 -97.333 23 -154zM374.005 912c33.333 0 59.167 17.667 77.5 53s27.5 84.333 27.5 147s-9 111 -27 145s-44 51 -78 51c-32.667 0 -58.334 -17.333 -77.001 -52s-28 -83 -28 -145
c0 -61.333 9.33301 -109.833 28 -145.5s44.334 -53.5 77.001 -53.5zM147.006 0l1054 1443h256l-1053 -1443h-257z" />
    <glyph glyph-name="ampersand" unicode="&#x26;" horiz-adv-x="1437" 
d="M1018 120c-54 -46 -119.999 -81.834 -197.999 -107.501s-161 -38.5 -249 -38.5c-76.667 0 -146 9.5 -208 28.5s-114.833 46.167 -158.5 81.5s-77.334 77.833 -101.001 127.5s-35.5 105.167 -35.5 166.5c0 82 21.5 153.833 64.5 215.5s110.5 117.834 202.5 168.501
c4 2 9.33301 4.83301 16 8.5l20.5 11l18.5 10c5.33301 3 8.66602 4.83301 9.99902 5.5c-32.667 33.333 -60.334 64.333 -83.001 93s-41.167 56.167 -55.5 82.5s-24.666 52 -30.999 77s-9.5 50.833 -9.5 77.5c0 48 10.333 92.5 31 133.5s49.167 76.5 85.5 106.5
s79.5 53.333 129.5 70s104.333 25 163 25s112.667 -8.16699 162 -24.5s91.833 -39 127.5 -68s63.334 -63.667 83.001 -104s29.5 -84.833 29.5 -133.5c0 -74.667 -23.5 -142.167 -70.5 -202.5s-120.833 -117.833 -221.5 -172.5l274 -296c17.333 31.333 30.333 69 39 113
s13 97.333 13 160v76h243v-93c0 -88.667 -10.5 -170 -31.5 -244s-51.167 -138 -90.5 -192l269 -281h-327zM494.001 622.999c-54.667 -34.667 -93.834 -69.166 -117.501 -103.499s-35.5 -73.833 -35.5 -118.5c0 -32 6.33301 -61.333 19 -88s30.334 -49.334 53.001 -68.001
s50 -33.167 82 -43.5s67.333 -15.5 106 -15.5c26 0 51.667 2.33301 77 7s49.5 11.334 72.5 20.001s44.333 19.167 64 31.5s36.5 26.166 50.5 41.499l-331 358l-20.5 -10.5c-8.33301 -4.33301 -14.833 -7.83301 -19.5 -10.5zM605.001 893
c65.333 34 112.331 68.166 140.998 102.499s43 73.166 43 116.499c0 22.667 -3.83301 43.667 -11.5 63s-18.5 35.833 -32.5 49.5s-30.667 24.334 -50 32.001s-40.666 11.5 -63.999 11.5s-44.833 -3.83301 -64.5 -11.5s-36.5 -18.5 -50.5 -32.5s-25 -30.5 -33 -49.5
s-12 -39.833 -12 -62.5c0 -16.667 2.33301 -33 7 -49s12.334 -32.667 23.001 -50s24.5 -35.666 41.5 -54.999s37.833 -41 62.5 -65z" />
    <glyph glyph-name="quotesingle" unicode="'" horiz-adv-x="466" 
d="M108 868v575h250v-575h-250z" />
    <glyph glyph-name="parenleft" unicode="(" horiz-adv-x="710" 
d="M403 -277c-35.333 44 -69.167 95.6689 -101.5 155.002s-61 125.666 -86 198.999s-45 153.666 -60 240.999s-22.5 181.333 -22.5 282s7 191.667 21 273s33.5 155.5 58.5 222.5s54.5 128.667 88.5 185s71.333 110.5 112 162.5h269
c-28.667 -33.333 -57.667 -77.333 -87 -132s-56 -118.167 -80 -190.5s-43.5 -152.333 -58.5 -240s-22.5 -180.5 -22.5 -278.5c0 -96.667 6.66699 -186.167 20 -268.5s31.166 -159.333 53.499 -231s48.333 -138.667 78 -201s60.834 -121.833 93.501 -178.5h-276z" />
    <glyph glyph-name="parenright" unicode=")" horiz-adv-x="710" 
d="M31 -277c32.667 56.667 63.667 116.165 93 178.498s55.333 129.333 78 201s40.667 148.667 54 231s20 171.833 20 268.5c0 98 -7.5 190.667 -22.5 278s-34.333 167.166 -58 239.499s-50.167 136 -79.5 191s-58.333 99.167 -87 132.5h268
c40.667 -52 78.167 -106.167 112.5 -162.5s64 -118.166 89 -185.499s44.5 -141.5 58.5 -222.5s21 -171.833 21 -272.5c0 -101.333 -7.5 -195.666 -22.5 -282.999s-35 -167.666 -60 -240.999s-54 -139.5 -87 -198.5s-67.167 -110.5 -102.5 -154.5h-275v0z" />
    <glyph glyph-name="asterisk" unicode="*" horiz-adv-x="994" 
d="M558 979l39 -289h-200l39 289l-231 -179l-99 173l271 111l-271 110l99 174l233 -182l-41 293h200l-40 -293l232 182l99 -174l-270 -110l270 -111l-99 -173z" />
    <glyph glyph-name="plus" unicode="+" horiz-adv-x="1326" 
d="M794 14h-262v437h-408v255h408v432h262v-432h408v-255h-408v-437z" />
    <glyph glyph-name="comma" unicode="," horiz-adv-x="578" 
d="M89 -271l83 541h274l-136 -541h-221z" />
    <glyph glyph-name="hyphen" unicode="-" horiz-adv-x="905" 
d="M124 451v255h657v-255h-657z" />
    <glyph glyph-name="period" unicode="." horiz-adv-x="569" 
d="M285 -12c-22.667 0 -43.834 4.16699 -63.501 12.5s-36.667 19.833 -51 34.5s-25.666 31.834 -33.999 51.501s-12.5 40.5 -12.5 62.5c0 22.667 4.16699 43.667 12.5 63s19.666 36.333 33.999 51s31.333 26.167 51 34.5s40.834 12.5 63.501 12.5s43.667 -4.16699 63 -12.5
s36.333 -19.833 51 -34.5s26.167 -31.667 34.5 -51s12.5 -40.333 12.5 -63c0 -22 -4.16699 -42.833 -12.5 -62.5s-19.833 -36.834 -34.5 -51.501s-31.667 -26.167 -51 -34.5s-40.333 -12.5 -63 -12.5z" />
    <glyph glyph-name="slash" unicode="/" horiz-adv-x="687" 
d="M0 -293l415 1737h272l-420 -1737h-267z" />
    <glyph glyph-name="zero" unicode="0" horiz-adv-x="1333" 
d="M667 -32c-90.667 0 -172.167 17.5029 -244.5 52.5029s-133.666 85.167 -183.999 150.5s-88.833 144.666 -115.5 237.999s-40 198.333 -40 315s13.5 221.334 40.5 314.001s65.667 171.5 116 236.5s111.666 114.833 183.999 149.5s153.5 52 243.5 52s171 -17.333 243 -52
s133.167 -84.334 183.5 -149.001s89 -143.334 116 -236.001s40.5 -197.334 40.5 -314.001s-13.333 -221.667 -40 -315s-65.167 -172.833 -115.5 -238.5s-111.5 -116 -183.5 -151s-153.333 -52.5 -244 -52.5zM667 210.003c42.667 0 81.166 11.332 115.499 33.999
s63.333 55.834 87 99.501s41.834 97.5 54.501 161.5s19 137 19 219c0 81.333 -6.33301 153.666 -19 216.999s-31 116.666 -55 159.999s-53 76.333 -87 99s-72.333 34 -115 34s-81 -11.333 -115 -34s-63 -55.667 -87 -99s-42.5 -96.666 -55.5 -159.999
s-19.5 -135.666 -19.5 -216.999c0 -82 6.33301 -154.833 19 -218.5s31 -117.5 55 -161.5s53 -77.333 87 -100s72.667 -34 116 -34z" />
    <glyph glyph-name="one" unicode="1" horiz-adv-x="983" 
d="M463 1166h-6l-368 -254v272l373 259h300v-1443h-299v1166z" />
    <glyph glyph-name="two" unicode="2" horiz-adv-x="1235" 
d="M85 1009c0 68 12.998 130.663 38.998 187.996s62.5 106.5 109.5 147.5s103.167 73 168.5 96s137.333 34.5 216 34.5c76 0 145.5 -10.5 208.5 -31.5s117 -50 162 -87s80 -81 105 -132s37.5 -106.5 37.5 -166.5c0 -45.333 -7 -88 -21 -128s-33.5 -79 -58.5 -117
s-54.5 -75.667 -88.5 -113s-71 -75.666 -111 -114.999l-352 -339v-6h651v-240h-1049v203l544 524c36.667 36.667 67.167 69.167 91.5 97.5s43.833 54.666 58.5 78.999s25.167 47.833 31.5 70.5s9.5 46.667 9.5 72c0 26.667 -5.66699 51.834 -17 75.501
s-27.166 44.334 -47.499 62.001s-44.5 31.5 -72.5 41.5s-58.667 15 -92 15c-35.333 0 -67.833 -5.83301 -97.5 -17.5s-55.167 -27.667 -76.5 -48s-38.166 -44.666 -50.499 -72.999s-18.5 -59.166 -18.5 -92.499v-5h-280v5v0z" />
    <glyph glyph-name="three" unicode="3" horiz-adv-x="1290" 
d="M453 848h175.004c34.667 0 66.167 4.83301 94.5 14.5s52.666 23.334 72.999 41.001s36 38.834 47 63.501s16.5 52 16.5 82c0 58.667 -20 105.667 -60 141s-97.667 53 -173 53c-35.333 0 -67.333 -5 -96 -15s-53.334 -24.167 -74.001 -42.5s-37.167 -40.333 -49.5 -66
s-19.5 -54.167 -21.5 -85.5h-278c2.66699 66.667 17.167 127.167 43.5 181.5s62.666 100.666 108.999 138.999s101.666 68 165.999 89s135.5 31.5 213.5 31.5c74.667 0 143 -9.16699 205 -27.5s115.333 -44.333 160 -78s79.167 -74.167 103.5 -121.5s36.5 -100 36.5 -158
c0 -44 -7.16699 -84.833 -21.5 -122.5s-34.666 -71 -60.999 -100s-57.833 -53.333 -94.5 -73s-77 -33.5 -121 -41.5v-6c54 -4.66699 102.667 -16 146 -34s80.5 -42 111.5 -72s54.833 -65.333 71.5 -106s25 -86 25 -136c0 -64.667 -14 -123.5 -42 -176.5
s-67 -98.333 -117 -136s-109.833 -66.834 -179.5 -87.501s-146.167 -31 -229.5 -31c-81.333 0 -155.333 10.667 -222 32s-123.834 51.5 -171.501 90.5s-85.334 85.833 -113.001 140.5s-43.167 115.334 -46.5 182.001h289c4.66699 -61.333 30.5 -110.333 77.5 -147
s110.5 -55 190.5 -55c38 0 72.667 5 104 15s58.333 24.167 81 42.5s40.334 40.166 53.001 65.499s19 53.333 19 84c0 66.667 -23.167 118.667 -69.5 156s-110.5 56 -192.5 56h-178v218z" />
    <glyph glyph-name="four" unicode="4" horiz-adv-x="1327" 
d="M790 257h-718v257c31.333 60 65.333 121.667 102 185l124 206l155.5 242.5l197.5 295.5h426v-944h188v-242h-188v-257h-287v257zM337 490h459v739h-6l-143 -212.5l-118.5 -183.5c-36.333 -58 -70 -114.167 -101 -168.5s-61.167 -109.833 -90.5 -166.5v-8z" />
    <glyph glyph-name="five" unicode="5" horiz-adv-x="1280" 
d="M657 -32c-77.333 0 -148.666 11.001 -213.999 33.001s-122 52.667 -170 92s-85.833 86.166 -113.5 140.499s-42.5 114.166 -44.5 179.499h279c4 -30.667 13.5 -58.667 28.5 -84s34.167 -47 57.5 -65s50.166 -32 80.499 -42s63.166 -15 98.499 -15
c39.333 0 75.333 6.5 108 19.5s60.834 31.333 84.501 55s42 51.834 55 84.501s19.5 68.667 19.5 108c0 40 -6.5 76.667 -19.5 110s-31.167 62 -54.5 86s-51.333 42.667 -84 56s-68.334 20 -107.001 20c-54.667 0 -104.167 -11.667 -148.5 -35s-79.166 -56 -104.499 -98h-270
l71 830h918v-240h-681l-33 -395h6c30 48.667 72.5 87.167 127.5 115.5s119.5 42.5 193.5 42.5c68.667 0 132 -12 190 -36s108 -57.5 150 -100.5s74.833 -94.167 98.5 -153.5s35.5 -124 35.5 -194c0 -76.667 -13.5 -146.5 -40.5 -209.5s-65 -117 -114 -162
s-107.667 -80 -176 -105s-143.833 -37.5 -226.5 -37.5z" />
    <glyph glyph-name="six" unicode="6" horiz-adv-x="1317" 
d="M684 -33c-104 0 -197.167 22.665 -279.5 67.998s-148.833 111.333 -199.5 198c-40 61.333 -70.167 132 -90.5 212s-30.5 168.333 -30.5 265c0 119.333 14 226.333 42 321s68.167 175 120.5 241s115.833 116.5 190.5 151.5s158.667 52.5 252 52.5
c68.667 0 133 -9.66699 193 -29s113.333 -46.666 160 -81.999s85.334 -77.5 116.001 -126.5s51 -102.833 61 -161.5h-297c-7.33301 24 -18.333 45.833 -33 65.5s-32.334 36.5 -53.001 50.5s-43.667 24.833 -69 32.5s-52 11.5 -80 11.5c-50 0 -95 -11.833 -135 -35.5
s-73.667 -57.667 -101 -102s-48 -98.666 -62 -162.999s-20 -137.166 -18 -218.499h6c14.667 35.333 34.167 67.5 58.5 96.5s53 53.667 86 74s69.667 36.166 110 47.499s83.5 17 129.5 17c68.667 0 132 -12 190 -36s108.333 -57.167 151 -99.5s76 -92.5 100 -150.5
s36 -121.333 36 -190c0 -74 -13.667 -142.333 -41 -205s-65.5 -116.5 -114.5 -161.5s-107.5 -80.167 -175.5 -105.5s-142.333 -38 -223 -38zM681 207.998c36.667 0 70.998 6.66797 102.998 20.001s59.833 31.833 83.5 55.5s42.334 51.334 56.001 83.001
s20.5 65.5 20.5 101.5c0 37.333 -6.5 71.666 -19.5 102.999s-31.167 58.5 -54.5 81.5s-51 41 -83 54s-67 19.5 -105 19.5c-37.333 0 -72.166 -6.5 -104.499 -19.5s-60.333 -30.833 -84 -53.5s-42.167 -49.5 -55.5 -80.5s-20 -64.833 -20 -101.5s6.83301 -71 20.5 -103
s32.167 -59.833 55.5 -83.5s51 -42.334 83 -56.001s66.667 -20.5 104 -20.5z" />
    <glyph glyph-name="seven" unicode="7" horiz-adv-x="1172" 
d="M798 1197v6h-734v240h1032v-243l-602 -1200h-317z" />
    <glyph glyph-name="eight" unicode="8" horiz-adv-x="1336" 
d="M668 -32c-87.333 0 -167 10.3369 -239 31.0039s-133.667 49.667 -185 87s-91 81.833 -119 133.5s-42 108.834 -42 171.501c0 47.333 8.16699 91.666 24.5 132.999s39.5 78.166 69.5 110.499s65.833 59.5 107.5 81.5s87.5 37 137.5 45v6c-42 10 -80.333 25.167 -115 45.5
s-64.167 44.666 -88.5 72.999s-43.333 60.166 -57 95.499s-20.5 73 -20.5 113c0 54.667 13 105.334 39 152.001s62.167 87 108.5 121s101.833 60.5 166.5 79.5s135.667 28.5 213 28.5s148.333 -9.5 213 -28.5s120.167 -45.5 166.5 -79.5s82.333 -74.333 108 -121
s38.5 -97.667 38.5 -153c0 -39.333 -6.66699 -76.5 -20 -111.5s-32.333 -66.833 -57 -95.5s-54.167 -53.167 -88.5 -73.5s-72.5 -35.5 -114.5 -45.5v-6c50.667 -8.66699 96.834 -23.834 138.501 -45.501s77.334 -48.834 107.001 -81.501s52.667 -69.667 69 -111
s24.5 -85.666 24.5 -132.999c0 -62.667 -14.167 -119.834 -42.5 -171.501s-68.333 -96 -120 -133s-113.334 -65.833 -185.001 -86.5s-150.834 -31 -237.501 -31zM668 188.004c40 0 76.5 5.66699 109.5 17s61.333 27 85 47s42 43.667 55 71s19.5 57.333 19.5 90
s-6.5 62.667 -19.5 90s-31.333 51 -55 71s-52 35.667 -85 47s-69.5 17 -109.5 17s-76.5 -5.66699 -109.5 -17s-61.333 -27 -85 -47s-42.167 -43.667 -55.5 -71s-20 -57.333 -20 -90s6.66699 -62.667 20 -90s31.833 -51 55.5 -71s52 -35.667 85 -47s69.5 -17 109.5 -17z
M668 858.004c33.333 0 64 4.99805 92 14.998s52 23.833 72 41.5s35.667 38.667 47 63s17 50.833 17 79.5s-5.66699 55.334 -17 80.001s-27 45.834 -47 63.501s-44 31.5 -72 41.5s-58.667 15 -92 15s-64 -5 -92 -15s-52 -24 -72 -42s-35.667 -39.167 -47 -63.5
s-17 -50.833 -17 -79.5s5.66699 -55.167 17 -79.5s27 -45.333 47 -63s44 -31.5 72 -41.5s58.667 -15 92 -15z" />
    <glyph glyph-name="nine" unicode="9" horiz-adv-x="1321" 
d="M631 -32c-69.333 0 -134.167 9.83105 -194.5 29.498s-113.833 47 -160.5 82s-85.5 77 -116.5 126s-51.5 103.167 -61.5 162.5h298c7.33301 -24 18.5 -46 33.5 -66s33 -37 54 -51s44.333 -24.833 70 -32.5s53.167 -11.5 82.5 -11.5c50 0 94.667 11.5 134 34.5
s72.5 56.667 99.5 101s47.333 98.833 61 163.5s19.5 138.334 17.5 221.001h-3h-2h-1c-13.333 -35.333 -31.833 -67.5 -55.5 -96.5s-52 -53.833 -85 -74.5s-70 -36.667 -111 -48s-85.167 -17 -132.5 -17c-68 0 -131.167 12 -189.5 36s-109 57.167 -152 99.5
s-76.667 92.5 -101 150.5s-36.5 121.333 -36.5 190c0 74 13.833 142.167 41.5 204.5s66.167 116 115.5 161s108 80.167 176 105.5s142.333 38 223 38c104 0 197.667 -22.667 281 -68s150 -110.666 200 -195.999c80.667 -124 121 -283.333 121 -478
c0 -119.333 -13.833 -226.333 -41.5 -321s-67.5 -175 -119.5 -241s-115.5 -116.5 -190.5 -151.5s-159.833 -52.5 -254.5 -52.5zM636.999 717.998c37.333 0 72.1699 6.49609 104.503 19.4961s60.333 31 84 54s42.167 50 55.5 81s20 64.833 20 101.5
s-6.83301 70.834 -20.5 102.501s-32.167 59.334 -55.5 83.001s-51 42.167 -83 55.5s-66.333 20 -103 20c-37.333 0 -72 -6.66699 -104 -20s-60 -31.666 -84 -54.999s-42.833 -50.833 -56.5 -82.5s-20.5 -65.5 -20.5 -101.5c0 -37.333 6.66699 -71.666 20 -102.999
s31.666 -58.5 54.999 -81.5s51.166 -41 83.499 -54s67.166 -19.5 104.499 -19.5z" />
    <glyph glyph-name="colon" unicode=":" horiz-adv-x="569" 
d="M285 -12c-22.667 0 -43.834 4.16699 -63.501 12.5s-36.667 19.833 -51 34.5s-25.666 31.834 -33.999 51.501s-12.5 40.5 -12.5 62.5c0 22.667 4.16699 43.667 12.5 63s19.666 36.333 33.999 51s31.333 26.167 51 34.5s40.834 12.5 63.501 12.5s43.667 -4.16699 63 -12.5
s36.333 -19.833 51 -34.5s26.167 -31.667 34.5 -51s12.5 -40.333 12.5 -63c0 -22 -4.16699 -42.833 -12.5 -62.5s-19.833 -36.834 -34.5 -51.501s-31.667 -26.167 -51 -34.5s-40.333 -12.5 -63 -12.5zM285 703c-22.667 0 -43.834 4.16699 -63.501 12.5
s-36.667 19.833 -51 34.5s-25.666 31.834 -33.999 51.501s-12.5 40.5 -12.5 62.5c0 22.667 4.16699 43.667 12.5 63s19.666 36.333 33.999 51s31.333 26.167 51 34.5s40.834 12.5 63.501 12.5s43.667 -4.16699 63 -12.5s36.333 -19.833 51 -34.5s26.167 -31.667 34.5 -51
s12.5 -40.333 12.5 -63c0 -22 -4.16699 -42.833 -12.5 -62.5s-19.833 -36.834 -34.5 -51.501s-31.667 -26.167 -51 -34.5s-40.333 -12.5 -63 -12.5z" />
    <glyph glyph-name="semicolon" unicode=";" horiz-adv-x="569" 
d="M285 703c-22.667 0 -43.834 4.16699 -63.501 12.5s-36.667 19.833 -51 34.5s-25.666 31.834 -33.999 51.501s-12.5 40.5 -12.5 62.5c0 22.667 4.16699 43.667 12.5 63s19.666 36.333 33.999 51s31.333 26.167 51 34.5s40.834 12.5 63.501 12.5s43.667 -4.16699 63 -12.5
s36.333 -19.833 51 -34.5s26.167 -31.667 34.5 -51s12.5 -40.333 12.5 -63c0 -22 -4.16699 -42.833 -12.5 -62.5s-19.833 -36.834 -34.5 -51.501s-31.667 -26.167 -51 -34.5s-40.333 -12.5 -63 -12.5zM55 -271l82 541h276l-137 -541h-221z" />
    <glyph glyph-name="less" unicode="&#x3c;" horiz-adv-x="1326" 
d="M483 587v-10l657 -309v-291l-953 489v225l953 506v-291z" />
    <glyph glyph-name="equal" unicode="=" horiz-adv-x="1326" 
d="M139 220v251h1048v-251h-1048zM139 687v251h1048v-251h-1048z" />
    <glyph glyph-name="greater" unicode="&#x3e;" horiz-adv-x="1326" 
d="M187 1197l953 -505v-226l-953 -488v291l656 308v10l-656 320v290z" />
    <glyph glyph-name="question" unicode="?" horiz-adv-x="1093" 
d="M54 1038c1.33301 61.333 12.999 117.673 34.999 169.006s53.667 95.5 95 132.5s91.833 65.667 151.5 86s127.834 30.5 204.501 30.5c71.333 0 136.166 -9.5 194.499 -28.5s108.333 -45.5 150 -79.5s73.834 -74.833 96.501 -122.5s34 -99.834 34 -156.501
c0 -76 -18 -141 -54 -195s-89.333 -102 -160 -144c-33.333 -19.333 -60.833 -37.333 -82.5 -54s-39 -33.5 -52 -50.5s-22.167 -35 -27.5 -54s-8 -40.833 -8 -65.5v-53h-265l-2 58c-3.33301 39.333 -2.33301 74.666 3 105.999s15.333 60.166 30 86.499s34.167 50.5 58.5 72.5
s53.833 43 88.5 63c32 19.333 58.833 37.166 80.5 53.499s39 33 52 50s22.167 34.833 27.5 53.5s8 40 8 64s-4.5 46 -13.5 66s-21.833 37.167 -38.5 51.5s-36.667 25.666 -60 33.999s-49.333 12.5 -78 12.5c-58 0 -104.5 -16.833 -139.5 -50.5
s-54.167 -78.834 -57.5 -135.501h-271zM501.999 -24.9932c-22.667 0 -43.834 4 -63.501 12s-36.834 19.167 -51.501 33.5s-26.334 31 -35.001 50s-13 39.5 -13 61.5s4.33301 42.5 13 61.5s20.334 35.667 35.001 50s31.834 25.5 51.501 33.5s40.834 12 63.501 12
s44 -4 64 -12s37.333 -19.167 52 -33.5s26.334 -31 35.001 -50s13 -39.5 13 -61.5s-4.33301 -42.5 -13 -61.5s-20.334 -35.667 -35.001 -50s-32 -25.5 -52 -33.5s-41.333 -12 -64 -12z" />
    <glyph glyph-name="at" unicode="@" horiz-adv-x="1810" 
d="M893 841c-53.333 0 -94.834 -20.5 -124.501 -61.5s-44.5 -98.167 -44.5 -171.5c0 -72.667 14.833 -129.667 44.5 -171s70.834 -62 123.501 -62c54 0 96.667 20.833 128 62.5s47 98.5 47 170.5c0 72.667 -15.5 129.667 -46.5 171s-73.5 62 -127.5 62zM925.999 1449
c118.667 0 227.334 -17.8311 326.001 -53.498s183.667 -86 255 -151s126.833 -143.167 166.5 -234.5s59.5 -192.666 59.5 -303.999c0 -78.667 -9 -150 -27 -214s-44 -118.5 -78 -163.5s-75.333 -79.667 -124 -104s-103.334 -36.5 -164.001 -36.5
c-62.667 0 -115.667 14 -159 42s-70.666 66.333 -81.999 115h-14c-20.667 -50 -51.334 -88.167 -92.001 -114.5s-90.334 -39.5 -149.001 -39.5c-52 0 -99.333 10.167 -142 30.5s-79.167 49 -109.5 86s-53.833 81.5 -70.5 133.5s-25 109.667 -25 173
c0 60.667 8.16699 116.167 24.5 166.5s39.333 93.5 69 129.5s65.167 63.833 106.5 83.5s87 29.5 137 29.5c54 0 102.167 -12.667 144.5 -38s73.166 -60 92.499 -104h14v120h203v-535c0 -34.667 7.83301 -62.167 23.5 -82.5s39.5 -30.5 71.5 -30.5
c24.667 0 47.167 7.66699 67.5 23s37.833 37.5 52.5 66.5s26 64.333 34 106s12 89.167 12 142.5c0 90.667 -15 173 -45 247s-72.5 137 -127.5 189s-121.333 92.167 -199 120.5s-163.834 42.5 -258.501 42.5c-96 0 -184.167 -16.5 -264.5 -49.5s-149.5 -79.5 -207.5 -139.5
s-103 -131.667 -135 -215s-48 -175.333 -48 -276c0 -105.333 16.833 -199.333 50.5 -282s80.834 -152.5 141.501 -209.5s133.5 -100.5 218.5 -130.5s179.167 -45 282.5 -45c26.667 0 53.167 0.833008 79.5 2.5s51.5 4 75.5 7s46.167 6.66699 66.5 11
s37.5 9.16602 51.5 14.499v-160c-39.333 -11.333 -83.666 -20.333 -132.999 -27s-101 -10 -155 -10c-126.667 0 -242.834 19.167 -348.501 57.5s-196.5 93.5 -272.5 165.5s-135.167 159.5 -177.5 262.5s-63.5 219.167 -63.5 348.5c0 124 20.667 237.167 62 339.5
s99.333 190.166 174 263.499s163.834 130.166 267.501 170.499s217.834 60.5 342.501 60.5z" />
    <glyph glyph-name="A" unicode="A" horiz-adv-x="1413" 
d="M955 350h-507l-110 -350h-310l501 1443h355l502 -1443h-321zM513 576h377l-185 591h-7z" />
    <glyph glyph-name="B" unicode="B" horiz-adv-x="1319" 
d="M120 0v1443h637c68 0 129.167 -8.33301 183.5 -25s100.5 -40.667 138.5 -72s67.333 -69.166 88 -113.499s31 -94.166 31 -149.499c0 -39.333 -7 -76.666 -21 -111.999s-33.167 -67 -57.5 -95s-53 -51.167 -86 -69.5s-68.5 -30.5 -106.5 -36.5v-8
c48.667 -4 93.834 -15.333 135.501 -34s77.667 -43.5 108 -74.5s54 -66.833 71 -107.5s25.5 -85 25.5 -133c0 -63.333 -11.5 -120.5 -34.5 -171.5s-56.167 -94.333 -99.5 -130s-95.833 -63.167 -157.5 -82.5s-130.834 -29 -207.501 -29h-648zM422 842.997h226.001
c80.667 0 143 16.833 187 50.5s66 81.167 66 142.5c0 58.667 -19.333 103.667 -58 135s-93.334 47 -164.001 47h-257v-375zM691.001 224.997c87.333 0 153.833 18 199.5 54s68.5 88.667 68.5 158c0 68 -23.5 119.5 -70.5 154.5s-115.167 52.5 -204.5 52.5h-262v-419h269z
" />
    <glyph glyph-name="C" unicode="C" horiz-adv-x="1459" 
d="M758 -25c-105.333 0 -199.998 17.0068 -283.998 51.0068s-155.667 83.167 -215 147.5s-104.833 142.666 -136.5 234.999s-47.5 196.833 -47.5 313.5c0 116 16 220.167 48 312.5s77.667 170.666 137 234.999s131 113.5 215 147.5s178.333 51 283 51
c86.667 0 167.334 -13.167 242.001 -39.5s140.167 -63.333 196.5 -111s101.5 -104.834 135.5 -171.501s54 -140.334 60 -221.001h-294c-7.33301 44 -20.833 84.167 -40.5 120.5s-44.334 67.166 -74.001 92.499s-63.667 45 -102 59s-79.5 21 -123.5 21
c-57.333 0 -109 -11.5 -155 -34.5s-85.333 -56 -118 -99s-57.834 -95 -75.501 -156s-26.5 -129.5 -26.5 -205.5c0 -77.333 8.83301 -146.666 26.5 -207.999s42.667 -113.5 75 -156.5s71.666 -76 117.999 -99s98.5 -34.5 156.5 -34.5c44.667 0 86 6.33301 124 19
s71.667 31 101 55s53.833 53 73.5 87s33.5 72.333 41.5 115h294c-8.66699 -80.667 -30 -153.334 -64 -218.001s-78.5 -119.834 -133.5 -165.501s-119.5 -80.834 -193.5 -105.501s-155.333 -37 -244 -37z" />
    <glyph glyph-name="D" unicode="D" horiz-adv-x="1438" 
d="M676 1443c108 0 204.667 -15.832 290 -47.499s157.5 -78 216.5 -139s104 -135.833 135 -224.5s46.5 -190.334 46.5 -305.001s-15.5 -217 -46.5 -307s-76 -166.167 -135 -228.5s-131.167 -109.833 -216.5 -142.5s-182 -49 -290 -49h-556v1443h556zM422 250.001
l218 0.000976562c136 0 239.333 40.167 310 120.5s106 198.833 106 355.5c0 75.333 -9.16699 142.166 -27.5 200.499s-45.166 107.333 -80.499 147s-78.833 69.667 -130.5 90s-110.834 30.5 -177.501 30.5h-218v-944z" />
    <glyph glyph-name="E" unicode="E" horiz-adv-x="1174" 
d="M1076 0h-956v1443h956v-249h-654v-348h617v-232h-617v-364h654v-250z" />
    <glyph glyph-name="F" unicode="F" horiz-adv-x="1123" 
d="M120 0v1443h945v-249h-643v-387h587v-239h-587v-568h-302z" />
    <glyph glyph-name="G" unicode="G" horiz-adv-x="1489" 
d="M1410 606c0 -98 -14.5029 -186 -43.5029 -264s-71 -144.167 -126 -198.5s-122 -96 -201 -125s-168.833 -43.5 -269.5 -43.5c-108 0 -204.833 17.167 -290.5 51.5s-158.5 83.666 -218.5 147.999s-106 143 -138 236s-48 198.167 -48 315.5c0 115.333 16 218.833 48 310.5
s77.667 169.5 137 233.5s131.5 113 216.5 147s180.5 51 286.5 51c84 0 162.333 -11.833 235 -35.5s136.667 -57.167 192 -100.5s101 -95.166 137 -155.499s59.333 -126.833 70 -199.5h-303c-11.333 38 -27.166 71.833 -47.499 101.5s-44.666 54.834 -72.999 75.501
s-60.166 36.5 -95.499 47.5s-73.333 16.5 -114 16.5c-59.333 0 -112.666 -11 -159.999 -33s-87.333 -54 -120 -96s-57.667 -93.167 -75 -153.5s-26 -128.833 -26 -205.5c0 -78 9.16699 -148.167 27.5 -210.5s44.5 -115.333 78.5 -159s75.167 -77 123.5 -100
s102.5 -34.5 162.5 -34.5c49.333 0 94.5 7.16699 135.5 21.5s76.333 34.666 106 60.999s53.167 58 70.5 95s26.666 77.833 27.999 122.5l1 23h-314v220h608v-163v0z" />
    <glyph glyph-name="H" unicode="H" horiz-adv-x="1494" 
d="M1072 0v608h-650v-608h-302v1443h302v-586h650v586h302v-1443h-302z" />
    <glyph glyph-name="I" unicode="I" horiz-adv-x="542" 
d="M120 0v1443h302v-1443h-302z" />
    <glyph glyph-name="J" unicode="J" horiz-adv-x="1143" 
d="M324 425c0.666992 -29.333 5.66504 -55.833 14.998 -79.5s22.333 -44 39 -61s36.667 -30.167 60 -39.5s49.333 -14 78 -14c63.333 0 111.5 19 144.5 57s49.5 93.333 49.5 166v989h302v-991c0 -76.667 -11.167 -145 -33.5 -205s-54.666 -110.5 -96.999 -151.5
s-94 -72.167 -155 -93.5s-130.167 -32 -207.5 -32c-74 0 -141 10.833 -201 32.5s-111.167 52.167 -153.5 91.5s-75.166 87 -98.499 143s-35 118.667 -35 188h293z" />
    <glyph glyph-name="K" unicode="K" horiz-adv-x="1353" 
d="M120 0v1443h302v-658h9l542 658h336l-534 -640l571 -803h-361l-428 603l-135 -162v-441h-302z" />
    <glyph glyph-name="L" unicode="L" horiz-adv-x="1112" 
d="M1053 0h-933v1443h302v-1193h631v-250z" />
    <glyph glyph-name="M" unicode="M" horiz-adv-x="1768" 
d="M1648 0h-269v974h-8l-392 -960h-190l-392 960h-8v-974h-269v1443h350l410 -1023h8l410 1023h350v-1443z" />
    <glyph glyph-name="N" unicode="N" horiz-adv-x="1463" 
d="M120 0v1443h252l674 -940h8v940h289v-1443h-250l-675 945h-9v-945h-289z" />
    <glyph glyph-name="O" unicode="O" horiz-adv-x="1541" 
d="M771 1468c106.667 0 203 -17.333 289 -52s159.167 -84.334 219.5 -149.001s106.666 -143.167 138.999 -235.5s48.5 -195.833 48.5 -310.5s-16.167 -218 -48.5 -310s-78.666 -170.333 -138.999 -235s-133.5 -114.334 -219.5 -149.001s-182.333 -52 -289 -52
c-107.333 0 -203.833 17.333 -289.5 52s-158.667 84.334 -219 149.001s-106.666 143 -138.999 235s-48.5 195.333 -48.5 310s16.167 218.167 48.5 310.5s78.666 170.833 138.999 235.5s133.333 114.334 219 149.001s182.167 52 289.5 52zM771 1216
c-59.333 0 -112.833 -11.5 -160.5 -34.5s-88.334 -56 -122.001 -99s-59.667 -95 -78 -156s-27.5 -129.5 -27.5 -205.5c0 -75.333 9.16699 -143.5 27.5 -204.5s44.333 -112.833 78 -155.5s74.334 -75.5 122.001 -98.5s101.167 -34.5 160.5 -34.5c58.667 0 112 11.5 160 34.5
s88.667 55.833 122 98.5s59.166 94.5 77.499 155.5s27.5 129.167 27.5 204.5c0 76 -9.16699 144.5 -27.5 205.5s-44.166 113 -77.499 156s-74 76 -122 99s-101.333 34.5 -160 34.5z" />
    <glyph glyph-name="P" unicode="P" horiz-adv-x="1280" 
d="M722 1443c74 0 141.667 -11.833 203 -35.5s114 -57 158 -100s78.167 -95 102.5 -156s36.5 -128.5 36.5 -202.5s-12.5 -141.333 -37.5 -202s-60.333 -112.667 -106 -156s-100 -76.833 -163 -100.5s-132.5 -35.5 -208.5 -35.5h-285v-455h-302v1443h602zM422 691h218.999
c87.333 0 154.833 22 202.5 66s71.5 107.667 71.5 191c0 82.667 -23.667 146 -71 190s-114.666 66 -201.999 66h-220v-513z" />
    <glyph glyph-name="Q" unicode="Q" horiz-adv-x="1541" 
d="M1126 -136l-103 151.001c-76 -26.667 -160 -40 -252 -40c-107.333 0 -203.833 17.167 -289.5 51.5s-158.667 83.666 -219 147.999s-106.666 142.5 -138.999 234.5s-48.5 196 -48.5 312c0 114.667 16.167 218.167 48.5 310.5s78.666 170.833 138.999 235.5
s133.333 114.334 219 149.001s182.167 52 289.5 52c106.667 0 202.834 -17.333 288.501 -52s158.667 -84.334 219 -149.001s106.666 -143.167 138.999 -235.5s48.5 -195.833 48.5 -310.5c0 -128 -19.667 -241.333 -59 -340s-96.333 -179 -171 -241l183 -276h-293z
M771 225.001c35.333 0 69.666 4.66602 102.999 13.999l-158 236h273l63 -86c34 39.333 60.167 87 78.5 143s27.5 119 27.5 189c0 76 -9.16699 144.667 -27.5 206s-44.166 113.666 -77.499 156.999s-74 76.666 -122 99.999s-101.333 35 -160 35
c-59.333 0 -112.833 -11.667 -160.5 -35s-88.334 -56.666 -122.001 -99.999s-59.667 -95.666 -78 -156.999s-27.5 -130 -27.5 -206c0 -75.333 9.16699 -143.666 27.5 -204.999s44.333 -113.5 78 -156.5s74.334 -76.167 122.001 -99.5s101.167 -35 160.5 -35z" />
    <glyph glyph-name="R" unicode="R" horiz-adv-x="1316" 
d="M422 747h264.999c76.667 0 136 20.333 178 61s63 97 63 169c0 34.667 -5.66699 66.167 -17 94.5s-27.5 52.5 -48.5 72.5s-46.667 35.5 -77 46.5s-64.166 16.5 -101.499 16.5h-262v-460zM421.999 0l-301.999 0.000976562v1443h596c82.667 0 156.5 -10.667 221.5 -32
s119.667 -51.833 164 -91.5s78.166 -87.834 101.499 -144.501s35 -120.667 35 -192c0 -46 -5.83301 -90.333 -17.5 -133s-28.667 -81.667 -51 -117s-49.833 -66.833 -82.5 -94.5s-69.667 -49.5 -111 -65.5l304 -573h-342l-269 528h-247v-528z" />
    <glyph glyph-name="S" unicode="S" horiz-adv-x="1293" 
d="M357 411c3.33301 -30 13.333 -57.002 30 -81.002s38.167 -44.667 64.5 -62s56.833 -30.666 91.5 -39.999s72 -14 112 -14s76.667 4.5 110 13.5s62 21.667 86 38s42.5 35.666 55.5 57.999s19.5 46.833 19.5 73.5c0 46.667 -18.833 84.334 -56.5 113.001
s-99.834 52.667 -186.501 72l-188 41c-264.667 56.667 -397 191 -397 403c0 66.667 13.667 127.167 41 181.5s65.5 100.833 114.5 139.5s107.167 68.5 174.5 89.5s141.333 31.5 222 31.5c84 0 159.833 -10.333 227.5 -31s125.334 -50 173.001 -88s84.5 -83.667 110.5 -137
s39.667 -112.666 41 -177.999h-283c-2.66699 30.667 -11 58 -25 82s-32.667 44.5 -56 61.5s-50.833 30 -82.5 39s-66.5 13.5 -104.5 13.5c-37.333 0 -71.333 -4.33301 -102 -13s-56.834 -20.667 -78.501 -36s-38.5 -34 -50.5 -56s-18 -46.333 -18 -73
c0 -44.667 18.5 -80.667 55.5 -108s97.167 -50.333 180.5 -69l175 -37c72 -15.333 134.167 -34.833 186.5 -58.5s95.5 -52 129.5 -85s59 -71.333 75 -115s24 -92.834 24 -147.501c0 -70 -13.667 -133.167 -41 -189.5s-66.333 -104.333 -117 -144
s-112.167 -70.167 -184.5 -91.5s-153.166 -32 -242.499 -32c-86.667 0 -165 10 -235 30s-130 48.833 -180 86.5s-89 83.334 -117 137.001s-43 114.5 -45 182.5h291z" />
    <glyph glyph-name="T" unicode="T" horiz-adv-x="1242" 
d="M470 0v1194h-422v249h1147v-249h-423v-1194h-302z" />
    <glyph glyph-name="U" unicode="U" horiz-adv-x="1449" 
d="M422 540c0 -46 6.66309 -87.833 19.9961 -125.5s32.833 -69.834 58.5 -96.501s57.334 -47.334 95.001 -62.001s80.834 -22 129.501 -22c48 0 90.833 7.33301 128.5 22s69.334 35.334 95.001 62.001s45.167 58.834 58.5 96.501s20 79.5 20 125.5v903h302v-933
c0 -79.333 -14.167 -151.833 -42.5 -217.5s-68.666 -122 -120.999 -169s-115.833 -83.5 -190.5 -109.5s-158 -39 -250 -39c-92.667 0 -176.334 13 -251.001 39s-138.167 62.5 -190.5 109.5s-92.666 103.333 -120.999 169s-42.5 138.167 -42.5 217.5v933h302v-903z" />
    <glyph glyph-name="V" unicode="V" horiz-adv-x="1389" 
d="M513 0l-485 1443h338l330 -1132h7l330 1132h329l-485 -1443h-364z" />
    <glyph glyph-name="W" unicode="W" horiz-adv-x="1977" 
d="M710 0h-285l-382 1443h313l227 -1045h8l270 1045h255l270 -1045h8l228 1045h313l-383 -1443h-285l-274 986h-9z" />
    <glyph glyph-name="X" unicode="X" horiz-adv-x="1404" 
d="M501 723v8l-455 712h355l306 -520h8l309 520h337l-472 -718v-7l466 -718h-344l-316 505h-8l-318 -505h-326z" />
    <glyph glyph-name="Y" unicode="Y" horiz-adv-x="1362" 
d="M530 0v539l-502 904h329l323 -616h7l324 616h324l-503 -904v-539h-302z" />
    <glyph glyph-name="Z" unicode="Z" horiz-adv-x="1292" 
d="M89 197l733 989v8h-716v249h1077v-196l-730 -990v-7h750v-250h-1114v197z" />
    <glyph glyph-name="bracketleft" unicode="[" horiz-adv-x="755" 
d="M722 1444v-215h-294v-1255h307v-214h-587v1684h574z" />
    <glyph glyph-name="backslash" unicode="\" horiz-adv-x="687" 
d="M0 1444h272l415 -1738h-266z" />
    <glyph glyph-name="bracketright" unicode="]" horiz-adv-x="755" 
d="M608 -240h-587v214h307v1255h-294v215h574v-1684z" />
    <glyph glyph-name="asciicircum" unicode="^" horiz-adv-x="978" 
d="M291 823h-256l326 611h259l324 -611h-263l-184 377h-17z" />
    <glyph glyph-name="underscore" unicode="_" horiz-adv-x="857" 
d="M-46 -325v218h949v-218h-949z" />
    <glyph glyph-name="grave" unicode="`" horiz-adv-x="1010" 
d="M520 1263l-263 310h273l221 -310h-231z" />
    <glyph glyph-name="a" unicode="a" horiz-adv-x="1147" 
d="M520 200c34 0 65.667 5.00098 95 15.001s55 24 77 42s39.333 39.5 52 64.5s19 52.5 19 82.5v81l-231 -16c-61.333 -4 -107.833 -17.667 -139.5 -41s-47.5 -55.333 -47.5 -96s15.833 -72.834 47.5 -96.501s74.167 -35.5 127.5 -35.5zM425 -12.999
c-53.333 0 -102.505 8.00488 -147.505 24.0049s-84.167 38.5 -117.5 67.5s-59.333 63.667 -78 104s-28 85.166 -28 134.499c0 100.667 37 178.667 111 234s181.667 87.333 323 96l275 17v73c0 53.333 -17 94 -51 122s-81.333 42 -142 42
c-53.333 0 -97.166 -12.667 -131.499 -38s-55.166 -58 -62.499 -98h-267c2 52.667 14.833 100.667 38.5 144s56.334 80.666 98.001 111.999s91 55.666 148 72.999s119.833 26 188.5 26c70.667 0 134.834 -8.66699 192.501 -26s106.834 -42 147.501 -74
s72.167 -70.5 94.5 -115.5s33.5 -94.833 33.5 -149.5v-755h-282v170h-6c-15.333 -28.667 -34.833 -54.334 -58.5 -77.001s-50.167 -41.834 -79.5 -57.501s-61 -27.667 -95 -36s-68.667 -12.5 -104 -12.5z" />
    <glyph glyph-name="b" unicode="b" horiz-adv-x="1252" 
d="M746 -13c-80.667 0 -150.836 17.501 -210.503 52.501s-104.834 84.5 -135.501 148.5h-6v-188h-287v1512h292v-599h6c30.667 64 75.334 113.5 134.001 148.5s127.334 52.5 206.001 52.5c69.333 0 131.833 -13 187.5 -39s102.834 -63.167 141.501 -111.5
s68.334 -107.333 89.001 -177s31 -148.167 31 -235.5s-10.333 -165.833 -31 -235.5s-50.334 -128.834 -89.001 -177.501s-85.667 -86 -141 -112s-117.666 -39 -186.999 -39zM646.998 878.001c-37.333 0 -71.332 -7.83496 -101.999 -23.502s-57 -37.834 -79 -66.501
s-39 -63.167 -51 -103.5s-18 -85.166 -18 -134.499s6 -94.166 18 -134.499s29 -74.666 51 -102.999s48.333 -50.333 79 -66s64.667 -23.5 102 -23.5c38 0 72.167 7.66699 102.5 23s56.333 37.333 78 66s38.334 63.167 50.001 103.5s17.5 85.5 17.5 135.5
s-5.83301 95 -17.5 135s-28.334 74.333 -50.001 103s-47.834 50.667 -78.501 66s-64.667 23 -102 23z" />
    <glyph glyph-name="c" unicode="c" horiz-adv-x="1142" 
d="M822 695c-4 28.667 -11.835 54.833 -23.502 78.5s-27 44.167 -46 61.5s-41.333 30.833 -67 40.5s-54.5 14.5 -86.5 14.5c-37.333 0 -71.166 -7.83301 -101.499 -23.5s-56.166 -38 -77.499 -67s-37.666 -64.5 -48.999 -106.5s-17 -89.333 -17 -142
c0 -54 5.66699 -102 17 -144s27.666 -77.5 48.999 -106.5s47.166 -51 77.499 -66s64.5 -22.5 102.5 -22.5c62 0 112.333 16.167 151 48.5s62.667 78.833 72 139.5h272c-4 -64 -18.667 -121.833 -44 -173.5s-59.666 -95.667 -102.999 -132s-94.666 -64.333 -153.999 -84
s-125 -29.5 -197 -29.5c-82 0 -156.333 13.167 -223 39.5s-123.334 64 -170.001 113s-82.667 108.667 -108 179s-38 149.833 -38 238.5c0 87.333 12.667 166 38 236s61.333 129.667 108 179s103 87.333 169 114s140 40 222 40c74 0 141 -10.667 201 -32
s111.5 -50.833 154.5 -88.5s76.833 -82.5 101.5 -134.5s38.667 -108.667 42 -170h-272z" />
    <glyph glyph-name="d" unicode="d" horiz-adv-x="1249" 
d="M509 -13c-68.667 0 -130.67 13.165 -186.003 39.498s-102.666 64 -141.999 113s-69.666 108.333 -90.999 178s-32 147.834 -32 234.501c0 86 10.667 163.667 32 233s51.666 128.333 90.999 177s86.833 86.167 142.5 112.5s117.834 39.5 186.501 39.5
c80 0 149.167 -18.167 207.5 -54.5s101.5 -85.166 129.5 -146.499h6v599h292v-1512h-288v188h-5c-13.333 -30 -31.166 -57.5 -53.499 -82.5s-48.166 -46.167 -77.499 -63.5s-61.833 -30.833 -97.5 -40.5s-73.834 -14.5 -114.501 -14.5zM605.997 877.998
c-38 0 -72.333 -7.66992 -103 -23.0029s-56.834 -37.166 -78.501 -65.499s-38.334 -62.666 -50.001 -102.999s-17.5 -85.5 -17.5 -135.5c0 -50.667 5.83301 -96.167 17.5 -136.5s28.334 -74.666 50.001 -102.999s47.834 -50.166 78.501 -65.499s65 -23 103 -23
s72.333 7.66699 103 23s56.834 37.333 78.501 66s38.334 63 50.001 103s17.5 85 17.5 135s-5.83301 95.167 -17.5 135.5s-28.334 74.666 -50.001 102.999s-47.834 50.333 -78.501 66s-65 23.5 -103 23.5z" />
    <glyph glyph-name="e" unicode="e" horiz-adv-x="1164" 
d="M590 902c-33.333 0 -64.167 -5.83301 -92.5 -17.5s-53 -28 -74 -49s-38 -46 -51 -75s-20.833 -61.167 -23.5 -96.5h475c-1.33301 36 -8 68.667 -20 98s-28.167 54.333 -48.5 75s-44.5 36.667 -72.5 48s-59 17 -93 17zM1097 336
c-8 -53.333 -25.998 -101.834 -53.998 -145.501s-63.667 -81 -107 -112s-93.833 -55 -151.5 -72s-119.834 -25.5 -186.501 -25.5c-84 0 -159.333 13 -226 39s-123.167 63.333 -169.5 112s-82 108 -107 178s-37.5 148.667 -37.5 236s12.333 166.333 37 237s60 131 106 181
s101.667 88.5 167 115.5s138.333 40.5 219 40.5c79.333 0 151 -12.833 215 -38.5s118.5 -62.167 163.5 -109.5s79.667 -104.666 104 -171.999s36.5 -143 36.5 -227v-90h-760v-18c0 -40 6.16699 -76.333 18.5 -109s29.666 -60.667 51.999 -84s49.333 -41.333 81 -54
s66.834 -19 105.501 -19c55.333 0 103.166 12.167 143.499 36.5s67.5 57.833 81.5 100.5h269z" />
    <glyph glyph-name="f" unicode="f" horiz-adv-x="734" 
d="M177 880h-148.998v221h149v98c0 52.667 6.66699 98 20 136s34.166 69 62.499 93s65 41.667 110 53s99.5 17 163.5 17c25.333 0 49.166 -0.833008 71.499 -2.5s43.5 -4.16699 63.5 -7.5v-203c-10.667 2 -22.667 3.66699 -36 5s-28 2 -44 2c-44 0 -75.667 -8.66699 -95 -26
s-29.333 -45.333 -30 -84v-81h206v-221h-200v-880h-292v880z" />
    <glyph glyph-name="g" unicode="g" horiz-adv-x="1244" 
d="M604 233c38 0 72.332 7.33594 102.999 22.0029s57 35.834 79 63.501s38.833 61.167 50.5 100.5s17.5 83.666 17.5 132.999s-5.83301 94.166 -17.5 134.499s-28.5 74.666 -50.5 102.999s-48.333 50.166 -79 65.499s-65 23 -103 23s-72.167 -7.66699 -102.5 -23
s-56.166 -37 -77.499 -65s-37.833 -62 -49.5 -102s-17.5 -85 -17.5 -135s5.66699 -94.833 17 -134.5s27.833 -73.167 49.5 -100.5s47.667 -48.333 78 -63s64.5 -22 102.5 -22zM600.999 -402.997c-72 0 -138.334 7.66895 -199.001 23.002s-113.167 37.166 -157.5 65.499
s-79.5 62.5 -105.5 102.5s-41 84.667 -45 134h288c4.66699 -18 13.667 -34.333 27 -49s30 -27.167 50 -37.5s42.667 -18.333 68 -24s52.333 -8.5 81 -8.5c36.667 0 70.167 4.66699 100.5 14s56.166 22.5 77.499 39.5s37.833 37.833 49.5 62.5s17.5 52.667 17.5 84v197h-6
c-13.333 -29.333 -31.166 -56 -53.499 -80s-48.166 -44.333 -77.499 -61s-61.666 -29.5 -96.999 -38.5s-73 -13.5 -113 -13.5c-67.333 0 -128.5 12.667 -183.5 38s-102 61.5 -141 108.5s-69.333 104.333 -91 172s-32.5 143.834 -32.5 228.501c0 86 10.5 163.667 31.5 233
s51.167 128.166 90.5 176.499s86.833 85.5 142.5 111.5s118.5 39 188.5 39c39.333 0 76.5 -4.83301 111.5 -14.5s67.167 -23.167 96.5 -40.5s55.166 -38.333 77.499 -63s40.833 -52.334 55.5 -83.001h5v188h288v-1076c0 -65.333 -12.833 -124.5 -38.5 -177.5
s-62.167 -98 -109.5 -135s-104.5 -65.5 -171.5 -85.5s-141.833 -30 -224.5 -30z" />
    <glyph glyph-name="h" unicode="h" horiz-adv-x="1247" 
d="M107 1512h286.998v-608h6c31.333 70 77.333 123 138 159s133.334 54 218.001 54c60.667 0 115.5 -9.5 164.5 -28.5s90.833 -46.333 125.5 -82s61.167 -79 79.5 -130s27.5 -108.5 27.5 -172.5v-704h-292v643c0 72.667 -19.667 129.334 -59 170.001s-94 61 -164 61
c-35.333 0 -67.666 -6 -96.999 -18s-54.5 -29 -75.5 -51s-37.333 -48.333 -49 -79s-17.5 -64.334 -17.5 -101.001v-625h-292v1512z" />
    <glyph glyph-name="i" unicode="i" horiz-adv-x="500" 
d="M104 1101h292v-1101h-292v1101zM250 1221c-21.333 0 -41.5 3.83301 -60.5 11.5s-35.667 18.334 -50 32.001s-25.666 29.834 -33.999 48.501s-12.5 39 -12.5 61s4.16699 42.167 12.5 60.5s19.666 34.333 33.999 48s31 24.334 50 32.001s39.167 11.5 60.5 11.5
c22 0 42.5 -3.83301 61.5 -11.5s35.667 -18.334 50 -32.001s25.666 -29.667 33.999 -48s12.5 -38.5 12.5 -60.5s-4.16699 -42.333 -12.5 -61s-19.666 -34.834 -33.999 -48.501s-31 -24.334 -50 -32.001s-39.5 -11.5 -61.5 -11.5z" />
    <glyph glyph-name="j" unicode="j" horiz-adv-x="500" 
d="M396 -37c0 -112.667 -32.8291 -197.332 -98.4961 -253.999s-163.167 -85 -292.5 -85h-19.5c-7.66699 0 -15.334 0.166992 -23.001 0.5s-14.834 0.666016 -21.501 0.999023s-11.334 0.833008 -14.001 1.5v216c3.33301 -0.666992 9.16602 -1 17.499 -1h19.5
c50.667 0 86.667 9.83301 108 29.5s32 52.5 32 98.5v1131h292v-1138zM250.004 1221c-21.333 0 -41.5 3.83301 -60.5 11.5s-35.667 18.334 -50 32.001s-25.666 29.834 -33.999 48.501s-12.5 39 -12.5 61s4.16699 42.167 12.5 60.5s19.666 34.333 33.999 48
s31 24.334 50 32.001s39.167 11.5 60.5 11.5c22 0 42.5 -3.83301 61.5 -11.5s35.667 -18.334 50 -32.001s25.666 -29.667 33.999 -48s12.5 -38.5 12.5 -60.5s-4.16699 -42.333 -12.5 -61s-19.666 -34.834 -33.999 -48.501s-31 -24.334 -50 -32.001s-39.5 -11.5 -61.5 -11.5z
" />
    <glyph glyph-name="k" unicode="k" horiz-adv-x="1126" 
d="M784 1101h332l-424 -473l444 -628h-336l-322 452l-79 -85v-367h-292v1512h292v-856h4z" />
    <glyph glyph-name="l" unicode="l" horiz-adv-x="505" 
d="M107 1512h292v-1512h-292v1512z" />
    <glyph glyph-name="m" unicode="m" horiz-adv-x="1811" 
d="M99 1101l282.003 -0.00195312v-200h6c12 33.333 28.167 63.333 48.5 90s44 49.334 71 68.001s57 33 90 43s67.833 15 104.5 15c79.333 0 145.666 -19.333 198.999 -58s89.333 -94.334 108 -167.001h6c12.667 34.667 30 65.834 52 93.501s47.833 51.167 77.5 70.5
s62.5 34.333 98.5 45s74 16 114 16c54 0 103.167 -8.83301 147.5 -26.5s82.333 -42.667 114 -75s56.167 -71.166 73.5 -116.499s26 -95.666 26 -150.999v-748h-292v675c0 64.667 -15.667 114.167 -47 148.5s-77 51.5 -137 51.5c-28.667 0 -54.834 -5 -78.501 -15
s-43.834 -24.167 -60.501 -42.5s-29.667 -40.333 -39 -66s-14 -54.167 -14 -85.5v-666h-282v686c0 59.333 -16 105.666 -48 138.999s-76.333 50 -133 50c-28.667 0 -55 -5.16699 -79 -15.5s-44.5 -25 -61.5 -44s-30.333 -41.5 -40 -67.5s-14.5 -54.667 -14.5 -86v-662h-292
v1101z" />
    <glyph glyph-name="n" unicode="n" horiz-adv-x="1227" 
d="M99 1101h281.997v-197h6c32 70 77.667 123 137 159s131.666 54 216.999 54c60.667 0 115.334 -9.33301 164.001 -28s89.834 -45.667 123.501 -81s59.5 -78.5 77.5 -129.5s27 -108.5 27 -172.5v-706h-292v645c0 73.333 -18.667 129.833 -56 169.5
s-90.666 59.5 -159.999 59.5c-35.333 0 -67.333 -6 -96 -18s-53.167 -28.833 -73.5 -50.5s-36.166 -47.5 -47.499 -77.5s-17 -63.333 -17 -100v-628h-292v1101z" />
    <glyph glyph-name="o" unicode="o" horiz-adv-x="1201" 
d="M601 -19c-83.333 0 -158.499 13 -225.499 39s-124 63.5 -171 112.5s-83.167 108.667 -108.5 179s-38 150.166 -38 239.499c0 88 12.833 167.167 38.5 237.5s62 130 109 179s104 86.667 171 113s141.833 39.5 224.5 39.5s157.5 -13.167 224.5 -39.5
s124.167 -64 171.5 -113s83.666 -108.667 108.999 -179s38 -149.5 38 -237.5c0 -89.333 -12.667 -169.166 -38 -239.499s-61.5 -130 -108.5 -179s-104 -86.5 -171 -112.5s-142.167 -39 -225.5 -39zM601.001 206c77.333 0 137.665 30.002 180.998 90.002s65 145 65 255
c0 54 -5.66699 102.5 -17 145.5s-27.5 79.167 -48.5 108.5s-46.833 51.833 -77.5 67.5s-65 23.5 -103 23.5c-38.667 0 -73.167 -7.83301 -103.5 -23.5s-56.166 -38.334 -77.499 -68.001s-37.666 -65.834 -48.999 -108.501s-17 -91 -17 -145c0 -110 21.833 -195 65.5 -255
s104.167 -90 181.5 -90z" />
    <glyph glyph-name="p" unicode="p" horiz-adv-x="1244" 
d="M735 1114c70 0 132.831 -12.999 188.498 -38.999s103 -63.167 142 -111.5s69 -107.333 90 -177s31.5 -148.167 31.5 -235.5s-10.333 -165.833 -31 -235.5s-50.5 -128.834 -89.5 -177.501s-86.167 -86 -141.5 -112s-117.333 -39 -186 -39c-80 0 -149.5 17.333 -208.5 52
s-103.5 83.334 -133.5 146.001h-6v-531h-292v1447h288v-188h6c14.667 30.667 33.334 58.5 56.001 83.5s48.834 46.167 78.501 63.5s62 30.666 97 39.999s71.833 14 110.5 14zM637.998 223.001c38 0 72.333 7.66797 103 23.001s56.834 37.333 78.501 66
s38.5 63.167 50.5 103.5s18 85.5 18 135.5c0 49.333 -6 94.166 -18 134.499s-28.833 74.666 -50.5 102.999s-47.834 50.333 -78.501 66s-65 23.5 -103 23.5c-37.333 0 -71.166 -7.83301 -101.499 -23.5s-56.333 -37.834 -78 -66.501s-38.5 -63.167 -50.5 -103.5
s-18 -85.166 -18 -134.499s6 -94.166 18 -134.499s28.833 -74.833 50.5 -103.5s47.667 -50.667 78 -66s64.166 -23 101.499 -23z" />
    <glyph glyph-name="q" unicode="q" horiz-adv-x="1244" 
d="M511 1114c80.667 0 150.5 -18.1709 209.5 -54.5039s102.833 -85.166 131.5 -146.499h5v188h288v-1447h-292v531h-6c-13.333 -29.333 -31 -56.166 -53 -80.499s-47.667 -45.166 -77 -62.499s-61.833 -30.833 -97.5 -40.5s-73.5 -14.5 -113.5 -14.5
c-68.667 0 -130.5 13.167 -185.5 39.5s-102 64 -141 113s-69 108.333 -90 178s-31.5 147.834 -31.5 234.501s10.5 164.667 31.5 234s51.167 128.333 90.5 177s87 86 143 112s118.667 39 188 39zM604 222.996c38 0 72.333 7.66309 103 22.9961s57 37.333 79 66
s38.833 63 50.5 103s17.5 85 17.5 135c0 49.333 -6 94.166 -18 134.499s-28.833 74.833 -50.5 103.5s-47.834 50.834 -78.501 66.501s-65 23.5 -103 23.5s-72.167 -7.66699 -102.5 -23s-56.166 -37.166 -77.499 -65.499s-37.833 -62.666 -49.5 -102.999
s-17.5 -85.5 -17.5 -135.5c0 -50.667 5.66699 -96.167 17 -136.5s27.833 -74.666 49.5 -102.999s47.667 -50.166 78 -65.499s64.5 -23 102.5 -23z" />
    <glyph glyph-name="r" unicode="r" horiz-adv-x="759" 
d="M99 1101l281.999 -0.000976562v-197h6c18.667 68.667 50.667 120.834 96 156.501s100.666 53.5 165.999 53.5c14.667 0 29.334 -1 44.001 -3s27.334 -4.66699 38.001 -8v-259c-12 5.33301 -28 9.66602 -48 12.999s-39 5 -57 5c-74.667 0 -132.5 -21.667 -173.5 -65
s-61.5 -103.666 -61.5 -180.999v-616h-292v1101z" />
    <glyph glyph-name="s" unicode="s" horiz-adv-x="1078" 
d="M80 777c0 52 11.001 99.0029 33.001 141.003s53 78 93 108s88.333 53.167 145 69.5s120 24.5 190 24.5c68 0 129.833 -8.33301 185.5 -25s103.5 -40.334 143.5 -71.001s71 -67.334 93 -110.001s33.667 -90.334 35 -143.001h-270c-3.33301 44 -21.833 78.667 -55.5 104
s-78.834 38 -135.501 38c-52.667 0 -95 -10.667 -127 -32s-48 -50 -48 -86c0 -54 49 -92.333 147 -115l207 -45c55.333 -12.667 102.5 -27.667 141.5 -45s71 -38 96 -62s43.167 -51.833 54.5 -83.5s17 -67.834 17 -108.501c0 -53.333 -11.833 -101.833 -35.5 -145.5
s-56.667 -81 -99 -112s-93.333 -55 -153 -72s-125.5 -25.5 -197.5 -25.5c-72.667 0 -138.167 8.33301 -196.5 25s-108.333 40.5 -150 71.5s-74.5 68 -98.5 111s-38 91.167 -42 144.5h285c7.33301 -46.667 29 -82.5 65 -107.5s84.333 -37.5 145 -37.5
c58.667 0 104.5 10.5 137.5 31.5s49.5 49.5 49.5 85.5c0 28.667 -10.5 51.334 -31.5 68.001s-56.5 31 -106.5 43l-203 46c-104 23.333 -182.333 61.5 -235 114.5s-79 119.833 -79 200.5z" />
    <glyph glyph-name="t" unicode="t" horiz-adv-x="741" 
d="M469 1346v-245.001h204v-221h-204v-535c0 -84 43.667 -126 131 -126c13.333 0 26.5 0.5 39.5 1.5s24.167 2.16699 33.5 3.5v-216c-15.333 -3.33301 -35.166 -6.16602 -59.499 -8.49902s-51.5 -3.5 -81.5 -3.5c-64 0 -118.333 5.66699 -163 17s-81.334 29 -110.001 53
s-49.5 55 -62.5 93s-19.5 84 -19.5 138v583h-149v221h149v245h292z" />
    <glyph glyph-name="u" unicode="u" horiz-adv-x="1227" 
d="M1128 0l-281.999 -0.00195312v199h-6c-28 -69.333 -71.667 -122.5 -131 -159.5s-131 -55.5 -215 -55.5c-59.333 0 -113.666 9.33301 -162.999 28s-91.5 45.834 -126.5 81.501s-62.167 78.834 -81.5 129.501s-29 108 -29 172v706h292v-645
c0 -74.667 19.5 -131.5 58.5 -170.5s92.5 -58.5 160.5 -58.5c34 0 65.167 5.83301 93.5 17.5s52.666 28.334 72.999 50.001s36.166 47.667 47.499 78s17 64.166 17 101.499v627h292v-1101z" />
    <glyph glyph-name="v" unicode="v" horiz-adv-x="1106" 
d="M718 0h-328l-382 1101h312l234 -840h6l233 840h305z" />
    <glyph glyph-name="w" unicode="w" horiz-adv-x="1654" 
d="M1341 0h-310l-203 784h-6l-201 -784h-307l-294 1101h294l170 -822h6l199 822h280l200 -822h6l171 822h288z" />
    <glyph glyph-name="x" unicode="x" horiz-adv-x="1104" 
d="M542 385l-211 -385h-308l348 549l-345 552h329l202 -375h6l201 375h317l-346 -545l344 -556h-319l-212 385h-6z" />
    <glyph glyph-name="y" unicode="y" horiz-adv-x="1136" 
d="M239 -402c-2.66699 0 -9.5 0.167969 -20.5 0.500977s-22.667 0.666016 -35 0.999023s-24 0.666016 -35 0.999023s-17.833 0.833008 -20.5 1.5v226c2.66699 -0.666992 7 -1.16699 13 -1.5s12.5 -0.666016 19.5 -0.999023s13.5 -0.5 19.5 -0.5h14c54.667 0 98 10 130 30
s53.667 52 65 96l10 42l-386 1108h320l238 -864h6l239 864h308l-381 -1123c-23.333 -70 -49.833 -129.167 -79.5 -177.5s-64.5 -87.5 -104.5 -117.5s-86.167 -51.667 -138.5 -65s-112.833 -20 -181.5 -20z" />
    <glyph glyph-name="z" unicode="z" horiz-adv-x="1059" 
d="M78 168l553 704v5h-545v224h883v-186l-521 -685v-6h534v-224h-904v168z" />
    <glyph glyph-name="braceleft" unicode="{" horiz-adv-x="837" 
d="M361 595c68.667 -6 120.331 -29.8369 154.998 -71.5039s52 -100.5 52 -176.5v-266c0 -39.333 3.66699 -72.166 11 -98.499s19.333 -47.5 36 -63.5s38.667 -27.5 66 -34.5s61.333 -10.5 102 -10.5h44v-212h-104c-76 0 -141.333 7.33301 -196 22s-99.5 37.5 -134.5 68.5
s-60.833 70.5 -77.5 118.5s-25 105.667 -25 173v225c0 38.667 -2.83301 71.334 -8.5 98.001s-15 48 -28 64s-30.167 27.5 -51.5 34.5s-48 10.5 -80 10.5v269c31.333 0 57.833 3.5 79.5 10.5s39 18.667 52 35s22.333 37.833 28 64.5s8.5 59.667 8.5 99v191
c0 66 8.16699 122.5 24.5 169.5s42 85.5 77 115.5s79.833 52.167 134.5 66.5s120.334 21.5 197.001 21.5h104v-212h-44c-41.333 0 -75.666 -3.5 -102.999 -10.5s-49.333 -18.5 -66 -34.5s-28.5 -37.167 -35.5 -63.5s-10.5 -59.166 -10.5 -98.499v-242
c0 -73.333 -16.5 -128.666 -49.5 -165.999s-85.5 -59.333 -157.5 -66v-30v0z" />
    <glyph glyph-name="bar" unicode="|" horiz-adv-x="603" 
d="M165 -293v1736h273v-1736h-273z" />
    <glyph glyph-name="braceright" unicode="}" horiz-adv-x="837" 
d="M478 625c-72.667 6.66699 -125.668 28.835 -159.001 66.502s-50 92.834 -50 165.501v242c0 39.333 -3.5 72.166 -10.5 98.499s-18.833 47.5 -35.5 63.5s-38.667 27.5 -66 34.5s-61.333 10.5 -102 10.5h-45v212h105c76.667 0 142.167 -7 196.5 -21s99 -36.167 134 -66.5
s60.667 -69 77 -116s24.5 -103.5 24.5 -169.5v-191c0 -39.333 2.83301 -72.333 8.5 -99s15.167 -48.167 28.5 -64.5s30.833 -28 52.5 -35s48.167 -10.5 79.5 -10.5v-269c-32 0 -58.667 -3.5 -80 -10.5s-38.666 -18.5 -51.999 -34.5s-22.833 -37.333 -28.5 -64
s-8.5 -59.334 -8.5 -98.001v-225c0 -67.333 -8.33301 -125 -25 -173s-42.5 -87.5 -77.5 -118.5s-79.667 -53.833 -134 -68.5s-119.5 -22 -195.5 -22h-105v212h45c40.667 0 74.667 3.5 102 10.5s49.333 18.5 66 34.5s28.5 37.167 35.5 63.5s10.5 59.166 10.5 98.499v266
c0 76 17.5 134.833 52.5 176.5s87.167 65.5 156.5 71.5v30z" />
    <glyph glyph-name="asciitilde" unicode="~" horiz-adv-x="1199" 
d="M553 624c-30 30 -55.1719 51.167 -75.5049 63.5s-41.833 18.5 -64.5 18.5c-74 0 -112.667 -59.333 -116 -178h-228c-3.33301 64.667 1.83398 123.167 15.501 175.5s34.334 97 62.001 134s62.167 65.333 103.5 85s88 29.5 140 29.5c44.667 0 87.834 -10.333 129.501 -31
s85.167 -53.667 130.5 -99c28.667 -29.333 53.167 -50.166 73.5 -62.499s41.5 -18.5 63.5 -18.5c36.667 0 64.834 15 84.501 45s30.167 74.333 31.5 133h228c2.66699 -65.333 -2.66602 -124 -15.999 -176s-33.833 -96.5 -61.5 -133.5s-62.167 -65.333 -103.5 -85
s-88 -29.5 -140 -29.5c-22.667 0 -44.5 2.5 -65.5 7.5s-41.833 12.667 -62.5 23s-41.667 23.666 -63 39.999s-43.333 35.833 -66 58.5z" />
    <glyph glyph-name="nonbreakingspace" unicode="&#xa0;" horiz-adv-x="440" 
 />
    <glyph glyph-name="exclamdown" unicode="&#xa1;" horiz-adv-x="648" 
d="M198 645h252l24 -969h-300zM324 833c-22.667 0 -44 4 -64 12s-37.333 19 -52 33s-26.167 30.5 -34.5 49.5s-12.5 39.5 -12.5 61.5s4.16699 42.667 12.5 62s19.833 36 34.5 50s32 25 52 33s41.333 12 64 12s44 -4 64 -12s37.333 -19 52 -33s26.167 -30.667 34.5 -50
s12.5 -40 12.5 -62s-4.16699 -42.5 -12.5 -61.5s-19.833 -35.5 -34.5 -49.5s-32 -25 -52 -33s-41.333 -12 -64 -12z" />
    <glyph glyph-name="cent" unicode="&#xa2;" horiz-adv-x="1326" 
d="M1212 542c-4.66699 -54.667 -18.167 -105.003 -40.5 -151.003s-51.666 -86.5 -87.999 -121.5s-78.833 -64 -127.5 -87s-102 -38.833 -160 -47.5v-182h-242v187c-66.667 12.667 -127 34.834 -181 66.501s-100.167 71.834 -138.5 120.501s-67.833 104.667 -88.5 168
s-31 132.666 -31 207.999c0 74.667 10.333 143.334 31 206.001s50.167 118 88.5 166s84.5 88 138.5 120s114.333 54 181 66v187h242v-183c57.333 -8.66699 110.666 -25 159.999 -49s92.333 -54 129 -90s66 -77.333 88 -124s35 -96.667 39 -150h-272
c-6 28.667 -16.333 54.834 -31 78.501s-33 43.834 -55 60.501s-47 29.5 -75 38.5s-58 13.5 -90 13.5c-40.667 0 -78.167 -8 -112.5 -24s-64 -38.667 -89 -68s-44.5 -65 -58.5 -107s-21 -89 -21 -141c0 -52.667 7 -100.334 21 -143.001s33.5 -79 58.5 -109s54.5 -53 88.5 -69
s71.333 -24 112 -24c68 0 124 15.167 168 45.5s72 76.5 84 138.5h272v0z" />
    <glyph glyph-name="sterling" unicode="&#xa3;" horiz-adv-x="1326" 
d="M1230 248l-0.000976562 -248.002h-1124v232c44.667 6.66699 85.667 19.667 123 39s69.333 43.333 96 72s47.334 61.334 62.001 98.001s22 75.667 22 117c0 13.333 -0.666992 26.166 -2 38.499s-3 24.833 -5 37.5h-292v207h224c-15.333 39.333 -29 78.833 -41 118.5
s-18 81.5 -18 125.5c0 62.667 12.5 118.5 37.5 167.5s61.333 90.333 109 124s106.167 59.334 175.5 77.001s148 26.5 236 26.5c30.667 0 61.834 -1.33301 93.501 -4s62.167 -6.16699 91.5 -10.5s56.5 -9.66602 81.5 -15.999s46.167 -12.833 63.5 -19.5v-236
c-16 6.66699 -35.167 13.167 -57.5 19.5s-46.5 11.833 -72.5 16.5s-52.833 8.33398 -80.5 11.001s-54.834 4 -81.501 4c-93.333 0 -165.5 -17.833 -216.5 -53.5s-76.5 -85.834 -76.5 -150.501c0 -34.667 4.5 -68.334 13.5 -101.001s19.5 -65.667 31.5 -99h414v-207h-349
c1.33301 -9.33301 2.33301 -18.833 3 -28.5s1 -19.167 1 -28.5c0 -36 -4.66699 -70.167 -14 -102.5s-22 -62.166 -38 -89.499s-34.667 -52 -56 -74s-44 -40.333 -68 -55v-8h714z" />
    <glyph glyph-name="currency" unicode="&#xa4;" horiz-adv-x="1351" 
d="M442 649c0 -32 6.16699 -62.167 18.5 -90.5s29.166 -53.333 50.499 -75s46.166 -38.667 74.499 -51s58.5 -18.5 90.5 -18.5s62.167 6.16699 90.5 18.5s53.166 29.333 74.499 51s38.166 46.667 50.499 75s18.5 58.5 18.5 90.5s-6.16699 62.333 -18.5 91
s-29.166 53.667 -50.499 75s-46.166 38.333 -74.499 51s-58.5 19 -90.5 19s-62.167 -6.33301 -90.5 -19s-53.166 -29.667 -74.499 -51s-38.166 -46.333 -50.499 -75s-18.5 -59 -18.5 -91zM1066 874c19.333 -33.333 34.1689 -68.832 44.502 -106.499
s15.5 -77.167 15.5 -118.5s-5.16699 -80.833 -15.5 -118.5s-25.166 -73.167 -44.499 -106.5l149 -149l-166 -166l-150 150c-32.667 -19.333 -67.834 -34.166 -105.501 -44.499s-76.834 -15.5 -117.501 -15.5c-41.333 0 -80.666 5.16699 -117.999 15.5
s-72.666 25.166 -105.999 44.499l-150 -150l-166 166l150 150c-19.333 33.333 -34.166 68.666 -44.499 105.999s-15.5 76.666 -15.5 117.999c0 40.667 5.16699 79.834 15.5 117.501s25.166 73.167 44.499 106.5l-150 150l166 166l149 -149
c34 19.333 69.667 34.166 107 44.499s76.666 15.5 117.999 15.5s80.666 -5.16699 117.999 -15.5s72.666 -25.166 105.999 -44.499l149 149l166 -166z" />
    <glyph glyph-name="yen" unicode="&#xa5;" horiz-adv-x="1326" 
d="M815 212v-212h-302v212h-271v166h271v136h-271v166h195l-427 763h327l323 -613h9l320 613h327l-425 -763h195v-166h-271v-136h271v-166h-271z" />
    <glyph glyph-name="brokenbar" unicode="&#xa6;" horiz-adv-x="604" 
d="M166 774v669h273v-669h-273zM166 -293v670h273v-670h-273z" />
    <glyph glyph-name="section" unicode="&#xa7;" horiz-adv-x="994" 
d="M554 413c20 2.66699 38.3311 8.33301 54.998 17s31.334 19.5 44.001 32.5s22.5 27.5 29.5 43.5s10.5 32.667 10.5 50c0 32.667 -12.167 61.167 -36.5 85.5s-59.166 42.833 -104.499 55.5l-109 37c-19.333 -2.66699 -37.5 -8.5 -54.5 -17.5s-31.833 -20 -44.5 -33
s-22.667 -27.5 -30 -43.5s-11 -32.333 -11 -49c0 -32 12.333 -60.333 37 -85s59.667 -43.667 105 -57zM495.998 -284.001c-62 0 -119.17 7.99219 -171.503 23.9922s-97.666 38.5 -135.999 67.5s-68.666 64 -90.999 105s-34.833 86.167 -37.5 135.5h253
c2.66699 -19.333 9.16699 -36.666 19.5 -51.999s23.666 -28.666 39.999 -39.999s35.333 -20 57 -26s45.167 -9 70.5 -9c26 0 49.667 3.16699 71 9.5s39.666 15.166 54.999 26.499s27.166 25 35.499 41s12.5 33.667 12.5 53c0 29.333 -11.667 53.833 -35 73.5
s-61.333 37.5 -114 53.5l-175 58c-105.333 34 -181.833 74.667 -229.5 122s-71.5 106.666 -71.5 177.999c0 31.333 4.83301 60.833 14.5 88.5s23.834 53 42.501 76s41.334 43.333 68.001 61s56.667 31.5 90 41.5v18c-71.333 32.667 -123.333 70.834 -156 114.501
s-49 96.834 -49 159.501c0 50.667 10.5 96.5 31.5 137.5s50.5 76.167 88.5 105.5s84 52 138 68s114 24 180 24c61.333 0 117.5 -7.66699 168.5 -23s95.167 -37.166 132.5 -65.499s67.166 -62.666 89.499 -102.999s35.5 -85.166 39.5 -134.499h-251
c-5.33301 36.667 -24.5 66.167 -57.5 88.5s-74.167 33.5 -123.5 33.5c-51.333 0 -92.666 -11.833 -123.999 -35.5s-47 -54.834 -47 -93.501c0 -29.333 11.333 -53.666 34 -72.999s60.334 -37.666 113.001 -54.999l171 -58c53.333 -18 99.166 -37 137.499 -57
s69.833 -42 94.5 -66s42.834 -50.333 54.501 -79s17.5 -60 17.5 -94c0 -32.667 -5.5 -63.667 -16.5 -93s-26.667 -56.166 -47 -80.499s-44.666 -45.5 -72.999 -63.5s-59.833 -31.667 -94.5 -41v-18c77.333 -28.667 133.833 -64 169.5 -106s53.5 -95.333 53.5 -160
c0 -50 -10.667 -95.833 -32 -137.5s-51.333 -77.167 -90 -106.5s-85.167 -52.166 -139.5 -68.499s-114.5 -24.5 -180.5 -24.5z" />
    <glyph glyph-name="dieresis" unicode="&#xa8;" horiz-adv-x="1010" 
d="M296 1259c-19.333 0 -37.166 3.5 -53.499 10.5s-30.5 16.333 -42.5 28s-21.5 25.5 -28.5 41.5s-10.5 33 -10.5 51s3.5 35 10.5 51s16.5 29.833 28.5 41.5s26.167 21 42.5 28s34.166 10.5 53.499 10.5s37.166 -3.5 53.499 -10.5s30.5 -16.333 42.5 -28
s21.5 -25.5 28.5 -41.5s10.5 -33 10.5 -51s-3.5 -35 -10.5 -51s-16.5 -29.833 -28.5 -41.5s-26.167 -21 -42.5 -28s-34.166 -10.5 -53.499 -10.5zM715 1259c-19.333 0 -37.166 3.5 -53.499 10.5s-30.5 16.333 -42.5 28s-21.5 25.5 -28.5 41.5s-10.5 33 -10.5 51
s3.5 35 10.5 51s16.5 29.833 28.5 41.5s26.167 21 42.5 28s34.166 10.5 53.499 10.5s37.166 -3.5 53.499 -10.5s30.5 -16.333 42.5 -28s21.5 -25.5 28.5 -41.5s10.5 -33 10.5 -51s-3.5 -35 -10.5 -51s-16.5 -29.833 -28.5 -41.5s-26.167 -21 -42.5 -28
s-34.166 -10.5 -53.499 -10.5z" />
    <glyph glyph-name="copyright" unicode="&#xa9;" horiz-adv-x="1697" 
d="M849 -139c-72.667 0 -142.831 9.33301 -210.498 28s-130.667 44.834 -189 78.501s-111.5 74.5 -159.5 122.5s-89 101.167 -123 159.5s-60.333 121.333 -79 189s-28 138.167 -28 211.5c0 74 9.33301 144.833 28 212.5s45 130.667 79 189s75 111.333 123 159
s101.167 88.5 159.5 122.5s121.166 60.167 188.499 78.5s137.666 27.5 210.999 27.5s143.666 -9.16699 210.999 -27.5s130.166 -44.5 188.499 -78.5s111.333 -74.833 159 -122.5s88.5 -100.667 122.5 -159s60.333 -121.333 79 -189s28 -138.5 28 -212.5
c0 -73.333 -9.33301 -143.833 -28 -211.5s-45 -130.667 -79 -189s-74.833 -111.5 -122.5 -159.5s-100.667 -88.833 -159 -122.5s-121.166 -59.834 -188.499 -78.501s-137.666 -28 -210.999 -28zM849.003 25c86.667 0 168.001 16.166 244.001 48.499
s142.167 76.5 198.5 132.5s100.666 122 132.999 198s48.5 158 48.5 246c0 58.667 -7.33301 115 -22 169s-35.5 104.167 -62.5 150.5s-59.333 88.333 -97 126s-79.667 69.834 -126 96.501s-96.166 47.334 -149.499 62.001s-109 22 -167 22c-86.667 0 -168 -16 -244 -48
s-142.167 -76.167 -198.5 -132.5s-100.833 -122.666 -133.5 -198.999s-49 -158.5 -49 -246.5c0 -58.667 7.33301 -114.834 22 -168.501s35.5 -103.5 62.5 -149.5s59.5 -88 97.5 -126s80.167 -70.333 126.5 -97s96.166 -47.334 149.499 -62.001s109 -22 167 -22z
M1028 759.999c-7.33301 38 -24.9971 69.0039 -52.9971 93.0039s-64.333 36 -109 36c-56.667 0 -101.167 -20.833 -133.5 -62.5s-48.5 -99.834 -48.5 -174.501c0 -76.667 16.167 -135.834 48.5 -177.501s76.833 -62.5 133.5 -62.5c43.333 0 79.166 10.5 107.499 31.5
s46.5 51.167 54.5 90.5h188c-4.66699 -42.667 -16.167 -81.334 -34.5 -116.001s-42.5 -64.334 -72.5 -89.001s-65.5 -43.667 -106.5 -57s-86.833 -20 -137.5 -20c-58.667 0 -111.667 9.16699 -159 27.5s-87.5 44.833 -120.5 79.5s-58.5 76.667 -76.5 126s-27 105 -27 167
c0 60.667 9 115.5 27 164.5s43.5 90.833 76.5 125.5s73 61.167 120 79.5s99.5 27.5 157.5 27.5c50.667 0 96.667 -7.16699 138 -21.5s77.166 -34.333 107.499 -60s54.666 -56.167 72.999 -91.5s29.833 -74 34.5 -116h-188z" />
    <glyph glyph-name="ordfeminine" unicode="&#xaa;" horiz-adv-x="964" 
d="M339 833c0 -32 11.165 -56.999 33.498 -74.999s53.5 -27 93.5 -27c22.667 0 43.834 3.66699 63.501 11s36.667 17.5 51 30.5s25.5 28.667 33.5 47s12 38.166 12 59.499v67l-155 -12c-43.333 -3.33301 -76.166 -13.5 -98.499 -30.5s-33.5 -40.5 -33.5 -70.5z
M367.998 546.001c-43.333 0 -82.334 6.50293 -117.001 19.5029s-64.5 31.167 -89.5 54.5s-44.167 51.666 -57.5 84.999s-20 70.666 -20 111.999c0 80.667 29.333 143.667 88 189s145 71.666 259 78.999l193 11v70c0.666992 32 -10.666 57 -33.999 75s-55.666 27 -96.999 27
c-37.333 0 -67.333 -6.66699 -90 -20s-36.667 -32.666 -42 -57.999h-245c2.66699 42.667 13.667 81 33 115s45.666 62.667 78.999 86s73 41.333 119 54s97.667 19 155 19c58.667 0 111.334 -7 158.001 -21s86.334 -34 119.001 -60s57.667 -57.833 75 -95.5
s26 -79.834 26 -126.501v-598h-250v107h-15c-22.667 -38.667 -55.834 -69 -99.501 -91s-92.834 -33 -147.501 -33z" />
    <glyph glyph-name="guillemotleft" unicode="&#xab;" horiz-adv-x="1356" 
d="M897 562l346 -411h-275l-344 411v8l348 411h271l-346 -409v-10zM386 562l346 -411h-275l-344 411v8l348 411h271l-346 -409v-10z" />
    <glyph glyph-name="logicalnot" unicode="&#xac;" horiz-adv-x="1326" 
d="M1185 66h-255v394h-789v248h1044v-642z" />
    <glyph glyph-name="registered" unicode="&#xae;" horiz-adv-x="1133" 
d="M567 529c-67.333 0 -130.499 12.6641 -189.499 37.9971s-110.5 59.666 -154.5 102.999s-78.833 94.333 -104.5 153s-38.5 121.334 -38.5 188.001s12.667 129.334 38 188.001s60 109.834 104 153.501s95.667 78.167 155 103.5s122.666 38 189.999 38
s130.5 -12.667 189.5 -38s110.5 -59.666 154.5 -102.999s78.667 -94.5 104 -153.5s38 -121.833 38 -188.5s-12.667 -129.334 -38 -188.001s-60 -109.667 -104 -153s-95.5 -77.666 -154.5 -102.999s-122.167 -38 -189.5 -38zM567.001 655.997
c49.333 0 95.666 9.33301 138.999 28s81 44 113 76s57.167 69.5 75.5 112.5s27.5 89.167 27.5 138.5s-9.16699 95.666 -27.5 138.999s-43.5 81 -75.5 113s-69.667 57.333 -113 76s-89.666 28 -138.999 28s-95.666 -9.33301 -138.999 -28s-81 -44 -113 -76
s-57.333 -69.667 -76 -113s-28 -89.666 -28 -138.999s9.33301 -95.5 28 -138.5s44 -80.5 76 -112.5s69.667 -57.333 113 -76s89.666 -28 138.999 -28zM372.001 798.997l0.00195312 443h232c24.667 0 47.167 -3.33301 67.5 -10s37.666 -16.334 51.999 -29.001
s25.5 -27.667 33.5 -45s12 -36.666 12 -57.999c0 -33.333 -8.33301 -62 -25 -86s-39.334 -39.667 -68.001 -47l116 -168h-143l-96 151h-62v-151h-119zM491.003 1037h86.001c21.333 0 37.666 4.83301 48.999 14.5s17 23.5 17 41.5c0 36.667 -21.333 55 -64 55h-88v-111z" />
    <glyph glyph-name="macron" unicode="&#xaf;" horiz-adv-x="1000" 
d="M835 1298h-669v143h669v-143z" />
    <glyph glyph-name="degree" unicode="&#xb0;" horiz-adv-x="719" 
d="M359 815c-42.667 0 -82.333 7.83301 -119 23.5s-68.5 37 -95.5 64s-48.167 58.833 -63.5 95.5s-23 76.334 -23 119.001s7.66699 82.334 23 119.001s36.5 68.5 63.5 95.5s58.833 48.167 95.5 63.5s76.334 23 119.001 23s82.5 -7.66699 119.5 -23s69 -36.5 96 -63.5
s48.167 -58.833 63.5 -95.5s23 -76.334 23 -119.001s-7.83301 -82.334 -23.5 -119.001s-37 -68.5 -64 -95.5s-58.833 -48.333 -95.5 -64s-76.334 -23.5 -119.001 -23.5zM360.001 982c18.667 0 36 3.66699 52 11s30 17.166 42 29.499s21.333 26.666 28 42.999
s10 33.5 10 51.5c0 18.667 -3.33301 36.167 -10 52.5s-16 30.5 -28 42.5s-26 21.5 -42 28.5s-33.333 10.5 -52 10.5c-18 0 -35 -3.5 -51 -10.5s-30.167 -16.5 -42.5 -28.5s-22 -26.167 -29 -42.5s-10.5 -33.833 -10.5 -52.5c0 -18 3.5 -35.167 10.5 -51.5
s16.667 -30.666 29 -42.999s26.5 -22.166 42.5 -29.499s33 -11 51 -11z" />
    <glyph glyph-name="plusminus" unicode="&#xb1;" horiz-adv-x="1326" 
d="M164 75v218h996v-218h-996zM787 412h-248v239h-375v216h375v240h248v-240h375v-216h-375v-239z" />
    <glyph glyph-name="two.sups" unicode="&#xb2;" horiz-adv-x="668" 
d="M31 1574c0 37.333 7.00098 70.999 21.001 100.999s34 55.667 60 77s57.333 37.833 94 49.5s77.667 17.5 123 17.5c42.667 0 81.667 -5.16699 117 -15.5s65.5 -24.666 90.5 -42.999s44.333 -40.5 58 -66.5s20.5 -55 20.5 -87c0 -19.333 -2.16699 -37.333 -6.5 -54
s-11.5 -33.334 -21.5 -50.001s-23.167 -33.667 -39.5 -51s-36.5 -36 -60.5 -56l-146 -125v-4h282v-172h-578v153l290 248c21.333 19.333 36.166 36 44.499 50s12.5 28 12.5 42c0 18.667 -6.83301 33.834 -20.5 45.501s-31.5 17.5 -53.5 17.5s-40.333 -7.33301 -55 -22
s-22 -33 -22 -55v-5h-210v5v0z" />
    <glyph glyph-name="three.sups" unicode="&#xb3;" horiz-adv-x="696" 
d="M255 1527l87.002 -0.00195312c23.333 0 42 5.83301 56 17.5s21 26.834 21 45.501c0 19.333 -7 34.666 -21 45.999s-33.667 17 -59 17c-24.667 0 -44.5 -7 -59.5 -21s-23.167 -32.333 -24.5 -55h-205c-0.666992 36.667 5.83301 69.834 19.5 99.501s33.334 55 59.001 76
s56.667 37.333 93 49s77.166 17.5 122.499 17.5c42.667 0 81.667 -4.66699 117 -14s65.666 -22.5 90.999 -39.5s44.833 -37.667 58.5 -62s20.5 -51.166 20.5 -80.499c0 -20 -3.5 -39 -10.5 -57s-17 -34 -30 -48s-28.5 -25.667 -46.5 -35s-38 -16 -60 -20v-5
c53.333 -6 95 -23.833 125 -53.5s45 -67.5 45 -113.5c0 -33.333 -7.33301 -63.333 -22 -90s-35.5 -49.5 -62.5 -68.5s-59.667 -33.5 -98 -43.5s-81.5 -15 -129.5 -15c-44.667 0 -85.334 5.83301 -122.001 17.5s-68.167 28.167 -94.5 49.5s-47.166 47 -62.499 77
s-24 63.333 -26 100h219c1.33301 -20.667 9.5 -36.834 24.5 -48.501s35.167 -17.5 60.5 -17.5c24.667 0 44.5 5.83301 59.5 17.5s22.5 26.834 22.5 45.501c0 19.333 -7.33301 34.833 -22 46.5s-35.334 17.5 -62.001 17.5h-84v148z" />
    <glyph glyph-name="acute" unicode="&#xb4;" horiz-adv-x="1010" 
d="M259 1263l221 310h273l-263 -310h-231z" />
    <glyph glyph-name="paragraph" unicode="&#xb6;" horiz-adv-x="1473" 
d="M634 -255l0.00195312 709.999h-20c-75.333 0 -145 12.667 -209 38s-119.333 60 -166 104s-83.167 95.833 -109.5 155.5s-39.5 123.834 -39.5 192.501c0 72 12.833 138.333 38.5 199s61.667 113.167 108 157.5s101.666 79 165.999 104s135.166 37.5 212.499 37.5h299
v-1698h-280zM1083 1443h280v-1698h-280v1698z" />
    <glyph glyph-name="periodcentered" unicode="&#xb7;" horiz-adv-x="632" 
d="M317 468c-22.667 0 -43.834 4.16699 -63.501 12.5s-36.667 19.833 -51 34.5s-25.666 31.834 -33.999 51.501s-12.5 40.5 -12.5 62.5c0 22.667 4.16699 43.667 12.5 63s19.666 36.333 33.999 51s31.333 26.167 51 34.5s40.834 12.5 63.501 12.5s43.667 -4.16699 63 -12.5
s36.333 -19.833 51 -34.5s26.167 -31.667 34.5 -51s12.5 -40.333 12.5 -63c0 -22 -4.16699 -42.833 -12.5 -62.5s-19.833 -36.834 -34.5 -51.501s-31.667 -26.167 -51 -34.5s-40.333 -12.5 -63 -12.5z" />
    <glyph glyph-name="cedilla" unicode="&#xb8;" horiz-adv-x="1010" 
d="M373 -127l63.001 139.002l145 -12l-49 -116c58.667 0 104.167 -13.833 136.5 -41.5s48.5 -66.834 48.5 -117.501c0 -58 -21.167 -103.333 -63.5 -136s-101.5 -49.334 -177.5 -50.001c-28 0 -53.833 1.33301 -77.5 4s-44.5 6.66699 -62.5 12v120
c11.333 -4 27.666 -7.33301 48.999 -10s42 -4 62 -4c71.333 0 107 18.333 107 55c0 20.667 -9.5 35.167 -28.5 43.5s-51.167 12.5 -96.5 12.5h-56v101z" />
    <glyph glyph-name="one.sups" unicode="&#xb9;" horiz-adv-x="551" 
d="M230 1606h-4l-172 -112v190l174 114h230v-703h-228v511z" />
    <glyph glyph-name="ordmasculine" unicode="&#xba;" horiz-adv-x="1039" 
d="M346 999c0 -83.333 14.999 -147.333 44.999 -192s72.667 -67 128 -67c56 0 99 22.5 129 67.5s45 109.167 45 192.5c0 82.667 -15.167 146.5 -45.5 191.5s-73.166 67.5 -128.499 67.5c-54.667 0 -97.167 -22.667 -127.5 -68s-45.5 -109.333 -45.5 -192zM518.999 536
c-69.333 0 -131.332 10.499 -185.999 31.499s-101 51.5 -139 91.5s-67 88.667 -87 146s-30 122.333 -30 195c0 72 10.167 136.667 30.5 194s49.666 106 87.999 146s84.833 70.667 139.5 92s116 32 184 32c68.667 0 130.334 -10.667 185.001 -32s101.167 -52 139.5 -92
s67.666 -88.667 87.999 -146s30.5 -122 30.5 -194c0 -73.333 -10 -138.666 -30 -195.999s-49 -105.833 -87 -145.5s-84.5 -70 -139.5 -91s-117.167 -31.5 -186.5 -31.5z" />
    <glyph glyph-name="guillemotright" unicode="&#xbb;" horiz-adv-x="1356" 
d="M113 981h271l348 -411v-8l-344 -411h-275l346 411v10zM624 981h271l348 -411v-8l-344 -411h-275l346 411v10z" />
    <glyph glyph-name="onequarter" unicode="&#xbc;" horiz-adv-x="1625" 
d="M1289 96h-344v190l49.5 93.5l54.5 96.5l63.5 105.5l76.5 121.5h318v-432h80v-175h-80v-96h-218v96zM1133 261h163v294h-4l-56.5 -97l-41.5 -74l-32 -61l-29 -58v-4zM240 1254h-4l-172 -112v190l174 114h230v-703h-228v511zM113 0l1054 1443h256l-1053 -1443h-257z" />
    <glyph glyph-name="onehalf" unicode="&#xbd;" horiz-adv-x="1622" 
d="M994 479c0 37.333 7.00098 70.999 21.001 100.999s34 55.667 60 77s57.333 37.833 94 49.5s77.667 17.5 123 17.5c42.667 0 81.667 -5.16699 117 -15.5s65.5 -24.666 90.5 -42.999s44.333 -40.5 58 -66.5s20.5 -55 20.5 -87c0 -19.333 -2.16699 -37.333 -6.5 -54
s-11.5 -33.334 -21.5 -50.001s-23.167 -33.667 -39.5 -51s-36.5 -36 -60.5 -56l-146 -125v-4h282v-172h-578v153l290 248c21.333 19.333 36.166 36 44.499 50s12.5 28 12.5 42c0 18.667 -6.83301 33.834 -20.5 45.501s-31.5 17.5 -53.5 17.5s-40.333 -7.33301 -55 -22
s-22 -33 -22 -55v-5h-210v5zM240.001 1254h-4l-172 -112v190l174 114h230v-703h-228v511zM113.001 -0.000976562l1054 1443h256l-1053 -1443h-257z" />
    <glyph glyph-name="threequarters" unicode="&#xbe;" horiz-adv-x="1715" 
d="M255 1175l87.002 -0.00195312c23.333 0 42 5.83301 56 17.5s21 26.834 21 45.501c0 19.333 -7 34.666 -21 45.999s-33.667 17 -59 17c-24.667 0 -44.5 -7 -59.5 -21s-23.167 -32.333 -24.5 -55h-205c-0.666992 36.667 5.83301 69.834 19.5 99.501s33.334 55 59.001 76
s56.667 37.333 93 49s77.166 17.5 122.499 17.5c42.667 0 81.667 -4.66699 117 -14s65.666 -22.5 90.999 -39.5s44.833 -37.667 58.5 -62s20.5 -51.166 20.5 -80.499c0 -20 -3.5 -39 -10.5 -57s-17 -34 -30 -48s-28.5 -25.667 -46.5 -35s-38 -16 -60 -20v-5
c53.333 -6 95 -23.833 125 -53.5s45 -67.5 45 -113.5c0 -33.333 -7.33301 -63.333 -22 -90s-35.5 -49.5 -62.5 -68.5s-59.667 -33.5 -98 -43.5s-81.5 -15 -129.5 -15c-44.667 0 -85.334 5.83301 -122.001 17.5s-68.167 28.167 -94.5 49.5s-47.166 47 -62.499 77
s-24 63.333 -26 100h219c1.33301 -20.667 9.5 -36.834 24.5 -48.501s35.167 -17.5 60.5 -17.5c24.667 0 44.5 5.83301 59.5 17.5s22.5 26.834 22.5 45.501c0 19.333 -7.33301 34.833 -22 46.5s-35.334 17.5 -62.001 17.5h-84v148zM1379 95.998h-344v190l49.5 93.5l54.5 96.5
l63.5 105.5l76.5 121.5h318v-432h80v-175h-80v-96h-218v96zM1223 260.998h163v294h-4l-56.5 -97l-41.5 -74l-32 -61l-29 -58v-4zM218.002 -0.00195312l1054 1443h256l-1053 -1443h-257z" />
    <glyph glyph-name="questiondown" unicode="&#xbf;" horiz-adv-x="1093" 
d="M1040 80c-1.33301 -62 -12.999 -118.504 -34.999 -169.504s-53.667 -95 -95 -132s-91.833 -65.667 -151.5 -86s-127.5 -30.5 -203.5 -30.5c-72 0 -137.167 9.5 -195.5 28.5s-108.333 45.5 -150 79.5s-73.834 74.833 -96.501 122.5s-34 100.167 -34 157.5
c0 75.333 18 140 54 194s89.333 102 160 144c33.333 19.333 60.833 37.333 82.5 54s39 33.5 52 50.5s22.167 35 27.5 54s8 40.833 8 65.5v53h264l2 -58c3.33301 -39.333 2.33301 -74.666 -3 -105.999s-15.333 -60.166 -30 -86.499s-34.167 -50.5 -58.5 -72.5
s-53.833 -43 -88.5 -63c-32 -19.333 -58.833 -37.166 -80.5 -53.499s-39 -33 -52 -50s-22.167 -34.833 -27.5 -53.5s-8 -39.667 -8 -63c0 -24 4.66699 -46.167 14 -66.5s22.333 -37.833 39 -52.5s36.667 -26 60 -34s49.333 -12 78 -12c57.333 0 103.5 16.833 138.5 50.5
s54.167 78.834 57.5 135.501h272zM585.001 832.996c-22.667 0 -44 4 -64 12s-37.333 19 -52 33s-26.334 30.5 -35.001 49.5s-13 39.5 -13 61.5s4.33301 42.667 13 62s20.334 36 35.001 50s32 25 52 33s41.333 12 64 12s43.834 -4 63.501 -12s36.834 -19 51.501 -33
s26.334 -30.667 35.001 -50s13 -40 13 -62s-4.33301 -42.5 -13 -61.5s-20.334 -35.5 -35.001 -49.5s-31.834 -25 -51.501 -33s-40.834 -12 -63.501 -12z" />
    <glyph glyph-name="Agrave" unicode="&#xc0;" horiz-adv-x="1413" 
d="M955 350h-507l-110 -350h-310l501 1443h355l502 -1443h-321zM513 576h377l-185 591h-7zM319 1868h273l232 -310h-227z" />
    <glyph glyph-name="Aacute" unicode="&#xc1;" horiz-adv-x="1413" 
d="M955 350h-507l-110 -350h-310l501 1443h355l502 -1443h-321zM513 576h377l-185 591h-7zM588 1553l232 310h273l-277 -310h-228z" />
    <glyph glyph-name="Acircumflex" unicode="&#xc2;" horiz-adv-x="1413" 
d="M955 350h-507l-110 -350h-310l501 1443h355l502 -1443h-321zM513 576h377l-185 591h-7zM821 1861l274 -318h-222l-163 197h-6l-163 -197h-222l274 318h228z" />
    <glyph glyph-name="Atilde" unicode="&#xc3;" horiz-adv-x="1413" 
d="M955 350h-507l-110 -350h-310l501 1443h355l502 -1443h-321zM513 576h377l-185 591h-7zM847 1541c-22.667 0 -43.168 3.33301 -61.501 10s-35 15 -50 25s-28.667 21 -41 33s-24.333 23 -36 33s-23.167 18.333 -34.5 25s-23 10 -35 10c-22.667 0 -39.667 -11 -51 -33
s-17.333 -50.667 -18 -86h-158c0 42.667 5.5 80.834 16.5 114.501s26 62.167 45 85.5s41.667 41 68 53s54.833 18 85.5 18c35.333 0 65.5 -7 90.5 -21s47.167 -29.5 66.5 -46.5l53 -46.5c16 -14 33 -21 51 -21c21.333 0 37.333 10.667 48 32s16.334 51.333 17.001 90h158
c0 -42.667 -5.5 -81 -16.5 -115s-26 -62.833 -45 -86.5s-41.667 -41.834 -68 -54.501s-54.5 -19 -84.5 -19z" />
    <glyph glyph-name="Adieresis" unicode="&#xc4;" horiz-adv-x="1413" 
d="M955 350h-507l-110 -350h-310l501 1443h355l502 -1443h-321zM513 576h377l-185 591h-7zM498 1561c-19.333 0 -37.166 3.5 -53.499 10.5s-30.5 16.333 -42.5 28s-21.5 25.5 -28.5 41.5s-10.5 33 -10.5 51s3.5 35 10.5 51s16.5 29.833 28.5 41.5s26.167 21 42.5 28
s34.166 10.5 53.499 10.5s37.166 -3.5 53.499 -10.5s30.5 -16.333 42.5 -28s21.5 -25.5 28.5 -41.5s10.5 -33 10.5 -51s-3.5 -35 -10.5 -51s-16.5 -29.833 -28.5 -41.5s-26.167 -21 -42.5 -28s-34.166 -10.5 -53.499 -10.5zM917 1561c-19.333 0 -37.166 3.5 -53.499 10.5
s-30.5 16.333 -42.5 28s-21.5 25.5 -28.5 41.5s-10.5 33 -10.5 51s3.5 35 10.5 51s16.5 29.833 28.5 41.5s26.167 21 42.5 28s34.166 10.5 53.499 10.5s37.166 -3.5 53.499 -10.5s30.5 -16.333 42.5 -28s21.5 -25.5 28.5 -41.5s10.5 -33 10.5 -51s-3.5 -35 -10.5 -51
s-16.5 -29.833 -28.5 -41.5s-26.167 -21 -42.5 -28s-34.166 -10.5 -53.499 -10.5z" />
    <glyph glyph-name="Aring" unicode="&#xc5;" horiz-adv-x="1413" 
d="M955 350h-507l-110 -350h-310l501 1443h355l502 -1443h-321zM513 576h377l-185 591h-7zM707 1513c-30 0 -58.333 5.66699 -85 17s-50.167 26.833 -70.5 46.5s-36.333 42.667 -48 69s-17.5 54.5 -17.5 84.5s5.83301 58.167 17.5 84.5s27.667 49.333 48 69
s43.833 35.167 70.5 46.5s55 17 85 17s58.5 -5.66699 85.5 -17s50.5 -26.833 70.5 -46.5s35.833 -42.667 47.5 -69s17.5 -54.5 17.5 -84.5s-5.83301 -58.167 -17.5 -84.5s-27.5 -49.333 -47.5 -69s-43.5 -35.167 -70.5 -46.5s-55.5 -17 -85.5 -17zM707 1630
c14 0 27.167 2.66699 39.5 8s23.166 12.5 32.499 21.5s16.666 19.5 21.999 31.5s8 25 8 39s-2.66699 27 -8 39s-12.666 22.667 -21.999 32s-20.166 16.666 -32.499 21.999s-25.5 8 -39.5 8s-27.167 -2.66699 -39.5 -8s-23.166 -12.666 -32.499 -21.999
s-16.666 -20 -21.999 -32s-8 -25 -8 -39s2.66699 -27 8 -39s12.666 -22.5 21.999 -31.5s20.166 -16.167 32.499 -21.5s25.5 -8 39.5 -8z" />
    <glyph glyph-name="AE" unicode="&#xc6;" horiz-adv-x="2039" 
d="M575 599h391v612h-136zM966 373h-479l-158 -373h-301l613 1443h1270v-249h-669v-353h632v-232h-632v-360h669v-249h-945v373z" />
    <glyph glyph-name="Ccedilla" unicode="&#xc7;" horiz-adv-x="1459" 
d="M1393 501c-8 -75.333 -27.165 -143.663 -57.498 -204.996s-69.833 -114.5 -118.5 -159.5s-106 -81.167 -172 -108.5s-138.333 -44 -217 -50l-40 -94c58.667 0 104.167 -13.833 136.5 -41.5s48.5 -66.834 48.5 -117.501c0 -58 -21.167 -103.333 -63.5 -136
s-101.5 -49.334 -177.5 -50.001c-28 0 -53.833 1.33301 -77.5 4s-44.5 6.66699 -62.5 12v120c11.333 -4 27.666 -7.33301 48.999 -10s42 -4 62 -4c71.333 0 107 18.333 107 55c0 20.667 -9.5 35.167 -28.5 43.5s-51.167 12.5 -96.5 12.5h-56v101l48 106
c-93.333 8.66699 -177.166 31.834 -251.499 69.501s-137.5 88.167 -189.5 151.5s-91.833 139 -119.5 227s-41.5 186.333 -41.5 295c0 116 16 220.167 48 312.5s77.667 170.666 137 234.999s131 113.5 215 147.5s178.333 51 283 51c86.667 0 167.334 -13.167 242.001 -39.5
s140.167 -63.333 196.5 -111s101.5 -104.834 135.5 -171.501s54 -140.334 60 -221.001h-294c-7.33301 44 -20.833 84.167 -40.5 120.5s-44.334 67.166 -74.001 92.499s-63.667 45 -102 59s-79.5 21 -123.5 21c-57.333 0 -109 -11.5 -155 -34.5s-85.333 -56 -118 -99
s-57.834 -95 -75.501 -156s-26.5 -129.5 -26.5 -205.5c0 -77.333 8.83301 -146.666 26.5 -207.999s42.667 -113.5 75 -156.5s71.666 -76 117.999 -99s98.5 -34.5 156.5 -34.5c44.667 0 86 6.33301 124 19s71.667 31 101 55s53.833 53 73.5 87s33.5 72.333 41.5 115h294z" />
    <glyph glyph-name="Egrave" unicode="&#xc8;" horiz-adv-x="1174" 
d="M210 1868h273l232 -310h-227zM1076 0h-956v1443h956v-249h-654v-348h617v-232h-617v-364h654v-250z" />
    <glyph glyph-name="Eacute" unicode="&#xc9;" horiz-adv-x="1174" 
d="M479 1553l232 310h273l-277 -310h-228zM1076 0h-956v1443h956v-249h-654v-348h617v-232h-617v-364h654v-250z" />
    <glyph glyph-name="Ecircumflex" unicode="&#xca;" horiz-adv-x="1174" 
d="M712 1861l274 -318h-222l-163 197h-6l-163 -197h-222l274 318h228zM1076 0h-956v1443h956v-249h-654v-348h617v-232h-617v-364h654v-250z" />
    <glyph glyph-name="Edieresis" unicode="&#xcb;" horiz-adv-x="1174" 
d="M389 1561c-19.333 0 -37.166 3.5 -53.499 10.5s-30.5 16.333 -42.5 28s-21.5 25.5 -28.5 41.5s-10.5 33 -10.5 51s3.5 35 10.5 51s16.5 29.833 28.5 41.5s26.167 21 42.5 28s34.166 10.5 53.499 10.5s37.166 -3.5 53.499 -10.5s30.5 -16.333 42.5 -28
s21.5 -25.5 28.5 -41.5s10.5 -33 10.5 -51s-3.5 -35 -10.5 -51s-16.5 -29.833 -28.5 -41.5s-26.167 -21 -42.5 -28s-34.166 -10.5 -53.499 -10.5zM808 1561c-19.333 0 -37.166 3.5 -53.499 10.5s-30.5 16.333 -42.5 28s-21.5 25.5 -28.5 41.5s-10.5 33 -10.5 51
s3.5 35 10.5 51s16.5 29.833 28.5 41.5s26.167 21 42.5 28s34.166 10.5 53.499 10.5s37.166 -3.5 53.499 -10.5s30.5 -16.333 42.5 -28s21.5 -25.5 28.5 -41.5s10.5 -33 10.5 -51s-3.5 -35 -10.5 -51s-16.5 -29.833 -28.5 -41.5s-26.167 -21 -42.5 -28
s-34.166 -10.5 -53.499 -10.5zM1076 0h-956v1443h956v-249h-654v-348h617v-232h-617v-364h654v-250z" />
    <glyph glyph-name="Igrave" unicode="&#xcc;" horiz-adv-x="542" 
d="M120 0v1443h302v-1443h-302zM-117 1868h273l232 -310h-227z" />
    <glyph glyph-name="Iacute" unicode="&#xcd;" horiz-adv-x="542" 
d="M120 0v1443h302v-1443h-302zM152 1553l232 310h273l-277 -310h-228z" />
    <glyph glyph-name="Icircumflex" unicode="&#xce;" horiz-adv-x="542" 
d="M120 0v1443h302v-1443h-302zM385 1861l274 -318h-222l-163 197h-6l-163 -197h-222l274 318h228z" />
    <glyph glyph-name="Idieresis" unicode="&#xcf;" horiz-adv-x="542" 
d="M120 0v1443h302v-1443h-302zM62 1561c-19.333 0 -37.166 3.5 -53.499 10.5s-30.5 16.333 -42.5 28s-21.5 25.5 -28.5 41.5s-10.5 33 -10.5 51s3.5 35 10.5 51s16.5 29.833 28.5 41.5s26.167 21 42.5 28s34.166 10.5 53.499 10.5s37.166 -3.5 53.499 -10.5
s30.5 -16.333 42.5 -28s21.5 -25.5 28.5 -41.5s10.5 -33 10.5 -51s-3.5 -35 -10.5 -51s-16.5 -29.833 -28.5 -41.5s-26.167 -21 -42.5 -28s-34.166 -10.5 -53.499 -10.5zM481 1561c-19.333 0 -37.166 3.5 -53.499 10.5s-30.5 16.333 -42.5 28s-21.5 25.5 -28.5 41.5
s-10.5 33 -10.5 51s3.5 35 10.5 51s16.5 29.833 28.5 41.5s26.167 21 42.5 28s34.166 10.5 53.499 10.5s37.166 -3.5 53.499 -10.5s30.5 -16.333 42.5 -28s21.5 -25.5 28.5 -41.5s10.5 -33 10.5 -51s-3.5 -35 -10.5 -51s-16.5 -29.833 -28.5 -41.5s-26.167 -21 -42.5 -28
s-34.166 -10.5 -53.499 -10.5z" />
    <glyph glyph-name="Eth" unicode="&#xd0;" horiz-adv-x="1479" 
d="M640 250c136 0 239.333 40.168 310 120.501s106 198.833 106 355.5c0 75.333 -9.16699 142.166 -27.5 200.499s-45.166 107.333 -80.499 147s-78.833 69.667 -130.5 90s-110.834 30.5 -177.501 30.5h-218v-351h265v-221h-265v-372h218zM676 1443
c108 0 204.667 -15.832 290 -47.499s157.5 -78 216.5 -139s104 -135.833 135 -224.5s46.5 -190.334 46.5 -305.001s-15.5 -217 -46.5 -307s-76 -166.167 -135 -228.5s-131.167 -109.833 -216.5 -142.5s-182 -49 -290 -49h-556v622h-87v221h87v600h556z" />
    <glyph glyph-name="Ntilde" unicode="&#xd1;" horiz-adv-x="1463" 
d="M872 1541c-22.667 0 -43.168 3.33301 -61.501 10s-35 15 -50 25s-28.667 21 -41 33s-24.333 23 -36 33s-23.167 18.333 -34.5 25s-23 10 -35 10c-22.667 0 -39.667 -11 -51 -33s-17.333 -50.667 -18 -86h-158c0 42.667 5.5 80.834 16.5 114.501s26 62.167 45 85.5
s41.667 41 68 53s54.833 18 85.5 18c35.333 0 65.5 -7 90.5 -21s47.167 -29.5 66.5 -46.5l53 -46.5c16 -14 33 -21 51 -21c21.333 0 37.333 10.667 48 32s16.334 51.333 17.001 90h158c0 -42.667 -5.5 -81 -16.5 -115s-26 -62.833 -45 -86.5s-41.667 -41.834 -68 -54.501
s-54.5 -19 -84.5 -19zM119.999 0v1443h252l674 -940h8v940h289v-1443h-250l-675 945h-9v-945h-289z" />
    <glyph glyph-name="Ograve" unicode="&#xd2;" horiz-adv-x="1541" 
d="M383 1868h273l232 -310h-227zM771 1468c106.667 0 203 -17.333 289 -52s159.167 -84.334 219.5 -149.001s106.666 -143.167 138.999 -235.5s48.5 -195.833 48.5 -310.5s-16.167 -218 -48.5 -310s-78.666 -170.333 -138.999 -235s-133.5 -114.334 -219.5 -149.001
s-182.333 -52 -289 -52c-107.333 0 -203.833 17.333 -289.5 52s-158.667 84.334 -219 149.001s-106.666 143 -138.999 235s-48.5 195.333 -48.5 310s16.167 218.167 48.5 310.5s78.666 170.833 138.999 235.5s133.333 114.334 219 149.001s182.167 52 289.5 52zM771 1216
c-59.333 0 -112.833 -11.5 -160.5 -34.5s-88.334 -56 -122.001 -99s-59.667 -95 -78 -156s-27.5 -129.5 -27.5 -205.5c0 -75.333 9.16699 -143.5 27.5 -204.5s44.333 -112.833 78 -155.5s74.334 -75.5 122.001 -98.5s101.167 -34.5 160.5 -34.5c58.667 0 112 11.5 160 34.5
s88.667 55.833 122 98.5s59.166 94.5 77.499 155.5s27.5 129.167 27.5 204.5c0 76 -9.16699 144.5 -27.5 205.5s-44.166 113 -77.499 156s-74 76 -122 99s-101.333 34.5 -160 34.5z" />
    <glyph glyph-name="Oacute" unicode="&#xd3;" horiz-adv-x="1541" 
d="M652 1553l232 310h273l-277 -310h-228zM771 1468c106.667 0 203 -17.333 289 -52s159.167 -84.334 219.5 -149.001s106.666 -143.167 138.999 -235.5s48.5 -195.833 48.5 -310.5s-16.167 -218 -48.5 -310s-78.666 -170.333 -138.999 -235
s-133.5 -114.334 -219.5 -149.001s-182.333 -52 -289 -52c-107.333 0 -203.833 17.333 -289.5 52s-158.667 84.334 -219 149.001s-106.666 143 -138.999 235s-48.5 195.333 -48.5 310s16.167 218.167 48.5 310.5s78.666 170.833 138.999 235.5s133.333 114.334 219 149.001
s182.167 52 289.5 52zM771 1216c-59.333 0 -112.833 -11.5 -160.5 -34.5s-88.334 -56 -122.001 -99s-59.667 -95 -78 -156s-27.5 -129.5 -27.5 -205.5c0 -75.333 9.16699 -143.5 27.5 -204.5s44.333 -112.833 78 -155.5s74.334 -75.5 122.001 -98.5
s101.167 -34.5 160.5 -34.5c58.667 0 112 11.5 160 34.5s88.667 55.833 122 98.5s59.166 94.5 77.499 155.5s27.5 129.167 27.5 204.5c0 76 -9.16699 144.5 -27.5 205.5s-44.166 113 -77.499 156s-74 76 -122 99s-101.333 34.5 -160 34.5z" />
    <glyph glyph-name="Ocircumflex" unicode="&#xd4;" horiz-adv-x="1541" 
d="M885 1861l274 -318h-222l-163 197h-6l-163 -197h-222l274 318h228zM771 1468c106.667 0 203 -17.333 289 -52s159.167 -84.334 219.5 -149.001s106.666 -143.167 138.999 -235.5s48.5 -195.833 48.5 -310.5s-16.167 -218 -48.5 -310s-78.666 -170.333 -138.999 -235
s-133.5 -114.334 -219.5 -149.001s-182.333 -52 -289 -52c-107.333 0 -203.833 17.333 -289.5 52s-158.667 84.334 -219 149.001s-106.666 143 -138.999 235s-48.5 195.333 -48.5 310s16.167 218.167 48.5 310.5s78.666 170.833 138.999 235.5s133.333 114.334 219 149.001
s182.167 52 289.5 52zM771 1216c-59.333 0 -112.833 -11.5 -160.5 -34.5s-88.334 -56 -122.001 -99s-59.667 -95 -78 -156s-27.5 -129.5 -27.5 -205.5c0 -75.333 9.16699 -143.5 27.5 -204.5s44.333 -112.833 78 -155.5s74.334 -75.5 122.001 -98.5
s101.167 -34.5 160.5 -34.5c58.667 0 112 11.5 160 34.5s88.667 55.833 122 98.5s59.166 94.5 77.499 155.5s27.5 129.167 27.5 204.5c0 76 -9.16699 144.5 -27.5 205.5s-44.166 113 -77.499 156s-74 76 -122 99s-101.333 34.5 -160 34.5z" />
    <glyph glyph-name="Otilde" unicode="&#xd5;" horiz-adv-x="1541" 
d="M771 1468c106.667 0 203 -17.333 289 -52s159.167 -84.334 219.5 -149.001s106.666 -143.167 138.999 -235.5s48.5 -195.833 48.5 -310.5s-16.167 -218 -48.5 -310s-78.666 -170.333 -138.999 -235s-133.5 -114.334 -219.5 -149.001s-182.333 -52 -289 -52
c-107.333 0 -203.833 17.333 -289.5 52s-158.667 84.334 -219 149.001s-106.666 143 -138.999 235s-48.5 195.333 -48.5 310s16.167 218.167 48.5 310.5s78.666 170.833 138.999 235.5s133.333 114.334 219 149.001s182.167 52 289.5 52zM771 1216
c-59.333 0 -112.833 -11.5 -160.5 -34.5s-88.334 -56 -122.001 -99s-59.667 -95 -78 -156s-27.5 -129.5 -27.5 -205.5c0 -75.333 9.16699 -143.5 27.5 -204.5s44.333 -112.833 78 -155.5s74.334 -75.5 122.001 -98.5s101.167 -34.5 160.5 -34.5c58.667 0 112 11.5 160 34.5
s88.667 55.833 122 98.5s59.166 94.5 77.499 155.5s27.5 129.167 27.5 204.5c0 76 -9.16699 144.5 -27.5 205.5s-44.166 113 -77.499 156s-74 76 -122 99s-101.333 34.5 -160 34.5zM911 1541c-22.667 0 -43.168 3.33301 -61.501 10s-35 15 -50 25s-28.667 21 -41 33
s-24.333 23 -36 33s-23.167 18.333 -34.5 25s-23 10 -35 10c-22.667 0 -39.667 -11 -51 -33s-17.333 -50.667 -18 -86h-158c0 42.667 5.5 80.834 16.5 114.501s26 62.167 45 85.5s41.667 41 68 53s54.833 18 85.5 18c35.333 0 65.5 -7 90.5 -21s47.167 -29.5 66.5 -46.5
l53 -46.5c16 -14 33 -21 51 -21c21.333 0 37.333 10.667 48 32s16.334 51.333 17.001 90h158c0 -42.667 -5.5 -81 -16.5 -115s-26 -62.833 -45 -86.5s-41.667 -41.834 -68 -54.501s-54.5 -19 -84.5 -19z" />
    <glyph glyph-name="Odieresis" unicode="&#xd6;" horiz-adv-x="1541" 
d="M562 1561c-19.333 0 -37.166 3.5 -53.499 10.5s-30.5 16.333 -42.5 28s-21.5 25.5 -28.5 41.5s-10.5 33 -10.5 51s3.5 35 10.5 51s16.5 29.833 28.5 41.5s26.167 21 42.5 28s34.166 10.5 53.499 10.5s37.166 -3.5 53.499 -10.5s30.5 -16.333 42.5 -28
s21.5 -25.5 28.5 -41.5s10.5 -33 10.5 -51s-3.5 -35 -10.5 -51s-16.5 -29.833 -28.5 -41.5s-26.167 -21 -42.5 -28s-34.166 -10.5 -53.499 -10.5zM981 1561c-19.333 0 -37.166 3.5 -53.499 10.5s-30.5 16.333 -42.5 28s-21.5 25.5 -28.5 41.5s-10.5 33 -10.5 51
s3.5 35 10.5 51s16.5 29.833 28.5 41.5s26.167 21 42.5 28s34.166 10.5 53.499 10.5s37.166 -3.5 53.499 -10.5s30.5 -16.333 42.5 -28s21.5 -25.5 28.5 -41.5s10.5 -33 10.5 -51s-3.5 -35 -10.5 -51s-16.5 -29.833 -28.5 -41.5s-26.167 -21 -42.5 -28
s-34.166 -10.5 -53.499 -10.5zM771 1468c106.667 0 203 -17.333 289 -52s159.167 -84.334 219.5 -149.001s106.666 -143.167 138.999 -235.5s48.5 -195.833 48.5 -310.5s-16.167 -218 -48.5 -310s-78.666 -170.333 -138.999 -235s-133.5 -114.334 -219.5 -149.001
s-182.333 -52 -289 -52c-107.333 0 -203.833 17.333 -289.5 52s-158.667 84.334 -219 149.001s-106.666 143 -138.999 235s-48.5 195.333 -48.5 310s16.167 218.167 48.5 310.5s78.666 170.833 138.999 235.5s133.333 114.334 219 149.001s182.167 52 289.5 52zM771 1216
c-59.333 0 -112.833 -11.5 -160.5 -34.5s-88.334 -56 -122.001 -99s-59.667 -95 -78 -156s-27.5 -129.5 -27.5 -205.5c0 -75.333 9.16699 -143.5 27.5 -204.5s44.333 -112.833 78 -155.5s74.334 -75.5 122.001 -98.5s101.167 -34.5 160.5 -34.5c58.667 0 112 11.5 160 34.5
s88.667 55.833 122 98.5s59.166 94.5 77.499 155.5s27.5 129.167 27.5 204.5c0 76 -9.16699 144.5 -27.5 205.5s-44.166 113 -77.499 156s-74 76 -122 99s-101.333 34.5 -160 34.5z" />
    <glyph glyph-name="multiply" unicode="&#xd7;" horiz-adv-x="1327" 
d="M359 105l-175 175l304 304l-304 305l175 175l305 -304l304 304l175 -175l-304 -305l304 -304l-175 -175l-304 304z" />
    <glyph glyph-name="Oslash" unicode="&#xd8;" horiz-adv-x="1541" 
d="M576 282c28 -17.333 58.1689 -30.668 90.502 -40.001s67.166 -14 104.499 -14c58.667 0 112 11.5 160 34.5s88.667 55.833 122 98.5s59.166 94.5 77.499 155.5s27.5 129.167 27.5 204.5c0 64.667 -6.5 123.834 -19.5 177.501s-32.167 101.167 -57.5 142.5zM998.002 1139
c-30.667 25.333 -64.999 44.502 -102.999 57.502s-79.333 19.5 -124 19.5c-59.333 0 -112.833 -11.5 -160.5 -34.5s-88.334 -56 -122.001 -99s-59.667 -95 -78 -156s-27.5 -129.5 -27.5 -205.5c0 -74.667 8.66699 -141.834 26 -201.501s42.333 -110.834 75 -153.501z
M1250 1296c70 -65.333 123.667 -146.331 161 -242.998s56 -207.334 56 -332.001c0 -114.667 -16.167 -218 -48.5 -310s-78.666 -170.333 -138.999 -235s-133.5 -114.334 -219.5 -149.001s-182.333 -52 -289 -52c-66.667 0 -128.834 6.66699 -186.501 20
s-111.167 32.666 -160.5 57.999l-80 -120l-102 68l80 120c-79.333 64.667 -140.333 147.5 -183 248.5s-64 218.167 -64 351.5c0 114.667 16.167 218.167 48.5 310.5s78.666 170.833 138.999 235.5s133.333 114.334 219 149.001s182.167 52 289.5 52
c74 0 142.833 -8.33301 206.5 -25s121.834 -41 174.501 -73l90 136l108 -60z" />
    <glyph glyph-name="Ugrave" unicode="&#xd9;" horiz-adv-x="1449" 
d="M337 1868h273l232 -310h-227zM422 540c0 -46 6.66309 -87.833 19.9961 -125.5s32.833 -69.834 58.5 -96.501s57.334 -47.334 95.001 -62.001s80.834 -22 129.501 -22c48 0 90.833 7.33301 128.5 22s69.334 35.334 95.001 62.001s45.167 58.834 58.5 96.501
s20 79.5 20 125.5v903h302v-933c0 -79.333 -14.167 -151.833 -42.5 -217.5s-68.666 -122 -120.999 -169s-115.833 -83.5 -190.5 -109.5s-158 -39 -250 -39c-92.667 0 -176.334 13 -251.001 39s-138.167 62.5 -190.5 109.5s-92.666 103.333 -120.999 169
s-42.5 138.167 -42.5 217.5v933h302v-903z" />
    <glyph glyph-name="Uacute" unicode="&#xda;" horiz-adv-x="1449" 
d="M606 1553l232 310h273l-277 -310h-228zM422 540c0 -46 6.66309 -87.833 19.9961 -125.5s32.833 -69.834 58.5 -96.501s57.334 -47.334 95.001 -62.001s80.834 -22 129.501 -22c48 0 90.833 7.33301 128.5 22s69.334 35.334 95.001 62.001s45.167 58.834 58.5 96.501
s20 79.5 20 125.5v903h302v-933c0 -79.333 -14.167 -151.833 -42.5 -217.5s-68.666 -122 -120.999 -169s-115.833 -83.5 -190.5 -109.5s-158 -39 -250 -39c-92.667 0 -176.334 13 -251.001 39s-138.167 62.5 -190.5 109.5s-92.666 103.333 -120.999 169
s-42.5 138.167 -42.5 217.5v933h302v-903z" />
    <glyph glyph-name="Ucircumflex" unicode="&#xdb;" horiz-adv-x="1449" 
d="M839 1861l274 -318h-222l-163 197h-6l-163 -197h-222l274 318h228zM422 540c0 -46 6.66309 -87.833 19.9961 -125.5s32.833 -69.834 58.5 -96.501s57.334 -47.334 95.001 -62.001s80.834 -22 129.501 -22c48 0 90.833 7.33301 128.5 22s69.334 35.334 95.001 62.001
s45.167 58.834 58.5 96.501s20 79.5 20 125.5v903h302v-933c0 -79.333 -14.167 -151.833 -42.5 -217.5s-68.666 -122 -120.999 -169s-115.833 -83.5 -190.5 -109.5s-158 -39 -250 -39c-92.667 0 -176.334 13 -251.001 39s-138.167 62.5 -190.5 109.5
s-92.666 103.333 -120.999 169s-42.5 138.167 -42.5 217.5v933h302v-903z" />
    <glyph glyph-name="Udieresis" unicode="&#xdc;" horiz-adv-x="1449" 
d="M516 1561c-19.333 0 -37.166 3.5 -53.499 10.5s-30.5 16.333 -42.5 28s-21.5 25.5 -28.5 41.5s-10.5 33 -10.5 51s3.5 35 10.5 51s16.5 29.833 28.5 41.5s26.167 21 42.5 28s34.166 10.5 53.499 10.5s37.166 -3.5 53.499 -10.5s30.5 -16.333 42.5 -28
s21.5 -25.5 28.5 -41.5s10.5 -33 10.5 -51s-3.5 -35 -10.5 -51s-16.5 -29.833 -28.5 -41.5s-26.167 -21 -42.5 -28s-34.166 -10.5 -53.499 -10.5zM935 1561c-19.333 0 -37.166 3.5 -53.499 10.5s-30.5 16.333 -42.5 28s-21.5 25.5 -28.5 41.5s-10.5 33 -10.5 51
s3.5 35 10.5 51s16.5 29.833 28.5 41.5s26.167 21 42.5 28s34.166 10.5 53.499 10.5s37.166 -3.5 53.499 -10.5s30.5 -16.333 42.5 -28s21.5 -25.5 28.5 -41.5s10.5 -33 10.5 -51s-3.5 -35 -10.5 -51s-16.5 -29.833 -28.5 -41.5s-26.167 -21 -42.5 -28
s-34.166 -10.5 -53.499 -10.5zM422 540c0 -46 6.66309 -87.833 19.9961 -125.5s32.833 -69.834 58.5 -96.501s57.334 -47.334 95.001 -62.001s80.834 -22 129.501 -22c48 0 90.833 7.33301 128.5 22s69.334 35.334 95.001 62.001s45.167 58.834 58.5 96.501
s20 79.5 20 125.5v903h302v-933c0 -79.333 -14.167 -151.833 -42.5 -217.5s-68.666 -122 -120.999 -169s-115.833 -83.5 -190.5 -109.5s-158 -39 -250 -39c-92.667 0 -176.334 13 -251.001 39s-138.167 62.5 -190.5 109.5s-92.666 103.333 -120.999 169
s-42.5 138.167 -42.5 217.5v933h302v-903z" />
    <glyph glyph-name="Yacute" unicode="&#xdd;" horiz-adv-x="1362" 
d="M530 0v539l-502 904h329l323 -616h7l324 616h324l-503 -904v-539h-302zM562 1553l232 310h273l-277 -310h-228z" />
    <glyph glyph-name="Thorn" unicode="&#xde;" horiz-adv-x="1330" 
d="M455 1443v-235.002h307c68 0 131 -10.333 189 -31s108.167 -50.667 150.5 -90s75.5 -87.333 99.5 -144s36 -120.667 36 -192s-12.333 -135.166 -37 -191.499s-59 -104.166 -103 -143.499s-95.833 -69.5 -155.5 -90.5s-124.5 -31.5 -194.5 -31.5h-294v-294h-302v1443h304z
M453 530.998l226 -0.000976562c76.667 0 137.667 18.333 183 55s68 91.334 68 164.001s-22.667 127.167 -68 163.5s-106 54.5 -182 54.5h-227v-437z" />
    <glyph glyph-name="germandbls" unicode="&#xdf;" horiz-adv-x="1360" 
d="M148 0v1081c0 61.333 11.667 116.833 35 166.5s56.666 92 99.999 127s95.833 61.833 157.5 80.5s130.834 28 207.501 28c72.667 0 139.334 -9.16699 200.001 -27.5s112.834 -44.166 156.501 -77.499s77.5 -73.166 101.5 -119.499s36 -97.166 36 -152.499
c0 -40.667 -5.16699 -79 -15.5 -115s-25 -68.167 -44 -96.5s-41.833 -52.666 -68.5 -72.999s-56.667 -35.166 -90 -44.499v-12c51.333 -4.66699 97.666 -16.834 138.999 -36.501s76.5 -45.334 105.5 -77.001s51.333 -68.834 67 -111.501s23.5 -89.667 23.5 -141
c0 -63.333 -11.333 -120.5 -34 -171.5s-55 -94.5 -97 -130.5s-92.833 -63.667 -152.5 -83s-126.5 -29 -200.5 -29c-34.667 0 -68.334 1.33301 -101.001 4s-59.334 6.66699 -80.001 12v233c18 -6 37.833 -10.333 59.5 -13s44.5 -4 68.5 -4c76 0 135.167 17.5 177.5 52.5
s63.5 83.833 63.5 146.5c0 64.667 -24 115 -72 151s-115.333 54 -202 54h-72v238h50c60 0 107.167 17.667 141.5 53s51.5 84 51.5 146c0 28.667 -5 54.5 -15 77.5s-24 42.833 -42 59.5s-39.667 29.5 -65 38.5s-53.666 13.5 -84.999 13.5
c-69.333 0 -122.333 -19.167 -159 -57.5s-55 -93.833 -55 -166.5v-1023h-291z" />
    <glyph glyph-name="agrave" unicode="&#xe0;" horiz-adv-x="1147" 
d="M520 200c34 0 65.667 5.00098 95 15.001s55 24 77 42s39.333 39.5 52 64.5s19 52.5 19 82.5v81l-231 -16c-61.333 -4 -107.833 -17.667 -139.5 -41s-47.5 -55.333 -47.5 -96s15.833 -72.834 47.5 -96.501s74.167 -35.5 127.5 -35.5zM425 -12.999
c-53.333 0 -102.505 8.00488 -147.505 24.0049s-84.167 38.5 -117.5 67.5s-59.333 63.667 -78 104s-28 85.166 -28 134.499c0 100.667 37 178.667 111 234s181.667 87.333 323 96l275 17v73c0 53.333 -17 94 -51 122s-81.333 42 -142 42
c-53.333 0 -97.166 -12.667 -131.499 -38s-55.166 -58 -62.499 -98h-267c2 52.667 14.833 100.667 38.5 144s56.334 80.666 98.001 111.999s91 55.666 148 72.999s119.833 26 188.5 26c70.667 0 134.834 -8.66699 192.501 -26s106.834 -42 147.501 -74
s72.167 -70.5 94.5 -115.5s33.5 -94.833 33.5 -149.5v-755h-282v170h-6c-15.333 -28.667 -34.833 -54.334 -58.5 -77.001s-50.167 -41.834 -79.5 -57.501s-61 -27.667 -95 -36s-68.667 -12.5 -104 -12.5zM465.995 1263.01l-263 310h273l221 -310h-231z" />
    <glyph glyph-name="aacute" unicode="&#xe1;" horiz-adv-x="1147" 
d="M520 200c34 0 65.667 5.00098 95 15.001s55 24 77 42s39.333 39.5 52 64.5s19 52.5 19 82.5v81l-231 -16c-61.333 -4 -107.833 -17.667 -139.5 -41s-47.5 -55.333 -47.5 -96s15.833 -72.834 47.5 -96.501s74.167 -35.5 127.5 -35.5zM425 -12.999
c-53.333 0 -102.505 8.00488 -147.505 24.0049s-84.167 38.5 -117.5 67.5s-59.333 63.667 -78 104s-28 85.166 -28 134.499c0 100.667 37 178.667 111 234s181.667 87.333 323 96l275 17v73c0 53.333 -17 94 -51 122s-81.333 42 -142 42
c-53.333 0 -97.166 -12.667 -131.499 -38s-55.166 -58 -62.499 -98h-267c2 52.667 14.833 100.667 38.5 144s56.334 80.666 98.001 111.999s91 55.666 148 72.999s119.833 26 188.5 26c70.667 0 134.834 -8.66699 192.501 -26s106.834 -42 147.501 -74
s72.167 -70.5 94.5 -115.5s33.5 -94.833 33.5 -149.5v-755h-282v170h-6c-15.333 -28.667 -34.833 -54.334 -58.5 -77.001s-50.167 -41.834 -79.5 -57.501s-61 -27.667 -95 -36s-68.667 -12.5 -104 -12.5zM458.995 1263.01l221 310h273l-263 -310h-231z" />
    <glyph glyph-name="acircumflex" unicode="&#xe2;" horiz-adv-x="1147" 
d="M520 200c34 0 65.667 5.00098 95 15.001s55 24 77 42s39.333 39.5 52 64.5s19 52.5 19 82.5v81l-231 -16c-61.333 -4 -107.833 -17.667 -139.5 -41s-47.5 -55.333 -47.5 -96s15.833 -72.834 47.5 -96.501s74.167 -35.5 127.5 -35.5zM425 -12.999
c-53.333 0 -102.505 8.00488 -147.505 24.0049s-84.167 38.5 -117.5 67.5s-59.333 63.667 -78 104s-28 85.166 -28 134.499c0 100.667 37 178.667 111 234s181.667 87.333 323 96l275 17v73c0 53.333 -17 94 -51 122s-81.333 42 -142 42
c-53.333 0 -97.166 -12.667 -131.499 -38s-55.166 -58 -62.499 -98h-267c2 52.667 14.833 100.667 38.5 144s56.334 80.666 98.001 111.999s91 55.666 148 72.999s119.833 26 188.5 26c70.667 0 134.834 -8.66699 192.501 -26s106.834 -42 147.501 -74
s72.167 -70.5 94.5 -115.5s33.5 -94.833 33.5 -149.5v-755h-282v170h-6c-15.333 -28.667 -34.833 -54.334 -58.5 -77.001s-50.167 -41.834 -79.5 -57.501s-61 -27.667 -95 -36s-68.667 -12.5 -104 -12.5zM952.995 1253.01h-223l-149 189h-7l-148 -189h-224l266 318h219z" />
    <glyph glyph-name="atilde" unicode="&#xe3;" horiz-adv-x="1147" 
d="M520 200c34 0 65.667 5.00098 95 15.001s55 24 77 42s39.333 39.5 52 64.5s19 52.5 19 82.5v81l-231 -16c-61.333 -4 -107.833 -17.667 -139.5 -41s-47.5 -55.333 -47.5 -96s15.833 -72.834 47.5 -96.501s74.167 -35.5 127.5 -35.5zM425 -12.999
c-53.333 0 -102.505 8.00488 -147.505 24.0049s-84.167 38.5 -117.5 67.5s-59.333 63.667 -78 104s-28 85.166 -28 134.499c0 100.667 37 178.667 111 234s181.667 87.333 323 96l275 17v73c0 53.333 -17 94 -51 122s-81.333 42 -142 42
c-53.333 0 -97.166 -12.667 -131.499 -38s-55.166 -58 -62.499 -98h-267c2 52.667 14.833 100.667 38.5 144s56.334 80.666 98.001 111.999s91 55.666 148 72.999s119.833 26 188.5 26c70.667 0 134.834 -8.66699 192.501 -26s106.834 -42 147.501 -74
s72.167 -70.5 94.5 -115.5s33.5 -94.833 33.5 -149.5v-755h-282v170h-6c-15.333 -28.667 -34.833 -54.334 -58.5 -77.001s-50.167 -41.834 -79.5 -57.501s-61 -27.667 -95 -36s-68.667 -12.5 -104 -12.5zM719.995 1258.01c-22.667 0 -43.168 3.33301 -61.501 10
s-35 15 -50 25s-28.667 21 -41 33s-24.333 23 -36 33s-23.167 18.333 -34.5 25s-23 10 -35 10c-22.667 0 -39.667 -11 -51 -33s-17.333 -50.667 -18 -86h-158c0 42.667 5.5 80.834 16.5 114.501s26 62.167 45 85.5s41.667 41 68 53s54.833 18 85.5 18
c35.333 0 65.5 -7 90.5 -21s47.167 -29.5 66.5 -46.5l53 -46.5c16 -14 33 -21 51 -21c21.333 0 37.333 10.667 48 32s16.334 51.333 17.001 90h158c0 -42.667 -5.5 -81 -16.5 -115s-26 -62.833 -45 -86.5s-41.667 -41.834 -68 -54.501s-54.5 -19 -84.5 -19z" />
    <glyph glyph-name="adieresis" unicode="&#xe4;" horiz-adv-x="1147" 
d="M520 200c34 0 65.667 5.00098 95 15.001s55 24 77 42s39.333 39.5 52 64.5s19 52.5 19 82.5v81l-231 -16c-61.333 -4 -107.833 -17.667 -139.5 -41s-47.5 -55.333 -47.5 -96s15.833 -72.834 47.5 -96.501s74.167 -35.5 127.5 -35.5zM425 -12.999
c-53.333 0 -102.505 8.00488 -147.505 24.0049s-84.167 38.5 -117.5 67.5s-59.333 63.667 -78 104s-28 85.166 -28 134.499c0 100.667 37 178.667 111 234s181.667 87.333 323 96l275 17v73c0 53.333 -17 94 -51 122s-81.333 42 -142 42
c-53.333 0 -97.166 -12.667 -131.499 -38s-55.166 -58 -62.499 -98h-267c2 52.667 14.833 100.667 38.5 144s56.334 80.666 98.001 111.999s91 55.666 148 72.999s119.833 26 188.5 26c70.667 0 134.834 -8.66699 192.501 -26s106.834 -42 147.501 -74
s72.167 -70.5 94.5 -115.5s33.5 -94.833 33.5 -149.5v-755h-282v170h-6c-15.333 -28.667 -34.833 -54.334 -58.5 -77.001s-50.167 -41.834 -79.5 -57.501s-61 -27.667 -95 -36s-68.667 -12.5 -104 -12.5zM368.995 1259.01c-19.333 0 -37.166 3.5 -53.499 10.5
s-30.5 16.333 -42.5 28s-21.5 25.5 -28.5 41.5s-10.5 33 -10.5 51s3.5 35 10.5 51s16.5 29.833 28.5 41.5s26.167 21 42.5 28s34.166 10.5 53.499 10.5s37.166 -3.5 53.499 -10.5s30.5 -16.333 42.5 -28s21.5 -25.5 28.5 -41.5s10.5 -33 10.5 -51s-3.5 -35 -10.5 -51
s-16.5 -29.833 -28.5 -41.5s-26.167 -21 -42.5 -28s-34.166 -10.5 -53.499 -10.5zM787.995 1259.01c-19.333 0 -37.166 3.5 -53.499 10.5s-30.5 16.333 -42.5 28s-21.5 25.5 -28.5 41.5s-10.5 33 -10.5 51s3.5 35 10.5 51s16.5 29.833 28.5 41.5s26.167 21 42.5 28
s34.166 10.5 53.499 10.5s37.166 -3.5 53.499 -10.5s30.5 -16.333 42.5 -28s21.5 -25.5 28.5 -41.5s10.5 -33 10.5 -51s-3.5 -35 -10.5 -51s-16.5 -29.833 -28.5 -41.5s-26.167 -21 -42.5 -28s-34.166 -10.5 -53.499 -10.5z" />
    <glyph glyph-name="aring" unicode="&#xe5;" horiz-adv-x="1147" 
d="M520 200c34 0 65.667 5.00098 95 15.001s55 24 77 42s39.333 39.5 52 64.5s19 52.5 19 82.5v81l-231 -16c-61.333 -4 -107.833 -17.667 -139.5 -41s-47.5 -55.333 -47.5 -96s15.833 -72.834 47.5 -96.501s74.167 -35.5 127.5 -35.5zM425 -12.999
c-53.333 0 -102.505 8.00488 -147.505 24.0049s-84.167 38.5 -117.5 67.5s-59.333 63.667 -78 104s-28 85.166 -28 134.499c0 100.667 37 178.667 111 234s181.667 87.333 323 96l275 17v73c0 53.333 -17 94 -51 122s-81.333 42 -142 42
c-53.333 0 -97.166 -12.667 -131.499 -38s-55.166 -58 -62.499 -98h-267c2 52.667 14.833 100.667 38.5 144s56.334 80.666 98.001 111.999s91 55.666 148 72.999s119.833 26 188.5 26c70.667 0 134.834 -8.66699 192.501 -26s106.834 -42 147.501 -74
s72.167 -70.5 94.5 -115.5s33.5 -94.833 33.5 -149.5v-755h-282v170h-6c-15.333 -28.667 -34.833 -54.334 -58.5 -77.001s-50.167 -41.834 -79.5 -57.501s-61 -27.667 -95 -36s-68.667 -12.5 -104 -12.5zM577.995 1210.01c-30 0 -58.333 5.66699 -85 17
s-50.167 26.833 -70.5 46.5s-36.333 42.667 -48 69s-17.5 54.5 -17.5 84.5s5.83301 58.167 17.5 84.5s27.667 49.333 48 69s43.833 35.167 70.5 46.5s55 17 85 17s58.5 -5.66699 85.5 -17s50.5 -26.833 70.5 -46.5s35.833 -42.667 47.5 -69s17.5 -54.5 17.5 -84.5
s-5.83301 -58.167 -17.5 -84.5s-27.5 -49.333 -47.5 -69s-43.5 -35.167 -70.5 -46.5s-55.5 -17 -85.5 -17zM577.995 1327.01c14 0 27.167 2.66699 39.5 8s23.166 12.5 32.499 21.5s16.666 19.5 21.999 31.5s8 25 8 39s-2.66699 27 -8 39s-12.666 22.667 -21.999 32
s-20.166 16.666 -32.499 21.999s-25.5 8 -39.5 8s-27.167 -2.66699 -39.5 -8s-23.166 -12.666 -32.499 -21.999s-16.666 -20 -21.999 -32s-8 -25 -8 -39s2.66699 -27 8 -39s12.666 -22.5 21.999 -31.5s20.166 -16.167 32.499 -21.5s25.5 -8 39.5 -8z" />
    <glyph glyph-name="ae" unicode="&#xe6;" horiz-adv-x="1844" 
d="M1286 -19c-92.667 0 -174.167 18.333 -244.5 55s-123.5 87.334 -159.5 152.001h-9c-38.667 -64.667 -92 -114.334 -160 -149.001s-149.667 -52 -245 -52c-62 0 -118.5 8 -169.5 24s-94.667 38.333 -131 67s-64.333 63.167 -84 103.5s-29.5 84.833 -29.5 133.5
c0 100 36.833 178.167 110.5 234.5s181.167 88.5 322.5 96.5l276 15v67c0 26 -4.66699 49.5 -14 70.5s-22.666 39.167 -39.999 54.5s-38 27.166 -62 35.499s-50.667 12.5 -80 12.5c-56 0 -101.333 -12.333 -136 -37s-54.334 -57.667 -59.001 -99h-268
c2.66699 52.667 15.667 100.834 39 144.501s54.833 81.167 94.5 112.5s86.834 55.5 141.501 72.5s115 25.5 181 25.5c88.667 0 163.667 -15 225 -45s107 -71 137 -123h9c36.667 54 85 95.5 145 124.5s129 43.5 207 43.5c76.667 0 146 -12.833 208 -38.5
s114.833 -62.334 158.5 -110.001s77.334 -105.167 101.001 -172.5s35.5 -142.666 35.5 -225.999v-89h-751v-19c0 -40 6.16699 -76.333 18.5 -109s29.666 -60.667 51.999 -84s49.166 -41.333 80.499 -54s66 -19 104 -19c54.667 0 101.167 12 139.5 36s64.5 57.667 78.5 101
h269c-8 -54 -25.667 -102.833 -53 -146.5s-62.5 -81 -105.5 -112s-92.667 -54.833 -149 -71.5s-117.5 -25 -183.5 -25zM1277 902c-33.333 0 -64.001 -5.66797 -92.001 -17.001s-52.5 -27.5 -73.5 -48.5s-37.833 -46.167 -50.5 -75.5s-20.334 -61.666 -23.001 -96.999h466
c-1.33301 36.667 -7.66602 69.667 -18.999 99s-26.833 54.333 -46.5 75s-43.167 36.5 -70.5 47.5s-57.666 16.5 -90.999 16.5zM514.999 199.999c34.667 0 67.168 5.16895 97.501 15.502s56.666 24.666 78.999 42.999s39.833 40 52.5 65s19 51.833 19 80.5v78l-233 -14
c-60 -3.33301 -105.833 -16.833 -137.5 -40.5s-47.5 -55.5 -47.5 -95.5c0 -40.667 15.333 -72.834 46 -96.501s72 -35.5 124 -35.5z" />
    <glyph glyph-name="ccedilla" unicode="&#xe7;" horiz-adv-x="1142" 
d="M1095 400c-4 -58.667 -16.8311 -112.166 -38.498 -160.499s-50.834 -90.333 -87.501 -126s-80.5 -64.667 -131.5 -87s-107.5 -36.5 -169.5 -42.5l-42 -100c58.667 0 104.167 -13.833 136.5 -41.5s48.5 -66.834 48.5 -117.501c0 -58 -21.167 -103.333 -63.5 -136
s-101.5 -49.334 -177.5 -50.001c-28 0 -53.833 1.33301 -77.5 4s-44.5 6.66699 -62.5 12v120c11.333 -4 27.666 -7.33301 48.999 -10s42 -4 62 -4c71.333 0 107 18.333 107 55c0 20.667 -9.5 35.167 -28.5 43.5s-51.167 12.5 -96.5 12.5h-56v101l51 112
c-70.667 8 -134.334 26.833 -191.001 56.5s-105 68.667 -145 117s-70.667 105.5 -92 171.5s-32 139.667 -32 221c0 87.333 12.667 166 38 236s61.333 129.667 108 179s103 87.333 169 114s140 40 222 40c74 0 141 -10.667 201 -32s111.5 -50.833 154.5 -88.5
s76.833 -82.5 101.5 -134.5s38.667 -108.667 42 -170h-272c-4 28.667 -11.833 54.834 -23.5 78.501s-27 44.167 -46 61.5s-41.333 30.833 -67 40.5s-54.5 14.5 -86.5 14.5c-37.333 0 -71.166 -7.83301 -101.499 -23.5s-56.166 -38 -77.499 -67s-37.666 -64.5 -48.999 -106.5
s-17 -89.333 -17 -142c0 -54 5.66699 -102 17 -144s27.666 -77.5 48.999 -106.5s47.166 -51 77.499 -66s64.5 -22.5 102.5 -22.5c62 0 112.333 16.167 151 48.5s62.667 78.833 72 139.5h272z" />
    <glyph glyph-name="egrave" unicode="&#xe8;" horiz-adv-x="1164" 
d="M474 1263l-263 310h273l221 -310h-231zM590 902c-33.333 0 -64.167 -5.83301 -92.5 -17.5s-53 -28 -74 -49s-38 -46 -51 -75s-20.833 -61.167 -23.5 -96.5h475c-1.33301 36 -8 68.667 -20 98s-28.167 54.333 -48.5 75s-44.5 36.667 -72.5 48s-59 17 -93 17zM1097 336
c-8 -53.333 -25.998 -101.834 -53.998 -145.501s-63.667 -81 -107 -112s-93.833 -55 -151.5 -72s-119.834 -25.5 -186.501 -25.5c-84 0 -159.333 13 -226 39s-123.167 63.333 -169.5 112s-82 108 -107 178s-37.5 148.667 -37.5 236s12.333 166.333 37 237s60 131 106 181
s101.667 88.5 167 115.5s138.333 40.5 219 40.5c79.333 0 151 -12.833 215 -38.5s118.5 -62.167 163.5 -109.5s79.667 -104.666 104 -171.999s36.5 -143 36.5 -227v-90h-760v-18c0 -40 6.16699 -76.333 18.5 -109s29.666 -60.667 51.999 -84s49.333 -41.333 81 -54
s66.834 -19 105.501 -19c55.333 0 103.166 12.167 143.499 36.5s67.5 57.833 81.5 100.5h269z" />
    <glyph glyph-name="eacute" unicode="&#xe9;" horiz-adv-x="1164" 
d="M467 1263l221 310h273l-263 -310h-231zM590 902c-33.333 0 -64.167 -5.83301 -92.5 -17.5s-53 -28 -74 -49s-38 -46 -51 -75s-20.833 -61.167 -23.5 -96.5h475c-1.33301 36 -8 68.667 -20 98s-28.167 54.333 -48.5 75s-44.5 36.667 -72.5 48s-59 17 -93 17zM1097 336
c-8 -53.333 -25.998 -101.834 -53.998 -145.501s-63.667 -81 -107 -112s-93.833 -55 -151.5 -72s-119.834 -25.5 -186.501 -25.5c-84 0 -159.333 13 -226 39s-123.167 63.333 -169.5 112s-82 108 -107 178s-37.5 148.667 -37.5 236s12.333 166.333 37 237s60 131 106 181
s101.667 88.5 167 115.5s138.333 40.5 219 40.5c79.333 0 151 -12.833 215 -38.5s118.5 -62.167 163.5 -109.5s79.667 -104.666 104 -171.999s36.5 -143 36.5 -227v-90h-760v-18c0 -40 6.16699 -76.333 18.5 -109s29.666 -60.667 51.999 -84s49.333 -41.333 81 -54
s66.834 -19 105.501 -19c55.333 0 103.166 12.167 143.499 36.5s67.5 57.833 81.5 100.5h269z" />
    <glyph glyph-name="ecircumflex" unicode="&#xea;" horiz-adv-x="1164" 
d="M961 1253h-223l-149 189h-7l-148 -189h-224l266 318h219zM590 902c-33.333 0 -64.167 -5.83301 -92.5 -17.5s-53 -28 -74 -49s-38 -46 -51 -75s-20.833 -61.167 -23.5 -96.5h475c-1.33301 36 -8 68.667 -20 98s-28.167 54.333 -48.5 75s-44.5 36.667 -72.5 48
s-59 17 -93 17zM1097 336c-8 -53.333 -25.998 -101.834 -53.998 -145.501s-63.667 -81 -107 -112s-93.833 -55 -151.5 -72s-119.834 -25.5 -186.501 -25.5c-84 0 -159.333 13 -226 39s-123.167 63.333 -169.5 112s-82 108 -107 178s-37.5 148.667 -37.5 236
s12.333 166.333 37 237s60 131 106 181s101.667 88.5 167 115.5s138.333 40.5 219 40.5c79.333 0 151 -12.833 215 -38.5s118.5 -62.167 163.5 -109.5s79.667 -104.666 104 -171.999s36.5 -143 36.5 -227v-90h-760v-18c0 -40 6.16699 -76.333 18.5 -109
s29.666 -60.667 51.999 -84s49.333 -41.333 81 -54s66.834 -19 105.501 -19c55.333 0 103.166 12.167 143.499 36.5s67.5 57.833 81.5 100.5h269z" />
    <glyph glyph-name="edieresis" unicode="&#xeb;" horiz-adv-x="1164" 
d="M590 902c-33.333 0 -64.167 -5.83301 -92.5 -17.5s-53 -28 -74 -49s-38 -46 -51 -75s-20.833 -61.167 -23.5 -96.5h475c-1.33301 36 -8 68.667 -20 98s-28.167 54.333 -48.5 75s-44.5 36.667 -72.5 48s-59 17 -93 17zM1097 336
c-8 -53.333 -25.998 -101.834 -53.998 -145.501s-63.667 -81 -107 -112s-93.833 -55 -151.5 -72s-119.834 -25.5 -186.501 -25.5c-84 0 -159.333 13 -226 39s-123.167 63.333 -169.5 112s-82 108 -107 178s-37.5 148.667 -37.5 236s12.333 166.333 37 237s60 131 106 181
s101.667 88.5 167 115.5s138.333 40.5 219 40.5c79.333 0 151 -12.833 215 -38.5s118.5 -62.167 163.5 -109.5s79.667 -104.666 104 -171.999s36.5 -143 36.5 -227v-90h-760v-18c0 -40 6.16699 -76.333 18.5 -109s29.666 -60.667 51.999 -84s49.333 -41.333 81 -54
s66.834 -19 105.501 -19c55.333 0 103.166 12.167 143.499 36.5s67.5 57.833 81.5 100.5h269zM377.001 1259c-19.333 0 -37.166 3.5 -53.499 10.5s-30.5 16.333 -42.5 28s-21.5 25.5 -28.5 41.5s-10.5 33 -10.5 51s3.5 35 10.5 51s16.5 29.833 28.5 41.5s26.167 21 42.5 28
s34.166 10.5 53.499 10.5s37.166 -3.5 53.499 -10.5s30.5 -16.333 42.5 -28s21.5 -25.5 28.5 -41.5s10.5 -33 10.5 -51s-3.5 -35 -10.5 -51s-16.5 -29.833 -28.5 -41.5s-26.167 -21 -42.5 -28s-34.166 -10.5 -53.499 -10.5zM796.001 1259
c-19.333 0 -37.166 3.5 -53.499 10.5s-30.5 16.333 -42.5 28s-21.5 25.5 -28.5 41.5s-10.5 33 -10.5 51s3.5 35 10.5 51s16.5 29.833 28.5 41.5s26.167 21 42.5 28s34.166 10.5 53.499 10.5s37.166 -3.5 53.499 -10.5s30.5 -16.333 42.5 -28s21.5 -25.5 28.5 -41.5
s10.5 -33 10.5 -51s-3.5 -35 -10.5 -51s-16.5 -29.833 -28.5 -41.5s-26.167 -21 -42.5 -28s-34.166 -10.5 -53.499 -10.5z" />
    <glyph glyph-name="igrave" unicode="&#xec;" horiz-adv-x="500" 
d="M138 1263l-263 310h273l221 -310h-231zM104 1101h292v-1101h-292v1101z" />
    <glyph glyph-name="iacute" unicode="&#xed;" horiz-adv-x="500" 
d="M131 1263l221 310h273l-263 -310h-231zM104 1101h292v-1101h-292v1101z" />
    <glyph glyph-name="icircumflex" unicode="&#xee;" horiz-adv-x="500" 
d="M625 1253h-223l-149 189h-7l-148 -189h-224l266 318h219zM104 1101h292v-1101h-292v1101z" />
    <glyph glyph-name="idieresis" unicode="&#xef;" horiz-adv-x="500" 
d="M104 1101h292v-1101h-292v1101zM41 1259c-19.333 0 -37.166 3.5 -53.499 10.5s-30.5 16.333 -42.5 28s-21.5 25.5 -28.5 41.5s-10.5 33 -10.5 51s3.5 35 10.5 51s16.5 29.833 28.5 41.5s26.167 21 42.5 28s34.166 10.5 53.499 10.5s37.166 -3.5 53.499 -10.5
s30.5 -16.333 42.5 -28s21.5 -25.5 28.5 -41.5s10.5 -33 10.5 -51s-3.5 -35 -10.5 -51s-16.5 -29.833 -28.5 -41.5s-26.167 -21 -42.5 -28s-34.166 -10.5 -53.499 -10.5zM460 1259c-19.333 0 -37.166 3.5 -53.499 10.5s-30.5 16.333 -42.5 28s-21.5 25.5 -28.5 41.5
s-10.5 33 -10.5 51s3.5 35 10.5 51s16.5 29.833 28.5 41.5s26.167 21 42.5 28s34.166 10.5 53.499 10.5s37.166 -3.5 53.499 -10.5s30.5 -16.333 42.5 -28s21.5 -25.5 28.5 -41.5s10.5 -33 10.5 -51s-3.5 -35 -10.5 -51s-16.5 -29.833 -28.5 -41.5s-26.167 -21 -42.5 -28
s-34.166 -10.5 -53.499 -10.5z" />
    <glyph glyph-name="eth" unicode="&#xf0;" horiz-adv-x="1253" 
d="M621 -18c-81.333 0 -155.169 13.002 -221.502 39.002s-123.166 63.167 -170.499 111.5s-84 106.5 -110 174.5s-39 144 -39 228c0 79.333 11.5 151 34.5 215s55.167 118.5 96.5 163.5s90.666 79.667 147.999 104s120 36.5 188 36.5c28 0 55.667 -3.16699 83 -9.5
s52.833 -15.166 76.5 -26.499s45.334 -25 65.001 -41s36.167 -33.667 49.5 -53h17c-7.33301 24 -17.166 49 -29.499 75s-26.166 51.667 -41.499 77s-31.666 49.666 -48.999 72.999s-34.333 44.333 -51 63l-285 -95l-55 140l228 76c-28 25.333 -61.333 52.666 -100 81.999
s-86 63.333 -142 102h363c19.333 -14.667 39.166 -30.834 59.499 -48.501s40.166 -36.167 59.499 -55.5l265 89l57 -141l-202 -66c166.667 -198.667 250 -430 250 -694c0 -95.333 -13 -181.166 -39 -257.499s-62.833 -141.333 -110.5 -195s-105 -94.834 -172 -123.501
s-141.167 -43 -222.5 -43zM627.997 848.002c-38 0 -72.5029 -7.33594 -103.503 -22.0029s-57.167 -35.667 -78.5 -63s-37.833 -60.5 -49.5 -99.5s-17.5 -82.5 -17.5 -130.5s5.83301 -91.5 17.5 -130.5s28.167 -72.167 49.5 -99.5s47.5 -48.333 78.5 -63s65.5 -22 103.5 -22
c38.667 0 73.334 7.33301 104.001 22s56.834 35.667 78.501 63s38.334 60.333 50.001 99s17.5 82.334 17.5 131.001c0 48 -5.83301 91.333 -17.5 130s-28.5 71.834 -50.5 99.501s-48.333 48.834 -79 63.501s-65 22 -103 22z" />
    <glyph glyph-name="ntilde" unicode="&#xf1;" horiz-adv-x="1227" 
d="M757 1258c-22.667 0 -43.168 3.33301 -61.501 10s-35 15 -50 25s-28.667 21 -41 33s-24.333 23 -36 33s-23.167 18.333 -34.5 25s-23 10 -35 10c-22.667 0 -39.667 -11 -51 -33s-17.333 -50.667 -18 -86h-158c0 42.667 5.5 80.834 16.5 114.501s26 62.167 45 85.5
s41.667 41 68 53s54.833 18 85.5 18c35.333 0 65.5 -7 90.5 -21s47.167 -29.5 66.5 -46.5l53 -46.5c16 -14 33 -21 51 -21c21.333 0 37.333 10.667 48 32s16.334 51.333 17.001 90h158c0 -42.667 -5.5 -81 -16.5 -115s-26 -62.833 -45 -86.5s-41.667 -41.834 -68 -54.501
s-54.5 -19 -84.5 -19zM98.999 1101h281.997v-197h6c32 70 77.667 123 137 159s131.666 54 216.999 54c60.667 0 115.334 -9.33301 164.001 -28s89.834 -45.667 123.501 -81s59.5 -78.5 77.5 -129.5s27 -108.5 27 -172.5v-706h-292v645c0 73.333 -18.667 129.833 -56 169.5
s-90.666 59.5 -159.999 59.5c-35.333 0 -67.333 -6 -96 -18s-53.167 -28.833 -73.5 -50.5s-36.166 -47.5 -47.499 -77.5s-17 -63.333 -17 -100v-628h-292v1101z" />
    <glyph glyph-name="ograve" unicode="&#xf2;" horiz-adv-x="1201" 
d="M489 1263l-263 310h273l221 -310h-231zM601 -19c-83.333 0 -158.499 13 -225.499 39s-124 63.5 -171 112.5s-83.167 108.667 -108.5 179s-38 150.166 -38 239.499c0 88 12.833 167.167 38.5 237.5s62 130 109 179s104 86.667 171 113s141.833 39.5 224.5 39.5
s157.5 -13.167 224.5 -39.5s124.167 -64 171.5 -113s83.666 -108.667 108.999 -179s38 -149.5 38 -237.5c0 -89.333 -12.667 -169.166 -38 -239.499s-61.5 -130 -108.5 -179s-104 -86.5 -171 -112.5s-142.167 -39 -225.5 -39zM601.001 206
c77.333 0 137.665 30.002 180.998 90.002s65 145 65 255c0 54 -5.66699 102.5 -17 145.5s-27.5 79.167 -48.5 108.5s-46.833 51.833 -77.5 67.5s-65 23.5 -103 23.5c-38.667 0 -73.167 -7.83301 -103.5 -23.5s-56.166 -38.334 -77.499 -68.001
s-37.666 -65.834 -48.999 -108.501s-17 -91 -17 -145c0 -110 21.833 -195 65.5 -255s104.167 -90 181.5 -90z" />
    <glyph glyph-name="oacute" unicode="&#xf3;" horiz-adv-x="1201" 
d="M482 1263l221 310h273l-263 -310h-231zM601 -19c-83.333 0 -158.499 13 -225.499 39s-124 63.5 -171 112.5s-83.167 108.667 -108.5 179s-38 150.166 -38 239.499c0 88 12.833 167.167 38.5 237.5s62 130 109 179s104 86.667 171 113s141.833 39.5 224.5 39.5
s157.5 -13.167 224.5 -39.5s124.167 -64 171.5 -113s83.666 -108.667 108.999 -179s38 -149.5 38 -237.5c0 -89.333 -12.667 -169.166 -38 -239.499s-61.5 -130 -108.5 -179s-104 -86.5 -171 -112.5s-142.167 -39 -225.5 -39zM601.001 206
c77.333 0 137.665 30.002 180.998 90.002s65 145 65 255c0 54 -5.66699 102.5 -17 145.5s-27.5 79.167 -48.5 108.5s-46.833 51.833 -77.5 67.5s-65 23.5 -103 23.5c-38.667 0 -73.167 -7.83301 -103.5 -23.5s-56.166 -38.334 -77.499 -68.001
s-37.666 -65.834 -48.999 -108.501s-17 -91 -17 -145c0 -110 21.833 -195 65.5 -255s104.167 -90 181.5 -90z" />
    <glyph glyph-name="ocircumflex" unicode="&#xf4;" horiz-adv-x="1201" 
d="M976 1253h-223l-149 189h-7l-148 -189h-224l266 318h219zM601 -19c-83.333 0 -158.499 13 -225.499 39s-124 63.5 -171 112.5s-83.167 108.667 -108.5 179s-38 150.166 -38 239.499c0 88 12.833 167.167 38.5 237.5s62 130 109 179s104 86.667 171 113
s141.833 39.5 224.5 39.5s157.5 -13.167 224.5 -39.5s124.167 -64 171.5 -113s83.666 -108.667 108.999 -179s38 -149.5 38 -237.5c0 -89.333 -12.667 -169.166 -38 -239.499s-61.5 -130 -108.5 -179s-104 -86.5 -171 -112.5s-142.167 -39 -225.5 -39zM601.001 206
c77.333 0 137.665 30.002 180.998 90.002s65 145 65 255c0 54 -5.66699 102.5 -17 145.5s-27.5 79.167 -48.5 108.5s-46.833 51.833 -77.5 67.5s-65 23.5 -103 23.5c-38.667 0 -73.167 -7.83301 -103.5 -23.5s-56.166 -38.334 -77.499 -68.001
s-37.666 -65.834 -48.999 -108.501s-17 -91 -17 -145c0 -110 21.833 -195 65.5 -255s104.167 -90 181.5 -90z" />
    <glyph glyph-name="otilde" unicode="&#xf5;" horiz-adv-x="1201" 
d="M743 1258c-22.667 0 -43.168 3.33301 -61.501 10s-35 15 -50 25s-28.667 21 -41 33s-24.333 23 -36 33s-23.167 18.333 -34.5 25s-23 10 -35 10c-22.667 0 -39.667 -11 -51 -33s-17.333 -50.667 -18 -86h-158c0 42.667 5.5 80.834 16.5 114.501s26 62.167 45 85.5
s41.667 41 68 53s54.833 18 85.5 18c35.333 0 65.5 -7 90.5 -21s47.167 -29.5 66.5 -46.5l53 -46.5c16 -14 33 -21 51 -21c21.333 0 37.333 10.667 48 32s16.334 51.333 17.001 90h158c0 -42.667 -5.5 -81 -16.5 -115s-26 -62.833 -45 -86.5s-41.667 -41.834 -68 -54.501
s-54.5 -19 -84.5 -19zM600.999 -19c-83.333 0 -158.499 13 -225.499 39s-124 63.5 -171 112.5s-83.167 108.667 -108.5 179s-38 150.166 -38 239.499c0 88 12.833 167.167 38.5 237.5s62 130 109 179s104 86.667 171 113s141.833 39.5 224.5 39.5s157.5 -13.167 224.5 -39.5
s124.167 -64 171.5 -113s83.666 -108.667 108.999 -179s38 -149.5 38 -237.5c0 -89.333 -12.667 -169.166 -38 -239.499s-61.5 -130 -108.5 -179s-104 -86.5 -171 -112.5s-142.167 -39 -225.5 -39zM601 206c77.333 0 137.665 30.002 180.998 90.002s65 145 65 255
c0 54 -5.66699 102.5 -17 145.5s-27.5 79.167 -48.5 108.5s-46.833 51.833 -77.5 67.5s-65 23.5 -103 23.5c-38.667 0 -73.167 -7.83301 -103.5 -23.5s-56.166 -38.334 -77.499 -68.001s-37.666 -65.834 -48.999 -108.501s-17 -91 -17 -145c0 -110 21.833 -195 65.5 -255
s104.167 -90 181.5 -90z" />
    <glyph glyph-name="odieresis" unicode="&#xf6;" horiz-adv-x="1201" 
d="M392 1259c-19.333 0 -37.166 3.5 -53.499 10.5s-30.5 16.333 -42.5 28s-21.5 25.5 -28.5 41.5s-10.5 33 -10.5 51s3.5 35 10.5 51s16.5 29.833 28.5 41.5s26.167 21 42.5 28s34.166 10.5 53.499 10.5s37.166 -3.5 53.499 -10.5s30.5 -16.333 42.5 -28
s21.5 -25.5 28.5 -41.5s10.5 -33 10.5 -51s-3.5 -35 -10.5 -51s-16.5 -29.833 -28.5 -41.5s-26.167 -21 -42.5 -28s-34.166 -10.5 -53.499 -10.5zM811 1259c-19.333 0 -37.166 3.5 -53.499 10.5s-30.5 16.333 -42.5 28s-21.5 25.5 -28.5 41.5s-10.5 33 -10.5 51
s3.5 35 10.5 51s16.5 29.833 28.5 41.5s26.167 21 42.5 28s34.166 10.5 53.499 10.5s37.166 -3.5 53.499 -10.5s30.5 -16.333 42.5 -28s21.5 -25.5 28.5 -41.5s10.5 -33 10.5 -51s-3.5 -35 -10.5 -51s-16.5 -29.833 -28.5 -41.5s-26.167 -21 -42.5 -28
s-34.166 -10.5 -53.499 -10.5zM601 -19c-83.333 0 -158.499 13 -225.499 39s-124 63.5 -171 112.5s-83.167 108.667 -108.5 179s-38 150.166 -38 239.499c0 88 12.833 167.167 38.5 237.5s62 130 109 179s104 86.667 171 113s141.833 39.5 224.5 39.5
s157.5 -13.167 224.5 -39.5s124.167 -64 171.5 -113s83.666 -108.667 108.999 -179s38 -149.5 38 -237.5c0 -89.333 -12.667 -169.166 -38 -239.499s-61.5 -130 -108.5 -179s-104 -86.5 -171 -112.5s-142.167 -39 -225.5 -39zM601.001 206
c77.333 0 137.665 30.002 180.998 90.002s65 145 65 255c0 54 -5.66699 102.5 -17 145.5s-27.5 79.167 -48.5 108.5s-46.833 51.833 -77.5 67.5s-65 23.5 -103 23.5c-38.667 0 -73.167 -7.83301 -103.5 -23.5s-56.166 -38.334 -77.499 -68.001
s-37.666 -65.834 -48.999 -108.501s-17 -91 -17 -145c0 -110 21.833 -195 65.5 -255s104.167 -90 181.5 -90z" />
    <glyph glyph-name="divide" unicode="&#xf7;" horiz-adv-x="1326" 
d="M664 810c-24.667 0 -47.334 3.83301 -68.001 11.5s-38.334 18.5 -53.001 32.5s-26 30.667 -34 50s-12 40.666 -12 63.999s4 44.833 12 64.5s19.333 36.5 34 50.5s32.334 24.833 53.001 32.5s43.334 11.5 68.001 11.5s47.334 -3.83301 68.001 -11.5
s38.334 -18.5 53.001 -32.5s26 -30.833 34 -50.5s12 -41.167 12 -64.5s-4 -44.666 -12 -63.999s-19.333 -36 -34 -50s-32.334 -24.833 -53.001 -32.5s-43.334 -11.5 -68.001 -11.5zM664 32c-24.667 0 -47.334 3.83301 -68.001 11.5s-38.334 18.5 -53.001 32.5
s-26 30.667 -34 50s-12 40.666 -12 63.999s4 44.833 12 64.5s19.333 36.5 34 50.5s32.334 24.833 53.001 32.5s43.334 11.5 68.001 11.5s47.334 -3.83301 68.001 -11.5s38.334 -18.5 53.001 -32.5s26 -30.833 34 -50.5s12 -41.167 12 -64.5s-4 -44.666 -12 -63.999
s-19.333 -36 -34 -50s-32.334 -24.833 -53.001 -32.5s-43.334 -11.5 -68.001 -11.5zM124 470v218h1079v-218h-1079z" />
    <glyph glyph-name="oslash" unicode="&#xf8;" horiz-adv-x="1201" 
d="M483 237c35.333 -20.667 74.668 -31 118.001 -31c77.333 0 137.666 30 180.999 90s65 145 65 255c0 81.333 -12.667 150 -38 206zM729.002 857c-36 26 -78.6699 39.002 -128.003 39.002c-38.667 0 -73.167 -7.83301 -103.5 -23.5s-56.166 -38.334 -77.499 -68.001
s-37.666 -65.834 -48.999 -108.501s-17 -91 -17 -145c0 -45.333 3.83301 -86.333 11.5 -123s18.834 -69 33.501 -97zM961.999 1001c58.667 -49.333 103.667 -111.834 135 -187.501s47 -163.167 47 -262.5c0 -89.333 -12.667 -169.166 -38 -239.499s-61.5 -130 -108.5 -179
s-104 -86.5 -171 -112.5s-142.167 -39 -225.5 -39c-46.667 0 -90.667 4.16699 -132 12.5s-80 20.166 -116 35.499l-62 -99l-104 64l62 98c-61.333 48.667 -108.5 111.667 -141.5 189s-49.5 167.333 -49.5 270c0 88 12.833 167.167 38.5 237.5s62 130 109 179
s104 86.667 171 113s141.833 39.5 224.5 39.5c49.333 0 95.5 -4.66699 138.5 -14s83.167 -22.666 120.5 -39.999l64 102l106 -59z" />
    <glyph glyph-name="ugrave" unicode="&#xf9;" horiz-adv-x="1227" 
d="M500 1263l-263 310h273l221 -310h-231zM1128 0l-281.999 -0.00195312v199h-6c-28 -69.333 -71.667 -122.5 -131 -159.5s-131 -55.5 -215 -55.5c-59.333 0 -113.666 9.33301 -162.999 28s-91.5 45.834 -126.5 81.501s-62.167 78.834 -81.5 129.501s-29 108 -29 172v706
h292v-645c0 -74.667 19.5 -131.5 58.5 -170.5s92.5 -58.5 160.5 -58.5c34 0 65.167 5.83301 93.5 17.5s52.666 28.334 72.999 50.001s36.166 47.667 47.499 78s17 64.166 17 101.499v627h292v-1101z" />
    <glyph glyph-name="uacute" unicode="&#xfa;" horiz-adv-x="1227" 
d="M493 1263l221 310h273l-263 -310h-231zM1128 0l-281.999 -0.00195312v199h-6c-28 -69.333 -71.667 -122.5 -131 -159.5s-131 -55.5 -215 -55.5c-59.333 0 -113.666 9.33301 -162.999 28s-91.5 45.834 -126.5 81.501s-62.167 78.834 -81.5 129.501s-29 108 -29 172v706
h292v-645c0 -74.667 19.5 -131.5 58.5 -170.5s92.5 -58.5 160.5 -58.5c34 0 65.167 5.83301 93.5 17.5s52.666 28.334 72.999 50.001s36.166 47.667 47.499 78s17 64.166 17 101.499v627h292v-1101z" />
    <glyph glyph-name="ucircumflex" unicode="&#xfb;" horiz-adv-x="1227" 
d="M987 1253h-223l-149 189h-7l-148 -189h-224l266 318h219zM1128 0l-281.999 -0.00195312v199h-6c-28 -69.333 -71.667 -122.5 -131 -159.5s-131 -55.5 -215 -55.5c-59.333 0 -113.666 9.33301 -162.999 28s-91.5 45.834 -126.5 81.501s-62.167 78.834 -81.5 129.501
s-29 108 -29 172v706h292v-645c0 -74.667 19.5 -131.5 58.5 -170.5s92.5 -58.5 160.5 -58.5c34 0 65.167 5.83301 93.5 17.5s52.666 28.334 72.999 50.001s36.166 47.667 47.499 78s17 64.166 17 101.499v627h292v-1101z" />
    <glyph glyph-name="udieresis" unicode="&#xfc;" horiz-adv-x="1227" 
d="M1128 0l-281.999 -0.00195312v199h-6c-28 -69.333 -71.667 -122.5 -131 -159.5s-131 -55.5 -215 -55.5c-59.333 0 -113.666 9.33301 -162.999 28s-91.5 45.834 -126.5 81.501s-62.167 78.834 -81.5 129.501s-29 108 -29 172v706h292v-645
c0 -74.667 19.5 -131.5 58.5 -170.5s92.5 -58.5 160.5 -58.5c34 0 65.167 5.83301 93.5 17.5s52.666 28.334 72.999 50.001s36.166 47.667 47.499 78s17 64.166 17 101.499v627h292v-1101zM403.001 1259c-19.333 0 -37.166 3.5 -53.499 10.5s-30.5 16.333 -42.5 28
s-21.5 25.5 -28.5 41.5s-10.5 33 -10.5 51s3.5 35 10.5 51s16.5 29.833 28.5 41.5s26.167 21 42.5 28s34.166 10.5 53.499 10.5s37.166 -3.5 53.499 -10.5s30.5 -16.333 42.5 -28s21.5 -25.5 28.5 -41.5s10.5 -33 10.5 -51s-3.5 -35 -10.5 -51s-16.5 -29.833 -28.5 -41.5
s-26.167 -21 -42.5 -28s-34.166 -10.5 -53.499 -10.5zM822.001 1259c-19.333 0 -37.166 3.5 -53.499 10.5s-30.5 16.333 -42.5 28s-21.5 25.5 -28.5 41.5s-10.5 33 -10.5 51s3.5 35 10.5 51s16.5 29.833 28.5 41.5s26.167 21 42.5 28s34.166 10.5 53.499 10.5
s37.166 -3.5 53.499 -10.5s30.5 -16.333 42.5 -28s21.5 -25.5 28.5 -41.5s10.5 -33 10.5 -51s-3.5 -35 -10.5 -51s-16.5 -29.833 -28.5 -41.5s-26.167 -21 -42.5 -28s-34.166 -10.5 -53.499 -10.5z" />
    <glyph glyph-name="yacute" unicode="&#xfd;" horiz-adv-x="1136" 
d="M239 -402c-2.66699 0 -9.5 0.167969 -20.5 0.500977s-22.667 0.666016 -35 0.999023s-24 0.666016 -35 0.999023s-17.833 0.833008 -20.5 1.5v226c2.66699 -0.666992 7 -1.16699 13 -1.5s12.5 -0.666016 19.5 -0.999023s13.5 -0.5 19.5 -0.5h14c54.667 0 98 10 130 30
s53.667 52 65 96l10 42l-386 1108h320l238 -864h6l239 864h308l-381 -1123c-23.333 -70 -49.833 -129.167 -79.5 -177.5s-64.5 -87.5 -104.5 -117.5s-86.167 -51.667 -138.5 -65s-112.833 -20 -181.5 -20zM450 1263l221 310h273l-263 -310h-231z" />
    <glyph glyph-name="thorn" unicode="&#xfe;" horiz-adv-x="1253" 
d="M746 1119c70 0 132.499 -13.001 187.499 -39.001s101.833 -63.333 140.5 -112s68.167 -108.167 88.5 -178.5s30.5 -149.833 30.5 -238.5s-10.167 -168.167 -30.5 -238.5s-49.666 -130 -87.999 -179s-85 -86.5 -140 -112.5s-117.167 -39 -186.5 -39
c-79.333 0 -147.833 16.333 -205.5 49s-100.167 78.334 -127.5 137.001h-17v-514h-291v1853h287v-587h18c30 62.667 74 111.5 132 146.5s125.333 52.5 202 52.5zM644.999 217.999c38.667 0 73.501 7.66895 104.501 23.002s57.167 37.166 78.5 65.499
s37.666 63.166 48.999 104.499s17 88 17 140s-5.66699 98.5 -17 139.5s-27.666 75.667 -48.999 104s-47.5 50.166 -78.5 65.499s-65.833 23 -104.5 23s-73.334 -7.66699 -104.001 -23s-56.834 -37.333 -78.501 -66s-38.5 -63.667 -50.5 -105s-18 -87.666 -18 -138.999
s5.83301 -97.5 17.5 -138.5s28.334 -75.833 50.001 -104.5s48 -50.667 79 -66s65.833 -23 104.5 -23z" />
    <glyph glyph-name="ydieresis" unicode="&#xff;" horiz-adv-x="1136" 
d="M239 -402c-2.66699 0 -9.5 0.167969 -20.5 0.500977s-22.667 0.666016 -35 0.999023s-24 0.666016 -35 0.999023s-17.833 0.833008 -20.5 1.5v226c2.66699 -0.666992 7 -1.16699 13 -1.5s12.5 -0.666016 19.5 -0.999023s13.5 -0.5 19.5 -0.5h14c54.667 0 98 10 130 30
s53.667 52 65 96l10 42l-386 1108h320l238 -864h6l239 864h308l-381 -1123c-23.333 -70 -49.833 -129.167 -79.5 -177.5s-64.5 -87.5 -104.5 -117.5s-86.167 -51.667 -138.5 -65s-112.833 -20 -181.5 -20zM360 1259c-19.333 0 -37.166 3.5 -53.499 10.5
s-30.5 16.333 -42.5 28s-21.5 25.5 -28.5 41.5s-10.5 33 -10.5 51s3.5 35 10.5 51s16.5 29.833 28.5 41.5s26.167 21 42.5 28s34.166 10.5 53.499 10.5s37.166 -3.5 53.499 -10.5s30.5 -16.333 42.5 -28s21.5 -25.5 28.5 -41.5s10.5 -33 10.5 -51s-3.5 -35 -10.5 -51
s-16.5 -29.833 -28.5 -41.5s-26.167 -21 -42.5 -28s-34.166 -10.5 -53.499 -10.5zM779 1259c-19.333 0 -37.166 3.5 -53.499 10.5s-30.5 16.333 -42.5 28s-21.5 25.5 -28.5 41.5s-10.5 33 -10.5 51s3.5 35 10.5 51s16.5 29.833 28.5 41.5s26.167 21 42.5 28
s34.166 10.5 53.499 10.5s37.166 -3.5 53.499 -10.5s30.5 -16.333 42.5 -28s21.5 -25.5 28.5 -41.5s10.5 -33 10.5 -51s-3.5 -35 -10.5 -51s-16.5 -29.833 -28.5 -41.5s-26.167 -21 -42.5 -28s-34.166 -10.5 -53.499 -10.5z" />
    <glyph glyph-name="Amacron" unicode="&#x100;" horiz-adv-x="1413" 
d="M955 350h-507l-110 -350h-310l501 1443h355l502 -1443h-321zM513 576h377l-185 591h-7zM1053 1624h-692v143h692v-143z" />
    <glyph glyph-name="amacron" unicode="&#x101;" horiz-adv-x="1147" 
d="M520 200c34 0 65.667 5.00098 95 15.001s55 24 77 42s39.333 39.5 52 64.5s19 52.5 19 82.5v81l-231 -16c-61.333 -4 -107.833 -17.667 -139.5 -41s-47.5 -55.333 -47.5 -96s15.833 -72.834 47.5 -96.501s74.167 -35.5 127.5 -35.5zM425 -12.999
c-53.333 0 -102.505 8.00488 -147.505 24.0049s-84.167 38.5 -117.5 67.5s-59.333 63.667 -78 104s-28 85.166 -28 134.499c0 100.667 37 178.667 111 234s181.667 87.333 323 96l275 17v73c0 53.333 -17 94 -51 122s-81.333 42 -142 42
c-53.333 0 -97.166 -12.667 -131.499 -38s-55.166 -58 -62.499 -98h-267c2 52.667 14.833 100.667 38.5 144s56.334 80.666 98.001 111.999s91 55.666 148 72.999s119.833 26 188.5 26c70.667 0 134.834 -8.66699 192.501 -26s106.834 -42 147.501 -74
s72.167 -70.5 94.5 -115.5s33.5 -94.833 33.5 -149.5v-755h-282v170h-6c-15.333 -28.667 -34.833 -54.334 -58.5 -77.001s-50.167 -41.834 -79.5 -57.501s-61 -27.667 -95 -36s-68.667 -12.5 -104 -12.5zM912.995 1298.01h-669v143h669v-143z" />
    <glyph glyph-name="Abreve" unicode="&#x102;" horiz-adv-x="1413" 
d="M955 350h-507l-110 -350h-310l501 1443h355l502 -1443h-321zM513 576h377l-185 591h-7zM532 1860c0.666992 -24.667 5.16699 -47.5 13.5 -68.5s20.166 -39.167 35.499 -54.5s33.666 -27.333 54.999 -36s45 -13 71 -13s49.667 4.33301 71 13s39.666 20.667 54.999 36
s27.166 33.5 35.499 54.5s12.833 43.833 13.5 68.5h178c-0.666992 -44.667 -9.16699 -86.334 -25.5 -125.001s-39.666 -72.167 -69.999 -100.5s-67.166 -50.666 -110.499 -66.999s-92.333 -24.5 -147 -24.5s-103.667 8.16699 -147 24.5s-80.166 38.666 -110.499 66.999
s-53.666 61.833 -69.999 100.5s-24.833 80.334 -25.5 125.001h178z" />
    <glyph glyph-name="abreve" unicode="&#x103;" horiz-adv-x="1147" 
d="M520 200c34 0 65.667 5.00098 95 15.001s55 24 77 42s39.333 39.5 52 64.5s19 52.5 19 82.5v81l-231 -16c-61.333 -4 -107.833 -17.667 -139.5 -41s-47.5 -55.333 -47.5 -96s15.833 -72.834 47.5 -96.501s74.167 -35.5 127.5 -35.5zM425 -12.999
c-53.333 0 -102.505 8.00488 -147.505 24.0049s-84.167 38.5 -117.5 67.5s-59.333 63.667 -78 104s-28 85.166 -28 134.499c0 100.667 37 178.667 111 234s181.667 87.333 323 96l275 17v73c0 53.333 -17 94 -51 122s-81.333 42 -142 42
c-53.333 0 -97.166 -12.667 -131.499 -38s-55.166 -58 -62.499 -98h-267c2 52.667 14.833 100.667 38.5 144s56.334 80.666 98.001 111.999s91 55.666 148 72.999s119.833 26 188.5 26c70.667 0 134.834 -8.66699 192.501 -26s106.834 -42 147.501 -74
s72.167 -70.5 94.5 -115.5s33.5 -94.833 33.5 -149.5v-755h-282v170h-6c-15.333 -28.667 -34.833 -54.334 -58.5 -77.001s-50.167 -41.834 -79.5 -57.501s-61 -27.667 -95 -36s-68.667 -12.5 -104 -12.5zM397.995 1570.01c0.666992 -25.333 5.3291 -48.666 13.9961 -69.999
s20.834 -39.666 36.501 -54.999s34.334 -27.5 56.001 -36.5s45.834 -13.5 72.501 -13.5s50.834 4.5 72.501 13.5s40.334 21.167 56.001 36.5s27.834 33.666 36.501 54.999s13.334 44.666 14.001 69.999h180c-0.666992 -45.333 -9.33398 -87.666 -26.001 -126.999
s-40.5 -73.5 -71.5 -102.5s-68.5 -51.667 -112.5 -68s-93.667 -24.5 -149 -24.5s-105 8.16699 -149 24.5s-81.333 39 -112 68s-54.334 63.167 -71.001 102.5s-25.334 81.666 -26.001 126.999h179z" />
    <glyph glyph-name="Aogonek" unicode="&#x104;" horiz-adv-x="1413" 
d="M1236 -453c-37.333 0 -71.333 5.50098 -102 16.501s-57 26.5 -79 46.5s-39.167 43.833 -51.5 71.5s-18.5 58.167 -18.5 91.5c0 97.333 50.333 176.666 151 237.999h-74l-107 339h-507l-110 -350h-310l501 1443h355l499 -1436h-53c-96.667 -48 -145 -109.333 -145 -184
c0 -32.667 10.833 -59 32.5 -79s49.5 -30 83.5 -30c10.667 0 21 0.5 31 1.5s20 2.16699 30 3.5v-155c-17.333 -6 -36.333 -10.333 -57 -13s-43.667 -4 -69 -4zM513 576.001h377l-182 584h-12z" />
    <glyph glyph-name="aogonek" unicode="&#x105;" horiz-adv-x="1147" 
d="M927 -453c-36.667 0 -70.167 5.33105 -100.5 15.998s-56.5 25.834 -78.5 45.501s-39 43 -51 70s-18 56.833 -18 89.5c0 51.333 13 96.833 39 136.5s66.333 75.5 121 107.5h-71v158h-6c-14.667 -28 -33.5 -53.167 -56.5 -75.5s-49.167 -41.5 -78.5 -57.5
s-61.166 -28.333 -95.499 -37s-69.833 -13 -106.5 -13c-54 0 -103.833 8.16699 -149.5 24.5s-84.834 39 -117.501 68s-58.167 63.833 -76.5 104.5s-27.5 85 -27.5 133c0 99.333 36.667 177 110 233s181.333 88.333 324 97l275 17v73c0 52 -16.833 92.333 -50.5 121
s-81.167 43 -142.5 43c-52 0 -95.5 -12.333 -130.5 -37s-56.167 -57.667 -63.5 -99h-267c2 52.667 14.833 100.834 38.5 144.501s56.334 81 98.001 112s91 55.167 148 72.5s119.833 26 188.5 26c70.667 0 134.667 -8.66699 192 -26s106.5 -42 147.5 -74
s72.667 -70.5 95 -115.5s33.5 -94.833 33.5 -149.5v-745h-29c-96.667 -48.667 -145 -111 -145 -187c0 -33.333 10.667 -59.833 32 -79.5s49.333 -29.5 84 -29.5c10.667 0 20.667 0.5 30 1.5s18.666 2.16699 27.999 3.5v-155c-32.667 -11.333 -73.667 -17 -123 -17z
M520 199.998c34.667 0 66.832 5.16699 96.499 15.5s55.334 24.5 77.001 42.5s38.667 39.5 51 64.5s18.5 52.167 18.5 81.5v81l-231 -16c-61.333 -4 -107.833 -17.667 -139.5 -41s-47.5 -55.333 -47.5 -96c0 -40 15.667 -72 47 -96s74 -36 128 -36z" />
    <glyph glyph-name="Cacute" unicode="&#x106;" horiz-adv-x="1459" 
d="M626 1554l232 310h273l-277 -310h-228zM758 -25c-105.333 0 -199.998 17.0068 -283.998 51.0068s-155.667 83.167 -215 147.5s-104.833 142.666 -136.5 234.999s-47.5 196.833 -47.5 313.5c0 116 16 220.167 48 312.5s77.667 170.666 137 234.999s131 113.5 215 147.5
s178.333 51 283 51c86.667 0 167.334 -13.167 242.001 -39.5s140.167 -63.333 196.5 -111s101.5 -104.834 135.5 -171.501s54 -140.334 60 -221.001h-294c-7.33301 44 -20.833 84.167 -40.5 120.5s-44.334 67.166 -74.001 92.499s-63.667 45 -102 59s-79.5 21 -123.5 21
c-57.333 0 -109 -11.5 -155 -34.5s-85.333 -56 -118 -99s-57.834 -95 -75.501 -156s-26.5 -129.5 -26.5 -205.5c0 -77.333 8.83301 -146.666 26.5 -207.999s42.667 -113.5 75 -156.5s71.666 -76 117.999 -99s98.5 -34.5 156.5 -34.5c44.667 0 86 6.33301 124 19
s71.667 31 101 55s53.833 53 73.5 87s33.5 72.333 41.5 115h294c-8.66699 -80.667 -30 -153.334 -64 -218.001s-78.5 -119.834 -133.5 -165.501s-119.5 -80.834 -193.5 -105.501s-155.333 -37 -244 -37z" />
    <glyph glyph-name="cacute" unicode="&#x107;" horiz-adv-x="1142" 
d="M822 695c-4 28.667 -11.835 54.833 -23.502 78.5s-27 44.167 -46 61.5s-41.333 30.833 -67 40.5s-54.5 14.5 -86.5 14.5c-37.333 0 -71.166 -7.83301 -101.499 -23.5s-56.166 -38 -77.499 -67s-37.666 -64.5 -48.999 -106.5s-17 -89.333 -17 -142
c0 -54 5.66699 -102 17 -144s27.666 -77.5 48.999 -106.5s47.166 -51 77.499 -66s64.5 -22.5 102.5 -22.5c62 0 112.333 16.167 151 48.5s62.667 78.833 72 139.5h272c-4 -64 -18.667 -121.833 -44 -173.5s-59.666 -95.667 -102.999 -132s-94.666 -64.333 -153.999 -84
s-125 -29.5 -197 -29.5c-82 0 -156.333 13.167 -223 39.5s-123.334 64 -170.001 113s-82.667 108.667 -108 179s-38 149.833 -38 238.5c0 87.333 12.667 166 38 236s61.333 129.667 108 179s103 87.333 169 114s140 40 222 40c74 0 141 -10.667 201 -32
s111.5 -50.833 154.5 -88.5s76.833 -82.5 101.5 -134.5s38.667 -108.667 42 -170h-272zM462.998 1263l221 310h273l-263 -310h-231z" />
    <glyph glyph-name="Ccircumflex" unicode="&#x108;" horiz-adv-x="1459" 
d="M758 -25c-105.333 0 -199.998 17.0068 -283.998 51.0068s-155.667 83.167 -215 147.5s-104.833 142.666 -136.5 234.999s-47.5 196.833 -47.5 313.5c0 116 16 220.167 48 312.5s77.667 170.666 137 234.999s131 113.5 215 147.5s178.333 51 283 51
c86.667 0 167.334 -13.167 242.001 -39.5s140.167 -63.333 196.5 -111s101.5 -104.834 135.5 -171.501s54 -140.334 60 -221.001h-294c-7.33301 44 -20.833 84.167 -40.5 120.5s-44.334 67.166 -74.001 92.499s-63.667 45 -102 59s-79.5 21 -123.5 21
c-57.333 0 -109 -11.5 -155 -34.5s-85.333 -56 -118 -99s-57.834 -95 -75.501 -156s-26.5 -129.5 -26.5 -205.5c0 -77.333 8.83301 -146.666 26.5 -207.999s42.667 -113.5 75 -156.5s71.666 -76 117.999 -99s98.5 -34.5 156.5 -34.5c44.667 0 86 6.33301 124 19
s71.667 31 101 55s53.833 53 73.5 87s33.5 72.333 41.5 115h294c-8.66699 -80.667 -30 -153.334 -64 -218.001s-78.5 -119.834 -133.5 -165.501s-119.5 -80.834 -193.5 -105.501s-155.333 -37 -244 -37zM859.002 1862.01l274 -318h-222l-163 197h-6l-163 -197h-222l274 318
h228z" />
    <glyph glyph-name="ccircumflex" unicode="&#x109;" horiz-adv-x="1142" 
d="M957 1253h-223l-149 189h-7l-148 -189h-224l266 318h219zM822 695c-4 28.667 -11.835 54.833 -23.502 78.5s-27 44.167 -46 61.5s-41.333 30.833 -67 40.5s-54.5 14.5 -86.5 14.5c-37.333 0 -71.166 -7.83301 -101.499 -23.5s-56.166 -38 -77.499 -67
s-37.666 -64.5 -48.999 -106.5s-17 -89.333 -17 -142c0 -54 5.66699 -102 17 -144s27.666 -77.5 48.999 -106.5s47.166 -51 77.499 -66s64.5 -22.5 102.5 -22.5c62 0 112.333 16.167 151 48.5s62.667 78.833 72 139.5h272c-4 -64 -18.667 -121.833 -44 -173.5
s-59.666 -95.667 -102.999 -132s-94.666 -64.333 -153.999 -84s-125 -29.5 -197 -29.5c-82 0 -156.333 13.167 -223 39.5s-123.334 64 -170.001 113s-82.667 108.667 -108 179s-38 149.833 -38 238.5c0 87.333 12.667 166 38 236s61.333 129.667 108 179s103 87.333 169 114
s140 40 222 40c74 0 141 -10.667 201 -32s111.5 -50.833 154.5 -88.5s76.833 -82.5 101.5 -134.5s38.667 -108.667 42 -170h-272z" />
    <glyph glyph-name="Cdotaccent" unicode="&#x10a;" horiz-adv-x="1459" 
d="M745 1562c-21.333 0 -41 3.83301 -59 11.5s-33.667 18.334 -47 32.001s-23.833 29.5 -31.5 47.5s-11.5 37.333 -11.5 58s3.83301 40 11.5 58s18.167 33.667 31.5 47s29 23.833 47 31.5s37.667 11.5 59 11.5c20.667 0 40.167 -3.83301 58.5 -11.5
s34.166 -18.167 47.499 -31.5s23.833 -29 31.5 -47s11.5 -37.333 11.5 -58s-3.83301 -40 -11.5 -58s-18.167 -33.833 -31.5 -47.5s-29.166 -24.334 -47.499 -32.001s-37.833 -11.5 -58.5 -11.5zM758 -25c-105.333 0 -199.998 17.0068 -283.998 51.0068
s-155.667 83.167 -215 147.5s-104.833 142.666 -136.5 234.999s-47.5 196.833 -47.5 313.5c0 116 16 220.167 48 312.5s77.667 170.666 137 234.999s131 113.5 215 147.5s178.333 51 283 51c86.667 0 167.334 -13.167 242.001 -39.5s140.167 -63.333 196.5 -111
s101.5 -104.834 135.5 -171.501s54 -140.334 60 -221.001h-294c-7.33301 44 -20.833 84.167 -40.5 120.5s-44.334 67.166 -74.001 92.499s-63.667 45 -102 59s-79.5 21 -123.5 21c-57.333 0 -109 -11.5 -155 -34.5s-85.333 -56 -118 -99s-57.834 -95 -75.501 -156
s-26.5 -129.5 -26.5 -205.5c0 -77.333 8.83301 -146.666 26.5 -207.999s42.667 -113.5 75 -156.5s71.666 -76 117.999 -99s98.5 -34.5 156.5 -34.5c44.667 0 86 6.33301 124 19s71.667 31 101 55s53.833 53 73.5 87s33.5 72.333 41.5 115h294
c-8.66699 -80.667 -30 -153.334 -64 -218.001s-78.5 -119.834 -133.5 -165.501s-119.5 -80.834 -193.5 -105.501s-155.333 -37 -244 -37z" />
    <glyph glyph-name="cdotaccent" unicode="&#x10b;" horiz-adv-x="1142" 
d="M822 695c-4 28.667 -11.835 54.833 -23.502 78.5s-27 44.167 -46 61.5s-41.333 30.833 -67 40.5s-54.5 14.5 -86.5 14.5c-37.333 0 -71.166 -7.83301 -101.499 -23.5s-56.166 -38 -77.499 -67s-37.666 -64.5 -48.999 -106.5s-17 -89.333 -17 -142
c0 -54 5.66699 -102 17 -144s27.666 -77.5 48.999 -106.5s47.166 -51 77.499 -66s64.5 -22.5 102.5 -22.5c62 0 112.333 16.167 151 48.5s62.667 78.833 72 139.5h272c-4 -64 -18.667 -121.833 -44 -173.5s-59.666 -95.667 -102.999 -132s-94.666 -64.333 -153.999 -84
s-125 -29.5 -197 -29.5c-82 0 -156.333 13.167 -223 39.5s-123.334 64 -170.001 113s-82.667 108.667 -108 179s-38 149.833 -38 238.5c0 87.333 12.667 166 38 236s61.333 129.667 108 179s103 87.333 169 114s140 40 222 40c74 0 141 -10.667 201 -32
s111.5 -50.833 154.5 -88.5s76.833 -82.5 101.5 -134.5s38.667 -108.667 42 -170h-272zM580.998 1263c-21.333 0 -41.166 3.83301 -59.499 11.5s-34.166 18.334 -47.499 32.001s-24 29.5 -32 47.5s-12 37 -12 57c0 20.667 4 40 12 58s18.667 33.667 32 47
s29.166 24 47.499 32s38.166 12 59.499 12c20.667 0 40.167 -4 58.5 -12s34.333 -18.667 48 -32s24.334 -29 32.001 -47s11.5 -37.333 11.5 -58c0 -20 -3.83301 -39 -11.5 -57s-18.334 -33.833 -32.001 -47.5s-29.667 -24.334 -48 -32.001s-37.833 -11.5 -58.5 -11.5z" />
    <glyph glyph-name="Ccaron" unicode="&#x10c;" horiz-adv-x="1459" 
d="M758 -25c-105.333 0 -199.998 17.0068 -283.998 51.0068s-155.667 83.167 -215 147.5s-104.833 142.666 -136.5 234.999s-47.5 196.833 -47.5 313.5c0 116 16 220.167 48 312.5s77.667 170.666 137 234.999s131 113.5 215 147.5s178.333 51 283 51
c86.667 0 167.334 -13.167 242.001 -39.5s140.167 -63.333 196.5 -111s101.5 -104.834 135.5 -171.501s54 -140.334 60 -221.001h-294c-7.33301 44 -20.833 84.167 -40.5 120.5s-44.334 67.166 -74.001 92.499s-63.667 45 -102 59s-79.5 21 -123.5 21
c-57.333 0 -109 -11.5 -155 -34.5s-85.333 -56 -118 -99s-57.834 -95 -75.501 -156s-26.5 -129.5 -26.5 -205.5c0 -77.333 8.83301 -146.666 26.5 -207.999s42.667 -113.5 75 -156.5s71.666 -76 117.999 -99s98.5 -34.5 156.5 -34.5c44.667 0 86 6.33301 124 19
s71.667 31 101 55s53.833 53 73.5 87s33.5 72.333 41.5 115h294c-8.66699 -80.667 -30 -153.334 -64 -218.001s-78.5 -119.834 -133.5 -165.501s-119.5 -80.834 -193.5 -105.501s-155.333 -37 -244 -37zM357.002 1862.01h222l163 -197h6l163 197h222l-274 -318h-228z" />
    <glyph glyph-name="ccaron" unicode="&#x10d;" horiz-adv-x="1142" 
d="M472 1253l-266 318h224l148 -188h7l149 188h223l-266 -318h-219zM822 695c-4 28.667 -11.835 54.833 -23.502 78.5s-27 44.167 -46 61.5s-41.333 30.833 -67 40.5s-54.5 14.5 -86.5 14.5c-37.333 0 -71.166 -7.83301 -101.499 -23.5s-56.166 -38 -77.499 -67
s-37.666 -64.5 -48.999 -106.5s-17 -89.333 -17 -142c0 -54 5.66699 -102 17 -144s27.666 -77.5 48.999 -106.5s47.166 -51 77.499 -66s64.5 -22.5 102.5 -22.5c62 0 112.333 16.167 151 48.5s62.667 78.833 72 139.5h272c-4 -64 -18.667 -121.833 -44 -173.5
s-59.666 -95.667 -102.999 -132s-94.666 -64.333 -153.999 -84s-125 -29.5 -197 -29.5c-82 0 -156.333 13.167 -223 39.5s-123.334 64 -170.001 113s-82.667 108.667 -108 179s-38 149.833 -38 238.5c0 87.333 12.667 166 38 236s61.333 129.667 108 179s103 87.333 169 114
s140 40 222 40c74 0 141 -10.667 201 -32s111.5 -50.833 154.5 -88.5s76.833 -82.5 101.5 -134.5s38.667 -108.667 42 -170h-272z" />
    <glyph glyph-name="Dcaron" unicode="&#x10e;" horiz-adv-x="1438" 
d="M256 1861h222l163 -197h6l163 197h222l-274 -318h-228zM676 1443c108 0 204.667 -15.832 290 -47.499s157.5 -78 216.5 -139s104 -135.833 135 -224.5s46.5 -190.334 46.5 -305.001s-15.5 -217 -46.5 -307s-76 -166.167 -135 -228.5s-131.167 -109.833 -216.5 -142.5
s-182 -49 -290 -49h-556v1443h556zM422 250.001l218 0.000976562c136 0 239.333 40.167 310 120.5s106 198.833 106 355.5c0 75.333 -9.16699 142.166 -27.5 200.499s-45.166 107.333 -80.499 147s-78.833 69.667 -130.5 90s-110.834 30.5 -177.501 30.5h-218v-944z" />
    <glyph glyph-name="dcaron" unicode="&#x10f;" horiz-adv-x="1449" 
d="M1514 1507l-40 -503h-177v503h217zM509 -13c-68.667 0 -130.67 13.165 -186.003 39.498s-102.666 64 -141.999 113s-69.666 108.333 -90.999 178s-32 147.834 -32 234.501c0 86 10.667 163.667 32 233s51.666 128.333 90.999 177s86.833 86.167 142.5 112.5
s117.834 39.5 186.501 39.5c80 0 149.167 -18.167 207.5 -54.5s101.5 -85.166 129.5 -146.499h6v599h292v-1512h-288v188h-5c-13.333 -30 -31.166 -57.5 -53.499 -82.5s-48.166 -46.167 -77.499 -63.5s-61.833 -30.833 -97.5 -40.5s-73.834 -14.5 -114.501 -14.5z
M605.997 877.998c-38 0 -72.333 -7.66992 -103 -23.0029s-56.834 -37.166 -78.501 -65.499s-38.334 -62.666 -50.001 -102.999s-17.5 -85.5 -17.5 -135.5c0 -50.667 5.83301 -96.167 17.5 -136.5s28.334 -74.666 50.001 -102.999s47.834 -50.166 78.501 -65.499
s65 -23 103 -23s72.333 7.66699 103 23s56.834 37.333 78.501 66s38.334 63 50.001 103s17.5 85 17.5 135s-5.83301 95.167 -17.5 135.5s-28.334 74.666 -50.001 102.999s-47.834 50.333 -78.501 66s-65 23.5 -103 23.5z" />
    <glyph glyph-name="Dcroat" unicode="&#x110;" horiz-adv-x="1517" 
d="M693 250c136 0 239.333 40.168 310 120.501s106 198.833 106 355.5c0 75.333 -9.16699 142.166 -27.5 200.499s-45.166 107.333 -80.499 147s-78.833 69.667 -130.5 90s-110.834 30.5 -177.501 30.5h-218v-351h265v-221h-265v-372h218zM729 1443
c108 0 204.667 -15.832 290 -47.499s157.5 -78 216.5 -139s104 -135.833 135 -224.5s46.5 -190.334 46.5 -305.001s-15.5 -217 -46.5 -307s-76 -166.167 -135 -228.5s-131.167 -109.833 -216.5 -142.5s-182 -49 -290 -49h-556v622h-88v221h88v600h556z" />
    <glyph glyph-name="dcroat" unicode="&#x111;" horiz-adv-x="1295" 
d="M628 218c38.667 0 73.5029 7.66602 104.503 22.999s57.333 37.333 79 66s38.167 63.5 49.5 104.5s17 87.167 17 138.5s-5.83301 97.5 -17.5 138.5s-28.167 76 -49.5 105s-47.5 51.167 -78.5 66.5s-65.833 23 -104.5 23s-73.334 -7.66699 -104.001 -23
s-56.834 -37.166 -78.501 -65.499s-38.167 -63 -49.5 -104s-17 -87.5 -17 -139.5s5.66699 -98.667 17 -140s27.666 -76.333 48.999 -105s47.333 -50.5 78 -65.5s65.667 -22.5 105 -22.5zM1260 1262h-93.999v-1262h-287v173h-18c-30 -60 -74 -106.833 -132 -140.5
s-125.667 -50.5 -203 -50.5c-69.333 0 -131.5 13.167 -186.5 39.5s-101.667 64 -140 113s-67.833 108.833 -88.5 179.5s-31 150 -31 238s10.5 167 31.5 237s50.833 129.5 89.5 178.5s85.667 86.5 141 112.5s117.666 39 186.999 39c76 0 142.667 -17.167 200 -51.5
s100.333 -81.833 129 -142.5h17v337h-223v150h223v144h291v-144h94v-150z" />
    <glyph glyph-name="Emacron" unicode="&#x112;" horiz-adv-x="1174" 
d="M1076 0h-956v1443h956v-249h-654v-348h617v-232h-617v-364h654v-250zM944 1624h-692v143h692v-143z" />
    <glyph glyph-name="emacron" unicode="&#x113;" horiz-adv-x="1164" 
d="M590 902c-33.333 0 -64.167 -5.83301 -92.5 -17.5s-53 -28 -74 -49s-38 -46 -51 -75s-20.833 -61.167 -23.5 -96.5h475c-1.33301 36 -8 68.667 -20 98s-28.167 54.333 -48.5 75s-44.5 36.667 -72.5 48s-59 17 -93 17zM1097 336
c-8 -53.333 -25.998 -101.834 -53.998 -145.501s-63.667 -81 -107 -112s-93.833 -55 -151.5 -72s-119.834 -25.5 -186.501 -25.5c-84 0 -159.333 13 -226 39s-123.167 63.333 -169.5 112s-82 108 -107 178s-37.5 148.667 -37.5 236s12.333 166.333 37 237s60 131 106 181
s101.667 88.5 167 115.5s138.333 40.5 219 40.5c79.333 0 151 -12.833 215 -38.5s118.5 -62.167 163.5 -109.5s79.667 -104.666 104 -171.999s36.5 -143 36.5 -227v-90h-760v-18c0 -40 6.16699 -76.333 18.5 -109s29.666 -60.667 51.999 -84s49.333 -41.333 81 -54
s66.834 -19 105.501 -19c55.333 0 103.166 12.167 143.499 36.5s67.5 57.833 81.5 100.5h269zM921.001 1298h-669v143h669v-143z" />
    <glyph glyph-name="Ebreve" unicode="&#x114;" horiz-adv-x="1174" 
d="M1076 0h-956v1443h956v-249h-654v-348h617v-232h-617v-364h654v-250zM423 1860c0.666992 -24.667 5.16699 -47.5 13.5 -68.5s20.166 -39.167 35.499 -54.5s33.666 -27.333 54.999 -36s45 -13 71 -13s49.667 4.33301 71 13s39.666 20.667 54.999 36
s27.166 33.5 35.499 54.5s12.833 43.833 13.5 68.5h178c-0.666992 -44.667 -9.16699 -86.334 -25.5 -125.001s-39.666 -72.167 -69.999 -100.5s-67.166 -50.666 -110.499 -66.999s-92.333 -24.5 -147 -24.5s-103.667 8.16699 -147 24.5s-80.166 38.666 -110.499 66.999
s-53.666 61.833 -69.999 100.5s-24.833 80.334 -25.5 125.001h178z" />
    <glyph glyph-name="ebreve" unicode="&#x115;" horiz-adv-x="1164" 
d="M590 902c-33.333 0 -64.167 -5.83301 -92.5 -17.5s-53 -28 -74 -49s-38 -46 -51 -75s-20.833 -61.167 -23.5 -96.5h475c-1.33301 36 -8 68.667 -20 98s-28.167 54.333 -48.5 75s-44.5 36.667 -72.5 48s-59 17 -93 17zM1097 336
c-8 -53.333 -25.998 -101.834 -53.998 -145.501s-63.667 -81 -107 -112s-93.833 -55 -151.5 -72s-119.834 -25.5 -186.501 -25.5c-84 0 -159.333 13 -226 39s-123.167 63.333 -169.5 112s-82 108 -107 178s-37.5 148.667 -37.5 236s12.333 166.333 37 237s60 131 106 181
s101.667 88.5 167 115.5s138.333 40.5 219 40.5c79.333 0 151 -12.833 215 -38.5s118.5 -62.167 163.5 -109.5s79.667 -104.666 104 -171.999s36.5 -143 36.5 -227v-90h-760v-18c0 -40 6.16699 -76.333 18.5 -109s29.666 -60.667 51.999 -84s49.333 -41.333 81 -54
s66.834 -19 105.501 -19c55.333 0 103.166 12.167 143.499 36.5s67.5 57.833 81.5 100.5h269zM406.001 1570c0.666992 -25.333 5.3291 -48.666 13.9961 -69.999s20.834 -39.666 36.501 -54.999s34.334 -27.5 56.001 -36.5s45.834 -13.5 72.501 -13.5s50.834 4.5 72.501 13.5
s40.334 21.167 56.001 36.5s27.834 33.666 36.501 54.999s13.334 44.666 14.001 69.999h180c-0.666992 -45.333 -9.33398 -87.666 -26.001 -126.999s-40.5 -73.5 -71.5 -102.5s-68.5 -51.667 -112.5 -68s-93.667 -24.5 -149 -24.5s-105 8.16699 -149 24.5
s-81.333 39 -112 68s-54.334 63.167 -71.001 102.5s-25.334 81.666 -26.001 126.999h179z" />
    <glyph glyph-name="Edotaccent" unicode="&#x116;" horiz-adv-x="1174" 
d="M598 1561c-21.333 0 -41 3.83301 -59 11.5s-33.667 18.334 -47 32.001s-23.833 29.5 -31.5 47.5s-11.5 37.333 -11.5 58s3.83301 40 11.5 58s18.167 33.667 31.5 47s29 23.833 47 31.5s37.667 11.5 59 11.5c20.667 0 40.167 -3.83301 58.5 -11.5
s34.166 -18.167 47.499 -31.5s23.833 -29 31.5 -47s11.5 -37.333 11.5 -58s-3.83301 -40 -11.5 -58s-18.167 -33.833 -31.5 -47.5s-29.166 -24.334 -47.499 -32.001s-37.833 -11.5 -58.5 -11.5zM1076 0h-956v1443h956v-249h-654v-348h617v-232h-617v-364h654v-250z" />
    <glyph glyph-name="edotaccent" unicode="&#x117;" horiz-adv-x="1164" 
d="M585 1263c-21.333 0 -41.166 3.83301 -59.499 11.5s-34.166 18.334 -47.499 32.001s-24 29.5 -32 47.5s-12 37 -12 57c0 20.667 4 40 12 58s18.667 33.667 32 47s29.166 24 47.499 32s38.166 12 59.499 12c20.667 0 40.167 -4 58.5 -12s34.333 -18.667 48 -32
s24.334 -29 32.001 -47s11.5 -37.333 11.5 -58c0 -20 -3.83301 -39 -11.5 -57s-18.334 -33.833 -32.001 -47.5s-29.667 -24.334 -48 -32.001s-37.833 -11.5 -58.5 -11.5zM590 902c-33.333 0 -64.167 -5.83301 -92.5 -17.5s-53 -28 -74 -49s-38 -46 -51 -75
s-20.833 -61.167 -23.5 -96.5h475c-1.33301 36 -8 68.667 -20 98s-28.167 54.333 -48.5 75s-44.5 36.667 -72.5 48s-59 17 -93 17zM1097 336c-8 -53.333 -25.998 -101.834 -53.998 -145.501s-63.667 -81 -107 -112s-93.833 -55 -151.5 -72s-119.834 -25.5 -186.501 -25.5
c-84 0 -159.333 13 -226 39s-123.167 63.333 -169.5 112s-82 108 -107 178s-37.5 148.667 -37.5 236s12.333 166.333 37 237s60 131 106 181s101.667 88.5 167 115.5s138.333 40.5 219 40.5c79.333 0 151 -12.833 215 -38.5s118.5 -62.167 163.5 -109.5
s79.667 -104.666 104 -171.999s36.5 -143 36.5 -227v-90h-760v-18c0 -40 6.16699 -76.333 18.5 -109s29.666 -60.667 51.999 -84s49.333 -41.333 81 -54s66.834 -19 105.501 -19c55.333 0 103.166 12.167 143.499 36.5s67.5 57.833 81.5 100.5h269z" />
    <glyph glyph-name="Eogonek" unicode="&#x118;" horiz-adv-x="1174" 
d="M120 0v1443h956v-249h-654v-348h617v-232h-617v-364h654v-221c-126 -57.333 -189 -128.333 -189 -213c0 -30.667 10.5 -55.334 31.5 -74.001s49.5 -28 85.5 -28c14.667 0 27.667 0.5 39 1.5s22.333 3.16699 33 6.5v-154c-14.667 -6.66699 -34 -11.834 -58 -15.501
s-50.333 -5.5 -79 -5.5c-38.667 0 -73.667 5.16699 -105 15.5s-58 24.833 -80 43.5s-39 41.334 -51 68.001s-18 56.334 -18 89.001c0 50 11.667 94 35 132s60 73 110 105h-710z" />
    <glyph glyph-name="eogonek" unicode="&#x119;" horiz-adv-x="1164" 
d="M759 -456c-36.667 0 -70 5.16602 -100 15.499s-55.833 24.833 -77.5 43.5s-38.334 41.167 -50.001 67.5s-17.5 55.166 -17.5 86.499c0 45.333 9.83301 85.833 29.5 121.5s50.5 69.834 92.5 102.501v2c-4.66699 -1.33301 -10.334 -2 -17.001 -2h-21
c-84 0 -159.333 13 -226 39s-123.167 63.333 -169.5 112s-82 108 -107 178s-37.5 148.667 -37.5 236s12.333 166.333 37 237s60 131 106 181s101.667 88.5 167 115.5s138.333 40.5 219 40.5c79.333 0 151 -12.833 215 -38.5s118.5 -62.167 163.5 -109.5
s79.667 -104.666 104 -171.999s36.5 -143 36.5 -227v-90h-760v-18c0 -40 6.16699 -76.333 18.5 -109s29.666 -60.667 51.999 -84s49.333 -41.333 81 -54s66.834 -19 105.501 -19c56 0 104 12.333 144 37s67 58 81 100h269c-4 -31.333 -12.167 -60.5 -24.5 -87.5
s-27.666 -52.5 -45.999 -76.5s-39.5 -47.167 -63.5 -69.5s-49.667 -44.166 -77 -65.499c-26 -20 -49.667 -39.167 -71 -57.5s-39.666 -36.333 -54.999 -54s-27.333 -35.334 -36 -53.001s-13 -36.5 -13 -56.5c0 -30 10.5 -54.333 31.5 -73s48.5 -28 82.5 -28
c27.333 0 51.666 3 72.999 9v-158c-31.333 -14.667 -77.666 -22 -138.999 -22zM590 901.999c-33.333 0 -64.167 -5.83301 -92.5 -17.5s-53 -28 -74 -49s-38 -46 -51 -75s-20.833 -61.167 -23.5 -96.5h475c-1.33301 36 -8 68.667 -20 98s-28.167 54.333 -48.5 75
s-44.5 36.667 -72.5 48s-59 17 -93 17z" />
    <glyph glyph-name="Ecaron" unicode="&#x11a;" horiz-adv-x="1174" 
d="M210 1861h222l163 -197h6l163 197h222l-274 -318h-228zM1076 0h-956v1443h956v-249h-654v-348h617v-232h-617v-364h654v-250z" />
    <glyph glyph-name="ecaron" unicode="&#x11b;" horiz-adv-x="1164" 
d="M476 1253l-266 318h224l148 -188h7l149 188h223l-266 -318h-219zM590 902c-33.333 0 -64.167 -5.83301 -92.5 -17.5s-53 -28 -74 -49s-38 -46 -51 -75s-20.833 -61.167 -23.5 -96.5h475c-1.33301 36 -8 68.667 -20 98s-28.167 54.333 -48.5 75s-44.5 36.667 -72.5 48
s-59 17 -93 17zM1097 336c-8 -53.333 -25.998 -101.834 -53.998 -145.501s-63.667 -81 -107 -112s-93.833 -55 -151.5 -72s-119.834 -25.5 -186.501 -25.5c-84 0 -159.333 13 -226 39s-123.167 63.333 -169.5 112s-82 108 -107 178s-37.5 148.667 -37.5 236
s12.333 166.333 37 237s60 131 106 181s101.667 88.5 167 115.5s138.333 40.5 219 40.5c79.333 0 151 -12.833 215 -38.5s118.5 -62.167 163.5 -109.5s79.667 -104.666 104 -171.999s36.5 -143 36.5 -227v-90h-760v-18c0 -40 6.16699 -76.333 18.5 -109
s29.666 -60.667 51.999 -84s49.333 -41.333 81 -54s66.834 -19 105.501 -19c55.333 0 103.166 12.167 143.499 36.5s67.5 57.833 81.5 100.5h269z" />
    <glyph glyph-name="Gcircumflex" unicode="&#x11c;" horiz-adv-x="1489" 
d="M865 1861l274 -318h-222l-163 197h-6l-163 -197h-222l274 318h228zM1410 606c0 -98 -14.5029 -186 -43.5029 -264s-71 -144.167 -126 -198.5s-122 -96 -201 -125s-168.833 -43.5 -269.5 -43.5c-108 0 -204.833 17.167 -290.5 51.5s-158.5 83.666 -218.5 147.999
s-106 143 -138 236s-48 198.167 -48 315.5c0 115.333 16 218.833 48 310.5s77.667 169.5 137 233.5s131.5 113 216.5 147s180.5 51 286.5 51c84 0 162.333 -11.833 235 -35.5s136.667 -57.167 192 -100.5s101 -95.166 137 -155.499s59.333 -126.833 70 -199.5h-303
c-11.333 38 -27.166 71.833 -47.499 101.5s-44.666 54.834 -72.999 75.501s-60.166 36.5 -95.499 47.5s-73.333 16.5 -114 16.5c-59.333 0 -112.666 -11 -159.999 -33s-87.333 -54 -120 -96s-57.667 -93.167 -75 -153.5s-26 -128.833 -26 -205.5
c0 -78 9.16699 -148.167 27.5 -210.5s44.5 -115.333 78.5 -159s75.167 -77 123.5 -100s102.5 -34.5 162.5 -34.5c49.333 0 94.5 7.16699 135.5 21.5s76.333 34.666 106 60.999s53.167 58 70.5 95s26.666 77.833 27.999 122.5l1 23h-314v220h608v-163z" />
    <glyph glyph-name="gcircumflex" unicode="&#x11d;" horiz-adv-x="1244" 
d="M984 1253h-223l-149 189h-7l-148 -189h-224l266 318h219zM604 233c38 0 72.332 7.33594 102.999 22.0029s57 35.834 79 63.501s38.833 61.167 50.5 100.5s17.5 83.666 17.5 132.999s-5.83301 94.166 -17.5 134.499s-28.5 74.666 -50.5 102.999s-48.333 50.166 -79 65.499
s-65 23 -103 23s-72.167 -7.66699 -102.5 -23s-56.166 -37 -77.499 -65s-37.833 -62 -49.5 -102s-17.5 -85 -17.5 -135s5.66699 -94.833 17 -134.5s27.833 -73.167 49.5 -100.5s47.667 -48.333 78 -63s64.5 -22 102.5 -22zM600.999 -402.997
c-72 0 -138.334 7.66895 -199.001 23.002s-113.167 37.166 -157.5 65.499s-79.5 62.5 -105.5 102.5s-41 84.667 -45 134h288c4.66699 -18 13.667 -34.333 27 -49s30 -27.167 50 -37.5s42.667 -18.333 68 -24s52.333 -8.5 81 -8.5c36.667 0 70.167 4.66699 100.5 14
s56.166 22.5 77.499 39.5s37.833 37.833 49.5 62.5s17.5 52.667 17.5 84v197h-6c-13.333 -29.333 -31.166 -56 -53.499 -80s-48.166 -44.333 -77.499 -61s-61.666 -29.5 -96.999 -38.5s-73 -13.5 -113 -13.5c-67.333 0 -128.5 12.667 -183.5 38s-102 61.5 -141 108.5
s-69.333 104.333 -91 172s-32.5 143.834 -32.5 228.501c0 86 10.5 163.667 31.5 233s51.167 128.166 90.5 176.499s86.833 85.5 142.5 111.5s118.5 39 188.5 39c39.333 0 76.5 -4.83301 111.5 -14.5s67.167 -23.167 96.5 -40.5s55.166 -38.333 77.499 -63
s40.833 -52.334 55.5 -83.001h5v188h288v-1076c0 -65.333 -12.833 -124.5 -38.5 -177.5s-62.167 -98 -109.5 -135s-104.5 -65.5 -171.5 -85.5s-141.833 -30 -224.5 -30z" />
    <glyph glyph-name="Gbreve" unicode="&#x11e;" horiz-adv-x="1489" 
d="M1410 606c0 -98 -14.5029 -186 -43.5029 -264s-71 -144.167 -126 -198.5s-122 -96 -201 -125s-168.833 -43.5 -269.5 -43.5c-108 0 -204.833 17.167 -290.5 51.5s-158.5 83.666 -218.5 147.999s-106 143 -138 236s-48 198.167 -48 315.5c0 115.333 16 218.833 48 310.5
s77.667 169.5 137 233.5s131.5 113 216.5 147s180.5 51 286.5 51c84 0 162.333 -11.833 235 -35.5s136.667 -57.167 192 -100.5s101 -95.166 137 -155.499s59.333 -126.833 70 -199.5h-303c-11.333 38 -27.166 71.833 -47.499 101.5s-44.666 54.834 -72.999 75.501
s-60.166 36.5 -95.499 47.5s-73.333 16.5 -114 16.5c-59.333 0 -112.666 -11 -159.999 -33s-87.333 -54 -120 -96s-57.667 -93.167 -75 -153.5s-26 -128.833 -26 -205.5c0 -78 9.16699 -148.167 27.5 -210.5s44.5 -115.333 78.5 -159s75.167 -77 123.5 -100
s102.5 -34.5 162.5 -34.5c49.333 0 94.5 7.16699 135.5 21.5s76.333 34.666 106 60.999s53.167 58 70.5 95s26.666 77.833 27.999 122.5l1 23h-314v220h608v-163zM575.997 1860c0.666992 -24.667 5.16699 -47.5 13.5 -68.5s20.166 -39.167 35.499 -54.5
s33.666 -27.333 54.999 -36s45 -13 71 -13s49.667 4.33301 71 13s39.666 20.667 54.999 36s27.166 33.5 35.499 54.5s12.833 43.833 13.5 68.5h178c-0.666992 -44.667 -9.16699 -86.334 -25.5 -125.001s-39.666 -72.167 -69.999 -100.5s-67.166 -50.666 -110.499 -66.999
s-92.333 -24.5 -147 -24.5s-103.667 8.16699 -147 24.5s-80.166 38.666 -110.499 66.999s-53.666 61.833 -69.999 100.5s-24.833 80.334 -25.5 125.001h178z" />
    <glyph glyph-name="gbreve" unicode="&#x11f;" horiz-adv-x="1244" 
d="M429 1570c0.666992 -25.333 5.3291 -48.666 13.9961 -69.999s20.834 -39.666 36.501 -54.999s34.334 -27.5 56.001 -36.5s45.834 -13.5 72.501 -13.5s50.834 4.5 72.501 13.5s40.334 21.167 56.001 36.5s27.834 33.666 36.501 54.999s13.334 44.666 14.001 69.999h180
c-0.666992 -45.333 -9.33398 -87.666 -26.001 -126.999s-40.5 -73.5 -71.5 -102.5s-68.5 -51.667 -112.5 -68s-93.667 -24.5 -149 -24.5s-105 8.16699 -149 24.5s-81.333 39 -112 68s-54.334 63.167 -71.001 102.5s-25.334 81.666 -26.001 126.999h179zM603.995 233
c38 0 72.332 7.33594 102.999 22.0029s57 35.834 79 63.501s38.833 61.167 50.5 100.5s17.5 83.666 17.5 132.999s-5.83301 94.166 -17.5 134.499s-28.5 74.666 -50.5 102.999s-48.333 50.166 -79 65.499s-65 23 -103 23s-72.167 -7.66699 -102.5 -23
s-56.166 -37 -77.499 -65s-37.833 -62 -49.5 -102s-17.5 -85 -17.5 -135s5.66699 -94.833 17 -134.5s27.833 -73.167 49.5 -100.5s47.667 -48.333 78 -63s64.5 -22 102.5 -22zM600.994 -402.997c-72 0 -138.334 7.66895 -199.001 23.002s-113.167 37.166 -157.5 65.499
s-79.5 62.5 -105.5 102.5s-41 84.667 -45 134h288c4.66699 -18 13.667 -34.333 27 -49s30 -27.167 50 -37.5s42.667 -18.333 68 -24s52.333 -8.5 81 -8.5c36.667 0 70.167 4.66699 100.5 14s56.166 22.5 77.499 39.5s37.833 37.833 49.5 62.5s17.5 52.667 17.5 84v197h-6
c-13.333 -29.333 -31.166 -56 -53.499 -80s-48.166 -44.333 -77.499 -61s-61.666 -29.5 -96.999 -38.5s-73 -13.5 -113 -13.5c-67.333 0 -128.5 12.667 -183.5 38s-102 61.5 -141 108.5s-69.333 104.333 -91 172s-32.5 143.834 -32.5 228.501c0 86 10.5 163.667 31.5 233
s51.167 128.166 90.5 176.499s86.833 85.5 142.5 111.5s118.5 39 188.5 39c39.333 0 76.5 -4.83301 111.5 -14.5s67.167 -23.167 96.5 -40.5s55.166 -38.333 77.499 -63s40.833 -52.334 55.5 -83.001h5v188h288v-1076c0 -65.333 -12.833 -124.5 -38.5 -177.5
s-62.167 -98 -109.5 -135s-104.5 -65.5 -171.5 -85.5s-141.833 -30 -224.5 -30z" />
    <glyph glyph-name="Gdotaccent" unicode="&#x120;" horiz-adv-x="1489" 
d="M751 1561c-21.333 0 -41 3.83301 -59 11.5s-33.667 18.334 -47 32.001s-23.833 29.5 -31.5 47.5s-11.5 37.333 -11.5 58s3.83301 40 11.5 58s18.167 33.667 31.5 47s29 23.833 47 31.5s37.667 11.5 59 11.5c20.667 0 40.167 -3.83301 58.5 -11.5
s34.166 -18.167 47.499 -31.5s23.833 -29 31.5 -47s11.5 -37.333 11.5 -58s-3.83301 -40 -11.5 -58s-18.167 -33.833 -31.5 -47.5s-29.166 -24.334 -47.499 -32.001s-37.833 -11.5 -58.5 -11.5zM1410 606c0 -98 -14.5029 -186 -43.5029 -264s-71 -144.167 -126 -198.5
s-122 -96 -201 -125s-168.833 -43.5 -269.5 -43.5c-108 0 -204.833 17.167 -290.5 51.5s-158.5 83.666 -218.5 147.999s-106 143 -138 236s-48 198.167 -48 315.5c0 115.333 16 218.833 48 310.5s77.667 169.5 137 233.5s131.5 113 216.5 147s180.5 51 286.5 51
c84 0 162.333 -11.833 235 -35.5s136.667 -57.167 192 -100.5s101 -95.166 137 -155.499s59.333 -126.833 70 -199.5h-303c-11.333 38 -27.166 71.833 -47.499 101.5s-44.666 54.834 -72.999 75.501s-60.166 36.5 -95.499 47.5s-73.333 16.5 -114 16.5
c-59.333 0 -112.666 -11 -159.999 -33s-87.333 -54 -120 -96s-57.667 -93.167 -75 -153.5s-26 -128.833 -26 -205.5c0 -78 9.16699 -148.167 27.5 -210.5s44.5 -115.333 78.5 -159s75.167 -77 123.5 -100s102.5 -34.5 162.5 -34.5c49.333 0 94.5 7.16699 135.5 21.5
s76.333 34.666 106 60.999s53.167 58 70.5 95s26.666 77.833 27.999 122.5l1 23h-314v220h608v-163z" />
    <glyph glyph-name="gdotaccent" unicode="&#x121;" horiz-adv-x="1244" 
d="M608 1263c-21.333 0 -41.166 3.83301 -59.499 11.5s-34.166 18.334 -47.499 32.001s-24 29.5 -32 47.5s-12 37 -12 57c0 20.667 4 40 12 58s18.667 33.667 32 47s29.166 24 47.499 32s38.166 12 59.499 12c20.667 0 40.167 -4 58.5 -12s34.333 -18.667 48 -32
s24.334 -29 32.001 -47s11.5 -37.333 11.5 -58c0 -20 -3.83301 -39 -11.5 -57s-18.334 -33.833 -32.001 -47.5s-29.667 -24.334 -48 -32.001s-37.833 -11.5 -58.5 -11.5zM604 233c38 0 72.332 7.33594 102.999 22.0029s57 35.834 79 63.501s38.833 61.167 50.5 100.5
s17.5 83.666 17.5 132.999s-5.83301 94.166 -17.5 134.499s-28.5 74.666 -50.5 102.999s-48.333 50.166 -79 65.499s-65 23 -103 23s-72.167 -7.66699 -102.5 -23s-56.166 -37 -77.499 -65s-37.833 -62 -49.5 -102s-17.5 -85 -17.5 -135s5.66699 -94.833 17 -134.5
s27.833 -73.167 49.5 -100.5s47.667 -48.333 78 -63s64.5 -22 102.5 -22zM600.999 -402.997c-72 0 -138.334 7.66895 -199.001 23.002s-113.167 37.166 -157.5 65.499s-79.5 62.5 -105.5 102.5s-41 84.667 -45 134h288c4.66699 -18 13.667 -34.333 27 -49
s30 -27.167 50 -37.5s42.667 -18.333 68 -24s52.333 -8.5 81 -8.5c36.667 0 70.167 4.66699 100.5 14s56.166 22.5 77.499 39.5s37.833 37.833 49.5 62.5s17.5 52.667 17.5 84v197h-6c-13.333 -29.333 -31.166 -56 -53.499 -80s-48.166 -44.333 -77.499 -61
s-61.666 -29.5 -96.999 -38.5s-73 -13.5 -113 -13.5c-67.333 0 -128.5 12.667 -183.5 38s-102 61.5 -141 108.5s-69.333 104.333 -91 172s-32.5 143.834 -32.5 228.501c0 86 10.5 163.667 31.5 233s51.167 128.166 90.5 176.499s86.833 85.5 142.5 111.5s118.5 39 188.5 39
c39.333 0 76.5 -4.83301 111.5 -14.5s67.167 -23.167 96.5 -40.5s55.166 -38.333 77.499 -63s40.833 -52.334 55.5 -83.001h5v188h288v-1076c0 -65.333 -12.833 -124.5 -38.5 -177.5s-62.167 -98 -109.5 -135s-104.5 -65.5 -171.5 -85.5s-141.833 -30 -224.5 -30z" />
    <glyph glyph-name="Gcommaaccent" unicode="&#x122;" horiz-adv-x="1489" 
d="M512 -500l121 345h256l-160 -345h-217zM1410 606c0 -98 -14.5029 -186 -43.5029 -264s-71 -144.167 -126 -198.5s-122 -96 -201 -125s-168.833 -43.5 -269.5 -43.5c-108 0 -204.833 17.167 -290.5 51.5s-158.5 83.666 -218.5 147.999s-106 143 -138 236
s-48 198.167 -48 315.5c0 115.333 16 218.833 48 310.5s77.667 169.5 137 233.5s131.5 113 216.5 147s180.5 51 286.5 51c84 0 162.333 -11.833 235 -35.5s136.667 -57.167 192 -100.5s101 -95.166 137 -155.499s59.333 -126.833 70 -199.5h-303
c-11.333 38 -27.166 71.833 -47.499 101.5s-44.666 54.834 -72.999 75.501s-60.166 36.5 -95.499 47.5s-73.333 16.5 -114 16.5c-59.333 0 -112.666 -11 -159.999 -33s-87.333 -54 -120 -96s-57.667 -93.167 -75 -153.5s-26 -128.833 -26 -205.5
c0 -78 9.16699 -148.167 27.5 -210.5s44.5 -115.333 78.5 -159s75.167 -77 123.5 -100s102.5 -34.5 162.5 -34.5c49.333 0 94.5 7.16699 135.5 21.5s76.333 34.666 106 60.999s53.167 58 70.5 95s26.666 77.833 27.999 122.5l1 23h-314v220h608v-163z" />
    <glyph glyph-name="gcommaaccent" unicode="&#x123;" horiz-adv-x="1244" 
d="M371 -882l121 345h256l-160 -345h-217zM604 233c38 0 72.332 7.33594 102.999 22.0029s57 35.834 79 63.501s38.833 61.167 50.5 100.5s17.5 83.666 17.5 132.999s-5.83301 94.166 -17.5 134.499s-28.5 74.666 -50.5 102.999s-48.333 50.166 -79 65.499s-65 23 -103 23
s-72.167 -7.66699 -102.5 -23s-56.166 -37 -77.499 -65s-37.833 -62 -49.5 -102s-17.5 -85 -17.5 -135s5.66699 -94.833 17 -134.5s27.833 -73.167 49.5 -100.5s47.667 -48.333 78 -63s64.5 -22 102.5 -22zM600.999 -402.997c-72 0 -138.334 7.66895 -199.001 23.002
s-113.167 37.166 -157.5 65.499s-79.5 62.5 -105.5 102.5s-41 84.667 -45 134h288c4.66699 -18 13.667 -34.333 27 -49s30 -27.167 50 -37.5s42.667 -18.333 68 -24s52.333 -8.5 81 -8.5c36.667 0 70.167 4.66699 100.5 14s56.166 22.5 77.499 39.5s37.833 37.833 49.5 62.5
s17.5 52.667 17.5 84v197h-6c-13.333 -29.333 -31.166 -56 -53.499 -80s-48.166 -44.333 -77.499 -61s-61.666 -29.5 -96.999 -38.5s-73 -13.5 -113 -13.5c-67.333 0 -128.5 12.667 -183.5 38s-102 61.5 -141 108.5s-69.333 104.333 -91 172s-32.5 143.834 -32.5 228.501
c0 86 10.5 163.667 31.5 233s51.167 128.166 90.5 176.499s86.833 85.5 142.5 111.5s118.5 39 188.5 39c39.333 0 76.5 -4.83301 111.5 -14.5s67.167 -23.167 96.5 -40.5s55.166 -38.333 77.499 -63s40.833 -52.334 55.5 -83.001h5v188h288v-1076
c0 -65.333 -12.833 -124.5 -38.5 -177.5s-62.167 -98 -109.5 -135s-104.5 -65.5 -171.5 -85.5s-141.833 -30 -224.5 -30z" />
    <glyph glyph-name="Hcircumflex" unicode="&#x124;" horiz-adv-x="1494" 
d="M1072 0v608h-650v-608h-302v1443h302v-586h650v586h302v-1443h-302zM861 1861l274 -318h-222l-163 197h-6l-163 -197h-222l274 318h228z" />
    <glyph glyph-name="hcircumflex" unicode="&#x125;" horiz-adv-x="1247" 
d="M107 1512h286.998v-608h6c31.333 70 77.333 123 138 159s133.334 54 218.001 54c60.667 0 115.5 -9.5 164.5 -28.5s90.833 -46.333 125.5 -82s61.167 -79 79.5 -130s27.5 -108.5 27.5 -172.5v-704h-292v643c0 72.667 -19.667 129.334 -59 170.001s-94 61 -164 61
c-35.333 0 -67.666 -6 -96.999 -18s-54.5 -29 -75.5 -51s-37.333 -48.333 -49 -79s-17.5 -64.334 -17.5 -101.001v-625h-292v1512zM365.998 1930l274 -318h-222l-163 197h-6l-163 -197h-222l274 318h228z" />
    <glyph glyph-name="Hbar" unicode="&#x126;" horiz-adv-x="1536" 
d="M1093 1052h-650v-195h650v195zM1501 1052h-106v-1052h-302v608h-650v-608h-302v1052h-105v211h105v180h302v-180h650v180h302v-180h106v-211z" />
    <glyph glyph-name="hbar" unicode="&#x127;" horiz-adv-x="1291" 
d="M427 919c29.333 63.333 74.8301 112.166 136.497 146.499s133.167 51.5 214.5 51.5c60 0 114.5 -9.5 163.5 -28.5s90.833 -46.167 125.5 -81.5s61.334 -78.5 80.001 -129.5s28 -108.833 28 -173.5v-704h-292v643c0 36.667 -5.16699 69.334 -15.5 98.001
s-25.333 53 -45 73s-43.167 35.167 -70.5 45.5s-58 15.5 -92 15.5c-35.333 0 -67.666 -6 -96.999 -18s-54.666 -29 -75.999 -51s-37.833 -48.333 -49.5 -79s-17.5 -64.667 -17.5 -102v-625h-292v1242h-90v150h90v165h287v-165h231v-150h-231v-323h12z" />
    <glyph glyph-name="Itilde" unicode="&#x128;" horiz-adv-x="542" 
d="M120 0v1443h302v-1443h-302zM411 1541c-22.667 0 -43.168 3.33301 -61.501 10s-35 15 -50 25s-28.667 21 -41 33s-24.333 23 -36 33s-23.167 18.333 -34.5 25s-23 10 -35 10c-22.667 0 -39.667 -11 -51 -33s-17.333 -50.667 -18 -86h-158
c0 42.667 5.5 80.834 16.5 114.501s26 62.167 45 85.5s41.667 41 68 53s54.833 18 85.5 18c35.333 0 65.5 -7 90.5 -21s47.167 -29.5 66.5 -46.5l53 -46.5c16 -14 33 -21 51 -21c21.333 0 37.333 10.667 48 32s16.334 51.333 17.001 90h158c0 -42.667 -5.5 -81 -16.5 -115
s-26 -62.833 -45 -86.5s-41.667 -41.834 -68 -54.501s-54.5 -19 -84.5 -19z" />
    <glyph glyph-name="itilde" unicode="&#x129;" horiz-adv-x="500" 
d="M104 1101h292v-1101h-292v1101zM392 1258c-22.667 0 -43.168 3.33301 -61.501 10s-35 15 -50 25s-28.667 21 -41 33s-24.333 23 -36 33s-23.167 18.333 -34.5 25s-23 10 -35 10c-22.667 0 -39.667 -11 -51 -33s-17.333 -50.667 -18 -86h-158
c0 42.667 5.5 80.834 16.5 114.501s26 62.167 45 85.5s41.667 41 68 53s54.833 18 85.5 18c35.333 0 65.5 -7 90.5 -21s47.167 -29.5 66.5 -46.5l53 -46.5c16 -14 33 -21 51 -21c21.333 0 37.333 10.667 48 32s16.334 51.333 17.001 90h158c0 -42.667 -5.5 -81 -16.5 -115
s-26 -62.833 -45 -86.5s-41.667 -41.834 -68 -54.501s-54.5 -19 -84.5 -19z" />
    <glyph glyph-name="Imacron" unicode="&#x12a;" horiz-adv-x="542" 
d="M120 0v1443h302v-1443h-302zM617 1624h-692v143h692v-143z" />
    <glyph glyph-name="imacron" unicode="&#x12b;" horiz-adv-x="500" 
d="M104 1101h292v-1101h-292v1101zM585 1298h-669v143h669v-143z" />
    <glyph glyph-name="Ibreve" unicode="&#x12c;" horiz-adv-x="542" 
d="M120 0v1443h302v-1443h-302zM96 1860c0.666992 -24.667 5.16699 -47.5 13.5 -68.5s20.166 -39.167 35.499 -54.5s33.666 -27.333 54.999 -36s45 -13 71 -13s49.667 4.33301 71 13s39.666 20.667 54.999 36s27.166 33.5 35.499 54.5s12.833 43.833 13.5 68.5h178
c-0.666992 -44.667 -9.16699 -86.334 -25.5 -125.001s-39.666 -72.167 -69.999 -100.5s-67.166 -50.666 -110.499 -66.999s-92.333 -24.5 -147 -24.5s-103.667 8.16699 -147 24.5s-80.166 38.666 -110.499 66.999s-53.666 61.833 -69.999 100.5
s-24.833 80.334 -25.5 125.001h178z" />
    <glyph glyph-name="ibreve" unicode="&#x12d;" horiz-adv-x="500" 
d="M104 1101h292v-1101h-292v1101zM70 1570c0.666992 -25.333 5.3291 -48.666 13.9961 -69.999s20.834 -39.666 36.501 -54.999s34.334 -27.5 56.001 -36.5s45.834 -13.5 72.501 -13.5s50.834 4.5 72.501 13.5s40.334 21.167 56.001 36.5s27.834 33.666 36.501 54.999
s13.334 44.666 14.001 69.999h180c-0.666992 -45.333 -9.33398 -87.666 -26.001 -126.999s-40.5 -73.5 -71.5 -102.5s-68.5 -51.667 -112.5 -68s-93.667 -24.5 -149 -24.5s-105 8.16699 -149 24.5s-81.333 39 -112 68s-54.334 63.167 -71.001 102.5
s-25.334 81.666 -26.001 126.999h179z" />
    <glyph glyph-name="Iogonek" unicode="&#x12e;" horiz-adv-x="542" 
d="M273 -453c-36.667 0 -70.166 5.33105 -100.499 15.998s-56.5 25.834 -78.5 45.501s-39 43 -51 70s-18 56.833 -18 89.5c0 52 12.167 97.333 36.5 136s63.5 74.667 117.5 108h-59v1431h302v-1436h-54c-97.333 -49.333 -146 -110.666 -146 -183.999
c0 -33.333 10.667 -59.833 32 -79.5s49 -29.5 83 -29.5c10.667 0 20.667 0.5 30 1.5s18.666 2.16699 27.999 3.5v-155c-34 -11.333 -74.667 -17 -122 -17z" />
    <glyph glyph-name="iogonek" unicode="&#x12f;" horiz-adv-x="500" 
d="M250 1221c-21.333 0 -41.5 3.83301 -60.5 11.5s-35.667 18.334 -50 32.001s-25.666 29.834 -33.999 48.501s-12.5 39 -12.5 61s4.16699 42.167 12.5 60.5s19.666 34.333 33.999 48s31 24.334 50 32.001s39.167 11.5 60.5 11.5c22 0 42.5 -3.83301 61.5 -11.5
s35.667 -18.334 50 -32.001s25.666 -29.667 33.999 -48s12.5 -38.5 12.5 -60.5s-4.16699 -42.333 -12.5 -61s-19.666 -34.834 -33.999 -48.501s-31 -24.334 -50 -32.001s-39.5 -11.5 -61.5 -11.5zM273 -453c-36.667 0 -70.166 5.33203 -100.499 15.999
s-56.5 25.834 -78.5 45.501s-39 43 -51 70s-18 56.833 -18 89.5c0 52 12.5 97.833 37.5 137.5s64.5 75.167 118.5 106.5h-77v1089h292v-1091h-29c-96.667 -48.667 -145 -111 -145 -187c0 -33.333 10.667 -59.833 32 -79.5s49 -29.5 83 -29.5c10 0 19.833 0.333008 29.5 1
s19.167 2 28.5 4v-155c-32.667 -11.333 -73.334 -17 -122.001 -17z" />
    <glyph glyph-name="Idotaccent" unicode="&#x130;" horiz-adv-x="542" 
d="M120 0v1443h302v-1443h-302zM271 1561c-21.333 0 -41 3.83301 -59 11.5s-33.667 18.334 -47 32.001s-23.833 29.5 -31.5 47.5s-11.5 37.333 -11.5 58s3.83301 40 11.5 58s18.167 33.667 31.5 47s29 23.833 47 31.5s37.667 11.5 59 11.5
c20.667 0 40.167 -3.83301 58.5 -11.5s34.166 -18.167 47.499 -31.5s23.833 -29 31.5 -47s11.5 -37.333 11.5 -58s-3.83301 -40 -11.5 -58s-18.167 -33.833 -31.5 -47.5s-29.166 -24.334 -47.499 -32.001s-37.833 -11.5 -58.5 -11.5z" />
    <glyph glyph-name="dotlessi" unicode="&#x131;" horiz-adv-x="500" 
d="M104 1101h292v-1101h-292v1101z" />
    <glyph glyph-name="u0132" unicode="&#x132;" horiz-adv-x="1685" 
d="M120 0v1443h302v-1443h-302zM866 425c0.666992 -29.333 5.66504 -55.833 14.998 -79.5s22.333 -44 39 -61s36.667 -30.167 60 -39.5s49.333 -14 78 -14c63.333 0 111.5 19 144.5 57s49.5 93.333 49.5 166v989h302v-991c0 -76.667 -11.167 -145 -33.5 -205
s-54.666 -110.5 -96.999 -151.5s-94 -72.167 -155 -93.5s-130.167 -32 -207.5 -32c-74 0 -141 10.833 -201 32.5s-111.167 52.167 -153.5 91.5s-75.166 87 -98.499 143s-35 118.667 -35 188h293z" />
    <glyph glyph-name="u0133" unicode="&#x133;" horiz-adv-x="1000" 
d="M104 1101h292v-1101h-292v1101zM250 1221c-21.333 0 -41.5 3.83301 -60.5 11.5s-35.667 18.334 -50 32.001s-25.666 29.834 -33.999 48.501s-12.5 39 -12.5 61s4.16699 42.167 12.5 60.5s19.666 34.333 33.999 48s31 24.334 50 32.001s39.167 11.5 60.5 11.5
c22 0 42.5 -3.83301 61.5 -11.5s35.667 -18.334 50 -32.001s25.666 -29.667 33.999 -48s12.5 -38.5 12.5 -60.5s-4.16699 -42.333 -12.5 -61s-19.666 -34.834 -33.999 -48.501s-31 -24.334 -50 -32.001s-39.5 -11.5 -61.5 -11.5zM896 -37
c0 -112.667 -32.8291 -197.332 -98.4961 -253.999s-163.167 -85 -292.5 -85h-19.5c-7.66699 0 -15.334 0.166992 -23.001 0.5s-14.834 0.666016 -21.501 0.999023s-11.334 0.833008 -14.001 1.5v216c3.33301 -0.666992 9.16602 -1 17.499 -1h19.5
c50.667 0 86.667 9.83301 108 29.5s32 52.5 32 98.5v1131h292v-1138zM750.004 1221c-21.333 0 -41.5 3.83301 -60.5 11.5s-35.667 18.334 -50 32.001s-25.666 29.834 -33.999 48.501s-12.5 39 -12.5 61s4.16699 42.167 12.5 60.5s19.666 34.333 33.999 48
s31 24.334 50 32.001s39.167 11.5 60.5 11.5c22 0 42.5 -3.83301 61.5 -11.5s35.667 -18.334 50 -32.001s25.666 -29.667 33.999 -48s12.5 -38.5 12.5 -60.5s-4.16699 -42.333 -12.5 -61s-19.666 -34.834 -33.999 -48.501s-31 -24.334 -50 -32.001s-39.5 -11.5 -61.5 -11.5z
" />
    <glyph glyph-name="Jcircumflex" unicode="&#x134;" horiz-adv-x="1143" 
d="M324 425c0.666992 -29.333 5.66504 -55.833 14.998 -79.5s22.333 -44 39 -61s36.667 -30.167 60 -39.5s49.333 -14 78 -14c63.333 0 111.5 19 144.5 57s49.5 93.333 49.5 166v989h302v-991c0 -76.667 -11.167 -145 -33.5 -205s-54.666 -110.5 -96.999 -151.5
s-94 -72.167 -155 -93.5s-130.167 -32 -207.5 -32c-74 0 -141 10.833 -201 32.5s-111.167 52.167 -153.5 91.5s-75.166 87 -98.499 143s-35 118.667 -35 188h293zM978.998 1861l274 -318h-222l-163 197h-6l-163 -197h-222l274 318h228z" />
    <glyph glyph-name="jcircumflex" unicode="&#x135;" horiz-adv-x="499" 
d="M395 -37c0 -112.667 -32.6641 -197.332 -97.9971 -253.999s-162.666 -85 -291.999 -85h-19.5c-7.66699 0 -15.334 0.166992 -23.001 0.5s-14.834 0.666016 -21.501 0.999023s-11.334 0.833008 -14.001 1.5v216c3.33301 -0.666992 9 -1 17 -1h19
c51.333 0 87.666 9.83301 108.999 29.5s32 52.5 32 98.5v1131h291v-1138zM625.003 1253h-223l-149 189h-7l-148 -189h-224l266 318h219z" />
    <glyph glyph-name="Kcommaaccent" unicode="&#x136;" horiz-adv-x="1353" 
d="M120 0v1443h302v-658h9l542 658h336l-534 -640l571 -803h-361l-428 603l-135 -162v-441h-302zM427 -500l121 345h256l-160 -345h-217z" />
    <glyph glyph-name="kcommaaccent" unicode="&#x137;" horiz-adv-x="1126" 
d="M784 1101h332l-424 -473l444 -628h-336l-322 452l-79 -85v-367h-292v1512h292v-856h4zM346 -500l121 345h256l-160 -345h-217z" />
    <glyph glyph-name="Lacute" unicode="&#x139;" horiz-adv-x="1112" 
d="M152 1553l232 310h273l-277 -310h-228zM1053 0h-933v1443h302v-1193h631v-250z" />
    <glyph glyph-name="lacute" unicode="&#x13a;" horiz-adv-x="505" 
d="M134 1622l232 310h273l-277 -310h-228zM107 1512h292v-1512h-292v1512z" />
    <glyph glyph-name="Lcommaaccent" unicode="&#x13b;" horiz-adv-x="1112" 
d="M338 -500l121 345h256l-160 -345h-217zM1053 0h-933v1443h302v-1193h631v-250z" />
    <glyph glyph-name="lcommaaccent" unicode="&#x13c;" horiz-adv-x="505" 
d="M14 -500l121 345h256l-160 -345h-217zM107 1512h292v-1512h-292v1512z" />
    <glyph glyph-name="Lcaron" unicode="&#x13d;" horiz-adv-x="1112" 
d="M921 1443l-50 -503h-196v503h246zM1053 0h-933v1443h302v-1193h631v-250z" />
    <glyph glyph-name="lcaron" unicode="&#x13e;" horiz-adv-x="714" 
d="M768 1507l-40 -503h-176v503h216zM107 1512h292v-1512h-292v1512z" />
    <glyph glyph-name="Lslash" unicode="&#x141;" horiz-adv-x="1128" 
d="M1069 250v-250h-933v638l-97 -49v199l97 49v606h302v-454l293 148v-200l-293 -147v-540h631z" />
    <glyph glyph-name="lslash" unicode="&#x142;" horiz-adv-x="549" 
d="M537 882l-138 -72v-810h-292v658l-99 -52v200l99 51v655h292v-503l138 72v-199z" />
    <glyph glyph-name="Nacute" unicode="&#x143;" horiz-adv-x="1463" 
d="M613 1553l232 310h273l-277 -310h-228zM120 0v1443h252l674 -940h8v940h289v-1443h-250l-675 945h-9v-945h-289z" />
    <glyph glyph-name="nacute" unicode="&#x144;" horiz-adv-x="1227" 
d="M496 1263l221 310h273l-263 -310h-231zM99 1101h281.997v-197h6c32 70 77.667 123 137 159s131.666 54 216.999 54c60.667 0 115.334 -9.33301 164.001 -28s89.834 -45.667 123.501 -81s59.5 -78.5 77.5 -129.5s27 -108.5 27 -172.5v-706h-292v645
c0 73.333 -18.667 129.833 -56 169.5s-90.666 59.5 -159.999 59.5c-35.333 0 -67.333 -6 -96 -18s-53.167 -28.833 -73.5 -50.5s-36.166 -47.5 -47.499 -77.5s-17 -63.333 -17 -100v-628h-292v1101z" />
    <glyph glyph-name="Ncommaaccent" unicode="&#x145;" horiz-adv-x="1463" 
d="M493 -500l121 345h256l-160 -345h-217zM120 0v1443h252l674 -940h8v940h289v-1443h-250l-675 945h-9v-945h-289z" />
    <glyph glyph-name="ncommaaccent" unicode="&#x146;" horiz-adv-x="1227" 
d="M376 -500l121 345h256l-160 -345h-217zM99 1101h281.997v-197h6c32 70 77.667 123 137 159s131.666 54 216.999 54c60.667 0 115.334 -9.33301 164.001 -28s89.834 -45.667 123.501 -81s59.5 -78.5 77.5 -129.5s27 -108.5 27 -172.5v-706h-292v645
c0 73.333 -18.667 129.833 -56 169.5s-90.666 59.5 -159.999 59.5c-35.333 0 -67.333 -6 -96 -18s-53.167 -28.833 -73.5 -50.5s-36.166 -47.5 -47.499 -77.5s-17 -63.333 -17 -100v-628h-292v1101z" />
    <glyph glyph-name="Ncaron" unicode="&#x147;" horiz-adv-x="1463" 
d="M344 1861h222l163 -197h6l163 197h222l-274 -318h-228zM120 0v1443h252l674 -940h8v940h289v-1443h-250l-675 945h-9v-945h-289z" />
    <glyph glyph-name="ncaron" unicode="&#x148;" horiz-adv-x="1227" 
d="M505 1253l-266 318h224l148 -188h7l149 188h223l-266 -318h-219zM99 1101h281.997v-197h6c32 70 77.667 123 137 159s131.666 54 216.999 54c60.667 0 115.334 -9.33301 164.001 -28s89.834 -45.667 123.501 -81s59.5 -78.5 77.5 -129.5s27 -108.5 27 -172.5v-706h-292
v645c0 73.333 -18.667 129.833 -56 169.5s-90.666 59.5 -159.999 59.5c-35.333 0 -67.333 -6 -96 -18s-53.167 -28.833 -73.5 -50.5s-36.166 -47.5 -47.499 -77.5s-17 -63.333 -17 -100v-628h-292v1101z" />
    <glyph glyph-name="Omacron" unicode="&#x14c;" horiz-adv-x="1541" 
d="M771 1468c106.667 0 203 -17.333 289 -52s159.167 -84.334 219.5 -149.001s106.666 -143.167 138.999 -235.5s48.5 -195.833 48.5 -310.5s-16.167 -218 -48.5 -310s-78.666 -170.333 -138.999 -235s-133.5 -114.334 -219.5 -149.001s-182.333 -52 -289 -52
c-107.333 0 -203.833 17.333 -289.5 52s-158.667 84.334 -219 149.001s-106.666 143 -138.999 235s-48.5 195.333 -48.5 310s16.167 218.167 48.5 310.5s78.666 170.833 138.999 235.5s133.333 114.334 219 149.001s182.167 52 289.5 52zM771 1216
c-59.333 0 -112.833 -11.5 -160.5 -34.5s-88.334 -56 -122.001 -99s-59.667 -95 -78 -156s-27.5 -129.5 -27.5 -205.5c0 -75.333 9.16699 -143.5 27.5 -204.5s44.333 -112.833 78 -155.5s74.334 -75.5 122.001 -98.5s101.167 -34.5 160.5 -34.5c58.667 0 112 11.5 160 34.5
s88.667 55.833 122 98.5s59.166 94.5 77.499 155.5s27.5 129.167 27.5 204.5c0 76 -9.16699 144.5 -27.5 205.5s-44.166 113 -77.499 156s-74 76 -122 99s-101.333 34.5 -160 34.5zM1117 1624h-692v143h692v-143z" />
    <glyph glyph-name="omacron" unicode="&#x14d;" horiz-adv-x="1201" 
d="M936 1298h-669v143h669v-143zM601 -19c-83.333 0 -158.499 13 -225.499 39s-124 63.5 -171 112.5s-83.167 108.667 -108.5 179s-38 150.166 -38 239.499c0 88 12.833 167.167 38.5 237.5s62 130 109 179s104 86.667 171 113s141.833 39.5 224.5 39.5
s157.5 -13.167 224.5 -39.5s124.167 -64 171.5 -113s83.666 -108.667 108.999 -179s38 -149.5 38 -237.5c0 -89.333 -12.667 -169.166 -38 -239.499s-61.5 -130 -108.5 -179s-104 -86.5 -171 -112.5s-142.167 -39 -225.5 -39zM601.001 206
c77.333 0 137.665 30.002 180.998 90.002s65 145 65 255c0 54 -5.66699 102.5 -17 145.5s-27.5 79.167 -48.5 108.5s-46.833 51.833 -77.5 67.5s-65 23.5 -103 23.5c-38.667 0 -73.167 -7.83301 -103.5 -23.5s-56.166 -38.334 -77.499 -68.001
s-37.666 -65.834 -48.999 -108.501s-17 -91 -17 -145c0 -110 21.833 -195 65.5 -255s104.167 -90 181.5 -90z" />
    <glyph glyph-name="Obreve" unicode="&#x14e;" horiz-adv-x="1541" 
d="M771 1468c106.667 0 203 -17.333 289 -52s159.167 -84.334 219.5 -149.001s106.666 -143.167 138.999 -235.5s48.5 -195.833 48.5 -310.5s-16.167 -218 -48.5 -310s-78.666 -170.333 -138.999 -235s-133.5 -114.334 -219.5 -149.001s-182.333 -52 -289 -52
c-107.333 0 -203.833 17.333 -289.5 52s-158.667 84.334 -219 149.001s-106.666 143 -138.999 235s-48.5 195.333 -48.5 310s16.167 218.167 48.5 310.5s78.666 170.833 138.999 235.5s133.333 114.334 219 149.001s182.167 52 289.5 52zM771 1216
c-59.333 0 -112.833 -11.5 -160.5 -34.5s-88.334 -56 -122.001 -99s-59.667 -95 -78 -156s-27.5 -129.5 -27.5 -205.5c0 -75.333 9.16699 -143.5 27.5 -204.5s44.333 -112.833 78 -155.5s74.334 -75.5 122.001 -98.5s101.167 -34.5 160.5 -34.5c58.667 0 112 11.5 160 34.5
s88.667 55.833 122 98.5s59.166 94.5 77.499 155.5s27.5 129.167 27.5 204.5c0 76 -9.16699 144.5 -27.5 205.5s-44.166 113 -77.499 156s-74 76 -122 99s-101.333 34.5 -160 34.5zM596 1860c0.666992 -24.667 5.16699 -47.5 13.5 -68.5s20.166 -39.167 35.499 -54.5
s33.666 -27.333 54.999 -36s45 -13 71 -13s49.667 4.33301 71 13s39.666 20.667 54.999 36s27.166 33.5 35.499 54.5s12.833 43.833 13.5 68.5h178c-0.666992 -44.667 -9.16699 -86.334 -25.5 -125.001s-39.666 -72.167 -69.999 -100.5s-67.166 -50.666 -110.499 -66.999
s-92.333 -24.5 -147 -24.5s-103.667 8.16699 -147 24.5s-80.166 38.666 -110.499 66.999s-53.666 61.833 -69.999 100.5s-24.833 80.334 -25.5 125.001h178z" />
    <glyph glyph-name="obreve" unicode="&#x14f;" horiz-adv-x="1201" 
d="M421 1570c0.666992 -25.333 5.3291 -48.666 13.9961 -69.999s20.834 -39.666 36.501 -54.999s34.334 -27.5 56.001 -36.5s45.834 -13.5 72.501 -13.5s50.834 4.5 72.501 13.5s40.334 21.167 56.001 36.5s27.834 33.666 36.501 54.999s13.334 44.666 14.001 69.999h180
c-0.666992 -45.333 -9.33398 -87.666 -26.001 -126.999s-40.5 -73.5 -71.5 -102.5s-68.5 -51.667 -112.5 -68s-93.667 -24.5 -149 -24.5s-105 8.16699 -149 24.5s-81.333 39 -112 68s-54.334 63.167 -71.001 102.5s-25.334 81.666 -26.001 126.999h179zM600.995 -19
c-83.333 0 -158.499 13 -225.499 39s-124 63.5 -171 112.5s-83.167 108.667 -108.5 179s-38 150.166 -38 239.499c0 88 12.833 167.167 38.5 237.5s62 130 109 179s104 86.667 171 113s141.833 39.5 224.5 39.5s157.5 -13.167 224.5 -39.5s124.167 -64 171.5 -113
s83.666 -108.667 108.999 -179s38 -149.5 38 -237.5c0 -89.333 -12.667 -169.166 -38 -239.499s-61.5 -130 -108.5 -179s-104 -86.5 -171 -112.5s-142.167 -39 -225.5 -39zM600.996 206c77.333 0 137.665 30.002 180.998 90.002s65 145 65 255
c0 54 -5.66699 102.5 -17 145.5s-27.5 79.167 -48.5 108.5s-46.833 51.833 -77.5 67.5s-65 23.5 -103 23.5c-38.667 0 -73.167 -7.83301 -103.5 -23.5s-56.166 -38.334 -77.499 -68.001s-37.666 -65.834 -48.999 -108.501s-17 -91 -17 -145c0 -110 21.833 -195 65.5 -255
s104.167 -90 181.5 -90z" />
    <glyph glyph-name="Ohungarumlaut" unicode="&#x150;" horiz-adv-x="1541" 
d="M854 1553l232 310h268l-278 -310h-222zM459 1553l231 310h269l-278 -310h-222zM771 1468c106.667 0 203 -17.333 289 -52s159.167 -84.334 219.5 -149.001s106.666 -143.167 138.999 -235.5s48.5 -195.833 48.5 -310.5s-16.167 -218 -48.5 -310
s-78.666 -170.333 -138.999 -235s-133.5 -114.334 -219.5 -149.001s-182.333 -52 -289 -52c-107.333 0 -203.833 17.333 -289.5 52s-158.667 84.334 -219 149.001s-106.666 143 -138.999 235s-48.5 195.333 -48.5 310s16.167 218.167 48.5 310.5
s78.666 170.833 138.999 235.5s133.333 114.334 219 149.001s182.167 52 289.5 52zM771 1216c-59.333 0 -112.833 -11.5 -160.5 -34.5s-88.334 -56 -122.001 -99s-59.667 -95 -78 -156s-27.5 -129.5 -27.5 -205.5c0 -75.333 9.16699 -143.5 27.5 -204.5
s44.333 -112.833 78 -155.5s74.334 -75.5 122.001 -98.5s101.167 -34.5 160.5 -34.5c58.667 0 112 11.5 160 34.5s88.667 55.833 122 98.5s59.166 94.5 77.499 155.5s27.5 129.167 27.5 204.5c0 76 -9.16699 144.5 -27.5 205.5s-44.166 113 -77.499 156s-74 76 -122 99
s-101.333 34.5 -160 34.5z" />
    <glyph glyph-name="ohungarumlaut" unicode="&#x151;" horiz-adv-x="1201" 
d="M865 1573h252l-233 -310h-208zM495 1573h251l-233 -310h-208zM601 -19c-83.333 0 -158.499 13 -225.499 39s-124 63.5 -171 112.5s-83.167 108.667 -108.5 179s-38 150.166 -38 239.499c0 88 12.833 167.167 38.5 237.5s62 130 109 179s104 86.667 171 113
s141.833 39.5 224.5 39.5s157.5 -13.167 224.5 -39.5s124.167 -64 171.5 -113s83.666 -108.667 108.999 -179s38 -149.5 38 -237.5c0 -89.333 -12.667 -169.166 -38 -239.499s-61.5 -130 -108.5 -179s-104 -86.5 -171 -112.5s-142.167 -39 -225.5 -39zM601.001 206
c77.333 0 137.665 30.002 180.998 90.002s65 145 65 255c0 54 -5.66699 102.5 -17 145.5s-27.5 79.167 -48.5 108.5s-46.833 51.833 -77.5 67.5s-65 23.5 -103 23.5c-38.667 0 -73.167 -7.83301 -103.5 -23.5s-56.166 -38.334 -77.499 -68.001
s-37.666 -65.834 -48.999 -108.501s-17 -91 -17 -145c0 -110 21.833 -195 65.5 -255s104.167 -90 181.5 -90z" />
    <glyph glyph-name="OE" unicode="&#x152;" horiz-adv-x="2216" 
d="M779 1219c-59.333 0 -113.165 -11.667 -161.498 -35s-89.5 -56.666 -123.5 -99.999s-60.167 -95.666 -78.5 -156.999s-27.5 -130 -27.5 -206c0 -75.333 9.16699 -143.666 27.5 -204.999s44.5 -113.5 78.5 -156.5s75.167 -76.167 123.5 -99.5s102.166 -35 161.499 -35
s113.166 11.667 161.499 35s89.5 56.5 123.5 99.5s60.167 95.167 78.5 156.5s27.5 129.666 27.5 204.999c0 76 -9.33301 144.667 -28 206s-45 113.666 -79 156.999s-75 76.666 -123 99.999s-101.667 35 -161 35zM1203 236c-18 -40 -42.8311 -76.499 -74.498 -109.499
s-68 -61.333 -109 -85s-86.167 -41.834 -135.5 -54.501s-100.333 -19 -153 -19c-96 0 -184 18 -264 54s-148.667 87 -206 153s-101.833 145.333 -133.5 238s-47.5 195.334 -47.5 308.001c0 113.333 16 216.333 48 309s76.667 172 134 238s126.166 117 206.499 153
s169.166 54 266.499 54c52.667 0 102.834 -6 150.501 -18s91.5 -29.667 131.5 -53s75.667 -51.833 107 -85.5s57.666 -71.834 78.999 -114.501v239h916v-249h-644v-348h606v-232h-606v-364h644v-250h-916v236z" />
    <glyph glyph-name="oe" unicode="&#x153;" horiz-adv-x="1944" 
d="M1401 -19c-89.333 0 -169.002 17.166 -239.002 51.499s-124 82.5 -162 144.5h-14c-45.333 -66.667 -100 -116 -164 -148s-141 -48 -231 -48c-81.333 0 -154.833 13.333 -220.5 40s-121.667 64.667 -168 114s-82 109 -107 179s-37.5 148 -37.5 234
c0 86.667 12.5 165.167 37.5 235.5s60.667 130.5 107 180.5s102.166 88.5 167.499 115.5s138 40.5 218 40.5c176.667 0 309.334 -65.667 398.001 -197h14c18.667 30.667 41.5 58.167 68.5 82.5s57.333 45 91 62s69.834 30 108.501 39s79 13.5 121 13.5
c74.667 0 142.667 -13 204 -39s113.833 -62.833 157.5 -110.5s77.334 -105.167 101.001 -172.5s35.5 -142.333 35.5 -225v-90h-750v-27c0 -38.667 6.16699 -73.834 18.5 -105.501s29.666 -58.667 51.999 -81s49.333 -39.666 81 -51.999s66.834 -18.5 105.501 -18.5
c54 0 100.333 11.333 139 34s64 53.667 76 93h269c-8 -50.667 -25.667 -97.167 -53 -139.5s-62 -78.666 -104 -108.999s-90.333 -54 -145 -71s-113 -25.5 -175 -25.5zM1602 663.999c-1.33301 36 -7.66699 68.666 -19 97.999s-27 54.5 -47 75.5s-43.667 37.167 -71 48.5
s-57.333 17 -90 17c-33.333 0 -64 -5.83301 -92 -17.5s-52.5 -28 -73.5 -49s-37.833 -46.167 -50.5 -75.5s-20 -61.666 -22 -96.999h465zM346.997 548.998c0 -53.333 5.5 -100.831 16.5 -142.498s27 -76.834 48 -105.501s46.667 -50.667 77 -66s64.5 -23 102.5 -23
c38.667 0 73.167 7.66699 103.5 23s56 37.5 77 66.5s37 64.333 48 106s16.5 89.167 16.5 142.5s-5.66699 101 -17 143s-27.5 77.667 -48.5 107s-46.667 51.666 -77 66.999s-64.5 23 -102.5 23s-72.167 -7.83301 -102.5 -23.5s-56 -38.167 -77 -67.5s-37 -65 -48 -107
s-16.5 -89.667 -16.5 -143z" />
    <glyph glyph-name="Racute" unicode="&#x154;" horiz-adv-x="1316" 
d="M497 1553l232 310h273l-277 -310h-228zM422 747h264.999c76.667 0 136 20.333 178 61s63 97 63 169c0 34.667 -5.66699 66.167 -17 94.5s-27.5 52.5 -48.5 72.5s-46.667 35.5 -77 46.5s-64.166 16.5 -101.499 16.5h-262v-460zM421.999 0l-301.999 0.000976562v1443h596
c82.667 0 156.5 -10.667 221.5 -32s119.667 -51.833 164 -91.5s78.166 -87.834 101.499 -144.501s35 -120.667 35 -192c0 -46 -5.83301 -90.333 -17.5 -133s-28.667 -81.667 -51 -117s-49.833 -66.833 -82.5 -94.5s-69.667 -49.5 -111 -65.5l304 -573h-342l-269 528h-247
v-528z" />
    <glyph glyph-name="racute" unicode="&#x155;" horiz-adv-x="759" 
d="M284 1263l221 310h273l-263 -310h-231zM99 1101l281.999 -0.000976562v-197h6c18.667 68.667 50.667 120.834 96 156.501s100.666 53.5 165.999 53.5c14.667 0 29.334 -1 44.001 -3s27.334 -4.66699 38.001 -8v-259c-12 5.33301 -28 9.66602 -48 12.999s-39 5 -57 5
c-74.667 0 -132.5 -21.667 -173.5 -65s-61.5 -103.666 -61.5 -180.999v-616h-292v1101z" />
    <glyph glyph-name="Rcommaaccent" unicode="&#x156;" horiz-adv-x="1316" 
d="M422 747h264.999c76.667 0 136 20.333 178 61s63 97 63 169c0 34.667 -5.66699 66.167 -17 94.5s-27.5 52.5 -48.5 72.5s-46.667 35.5 -77 46.5s-64.166 16.5 -101.499 16.5h-262v-460zM421.999 0l-301.999 0.000976562v1443h596c82.667 0 156.5 -10.667 221.5 -32
s119.667 -51.833 164 -91.5s78.166 -87.834 101.499 -144.501s35 -120.667 35 -192c0 -46 -5.83301 -90.333 -17.5 -133s-28.667 -81.667 -51 -117s-49.833 -66.833 -82.5 -94.5s-69.667 -49.5 -111 -65.5l304 -573h-342l-269 528h-247v-528zM377 -499.999l121 345h256
l-160 -345h-217z" />
    <glyph glyph-name="rcommaaccent" unicode="&#x157;" horiz-adv-x="759" 
d="M99 1101l281.999 -0.000976562v-197h6c18.667 68.667 50.667 120.834 96 156.501s100.666 53.5 165.999 53.5c14.667 0 29.334 -1 44.001 -3s27.334 -4.66699 38.001 -8v-259c-12 5.33301 -28 9.66602 -48 12.999s-39 5 -57 5c-74.667 0 -132.5 -21.667 -173.5 -65
s-61.5 -103.666 -61.5 -180.999v-616h-292v1101zM7.99902 -500.001l121 345h256l-160 -345h-217z" />
    <glyph glyph-name="Rcaron" unicode="&#x158;" horiz-adv-x="1316" 
d="M422 747h264.999c76.667 0 136 20.333 178 61s63 97 63 169c0 34.667 -5.66699 66.167 -17 94.5s-27.5 52.5 -48.5 72.5s-46.667 35.5 -77 46.5s-64.166 16.5 -101.499 16.5h-262v-460zM421.999 0l-301.999 0.000976562v1443h596c82.667 0 156.5 -10.667 221.5 -32
s119.667 -51.833 164 -91.5s78.166 -87.834 101.499 -144.501s35 -120.667 35 -192c0 -46 -5.83301 -90.333 -17.5 -133s-28.667 -81.667 -51 -117s-49.833 -66.833 -82.5 -94.5s-69.667 -49.5 -111 -65.5l304 -573h-342l-269 528h-247v-528zM228 1861h222l163 -197h6
l163 197h222l-274 -318h-228z" />
    <glyph glyph-name="rcaron" unicode="&#x159;" horiz-adv-x="759" 
d="M293 1253l-266 318h224l148 -188h7l149 188h223l-266 -318h-219zM99 1101l281.999 -0.000976562v-197h6c18.667 68.667 50.667 120.834 96 156.501s100.666 53.5 165.999 53.5c14.667 0 29.334 -1 44.001 -3s27.334 -4.66699 38.001 -8v-259
c-12 5.33301 -28 9.66602 -48 12.999s-39 5 -57 5c-74.667 0 -132.5 -21.667 -173.5 -65s-61.5 -103.666 -61.5 -180.999v-616h-292v1101z" />
    <glyph glyph-name="Sacute" unicode="&#x15a;" horiz-adv-x="1293" 
d="M535 1553l232 310h273l-277 -310h-228zM357 411c3.33301 -30 13.333 -57.002 30 -81.002s38.167 -44.667 64.5 -62s56.833 -30.666 91.5 -39.999s72 -14 112 -14s76.667 4.5 110 13.5s62 21.667 86 38s42.5 35.666 55.5 57.999s19.5 46.833 19.5 73.5
c0 46.667 -18.833 84.334 -56.5 113.001s-99.834 52.667 -186.501 72l-188 41c-264.667 56.667 -397 191 -397 403c0 66.667 13.667 127.167 41 181.5s65.5 100.833 114.5 139.5s107.167 68.5 174.5 89.5s141.333 31.5 222 31.5c84 0 159.833 -10.333 227.5 -31
s125.334 -50 173.001 -88s84.5 -83.667 110.5 -137s39.667 -112.666 41 -177.999h-283c-2.66699 30.667 -11 58 -25 82s-32.667 44.5 -56 61.5s-50.833 30 -82.5 39s-66.5 13.5 -104.5 13.5c-37.333 0 -71.333 -4.33301 -102 -13s-56.834 -20.667 -78.501 -36
s-38.5 -34 -50.5 -56s-18 -46.333 -18 -73c0 -44.667 18.5 -80.667 55.5 -108s97.167 -50.333 180.5 -69l175 -37c72 -15.333 134.167 -34.833 186.5 -58.5s95.5 -52 129.5 -85s59 -71.333 75 -115s24 -92.834 24 -147.501c0 -70 -13.667 -133.167 -41 -189.5
s-66.333 -104.333 -117 -144s-112.167 -70.167 -184.5 -91.5s-153.166 -32 -242.499 -32c-86.667 0 -165 10 -235 30s-130 48.833 -180 86.5s-89 83.334 -117 137.001s-43 114.5 -45 182.5h291z" />
    <glyph glyph-name="sacute" unicode="&#x15b;" horiz-adv-x="1078" 
d="M80 777c0 52 11.001 99.0029 33.001 141.003s53 78 93 108s88.333 53.167 145 69.5s120 24.5 190 24.5c68 0 129.833 -8.33301 185.5 -25s103.5 -40.334 143.5 -71.001s71 -67.334 93 -110.001s33.667 -90.334 35 -143.001h-270c-3.33301 44 -21.833 78.667 -55.5 104
s-78.834 38 -135.501 38c-52.667 0 -95 -10.667 -127 -32s-48 -50 -48 -86c0 -54 49 -92.333 147 -115l207 -45c55.333 -12.667 102.5 -27.667 141.5 -45s71 -38 96 -62s43.167 -51.833 54.5 -83.5s17 -67.834 17 -108.501c0 -53.333 -11.833 -101.833 -35.5 -145.5
s-56.667 -81 -99 -112s-93.333 -55 -153 -72s-125.5 -25.5 -197.5 -25.5c-72.667 0 -138.167 8.33301 -196.5 25s-108.333 40.5 -150 71.5s-74.5 68 -98.5 111s-38 91.167 -42 144.5h285c7.33301 -46.667 29 -82.5 65 -107.5s84.333 -37.5 145 -37.5
c58.667 0 104.5 10.5 137.5 31.5s49.5 49.5 49.5 85.5c0 28.667 -10.5 51.334 -31.5 68.001s-56.5 31 -106.5 43l-203 46c-104 23.333 -182.333 61.5 -235 114.5s-79 119.833 -79 200.5zM424.001 1263l221 310h273l-263 -310h-231z" />
    <glyph glyph-name="Scircumflex" unicode="&#x15c;" horiz-adv-x="1293" 
d="M357 411c3.33301 -30 13.333 -57.002 30 -81.002s38.167 -44.667 64.5 -62s56.833 -30.666 91.5 -39.999s72 -14 112 -14s76.667 4.5 110 13.5s62 21.667 86 38s42.5 35.666 55.5 57.999s19.5 46.833 19.5 73.5c0 46.667 -18.833 84.334 -56.5 113.001
s-99.834 52.667 -186.501 72l-188 41c-264.667 56.667 -397 191 -397 403c0 66.667 13.667 127.167 41 181.5s65.5 100.833 114.5 139.5s107.167 68.5 174.5 89.5s141.333 31.5 222 31.5c84 0 159.833 -10.333 227.5 -31s125.334 -50 173.001 -88s84.5 -83.667 110.5 -137
s39.667 -112.666 41 -177.999h-283c-2.66699 30.667 -11 58 -25 82s-32.667 44.5 -56 61.5s-50.833 30 -82.5 39s-66.5 13.5 -104.5 13.5c-37.333 0 -71.333 -4.33301 -102 -13s-56.834 -20.667 -78.501 -36s-38.5 -34 -50.5 -56s-18 -46.333 -18 -73
c0 -44.667 18.5 -80.667 55.5 -108s97.167 -50.333 180.5 -69l175 -37c72 -15.333 134.167 -34.833 186.5 -58.5s95.5 -52 129.5 -85s59 -71.333 75 -115s24 -92.834 24 -147.501c0 -70 -13.667 -133.167 -41 -189.5s-66.333 -104.333 -117 -144
s-112.167 -70.167 -184.5 -91.5s-153.166 -32 -242.499 -32c-86.667 0 -165 10 -235 30s-130 48.833 -180 86.5s-89 83.334 -117 137.001s-43 114.5 -45 182.5h291zM768 1861l274 -318h-222l-163 197h-6l-163 -197h-222l274 318h228z" />
    <glyph glyph-name="scircumflex" unicode="&#x15d;" horiz-adv-x="1078" 
d="M918 1253h-223l-149 189h-7l-148 -189h-224l266 318h219zM80 777c0 52 11.001 99.0029 33.001 141.003s53 78 93 108s88.333 53.167 145 69.5s120 24.5 190 24.5c68 0 129.833 -8.33301 185.5 -25s103.5 -40.334 143.5 -71.001s71 -67.334 93 -110.001
s33.667 -90.334 35 -143.001h-270c-3.33301 44 -21.833 78.667 -55.5 104s-78.834 38 -135.501 38c-52.667 0 -95 -10.667 -127 -32s-48 -50 -48 -86c0 -54 49 -92.333 147 -115l207 -45c55.333 -12.667 102.5 -27.667 141.5 -45s71 -38 96 -62s43.167 -51.833 54.5 -83.5
s17 -67.834 17 -108.501c0 -53.333 -11.833 -101.833 -35.5 -145.5s-56.667 -81 -99 -112s-93.333 -55 -153 -72s-125.5 -25.5 -197.5 -25.5c-72.667 0 -138.167 8.33301 -196.5 25s-108.333 40.5 -150 71.5s-74.5 68 -98.5 111s-38 91.167 -42 144.5h285
c7.33301 -46.667 29 -82.5 65 -107.5s84.333 -37.5 145 -37.5c58.667 0 104.5 10.5 137.5 31.5s49.5 49.5 49.5 85.5c0 28.667 -10.5 51.334 -31.5 68.001s-56.5 31 -106.5 43l-203 46c-104 23.333 -182.333 61.5 -235 114.5s-79 119.833 -79 200.5z" />
    <glyph glyph-name="Scedilla" unicode="&#x15e;" horiz-adv-x="1293" 
d="M813 838c72 -15.333 134.17 -34.8301 186.503 -58.4971s95.5 -52 129.5 -85s59 -71.333 75 -115s24 -92.834 24 -147.501c0 -64 -11.5 -122.5 -34.5 -175.5s-56.167 -99 -99.5 -138s-95.833 -70.333 -157.5 -94s-130.834 -38.834 -207.501 -45.501l-40 -95
c58.667 0 104.167 -13.833 136.5 -41.5s48.5 -66.834 48.5 -117.501c0 -58 -21.167 -103.333 -63.5 -136s-101.5 -49.334 -177.5 -50.001c-28 0 -53.833 1.33301 -77.5 4s-44.5 6.66699 -62.5 12v120c11.333 -4 27.666 -7.33301 48.999 -10s42 -4 62 -4
c71.333 0 107 18.333 107 55c0 20.667 -9.5 35.167 -28.5 43.5s-51.167 12.5 -96.5 12.5h-56v101l47 104c-77.333 4.66699 -147 18.167 -209 40.5s-115 52 -159 89s-78.333 81.167 -103 132.5s-38 108.666 -40 171.999h291c3.33301 -30 13.333 -57 30 -81
s38.167 -44.667 64.5 -62s56.833 -30.666 91.5 -39.999s72 -14 112 -14s76.667 4.5 110 13.5s62 21.667 86 38s42.5 35.666 55.5 57.999s19.5 46.833 19.5 73.5c0 46.667 -18.833 84.334 -56.5 113.001s-99.834 52.667 -186.501 72l-188 41
c-264.667 56.667 -397 191 -397 403c0 66.667 13.667 127.167 41 181.5s65.5 100.833 114.5 139.5s107.167 68.5 174.5 89.5s141.333 31.5 222 31.5c84 0 159.833 -10.333 227.5 -31s125.334 -50 173.001 -88s84.5 -83.667 110.5 -137s39.667 -112.666 41 -177.999h-283
c-2.66699 30.667 -11 58 -25 82s-32.667 44.5 -56 61.5s-50.833 30 -82.5 39s-66.5 13.5 -104.5 13.5c-37.333 0 -71.333 -4.33301 -102 -13s-56.834 -20.667 -78.501 -36s-38.5 -34 -50.5 -56s-18 -46.333 -18 -73c0 -44.667 18.5 -80.667 55.5 -108
s97.167 -50.333 180.5 -69z" />
    <glyph glyph-name="scedilla" unicode="&#x15f;" horiz-adv-x="1078" 
d="M716 635c55.333 -12.667 102.503 -27.665 141.503 -44.998s71 -38 96 -62s43.167 -51.833 54.5 -83.5s17 -67.834 17 -108.501c0 -48 -9.66699 -92.167 -29 -132.5s-46.5 -75.666 -81.5 -105.999s-77.167 -55.166 -126.5 -74.499s-104.333 -32 -165 -38l-43 -101
c58.667 0 104.167 -13.833 136.5 -41.5s48.5 -66.834 48.5 -117.501c0 -58 -21.167 -103.333 -63.5 -136s-101.5 -49.334 -177.5 -50.001c-28 0 -53.833 1.33301 -77.5 4s-44.5 6.66699 -62.5 12v120c11.333 -4 27.666 -7.33301 48.999 -10s42 -4 62 -4
c71.333 0 107 18.333 107 55c0 20.667 -9.5 35.167 -28.5 43.5s-51.167 12.5 -96.5 12.5h-56v101l50 111c-62.667 4.66699 -119 16.5 -169 35.5s-92.833 43.5 -128.5 73.5s-63.834 65.333 -84.501 106s-32.667 85.334 -36 134.001h285c7.33301 -46.667 29 -82.5 65 -107.5
s84.333 -37.5 145 -37.5c58.667 0 104.5 10.5 137.5 31.5s49.5 49.5 49.5 85.5c0 28.667 -10.5 51.334 -31.5 68.001s-56.5 31 -106.5 43l-203 46c-104 23.333 -182.333 61.5 -235 114.5s-79 119.833 -79 200.5c0 52 11 99 33 141s53 78 93 108s88.333 53.167 145 69.5
s120 24.5 190 24.5c68 0 129.833 -8.33301 185.5 -25s103.5 -40.334 143.5 -71.001s71 -67.334 93 -110.001s33.667 -90.334 35 -143.001h-270c-3.33301 44 -21.833 78.667 -55.5 104s-78.834 38 -135.501 38c-52.667 0 -95 -10.667 -127 -32s-48 -50 -48 -86
c0 -54 49 -92.333 147 -115z" />
    <glyph glyph-name="Scaron" unicode="&#x160;" horiz-adv-x="1293" 
d="M357 411c3.33301 -30 13.333 -57.002 30 -81.002s38.167 -44.667 64.5 -62s56.833 -30.666 91.5 -39.999s72 -14 112 -14s76.667 4.5 110 13.5s62 21.667 86 38s42.5 35.666 55.5 57.999s19.5 46.833 19.5 73.5c0 46.667 -18.833 84.334 -56.5 113.001
s-99.834 52.667 -186.501 72l-188 41c-264.667 56.667 -397 191 -397 403c0 66.667 13.667 127.167 41 181.5s65.5 100.833 114.5 139.5s107.167 68.5 174.5 89.5s141.333 31.5 222 31.5c84 0 159.833 -10.333 227.5 -31s125.334 -50 173.001 -88s84.5 -83.667 110.5 -137
s39.667 -112.666 41 -177.999h-283c-2.66699 30.667 -11 58 -25 82s-32.667 44.5 -56 61.5s-50.833 30 -82.5 39s-66.5 13.5 -104.5 13.5c-37.333 0 -71.333 -4.33301 -102 -13s-56.834 -20.667 -78.501 -36s-38.5 -34 -50.5 -56s-18 -46.333 -18 -73
c0 -44.667 18.5 -80.667 55.5 -108s97.167 -50.333 180.5 -69l175 -37c72 -15.333 134.167 -34.833 186.5 -58.5s95.5 -52 129.5 -85s59 -71.333 75 -115s24 -92.834 24 -147.501c0 -70 -13.667 -133.167 -41 -189.5s-66.333 -104.333 -117 -144
s-112.167 -70.167 -184.5 -91.5s-153.166 -32 -242.499 -32c-86.667 0 -165 10 -235 30s-130 48.833 -180 86.5s-89 83.334 -117 137.001s-43 114.5 -45 182.5h291zM266 1861h222l163 -197h6l163 197h222l-274 -318h-228z" />
    <glyph glyph-name="scaron" unicode="&#x161;" horiz-adv-x="1078" 
d="M433 1253l-266 318h224l148 -188h7l149 188h223l-266 -318h-219zM80 777c0 52 11.001 99.0029 33.001 141.003s53 78 93 108s88.333 53.167 145 69.5s120 24.5 190 24.5c68 0 129.833 -8.33301 185.5 -25s103.5 -40.334 143.5 -71.001s71 -67.334 93 -110.001
s33.667 -90.334 35 -143.001h-270c-3.33301 44 -21.833 78.667 -55.5 104s-78.834 38 -135.501 38c-52.667 0 -95 -10.667 -127 -32s-48 -50 -48 -86c0 -54 49 -92.333 147 -115l207 -45c55.333 -12.667 102.5 -27.667 141.5 -45s71 -38 96 -62s43.167 -51.833 54.5 -83.5
s17 -67.834 17 -108.501c0 -53.333 -11.833 -101.833 -35.5 -145.5s-56.667 -81 -99 -112s-93.333 -55 -153 -72s-125.5 -25.5 -197.5 -25.5c-72.667 0 -138.167 8.33301 -196.5 25s-108.333 40.5 -150 71.5s-74.5 68 -98.5 111s-38 91.167 -42 144.5h285
c7.33301 -46.667 29 -82.5 65 -107.5s84.333 -37.5 145 -37.5c58.667 0 104.5 10.5 137.5 31.5s49.5 49.5 49.5 85.5c0 28.667 -10.5 51.334 -31.5 68.001s-56.5 31 -106.5 43l-203 46c-104 23.333 -182.333 61.5 -235 114.5s-79 119.833 -79 200.5z" />
    <glyph glyph-name="Tcedilla" unicode="&#x162;" horiz-adv-x="1242" 
d="M713 0l-48.999 -115.998c58.667 0 104.167 -13.833 136.5 -41.5s48.5 -66.834 48.5 -117.501c0 -58 -21.167 -103.333 -63.5 -136s-101.5 -49.334 -177.5 -50.001c-28 0 -53.833 1.33301 -77.5 4s-44.5 6.66699 -62.5 12v120c11.333 -4 27.666 -7.33301 48.999 -10
s42 -4 62 -4c71.333 0 107 18.333 107 55c0 20.667 -9.5 35.167 -28.5 43.5s-51.167 12.5 -96.5 12.5h-56v101l58 127h-93v1194h-422v249h1147v-249h-423v-1194h-59z" />
    <glyph glyph-name="tcedilla" unicode="&#x163;" horiz-adv-x="741" 
d="M469 880v-534.999c0 -84 43.667 -126 131 -126c13.333 0 26.5 0.5 39.5 1.5s24.167 2.16699 33.5 3.5v-216c-15.333 -3.33301 -35.166 -6.16602 -59.499 -8.49902s-51.5 -3.5 -81.5 -3.5h-8l-47 -112c58.667 0 104.167 -13.833 136.5 -41.5s48.5 -66.834 48.5 -117.501
c0 -58 -21.167 -103.333 -63.5 -136s-101.5 -49.334 -177.5 -50.001c-28 0 -53.833 1.33301 -77.5 4s-44.5 6.66699 -62.5 12v120c11.333 -4 27.666 -7.33301 48.999 -10s42 -4 62 -4c71.333 0 107 18.333 107 55c0 20.667 -9.5 35.167 -28.5 43.5s-51.167 12.5 -96.5 12.5
h-56v101l62 137c-72 16 -123.833 47 -155.5 93s-47.5 110.667 -47.5 194v583h-149v221h149v245h292v-245h204v-221h-204z" />
    <glyph glyph-name="Tcaron" unicode="&#x164;" horiz-adv-x="1242" 
d="M233 1861h222l163 -197h6l163 197h222l-274 -318h-228zM470 0v1194h-422v249h1147v-249h-423v-1194h-302z" />
    <glyph glyph-name="tcaron" unicode="&#x165;" horiz-adv-x="835" 
d="M835 1744l-40 -503h-177v503h217zM469 1346v-245.001h204v-221h-204v-535c0 -84 43.667 -126 131 -126c13.333 0 26.5 0.5 39.5 1.5s24.167 2.16699 33.5 3.5v-216c-15.333 -3.33301 -35.166 -6.16602 -59.499 -8.49902s-51.5 -3.5 -81.5 -3.5
c-64 0 -118.333 5.66699 -163 17s-81.334 29 -110.001 53s-49.5 55 -62.5 93s-19.5 84 -19.5 138v583h-149v221h149v245h292z" />
    <glyph glyph-name="Tbar" unicode="&#x166;" horiz-adv-x="1298" 
d="M782 1194v-394h301v-211h-301v-589h-302v589h-265v211h265v394h-422v249h1147v-249h-423z" />
    <glyph glyph-name="tbar" unicode="&#x167;" horiz-adv-x="792" 
d="M469 493v-148.001c0 -84 43.667 -126 131 -126c13.333 0 26.5 0.5 39.5 1.5s24.167 2.16699 33.5 3.5v-216c-15.333 -3.33301 -35.166 -6.16602 -59.499 -8.49902s-51.5 -3.5 -81.5 -3.5c-64 0 -118.333 5.66699 -163 17s-81.334 29 -110.001 53s-49.5 55 -62.5 93
s-19.5 84 -19.5 138v196h-139v160h139v227h-149v221h149v245h292v-245h204v-221h-204v-227h232v-160h-232z" />
    <glyph glyph-name="Utilde" unicode="&#x168;" horiz-adv-x="1449" 
d="M422 540c0 -46 6.66309 -87.833 19.9961 -125.5s32.833 -69.834 58.5 -96.501s57.334 -47.334 95.001 -62.001s80.834 -22 129.501 -22c48 0 90.833 7.33301 128.5 22s69.334 35.334 95.001 62.001s45.167 58.834 58.5 96.501s20 79.5 20 125.5v903h302v-933
c0 -79.333 -14.167 -151.833 -42.5 -217.5s-68.666 -122 -120.999 -169s-115.833 -83.5 -190.5 -109.5s-158 -39 -250 -39c-92.667 0 -176.334 13 -251.001 39s-138.167 62.5 -190.5 109.5s-92.666 103.333 -120.999 169s-42.5 138.167 -42.5 217.5v933h302v-903z
M864.996 1541c-22.667 0 -43.168 3.33301 -61.501 10s-35 15 -50 25s-28.667 21 -41 33s-24.333 23 -36 33s-23.167 18.333 -34.5 25s-23 10 -35 10c-22.667 0 -39.667 -11 -51 -33s-17.333 -50.667 -18 -86h-158c0 42.667 5.5 80.834 16.5 114.501s26 62.167 45 85.5
s41.667 41 68 53s54.833 18 85.5 18c35.333 0 65.5 -7 90.5 -21s47.167 -29.5 66.5 -46.5l53 -46.5c16 -14 33 -21 51 -21c21.333 0 37.333 10.667 48 32s16.334 51.333 17.001 90h158c0 -42.667 -5.5 -81 -16.5 -115s-26 -62.833 -45 -86.5s-41.667 -41.834 -68 -54.501
s-54.5 -19 -84.5 -19z" />
    <glyph glyph-name="utilde" unicode="&#x169;" horiz-adv-x="1227" 
d="M1128 0l-281.999 -0.00195312v199h-6c-28 -69.333 -71.667 -122.5 -131 -159.5s-131 -55.5 -215 -55.5c-59.333 0 -113.666 9.33301 -162.999 28s-91.5 45.834 -126.5 81.501s-62.167 78.834 -81.5 129.501s-29 108 -29 172v706h292v-645
c0 -74.667 19.5 -131.5 58.5 -170.5s92.5 -58.5 160.5 -58.5c34 0 65.167 5.83301 93.5 17.5s52.666 28.334 72.999 50.001s36.166 47.667 47.499 78s17 64.166 17 101.499v627h292v-1101zM754.001 1258c-22.667 0 -43.168 3.33301 -61.501 10s-35 15 -50 25
s-28.667 21 -41 33s-24.333 23 -36 33s-23.167 18.333 -34.5 25s-23 10 -35 10c-22.667 0 -39.667 -11 -51 -33s-17.333 -50.667 -18 -86h-158c0 42.667 5.5 80.834 16.5 114.501s26 62.167 45 85.5s41.667 41 68 53s54.833 18 85.5 18c35.333 0 65.5 -7 90.5 -21
s47.167 -29.5 66.5 -46.5l53 -46.5c16 -14 33 -21 51 -21c21.333 0 37.333 10.667 48 32s16.334 51.333 17.001 90h158c0 -42.667 -5.5 -81 -16.5 -115s-26 -62.833 -45 -86.5s-41.667 -41.834 -68 -54.501s-54.5 -19 -84.5 -19z" />
    <glyph glyph-name="Umacron" unicode="&#x16a;" horiz-adv-x="1449" 
d="M422 540c0 -46 6.66309 -87.833 19.9961 -125.5s32.833 -69.834 58.5 -96.501s57.334 -47.334 95.001 -62.001s80.834 -22 129.501 -22c48 0 90.833 7.33301 128.5 22s69.334 35.334 95.001 62.001s45.167 58.834 58.5 96.501s20 79.5 20 125.5v903h302v-933
c0 -79.333 -14.167 -151.833 -42.5 -217.5s-68.666 -122 -120.999 -169s-115.833 -83.5 -190.5 -109.5s-158 -39 -250 -39c-92.667 0 -176.334 13 -251.001 39s-138.167 62.5 -190.5 109.5s-92.666 103.333 -120.999 169s-42.5 138.167 -42.5 217.5v933h302v-903zM1071 1624
h-692v143h692v-143z" />
    </font>
</defs>
</svg>
