<?xml version="1.0" standalone="no"?>
<!DOCTYPE svg PUBLIC "-//W3C//DTD SVG 1.1//EN" "http://www.w3.org/Graphics/SVG/1.1/DTD/svg11.dtd" >
<svg>
<metadata>
Created by FontForge 20090914 at Wed Mar 16 04:21:36 2016
 By www-data
&#194;&#169; 2015 Apple Inc. All rights reserved.
</metadata>
<defs>
<font id=".HelveticaNeueDeskInterface-BoldItalic" horiz-adv-x="0" >
  <font-face 
    font-family="SFNS Text"
    font-weight="700"
    font-style="italic"
    font-stretch="normal"
    units-per-em="2048"
    panose-1="0 0 4 0 0 0 0 0 0 0"
    ascent="1638"
    descent="-410"
    x-height="1103"
    cap-height="1443"
    bbox="-599 -570 3006 2229"
    underline-thickness="50"
    underline-position="-25"
    slope="-12"
    unicode-range="U+0020-U+FB02"
  />
<missing-glyph horiz-adv-x="1293" 
d="M335 1365h1053l-290 -1365h-1053zM504 303c0 -30 10.3311 -54.167 30.998 -72.5s47.334 -27.5 80.001 -27.5c34.667 0 62.834 9.5 84.501 28.5s32.5 43.833 32.5 74.5s-10.5 55.5 -31.5 74.5s-48.5 28.5 -82.5 28.5s-61.5 -9.66699 -82.5 -29s-31.5 -45 -31.5 -77z
M610.998 908c6 38 22.498 68.002 49.498 90.002s60.5 33 100.5 33c42 0 75.833 -10.167 101.5 -30.5s38.5 -47.166 38.5 -80.499c0 -12.667 -2 -24 -6 -34s-11.5 -20.333 -22.5 -31s-26.333 -22.334 -46 -35.001s-44.834 -28 -75.501 -46
c-31.333 -17.333 -57.5 -34 -78.5 -50s-38.5 -32.5 -52.5 -49.5s-24.833 -35.333 -32.5 -55s-13.167 -41.834 -16.5 -66.501l-6 -42h150l7 39c2.66699 14 6.33398 26.333 11.001 37s12.334 21.167 23.001 31.5s25.334 21.5 44.001 33.5s43.334 27 74.001 45
c33.333 18.667 62 37.167 86 55.5s43.667 36.833 59 55.5s26.5 38 33.5 58s10.5 41 10.5 63c0 35.333 -7 67.5 -21 96.5s-34 53.667 -60 74s-57.333 36.166 -94 47.499s-77.334 17 -122.001 17c-44 0 -84.167 -6 -120.5 -18s-67.833 -29 -94.5 -51s-48 -48.833 -64 -80.5
s-25.333 -67.167 -28 -106.5h152z" />
    <glyph glyph-name=".notdef" horiz-adv-x="1293" 
d="M335 1365h1053l-290 -1365h-1053zM504 303c0 -30 10.3311 -54.167 30.998 -72.5s47.334 -27.5 80.001 -27.5c34.667 0 62.834 9.5 84.501 28.5s32.5 43.833 32.5 74.5s-10.5 55.5 -31.5 74.5s-48.5 28.5 -82.5 28.5s-61.5 -9.66699 -82.5 -29s-31.5 -45 -31.5 -77z
M610.998 908c6 38 22.498 68.002 49.498 90.002s60.5 33 100.5 33c42 0 75.833 -10.167 101.5 -30.5s38.5 -47.166 38.5 -80.499c0 -12.667 -2 -24 -6 -34s-11.5 -20.333 -22.5 -31s-26.333 -22.334 -46 -35.001s-44.834 -28 -75.501 -46
c-31.333 -17.333 -57.5 -34 -78.5 -50s-38.5 -32.5 -52.5 -49.5s-24.833 -35.333 -32.5 -55s-13.167 -41.834 -16.5 -66.501l-6 -42h150l7 39c2.66699 14 6.33398 26.333 11.001 37s12.334 21.167 23.001 31.5s25.334 21.5 44.001 33.5s43.334 27 74.001 45
c33.333 18.667 62 37.167 86 55.5s43.667 36.833 59 55.5s26.5 38 33.5 58s10.5 41 10.5 63c0 35.333 -7 67.5 -21 96.5s-34 53.667 -60 74s-57.333 36.166 -94 47.499s-77.334 17 -122.001 17c-44 0 -84.167 -6 -120.5 -18s-67.833 -29 -94.5 -51s-48 -48.833 -64 -80.5
s-25.333 -67.167 -28 -106.5h152z" />
    <glyph glyph-name="space" unicode=" " horiz-adv-x="528" 
 />
    <glyph glyph-name="exclam" unicode="!" horiz-adv-x="729" 
d="M760 1443l-233 -968h-267l180 968h320zM318 -30c-28 0 -53.167 4.33203 -75.5 12.999s-41.333 20.5 -57 35.5s-27.667 32.5 -36 52.5s-12.5 41.333 -12.5 64c0 25.333 4.16699 48.666 12.5 69.999s20.333 39.833 36 55.5s34.667 28 57 37s47.5 13.5 75.5 13.5
s53.167 -4.33301 75.5 -13s41.333 -20.5 57 -35.5s27.667 -32.667 36 -53s12.5 -41.833 12.5 -64.5c0 -25.333 -4.16699 -48.666 -12.5 -69.999s-20.333 -39.666 -36 -54.999s-34.667 -27.5 -57 -36.5s-47.5 -13.5 -75.5 -13.5z" />
    <glyph glyph-name="quotedbl" unicode="&#x22;" horiz-adv-x="1016" 
d="M255 831l129 612h250l-129 -612h-250zM717 831l129 612h250l-129 -612h-250z" />
    <glyph glyph-name="numbersign" unicode="#" horiz-adv-x="1360" 
d="M1154 857l-108 -252h204l-86 -223h-206l-159 -382h-228l159 382h-230l-159 -382h-227l159 382h-202l88 223h202l108 252h-200l86 221h202l153 366h227l-152 -366h229l153 366h228l-152 -366h205l-87 -221h-207zM567 585h257l124 291h-259z" />
    <glyph glyph-name="dollar" unicode="$" horiz-adv-x="1415" 
d="M751 223c36.667 1.33301 69.334 6.83301 98.001 16.5s53 22.5 73 38.5s35.333 35 46 57s16 46 16 72c0 36.667 -12.333 67.5 -37 92.5s-65.334 48.833 -122.001 71.5zM823 1220c-32.667 -1.33301 -62.333 -6.5 -89 -15.5s-49.5 -21.167 -68.5 -36.5
s-33.667 -33.333 -44 -54s-15.5 -43 -15.5 -67c0 -35.333 12.333 -66 37 -92s61 -49 109 -69zM930.001 826c116.667 -39.333 204.167 -90.333 262.5 -153s87.5 -139.334 87.5 -230.001c0 -70 -13.667 -133.167 -41 -189.5s-65.666 -104.166 -114.999 -143.499
s-108.666 -69.5 -177.999 -90.5s-146 -31.5 -230 -31.5h-15l-27 -126h-140l30 140c-59.333 11.333 -113.5 29.333 -162.5 54s-91 54.834 -126 90.501s-62.5 76.334 -82.5 122.001s-31 95.167 -33 148.5h284c5.33301 -44 22.833 -81.333 52.5 -112s68.834 -53 117.501 -67
l80 378l-60 20c-105.333 35.333 -186 86.333 -242 153s-84 143.667 -84 231c0 64 12.833 122.667 38.5 176s62.167 99.166 109.5 137.499s104.166 68.166 170.499 89.499s140.166 32 221.499 32h25l28 133h140l-32 -151c54 -13.333 103.167 -32.666 147.5 -57.999
s82.166 -55.5 113.499 -90.5s55.666 -74.333 72.999 -118s26.333 -90.167 27 -139.5h-277c-5.33301 40 -19.666 74.167 -42.999 102.5s-54 50.166 -92 65.499l-76 -357z" />
    <glyph glyph-name="percent" unicode="%" horiz-adv-x="1806" 
d="M616 1285c-20 0 -38.8301 -5.83398 -56.4971 -17.501s-33.334 -27.5 -47.001 -47.5s-24.334 -43.167 -32.001 -69.5s-11.5 -54.5 -11.5 -84.5c0 -40.667 8.33301 -72.667 25 -96s39.667 -35 69 -35c20 0 38.667 5.83301 56 17.5s32.666 27.5 45.999 47.5
s23.833 43.5 31.5 70.5s11.5 55.5 11.5 85.5c0 40.667 -8 72.334 -24 95.001s-38.667 34 -68 34zM176.003 -0.000976562l731 761l579 682h314l-744 -770l-566 -673h-314zM554.003 741.999c-46.667 0 -88.8301 7.50098 -126.497 22.501s-69.834 36.5 -96.501 64.5
s-47.167 61.833 -61.5 101.5s-21.5 84.167 -21.5 133.5c0 58 9.66699 112 29 162s45.666 93.5 78.999 130.5s72.833 66.167 118.5 87.5s94.834 32 147.501 32c46.667 0 89 -7.5 127 -22.5s70.333 -36.5 97 -64.5s47.167 -61.833 61.5 -101.5s21.5 -83.834 21.5 -132.501
c0 -58 -9.66699 -112.167 -29 -162.5s-45.833 -94 -79.5 -131s-73.334 -66.167 -119.001 -87.5s-94.834 -32 -147.501 -32zM1412.01 509c-20 0 -38.8301 -5.83398 -56.4971 -17.501s-33.334 -27.5 -47.001 -47.5s-24.334 -43.167 -32.001 -69.5s-11.5 -54.5 -11.5 -84.5
c0 -40.667 8.16699 -72.5 24.5 -95.5s39.166 -34.5 68.499 -34.5c20 0 38.833 5.83301 56.5 17.5s33.167 27.5 46.5 47.5s23.833 43.333 31.5 70s11.5 55 11.5 85c0 40.667 -8 72.334 -24 95.001s-38.667 34 -68 34zM1349.01 -34.001
c-46.667 0 -88.8359 7.66699 -126.503 23s-69.834 37 -96.501 65s-47.167 61.833 -61.5 101.5s-21.5 84.167 -21.5 133.5c0 58 9.66699 112 29 162s45.833 93.5 79.5 130.5s73.334 66.167 119.001 87.5s94.834 32 147.501 32c46.667 0 88.834 -7.66699 126.501 -23
s69.834 -37 96.501 -65s47.334 -61.833 62.001 -101.5s22 -83.834 22 -132.501c0 -58 -9.66699 -112 -29 -162s-46 -93.667 -80 -131s-73.833 -66.666 -119.5 -87.999s-94.834 -32 -147.501 -32z" />
    <glyph glyph-name="ampersand" unicode="&#x26;" horiz-adv-x="1525" 
d="M663 1089c0 -27.333 7 -55.668 21 -85.001s37.333 -65 70 -107c84 28.667 144.333 63.334 181 104.001s55 84.667 55 132c0 40 -13.667 71.667 -41 95s-63 35 -107 35c-24.667 0 -47.834 -4.5 -69.501 -13.5s-40.667 -21.5 -57 -37.5s-29.166 -34.5 -38.499 -55.5
s-14 -43.5 -14 -67.5zM633 188.998c42 0 86.001 5.33301 132.001 16s89 28 129 52l-262 387l-10 -3.5l-14.5 -5l-14.5 -5c-4.66699 -1.66699 -7.33398 -2.5 -8.00098 -2.5c-70.667 -26 -124 -59.333 -160 -100s-54 -86 -54 -136c0 -29.333 6.16699 -56.333 18.5 -81
s30 -46 53 -64s50.5 -32.167 82.5 -42.5s68 -15.5 108 -15.5zM1009 75.998c-58 -34 -120.999 -59.8369 -188.999 -77.5039s-138.333 -26.5 -211 -26.5s-140.167 10 -202.5 30s-116.333 47.5 -162 82.5s-81.5 76.667 -107.5 125s-39 100.833 -39 157.5
c0 93.333 29.5 175.333 88.5 246s148.5 129.334 268.5 176.001l72 29c-40.667 58 -70.167 110.333 -88.5 157s-27.5 92.334 -27.5 137.001c0 50 10.833 96.5 32.5 139.5s51.667 80.333 90 112s83.666 56.5 135.999 74.5s109.166 27 170.499 27
c57.333 0 110.333 -7.66699 159 -23s90.834 -36.666 126.501 -63.999s63.667 -59.666 84 -96.999s30.5 -78 30.5 -122c0 -85.333 -30.667 -163.833 -92 -235.5s-157 -132.167 -287 -181.5l218 -311c32.667 42.667 58.667 88.667 78 138s31 102.666 35 159.999l3 33h244
l-3 -38c-9.33301 -96 -33.5 -185.167 -72.5 -267.5s-90.5 -157.166 -154.5 -224.499l155 -232h-304z" />
    <glyph glyph-name="quotesingle" unicode="'" horiz-adv-x="553" 
d="M255 831l129 612h250l-129 -612h-250z" />
    <glyph glyph-name="parenleft" unicode="(" horiz-adv-x="803" 
d="M299 -277c-18 35.333 -34.167 75.5039 -48.5 120.504s-26.666 92.667 -36.999 143s-18.333 102.166 -24 155.499s-8.5 105.666 -8.5 156.999c0 106.667 10.5 212.5 31.5 317.5s51.5 206.5 91.5 304.5s89.167 191 147.5 279s125.166 168.667 200.499 242h308
c-71.333 -70 -136.333 -148.5 -195 -235.5s-109 -180.333 -151 -280s-74.667 -204.334 -98 -314.001s-35 -222.5 -35 -338.5c0 -190.667 29.333 -374.334 88 -551.001h-270z" />
    <glyph glyph-name="parenright" unicode=")" horiz-adv-x="802" 
d="M582 1442c18 -35.333 34.167 -75.5029 48.5 -120.503s26.666 -92.667 36.999 -143s18.333 -102.166 24 -155.499s8.5 -105.666 8.5 -156.999c0 -106.667 -10.5 -212.334 -31.5 -317.001s-51.5 -206 -91.5 -304s-89.167 -191.167 -147.5 -279.5
s-125.166 -169.166 -200.499 -242.499h-308c70.667 70 135.5 148.5 194.5 235.5s109.5 180.333 151.5 280s74.667 204.5 98 314.5s35 222.667 35 338c0 190.667 -29.333 374.334 -88 551.001h270z" />
    <glyph glyph-name="asterisk" unicode="*" horiz-adv-x="1032" 
d="M699 911l-26 -296l-202 5l103 304l-281 -165l-64 195l307 88l-257 142l140 174l202 -215l26 303l202 -5l-105 -310l283 167l64 -194l-307 -87l256 -143l-139 -174z" />
    <glyph glyph-name="plus" unicode="+" horiz-adv-x="1415" 
d="M770 46h-261l87 409h-405l53 258h405l87 408h261l-87 -408h413l-53 -258h-413z" />
    <glyph glyph-name="comma" unicode="," horiz-adv-x="722" 
d="M32 -388l213 635h288l-267 -635h-234z" />
    <glyph glyph-name="hyphen" unicode="-" horiz-adv-x="992" 
d="M188 446l57 273h657l-57 -273h-657z" />
    <glyph glyph-name="period" unicode="." horiz-adv-x="712" 
d="M299 -27c-26.667 0 -50.834 4.49902 -72.501 13.499s-40.334 21.333 -56.001 37s-27.667 33.667 -36 54s-12.5 41.5 -12.5 63.5c0 25.333 4.16699 49 12.5 71s20.333 41 36 57s34.334 28.5 56.001 37.5s45.834 13.5 72.501 13.5s51 -4.5 73 -13.5
s40.667 -21.167 56 -36.5s27.166 -33.166 35.499 -53.499s12.5 -41.833 12.5 -64.5c0 -25.333 -4.16699 -48.833 -12.5 -70.5s-20.166 -40.5 -35.499 -56.5s-34 -28.667 -56 -38s-46.333 -14 -73 -14z" />
    <glyph glyph-name="slash" unicode="/" horiz-adv-x="772" 
d="M-95 -288l783 1731h275l-789 -1731h-269z" />
    <glyph glyph-name="zero" unicode="0" horiz-adv-x="1401" 
d="M684 -37c-77.333 0 -146.835 13 -208.502 39s-114.167 63.333 -157.5 112s-76.666 107.334 -99.999 176.001s-35 146 -35 232c0 92 8.16699 179.667 24.5 263s39.333 160.5 69 231.5s65.5 135 107.5 192s88.833 105.667 140.5 146s107.334 71.333 167.001 93
s122.5 32.5 188.5 32.5c77.333 0 147 -13 209 -39s114.833 -63.333 158.5 -112s77.167 -107.334 100.5 -176.001s35 -146 35 -232c0 -92.667 -8.16699 -180.667 -24.5 -264s-39.333 -160.333 -69 -231s-65.5 -134.667 -107.5 -192s-88.833 -106 -140.5 -146
s-107.667 -70.833 -168 -92.5s-123.5 -32.5 -189.5 -32.5zM486.998 506c0 -92.667 18 -165 54 -217s86.667 -78 152 -78c51.333 0 100.333 19.667 147 59s87.667 92.333 123 159s63.5 143.834 84.5 231.501s31.5 180.167 31.5 277.5c0 92 -18 163.833 -54 215.5
s-86.667 77.5 -152 77.5c-34 0 -67.167 -9 -99.5 -27s-62.833 -43 -91.5 -75s-55 -70.333 -79 -115s-44.5 -93.834 -61.5 -147.501s-30.333 -111 -40 -172s-14.5 -123.833 -14.5 -188.5z" />
    <glyph glyph-name="one" unicode="1" horiz-adv-x="1051" 
d="M663 1134h-18l-406 -242l60 294l429 257h301l-307 -1443h-302z" />
    <glyph glyph-name="two" unicode="2" horiz-adv-x="1318" 
d="M270 1021c6 66.667 24.1699 128.165 54.5029 184.498s70.166 104.833 119.499 145.5s106.666 72.334 171.999 95.001s136 34 212 34c70 0 134.5 -9.83301 193.5 -29.5s110.167 -47 153.5 -82s77.166 -76.5 101.499 -124.5s36.5 -100.333 36.5 -157
c0 -46 -7.16699 -89 -21.5 -129s-38.5 -81.5 -72.5 -124.5s-79.333 -89.667 -136 -140s-127.334 -109.166 -212.001 -176.499l-316 -250l-4 -18h630l-51 -249h-1049l47 224l556 448l164 137c42.667 37.333 76.334 70.166 101.001 98.499s41.667 54.166 51 77.499
s14 48 14 74s-5.16699 49.833 -15.5 71.5s-25 40.334 -44 56.001s-41.5 27.834 -67.5 36.501s-54.333 13 -85 13c-32 0 -61.833 -5 -89.5 -15s-52.5 -24.167 -74.5 -42.5s-40.667 -40.5 -56 -66.5s-26 -54.667 -32 -86l-1 -5h-279v0z" />
    <glyph glyph-name="three" unicode="3" horiz-adv-x="1366" 
d="M601 855l192.002 0.00488281c38.667 0 74.167 5 106.5 15s59.833 24.333 82.5 43s40.334 40.834 53.001 66.501s19 54.167 19 85.5c0 26 -5.33301 49.667 -16 71s-25.834 39.666 -45.501 54.999s-43.334 27.166 -71.001 35.499s-58.167 12.5 -91.5 12.5
c-29.333 0 -57 -4.16699 -83 -12.5s-49.833 -20 -71.5 -35s-40.5 -33 -56.5 -54s-28 -44.5 -36 -70.5h-279c12.667 62.667 35.334 119.5 68.001 170.5s73 94.5 121 130.5s102.667 63.667 164 83s127.666 29 198.999 29s137 -9.33301 197 -28s111.667 -44.834 155 -78.501
s77.166 -73.667 101.499 -120s36.5 -96.833 36.5 -151.5c0 -46.667 -8.5 -90.667 -25.5 -132s-40.5 -78.333 -70.5 -111s-65.833 -59.667 -107.5 -81s-86.834 -35 -135.501 -41l-3 -18c80.667 -18.667 142.667 -53.5 186 -104.5s65 -115.833 65 -194.5
c0 -66.667 -14.333 -128 -43 -184s-68.5 -104.167 -119.5 -144.5s-111.667 -71.833 -182 -94.5s-147.166 -34 -230.499 -34c-79.333 0 -152 10.167 -218 30.5s-122.833 49 -170.5 86s-84.834 81.167 -111.501 132.5s-40 107.666 -40 168.999c0 8 0.5 17 1.5 27
s2.16699 21 3.5 33h284v-3c-3.33301 -32 0.666992 -61.5 12 -88.5s28.333 -50.5 51 -70.5s50.334 -35.667 83.001 -47s69 -17 109 -17c40.667 0 77.667 5.66699 111 17s61.833 27.166 85.5 47.499s42 44.666 55 72.999s19.5 59.833 19.5 94.5
c0 26.667 -5.83301 51.167 -17.5 73.5s-28.167 41.5 -49.5 57.5s-46.833 28.5 -76.5 37.5s-62.167 13.5 -97.5 13.5h-159z" />
    <glyph glyph-name="four" unicode="4" horiz-adv-x="1413" 
d="M804 252h-709l49 279c90.667 120.667 199 256 325 406l436 506h439l-201 -940h189l-52 -251h-188l-55 -252h-288zM416 494h444l154 714h-16l-131.5 -150l-137.5 -160.5l-147.5 -180l-162.5 -207.5z" />
    <glyph glyph-name="five" unicode="5" horiz-adv-x="1361" 
d="M693 -37c-75.333 0 -144.83 10.668 -208.497 32.001s-118.834 51 -165.501 89s-83.167 83 -109.5 135s-39.5 108.667 -39.5 170v8.5v3.5c0 1.33301 0.166992 3.66602 0.5 6.99902s0.833008 9.66602 1.5 18.999h279v-3c0.666992 -31.333 7.5 -60.166 20.5 -86.499
s30.833 -48.833 53.5 -67.5s49.5 -33.167 80.5 -43.5s65.167 -15.5 102.5 -15.5c42 0 80.833 7.5 116.5 22.5s66.167 35.667 91.5 62s45.166 57.5 59.499 93.5s21.5 75.333 21.5 118c0 36 -6 68.333 -18 97s-28.667 53.167 -50 73.5s-46.833 35.833 -76.5 46.5
s-61.834 16 -96.501 16c-47.333 0 -92.166 -9.83301 -134.499 -29.5s-76.833 -45.5 -103.5 -77.5h-277l242 810h899l-53 -251h-656l-111 -347l17 -1c37.333 37.333 80.5 65.666 129.5 84.999s102.167 29 159.5 29c58 0 112.333 -10.5 163 -31.5s94.834 -50 132.501 -87
s67.167 -81.167 88.5 -132.5s32 -107 32 -167c0 -84 -14.167 -161.167 -42.5 -231.5s-68.333 -131.166 -120 -182.499s-113.834 -91.333 -186.501 -120s-153.334 -43 -242.001 -43z" />
    <glyph glyph-name="six" unicode="6" horiz-adv-x="1406" 
d="M1315 523c0 -79.333 -15.0049 -153.002 -45.0049 -221.002s-71.167 -127.167 -123.5 -177.5s-114.166 -89.833 -185.499 -118.5s-148 -43 -230 -43c-84 0 -159.5 13.167 -226.5 39.5s-123.667 64.5 -170 114.5s-82 110.833 -107 182.5s-37.5 152.5 -37.5 242.5
c0 126 16.667 245 50 357s80.333 211 141 297c64 91.333 140.667 161.5 230 210.5s187.666 73.5 294.999 73.5c72 0 138.5 -10.667 199.5 -32s113.833 -51 158.5 -89s79.834 -83.167 105.501 -135.5s39.167 -109.5 40.5 -171.5h-294c-4 27.333 -12.167 52 -24.5 74
s-28.166 40.833 -47.499 56.5s-42.166 27.667 -68.499 36s-54.833 12.5 -85.5 12.5c-46.667 0 -90.5 -10.667 -131.5 -32s-78.167 -52 -111.5 -92s-62.166 -88.5 -86.499 -145.5s-42.833 -121.167 -55.5 -192.5l18 -1c42.667 58.667 95 103.334 157 134.001
s130.333 46 205 46c62.667 0 120.334 -10.5 173.001 -31.5s98 -50.167 136 -87.5s67.667 -82.166 89 -134.499s32 -109.5 32 -171.5zM780.995 722.998c-41.333 0 -79.835 -7.33496 -115.502 -22.002s-66.667 -34.667 -93 -60s-47.166 -55.166 -62.499 -89.499
s-23 -71.5 -23 -111.5c0 -34 6 -65 18 -93s29 -52.333 51 -73s48.167 -36.667 78.5 -48s63.833 -17 100.5 -17c40 0 77.5 7.33301 112.5 22s65.167 34.834 90.5 60.501s45.333 56 60 91s22 72.833 22 113.5c0 33.333 -5.83301 63.833 -17.5 91.5s-28.167 51.5 -49.5 71.5
s-46.666 35.667 -75.999 47s-61.333 17 -96 17z" />
    <glyph glyph-name="seven" unicode="7" horiz-adv-x="1239" 
d="M988 1176l4 19h-703l52 248h1017l-52 -251l-858 -1192h-328z" />
    <glyph glyph-name="eight" unicode="8" horiz-adv-x="1416" 
d="M1298 411c0 -65.333 -14.998 -125.333 -44.998 -180s-71.833 -101.834 -125.5 -141.501s-117.334 -70.667 -191.001 -93s-154.5 -33.5 -242.5 -33.5c-82 0 -157.333 9.83301 -226 29.5s-127.834 47.334 -177.501 83.001s-88.167 78.167 -115.5 127.5
s-41 103.666 -41 162.999c0 52.667 9.66699 102.167 29 148.5s46.5 87.833 81.5 124.5s77.167 67.167 126.5 91.5s103.666 40.833 162.999 49.5l4 17c-30 12 -57.167 27.5 -81.5 46.5s-45 40.167 -62 63.5s-30.167 48.5 -39.5 75.5s-14 54.833 -14 83.5
c0 60 13.667 115.167 41 165.5s65 94 113 131s105.167 65.833 171.5 86.5s138.5 31 216.5 31c70.667 0 136.834 -9.5 198.501 -28.5s115 -45.333 160 -79s80.5 -73.167 106.5 -118.5s39 -94.333 39 -147c0 -46 -7.83301 -89.167 -23.5 -129.5s-38 -76.166 -67 -107.499
s-63.833 -57.833 -104.5 -79.5s-85.667 -36.5 -135 -44.5l-4 -18c38 -13.333 72.167 -30.5 102.5 -51.5s56 -45.167 77 -72.5s37.167 -57.333 48.5 -90s17 -67 17 -103zM734.002 638c-40.667 0 -78.1699 -6.16504 -112.503 -18.498s-64.166 -29.166 -89.499 -50.499
s-45.166 -46.833 -59.499 -76.5s-21.5 -61.834 -21.5 -96.501c0 -30.667 6 -58.5 18 -83.5s29.167 -46.333 51.5 -64s49.333 -31.334 81 -41.001s66.834 -14.5 105.501 -14.5c40.667 0 78.5 6 113.5 18s65 28.667 90 50s44.667 46.666 59 75.999s21.5 61.333 21.5 96
c0 30 -6.33301 57.667 -19 83s-30.167 47 -52.5 65s-49.333 32 -81 42s-66.5 15 -104.5 15zM628.999 1035c0 -26 5.33496 -49.834 16.002 -71.501s25.5 -40.5 44.5 -56.5s41.667 -28.333 68 -37s55.166 -13 86.499 -13c34 0 65.833 5.66699 95.5 17s55.5 26.833 77.5 46.5
s39.167 42.834 51.5 69.501s18.5 55.334 18.5 86.001c0 26 -5.33301 49.833 -16 71.5s-25.5 40.5 -44.5 56.5s-41.667 28.333 -68 37s-55.166 13 -86.499 13c-34.667 0 -66.834 -5.5 -96.501 -16.5s-55.334 -26.333 -77.001 -46s-38.667 -42.834 -51 -69.501
s-18.5 -55.667 -18.5 -87z" />
    <glyph glyph-name="nine" unicode="9" horiz-adv-x="1404" 
d="M782 717c40.667 0 78.835 7.33691 114.502 22.0039s66.667 34.667 93 60s47 55.166 62 89.499s22.5 71.5 22.5 111.5c0 34 -5.83301 65.167 -17.5 93.5s-28.334 52.5 -50.001 72.5s-47.5 35.667 -77.5 47s-63 17 -99 17c-40 0 -77.5 -7.33301 -112.5 -22
s-65.333 -34.834 -91 -60.501s-45.834 -55.834 -60.501 -90.501s-22 -72.334 -22 -113.001c0 -33.333 5.83301 -63.833 17.5 -91.5s28 -51.5 49 -71.5s46.167 -35.667 75.5 -47s61.333 -17 96 -17zM248.001 918.004c0 80.667 14.833 155.334 44.5 224.001
s70.834 128 123.501 178s114.667 89.167 186 117.5s149 42.5 233 42.5c83.333 0 158.166 -13.333 224.499 -40s122.5 -65 168.5 -115s81.333 -111 106 -183s37 -153.667 37 -245c0 -124 -16.667 -241.833 -50 -353.5s-80.333 -210.5 -141 -296.5
c-64 -91.333 -140.333 -161.5 -229 -210.5s-185.667 -73.5 -291 -73.5c-71.333 0 -137.333 10.333 -198 31s-113.667 49.5 -159 86.5s-81.333 81 -108 132s-41.334 106.5 -44.001 166.5h295c2.66699 -26 10.167 -49.333 22.5 -70s28.5 -38.167 48.5 -52.5
s43.5 -25.5 70.5 -33.5s56.833 -12 89.5 -12c48 0 93 10.833 135 32.5s79.667 52.5 113 92.5s62 88.333 86 145s41.667 120 53 190l-17 1c-43.333 -58.667 -95.666 -103.334 -156.999 -134.001s-129 -46 -203 -46c-63.333 0 -121.833 10.667 -175.5 32
s-100 50.833 -139 88.5s-69.5 82.5 -91.5 134.5s-33 109 -33 171z" />
    <glyph glyph-name="colon" unicode=":" horiz-adv-x="712" 
d="M299 -27c-26.667 0 -50.834 4.49902 -72.501 13.499s-40.334 21.333 -56.001 37s-27.667 33.667 -36 54s-12.5 41.5 -12.5 63.5c0 25.333 4.16699 49 12.5 71s20.333 41 36 57s34.334 28.5 56.001 37.5s45.834 13.5 72.501 13.5s51 -4.5 73 -13.5
s40.667 -21.167 56 -36.5s27.166 -33.166 35.499 -53.499s12.5 -41.833 12.5 -64.5c0 -25.333 -4.16699 -48.833 -12.5 -70.5s-20.166 -40.5 -35.499 -56.5s-34 -28.667 -56 -38s-46.333 -14 -73 -14zM455 710.999c-26.667 0 -50.834 4.5 -72.501 13.5
s-40.334 21.167 -56.001 36.5s-27.667 33.166 -36 53.499s-12.5 41.833 -12.5 64.5c0 25.333 4.16699 48.833 12.5 70.5s20.333 40.5 36 56.5s34.334 28.667 56.001 38s45.834 14 72.501 14s51 -4.5 73 -13.5s40.667 -21.167 56 -36.5s27.166 -33.166 35.499 -53.499
s12.5 -41.833 12.5 -64.5c0 -25.333 -4.16699 -48.833 -12.5 -70.5s-20.166 -40.5 -35.499 -56.5s-34 -28.667 -56 -38s-46.333 -14 -73 -14z" />
    <glyph glyph-name="semicolon" unicode=";" horiz-adv-x="712" 
d="M-14 -388l213 635h288l-267 -635h-234zM456 711c-26.667 0 -50.834 4.5 -72.501 13.5s-40.334 21.167 -56.001 36.5s-27.667 33.166 -36 53.499s-12.5 41.833 -12.5 64.5c0 25.333 4.16699 48.833 12.5 70.5s20.333 40.5 36 56.5s34.334 28.667 56.001 38
s45.834 14 72.501 14s50.834 -4.5 72.501 -13.5s40.334 -21.167 56.001 -36.5s27.667 -33.166 36 -53.499s12.5 -41.833 12.5 -64.5c0 -25.333 -4.16699 -48.833 -12.5 -70.5s-20.333 -40.5 -36 -56.5s-34.334 -28.667 -56.001 -38s-45.834 -14 -72.501 -14z" />
    <glyph glyph-name="less" unicode="&#x3c;" horiz-adv-x="1415" 
d="M1106 -39l-848 530l48 235l1059 461l-63 -306l-723 -278l-3 -19l589 -331z" />
    <glyph glyph-name="equal" unicode="=" horiz-adv-x="1416" 
d="M144 216l53 259h1073l-53 -259h-1073zM244 695l53 259h1073l-53 -259h-1073z" />
    <glyph glyph-name="greater" unicode="&#x3e;" horiz-adv-x="1415" 
d="M404 1187l848 -530l-48 -234l-1060 -462l63 307l723 278l4 18l-590 332z" />
    <glyph glyph-name="question" unicode="?" horiz-adv-x="1141" 
d="M232 1053c8 58.667 25.4951 112.833 52.4951 162.5s61.833 92.167 104.5 127.5s93 63 151 83s122 30 192 30c70.667 0 134.834 -9 192.501 -27s106.834 -43 147.501 -75s72.167 -70 94.5 -114s33.5 -92 33.5 -144c0 -42 -6.33301 -82.667 -19 -122
s-31.167 -76 -55.5 -110s-54.166 -65 -89.499 -93s-75.333 -52 -120 -72c-37.333 -16 -68.833 -31.333 -94.5 -46s-47 -29.834 -64 -45.501s-30.167 -32.667 -39.5 -51s-16.333 -39.5 -21 -63.5l-8 -42h-271l12 63c8 44.667 18.333 83.5 31 116.5s28.834 62 48.501 87
s43.667 46.833 72 65.5s61.833 36.667 100.5 54c40.667 18.667 74.834 37 102.501 55s50 36.333 67 55s29.333 38.334 37 59.001s11.5 42.667 11.5 66c0 20 -4.16699 38.667 -12.5 56s-20.166 32.5 -35.499 45.5s-34.5 23.333 -57.5 31s-48.833 11.5 -77.5 11.5
c-25.333 0 -49.333 -3.83301 -72 -11.5s-43.334 -18.5 -62.001 -32.5s-34.667 -31 -48 -51s-23.333 -42.667 -30 -68h-273zM493.995 -29.001c-27.333 0 -52.333 3.99902 -75 11.999s-42.167 19.167 -58.5 33.5s-29 31.5 -38 51.5s-13.5 42 -13.5 66c0 26 4.5 50 13.5 72
s21.667 41 38 57s35.833 28.5 58.5 37.5s47.667 13.5 75 13.5c26 0 50.167 -4 72.5 -12s41.833 -19.167 58.5 -33.5s29.667 -31.5 39 -51.5s14 -42 14 -66c0 -25.333 -4.5 -48.833 -13.5 -70.5s-21.5 -40.667 -37.5 -57s-35.333 -29.166 -58 -38.499s-47.667 -14 -75 -14z
" />
    <glyph glyph-name="at" unicode="@" horiz-adv-x="1899" 
d="M1136 1444c109.333 0 209.997 -16.6699 301.997 -50.0029s171.167 -80 237.5 -140s118.166 -131.333 155.499 -214s56 -173.334 56 -272.001c0 -89.333 -12 -172.166 -36 -248.499s-57.333 -142.666 -100 -198.999s-92.834 -100.5 -150.501 -132.5
s-120.167 -48 -187.5 -48c-35.333 0 -67.666 4 -96.999 12s-54.666 19.167 -75.999 33.5s-38 31.5 -50 51.5s-18 42 -18 66c0 4.66699 0.166992 9.16699 0.5 13.5s0.5 8.16602 0.5 11.499l-18 -3c-28 -48.667 -61.667 -84.5 -101 -107.5s-84.333 -34.5 -135 -34.5
c-45.333 0 -86.5 8.16699 -123.5 24.5s-68.5 39.333 -94.5 69s-46.167 65.667 -60.5 108s-21.5 89.5 -21.5 141.5c0 68.667 10.333 132.834 31 192.501s49 111.667 85 156s78.167 79.166 126.5 104.499s100.5 38 156.5 38c29.333 0 57 -3.83301 83 -11.5
s49.333 -18.5 70 -32.5s38.167 -30.833 52.5 -50.5s24.166 -41.5 29.499 -65.5l18 -1l25 125h207l-121 -557c-2 -9.33301 -3.33301 -17 -4 -23s-1 -11 -1 -15c0 -26 7.33301 -46 22 -60s36 -21 64 -21c31.333 0 61.5 12.667 90.5 38s54.667 59 77 101
s40.166 90.5 53.499 145.5s20 112.167 20 171.5c0 76.667 -14.167 146.834 -42.5 210.501s-68.166 118.5 -119.499 164.5s-112.666 81.667 -183.999 107s-149.666 38 -234.999 38c-69.333 0 -135.666 -8.83301 -198.999 -26.5s-122.333 -42.834 -177 -75.501
s-104.334 -71.834 -149.001 -117.501s-83 -96.5 -115 -152.5s-56.667 -116.5 -74 -181.5s-26 -132.833 -26 -203.5c0 -91.333 16.167 -173.666 48.5 -246.999s78.333 -136 138 -188s131.667 -92 216 -120s178.833 -42 283.5 -42c32 0 61.667 1.33301 89 4
s48.666 6.33398 63.999 11.001l-34 -163c-28 -5.33301 -56.5 -9.33301 -85.5 -12s-59.167 -4 -90.5 -4c-120 0 -229.667 18.167 -329 54.5s-184.666 87.333 -255.999 153s-126.666 144.334 -165.999 236.001s-59 193.167 -59 304.5c0 88.667 10.667 173.334 32 254.001
s51.833 155.5 91.5 224.5s87.5 131.5 143.5 187.5s118.667 103.833 188 143.5s144.333 70.167 225 91.5s165.334 32 254.001 32zM1203 648.997c0 54 -13.332 96.6689 -39.999 128.002s-62.667 47 -108 47c-29.333 0 -56.666 -7.5 -81.999 -22.5s-47.333 -35.5 -66 -61.5
s-33.5 -56.5 -44.5 -91.5s-16.5 -72.5 -16.5 -112.5c0 -52 13.167 -93.167 39.5 -123.5s62.166 -45.5 107.499 -45.5c29.333 0 56.666 7.33301 81.999 22s47.5 34.667 66.5 60s34 55.166 45 89.499s16.5 71.166 16.5 110.499z" />
    <glyph glyph-name="A" unicode="A" horiz-adv-x="1501" 
d="M1007 344h-509l-186 -344h-315l820 1443h349l187 -1443h-311zM612 577h381l-58 565h-19z" />
    <glyph glyph-name="B" unicode="B" horiz-adv-x="1420" 
d="M100 0l307 1443h589c62 0 118.333 -7.5 169 -22.5s94.167 -36.167 130.5 -63.5s64.333 -60 84 -98s29.5 -80.333 29.5 -127c0 -47.333 -8 -92 -24 -134s-38.5 -79.333 -67.5 -112s-63.5 -59.667 -103.5 -81s-83.667 -35.333 -131 -42l-2 -19
c40 -7.33301 75.833 -19.5 107.5 -36.5s58.667 -37.833 81 -62.5s39.5 -53 51.5 -85s18 -66.667 18 -104c0 -66.667 -13.5 -127.834 -40.5 -183.501s-64.833 -103.667 -113.5 -144s-106.5 -71.833 -173.5 -94.5s-140.5 -34 -220.5 -34h-691zM584 851.001h240.002
c41.333 0 79.166 5.33301 113.499 16s64 25.5 89 44.5s44.333 41.5 58 67.5s20.5 54.667 20.5 86c0 50 -18.333 88.167 -55 114.5s-90.334 39.5 -161.001 39.5h-225zM739.002 237.001c42.667 0 82 5.83008 118 17.4971s67.167 27.834 93.5 48.501s46.833 45.334 61.5 74.001
s22 60.334 22 95.001c0 56.667 -20 100 -60 130s-98 45 -174 45h-259l-89 -410h287z" />
    <glyph glyph-name="C" unicode="C" horiz-adv-x="1532" 
d="M1259 946c-2 40 -10.6699 76.332 -26.0029 108.999s-36.333 60.667 -63 84s-58.334 41.333 -95.001 54s-77 19 -121 19c-65.333 0 -126.333 -15.833 -183 -47.5s-105.834 -75.334 -147.501 -131.001s-74.5 -121.5 -98.5 -197.5s-36 -158.333 -36 -247
c0 -55.333 7.33301 -105.166 22 -149.499s35.667 -82 63 -113s60.333 -54.833 99 -71.5s82.334 -25 131.001 -25c40.667 0 79.834 5.5 117.501 16.5s71.834 26.833 102.501 47.5s57.334 45.334 80.001 74.001s40 60.667 52 96h299c-16 -76 -43.833 -144.833 -83.5 -206.5
s-89 -114.334 -148 -158.001s-126.167 -77.334 -201.5 -101.001s-156.666 -35.5 -243.999 -35.5c-90.667 0 -172.834 14.333 -246.501 43s-136.5 69.334 -188.5 122.001s-92.167 116.167 -120.5 190.5s-42.5 157.5 -42.5 249.5c0 133.333 19.667 255.833 59 367.5
s94.333 207.834 165 288.501s154.334 143.5 251.001 188.5s202.667 67.5 318 67.5c82.667 0 159.5 -12.833 230.5 -38.5s132.5 -61.167 184.5 -106.5s92.833 -98.833 122.5 -160.5s44.5 -128.167 44.5 -199.5v-21.5c0 -7 -0.666992 -14.167 -2 -21.5h-294v14z" />
    <glyph glyph-name="D" unicode="D" horiz-adv-x="1535" 
d="M918 1443c92 0 174.501 -13.334 247.501 -40.001s135 -65.167 186 -115.5s90 -111.833 117 -184.5s40.5 -155 40.5 -247c0 -82.667 -8.5 -161.167 -25.5 -235.5s-41.167 -143.166 -72.5 -206.499s-69.333 -120.5 -114 -171.5s-95 -94.5 -151 -130.5
s-116.833 -63.667 -182.5 -83s-134.834 -29 -207.501 -29h-655l306 1443h511zM459.001 256.999l270.001 0.000976562c68 0 130.667 13.5 188 40.5s106.833 65.333 148.5 115s74.167 109.167 97.5 178.5s35 146.333 35 231c0 56 -7.83301 106.667 -23.5 152
s-38.334 83.666 -68.001 114.999s-66 55.5 -109 72.5s-91.833 25.5 -146.5 25.5h-191z" />
    <glyph glyph-name="E" unicode="E" horiz-adv-x="1273" 
d="M1057 0h-957l307 1443h956l-53 -258h-652l-75 -337h616l-50 -239h-615l-78 -351h653z" />
    <glyph glyph-name="F" unicode="F" horiz-adv-x="1235" 
d="M100 0l307 1443h945l-53 -258h-641l-83 -376h585l-51 -247h-585l-120 -562h-304z" />
    <glyph glyph-name="G" unicode="G" horiz-adv-x="1566" 
d="M1497 576c-19.333 -100 -49.333 -188.168 -90 -264.501s-90.834 -140.333 -150.501 -192s-128.667 -90.667 -207 -117s-164.833 -39.5 -259.5 -39.5c-91.333 0 -174.5 14.5 -249.5 43.5s-139 70.333 -192 124s-94 118 -123 193s-43.5 158.5 -43.5 250.5
c0 88.667 8.83301 172.667 26.5 252s43 152.5 76 219.5s73 127.333 120 181s99.667 99.334 158 137.001s122 66.5 191 86.5s141.833 30 218.5 30c80 0 155 -12 225 -36s131.167 -57.167 183.5 -99.5s94 -92.166 125 -149.499s47.5 -119 49.5 -185
c0.666992 -4.66699 0.833984 -9.83398 0.500977 -15.501s-0.5 -11.5 -0.5 -17.5h-294c-2 34.667 -11 66.334 -27 95.001s-37.5 53.334 -64.5 74.001s-59 36.667 -96 48s-77.167 17 -120.5 17c-66 0 -127.167 -15.5 -183.5 -46.5s-105.166 -73.833 -146.499 -128.5
s-73.666 -119.667 -96.999 -195s-35 -157.333 -35 -246c0 -56 7.66699 -106.333 23 -151s37.166 -82.834 65.499 -114.501s62.666 -55.834 102.999 -72.501s85.5 -25 135.5 -25c46.667 0 90.667 6.5 132 19.5s78 31.667 110 56s59 53.5 81 87.5s37.333 72 46 114l5 25h-307
l47 226h602z" />
    <glyph glyph-name="H" unicode="H" horiz-adv-x="1605" 
d="M1051 0l129 603h-648l-129 -603h-303l307 1443h304l-125 -582h648l125 582h304l-307 -1443h-305z" />
    <glyph glyph-name="I" unicode="I" horiz-adv-x="653" 
d="M100 0l307 1443h304l-307 -1443h-304z" />
    <glyph glyph-name="J" unicode="J" horiz-adv-x="1229" 
d="M379 413l0.000976562 -9c0.666992 -51.333 17 -92 49 -122s75.667 -45 131 -45c111.333 0 182 69.667 212 209l213 997h302l-222 -1042c-30 -142 -88.667 -250.5 -176 -325.5s-201.333 -112.5 -342 -112.5c-70 0 -133.667 10.167 -191 30.5s-106.333 49 -147 86
s-71.834 81.167 -93.501 132.5s-31.5 108 -29.5 170v15.5c0 5 0.333008 10.167 1 15.5h293z" />
    <glyph glyph-name="K" unicode="K" horiz-adv-x="1454" 
d="M100 0l307 1443h301l-136 -635h18l659 635h358l-670 -653l382 -790h-340l-293 606l-192 -182l-92 -424h-302z" />
    <glyph glyph-name="L" unicode="L" horiz-adv-x="1219" 
d="M1044 0h-944l307 1443h303l-253 -1180h641z" />
    <glyph glyph-name="M" unicode="M" horiz-adv-x="1879" 
d="M100 0l307 1443h347l188 -970h18l608 970h368l-307 -1443h-281l207 965h-16l-558 -882h-201l-175 882h-16l-207 -965h-282z" />
    <glyph glyph-name="N" unicode="N" horiz-adv-x="1573" 
d="M100 0l307 1443h231l479 -929h18l202 929h293l-307 -1443h-229l-483 922h-18l-200 -922h-293z" />
    <glyph glyph-name="O" unicode="O" horiz-adv-x="1617" 
d="M805 -37c-94.667 0 -180.333 15.499 -257 46.499s-142.167 73.833 -196.5 128.5s-96.333 119.5 -126 194.5s-44.5 156.167 -44.5 243.5c0 88.667 9.16699 172.5 27.5 251.5s44.166 152 77.499 219s73.833 127.167 121.5 180.5s100.667 98.833 159 136.5
s121.666 66.5 189.999 86.5s139.833 30 214.5 30c96 0 182.333 -15.5 259 -46.5s141.834 -73.833 195.501 -128.5s95 -119.5 124 -194.5s43.5 -156.167 43.5 -243.5c0 -88.667 -9 -172.667 -27 -252s-43.833 -152.5 -77.5 -219.5s-74.167 -127.167 -121.5 -180.5
s-100.166 -98.666 -158.499 -135.999s-121.5 -66 -189.5 -86s-139.333 -30 -214 -30zM1283 843.999c0 54.667 -7.83203 104.501 -23.499 149.501s-37.667 83.5 -66 115.5s-62.333 56.667 -102 74s-83.834 26 -132.501 26c-65.333 0 -126.5 -15.667 -183.5 -47
s-106.5 -74.5 -148.5 -129.5s-75.167 -119.667 -99.5 -194s-36.5 -154.5 -36.5 -240.5c0 -55.333 7.83301 -105.333 23.5 -150s37.667 -83 66 -115s62.5 -56.667 102.5 -74s84.667 -26 134 -26c65.333 0 126.333 15.5 183 46.5s106 73.833 148 128.5s75 119.167 99 193.5
s36 155.166 36 242.499z" />
    <glyph glyph-name="P" unicode="P" horiz-adv-x="1368" 
d="M934 1443c71.333 0 136 -9.99805 194 -29.998s107.667 -48.5 149 -85.5s73.333 -81.333 96 -133s34 -109.5 34 -173.5c0 -88.667 -15.333 -168.334 -46 -239.001s-73.5 -130.834 -128.5 -180.501s-120.667 -87.667 -197 -114s-160.5 -39.5 -252.5 -39.5h-282l-97 -448
h-303l306 1443h527zM550 693.002h229c48 0 91.833 7.16699 131.5 21.5s73.5 34.5 101.5 60.5s49.667 57.333 65 94s23 77.667 23 123c0 66.667 -21 117.167 -63 151.5s-100.333 51.5 -175 51.5h-202z" />
    <glyph glyph-name="Q" unicode="Q" horiz-adv-x="1617" 
d="M1074 -141l-63.001 129.999c-33.333 -9.33301 -67 -16 -101 -20s-69 -6 -105 -6c-94 0 -179.5 15.5 -256.5 46.5s-142.667 73.833 -197 128.5s-96.333 119.334 -126 194.001s-44.5 156 -44.5 244c0 132.667 20.167 254.334 60.5 365.001s95.833 206 166.5 286
s154.167 142.167 250.5 186.5s200.5 66.5 312.5 66.5c96 0 182.333 -15.5 259 -46.5s141.834 -73.833 195.501 -128.5s95 -119.334 124 -194.001s43.5 -156 43.5 -244c0 -82 -8 -160.333 -24 -235s-38.833 -144.167 -68.5 -208.5s-66 -123 -109 -176
s-91.5 -98.833 -145.5 -137.5l116 -251h-288zM815.999 227.999c32.667 0 62.667 3.33301 90 10l-113 243h274l48 -84c54 52 96 116.5 126 193.5s45 161.833 45 254.5c0 56 -7.83301 106.667 -23.5 152s-37.834 84 -66.501 116s-63 56.667 -103 74s-84.333 26 -133 26
c-66 0 -127.667 -15.833 -185 -47.5s-107.166 -75.167 -149.499 -130.5s-75.833 -120.5 -100.5 -195.5s-37 -155.833 -37 -242.5c0 -56 7.83301 -106.667 23.5 -152s38 -84 67 -116s63.5 -56.833 103.5 -74.5s84.667 -26.5 134 -26.5z" />
    <glyph glyph-name="R" unicode="R" horiz-adv-x="1418" 
d="M407 1443l571.001 -0.000976562c66.667 0 127.667 -10 183 -30s103 -48.167 143 -84.5s71 -79.5 93 -129.5s33 -105 33 -165c0 -53.333 -8.33301 -104.666 -25 -153.999s-40.334 -94.833 -71.001 -136.5s-68.167 -78.5 -112.5 -110.5s-93.833 -57 -148.5 -75l198 -558
h-325l-172 523h-258l-112 -523h-304zM563.001 754.999l263.999 0.00195312c44 0 84.167 6.16699 120.5 18.5s67.5 29.666 93.5 51.999s46 48.833 60 79.5s21 64.667 21 102c0 61.333 -18.667 108.666 -56 141.999s-89.666 50 -156.999 50h-248z" />
    <glyph glyph-name="S" unicode="S" horiz-adv-x="1362" 
d="M399 412c5.33301 -31.333 16.668 -59.4971 34.001 -84.4971s39.166 -46.333 65.499 -64s56.5 -31.334 90.5 -41.001s70.667 -14.5 110 -14.5c40.667 0 77.834 4.5 111.501 13.5s62.5 21.833 86.5 38.5s42.667 36.667 56 60s20 49 20 77c0 20.667 -4 39.667 -12 57
s-20.5 33.5 -37.5 48.5s-39.333 29 -67 42s-60.834 25.5 -99.501 37.5l-150 47c-53.333 16.667 -100.833 37.834 -142.5 63.501s-76.667 55.167 -105 88.5s-50 70.333 -65 111s-22.5 84.334 -22.5 131.001c0 66 14.333 127 43 183s68.334 104.167 119.001 144.5
s110.667 72 180 95s144.666 34.5 225.999 34.5c79.333 0 152.166 -11 218.499 -33s123.5 -52.667 171.5 -92s86 -86.333 114 -141s43 -115 45 -181h-285c-4.66699 30 -14.667 57.5 -30 82.5s-35 46.333 -59 64s-51.833 31.334 -83.5 41.001s-66.167 14.5 -103.5 14.5
c-35.333 0 -68.166 -4.33301 -98.499 -13s-56.666 -20.834 -78.999 -36.501s-39.833 -34.334 -52.5 -56.001s-19 -45.167 -19 -70.5c0 -40 15.167 -75 45.5 -105s79.833 -55.667 148.5 -77l148 -46c61.333 -19.333 114.333 -41.5 159 -66.5s81.667 -53.5 111 -85.5
s51 -67.833 65 -107.5s21 -83.834 21 -132.501c0 -71.333 -14.5 -136.333 -43.5 -195s-69.833 -108.834 -122.5 -150.501s-115.834 -73.834 -189.501 -96.501s-155.167 -34 -244.5 -34c-82 0 -157 10.333 -225 31s-126.833 50.167 -176.5 88.5s-89 85.333 -118 141
s-45.833 118.5 -50.5 188.5h292z" />
    <glyph glyph-name="T" unicode="T" horiz-adv-x="1349" 
d="M448 0l254 1185h-432l53 258h1168l-53 -258h-432l-254 -1185h-304z" />
    <glyph glyph-name="U" unicode="U" horiz-adv-x="1564" 
d="M776 -37c-88.667 0 -168.001 11.666 -238.001 34.999s-129.167 56 -177.5 98s-85.5 91.667 -111.5 149s-39 120 -39 188c0 20 1 40.667 3 62s5.33301 42.666 10 63.999l187 884h305l-186 -877c-8 -37.333 -11.667 -71.333 -11 -102
c1.33301 -72 26.166 -128.333 74.499 -169s115.5 -61 201.5 -61c42 0 81 6.16699 117 18.5s68.167 30.333 96.5 54s52.333 52.834 72 87.501s34.5 74.334 44.5 119.001l198 930h304l-211 -997c-16 -76 -42.167 -143.833 -78.5 -203.5s-81.666 -110.167 -135.999 -151.5
s-117.166 -73 -188.499 -95s-150 -33 -236 -33z" />
    <glyph glyph-name="V" unicode="V" horiz-adv-x="1477" 
d="M486 0l-182 1443h321l101 -1101h18l554 1101h340l-787 -1443h-365z" />
    <glyph glyph-name="W" unicode="W" horiz-adv-x="2067" 
d="M681 0h-285l-76 1443h302l16 -1017h16l482 1017h245l59 -1017h16l445 1017h311l-685 -1443h-291l-70 955h-16z" />
    <glyph glyph-name="X" unicode="X" horiz-adv-x="1494" 
d="M642 744l-309 699h340l211 -494h18l399 494h338l-635 -732l322 -711h-333l-221 485h-18l-409 -485h-331z" />
    <glyph glyph-name="Y" unicode="Y" horiz-adv-x="1451" 
d="M500 0l114 531l-310 912h316l196 -607h18l447 607h330l-697 -924l-110 -519h-304z" />
    <glyph glyph-name="Z" unicode="Z" horiz-adv-x="1384" 
d="M103 204l915 963l2 18h-689l53 258h1076l-42 -203l-913 -964l-2 -18h724l-53 -258h-1113z" />
    <glyph glyph-name="bracketleft" unicode="[" horiz-adv-x="848" 
d="M999 1444l-46 -223h-294l-267 -1239h307l-46 -222h-587l358 1684h575z" />
    <glyph glyph-name="backslash" unicode="\" horiz-adv-x="771" 
d="M284 1443h267l32 -1731h-266z" />
    <glyph glyph-name="bracketright" unicode="]" horiz-adv-x="848" 
d="M530 -240h-581l45 223h301l267 1239h-300l46 222h580z" />
    <glyph glyph-name="asciicircum" unicode="^" horiz-adv-x="988" 
d="M422 823h-266l438 602h256l181 -602h-250l-89 373h-18z" />
    <glyph glyph-name="underscore" unicode="_" horiz-adv-x="945" 
d="M-146 -334l46 227h949l-46 -227h-949z" />
    <glyph glyph-name="grave" unicode="`" horiz-adv-x="1071" 
d="M743 1281l-250 353h303l212 -353h-265z" />
    <glyph glyph-name="a" unicode="a" horiz-adv-x="1202" 
d="M534 202c30.667 0 60.167 4.66895 88.5 14.002s53.833 22.166 76.5 38.499s41.834 35.666 57.501 57.999s26.5 46.833 32.5 73.5l21 95l-228 -8c-66.667 -2.66699 -118.834 -17 -156.501 -43s-56.5 -60.667 -56.5 -104c0 -18 4 -34.667 12 -50s19.333 -28.5 34 -39.5
s32.167 -19.5 52.5 -25.5s42.5 -9 66.5 -9zM411 -16.998c-46.667 0 -89.998 7.66699 -129.998 23s-74.667 36.333 -104 63s-52.333 58.334 -69 95.001s-25 76.667 -25 120c0 56 11.167 106.333 33.5 151s54.5 83 96.5 115s93.333 57 154 75s129.667 28.333 207 31l274 9
l15 68c2 10 3.33301 17.833 4 23.5s1 11.167 1 16.5c0 38 -16.167 68.167 -48.5 90.5s-76.833 33.5 -133.5 33.5c-48 0 -88.333 -8.33301 -121 -25s-56.334 -41 -71.001 -73h-275c12 50 32.333 95.333 61 136s64.167 75.167 106.5 103.5s90.666 50.166 144.999 65.499
s112.833 23 175.5 23c67.333 0 128.5 -7.83301 183.5 -23.5s102.167 -37.667 141.5 -66s69.666 -62.5 90.999 -102.5s32 -84.333 32 -133c0 -14 -0.666992 -29 -2 -45s-3.66602 -30.667 -6.99902 -44l-151 -713h-283l29 136h-18c-16 -23.333 -35.167 -44.5 -57.5 -63.5
s-47 -35.167 -74 -48.5s-55.833 -23.5 -86.5 -30.5s-62 -10.5 -94 -10.5z" />
    <glyph glyph-name="b" unicode="b" horiz-adv-x="1340" 
d="M747 -17c-38.667 0 -75.834 5.16504 -111.501 15.498s-68 25 -97 44s-53.833 41.833 -74.5 68.5s-35.667 56.334 -45 89.001h-18l-43 -200h-283l324 1524h291l-122 -575l19 1c36.667 54 82.5 96 137.5 126s119.833 45 194.5 45c55.333 0 106 -10 152 -30
s85.667 -48.333 119 -85s59.333 -81 78 -133s28 -110 28 -174c0 -103.333 -14.167 -198.666 -42.5 -285.999s-67.166 -162.833 -116.499 -226.5s-107.5 -113.5 -174.5 -149.5s-138.833 -54 -215.5 -54zM683 229.998c43.333 0 83.999 10.668 121.999 32.001
s71 50.666 99 87.999s50 81.5 66 132.5s24 106.5 24 166.5c0 38 -5 71.333 -15 100s-24 52.667 -42 72s-39.667 34 -65 44s-53.333 15 -84 15c-44 0 -85.167 -11 -123.5 -33s-71.666 -51.833 -99.999 -89.5s-50.833 -81.667 -67.5 -132s-25 -103.833 -25 -160.5
c0 -38 5.16699 -71.5 15.5 -100.5s24.833 -53.5 43.5 -73.5s41 -35.167 67 -45.5s54.333 -15.5 85 -15.5z" />
    <glyph glyph-name="c" unicode="c" horiz-adv-x="1208" 
d="M922 723c-1.33301 26 -7.33301 49.166 -18 69.499s-24.834 37.5 -42.501 51.5s-38.334 24.833 -62.001 32.5s-49.167 11.5 -76.5 11.5c-44 0 -84.333 -11 -121 -33s-68.167 -52 -94.5 -90s-46.833 -82.833 -61.5 -134.5s-22 -107.5 -22 -167.5
c0 -42 5.33301 -78.333 16 -109s25.5 -56.167 44.5 -76.5s41 -35.5 66 -45.5s52.167 -15 81.5 -15c54.667 0 101.667 13.333 141 40s67.333 65.334 84 116.001h279c-9.33301 -55.333 -28.166 -107.166 -56.499 -155.499s-64.833 -90.333 -109.5 -126
s-96.834 -63.834 -156.501 -84.501s-125.834 -31 -198.501 -31c-73.333 0 -139.666 11 -198.999 33s-110 53.167 -152 93.5s-74.333 89.166 -97 146.499s-34 121.333 -34 192c0 98 14.667 188.833 44 272.5s70.833 156.167 124.5 217.5s117.834 109.333 192.501 144
s157.334 52 248.001 52c67.333 0 128 -10.167 182 -30.5s100.5 -47.166 139.5 -80.499s69.833 -71.833 92.5 -115.5s36 -88.5 40 -134.5c1.33301 -6.66699 2 -13.667 2 -21v-22h-276z" />
    <glyph glyph-name="d" unicode="d" horiz-adv-x="1342" 
d="M511 -17c-54.667 0 -105.333 9.83301 -152 29.5s-87 48 -121 85s-60.667 82 -80 135s-29 113.167 -29 180.5c0 102.667 14.333 197.167 43 283.5s68.167 161 118.5 224s109.5 112.167 177.5 147.5s141.333 53 220 53c40.667 0 78.167 -5.16699 112.5 -15.5
s65 -24.833 92 -43.5s49.667 -40.5 68 -65.5s31.833 -52.167 40.5 -81.5h18l130 609h292l-323 -1524h-283l32 153h-18c-38 -52 -85.333 -93.333 -142 -124s-122 -46 -196 -46zM641.001 223c44 0 85.168 11.002 123.501 33.002s71.666 52 99.999 90
s50.666 82.167 66.999 132.5s24.5 103.833 24.5 160.5c0 38 -5.16699 71.5 -15.5 100.5s-25 53.5 -44 73.5s-41.5 35.167 -67.5 45.5s-54.333 15.5 -85 15.5c-43.333 0 -84 -10.333 -122 -31s-71.167 -49.334 -99.5 -86.001s-50.666 -80.167 -66.999 -130.5
s-24.5 -104.833 -24.5 -163.5c0 -37.333 5.33301 -70.833 16 -100.5s25.5 -54.834 44.5 -75.501s41.167 -36.5 66.5 -47.5s53 -16.5 83 -16.5z" />
    <glyph glyph-name="e" unicode="e" horiz-adv-x="1251" 
d="M624 -24c-71.333 0 -136.834 10.6621 -196.501 31.9951s-111.167 52.333 -154.5 93s-77 90.334 -101 149.001s-36 125.334 -36 200.001c0 100.667 14.5 192.667 43.5 276s69.833 154.666 122.5 213.999s115.667 105.333 189 138s154 49 242 49
c66 0 127.333 -10.833 184 -32.5s105.834 -52.5 147.501 -92.5s74.334 -88.5 98.001 -145.5s35.5 -120.833 35.5 -191.5c0 -11.333 -0.5 -24.666 -1.5 -39.999s-2.16699 -31.166 -3.5 -47.499s-3.16602 -32.666 -5.49902 -48.999s-4.5 -30.833 -6.5 -43.5h-770
c0 -4 -0.166992 -9.16699 -0.5 -15.5s-0.5 -11.5 -0.5 -15.5c0 -42.667 6.16699 -79.667 18.5 -111s29.166 -57.333 50.499 -78s46 -36.167 74 -46.5s57.667 -15.5 89 -15.5c56.667 0 103 10.333 139 31s62.333 48.334 79 83.001h280
c-12.667 -50.667 -33.834 -97 -63.501 -139s-66.667 -78 -111 -108s-95.333 -53.167 -153 -69.5s-120.5 -24.5 -188.5 -24.5zM921.999 668.995c0.666992 3.33301 1.33105 8.83105 1.99805 16.498s1 14.834 1 21.501c0 27.333 -4.66699 53 -14 77
s-22.666 44.833 -39.999 62.5s-38.666 31.5 -63.999 41.5s-54 15 -86 15c-33.333 0 -64.833 -5.66699 -94.5 -17s-56.5 -27.166 -80.5 -47.499s-44.833 -45 -62.5 -74s-31.167 -60.833 -40.5 -95.5h479z" />
    <glyph glyph-name="f" unicode="f" horiz-adv-x="836" 
d="M337 863l-173.998 -0.000976562l47 229h171l25 126c20.667 104.667 64 180.334 130 227.001s157 70 273 70c39.333 0 74.666 -2.5 105.999 -7.5s56.666 -9.83301 75.999 -14.5l-42 -205c-10.667 3.33301 -25 6 -43 8s-41 3 -69 3c-40 0 -72.5 -9.66699 -97.5 -29
s-41.833 -49 -50.5 -89l-18 -89h230l-47 -229h-224l-184 -863h-293z" />
    <glyph glyph-name="g" unicode="g" horiz-adv-x="1327" 
d="M530 -417c-74.667 0 -142.498 8.5 -203.498 25.5s-113.333 40.333 -157 70s-77.334 64.834 -101.001 105.501s-35.5 85 -35.5 133h290c3.33301 -36 24.666 -65.5 63.999 -88.5s93.333 -34.5 162 -34.5c76.667 0 136.5 16.667 179.5 50s71.167 79.333 84.5 138l44 194
l-18 1c-36 -51.333 -81.5 -90 -136.5 -116s-117.833 -39 -188.5 -39c-55.333 0 -106.166 10 -152.499 30s-86.5 48.167 -120.5 84.5s-60.5 80.166 -79.5 131.499s-28.5 108 -28.5 170c0 96.667 14.167 186.667 42.5 270s67 155.5 116 216.5s106.667 109 173 144
s137.833 52.5 214.5 52.5c38 0 74.333 -5 109 -15s66.167 -24.167 94.5 -42.5s52.833 -40.5 73.5 -66.5s36 -54.667 46 -86h17l42 192h284l-246 -1147c-12 -58 -33.833 -110 -65.5 -156s-71.834 -85.167 -120.501 -117.5s-105.167 -57 -169.5 -74s-135.5 -25.5 -213.5 -25.5
zM641.002 237c42.667 0 82.667 10.168 120 30.501s70 48.5 98 84.5s50 78.5 66 127.5s24 102.167 24 159.5c0 36 -5 68.333 -15 97s-24.333 53.334 -43 74.001s-41.167 36.5 -67.5 47.5s-55.833 16.5 -88.5 16.5c-43.333 0 -83.5 -9.83301 -120.5 -29.5
s-69 -47.167 -96 -82.5s-48.167 -77.333 -63.5 -126s-23 -102 -23 -160c0 -36.667 4.83301 -69.834 14.5 -99.501s23.667 -54.834 42 -75.501s40.333 -36.5 66 -47.5s54.5 -16.5 86.5 -16.5z" />
    <glyph glyph-name="h" unicode="h" horiz-adv-x="1321" 
d="M398 1515h291.998l-125 -578h18c16.667 26.667 36.334 51.5 59.001 74.5s48.334 42.833 77.001 59.5s60.167 29.667 94.5 39s71.833 14 112.5 14c52.667 0 100.167 -8.16699 142.5 -24.5s78.333 -38.833 108 -67.5s52.5 -62.167 68.5 -100.5s24 -79.833 24 -124.5
c0 -38.667 -4.66699 -82.334 -14 -131.001l-142 -676h-291l132 628c3.33301 14.667 5.83301 28.834 7.5 42.501s2.5 27.5 2.5 41.5c0 26 -4.83301 49.667 -14.5 71s-23 39.333 -40 54s-37.333 26 -61 34s-49.5 12 -77.5 12c-33.333 0 -64.5 -5.5 -93.5 -16.5
s-55 -26.5 -78 -46.5s-42.5 -43.667 -58.5 -71s-27.333 -57.333 -34 -90l-140 -659h-292z" />
    <glyph glyph-name="i" unicode="i" horiz-adv-x="599" 
d="M313 1103h293l-235 -1103h-293zM524 1257c-26 0 -49.667 3.66504 -71 10.998s-39.5 17.333 -54.5 30s-26.5 27.834 -34.5 45.501s-12 36.5 -12 56.5c0 21.333 4 41.166 12 59.499s19.5 34.333 34.5 48s33.167 24.334 54.5 32.001s45 11.5 71 11.5s49.5 -3.66699 70.5 -11
s39 -17.333 54 -30s26.667 -27.667 35 -45s12.5 -36 12.5 -56c0 -21.333 -4.16699 -41.166 -12.5 -59.499s-20 -34.333 -35 -48s-33 -24.5 -54 -32.5s-44.5 -12 -70.5 -12z" />
    <glyph glyph-name="j" unicode="j" horiz-adv-x="599" 
d="M358 -55c-22 -104 -68.168 -182.999 -138.501 -236.999s-160.5 -81.333 -270.5 -82c-9.33301 0 -19.666 0.333008 -30.999 1s-23 1.5 -35 2.5s-23.667 2.33301 -35 4l-30 4.5l48 226c8.66699 -2 18.667 -3.5 30 -4.5s22.333 -1.5 33 -1.5c42 0 74.333 9.66699 97 29
s38.667 49.666 48 90.999l240 1125h291zM523.999 1257c-26 0 -49.667 3.66504 -71 10.998s-39.5 17.333 -54.5 30s-26.5 27.834 -34.5 45.501s-12 36.5 -12 56.5c0 21.333 4 41.166 12 59.499s19.5 34.333 34.5 48s33.167 24.334 54.5 32.001s45 11.5 71 11.5
s49.5 -3.66699 70.5 -11s39 -17.333 54 -30s26.667 -27.667 35 -45s12.5 -36 12.5 -56c0 -21.333 -4.16699 -41.166 -12.5 -59.499s-20 -34.333 -35 -48s-33 -24.5 -54 -32.5s-44.5 -12 -70.5 -12z" />
    <glyph glyph-name="k" unicode="k" horiz-adv-x="1210" 
d="M979 1103h340l-529 -482l328 -621h-321l-242 457l-110 -94l-78 -363h-292l324 1524h291l-177 -834h18z" />
    <glyph glyph-name="l" unicode="l" horiz-adv-x="593" 
d="M399 1524h293l-324 -1524h-293z" />
    <glyph glyph-name="m" unicode="m" horiz-adv-x="1893" 
d="M303 1112l282.001 -0.00878906l-39 -182h18c16.667 30 36.5 57 59.5 81s48 44.667 75 62s55.667 30.666 86 39.999s61.833 14 94.5 14c38.667 0 73.834 -5.33301 105.501 -16s59.5 -25.167 83.5 -43.5s44 -39.5 60 -63.5s27.667 -49 35 -75h18
c38 60.667 86 108.834 144 144.501s128.333 53.5 211 53.5c44.667 0 86 -7.66699 124 -23s70.5 -36.666 97.5 -63.999s48.167 -59.666 63.5 -96.999s23 -78 23 -122c0 -41.333 -5 -85.333 -15 -132l-145 -689h-291l136 645c3.33301 15.333 5.83301 29.833 7.5 43.5
s2.5 27.167 2.5 40.5c0 22.667 -3.5 43.334 -10.5 62.001s-17.333 34.834 -31 48.501s-30 24.334 -49 32.001s-40.5 11.5 -64.5 11.5c-26 0 -51 -4.83301 -75 -14.5s-46 -23.5 -66 -41.5s-37.333 -40.167 -52 -66.5s-25.334 -56.166 -32.001 -89.499l-142 -671h-282l136 645
c6.66699 29.333 10 57.333 10 84c0 22.667 -3.5 43.334 -10.5 62.001s-17.333 34.834 -31 48.501s-30 24.334 -49 32.001s-40.5 11.5 -64.5 11.5c-26 0 -50.833 -4.83301 -74.5 -14.5s-45.5 -23.5 -65.5 -41.5s-37.333 -39.833 -52 -65.5s-25.334 -54.5 -32.001 -86.5
l-143 -675h-292z" />
    <glyph glyph-name="n" unicode="n" horiz-adv-x="1305" 
d="M303 1112l281.999 0.000976562l-37 -175h18c17.333 28 37.833 53.667 61.5 77s50.167 43.333 79.5 60s61.333 29.667 96 39s71.667 14 111 14c51.333 0 97.833 -8.16699 139.5 -24.5s77.334 -38.833 107.001 -67.5s52.5 -62.5 68.5 -101.5s24 -81.167 24 -126.5
c0 -38.667 -4.66699 -82.334 -14 -131.001l-142 -676h-291l132 628c6.66699 30.667 10 58.667 10 84s-4.5 48.5 -13.5 69.5s-21.833 39 -38.5 54s-36.5 26.667 -59.5 35s-48.833 12.5 -77.5 12.5c-32.667 0 -63.167 -5.5 -91.5 -16.5s-53.833 -26.5 -76.5 -46.5
s-42 -43.667 -58 -71s-27.333 -57.333 -34 -90l-140 -659h-292z" />
    <glyph glyph-name="o" unicode="o" horiz-adv-x="1298" 
d="M438 467c0 -38 4.66504 -72.501 13.998 -103.501s22.833 -57.5 40.5 -79.5s39.334 -39 65.001 -51s54.834 -18 87.501 -18c39.333 0 77 10.667 113 32s67.667 50.5 95 87.5s49.166 80.667 65.499 131s24.5 104.5 24.5 162.5c0 82.667 -17.667 146.834 -53 192.501
s-84.666 68.5 -147.999 68.5c-44.667 0 -85.667 -11 -123 -33s-69.333 -52 -96 -90s-47.5 -82.667 -62.5 -134s-22.5 -106.333 -22.5 -165zM627.998 -24.001c-74 0 -141.334 11.498 -202.001 34.498s-112.5 55.667 -155.5 98s-76.333 93.166 -100 152.499
s-35.5 125 -35.5 197c0 62 6.83301 121.5 20.5 178.5s33.167 110.333 58.5 160s56.333 94.834 93 135.501s78.167 75.5 124.5 104.5s96.833 51.333 151.5 67s113 23.5 175 23.5c74 0 141.167 -11.667 201.5 -35s111.833 -56.166 154.5 -98.499s75.667 -93.166 99 -152.499
s35 -125 35 -197c0 -91.333 -14.833 -177.5 -44.5 -258.5s-71.667 -151.833 -126 -212.5s-119.666 -108.667 -195.999 -144s-160.833 -53 -253.5 -53z" />
    <glyph glyph-name="p" unicode="p" horiz-adv-x="1334" 
d="M677 230c43.333 0 83.999 10.668 121.999 32.001s71 50.666 99 87.999s50 81.5 66 132.5s24 106.5 24 166.5c0 38 -5 71.333 -15 100s-24 52.667 -42 72s-39.667 34 -65 44s-53.333 15 -84 15c-44 0 -85.167 -11 -123.5 -33s-71.666 -51.833 -99.999 -89.5
s-50.833 -81.667 -67.5 -132s-25 -103.833 -25 -160.5c0 -38 5.16699 -71.5 15.5 -100.5s24.833 -53.5 43.5 -73.5s41 -35.167 67 -45.5s54.333 -15.5 85 -15.5zM-5.00098 -344.999l309.003 1448h283l-33 -153h18c38 52 85.667 93.5 143 124.5s123 46.5 197 46.5
c55.333 0 106.166 -10 152.499 -30s86.166 -48.333 119.499 -85s59.333 -81 78 -133s28 -110 28 -174c0 -103.333 -14.167 -198.666 -42.5 -285.999s-67.333 -162.833 -117 -226.5s-108.334 -113.5 -176.001 -149.5s-140.5 -54 -218.5 -54c-40 0 -77.167 5.33301 -111.5 16
s-64.833 25.5 -91.5 44.5s-49.5 41.833 -68.5 68.5s-32.833 56 -41.5 88h-18l-118 -545h-292z" />
    <glyph glyph-name="q" unicode="q" horiz-adv-x="1336" 
d="M637 223c44 0 85.168 11.001 123.501 33.001s71.666 52 99.999 90s50.833 82.167 67.5 132.5s25 103.833 25 160.5c0 38 -5.16699 71.5 -15.5 100.5s-24.833 53.5 -43.5 73.5s-41 35.167 -67 45.5s-54.333 15.5 -85 15.5c-43.333 0 -84 -10.5 -122 -31.5s-71 -50 -99 -87
s-50 -80.667 -66 -131s-24 -104.833 -24 -163.5c0 -38.667 5 -72.834 15 -102.501s24 -54.5 42 -74.5s39.667 -35.167 65 -45.5s53.333 -15.5 84 -15.5zM754.001 -344.999l105.999 498.001h-17c-39.333 -53.333 -86.666 -95 -141.999 -125s-120.333 -45 -195 -45
c-55.333 0 -106 10 -152 30s-85.667 48.667 -119 86s-59.333 82.333 -78 135s-28 111.667 -28 177c0 102 14.333 196.333 43 283s68 161.667 118 225s108.833 112.833 176.5 148.5s140.5 53.5 218.5 53.5c41.333 0 79.833 -5.33301 115.5 -16s67.667 -25.334 96 -44.001
s52.333 -40.5 72 -65.5s34.167 -51.833 43.5 -80.5h18l40 188h283l-308 -1448h-291z" />
    <glyph glyph-name="r" unicode="r" horiz-adv-x="908" 
d="M298 1103l283.001 0.000976562l-31 -152h18c30 54.667 68.333 96.667 115 126s99.667 44 159 44c28 0 54.167 -2 78.5 -6s45.166 -10 62.499 -18l-57 -268c-22.667 9.33301 -49.667 16.666 -81 21.999s-60.333 8 -87 8c-145.333 0 -236 -83.667 -272 -251l-131 -608h-292
z" />
    <glyph glyph-name="s" unicode="s" horiz-adv-x="1150" 
d="M363 318c8 -38 30.333 -68.999 67 -92.999s82.667 -36 138 -36c56.667 0 102.167 10.5 136.5 31.5s51.5 49.5 51.5 85.5c0 23.333 -8.16699 43.333 -24.5 60s-45.833 32 -88.5 46l-172 60c-88 30 -153.333 69 -196 117s-64 108.333 -64 181c0 54 11.167 103 33.5 147
s53.5 81.5 93.5 112.5s88 55 144 72s118 25.5 186 25.5c66.667 0 127.334 -7.83301 182.001 -23.5s101.667 -37.834 141 -66.501s70.5 -63.167 93.5 -103.5s36.167 -85.166 39.5 -134.499h-267c-7.33301 35.333 -28 63.333 -62 84s-76.333 31 -127 31
c-26 0 -49.667 -2.83301 -71 -8.5s-39.833 -13.5 -55.5 -23.5s-27.834 -22 -36.501 -36s-13 -29.333 -13 -46c0 -24.667 9.83301 -45.5 29.5 -62.5s50.5 -32.5 92.5 -46.5l179 -63c89.333 -31.333 154.166 -69.833 194.499 -115.5s60.5 -103.834 60.5 -174.501
c0 -54 -11.667 -103.167 -35 -147.5s-56.166 -82.5 -98.499 -114.5s-93 -56.667 -152 -74s-124.167 -26 -195.5 -26c-70.667 0 -135.334 8.16699 -194.001 24.5s-109.167 39.5 -151.5 69.5s-75.666 66 -99.999 108s-37.5 88.667 -39.5 140h281z" />
    <glyph glyph-name="t" unicode="t" horiz-adv-x="846" 
d="M568 -14c-118 0 -207.169 20 -267.502 60s-90.5 98.333 -90.5 175c0 28.667 3.66699 60.667 11 96l116 537h-175l47 230h175l56 267h293l-57 -267h235l-48 -230h-234l-104 -479c-5.33301 -24.667 -8 -46 -8 -64c0 -35.333 12.833 -60.5 38.5 -75.5
s63.5 -22.5 113.5 -22.5c20.667 0 38 1 52 3l-46 -222c-15.333 -2.66699 -32.166 -4.66699 -50.499 -6s-37.166 -2 -56.499 -2z" />
    <glyph glyph-name="u" unicode="u" horiz-adv-x="1305" 
d="M1089 0h-283.001l36 167h-18c-33.333 -58.667 -79.5 -105.167 -138.5 -139.5s-127.167 -51.5 -204.5 -51.5c-50 0 -96 7.66699 -138 23s-78.167 37 -108.5 65s-53.833 61.833 -70.5 101.5s-25 83.834 -25 132.501c0 17.333 1.33301 38.833 4 64.5
s6.33398 51.167 11.001 76.5l139 664h293l-131 -616c-3.33301 -14 -5.83301 -29.167 -7.5 -45.5s-2.5 -29.833 -2.5 -40.5c0 -57.333 15.833 -100.5 47.5 -129.5s77.167 -43.5 136.5 -43.5c33.333 0 64.333 5.5 93 16.5s54.5 26.667 77.5 47s42.5 44.666 58.5 72.999
s27.667 59.833 35 94.5l137 644h292z" />
    <glyph glyph-name="v" unicode="v" horiz-adv-x="1184" 
d="M505 1103l63 -807h18l394 807h312l-611 -1103h-331l-139 1103h294z" />
    <glyph glyph-name="w" unicode="w" horiz-adv-x="1735" 
d="M1306 0h-312l-35 758h-18l-355 -758h-306l-60 1103h284l5 -787h18l355 787h283l25 -791h18l334 791h291z" />
    <glyph glyph-name="x" unicode="x" horiz-adv-x="1191" 
d="M588 354l-277 -354h-319l463 552l-231 551h318l129 -358h18l270 358h325l-466 -554l235 -549h-307l-140 354h-18z" />
    <glyph glyph-name="y" unicode="y" horiz-adv-x="1208" 
d="M131 -403c-6 0 -15.667 0.166992 -29 0.5s-27 0.833008 -41 1.5s-27 1.33398 -39 2.00098s-19.667 1 -23 1l46 235c2.66699 -0.666992 7.33398 -1.33398 14.001 -2.00098s14 -1.33398 22 -2.00098s16 -1.16699 24 -1.5s15 -0.5 21 -0.5c48.667 0 90.667 9.33301 126 28
s63.666 50 84.999 94l22 44l-144 1106h297l64 -822h18l405 822h312l-630 -1143c-36 -67.333 -72.833 -124.166 -110.5 -170.499s-78.5 -83.833 -122.5 -112.5s-92 -49.167 -144 -61.5s-109.667 -18.5 -173 -18.5z" />
    <glyph glyph-name="z" unicode="z" horiz-adv-x="1160" 
d="M81 172l689 681l2 18h-532l49 232h898l-41 -192l-652 -661l-1 -18h519l-48 -232h-918z" />
    <glyph glyph-name="braceleft" unicode="{" horiz-adv-x="926" 
d="M417 601c52 -7.33301 92.1689 -25.832 120.502 -55.499s42.5 -69.5 42.5 -119.5c0 -25.333 -3 -52.333 -9 -81l-57 -260c-3.33301 -16.667 -6 -32 -8 -46s-3 -27 -3 -39c0 -44 14.167 -75.333 42.5 -94s74.5 -28 138.5 -28h45l-45 -216h-98c-58 0 -110 6.16699 -156 18.5
s-85.167 29.666 -117.5 51.999s-57 49.333 -74 81s-25.5 66.834 -25.5 105.501c0 38 5 80.667 15 128l48 218c8 38 12 70 12 96c0 40.667 -10.833 69.334 -32.5 86.001s-56.5 25 -104.5 25l57 277c31.333 0 58.5 3.5 81.5 10.5s42.833 18.667 59.5 35
s30.834 37.666 42.501 63.999s21.5 59.166 29.5 98.499l43 194c14 68 35 125.333 63 172s63.167 84.5 105.5 113.5s92.333 49.833 150 62.5s123.5 19 197.5 19h99l-45 -220h-45c-38 0 -71.333 -3.66699 -100 -11s-53.334 -19 -74.001 -35s-37.834 -37 -51.501 -63
s-24.5 -58 -32.5 -96l-52 -237c-16 -75.333 -44.833 -132 -86.5 -170s-98.834 -60.333 -171.501 -67z" />
    <glyph glyph-name="bar" unicode="|" horiz-adv-x="749" 
d="M104 -289l369 1732h267l-369 -1732h-267z" />
    <glyph glyph-name="braceright" unicode="}" horiz-adv-x="926" 
d="M610 579c-52 7.33301 -92.1689 25.6689 -120.502 55.002s-42.5 69 -42.5 119c0 24.667 3 52 9 82l57 259c7.33301 34.667 11 63 11 85c0 44.667 -14.167 76.167 -42.5 94.5s-74.5 27.5 -138.5 27.5h-45l45 217h98c58 0 110 -6.16699 156 -18.5
s85.167 -29.833 117.5 -52.5s57 -49.834 74 -81.501s25.5 -66.834 25.5 -105.501s-5 -81 -15 -127l-48 -219c-8 -37.333 -12 -69 -12 -95c0 -41.333 10.833 -70.166 32.5 -86.499s56.5 -24.5 104.5 -24.5l-57 -277c-31.333 0 -58.5 -3.5 -81.5 -10.5
s-42.833 -18.667 -59.5 -35s-30.834 -37.833 -42.501 -64.5s-21.5 -59.334 -29.5 -98.001l-43 -194c-14 -68 -35 -125.333 -63 -172s-63.167 -84.5 -105.5 -113.5s-92.333 -49.833 -150 -62.5s-123.5 -19 -197.5 -19h-100l46 219h45c38 0 71.333 3.66699 100 11
s53.334 19 74.001 35s37.834 37 51.501 63s24.5 58 32.5 96l52 237c16 76 44.833 132.833 86.5 170.5s98.834 60.167 171.501 67.5z" />
    <glyph glyph-name="asciitilde" unicode="~" horiz-adv-x="1225" 
d="M773 479c-34.667 0 -65.502 5.83398 -92.502 17.501s-51.333 26.167 -73 43.5s-41.334 36.166 -59.001 56.499s-34.834 39.166 -51.501 56.499s-33.5 31.833 -50.5 43.5s-35.5 17.5 -55.5 17.5c-32 0 -58.167 -13 -78.5 -39s-36.166 -66 -47.499 -120h-229
c10.667 68.667 26.834 129 48.501 181s47.834 95.333 78.501 130s65.167 60.834 103.5 78.501s79.5 26.5 123.5 26.5c34.667 0 65.334 -5.83301 92.001 -17.5s50.667 -26.167 72 -43.5s41 -36.166 59 -56.499l51.5 -56.5c16.333 -17.333 32.666 -31.833 48.999 -43.5
s34.166 -17.5 53.499 -17.5c63.333 0 105.333 53.333 126 160h230c-21.333 -138.667 -62.166 -242.834 -122.499 -312.501s-136.166 -104.5 -227.499 -104.5z" />
    <glyph glyph-name="nonbreakingspace" unicode="&#xa0;" horiz-adv-x="528" 
 />
    <glyph glyph-name="exclamdown" unicode="&#xa1;" horiz-adv-x="729" 
d="M57 -322l233 969h267l-180 -969h-320zM499 1152c28 0 53.167 -4.33496 75.5 -13.002s41.333 -20.5 57 -35.5s27.667 -32.5 36 -52.5s12.5 -41.333 12.5 -64c0 -25.333 -4.16699 -48.666 -12.5 -69.999s-20.333 -39.833 -36 -55.5s-34.667 -28 -57 -37
s-47.5 -13.5 -75.5 -13.5s-53.167 4.33301 -75.5 13s-41.333 20.5 -57 35.5s-27.667 32.667 -36 53s-12.5 41.833 -12.5 64.5c0 24.667 4.16699 47.834 12.5 69.501s20.333 40.167 36 55.5s34.667 27.5 57 36.5s47.5 13.5 75.5 13.5z" />
    <glyph glyph-name="cent" unicode="&#xa2;" horiz-adv-x="1415" 
d="M1263 525c-8.66699 -51.333 -25.4961 -99.668 -50.4961 -145.001s-57.333 -85.5 -97 -120.5s-85.834 -63.667 -138.501 -86s-111 -36.5 -175 -42.5l-38 -183h-242l43 208c-46.667 14.667 -88.834 35.667 -126.501 63s-69.667 59.666 -96 96.999s-46.5 79.5 -60.5 126.5
s-21 97.833 -21 152.5c0 92 13 177.667 39 257s62.667 149.333 110 210s104.5 110 171.5 148s141.167 61.333 222.5 70l36 169h242l-41 -192c42 -14 79.833 -32.667 113.5 -56s62.5 -49.833 86.5 -79.5s43 -61.5 57 -95.5s22.667 -68.667 26 -104
c0.666992 -6.66699 1.16699 -13.667 1.5 -21s0.5 -14.666 0.5 -21.999h-276c-1.33301 26 -7.33301 49.167 -18 69.5s-24.834 37.5 -42.501 51.5s-38.334 24.833 -62.001 32.5s-49.167 11.5 -76.5 11.5c-44.667 0 -85.334 -11 -122.001 -33s-68.167 -52.333 -94.5 -91
s-46.666 -83.834 -60.999 -135.501s-21.5 -107.5 -21.5 -167.5c0 -42 5.33301 -78.5 16 -109.5s25.5 -56.667 44.5 -77s41 -35.666 66 -45.999s52.167 -15.5 81.5 -15.5c54.667 0 101.5 13.333 140.5 40s67.167 65.334 84.5 116.001h278v0z" />
    <glyph glyph-name="sterling" unicode="&#xa3;" horiz-adv-x="1415" 
d="M1206 6l-1124 -0.00195312l53 256c44 2.66699 87.5 12.334 130.5 29.001s81.833 39.5 116.5 68.5s63.667 63.667 87 104s37.333 85.5 42 135.5c0 10.667 -1 23.667 -3 39h-310l43 213h255l-12 92c-4 30 -6 59 -6 87c0 68.667 12.167 130.834 36.5 186.501s60 103 107 142
s105 69 174 90s148.167 31.5 237.5 31.5c40.667 0 81.834 -2.33301 123.501 -7s81.334 -10.667 119.001 -18s72 -15.666 103 -24.999s56.167 -18.333 75.5 -27l-50 -239c-15.333 8.66699 -35 17 -59 25s-50.333 15 -79 21s-58.834 10.833 -90.501 14.5
s-62.834 5.5 -93.501 5.5c-46 0 -87.833 -4.83301 -125.5 -14.5s-70 -24.5 -97 -44.5s-48 -45.333 -63 -76s-22.5 -67.334 -22.5 -110.001c0 -20 0.833008 -41.5 2.5 -64.5s3.83398 -46.167 6.50098 -69.5h385l-43 -213h-326c0 -4.66699 0.166992 -9.16699 0.5 -13.5
s0.5 -8.5 0.5 -12.5c-3.33301 -89.333 -26.333 -161.333 -69 -216s-99.667 -93 -171 -115l-3 -18h702z" />
    <glyph glyph-name="currency" unicode="&#xa4;" horiz-adv-x="1415" 
d="M514 648c0 -31.333 6.16699 -61.166 18.5 -89.499s29.166 -53 50.499 -74s46.166 -37.667 74.499 -50s58.5 -18.5 90.5 -18.5s62.167 6.16699 90.5 18.5s53.333 29 75 50s38.667 45.667 51 74s18.5 58.166 18.5 89.499c0 32 -6.16699 62 -18.5 90s-29.333 52.667 -51 74
s-46.667 38.166 -75 50.499s-58.5 18.5 -90.5 18.5s-62.167 -6.16699 -90.5 -18.5s-53.166 -29.166 -74.499 -50.499s-38.166 -46 -50.499 -74s-18.5 -58 -18.5 -90zM1156 843c13.333 -30 23.833 -61.1689 31.5 -93.502s11.5 -66.166 11.5 -101.499
c0 -48 -7.16699 -94 -21.5 -138s-34.166 -84.667 -59.499 -122l99 -125l-199 -169l-102 131c-26 -10.667 -53 -18.834 -81 -24.501s-57 -8.5 -87 -8.5c-50.667 0 -98.834 8 -144.501 24s-87.5 38.333 -125.5 67l-218 -181l-133 174l214 178
c-28.667 60.667 -43 125.334 -43 194.001c0 48.667 7.16699 95 21.5 139s34.166 84.667 59.499 122l-100 125l198 169l103 -131c26 10.667 53 18.834 81 24.501s57 8.5 87 8.5c50.667 0 98.834 -8 144.501 -24s87.5 -38.667 125.5 -68l218 181l132 -174z" />
    <glyph glyph-name="yen" unicode="&#xa5;" horiz-adv-x="1415" 
d="M830 206l-44 -206h-304l45 206h-272l36 169h271l29 133h-272l36 169h196l-265 766h316l196 -607h18l447 607h330l-581 -766h187l-36 -169h-269l-29 -133h270l-36 -169h-269z" />
    <glyph glyph-name="brokenbar" unicode="&#xa6;" horiz-adv-x="749" 
d="M331 773l142 670h267l-142 -670h-267zM104 -289l142 669h267l-142 -669h-267z" />
    <glyph glyph-name="section" unicode="&#xa7;" horiz-adv-x="1032" 
d="M603 406c44.667 11.333 80.834 30.668 108.501 58.001s41.5 58.666 41.5 93.999c0 24.667 -8.16699 48.667 -24.5 72s-43.5 43.333 -81.5 60l-104 52c-22.667 -4.66699 -43.834 -11.667 -63.501 -21s-36.667 -20.5 -51 -33.5s-25.5 -27.667 -33.5 -44
s-12 -33.5 -12 -51.5c0 -26 9.5 -50.333 28.5 -73s47.5 -42.667 85.5 -60zM445 -287.998c-60 0 -115.833 8.17285 -167.5 24.5059s-96.667 39.333 -135 69s-68.833 65.5 -91.5 107.5s-34.667 89 -36 141h252c2.66699 -18.667 9 -36 19 -52s22.833 -29.833 38.5 -41.5
s33.834 -20.834 54.501 -27.501s43.334 -10 68.001 -10c25.333 0 48.666 3.16699 69.999 9.5s39.833 15.166 55.5 26.499s27.834 24.666 36.501 39.999s13 32 13 50c0 25.333 -7.5 48.166 -22.5 68.499s-41.5 38.166 -79.5 53.499l-167 80
c-74 34 -130.833 74.667 -170.5 122s-59.5 104 -59.5 170c0 36.667 6.33301 70.667 19 102s30.834 59.5 54.501 84.5s52 46.333 85 64s69.833 30.834 110.5 39.501l2 19c-26 18 -48.333 35.667 -67 53s-33.834 35.5 -45.501 54.5s-20.167 39.167 -25.5 60.5
s-8 44.666 -8 69.999c0 50.667 10.667 97.167 32 139.5s51.166 78.666 89.499 108.999s83.833 53.833 136.5 70.5s110 25 172 25c60 0 115 -8 165 -24s93.167 -38.833 129.5 -68.5s65.333 -65.5 87 -107.5s34.5 -89 38.5 -141h-249c-4.66699 40 -22.834 71.5 -54.501 94.5
s-71.167 34.5 -118.5 34.5c-24 0 -46 -3 -66 -9s-37.167 -14.5 -51.5 -25.5s-25.666 -23.833 -33.999 -38.5s-12.5 -31 -12.5 -49c0 -49.333 36.667 -89.666 110 -120.999l152 -77c78.667 -37.333 138 -79.333 178 -126s60 -102.667 60 -168
c0 -35.333 -6.16699 -68.833 -18.5 -100.5s-30 -60.5 -53 -86.5s-50.833 -48.167 -83.5 -66.5s-69.334 -31.833 -110.001 -40.5l-2 -16c26 -18 48 -35.833 66 -53.5s32.667 -36 44 -55s19.5 -39 24.5 -60s7.5 -43.833 7.5 -68.5c0 -51.333 -11 -98.333 -33 -141
s-52.667 -79.334 -92 -110.001s-86 -54.667 -140 -72s-113 -26 -177 -26z" />
    <glyph glyph-name="dieresis" unicode="&#xa8;" horiz-adv-x="1071" 
d="M528 1267c-22.667 0 -43.5 3.83301 -62.5 11.5s-35.5 18.167 -49.5 31.5s-24.833 29.333 -32.5 48s-11.5 39 -11.5 61s3.83301 42.167 11.5 60.5s18.5 34.333 32.5 48s30.5 24.167 49.5 31.5s39.833 11 62.5 11c22 0 42.5 -3.66699 61.5 -11s35.5 -17.833 49.5 -31.5
s24.833 -29.667 32.5 -48s11.5 -38.5 11.5 -60.5s-3.83301 -42.333 -11.5 -61s-18.5 -34.667 -32.5 -48s-30.5 -23.833 -49.5 -31.5s-39.5 -11.5 -61.5 -11.5zM995 1267c-22 0 -42.5 3.83301 -61.5 11.5s-35.5 18.167 -49.5 31.5s-24.833 29.333 -32.5 48s-11.5 39 -11.5 61
s3.83301 42.167 11.5 60.5s18.5 34.333 32.5 48s30.5 24.167 49.5 31.5s39.5 11 61.5 11c22.667 0 43.5 -3.66699 62.5 -11s35.5 -17.833 49.5 -31.5s24.833 -29.667 32.5 -48s11.5 -38.5 11.5 -60.5s-3.83301 -42.333 -11.5 -61s-18.5 -34.667 -32.5 -48
s-30.5 -23.833 -49.5 -31.5s-39.833 -11.5 -62.5 -11.5z" />
    <glyph glyph-name="copyright" unicode="&#xa9;" horiz-adv-x="1743" 
d="M906 -135c-70.667 0 -138.331 8.49902 -202.998 25.499s-124.834 41.333 -180.501 73s-106 69.667 -151 114s-83.667 93.833 -116 148.5s-57.166 113.834 -74.499 177.501s-26 130.167 -26 199.5c0 78 9.83301 152.833 29.5 224.5s47.667 138.5 84 200.5
s80.166 118.333 131.499 169s108.166 94 170.499 130s129.666 63.833 201.999 83.5s147.833 29.5 226.5 29.5c107.333 0 206.833 -18.667 298.5 -56s171.167 -88.833 238.5 -154.5s120 -143.5 158 -233.5s57 -187.667 57 -293c0 -78 -9.83301 -152.833 -29.5 -224.5
s-47.667 -138.5 -84 -200.5s-80.166 -118.5 -131.499 -169.5s-108.333 -94.5 -171 -130.5s-130.167 -63.833 -202.5 -83.5s-147.833 -29.5 -226.5 -29.5zM914.003 25.999c62 0 121.499 8 178.499 24s110.333 38.5 160 67.5s95 64 136 105s76 86.167 105 135.5
s51.5 102.5 67.5 159.5s24 116.167 24 177.5c0 84 -14.833 161.667 -44.5 233s-71 133 -124 185s-115.833 92.667 -188.5 122s-151.667 44 -237 44c-61.333 0 -120.5 -8 -177.5 -24s-110.5 -38.5 -160.5 -67.5s-95.333 -63.833 -136 -104.5s-75.667 -85.834 -105 -135.501
s-52 -102.834 -68 -159.501s-24 -115.667 -24 -177c0 -83.333 15 -160.666 45 -231.999s71.5 -133.166 124.5 -185.499s115.833 -93.333 188.5 -123s151.334 -44.5 236.001 -44.5zM1130 758.999c-0.666992 40.667 -13.835 72.998 -39.502 96.998s-59.167 36 -100.5 36
c-30 0 -58 -7.5 -84 -22.5s-48.5 -35.667 -67.5 -62s-33.833 -57.333 -44.5 -93s-16 -74.167 -16 -115.5c0 -56.667 13 -100.5 39 -131.5s62.667 -46.5 110 -46.5c72.667 0 123 31.667 151 95h193c-10 -40 -25.667 -75.833 -47 -107.5s-47.166 -58.667 -77.499 -81
s-64.666 -39.333 -102.999 -51s-79.833 -17.5 -124.5 -17.5c-49.333 0 -94.5 8.16699 -135.5 24.5s-76 39.333 -105 69s-51.5 65.334 -67.5 107.001s-24 87.834 -24 138.501c0 65.333 10.333 125.833 31 181.5s49.167 103.667 85.5 144s79.5 72 129.5 95
s104.667 34.5 164 34.5c48 0 92 -7.33301 132 -22s74.167 -35 102.5 -61s50 -57 65 -93s21.833 -75.333 20.5 -118h-187z" />
    <glyph glyph-name="ordfeminine" unicode="&#xaa;" horiz-adv-x="1030" 
d="M609 912c-52 -2 -92.6689 -13 -122.002 -33s-44 -47 -44 -81c0 -30 11.833 -54.167 35.5 -72.5s54.5 -27.5 92.5 -27.5c22.667 0 44.5 3.5 65.5 10.5s39.833 16.833 56.5 29.5s30.834 28 42.501 46s19.834 37.667 24.501 59l16 74zM458.998 503
c-41.333 0 -78.999 6.33594 -112.999 19.0029s-63.333 30.334 -88 53.001s-43.834 50 -57.501 82s-20.5 67 -20.5 105c0 47.333 9 89.666 27 126.999s44 69.166 78 95.499s75.5 46.666 124.5 60.999s104.5 22.166 166.5 23.499l233 5c0.666992 2.66699 1.5 6.66699 2.5 12
s2.16699 10.666 3.5 15.999s2.66602 10.333 3.99902 15s2 7.66699 2 9c2.66699 12.667 4.33398 21 5.00098 25s0.666992 7.66699 0 11c0.666992 30 -11.333 53.667 -36 71s-58 26 -100 26c-35.333 0 -65.333 -6.33301 -90 -19s-42.334 -30.667 -53.001 -54h-252
c23.333 90 69.833 158.833 139.5 206.5s157.834 71.5 264.501 71.5c58.667 0 112 -6.83301 160 -20.5s89 -33 123 -58s60.333 -55 79 -90s28 -74.167 28 -117.5c0 -11.333 -0.5 -23.166 -1.5 -35.499s-2.83301 -24.5 -5.5 -36.5l-126 -590h-257l21 104l-17 1
c-26.667 -37.333 -61.5 -66.333 -104.5 -87s-89.5 -31 -139.5 -31z" />
    <glyph glyph-name="guillemotleft" unicode="&#xab;" horiz-adv-x="1447" 
d="M974 550l-2 -10l252 -389h-264l-261 411l2 8l427 411h288zM468 556l-2 -11l247 -394h-264l-261 411l2 8l417 411h298z" />
    <glyph glyph-name="logicalnot" unicode="&#xac;" horiz-adv-x="1415" 
d="M1169 59h-255l84 396h-790l53 258h1045z" />
    <glyph glyph-name="registered" unicode="&#xae;" horiz-adv-x="1261" 
d="M488 664l103 487h248c22 0 42.667 -3.83301 62 -11.5s36 -18.167 50 -31.5s25 -28.833 33 -46.5s12 -36.5 12 -56.5c0 -42 -12.667 -77.333 -38 -106s-58.333 -48 -99 -58l84 -177h-144l-75 165h-76l-35 -165h-125zM669 925h103c28 0 49.667 5.83301 65 17.5
s23 28.5 23 50.5c0 16 -5.5 29 -16.5 39s-27.5 15 -49.5 15h-99zM216 897c0 72.667 13.833 141 41.5 205s65.334 119.667 113.001 167s103.667 84.666 168 111.999s133.5 41 207.5 41c76 0 146.5 -13.167 211.5 -39.5s121 -62.833 168 -109.5s83.833 -102 110.5 -166
s40 -134 40 -210c0 -73.333 -13.833 -141.833 -41.5 -205.5s-65.334 -119.167 -113.001 -166.5s-103.667 -84.666 -168 -111.999s-133.5 -41 -207.5 -41c-76 0 -146.5 13.167 -211.5 39.5s-121 62.833 -168 109.5s-83.833 102 -110.5 166s-40 134 -40 210zM1143 897
c0 58 -9.83203 111.164 -29.499 159.497s-47.167 90 -82.5 125s-77.166 62.167 -125.499 81.5s-101.5 29 -159.5 29c-55.333 0 -107.166 -10.333 -155.499 -31s-90.333 -48.667 -126 -84s-63.834 -77.166 -84.501 -125.499s-31 -99.833 -31 -154.5
c0 -57.333 9.83301 -110.166 29.5 -158.499s47 -90 82 -125s76.667 -62.333 125 -82s101.166 -29.5 158.499 -29.5c55.333 0 107.166 10.333 155.499 31s90.5 48.834 126.5 84.501s64.5 77.5 85.5 125.5s31.5 99.333 31.5 154z" />
    <glyph glyph-name="macron" unicode="&#xaf;" horiz-adv-x="1071" 
d="M372 1316l38 180h735l-38 -180h-735z" />
    <glyph glyph-name="degree" unicode="&#xb0;" horiz-adv-x="806" 
d="M578 874c-42 0 -81.167 8 -117.5 24s-68.166 37.667 -95.499 65s-48.833 59.5 -64.5 96.5s-23.5 76.5 -23.5 118.5s7.83301 81.333 23.5 118s37.167 68.667 64.5 96s59.166 49 95.499 65s75.5 24 117.5 24s81.333 -8 118 -24s68.667 -37.667 96 -65
s48.833 -59.333 64.5 -96s23.5 -76 23.5 -118s-7.83301 -81.5 -23.5 -118.5s-37.167 -69.167 -64.5 -96.5s-59.333 -49 -96 -65s-76 -24 -118 -24zM578 1046c18.667 0 36.167 3.5 52.5 10.5s30.666 16.5 42.999 28.5s22 26 29 42s10.5 33 10.5 51s-3.5 35 -10.5 51
s-16.667 30 -29 42s-26.666 21.5 -42.999 28.5s-33.833 10.5 -52.5 10.5c-18 0 -35.167 -3.5 -51.5 -10.5s-30.5 -16.5 -42.5 -28.5s-21.667 -26 -29 -42s-11 -33 -11 -51s3.66699 -35 11 -51s17 -30 29 -42s26.167 -21.5 42.5 -28.5s33.5 -10.5 51.5 -10.5z" />
    <glyph glyph-name="plusminus" unicode="&#xb1;" horiz-adv-x="1415" 
d="M149 71l46 225h997l-46 -225h-997zM846 416h-252l51 234h-373l46 224h373l52 234h251l-51 -234h374l-46 -224h-374z" />
    <glyph glyph-name="two.sups" unicode="&#xb2;" horiz-adv-x="917" 
d="M331 1527c2.66699 46.667 14.667 89.8301 36 129.497s49.666 73.834 84.999 102.501s76.5 51 123.5 67s98.167 24 153.5 24c50 0 95.833 -6.66699 137.5 -20s77.334 -31.833 107.001 -55.5s52.834 -52 69.501 -85s25 -69.5 25 -109.5c0 -28 -4.16699 -54.667 -12.5 -80
s-22.333 -51 -42 -77s-45.5 -53.167 -77.5 -81.5s-71.333 -59.166 -118 -92.499c-6 -4 -17.833 -12.333 -35.5 -25l-57 -40.5l-59 -40.5c-19 -12.667 -32.5 -21.334 -40.5 -26.001l-2 -12h360l-43 -209h-720l40 192l322 233c44 31.333 80.5 58.5 109.5 81.5s52 43.333 69 61
s28.833 33.834 35.5 48.501s10 29.334 10 44.001c0 26.667 -9.33301 48 -28 64s-43.334 24 -74.001 24c-34 0 -62.833 -10.333 -86.5 -31s-39.167 -49 -46.5 -85v-1h-241v0z" />
    <glyph glyph-name="three.sups" unicode="&#xb3;" horiz-adv-x="944" 
d="M579 1464l112.999 0.000976562c39.333 0 71.333 9.33301 96 28s37 43 37 73c0 25.333 -10 45.833 -30 61.5s-46.333 23.5 -79 23.5c-30 0 -56 -7.5 -78 -22.5s-37.667 -35.5 -47 -61.5h-241c8.66699 43.333 24.167 82.5 46.5 117.5s50.5 64.833 84.5 89.5
s72.833 43.667 116.5 57s90.834 20 141.501 20c50 0 95.833 -6.33301 137.5 -19s77.667 -30.167 108 -52.5s54 -49 71 -80s25.5 -64.833 25.5 -101.5c0 -30 -5.66699 -58.167 -17 -84.5s-27 -49.5 -47 -69.5s-43.667 -36.333 -71 -49s-57 -20 -89 -22l-1 -13
c52.667 -12 93 -34.667 121 -68s42 -75.333 42 -126c0 -43.333 -9.5 -83.166 -28.5 -119.499s-45.667 -67.5 -80 -93.5s-75.5 -46.167 -123.5 -60.5s-100.667 -21.5 -158 -21.5c-58 0 -111.167 8.5 -159.5 25.5s-89 40.167 -122 69.5s-57.667 64.166 -74 104.499
s-21.5 84.166 -15.5 131.499h249c-2.66699 -34 7.33301 -61.667 30 -83s53 -32 91 -32c39.333 0 70.833 10 94.5 30s35.5 46.667 35.5 80c0 26 -11 47.5 -33 64.5s-50 25.5 -84 25.5h-99z" />
    <glyph glyph-name="acute" unicode="&#xb4;" horiz-adv-x="1071" 
d="M776 1634h310l-361 -353h-272z" />
    <glyph glyph-name="paragraph" unicode="&#xb6;" horiz-adv-x="1538" 
d="M538 -259l154.999 719.001c-62 6 -118 20.667 -168 44s-92.5 53.5 -127.5 90.5s-62 79.667 -81 128s-28.5 100.833 -28.5 157.5c0 81.333 14.333 155.833 43 223.5s69.334 126.167 122.001 175.5s116 88.166 190 116.499s156.333 43.833 247 46.5l290 1l-362 -1702h-280z
M1348 1443h280l-361 -1702h-280z" />
    <glyph glyph-name="periodcentered" unicode="&#xb7;" horiz-adv-x="723" 
d="M443 555c-28 0 -53.333 4.5 -76 13.5s-42 21.333 -58 37s-28.167 34 -36.5 55s-12.5 43.5 -12.5 67.5c0 26.667 4.16699 51.167 12.5 73.5s20.5 41.666 36.5 57.999s35.333 29.166 58 38.499s48 14 76 14s53.333 -4.5 76 -13.5s41.834 -21.333 57.501 -37
s27.667 -34 36 -55s12.5 -43.5 12.5 -67.5c0 -26.667 -4.16699 -51.167 -12.5 -73.5s-20.333 -41.666 -36 -57.999s-34.834 -29.166 -57.501 -38.499s-48 -14 -76 -14z" />
    <glyph glyph-name="cedilla" unicode="&#xb8;" horiz-adv-x="1071" 
d="M261 -116l95.999 146.001h184l-96 -147c106 -17.333 159 -72 159 -164c0 -32 -6.33301 -61 -19 -87s-30.5 -48.333 -53.5 -67s-50.667 -33 -83 -43s-68.166 -15 -107.499 -15c-32.667 0 -65.834 3.16699 -99.501 9.5s-62.5 15.166 -86.5 26.499l28 133
c8.66699 -4 19 -7.5 31 -10.5s24.333 -5.83301 37 -8.5s25.334 -4.66699 38.001 -6s24.667 -2 36 -2c29.333 0 52 5 68 15s24 24.333 24 43c0 40.667 -38.667 61 -116 61h-57z" />
    <glyph glyph-name="one.sups" unicode="&#xb9;" horiz-adv-x="759" 
d="M577 1576h-13l-251 -145l49 238l266 155h268l-197 -928h-268z" />
    <glyph glyph-name="ordmasculine" unicode="&#xba;" horiz-adv-x="1106" 
d="M726 1250c-32.667 0 -63.332 -8.83496 -91.999 -26.502s-53.5 -41.667 -74.5 -72s-37.667 -66 -50 -107s-18.5 -84.5 -18.5 -130.5c0 -65.333 13.667 -116.166 41 -152.499s65.666 -54.5 114.999 -54.5c32 0 62.333 8.83301 91 26.5s53.5 41.834 74.5 72.501
s37.667 66.5 50 107.5s18.5 84.833 18.5 131.5c0 64 -13.833 114.167 -41.5 150.5s-65.5 54.5 -113.5 54.5zM635.002 485.998c-64.667 0 -123.001 9.83301 -175.001 29.5s-96.167 48 -132.5 85s-64.166 81.833 -83.499 134.5s-29 112 -29 178
c0 80 13.167 154.167 39.5 222.5s62.833 127.166 109.5 176.499s102.167 88 166.5 116s134.166 42 209.499 42c64.667 0 122.834 -9.83301 174.501 -29.5s95.5 -48.167 131.5 -85.5s63.5 -82.666 82.5 -135.999s28.5 -113.333 28.5 -180c0 -80 -13 -153.833 -39 -221.5
s-62.167 -126 -108.5 -175s-101.5 -87.333 -165.5 -115s-133.667 -41.5 -209 -41.5z" />
    <glyph glyph-name="guillemotright" unicode="&#xbb;" horiz-adv-x="1448" 
d="M314 981h264l262 -411l-2 -8l-427 -411h-288l441 430l2 11zM827 981h264l261 -411l-2 -8l-417 -411h-298l437 425l2 10z" />
    <glyph glyph-name="onequarter" unicode="&#xbc;" horiz-adv-x="2292" 
d="M1792 136h-459l45 239l91.5 122.5l102 127.5l118 140.5l140.5 162.5h382l-124 -581h111l-44 -211h-111l-29 -136h-252zM1602 337h239l87 402h-13l-71 -82.5l-68 -82.5l-76 -97.5l-95 -127.5zM595 1195h-13l-251 -145l49 238l266 155h268l-197 -928h-268zM1088 756
l455 687h276l-556 -749l-450 -694h-277z" />
    <glyph glyph-name="onehalf" unicode="&#xbd;" horiz-adv-x="2287" 
d="M1514 631c2.66699 46.667 14.668 89.8301 36.001 129.497s49.666 73.834 84.999 102.501s76.5 51 123.5 67s98.167 24 153.5 24c50 0 95.833 -6.66699 137.5 -20s77.334 -31.833 107 -55.5c29.667 -23.667 52.834 -52 69.501 -85s25 -69.5 25 -109.5
c0 -28 -4.16699 -54.667 -12.5 -80s-22.333 -51 -42 -77s-45.5 -53.167 -77.5 -81.5s-71.333 -59.166 -118 -92.499c-6 -4 -17.833 -12.333 -35.5 -25l-57 -40.5l-59 -40.5c-19 -12.667 -32.5 -21.334 -40.5 -26.001l-2 -12h360l-43 -209h-720l40 192l322 233
c44 31.333 80.5 58.5 109.5 81.5s52 43.333 69 61s28.833 33.834 35.5 48.501s10 29.334 10 44.001c0 26.667 -9.33301 48 -28 64s-43.334 24 -74.001 24c-34 0 -62.833 -10.333 -86.5 -31s-39.167 -49 -46.5 -85v-1h-241zM595.001 1195h-13l-251 -145l49 238l266 155h268
l-197 -928h-268zM1088 755.996l455 687h276l-556 -749l-450 -694h-277z" />
    <glyph glyph-name="threequarters" unicode="&#xbe;" horiz-adv-x="2426" 
d="M553 1083l112.999 0.000976562c39.333 0 71.333 9.33301 96 28s37 43 37 73c0 25.333 -10 45.833 -30 61.5s-46.333 23.5 -79 23.5c-30 0 -56 -7.5 -78 -22.5s-37.667 -35.5 -47 -61.5h-241c8.66699 43.333 24.167 82.5 46.5 117.5s50.5 64.833 84.5 89.5
s72.833 43.667 116.5 57s90.834 20 141.501 20c50 0 95.833 -6.33301 137.5 -19s77.667 -30.167 108 -52.5s54 -49 71 -80s25.5 -64.833 25.5 -101.5c0 -30 -5.66699 -58.167 -17 -84.5s-27 -49.5 -47 -69.5s-43.667 -36.333 -71 -49s-57 -20 -89 -22l-1 -13
c52.667 -12 93 -34.667 121 -68s42 -75.333 42 -126c0 -43.333 -9.5 -83.166 -28.5 -119.499s-45.667 -67.5 -80 -93.5s-75.5 -46.167 -123.5 -60.5s-100.667 -21.5 -158 -21.5c-58 0 -111.167 8.5 -159.5 25.5s-89 40.167 -122 69.5s-57.667 64.166 -74 104.499
s-21.5 84.166 -15.5 131.499h249c-2.66699 -34 7.33301 -61.667 30 -83s53 -32 91 -32c39.333 0 70.833 10 94.5 30s35.5 46.667 35.5 80c0 26 -11 47.5 -33 64.5s-50 25.5 -84 25.5h-99zM1925 136.001h-459l45 239l91.5 122.5l102 127.5l118 140.5l140.5 162.5h382
l-124 -581h111l-44 -211h-111l-29 -136h-252zM1735 337.001h239l87 402h-13l-71 -82.5l-68 -82.5l-76 -97.5l-95 -127.5zM1221 756.001l455 687h276l-556 -749l-450 -694h-277z" />
    <glyph glyph-name="questiondown" unicode="&#xbf;" horiz-adv-x="1140" 
d="M736 1152c27.333 0 52.332 -3.99902 74.999 -11.999s42.167 -19.167 58.5 -33.5s29 -31.5 38 -51.5s13.5 -42 13.5 -66c0 -26 -4.5 -50 -13.5 -72s-21.667 -41 -38 -57s-35.833 -28.5 -58.5 -37.5s-47.667 -13.5 -75 -13.5c-26 0 -50.333 4 -73 12
s-42.167 19.167 -58.5 33.5s-29.166 31.5 -38.499 51.5s-14 42 -14 66c0 24.667 4.5 48 13.5 70s21.5 41.167 37.5 57.5s35.333 29.166 58 38.499s47.667 14 75 14zM997.999 69.001c-8.66699 -59.333 -26.333 -113.669 -53 -163.002s-61.5 -91.666 -104.5 -126.999
s-93.333 -63 -151 -83s-121.5 -30 -191.5 -30c-71.333 0 -135.666 9 -192.999 27s-106.5 43 -147.5 75s-72.5 70 -94.5 114s-33 92 -33 144c0 42 6.33301 82.5 19 121.5s31.167 75.5 55.5 109.5s54 65 89 93s75.167 52 120.5 72c36.667 16.667 67.834 32.334 93.501 47.001
s47 29.834 64 45.501s30.167 32.5 39.5 50.5s16.333 39 21 63l9 43h270l-12 -63c-7.33301 -44.667 -17.333 -83.5 -30 -116.5s-29 -62 -49 -87s-44 -47 -72 -66s-61.333 -36.833 -100 -53.5c-40.667 -18.667 -74.834 -37 -102.501 -55s-50.167 -36.333 -67.5 -55
s-29.833 -38.334 -37.5 -59.001s-11.5 -42.667 -11.5 -66c0 -20 4.16699 -38.833 12.5 -56.5s20.166 -33 35.499 -46s34.333 -23.167 57 -30.5s48.667 -11 78 -11c52 0 97 14.5 135 43.5s64 68.833 78 119.5h273z" />
    <glyph glyph-name="Agrave" unicode="&#xc0;" horiz-adv-x="1501" 
d="M1007 344h-509l-186 -344h-315l820 1443h349l187 -1443h-311zM612 577h381l-58 565h-19zM1159 1590h-266l-217 318h306z" />
    <glyph glyph-name="Aacute" unicode="&#xc1;" horiz-adv-x="1501" 
d="M1007 344h-509l-186 -344h-315l820 1443h349l187 -1443h-311zM612 577h381l-58 565h-19zM1218 1908h315l-381 -318h-277z" />
    <glyph glyph-name="Acircumflex" unicode="&#xc2;" horiz-adv-x="1501" 
d="M1007 344h-509l-186 -344h-315l820 1443h349l187 -1443h-311zM612 577h381l-58 565h-19zM1413 1590h-249l-92 191h-18l-172 -191h-275l328 335h291z" />
    <glyph glyph-name="Atilde" unicode="&#xc3;" horiz-adv-x="1501" 
d="M1007 344h-509l-186 -344h-315l820 1443h349l187 -1443h-311zM612 577h381l-58 565h-19zM1212 1578c-40.667 0 -75.335 7.5 -104.002 22.5s-54.334 31.5 -77.001 49.5l-62.5 49.5c-19 15 -39.5 22.5 -61.5 22.5c-26 0 -47.333 -8.16699 -64 -24.5
s-27.667 -42.833 -33 -79.5h-181c6 43.333 16.833 82.166 32.5 116.499s35.334 63.333 59.001 87s50.667 41.834 81 54.501s62.5 19 96.5 19c40.667 0 75.334 -7.5 104.001 -22.5s54.167 -31.5 76.5 -49.5l62.5 -49.5c19.333 -15 39.666 -22.5 60.999 -22.5
c26.667 0 48.334 8.16699 65.001 24.5s27.667 42.833 33 79.5h181c-6 -43.333 -17 -82.166 -33 -116.499s-35.667 -63.333 -59 -87s-50.166 -41.834 -80.499 -54.501s-62.5 -19 -96.5 -19z" />
    <glyph glyph-name="Adieresis" unicode="&#xc4;" horiz-adv-x="1501" 
d="M1007 344h-509l-186 -344h-315l820 1443h349l187 -1443h-311zM612 577h381l-58 565h-19zM819 1579c-22.667 0 -43.5 3.83301 -62.5 11.5s-35.5 18.167 -49.5 31.5s-24.833 29.333 -32.5 48s-11.5 39 -11.5 61s3.83301 42.167 11.5 60.5s18.5 34.333 32.5 48
s30.5 24.167 49.5 31.5s39.833 11 62.5 11c22 0 42.5 -3.66699 61.5 -11s35.5 -17.833 49.5 -31.5s24.833 -29.667 32.5 -48s11.5 -38.5 11.5 -60.5s-3.83301 -42.333 -11.5 -61s-18.5 -34.667 -32.5 -48s-30.5 -23.833 -49.5 -31.5s-39.5 -11.5 -61.5 -11.5zM1286 1579
c-22 0 -42.5 3.83301 -61.5 11.5s-35.5 18.167 -49.5 31.5s-24.833 29.333 -32.5 48s-11.5 39 -11.5 61s3.83301 42.167 11.5 60.5s18.5 34.333 32.5 48s30.5 24.167 49.5 31.5s39.5 11 61.5 11c22.667 0 43.5 -3.66699 62.5 -11s35.5 -17.833 49.5 -31.5
s24.833 -29.667 32.5 -48s11.5 -38.5 11.5 -60.5s-3.83301 -42.333 -11.5 -61s-18.5 -34.667 -32.5 -48s-30.5 -23.833 -49.5 -31.5s-39.833 -11.5 -62.5 -11.5z" />
    <glyph glyph-name="Aring" unicode="&#xc5;" horiz-adv-x="1501" 
d="M1007 344h-509l-186 -344h-315l820 1443h349l187 -1443h-311zM612 577h381l-58 565h-19zM1072 1578c-35.333 0 -68 6 -98 18s-56 28.833 -78 50.5s-39.167 47.167 -51.5 76.5s-18.5 61.333 -18.5 96c0 34 6.16699 65.667 18.5 95s29.5 54.5 51.5 75.5s48 37.5 78 49.5
s62.667 18 98 18c34.667 0 67 -6 97 -18s56 -28.5 78 -49.5s39.167 -46.167 51.5 -75.5s18.5 -61 18.5 -95c0 -34.667 -6.16699 -66.667 -18.5 -96s-29.5 -54.833 -51.5 -76.5s-48 -38.5 -78 -50.5s-62.333 -18 -97 -18zM1071 1714c31.333 0 56.833 9.83301 76.5 29.5
s29.5 44.5 29.5 74.5s-10 54.667 -30 74s-45.333 29 -76 29s-55.834 -9.66699 -75.501 -29s-29.5 -44 -29.5 -74c0 -30.667 9.83301 -55.667 29.5 -75s44.834 -29 75.501 -29z" />
    <glyph glyph-name="AE" unicode="&#xc6;" horiz-adv-x="2059" 
d="M1050 1202l-379 -604h379l130 604h-130zM1002 364h-465l-234 -364h-307l903 1443h1259l-54 -258h-650l-75 -341h614l-50 -239h-613l-77 -347h650l-52 -258h-929z" />
    <glyph glyph-name="Ccedilla" unicode="&#xc7;" horiz-adv-x="1534" 
d="M1259 932l-0.00292969 14.0029c-2 40 -10.667 76.333 -26 109s-36.333 60.667 -63 84s-58.334 41.333 -95.001 54s-77 19 -121 19c-65.333 0 -126.333 -15.833 -183 -47.5s-105.834 -75.334 -147.501 -131.001s-74.5 -121.5 -98.5 -197.5s-36 -158.333 -36 -247
c0 -55.333 7.33301 -105.166 22 -149.499s35.667 -82 63 -113s60.333 -54.833 99 -71.5s82.334 -25 131.001 -25c40.667 0 79.834 5.5 117.501 16.5s71.834 26.833 102.501 47.5s57.334 45.334 80.001 74.001s40 60.667 52 96h299
c-14.667 -69.333 -39.167 -132.833 -73.5 -190.5s-77 -107.834 -128 -150.501s-109.167 -77.334 -174.5 -104.001s-136 -44 -212 -52l-57 -87c106 -17.333 159 -72 159 -164c0 -32 -6.33301 -61 -19 -87s-30.5 -48.333 -53.5 -67s-50.667 -33 -83 -43
s-68.166 -15 -107.499 -15c-32.667 0 -65.834 3.16699 -99.501 9.5s-62.5 15.166 -86.5 26.499l28 133c8.66699 -4 19 -7.5 31 -10.5s24.333 -5.83301 37 -8.5s25.334 -4.66699 38.001 -6s24.667 -2 36 -2c29.333 0 52 5 68 15s24 24.333 24 43c0 40.667 -38.667 61 -116 61
h-57l17 116l58 88c-77.333 9.33301 -147 30.166 -209 62.499s-114.833 74.333 -158.5 126s-77.334 112.167 -101.001 181.5s-35.5 145.666 -35.5 228.999c0 133.333 19.667 255.833 59 367.5s94.333 207.834 165 288.501s154.334 143.5 251.001 188.5s202.667 67.5 318 67.5
c82.667 0 159.5 -12.833 230.5 -38.5s132.5 -61.167 184.5 -106.5s92.833 -98.833 122.5 -160.5s44.5 -128.167 44.5 -199.5v-21.5c0 -7 -0.666992 -14.167 -2 -21.5h-294z" />
    <glyph glyph-name="Egrave" unicode="&#xc8;" horiz-adv-x="1274" 
d="M1053 1590h-266l-217 318h306zM1057 0h-957l307 1443h956l-53 -258h-652l-75 -337h616l-50 -239h-615l-78 -351h653z" />
    <glyph glyph-name="Eacute" unicode="&#xc9;" horiz-adv-x="1274" 
d="M1112 1908h315l-381 -318h-277zM1057 0h-957l307 1443h956l-53 -258h-652l-75 -337h616l-50 -239h-615l-78 -351h653z" />
    <glyph glyph-name="Ecircumflex" unicode="&#xca;" horiz-adv-x="1274" 
d="M1307 1590h-249l-92 191h-18l-172 -191h-275l328 335h291zM1057 0h-957l307 1443h956l-53 -258h-652l-75 -337h616l-50 -239h-615l-78 -351h653z" />
    <glyph glyph-name="Edieresis" unicode="&#xcb;" horiz-adv-x="1274" 
d="M713 1579c-22.667 0 -43.5 3.83301 -62.5 11.5s-35.5 18.167 -49.5 31.5s-24.833 29.333 -32.5 48s-11.5 39 -11.5 61s3.83301 42.167 11.5 60.5s18.5 34.333 32.5 48s30.5 24.167 49.5 31.5s39.833 11 62.5 11c22 0 42.5 -3.66699 61.5 -11s35.5 -17.833 49.5 -31.5
s24.833 -29.667 32.5 -48s11.5 -38.5 11.5 -60.5s-3.83301 -42.333 -11.5 -61s-18.5 -34.667 -32.5 -48s-30.5 -23.833 -49.5 -31.5s-39.5 -11.5 -61.5 -11.5zM1180 1579c-22 0 -42.5 3.83301 -61.5 11.5s-35.5 18.167 -49.5 31.5s-24.833 29.333 -32.5 48
s-11.5 39 -11.5 61s3.83301 42.167 11.5 60.5s18.5 34.333 32.5 48s30.5 24.167 49.5 31.5s39.5 11 61.5 11c22.667 0 43.5 -3.66699 62.5 -11s35.5 -17.833 49.5 -31.5s24.833 -29.667 32.5 -48s11.5 -38.5 11.5 -60.5s-3.83301 -42.333 -11.5 -61s-18.5 -34.667 -32.5 -48
s-30.5 -23.833 -49.5 -31.5s-39.833 -11.5 -62.5 -11.5zM1057 0h-957l307 1443h956l-53 -258h-652l-75 -337h616l-50 -239h-615l-78 -351h653z" />
    <glyph glyph-name="Igrave" unicode="&#xcc;" horiz-adv-x="653" 
d="M100 0l307 1443h304l-307 -1443h-304zM727 1590h-266l-217 318h306z" />
    <glyph glyph-name="Iacute" unicode="&#xcd;" horiz-adv-x="653" 
d="M100 0l307 1443h304l-307 -1443h-304zM786 1908h315l-381 -318h-277z" />
    <glyph glyph-name="Icircumflex" unicode="&#xce;" horiz-adv-x="653" 
d="M100 0l307 1443h304l-307 -1443h-304zM981 1590h-249l-92 191h-18l-172 -191h-275l328 335h291z" />
    <glyph glyph-name="Idieresis" unicode="&#xcf;" horiz-adv-x="653" 
d="M100 0l307 1443h304l-307 -1443h-304zM387 1579c-22.667 0 -43.5 3.83301 -62.5 11.5s-35.5 18.167 -49.5 31.5s-24.833 29.333 -32.5 48s-11.5 39 -11.5 61s3.83301 42.167 11.5 60.5s18.5 34.333 32.5 48s30.5 24.167 49.5 31.5s39.833 11 62.5 11
c22 0 42.5 -3.66699 61.5 -11s35.5 -17.833 49.5 -31.5s24.833 -29.667 32.5 -48s11.5 -38.5 11.5 -60.5s-3.83301 -42.333 -11.5 -61s-18.5 -34.667 -32.5 -48s-30.5 -23.833 -49.5 -31.5s-39.5 -11.5 -61.5 -11.5zM854 1579c-22 0 -42.5 3.83301 -61.5 11.5
s-35.5 18.167 -49.5 31.5s-24.833 29.333 -32.5 48s-11.5 39 -11.5 61s3.83301 42.167 11.5 60.5s18.5 34.333 32.5 48s30.5 24.167 49.5 31.5s39.5 11 61.5 11c22.667 0 43.5 -3.66699 62.5 -11s35.5 -17.833 49.5 -31.5s24.833 -29.667 32.5 -48s11.5 -38.5 11.5 -60.5
s-3.83301 -42.333 -11.5 -61s-18.5 -34.667 -32.5 -48s-30.5 -23.833 -49.5 -31.5s-39.833 -11.5 -62.5 -11.5z" />
    <glyph glyph-name="Eth" unicode="&#xd0;" horiz-adv-x="1516" 
d="M729 257c68 0 130.668 13.501 188.001 40.501s106.833 65.333 148.5 115s74.167 109.167 97.5 178.5s35 146.333 35 231c0 56 -7.83301 106.667 -23.5 152s-38.334 83.666 -68.001 114.999s-66 55.5 -109 72.5s-91.833 25.5 -146.5 25.5h-191l-74 -342h174l-47 -227h-176
l-78 -361h270zM918.001 1443c92 0 174.501 -13.334 247.501 -40.001s135 -65.167 186 -115.5s90 -111.833 117 -184.5s40.5 -155 40.5 -247c0 -82.667 -8.5 -161.167 -25.5 -235.5s-41.167 -143.166 -72.5 -206.499s-69.333 -120.5 -114 -171.5s-95 -94.5 -151 -130.5
s-116.833 -63.667 -182.5 -83s-134.834 -29 -207.501 -29h-655l131 618h-174l47 227h175l127 598h511z" />
    <glyph glyph-name="Ntilde" unicode="&#xd1;" horiz-adv-x="1573" 
d="M1221 1578c-40.667 0 -75.335 7.5 -104.002 22.5s-54.334 31.5 -77.001 49.5l-62.5 49.5c-19 15 -39.5 22.5 -61.5 22.5c-26 0 -47.333 -8.16699 -64 -24.5s-27.667 -42.833 -33 -79.5h-181c6 43.333 16.833 82.166 32.5 116.499s35.334 63.333 59.001 87
s50.667 41.834 81 54.501s62.5 19 96.5 19c40.667 0 75.334 -7.5 104.001 -22.5s54.167 -31.5 76.5 -49.5l62.5 -49.5c19.333 -15 39.666 -22.5 60.999 -22.5c26.667 0 48.334 8.16699 65.001 24.5s27.667 42.833 33 79.5h181c-6 -43.333 -17 -82.166 -33 -116.499
s-35.667 -63.333 -59 -87s-50.166 -41.834 -80.499 -54.501s-62.5 -19 -96.5 -19zM99.999 0l307 1443h231l479 -929h18l202 929h293l-307 -1443h-229l-483 922h-18l-200 -922h-293z" />
    <glyph glyph-name="Ograve" unicode="&#xd2;" horiz-adv-x="1617" 
d="M1140 1589h-266l-217 318h306zM805 -37c-94.667 0 -180.333 15.499 -257 46.499s-142.167 73.833 -196.5 128.5s-96.333 119.5 -126 194.5s-44.5 156.167 -44.5 243.5c0 88.667 9.16699 172.5 27.5 251.5s44.166 152 77.499 219s73.833 127.167 121.5 180.5
s100.667 98.833 159 136.5s121.666 66.5 189.999 86.5s139.833 30 214.5 30c96 0 182.333 -15.5 259 -46.5s141.834 -73.833 195.501 -128.5s95 -119.5 124 -194.5s43.5 -156.167 43.5 -243.5c0 -88.667 -9 -172.667 -27 -252s-43.833 -152.5 -77.5 -219.5
s-74.167 -127.167 -121.5 -180.5s-100.166 -98.666 -158.499 -135.999s-121.5 -66 -189.5 -86s-139.333 -30 -214 -30zM1283 843.999c0 54.667 -7.83203 104.501 -23.499 149.501s-37.667 83.5 -66 115.5s-62.333 56.667 -102 74s-83.834 26 -132.501 26
c-65.333 0 -126.5 -15.667 -183.5 -47s-106.5 -74.5 -148.5 -129.5s-75.167 -119.667 -99.5 -194s-36.5 -154.5 -36.5 -240.5c0 -55.333 7.83301 -105.333 23.5 -150s37.667 -83 66 -115s62.5 -56.667 102.5 -74s84.667 -26 134 -26c65.333 0 126.333 15.5 183 46.5
s106 73.833 148 128.5s75 119.167 99 193.5s36 155.166 36 242.499z" />
    <glyph glyph-name="Oacute" unicode="&#xd3;" horiz-adv-x="1617" 
d="M1199 1907h315l-381 -318h-277zM805 -37c-94.667 0 -180.333 15.499 -257 46.499s-142.167 73.833 -196.5 128.5s-96.333 119.5 -126 194.5s-44.5 156.167 -44.5 243.5c0 88.667 9.16699 172.5 27.5 251.5s44.166 152 77.499 219s73.833 127.167 121.5 180.5
s100.667 98.833 159 136.5s121.666 66.5 189.999 86.5s139.833 30 214.5 30c96 0 182.333 -15.5 259 -46.5s141.834 -73.833 195.501 -128.5s95 -119.5 124 -194.5s43.5 -156.167 43.5 -243.5c0 -88.667 -9 -172.667 -27 -252s-43.833 -152.5 -77.5 -219.5
s-74.167 -127.167 -121.5 -180.5s-100.166 -98.666 -158.499 -135.999s-121.5 -66 -189.5 -86s-139.333 -30 -214 -30zM1283 843.999c0 54.667 -7.83203 104.501 -23.499 149.501s-37.667 83.5 -66 115.5s-62.333 56.667 -102 74s-83.834 26 -132.501 26
c-65.333 0 -126.5 -15.667 -183.5 -47s-106.5 -74.5 -148.5 -129.5s-75.167 -119.667 -99.5 -194s-36.5 -154.5 -36.5 -240.5c0 -55.333 7.83301 -105.333 23.5 -150s37.667 -83 66 -115s62.5 -56.667 102.5 -74s84.667 -26 134 -26c65.333 0 126.333 15.5 183 46.5
s106 73.833 148 128.5s75 119.167 99 193.5s36 155.166 36 242.499z" />
    <glyph glyph-name="Ocircumflex" unicode="&#xd4;" horiz-adv-x="1617" 
d="M1394 1589h-249l-92 191h-18l-172 -191h-275l328 335h291zM805 -37c-94.667 0 -180.333 15.499 -257 46.499s-142.167 73.833 -196.5 128.5s-96.333 119.5 -126 194.5s-44.5 156.167 -44.5 243.5c0 88.667 9.16699 172.5 27.5 251.5s44.166 152 77.499 219
s73.833 127.167 121.5 180.5s100.667 98.833 159 136.5s121.666 66.5 189.999 86.5s139.833 30 214.5 30c96 0 182.333 -15.5 259 -46.5s141.834 -73.833 195.501 -128.5s95 -119.5 124 -194.5s43.5 -156.167 43.5 -243.5c0 -88.667 -9 -172.667 -27 -252
s-43.833 -152.5 -77.5 -219.5s-74.167 -127.167 -121.5 -180.5s-100.166 -98.666 -158.499 -135.999s-121.5 -66 -189.5 -86s-139.333 -30 -214 -30zM1283 843.999c0 54.667 -7.83203 104.501 -23.499 149.501s-37.667 83.5 -66 115.5s-62.333 56.667 -102 74
s-83.834 26 -132.501 26c-65.333 0 -126.5 -15.667 -183.5 -47s-106.5 -74.5 -148.5 -129.5s-75.167 -119.667 -99.5 -194s-36.5 -154.5 -36.5 -240.5c0 -55.333 7.83301 -105.333 23.5 -150s37.667 -83 66 -115s62.5 -56.667 102.5 -74s84.667 -26 134 -26
c65.333 0 126.333 15.5 183 46.5s106 73.833 148 128.5s75 119.167 99 193.5s36 155.166 36 242.499z" />
    <glyph glyph-name="Otilde" unicode="&#xd5;" horiz-adv-x="1617" 
d="M805 -37c-94.667 0 -180.333 15.499 -257 46.499s-142.167 73.833 -196.5 128.5s-96.333 119.5 -126 194.5s-44.5 156.167 -44.5 243.5c0 88.667 9.16699 172.5 27.5 251.5s44.166 152 77.499 219s73.833 127.167 121.5 180.5s100.667 98.833 159 136.5
s121.666 66.5 189.999 86.5s139.833 30 214.5 30c96 0 182.333 -15.5 259 -46.5s141.834 -73.833 195.501 -128.5s95 -119.5 124 -194.5s43.5 -156.167 43.5 -243.5c0 -88.667 -9 -172.667 -27 -252s-43.833 -152.5 -77.5 -219.5s-74.167 -127.167 -121.5 -180.5
s-100.166 -98.666 -158.499 -135.999s-121.5 -66 -189.5 -86s-139.333 -30 -214 -30zM1283 843.999c0 54.667 -7.83203 104.501 -23.499 149.501s-37.667 83.5 -66 115.5s-62.333 56.667 -102 74s-83.834 26 -132.501 26c-65.333 0 -126.5 -15.667 -183.5 -47
s-106.5 -74.5 -148.5 -129.5s-75.167 -119.667 -99.5 -194s-36.5 -154.5 -36.5 -240.5c0 -55.333 7.83301 -105.333 23.5 -150s37.667 -83 66 -115s62.5 -56.667 102.5 -74s84.667 -26 134 -26c65.333 0 126.333 15.5 183 46.5s106 73.833 148 128.5s75 119.167 99 193.5
s36 155.166 36 242.499zM1193 1577c-40.667 0 -75.335 7.5 -104.002 22.5s-54.334 31.5 -77.001 49.5l-62.5 49.5c-19 15 -39.5 22.5 -61.5 22.5c-26 0 -47.333 -8.16699 -64 -24.5s-27.667 -42.833 -33 -79.5h-181c6 43.333 16.833 82.166 32.5 116.499
s35.334 63.333 59.001 87s50.667 41.834 81 54.501s62.5 19 96.5 19c40.667 0 75.334 -7.5 104.001 -22.5s54.167 -31.5 76.5 -49.5l62.5 -49.5c19.333 -15 39.666 -22.5 60.999 -22.5c26.667 0 48.334 8.16699 65.001 24.5s27.667 42.833 33 79.5h181
c-6 -43.333 -17 -82.166 -33 -116.499s-35.667 -63.333 -59 -87s-50.166 -41.834 -80.499 -54.501s-62.5 -19 -96.5 -19z" />
    <glyph glyph-name="Odieresis" unicode="&#xd6;" horiz-adv-x="1617" 
d="M800 1578c-22.667 0 -43.5 3.83301 -62.5 11.5s-35.5 18.167 -49.5 31.5s-24.833 29.333 -32.5 48s-11.5 39 -11.5 61s3.83301 42.167 11.5 60.5s18.5 34.333 32.5 48s30.5 24.167 49.5 31.5s39.833 11 62.5 11c22 0 42.5 -3.66699 61.5 -11s35.5 -17.833 49.5 -31.5
s24.833 -29.667 32.5 -48s11.5 -38.5 11.5 -60.5s-3.83301 -42.333 -11.5 -61s-18.5 -34.667 -32.5 -48s-30.5 -23.833 -49.5 -31.5s-39.5 -11.5 -61.5 -11.5zM1267 1578c-22 0 -42.5 3.83301 -61.5 11.5s-35.5 18.167 -49.5 31.5s-24.833 29.333 -32.5 48
s-11.5 39 -11.5 61s3.83301 42.167 11.5 60.5s18.5 34.333 32.5 48s30.5 24.167 49.5 31.5s39.5 11 61.5 11c22.667 0 43.5 -3.66699 62.5 -11s35.5 -17.833 49.5 -31.5s24.833 -29.667 32.5 -48s11.5 -38.5 11.5 -60.5s-3.83301 -42.333 -11.5 -61s-18.5 -34.667 -32.5 -48
s-30.5 -23.833 -49.5 -31.5s-39.833 -11.5 -62.5 -11.5zM805 -37c-94.667 0 -180.333 15.499 -257 46.499s-142.167 73.833 -196.5 128.5s-96.333 119.5 -126 194.5s-44.5 156.167 -44.5 243.5c0 88.667 9.16699 172.5 27.5 251.5s44.166 152 77.499 219
s73.833 127.167 121.5 180.5s100.667 98.833 159 136.5s121.666 66.5 189.999 86.5s139.833 30 214.5 30c96 0 182.333 -15.5 259 -46.5s141.834 -73.833 195.501 -128.5s95 -119.5 124 -194.5s43.5 -156.167 43.5 -243.5c0 -88.667 -9 -172.667 -27 -252
s-43.833 -152.5 -77.5 -219.5s-74.167 -127.167 -121.5 -180.5s-100.166 -98.666 -158.499 -135.999s-121.5 -66 -189.5 -86s-139.333 -30 -214 -30zM1283 843.999c0 54.667 -7.83203 104.501 -23.499 149.501s-37.667 83.5 -66 115.5s-62.333 56.667 -102 74
s-83.834 26 -132.501 26c-65.333 0 -126.5 -15.667 -183.5 -47s-106.5 -74.5 -148.5 -129.5s-75.167 -119.667 -99.5 -194s-36.5 -154.5 -36.5 -240.5c0 -55.333 7.83301 -105.333 23.5 -150s37.667 -83 66 -115s62.5 -56.667 102.5 -74s84.667 -26 134 -26
c65.333 0 126.333 15.5 183 46.5s106 73.833 148 128.5s75 119.167 99 193.5s36 155.166 36 242.499z" />
    <glyph glyph-name="multiply" unicode="&#xd7;" horiz-adv-x="1415" 
d="M724 397l-359 -279l-144 205l359 280l-233 319l211 156l228 -309l361 279l144 -206l-360 -280l235 -324l-211 -156z" />
    <glyph glyph-name="Oslash" unicode="&#xd8;" horiz-adv-x="1592" 
d="M667 267c45.333 -22.667 95.333 -33.999 150 -33.999c65.333 0 126.333 15.5 183 46.5s106 73.833 148 128.5s75 119.167 99 193.5s36 155.166 36 242.499c0 49.333 -6.16699 94.333 -18.5 135s-29.833 76.667 -52.5 108zM1119 1169c-47.333 26.667 -100.667 40 -160 40
c-65.333 0 -126.5 -15.667 -183.5 -47s-106.5 -74.5 -148.5 -129.5s-75.167 -119.667 -99.5 -194s-36.5 -154.5 -36.5 -240.5c0 -52 7 -99.5 21 -142.5s34 -80.5 60 -112.5zM1382 1344c68 -55.333 120.167 -123.832 156.5 -205.499s54.5 -172.167 54.5 -271.5
c0 -88.667 -9 -172.667 -27 -252s-43.833 -152.5 -77.5 -219.5s-74.167 -127.167 -121.5 -180.5s-100.166 -98.666 -158.499 -135.999s-121.5 -66 -189.5 -86s-139.333 -30 -214 -30c-56 0 -108.667 5.5 -158 16.5s-95.666 26.833 -138.999 47.5l-63 -95l-102 66l62 93
c-71.333 55.333 -126.5 124.666 -165.5 207.999s-58.5 175.666 -58.5 276.999c0 88.667 9.16699 172.5 27.5 251.5s44.166 152 77.499 219s73.833 127.167 121.5 180.5s100.667 98.833 159 136.5s121.666 66.5 189.999 86.5s139.833 30 214.5 30
c58.667 0 113.667 -6 165 -18s99 -29 143 -51l64 96l108 -59z" />
    <glyph glyph-name="Ugrave" unicode="&#xd9;" horiz-adv-x="1564" 
d="M1182 1590h-266l-217 318h306zM776 -37c-88.667 0 -168.001 11.666 -238.001 34.999s-129.167 56 -177.5 98s-85.5 91.667 -111.5 149s-39 120 -39 188c0 20 1 40.667 3 62s5.33301 42.666 10 63.999l187 884h305l-186 -877c-8 -37.333 -11.667 -71.333 -11 -102
c1.33301 -72 26.166 -128.333 74.499 -169s115.5 -61 201.5 -61c42 0 81 6.16699 117 18.5s68.167 30.333 96.5 54s52.333 52.834 72 87.501s34.5 74.334 44.5 119.001l198 930h304l-211 -997c-16 -76 -42.167 -143.833 -78.5 -203.5s-81.666 -110.167 -135.999 -151.5
s-117.166 -73 -188.499 -95s-150 -33 -236 -33z" />
    <glyph glyph-name="Uacute" unicode="&#xda;" horiz-adv-x="1564" 
d="M1241 1908h315l-381 -318h-277zM776 -37c-88.667 0 -168.001 11.666 -238.001 34.999s-129.167 56 -177.5 98s-85.5 91.667 -111.5 149s-39 120 -39 188c0 20 1 40.667 3 62s5.33301 42.666 10 63.999l187 884h305l-186 -877c-8 -37.333 -11.667 -71.333 -11 -102
c1.33301 -72 26.166 -128.333 74.499 -169s115.5 -61 201.5 -61c42 0 81 6.16699 117 18.5s68.167 30.333 96.5 54s52.333 52.834 72 87.501s34.5 74.334 44.5 119.001l198 930h304l-211 -997c-16 -76 -42.167 -143.833 -78.5 -203.5s-81.666 -110.167 -135.999 -151.5
s-117.166 -73 -188.499 -95s-150 -33 -236 -33z" />
    <glyph glyph-name="Ucircumflex" unicode="&#xdb;" horiz-adv-x="1564" 
d="M1436 1590h-249l-92 191h-18l-172 -191h-275l328 335h291zM776 -37c-88.667 0 -168.001 11.666 -238.001 34.999s-129.167 56 -177.5 98s-85.5 91.667 -111.5 149s-39 120 -39 188c0 20 1 40.667 3 62s5.33301 42.666 10 63.999l187 884h305l-186 -877
c-8 -37.333 -11.667 -71.333 -11 -102c1.33301 -72 26.166 -128.333 74.499 -169s115.5 -61 201.5 -61c42 0 81 6.16699 117 18.5s68.167 30.333 96.5 54s52.333 52.834 72 87.501s34.5 74.334 44.5 119.001l198 930h304l-211 -997c-16 -76 -42.167 -143.833 -78.5 -203.5
s-81.666 -110.167 -135.999 -151.5s-117.166 -73 -188.499 -95s-150 -33 -236 -33z" />
    <glyph glyph-name="Udieresis" unicode="&#xdc;" horiz-adv-x="1564" 
d="M842 1579c-22.667 0 -43.5 3.83301 -62.5 11.5s-35.5 18.167 -49.5 31.5s-24.833 29.333 -32.5 48s-11.5 39 -11.5 61s3.83301 42.167 11.5 60.5s18.5 34.333 32.5 48s30.5 24.167 49.5 31.5s39.833 11 62.5 11c22 0 42.5 -3.66699 61.5 -11s35.5 -17.833 49.5 -31.5
s24.833 -29.667 32.5 -48s11.5 -38.5 11.5 -60.5s-3.83301 -42.333 -11.5 -61s-18.5 -34.667 -32.5 -48s-30.5 -23.833 -49.5 -31.5s-39.5 -11.5 -61.5 -11.5zM1309 1579c-22 0 -42.5 3.83301 -61.5 11.5s-35.5 18.167 -49.5 31.5s-24.833 29.333 -32.5 48
s-11.5 39 -11.5 61s3.83301 42.167 11.5 60.5s18.5 34.333 32.5 48s30.5 24.167 49.5 31.5s39.5 11 61.5 11c22.667 0 43.5 -3.66699 62.5 -11s35.5 -17.833 49.5 -31.5s24.833 -29.667 32.5 -48s11.5 -38.5 11.5 -60.5s-3.83301 -42.333 -11.5 -61s-18.5 -34.667 -32.5 -48
s-30.5 -23.833 -49.5 -31.5s-39.833 -11.5 -62.5 -11.5zM776 -37c-88.667 0 -168.001 11.666 -238.001 34.999s-129.167 56 -177.5 98s-85.5 91.667 -111.5 149s-39 120 -39 188c0 20 1 40.667 3 62s5.33301 42.666 10 63.999l187 884h305l-186 -877
c-8 -37.333 -11.667 -71.333 -11 -102c1.33301 -72 26.166 -128.333 74.499 -169s115.5 -61 201.5 -61c42 0 81 6.16699 117 18.5s68.167 30.333 96.5 54s52.333 52.834 72 87.501s34.5 74.334 44.5 119.001l198 930h304l-211 -997c-16 -76 -42.167 -143.833 -78.5 -203.5
s-81.666 -110.167 -135.999 -151.5s-117.166 -73 -188.499 -95s-150 -33 -236 -33z" />
    <glyph glyph-name="Yacute" unicode="&#xdd;" horiz-adv-x="1451" 
d="M500 0l114 531l-310 912h316l196 -607h18l447 607h330l-697 -924l-110 -519h-304zM1182 1908h315l-381 -318h-277z" />
    <glyph glyph-name="Thorn" unicode="&#xde;" horiz-adv-x="1382" 
d="M408 1443h301.999l-50 -232h270c62.667 0 120.334 -9.83301 173.001 -29.5s98 -47.167 136 -82.5s67.667 -77.166 89 -125.499s32 -101.5 32 -159.5c0 -74.667 -14.167 -143.834 -42.5 -207.501s-68 -119 -119 -166s-112.167 -83.833 -183.5 -110.5s-150 -40 -236 -40
h-314l-63 -290h-301zM514.999 536l236.999 0.00195312c46.667 0 88.834 5.66699 126.501 17s69.667 27.666 96 48.999s46.5 47.166 60.5 77.499s21 64.5 21 102.5c0 57.333 -18.5 101.833 -55.5 133.5s-92.167 47.5 -165.5 47.5h-228z" />
    <glyph glyph-name="germandbls" unicode="&#xdf;" horiz-adv-x="1405" 
d="M103 0l233.999 1088c12 55.333 32.833 105.333 62.5 150s66.834 82.667 111.501 114s95.834 55.333 153.501 72s120.167 25 187.5 25c70 0 134.5 -9.16699 193.5 -27.5s109.667 -43.833 152 -76.5s75.333 -71.834 99 -117.501s35.5 -95.5 35.5 -149.5
c0 -44 -7.5 -85.167 -22.5 -123.5s-36 -72.5 -63 -102.5s-58.833 -55 -95.5 -75s-77 -33.333 -121 -40l-4 -19c90 -16 160.333 -50 211 -102s76 -118.667 76 -200c0 -65.333 -12.333 -124.666 -37 -177.999s-59.334 -98.833 -104.001 -136.5s-98.167 -66.834 -160.5 -87.501
s-130.833 -31 -205.5 -31c-22 0 -44.333 1 -67 3s-45 4.66699 -67 8s-43.167 7.5 -63.5 12.5s-38.5 10.5 -54.5 16.5l50 234c21.333 -10 47.666 -18.167 78.999 -24.5s60.666 -9.5 87.999 -9.5c36 0 69.333 5.16699 100 15.5s57.167 24.666 79.5 42.999
s39.833 40.333 52.5 66s19 53.5 19 83.5c0 54.667 -22.5 96.667 -67.5 126s-106.167 44 -183.5 44h-75l50 245h75c30 0 58.333 4.66699 85 14s50 22.333 70 39s35.833 36.334 47.5 59.001s17.5 47.334 17.5 74.001c0 25.333 -4.83301 48.666 -14.5 69.999
s-23.167 39.5 -40.5 54.5s-38.166 26.667 -62.499 35s-51.166 12.5 -80.499 12.5c-61.333 0 -112.5 -18.667 -153.5 -56s-69.167 -91.333 -84.5 -162l-211 -986h-291z" />
    <glyph glyph-name="agrave" unicode="&#xe0;" horiz-adv-x="1202" 
d="M534 202c30.667 0 60.167 4.66895 88.5 14.002s53.833 22.166 76.5 38.499s41.834 35.666 57.501 57.999s26.5 46.833 32.5 73.5l21 95l-228 -8c-66.667 -2.66699 -118.834 -17 -156.501 -43s-56.5 -60.667 -56.5 -104c0 -18 4 -34.667 12 -50s19.333 -28.5 34 -39.5
s32.167 -19.5 52.5 -25.5s42.5 -9 66.5 -9zM411 -16.998c-46.667 0 -89.998 7.66699 -129.998 23s-74.667 36.333 -104 63s-52.333 58.334 -69 95.001s-25 76.667 -25 120c0 56 11.167 106.333 33.5 151s54.5 83 96.5 115s93.333 57 154 75s129.667 28.333 207 31l274 9
l15 68c2 10 3.33301 17.833 4 23.5s1 11.167 1 16.5c0 38 -16.167 68.167 -48.5 90.5s-76.833 33.5 -133.5 33.5c-48 0 -88.333 -8.33301 -121 -25s-56.334 -41 -71.001 -73h-275c12 50 32.333 95.333 61 136s64.167 75.167 106.5 103.5s90.666 50.166 144.999 65.499
s112.833 23 175.5 23c67.333 0 128.5 -7.83301 183.5 -23.5s102.167 -37.667 141.5 -66s69.666 -62.5 90.999 -102.5s32 -84.333 32 -133c0 -14 -0.666992 -29 -2 -45s-3.66602 -30.667 -6.99902 -44l-151 -713h-283l29 136h-18c-16 -23.333 -35.167 -44.5 -57.5 -63.5
s-47 -35.167 -74 -48.5s-55.833 -23.5 -86.5 -30.5s-62 -10.5 -94 -10.5zM640.002 1281l-250 353h303l212 -353h-265z" />
    <glyph glyph-name="aacute" unicode="&#xe1;" horiz-adv-x="1202" 
d="M534 202c30.667 0 60.167 4.66895 88.5 14.002s53.833 22.166 76.5 38.499s41.834 35.666 57.501 57.999s26.5 46.833 32.5 73.5l21 95l-228 -8c-66.667 -2.66699 -118.834 -17 -156.501 -43s-56.5 -60.667 -56.5 -104c0 -18 4 -34.667 12 -50s19.333 -28.5 34 -39.5
s32.167 -19.5 52.5 -25.5s42.5 -9 66.5 -9zM411 -16.998c-46.667 0 -89.998 7.66699 -129.998 23s-74.667 36.333 -104 63s-52.333 58.334 -69 95.001s-25 76.667 -25 120c0 56 11.167 106.333 33.5 151s54.5 83 96.5 115s93.333 57 154 75s129.667 28.333 207 31l274 9
l15 68c2 10 3.33301 17.833 4 23.5s1 11.167 1 16.5c0 38 -16.167 68.167 -48.5 90.5s-76.833 33.5 -133.5 33.5c-48 0 -88.333 -8.33301 -121 -25s-56.334 -41 -71.001 -73h-275c12 50 32.333 95.333 61 136s64.167 75.167 106.5 103.5s90.666 50.166 144.999 65.499
s112.833 23 175.5 23c67.333 0 128.5 -7.83301 183.5 -23.5s102.167 -37.667 141.5 -66s69.666 -62.5 90.999 -102.5s32 -84.333 32 -133c0 -14 -0.666992 -29 -2 -45s-3.66602 -30.667 -6.99902 -44l-151 -713h-283l29 136h-18c-16 -23.333 -35.167 -44.5 -57.5 -63.5
s-47 -35.167 -74 -48.5s-55.833 -23.5 -86.5 -30.5s-62 -10.5 -94 -10.5zM952.002 1634h310l-361 -353h-272z" />
    <glyph glyph-name="acircumflex" unicode="&#xe2;" horiz-adv-x="1202" 
d="M534 202c30.667 0 60.167 4.66895 88.5 14.002s53.833 22.166 76.5 38.499s41.834 35.666 57.501 57.999s26.5 46.833 32.5 73.5l21 95l-228 -8c-66.667 -2.66699 -118.834 -17 -156.501 -43s-56.5 -60.667 -56.5 -104c0 -18 4 -34.667 12 -50s19.333 -28.5 34 -39.5
s32.167 -19.5 52.5 -25.5s42.5 -9 66.5 -9zM411 -16.998c-46.667 0 -89.998 7.66699 -129.998 23s-74.667 36.333 -104 63s-52.333 58.334 -69 95.001s-25 76.667 -25 120c0 56 11.167 106.333 33.5 151s54.5 83 96.5 115s93.333 57 154 75s129.667 28.333 207 31l274 9
l15 68c2 10 3.33301 17.833 4 23.5s1 11.167 1 16.5c0 38 -16.167 68.167 -48.5 90.5s-76.833 33.5 -133.5 33.5c-48 0 -88.333 -8.33301 -121 -25s-56.334 -41 -71.001 -73h-275c12 50 32.333 95.333 61 136s64.167 75.167 106.5 103.5s90.666 50.166 144.999 65.499
s112.833 23 175.5 23c67.333 0 128.5 -7.83301 183.5 -23.5s102.167 -37.667 141.5 -66s69.666 -62.5 90.999 -102.5s32 -84.333 32 -133c0 -14 -0.666992 -29 -2 -45s-3.66602 -30.667 -6.99902 -44l-151 -713h-283l29 136h-18c-16 -23.333 -35.167 -44.5 -57.5 -63.5
s-47 -35.167 -74 -48.5s-55.833 -23.5 -86.5 -30.5s-62 -10.5 -94 -10.5zM1158 1251h-250l-104 209h-18l-193 -209h-276l350 354h291z" />
    <glyph glyph-name="atilde" unicode="&#xe3;" horiz-adv-x="1202" 
d="M534 202c30.667 0 60.167 4.66895 88.5 14.002s53.833 22.166 76.5 38.499s41.834 35.666 57.501 57.999s26.5 46.833 32.5 73.5l21 95l-228 -8c-66.667 -2.66699 -118.834 -17 -156.501 -43s-56.5 -60.667 -56.5 -104c0 -18 4 -34.667 12 -50s19.333 -28.5 34 -39.5
s32.167 -19.5 52.5 -25.5s42.5 -9 66.5 -9zM411 -16.998c-46.667 0 -89.998 7.66699 -129.998 23s-74.667 36.333 -104 63s-52.333 58.334 -69 95.001s-25 76.667 -25 120c0 56 11.167 106.333 33.5 151s54.5 83 96.5 115s93.333 57 154 75s129.667 28.333 207 31l274 9
l15 68c2 10 3.33301 17.833 4 23.5s1 11.167 1 16.5c0 38 -16.167 68.167 -48.5 90.5s-76.833 33.5 -133.5 33.5c-48 0 -88.333 -8.33301 -121 -25s-56.334 -41 -71.001 -73h-275c12 50 32.333 95.333 61 136s64.167 75.167 106.5 103.5s90.666 50.166 144.999 65.499
s112.833 23 175.5 23c67.333 0 128.5 -7.83301 183.5 -23.5s102.167 -37.667 141.5 -66s69.666 -62.5 90.999 -102.5s32 -84.333 32 -133c0 -14 -0.666992 -29 -2 -45s-3.66602 -30.667 -6.99902 -44l-151 -713h-283l29 136h-18c-16 -23.333 -35.167 -44.5 -57.5 -63.5
s-47 -35.167 -74 -48.5s-55.833 -23.5 -86.5 -30.5s-62 -10.5 -94 -10.5zM950.002 1247c-28 0 -52.667 4 -74 12s-40.833 18.167 -58.5 30.5s-33.5 25.5 -47.5 39.5l-41 39.5c-13.333 12.333 -26.5 22.5 -39.5 30.5s-27.167 12 -42.5 12c-26 0 -46.667 -10.667 -62 -32
s-26 -52 -32 -92h-184c5.33301 45.333 15.833 86.333 31.5 123s35.334 67.834 59.001 93.501s50.834 45.5 81.501 59.5s63.667 21 99 21c27.333 0 51.833 -4 73.5 -12s41.167 -18.167 58.5 -30.5s33 -25.5 47 -39.5l41 -39.5c13.333 -12.333 26.5 -22.5 39.5 -30.5
s27.167 -12 42.5 -12c26 0 46.833 10.667 62.5 32s26.5 52 32.5 92h184c-5.33301 -45.333 -15.833 -86.333 -31.5 -123s-35.334 -67.834 -59.001 -93.501s-50.834 -45.5 -81.501 -59.5s-63.667 -21 -99 -21z" />
    <glyph glyph-name="adieresis" unicode="&#xe4;" horiz-adv-x="1202" 
d="M534 202c30.667 0 60.167 4.66895 88.5 14.002s53.833 22.166 76.5 38.499s41.834 35.666 57.501 57.999s26.5 46.833 32.5 73.5l21 95l-228 -8c-66.667 -2.66699 -118.834 -17 -156.501 -43s-56.5 -60.667 -56.5 -104c0 -18 4 -34.667 12 -50s19.333 -28.5 34 -39.5
s32.167 -19.5 52.5 -25.5s42.5 -9 66.5 -9zM411 -16.998c-46.667 0 -89.998 7.66699 -129.998 23s-74.667 36.333 -104 63s-52.333 58.334 -69 95.001s-25 76.667 -25 120c0 56 11.167 106.333 33.5 151s54.5 83 96.5 115s93.333 57 154 75s129.667 28.333 207 31l274 9
l15 68c2 10 3.33301 17.833 4 23.5s1 11.167 1 16.5c0 38 -16.167 68.167 -48.5 90.5s-76.833 33.5 -133.5 33.5c-48 0 -88.333 -8.33301 -121 -25s-56.334 -41 -71.001 -73h-275c12 50 32.333 95.333 61 136s64.167 75.167 106.5 103.5s90.666 50.166 144.999 65.499
s112.833 23 175.5 23c67.333 0 128.5 -7.83301 183.5 -23.5s102.167 -37.667 141.5 -66s69.666 -62.5 90.999 -102.5s32 -84.333 32 -133c0 -14 -0.666992 -29 -2 -45s-3.66602 -30.667 -6.99902 -44l-151 -713h-283l29 136h-18c-16 -23.333 -35.167 -44.5 -57.5 -63.5
s-47 -35.167 -74 -48.5s-55.833 -23.5 -86.5 -30.5s-62 -10.5 -94 -10.5zM548.002 1251c-22.667 0 -43.5 3.83301 -62.5 11.5s-35.5 18.167 -49.5 31.5s-24.833 29.333 -32.5 48s-11.5 39 -11.5 61s3.83301 42.167 11.5 60.5s18.5 34.333 32.5 48s30.5 24.167 49.5 31.5
s39.833 11 62.5 11c22 0 42.5 -3.66699 61.5 -11s35.5 -17.833 49.5 -31.5s24.833 -29.667 32.5 -48s11.5 -38.5 11.5 -60.5s-3.83301 -42.333 -11.5 -61s-18.5 -34.667 -32.5 -48s-30.5 -23.833 -49.5 -31.5s-39.5 -11.5 -61.5 -11.5zM1015 1251
c-22 0 -42.5 3.83301 -61.5 11.5s-35.5 18.167 -49.5 31.5s-24.833 29.333 -32.5 48s-11.5 39 -11.5 61s3.83301 42.167 11.5 60.5s18.5 34.333 32.5 48s30.5 24.167 49.5 31.5s39.5 11 61.5 11c22.667 0 43.5 -3.66699 62.5 -11s35.5 -17.833 49.5 -31.5
s24.833 -29.667 32.5 -48s11.5 -38.5 11.5 -60.5s-3.83301 -42.333 -11.5 -61s-18.5 -34.667 -32.5 -48s-30.5 -23.833 -49.5 -31.5s-39.833 -11.5 -62.5 -11.5z" />
    <glyph glyph-name="aring" unicode="&#xe5;" horiz-adv-x="1202" 
d="M534 202c30.667 0 60.167 4.66895 88.5 14.002s53.833 22.166 76.5 38.499s41.834 35.666 57.501 57.999s26.5 46.833 32.5 73.5l21 95l-228 -8c-66.667 -2.66699 -118.834 -17 -156.501 -43s-56.5 -60.667 -56.5 -104c0 -18 4 -34.667 12 -50s19.333 -28.5 34 -39.5
s32.167 -19.5 52.5 -25.5s42.5 -9 66.5 -9zM411 -16.998c-46.667 0 -89.998 7.66699 -129.998 23s-74.667 36.333 -104 63s-52.333 58.334 -69 95.001s-25 76.667 -25 120c0 56 11.167 106.333 33.5 151s54.5 83 96.5 115s93.333 57 154 75s129.667 28.333 207 31l274 9
l15 68c2 10 3.33301 17.833 4 23.5s1 11.167 1 16.5c0 38 -16.167 68.167 -48.5 90.5s-76.833 33.5 -133.5 33.5c-48 0 -88.333 -8.33301 -121 -25s-56.334 -41 -71.001 -73h-275c12 50 32.333 95.333 61 136s64.167 75.167 106.5 103.5s90.666 50.166 144.999 65.499
s112.833 23 175.5 23c67.333 0 128.5 -7.83301 183.5 -23.5s102.167 -37.667 141.5 -66s69.666 -62.5 90.999 -102.5s32 -84.333 32 -133c0 -14 -0.666992 -29 -2 -45s-3.66602 -30.667 -6.99902 -44l-151 -713h-283l29 136h-18c-16 -23.333 -35.167 -44.5 -57.5 -63.5
s-47 -35.167 -74 -48.5s-55.833 -23.5 -86.5 -30.5s-62 -10.5 -94 -10.5zM837.002 1251c-35.333 0 -68 6 -98 18s-56 28.833 -78 50.5s-39.167 47.167 -51.5 76.5s-18.5 61.333 -18.5 96c0 34 6.16699 65.667 18.5 95s29.5 54.5 51.5 75.5s48 37.5 78 49.5s62.667 18 98 18
c34.667 0 67 -6 97 -18s56 -28.5 78 -49.5s39.167 -46.167 51.5 -75.5s18.5 -61 18.5 -95c0 -34.667 -6.16699 -66.667 -18.5 -96s-29.5 -54.833 -51.5 -76.5s-48 -38.5 -78 -50.5s-62.333 -18 -97 -18zM836.002 1387c31.333 0 56.833 9.83301 76.5 29.5
s29.5 44.5 29.5 74.5s-10 54.667 -30 74s-45.333 29 -76 29s-55.834 -9.66699 -75.501 -29s-29.5 -44 -29.5 -74c0 -30.667 9.83301 -55.667 29.5 -75s44.834 -29 75.501 -29z" />
    <glyph glyph-name="ae" unicode="&#xe6;" horiz-adv-x="1925" 
d="M1297 -24c-40.667 0 -80.832 4.82715 -120.499 14.4941s-76.834 23.5 -111.501 41.5s-65.5 39.333 -92.5 64s-47.833 52 -62.5 82h-18c-18.667 -28 -42.167 -54.167 -70.5 -78.5s-60.333 -45.666 -96 -63.999s-74.5 -32.833 -116.5 -43.5s-86 -16 -132 -16
c-57.333 0 -110 8 -158 24s-89.333 38 -124 66s-61.667 61 -81 99s-29 79 -29 123c0 58 10.833 109.667 32.5 155s53.334 83.833 95.001 115.5s93 56.334 154 74.001s130.833 27.834 209.5 30.501l274 9l15 61c1.33301 8.66699 2.5 15.667 3.5 21s1.5 11.666 1.5 18.999
c0 38 -16.333 68.167 -49 90.5s-77.334 33.5 -134.001 33.5c-48 0 -88.333 -8.33301 -121 -25s-56 -41 -70 -73h-275c12 52 32.167 98.333 60.5 139s63.333 75 105 103s89.334 49.333 143.001 64s111.5 22 173.5 22c38.667 0 75.334 -3.66699 110.001 -11
s66.5 -17.833 95.5 -31.5s54.667 -30 77 -49s40.5 -40.5 54.5 -64.5h18c45.333 50 98.666 88.5 159.999 115.5s128 40.5 200 40.5c62.667 0 121.667 -11 177 -33s103.5 -53 144.5 -93s73.5 -88.5 97.5 -145.5s36 -120.5 36 -190.5c0 -11.333 -0.5 -24.666 -1.5 -39.999
s-2.33301 -31.166 -4 -47.499s-3.5 -32.666 -5.5 -48.999s-4.33301 -30.833 -7 -43.5h-768c-0.666992 -4 -1 -9.16699 -1 -15.5v-16.5c0 -42.667 6.16699 -79.667 18.5 -111s29.166 -57.333 50.499 -78s46 -36 74 -46s57.667 -15 89 -15c56 0 101.833 10.333 137.5 31
s61.834 48.334 78.501 83.001h281c-12.667 -50.667 -34 -97 -64 -139s-67.333 -78 -112 -108s-95.834 -53.167 -153.501 -69.5s-120.5 -24.5 -188.5 -24.5zM1597 668.994c1.33301 3.33301 2.16699 8.83105 2.5 16.498s0.5 14.834 0.5 21.501c0 27.333 -4.5 53 -13.5 77
s-22.333 44.833 -40 62.5s-39 31.5 -64 41.5s-53.5 15 -85.5 15c-34 0 -65.833 -5.66699 -95.5 -17s-56.5 -27.166 -80.5 -47.499s-44.833 -45 -62.5 -74s-31.167 -60.833 -40.5 -95.5h479zM536.003 194.992c30.667 0 60.166 5.00293 88.499 15.0029s53.833 23.5 76.5 40.5
s41.834 37.167 57.501 60.5s26.5 48.333 32.5 75l21 95l-228 -8c-66.667 -2.66699 -119 -17 -157 -43s-57 -61 -57 -105c0 -18.667 4 -35.834 12 -51.501s19.333 -29.334 34 -41.001s32.167 -20.834 52.5 -27.501s42.833 -10 67.5 -10z" />
    <glyph glyph-name="ccedilla" unicode="&#xe7;" horiz-adv-x="1214" 
d="M922 723c-1.33301 26 -7.33398 49.166 -18.001 69.499s-24.834 37.5 -42.501 51.5s-38.334 24.833 -62.001 32.5s-49.167 11.5 -76.5 11.5c-44 0 -84.333 -11 -121 -33s-68.167 -52 -94.5 -90s-46.833 -82.833 -61.5 -134.5s-22 -107.5 -22 -167.5
c0 -42 5.33301 -78.333 16 -109s25.5 -56.167 44.5 -76.5s41 -35.5 66 -45.5s52.167 -15 81.5 -15c54.667 0 101.667 13.333 141 40s67.333 65.334 84 116.001h279c-8.66699 -51.333 -25.667 -99.833 -51 -145.5s-57.833 -86 -97.5 -121s-86 -63.833 -139 -86.5
s-111.833 -36.667 -176.5 -42l-64 -98c106 -17.333 159 -72 159 -164c0 -32 -6.33301 -61 -19 -87s-30.5 -48.333 -53.5 -67s-50.667 -33 -83 -43s-68.166 -15 -107.499 -15c-32.667 0 -65.834 3.16699 -99.501 9.5s-62.5 15.166 -86.5 26.499l28 133
c8.66699 -4 19 -7.5 31 -10.5s24.333 -5.83301 37 -8.5s25.334 -4.66699 38.001 -6s24.667 -2 36 -2c29.333 0 52 5 68 15s24 24.333 24 43c0 40.667 -38.667 61 -116 61h-57l17 116l70 106c-56 10.667 -106.333 29.167 -151 55.5s-82.5 59 -113.5 98
s-54.833 83.833 -71.5 134.5s-25 106 -25 166c0 98 14.667 188.833 44 272.5s70.833 156.167 124.5 217.5s117.834 109.333 192.501 144s157.334 52 248.001 52c67.333 0 128 -10.167 182 -30.5s100.5 -47.166 139.5 -80.499s69.833 -71.833 92.5 -115.5s36 -88.5 40 -134.5
c1.33301 -6.66699 2 -13.667 2 -21v-22h-276z" />
    <glyph glyph-name="egrave" unicode="&#xe8;" horiz-adv-x="1248" 
d="M614 1281l-250 353h303l212 -353h-265zM624 -24c-71.333 0 -136.834 10.6621 -196.501 31.9951s-111.167 52.333 -154.5 93s-77 90.334 -101 149.001s-36 125.334 -36 200.001c0 100.667 14.5 192.667 43.5 276s69.833 154.666 122.5 213.999s115.667 105.333 189 138
s154 49 242 49c66 0 127.333 -10.833 184 -32.5s105.834 -52.5 147.501 -92.5s74.334 -88.5 98.001 -145.5s35.5 -120.833 35.5 -191.5c0 -11.333 -0.5 -24.666 -1.5 -39.999s-2.16699 -31.166 -3.5 -47.499s-3.16602 -32.666 -5.49902 -48.999s-4.5 -30.833 -6.5 -43.5
h-770c0 -4 -0.166992 -9.16699 -0.5 -15.5s-0.5 -11.5 -0.5 -15.5c0 -42.667 6.16699 -79.667 18.5 -111s29.166 -57.333 50.499 -78s46 -36.167 74 -46.5s57.667 -15.5 89 -15.5c56.667 0 103 10.333 139 31s62.333 48.334 79 83.001h280
c-12.667 -50.667 -33.834 -97 -63.501 -139s-66.667 -78 -111 -108s-95.333 -53.167 -153 -69.5s-120.5 -24.5 -188.5 -24.5zM921.999 668.995c0.666992 3.33301 1.33105 8.83105 1.99805 16.498s1 14.834 1 21.501c0 27.333 -4.66699 53 -14 77
s-22.666 44.833 -39.999 62.5s-38.666 31.5 -63.999 41.5s-54 15 -86 15c-33.333 0 -64.833 -5.66699 -94.5 -17s-56.5 -27.166 -80.5 -47.499s-44.833 -45 -62.5 -74s-31.167 -60.833 -40.5 -95.5h479z" />
    <glyph glyph-name="eacute" unicode="&#xe9;" horiz-adv-x="1248" 
d="M926 1634h310l-361 -353h-272zM624 -24c-71.333 0 -136.834 10.6621 -196.501 31.9951s-111.167 52.333 -154.5 93s-77 90.334 -101 149.001s-36 125.334 -36 200.001c0 100.667 14.5 192.667 43.5 276s69.833 154.666 122.5 213.999s115.667 105.333 189 138
s154 49 242 49c66 0 127.333 -10.833 184 -32.5s105.834 -52.5 147.501 -92.5s74.334 -88.5 98.001 -145.5s35.5 -120.833 35.5 -191.5c0 -11.333 -0.5 -24.666 -1.5 -39.999s-2.16699 -31.166 -3.5 -47.499s-3.16602 -32.666 -5.49902 -48.999s-4.5 -30.833 -6.5 -43.5
h-770c0 -4 -0.166992 -9.16699 -0.5 -15.5s-0.5 -11.5 -0.5 -15.5c0 -42.667 6.16699 -79.667 18.5 -111s29.166 -57.333 50.499 -78s46 -36.167 74 -46.5s57.667 -15.5 89 -15.5c56.667 0 103 10.333 139 31s62.333 48.334 79 83.001h280
c-12.667 -50.667 -33.834 -97 -63.501 -139s-66.667 -78 -111 -108s-95.333 -53.167 -153 -69.5s-120.5 -24.5 -188.5 -24.5zM921.999 668.995c0.666992 3.33301 1.33105 8.83105 1.99805 16.498s1 14.834 1 21.501c0 27.333 -4.66699 53 -14 77
s-22.666 44.833 -39.999 62.5s-38.666 31.5 -63.999 41.5s-54 15 -86 15c-33.333 0 -64.833 -5.66699 -94.5 -17s-56.5 -27.166 -80.5 -47.499s-44.833 -45 -62.5 -74s-31.167 -60.833 -40.5 -95.5h479z" />
    <glyph glyph-name="ecircumflex" unicode="&#xea;" horiz-adv-x="1248" 
d="M1167 1251h-250l-104 209h-18l-193 -209h-276l350 354h291zM624 -24c-71.333 0 -136.834 10.6621 -196.501 31.9951s-111.167 52.333 -154.5 93s-77 90.334 -101 149.001s-36 125.334 -36 200.001c0 100.667 14.5 192.667 43.5 276s69.833 154.666 122.5 213.999
s115.667 105.333 189 138s154 49 242 49c66 0 127.333 -10.833 184 -32.5s105.834 -52.5 147.501 -92.5s74.334 -88.5 98.001 -145.5s35.5 -120.833 35.5 -191.5c0 -11.333 -0.5 -24.666 -1.5 -39.999s-2.16699 -31.166 -3.5 -47.499s-3.16602 -32.666 -5.49902 -48.999
s-4.5 -30.833 -6.5 -43.5h-770c0 -4 -0.166992 -9.16699 -0.5 -15.5s-0.5 -11.5 -0.5 -15.5c0 -42.667 6.16699 -79.667 18.5 -111s29.166 -57.333 50.499 -78s46 -36.167 74 -46.5s57.667 -15.5 89 -15.5c56.667 0 103 10.333 139 31s62.333 48.334 79 83.001h280
c-12.667 -50.667 -33.834 -97 -63.501 -139s-66.667 -78 -111 -108s-95.333 -53.167 -153 -69.5s-120.5 -24.5 -188.5 -24.5zM921.999 668.995c0.666992 3.33301 1.33105 8.83105 1.99805 16.498s1 14.834 1 21.501c0 27.333 -4.66699 53 -14 77
s-22.666 44.833 -39.999 62.5s-38.666 31.5 -63.999 41.5s-54 15 -86 15c-33.333 0 -64.833 -5.66699 -94.5 -17s-56.5 -27.166 -80.5 -47.499s-44.833 -45 -62.5 -74s-31.167 -60.833 -40.5 -95.5h479z" />
    <glyph glyph-name="edieresis" unicode="&#xeb;" horiz-adv-x="1248" 
d="M624 -24c-71.333 0 -136.834 10.6621 -196.501 31.9951s-111.167 52.333 -154.5 93s-77 90.334 -101 149.001s-36 125.334 -36 200.001c0 100.667 14.5 192.667 43.5 276s69.833 154.666 122.5 213.999s115.667 105.333 189 138s154 49 242 49
c66 0 127.333 -10.833 184 -32.5s105.834 -52.5 147.501 -92.5s74.334 -88.5 98.001 -145.5s35.5 -120.833 35.5 -191.5c0 -11.333 -0.5 -24.666 -1.5 -39.999s-2.16699 -31.166 -3.5 -47.499s-3.16602 -32.666 -5.49902 -48.999s-4.5 -30.833 -6.5 -43.5h-770
c0 -4 -0.166992 -9.16699 -0.5 -15.5s-0.5 -11.5 -0.5 -15.5c0 -42.667 6.16699 -79.667 18.5 -111s29.166 -57.333 50.499 -78s46 -36.167 74 -46.5s57.667 -15.5 89 -15.5c56.667 0 103 10.333 139 31s62.333 48.334 79 83.001h280
c-12.667 -50.667 -33.834 -97 -63.501 -139s-66.667 -78 -111 -108s-95.333 -53.167 -153 -69.5s-120.5 -24.5 -188.5 -24.5zM921.999 668.995c0.666992 3.33301 1.33105 8.83105 1.99805 16.498s1 14.834 1 21.501c0 27.333 -4.66699 53 -14 77
s-22.666 44.833 -39.999 62.5s-38.666 31.5 -63.999 41.5s-54 15 -86 15c-33.333 0 -64.833 -5.66699 -94.5 -17s-56.5 -27.166 -80.5 -47.499s-44.833 -45 -62.5 -74s-31.167 -60.833 -40.5 -95.5h479zM556.996 1250.99c-22.667 0 -43.5 3.83301 -62.5 11.5
s-35.5 18.167 -49.5 31.5s-24.833 29.333 -32.5 48s-11.5 39 -11.5 61s3.83301 42.167 11.5 60.5s18.5 34.333 32.5 48s30.5 24.167 49.5 31.5s39.833 11 62.5 11c22 0 42.5 -3.66699 61.5 -11s35.5 -17.833 49.5 -31.5s24.833 -29.667 32.5 -48s11.5 -38.5 11.5 -60.5
s-3.83301 -42.333 -11.5 -61s-18.5 -34.667 -32.5 -48s-30.5 -23.833 -49.5 -31.5s-39.5 -11.5 -61.5 -11.5zM1024 1250.99c-22 0 -42.5 3.83301 -61.5 11.5s-35.5 18.167 -49.5 31.5s-24.833 29.333 -32.5 48s-11.5 39 -11.5 61s3.83301 42.167 11.5 60.5
s18.5 34.333 32.5 48s30.5 24.167 49.5 31.5s39.5 11 61.5 11c22.667 0 43.5 -3.66699 62.5 -11s35.5 -17.833 49.5 -31.5s24.833 -29.667 32.5 -48s11.5 -38.5 11.5 -60.5s-3.83301 -42.333 -11.5 -61s-18.5 -34.667 -32.5 -48s-30.5 -23.833 -49.5 -31.5
s-39.833 -11.5 -62.5 -11.5z" />
    <glyph glyph-name="igrave" unicode="&#xec;" horiz-adv-x="599" 
d="M345 1281l-250 353h303l212 -353h-265zM313 1103h291l-234 -1103h-291z" />
    <glyph glyph-name="iacute" unicode="&#xed;" horiz-adv-x="599" 
d="M657 1634h310l-361 -353h-272zM313 1103h291l-234 -1103h-291z" />
    <glyph glyph-name="icircumflex" unicode="&#xee;" horiz-adv-x="599" 
d="M898 1251h-250l-104 209h-18l-193 -209h-276l350 354h291zM313 1103h291l-234 -1103h-291z" />
    <glyph glyph-name="idieresis" unicode="&#xef;" horiz-adv-x="599" 
d="M313 1103h291l-234 -1103h-291zM288 1251c-22.667 0 -43.5 3.83301 -62.5 11.5s-35.5 18.167 -49.5 31.5s-24.833 29.333 -32.5 48s-11.5 39 -11.5 61s3.83301 42.167 11.5 60.5s18.5 34.333 32.5 48s30.5 24.167 49.5 31.5s39.833 11 62.5 11
c22 0 42.5 -3.66699 61.5 -11s35.5 -17.833 49.5 -31.5s24.833 -29.667 32.5 -48s11.5 -38.5 11.5 -60.5s-3.83301 -42.333 -11.5 -61s-18.5 -34.667 -32.5 -48s-30.5 -23.833 -49.5 -31.5s-39.5 -11.5 -61.5 -11.5zM755 1251c-22 0 -42.5 3.83301 -61.5 11.5
s-35.5 18.167 -49.5 31.5s-24.833 29.333 -32.5 48s-11.5 39 -11.5 61s3.83301 42.167 11.5 60.5s18.5 34.333 32.5 48s30.5 24.167 49.5 31.5s39.5 11 61.5 11c22.667 0 43.5 -3.66699 62.5 -11s35.5 -17.833 49.5 -31.5s24.833 -29.667 32.5 -48s11.5 -38.5 11.5 -60.5
s-3.83301 -42.333 -11.5 -61s-18.5 -34.667 -32.5 -48s-30.5 -23.833 -49.5 -31.5s-39.833 -11.5 -62.5 -11.5z" />
    <glyph glyph-name="eth" unicode="&#xf0;" horiz-adv-x="1301" 
d="M633 -24c-74 0 -141.832 11.8311 -203.499 35.498s-114.834 56.5 -159.501 98.5s-79.5 91.833 -104.5 149.5s-37.5 120.5 -37.5 188.5c0 88 13.333 169.833 40 245.5s63.334 141.5 110.001 197.5s102 99.833 166 131.5s133.333 47.5 208 47.5
c35.333 0 69.5 -3.83301 102.5 -11.5s63.5 -18.5 91.5 -32.5s52.667 -30.667 74 -50s38 -40.333 50 -63l18 -1c-2.66699 49.333 -12.5 100.5 -29.5 153.5s-41.167 106.5 -72.5 160.5l-312 -94l-24 151l244 74c-21.333 25.333 -45.333 50.833 -72 76.5s-56 52.5 -88 80.5h330
c17.333 -17.333 31.5 -32 42.5 -44s20.833 -23.667 29.5 -35l253 80l25 -152l-188 -58c49.333 -85.333 85.666 -170.666 108.999 -255.999s35 -174.333 35 -267c0 -55.333 -3.5 -108.666 -10.5 -159.999s-17.5 -100.333 -31.5 -147
c-22.667 -77.333 -53.167 -146.833 -91.5 -208.5s-83 -114 -134 -157s-107.667 -76 -170 -99s-128.833 -34.5 -199.5 -34.5zM956.001 608.998c0 34.667 -5.66504 66.501 -16.998 95.501s-27 54 -47 75s-44 37.167 -72 48.5s-59 17 -93 17c-40.667 0 -79 -10.167 -115 -30.5
s-67.333 -48 -94 -83s-47.834 -75.833 -63.501 -122.5s-23.5 -96.334 -23.5 -149.001c0 -36 5.16699 -68.5 15.5 -97.5s25.166 -53.833 44.499 -74.5s42.5 -36.5 69.5 -47.5s57.5 -16.5 91.5 -16.5c40 0 78.333 10.5 115 31.5s69 49.333 97 85s50.333 76.667 67 123
s25 94.833 25 145.5z" />
    <glyph glyph-name="ntilde" unicode="&#xf1;" horiz-adv-x="1304" 
d="M977 1253c-28 0 -52.667 4 -74 12s-40.833 18.167 -58.5 30.5s-33.5 25.5 -47.5 39.5l-41 39.5c-13.333 12.333 -26.5 22.5 -39.5 30.5s-27.167 12 -42.5 12c-26 0 -46.667 -10.667 -62 -32s-26 -52 -32 -92h-184c5.33301 45.333 15.833 86.333 31.5 123
s35.334 67.834 59.001 93.501s50.834 45.5 81.501 59.5s63.667 21 99 21c27.333 0 51.833 -4 73.5 -12s41.167 -18.167 58.5 -30.5s33 -25.5 47 -39.5l41 -39.5c13.333 -12.333 26.5 -22.5 39.5 -30.5s27.167 -12 42.5 -12c26 0 46.833 10.667 62.5 32s26.5 52 32.5 92h184
c-5.33301 -45.333 -15.833 -86.333 -31.5 -123s-35.334 -67.834 -59.001 -93.501s-50.834 -45.5 -81.501 -59.5s-63.667 -21 -99 -21zM303 1112l281.999 0.000976562l-37 -175h18c17.333 28 37.833 53.667 61.5 77s50.167 43.333 79.5 60s61.333 29.667 96 39
s71.667 14 111 14c51.333 0 97.833 -8.16699 139.5 -24.5s77.334 -38.833 107.001 -67.5s52.5 -62.5 68.5 -101.5s24 -81.167 24 -126.5c0 -38.667 -4.66699 -82.334 -14 -131.001l-142 -676h-291l132 628c6.66699 30.667 10 58.667 10 84s-4.5 48.5 -13.5 69.5
s-21.833 39 -38.5 54s-36.5 26.667 -59.5 35s-48.833 12.5 -77.5 12.5c-32.667 0 -63.167 -5.5 -91.5 -16.5s-53.833 -26.5 -76.5 -46.5s-42 -43.667 -58 -71s-27.333 -57.333 -34 -90l-140 -659h-292z" />
    <glyph glyph-name="ograve" unicode="&#xf2;" horiz-adv-x="1289" 
d="M635 1281l-250 353h303l212 -353h-265zM438 467c0 -38 4.66504 -72.501 13.998 -103.501s22.833 -57.5 40.5 -79.5s39.334 -39 65.001 -51s54.834 -18 87.501 -18c39.333 0 77 10.667 113 32s67.667 50.5 95 87.5s49.166 80.667 65.499 131s24.5 104.5 24.5 162.5
c0 82.667 -17.667 146.834 -53 192.501s-84.666 68.5 -147.999 68.5c-44.667 0 -85.667 -11 -123 -33s-69.333 -52 -96 -90s-47.5 -82.667 -62.5 -134s-22.5 -106.333 -22.5 -165zM627.998 -24.001c-74 0 -141.334 11.498 -202.001 34.498s-112.5 55.667 -155.5 98
s-76.333 93.166 -100 152.499s-35.5 125 -35.5 197c0 62 6.83301 121.5 20.5 178.5s33.167 110.333 58.5 160s56.333 94.834 93 135.501s78.167 75.5 124.5 104.5s96.833 51.333 151.5 67s113 23.5 175 23.5c74 0 141.167 -11.667 201.5 -35s111.833 -56.166 154.5 -98.499
s75.667 -93.166 99 -152.499s35 -125 35 -197c0 -91.333 -14.833 -177.5 -44.5 -258.5s-71.667 -151.833 -126 -212.5s-119.666 -108.667 -195.999 -144s-160.833 -53 -253.5 -53z" />
    <glyph glyph-name="oacute" unicode="&#xf3;" horiz-adv-x="1289" 
d="M947 1634h310l-361 -353h-272zM438 467c0 -38 4.66504 -72.501 13.998 -103.501s22.833 -57.5 40.5 -79.5s39.334 -39 65.001 -51s54.834 -18 87.501 -18c39.333 0 77 10.667 113 32s67.667 50.5 95 87.5s49.166 80.667 65.499 131s24.5 104.5 24.5 162.5
c0 82.667 -17.667 146.834 -53 192.501s-84.666 68.5 -147.999 68.5c-44.667 0 -85.667 -11 -123 -33s-69.333 -52 -96 -90s-47.5 -82.667 -62.5 -134s-22.5 -106.333 -22.5 -165zM627.998 -24.001c-74 0 -141.334 11.498 -202.001 34.498s-112.5 55.667 -155.5 98
s-76.333 93.166 -100 152.499s-35.5 125 -35.5 197c0 62 6.83301 121.5 20.5 178.5s33.167 110.333 58.5 160s56.333 94.834 93 135.501s78.167 75.5 124.5 104.5s96.833 51.333 151.5 67s113 23.5 175 23.5c74 0 141.167 -11.667 201.5 -35s111.833 -56.166 154.5 -98.499
s75.667 -93.166 99 -152.499s35 -125 35 -197c0 -91.333 -14.833 -177.5 -44.5 -258.5s-71.667 -151.833 -126 -212.5s-119.666 -108.667 -195.999 -144s-160.833 -53 -253.5 -53z" />
    <glyph glyph-name="ocircumflex" unicode="&#xf4;" horiz-adv-x="1289" 
d="M1188 1251h-250l-104 209h-18l-193 -209h-276l350 354h291zM438 467c0 -38 4.66504 -72.501 13.998 -103.501s22.833 -57.5 40.5 -79.5s39.334 -39 65.001 -51s54.834 -18 87.501 -18c39.333 0 77 10.667 113 32s67.667 50.5 95 87.5s49.166 80.667 65.499 131
s24.5 104.5 24.5 162.5c0 82.667 -17.667 146.834 -53 192.501s-84.666 68.5 -147.999 68.5c-44.667 0 -85.667 -11 -123 -33s-69.333 -52 -96 -90s-47.5 -82.667 -62.5 -134s-22.5 -106.333 -22.5 -165zM627.998 -24.001c-74 0 -141.334 11.498 -202.001 34.498
s-112.5 55.667 -155.5 98s-76.333 93.166 -100 152.499s-35.5 125 -35.5 197c0 62 6.83301 121.5 20.5 178.5s33.167 110.333 58.5 160s56.333 94.834 93 135.501s78.167 75.5 124.5 104.5s96.833 51.333 151.5 67s113 23.5 175 23.5c74 0 141.167 -11.667 201.5 -35
s111.833 -56.166 154.5 -98.499s75.667 -93.166 99 -152.499s35 -125 35 -197c0 -91.333 -14.833 -177.5 -44.5 -258.5s-71.667 -151.833 -126 -212.5s-119.666 -108.667 -195.999 -144s-160.833 -53 -253.5 -53z" />
    <glyph glyph-name="otilde" unicode="&#xf5;" horiz-adv-x="1289" 
d="M980 1247c-28 0 -52.667 4 -74 12s-40.833 18.167 -58.5 30.5s-33.5 25.5 -47.5 39.5l-41 39.5c-13.333 12.333 -26.5 22.5 -39.5 30.5s-27.167 12 -42.5 12c-26 0 -46.667 -10.667 -62 -32s-26 -52 -32 -92h-184c5.33301 45.333 15.833 86.333 31.5 123
s35.334 67.834 59.001 93.501s50.834 45.5 81.501 59.5s63.667 21 99 21c27.333 0 51.833 -4 73.5 -12s41.167 -18.167 58.5 -30.5s33 -25.5 47 -39.5l41 -39.5c13.333 -12.333 26.5 -22.5 39.5 -30.5s27.167 -12 42.5 -12c26 0 46.833 10.667 62.5 32s26.5 52 32.5 92h184
c-5.33301 -45.333 -15.833 -86.333 -31.5 -123s-35.334 -67.834 -59.001 -93.501s-50.834 -45.5 -81.501 -59.5s-63.667 -21 -99 -21zM438 467c0 -38 4.66504 -72.501 13.998 -103.501s22.833 -57.5 40.5 -79.5s39.334 -39 65.001 -51s54.834 -18 87.501 -18
c39.333 0 77 10.667 113 32s67.667 50.5 95 87.5s49.166 80.667 65.499 131s24.5 104.5 24.5 162.5c0 82.667 -17.667 146.834 -53 192.501s-84.666 68.5 -147.999 68.5c-44.667 0 -85.667 -11 -123 -33s-69.333 -52 -96 -90s-47.5 -82.667 -62.5 -134
s-22.5 -106.333 -22.5 -165zM627.998 -24.001c-74 0 -141.334 11.498 -202.001 34.498s-112.5 55.667 -155.5 98s-76.333 93.166 -100 152.499s-35.5 125 -35.5 197c0 62 6.83301 121.5 20.5 178.5s33.167 110.333 58.5 160s56.333 94.834 93 135.501
s78.167 75.5 124.5 104.5s96.833 51.333 151.5 67s113 23.5 175 23.5c74 0 141.167 -11.667 201.5 -35s111.833 -56.166 154.5 -98.499s75.667 -93.166 99 -152.499s35 -125 35 -197c0 -91.333 -14.833 -177.5 -44.5 -258.5s-71.667 -151.833 -126 -212.5
s-119.666 -108.667 -195.999 -144s-160.833 -53 -253.5 -53z" />
    <glyph glyph-name="odieresis" unicode="&#xf6;" horiz-adv-x="1289" 
d="M578 1251c-22.667 0 -43.5 3.83301 -62.5 11.5s-35.5 18.167 -49.5 31.5s-24.833 29.333 -32.5 48s-11.5 39 -11.5 61s3.83301 42.167 11.5 60.5s18.5 34.333 32.5 48s30.5 24.167 49.5 31.5s39.833 11 62.5 11c22 0 42.5 -3.66699 61.5 -11s35.5 -17.833 49.5 -31.5
s24.833 -29.667 32.5 -48s11.5 -38.5 11.5 -60.5s-3.83301 -42.333 -11.5 -61s-18.5 -34.667 -32.5 -48s-30.5 -23.833 -49.5 -31.5s-39.5 -11.5 -61.5 -11.5zM1045 1251c-22 0 -42.5 3.83301 -61.5 11.5s-35.5 18.167 -49.5 31.5s-24.833 29.333 -32.5 48
s-11.5 39 -11.5 61s3.83301 42.167 11.5 60.5s18.5 34.333 32.5 48s30.5 24.167 49.5 31.5s39.5 11 61.5 11c22.667 0 43.5 -3.66699 62.5 -11s35.5 -17.833 49.5 -31.5s24.833 -29.667 32.5 -48s11.5 -38.5 11.5 -60.5s-3.83301 -42.333 -11.5 -61s-18.5 -34.667 -32.5 -48
s-30.5 -23.833 -49.5 -31.5s-39.833 -11.5 -62.5 -11.5zM438 467c0 -38 4.66504 -72.501 13.998 -103.501s22.833 -57.5 40.5 -79.5s39.334 -39 65.001 -51s54.834 -18 87.501 -18c39.333 0 77 10.667 113 32s67.667 50.5 95 87.5s49.166 80.667 65.499 131
s24.5 104.5 24.5 162.5c0 82.667 -17.667 146.834 -53 192.501s-84.666 68.5 -147.999 68.5c-44.667 0 -85.667 -11 -123 -33s-69.333 -52 -96 -90s-47.5 -82.667 -62.5 -134s-22.5 -106.333 -22.5 -165zM627.998 -24.001c-74 0 -141.334 11.498 -202.001 34.498
s-112.5 55.667 -155.5 98s-76.333 93.166 -100 152.499s-35.5 125 -35.5 197c0 62 6.83301 121.5 20.5 178.5s33.167 110.333 58.5 160s56.333 94.834 93 135.501s78.167 75.5 124.5 104.5s96.833 51.333 151.5 67s113 23.5 175 23.5c74 0 141.167 -11.667 201.5 -35
s111.833 -56.166 154.5 -98.499s75.667 -93.166 99 -152.499s35 -125 35 -197c0 -91.333 -14.833 -177.5 -44.5 -258.5s-71.667 -151.833 -126 -212.5s-119.666 -108.667 -195.999 -144s-160.833 -53 -253.5 -53z" />
    <glyph glyph-name="divide" unicode="&#xf7;" horiz-adv-x="1416" 
d="M194 472l47 225h1080l-47 -225h-1080zM831 814c-25.333 0 -48.333 4.16699 -69 12.5s-38.167 19.666 -52.5 33.999s-25.333 31 -33 50s-11.5 39.167 -11.5 60.5c0 24 3.83301 46.167 11.5 66.5s18.667 38 33 53s31.833 26.667 52.5 35s43.667 12.5 69 12.5
s48.166 -4.16699 68.499 -12.5s37.666 -19.666 51.999 -33.999s25.333 -31 33 -50s11.5 -39.167 11.5 -60.5c0 -24 -3.83301 -46.167 -11.5 -66.5s-18.667 -38 -33 -53s-31.666 -26.667 -51.999 -35s-43.166 -12.5 -68.499 -12.5zM666 30
c-25.333 0 -48.333 4.16504 -69 12.498s-38.167 19.666 -52.5 33.999s-25.333 31 -33 50s-11.5 39.167 -11.5 60.5c0 24 3.83301 46.167 11.5 66.5s18.667 38 33 53s31.833 26.833 52.5 35.5s43.667 13 69 13s48.166 -4.16699 68.499 -12.5s37.666 -19.666 51.999 -33.999
s25.333 -31.166 33 -50.499s11.5 -39.666 11.5 -60.999c0 -24 -3.83301 -46.167 -11.5 -66.5s-18.667 -38 -33 -53s-31.666 -26.667 -51.999 -35s-43.166 -12.5 -68.499 -12.5z" />
    <glyph glyph-name="oslash" unicode="&#xf8;" horiz-adv-x="1298" 
d="M514 262c35.333 -31.333 79.001 -47 131.001 -47c39.333 0 77 10.667 113 32s67.667 50.5 95 87.5s49.166 80.667 65.499 131s24.5 104.5 24.5 162.5c0 48.667 -6.33301 90.667 -19 126zM862.001 849c-32.667 26.667 -72.667 40 -120 40c-44.667 0 -85.667 -11 -123 -33
s-69.333 -52 -96 -90s-47.5 -82.667 -62.5 -134s-22.5 -106.333 -22.5 -165c0 -40 5 -76 15 -108zM1120 988c41.333 -42 72.999 -92.168 94.999 -150.501s33 -122.833 33 -193.5c0 -91.333 -14.833 -177.5 -44.5 -258.5s-71.667 -151.833 -126 -212.5
s-119.666 -108.667 -195.999 -144s-160.833 -53 -253.5 -53c-56.667 0 -109 6.5 -157 19.5s-91.667 32.167 -131 57.5l-105 -126l-90 63l111 133c-38.667 42 -68.5 91.167 -89.5 147.5s-31.5 118.833 -31.5 187.5c0 62 6.83301 121.5 20.5 178.5s33.167 110.333 58.5 160
s56.333 94.834 93 135.501s78.167 75.5 124.5 104.5s96.833 51.333 151.5 67s113 23.5 175 23.5c54 0 104.167 -6 150.5 -18s88.5 -29.667 126.5 -53l97 116l93 -58z" />
    <glyph glyph-name="ugrave" unicode="&#xf9;" horiz-adv-x="1305" 
d="M690 1281l-250 353h303l212 -353h-265zM1089 0h-283.001l36 167h-18c-33.333 -58.667 -79.5 -105.167 -138.5 -139.5s-127.167 -51.5 -204.5 -51.5c-50 0 -96 7.66699 -138 23s-78.167 37 -108.5 65s-53.833 61.833 -70.5 101.5s-25 83.834 -25 132.501
c0 17.333 1.33301 38.833 4 64.5s6.33398 51.167 11.001 76.5l139 664h293l-131 -616c-3.33301 -14 -5.83301 -29.167 -7.5 -45.5s-2.5 -29.833 -2.5 -40.5c0 -57.333 15.833 -100.5 47.5 -129.5s77.167 -43.5 136.5 -43.5c33.333 0 64.333 5.5 93 16.5s54.5 26.667 77.5 47
s42.5 44.666 58.5 72.999s27.667 59.833 35 94.5l137 644h292z" />
    <glyph glyph-name="uacute" unicode="&#xfa;" horiz-adv-x="1305" 
d="M1002 1634h310l-361 -353h-272zM1089 0h-283.001l36 167h-18c-33.333 -58.667 -79.5 -105.167 -138.5 -139.5s-127.167 -51.5 -204.5 -51.5c-50 0 -96 7.66699 -138 23s-78.167 37 -108.5 65s-53.833 61.833 -70.5 101.5s-25 83.834 -25 132.501
c0 17.333 1.33301 38.833 4 64.5s6.33398 51.167 11.001 76.5l139 664h293l-131 -616c-3.33301 -14 -5.83301 -29.167 -7.5 -45.5s-2.5 -29.833 -2.5 -40.5c0 -57.333 15.833 -100.5 47.5 -129.5s77.167 -43.5 136.5 -43.5c33.333 0 64.333 5.5 93 16.5s54.5 26.667 77.5 47
s42.5 44.666 58.5 72.999s27.667 59.833 35 94.5l137 644h292z" />
    <glyph glyph-name="ucircumflex" unicode="&#xfb;" horiz-adv-x="1305" 
d="M1243 1251h-250l-104 209h-18l-193 -209h-276l350 354h291zM1089 0h-283.001l36 167h-18c-33.333 -58.667 -79.5 -105.167 -138.5 -139.5s-127.167 -51.5 -204.5 -51.5c-50 0 -96 7.66699 -138 23s-78.167 37 -108.5 65s-53.833 61.833 -70.5 101.5
s-25 83.834 -25 132.501c0 17.333 1.33301 38.833 4 64.5s6.33398 51.167 11.001 76.5l139 664h293l-131 -616c-3.33301 -14 -5.83301 -29.167 -7.5 -45.5s-2.5 -29.833 -2.5 -40.5c0 -57.333 15.833 -100.5 47.5 -129.5s77.167 -43.5 136.5 -43.5
c33.333 0 64.333 5.5 93 16.5s54.5 26.667 77.5 47s42.5 44.666 58.5 72.999s27.667 59.833 35 94.5l137 644h292z" />
    <glyph glyph-name="udieresis" unicode="&#xfc;" horiz-adv-x="1305" 
d="M1089 0h-283.001l36 167h-18c-33.333 -58.667 -79.5 -105.167 -138.5 -139.5s-127.167 -51.5 -204.5 -51.5c-50 0 -96 7.66699 -138 23s-78.167 37 -108.5 65s-53.833 61.833 -70.5 101.5s-25 83.834 -25 132.501c0 17.333 1.33301 38.833 4 64.5
s6.33398 51.167 11.001 76.5l139 664h293l-131 -616c-3.33301 -14 -5.83301 -29.167 -7.5 -45.5s-2.5 -29.833 -2.5 -40.5c0 -57.333 15.833 -100.5 47.5 -129.5s77.167 -43.5 136.5 -43.5c33.333 0 64.333 5.5 93 16.5s54.5 26.667 77.5 47s42.5 44.666 58.5 72.999
s27.667 59.833 35 94.5l137 644h292zM632.999 1251c-22.667 0 -43.5 3.83301 -62.5 11.5s-35.5 18.167 -49.5 31.5s-24.833 29.333 -32.5 48s-11.5 39 -11.5 61s3.83301 42.167 11.5 60.5s18.5 34.333 32.5 48s30.5 24.167 49.5 31.5s39.833 11 62.5 11
c22 0 42.5 -3.66699 61.5 -11s35.5 -17.833 49.5 -31.5s24.833 -29.667 32.5 -48s11.5 -38.5 11.5 -60.5s-3.83301 -42.333 -11.5 -61s-18.5 -34.667 -32.5 -48s-30.5 -23.833 -49.5 -31.5s-39.5 -11.5 -61.5 -11.5zM1100 1251c-22 0 -42.5 3.83301 -61.5 11.5
s-35.5 18.167 -49.5 31.5s-24.833 29.333 -32.5 48s-11.5 39 -11.5 61s3.83301 42.167 11.5 60.5s18.5 34.333 32.5 48s30.5 24.167 49.5 31.5s39.5 11 61.5 11c22.667 0 43.5 -3.66699 62.5 -11s35.5 -17.833 49.5 -31.5s24.833 -29.667 32.5 -48s11.5 -38.5 11.5 -60.5
s-3.83301 -42.333 -11.5 -61s-18.5 -34.667 -32.5 -48s-30.5 -23.833 -49.5 -31.5s-39.833 -11.5 -62.5 -11.5z" />
    <glyph glyph-name="yacute" unicode="&#xfd;" horiz-adv-x="1208" 
d="M131 -403c-6 0 -15.667 0.166992 -29 0.5s-27 0.833008 -41 1.5s-27 1.33398 -39 2.00098s-19.667 1 -23 1l46 235c2.66699 -0.666992 7.33398 -1.33398 14.001 -2.00098s14 -1.33398 22 -2.00098s16 -1.16699 24 -1.5s15 -0.5 21 -0.5c48.667 0 90.667 9.33301 126 28
s63.666 50 84.999 94l22 44l-144 1106h297l64 -822h18l405 822h312l-630 -1143c-36 -67.333 -72.833 -124.166 -110.5 -170.499s-78.5 -83.833 -122.5 -112.5s-92 -49.167 -144 -61.5s-109.667 -18.5 -173 -18.5zM958 1634h310l-361 -353h-272z" />
    <glyph glyph-name="thorn" unicode="&#xfe;" horiz-adv-x="1337" 
d="M680 230c43.333 0 83.999 10.668 121.999 32.001s71 50.666 99 87.999s50 81.5 66 132.5s24 106.5 24 166.5c0 38 -5 71.333 -15 100s-24.167 52.667 -42.5 72s-40.166 34 -65.499 44s-53 15 -83 15c-44 0 -85.333 -11 -124 -33s-72.167 -51.833 -100.5 -89.5
s-50.833 -81.667 -67.5 -132s-25 -103.833 -25 -160.5c0 -38 5.16699 -71.5 15.5 -100.5s25 -53.5 44 -73.5s41.333 -35.167 67 -45.5s54.167 -15.5 85.5 -15.5zM289.999 -344.999l-291.999 -0.000976562l395 1852h291l-118 -557h18c36.667 52 82.834 93.667 138.501 125
s120.167 47 193.5 47c54.667 0 105 -10 151 -30s85.667 -48.333 119 -85s59.5 -81.167 78.5 -133.5s28.5 -110.5 28.5 -174.5c0 -103.333 -14.167 -198.666 -42.5 -285.999s-67.333 -162.833 -117 -226.5s-108.334 -113.5 -176.001 -149.5s-140.834 -54 -219.501 -54
c-40 0 -77 5.33301 -111 16s-64.5 25.5 -91.5 44.5s-50 41.833 -69 68.5s-32.833 56 -41.5 88h-18z" />
    <glyph glyph-name="ydieresis" unicode="&#xff;" horiz-adv-x="1208" 
d="M131 -403c-6 0 -15.667 0.166992 -29 0.5s-27 0.833008 -41 1.5s-27 1.33398 -39 2.00098s-19.667 1 -23 1l46 235c2.66699 -0.666992 7.33398 -1.33398 14.001 -2.00098s14 -1.33398 22 -2.00098s16 -1.16699 24 -1.5s15 -0.5 21 -0.5c48.667 0 90.667 9.33301 126 28
s63.666 50 84.999 94l22 44l-144 1106h297l64 -822h18l405 822h312l-630 -1143c-36 -67.333 -72.833 -124.166 -110.5 -170.499s-78.5 -83.833 -122.5 -112.5s-92 -49.167 -144 -61.5s-109.667 -18.5 -173 -18.5zM589 1251c-22.667 0 -43.5 3.83301 -62.5 11.5
s-35.5 18.167 -49.5 31.5s-24.833 29.333 -32.5 48s-11.5 39 -11.5 61s3.83301 42.167 11.5 60.5s18.5 34.333 32.5 48s30.5 24.167 49.5 31.5s39.833 11 62.5 11c22 0 42.5 -3.66699 61.5 -11s35.5 -17.833 49.5 -31.5s24.833 -29.667 32.5 -48s11.5 -38.5 11.5 -60.5
s-3.83301 -42.333 -11.5 -61s-18.5 -34.667 -32.5 -48s-30.5 -23.833 -49.5 -31.5s-39.5 -11.5 -61.5 -11.5zM1056 1251c-22 0 -42.5 3.83301 -61.5 11.5s-35.5 18.167 -49.5 31.5s-24.833 29.333 -32.5 48s-11.5 39 -11.5 61s3.83301 42.167 11.5 60.5s18.5 34.333 32.5 48
s30.5 24.167 49.5 31.5s39.5 11 61.5 11c22.667 0 43.5 -3.66699 62.5 -11s35.5 -17.833 49.5 -31.5s24.833 -29.667 32.5 -48s11.5 -38.5 11.5 -60.5s-3.83301 -42.333 -11.5 -61s-18.5 -34.667 -32.5 -48s-30.5 -23.833 -49.5 -31.5s-39.833 -11.5 -62.5 -11.5z" />
    <glyph glyph-name="Amacron" unicode="&#x100;" horiz-adv-x="1501" 
d="M1007 344h-509l-186 -344h-315l820 1443h349l187 -1443h-311zM612 577h381l-58 565h-19zM659 1632l37 181h746l-38 -181h-745z" />
    <glyph glyph-name="amacron" unicode="&#x101;" horiz-adv-x="1202" 
d="M534 202c30.667 0 60.167 4.66895 88.5 14.002s53.833 22.166 76.5 38.499s41.834 35.666 57.501 57.999s26.5 46.833 32.5 73.5l21 95l-228 -8c-66.667 -2.66699 -118.834 -17 -156.501 -43s-56.5 -60.667 -56.5 -104c0 -18 4 -34.667 12 -50s19.333 -28.5 34 -39.5
s32.167 -19.5 52.5 -25.5s42.5 -9 66.5 -9zM411 -16.998c-46.667 0 -89.998 7.66699 -129.998 23s-74.667 36.333 -104 63s-52.333 58.334 -69 95.001s-25 76.667 -25 120c0 56 11.167 106.333 33.5 151s54.5 83 96.5 115s93.333 57 154 75s129.667 28.333 207 31l274 9
l15 68c2 10 3.33301 17.833 4 23.5s1 11.167 1 16.5c0 38 -16.167 68.167 -48.5 90.5s-76.833 33.5 -133.5 33.5c-48 0 -88.333 -8.33301 -121 -25s-56.334 -41 -71.001 -73h-275c12 50 32.333 95.333 61 136s64.167 75.167 106.5 103.5s90.666 50.166 144.999 65.499
s112.833 23 175.5 23c67.333 0 128.5 -7.83301 183.5 -23.5s102.167 -37.667 141.5 -66s69.666 -62.5 90.999 -102.5s32 -84.333 32 -133c0 -14 -0.666992 -29 -2 -45s-3.66602 -30.667 -6.99902 -44l-151 -713h-283l29 136h-18c-16 -23.333 -35.167 -44.5 -57.5 -63.5
s-47 -35.167 -74 -48.5s-55.833 -23.5 -86.5 -30.5s-62 -10.5 -94 -10.5zM396.002 1316l38 180h735l-38 -180h-735z" />
    <glyph glyph-name="Abreve" unicode="&#x102;" horiz-adv-x="1501" 
d="M1007 344h-509l-186 -344h-315l820 1443h349l187 -1443h-311zM612 577h381l-58 565h-19zM657 1884c0 6.66699 0.166992 12.168 0.5 16.501s0.833008 9.16602 1.5 14.499h205v-21c0 -21.333 4.5 -40.666 13.5 -57.999s21.667 -32.5 38 -45.5s35.5 -23 57.5 -30
s46 -10.5 72 -10.5c55.333 0 100.333 14.167 135 42.5s58 69.166 70 122.499h205c-7.33301 -50.667 -22.333 -96.667 -45 -138s-52 -76.666 -88 -105.999s-77.833 -52 -125.5 -68s-100.167 -24 -157.5 -24c-56 0 -107.333 7.66699 -154 23s-87 36.666 -121 63.999
s-60.333 59.5 -79 96.5s-28 77.5 -28 121.5z" />
    <glyph glyph-name="abreve" unicode="&#x103;" horiz-adv-x="1202" 
d="M534 202c30.667 0 60.167 4.66895 88.5 14.002s53.833 22.166 76.5 38.499s41.834 35.666 57.501 57.999s26.5 46.833 32.5 73.5l21 95l-228 -8c-66.667 -2.66699 -118.834 -17 -156.501 -43s-56.5 -60.667 -56.5 -104c0 -18 4 -34.667 12 -50s19.333 -28.5 34 -39.5
s32.167 -19.5 52.5 -25.5s42.5 -9 66.5 -9zM411 -16.998c-46.667 0 -89.998 7.66699 -129.998 23s-74.667 36.333 -104 63s-52.333 58.334 -69 95.001s-25 76.667 -25 120c0 56 11.167 106.333 33.5 151s54.5 83 96.5 115s93.333 57 154 75s129.667 28.333 207 31l274 9
l15 68c2 10 3.33301 17.833 4 23.5s1 11.167 1 16.5c0 38 -16.167 68.167 -48.5 90.5s-76.833 33.5 -133.5 33.5c-48 0 -88.333 -8.33301 -121 -25s-56.334 -41 -71.001 -73h-275c12 50 32.333 95.333 61 136s64.167 75.167 106.5 103.5s90.666 50.166 144.999 65.499
s112.833 23 175.5 23c67.333 0 128.5 -7.83301 183.5 -23.5s102.167 -37.667 141.5 -66s69.666 -62.5 90.999 -102.5s32 -84.333 32 -133c0 -14 -0.666992 -29 -2 -45s-3.66602 -30.667 -6.99902 -44l-151 -713h-283l29 136h-18c-16 -23.333 -35.167 -44.5 -57.5 -63.5
s-47 -35.167 -74 -48.5s-55.833 -23.5 -86.5 -30.5s-62 -10.5 -94 -10.5zM608.002 1602c-0.666992 -4 -1.16602 -7.99805 -1.49902 -11.998s-0.5 -9.66699 -0.5 -17c0 -22.667 4.33301 -43.334 13 -62.001s21 -34.667 37 -48s35.167 -23.666 57.5 -30.999
s47.166 -11 74.499 -11c60.667 0 109 15.5 145 46.5s59 75.833 69 134.5h206c-5.33301 -53.333 -19 -101.5 -41 -144.5s-51.333 -79.833 -88 -110.5s-80 -54.334 -130 -71.001s-106 -25 -168 -25c-58 0 -110.667 7.83301 -158 23.5s-87.5 37.167 -120.5 64.5
s-58.5 59.5 -76.5 96.5s-27 77.167 -27 120.5c0 17.333 1.33301 32.666 4 45.999h205z" />
    <glyph glyph-name="Aogonek" unicode="&#x104;" horiz-adv-x="1501" 
d="M612 577h381l-58 565h-19zM1271 -444c-15.333 -4 -32.501 -7.33398 -51.501 -10.001s-37.833 -4 -56.5 -4c-38.667 0 -73.667 4.66699 -105 14s-58.166 22.833 -80.499 40.5s-39.5 38.834 -51.5 63.501s-18 52.334 -18 83.001c0 50.667 15 97.167 45 139.5
s76.333 82.166 139 119.499l2 11h-54l-33 331h-509l-186 -344h-315l820 1443h349l184 -1412c-72 -32.667 -127 -68.167 -165 -106.5s-57 -77.5 -57 -117.5c0 -30 10.5 -52.833 31.5 -68.5s50.5 -23.5 88.5 -23.5c10.667 0 21.5 0.5 32.5 1.5s19.167 2.16699 24.5 3.5z" />
    <glyph glyph-name="aogonek" unicode="&#x105;" horiz-adv-x="1202" 
d="M810 -458c-40 0 -76 5.50195 -108 16.502s-59 26.167 -81 45.5s-38.167 42.666 -48.5 69.999s-13.5 57.333 -9.5 90c4.66699 46.667 22 88.667 52 126s74.667 72.333 134 105l2 11h-36l26 130h-18c-16 -24 -35.333 -45.333 -58 -64s-47.5 -34.667 -74.5 -48
s-55.667 -23.5 -86 -30.5s-61.5 -10.5 -93.5 -10.5c-46.667 0 -90 7.66699 -130 23s-74.667 36.333 -104 63s-52.333 58.334 -69 95.001s-25 76.667 -25 120c0 56 11.167 106.333 33.5 151s54.5 83 96.5 115s93.333 57 154 75s129.667 28.333 207 31l274 9l15 68
c2 10.667 3.33301 18.667 4 24s1 10.666 1 15.999c0 38 -16.167 68.167 -48.5 90.5s-76.833 33.5 -133.5 33.5c-48 0 -88.333 -8.33301 -121 -25s-56.334 -41 -71.001 -73h-275c12 50 32.333 95.333 61 136s64.167 75.167 106.5 103.5s90.666 50.166 144.999 65.499
s112.833 23 175.5 23c67.333 0 128.5 -7.83301 183.5 -23.5s102.167 -37.667 141.5 -66s69.666 -62.5 90.999 -102.5s32 -84.333 32 -133c0 -14 -0.666992 -29 -2 -45s-3.66602 -30.667 -6.99902 -44l-145 -682c-68.667 -30.667 -121.5 -64 -158.5 -100
s-57.5 -73.333 -61.5 -112c-3.33301 -32 5.33398 -57.333 26.001 -76s50.334 -28 89.001 -28c12.667 0 24.5 0.5 35.5 1.5s19.167 2.16699 24.5 3.5l-33 -164c-15.333 -4 -33 -7.33301 -53 -10s-40 -4 -60 -4zM534 202.002c30.667 0 60.166 4.49902 88.499 13.499
s53.833 21.667 76.5 38s41.834 35.833 57.501 58.5s26.5 47.334 32.5 74.001l21 95l-228 -8c-66.667 -2.66699 -118.834 -17 -156.501 -43s-56.5 -60.667 -56.5 -104c0 -37.333 15.333 -67.333 46 -90s70.334 -34 119.001 -34z" />
    <glyph glyph-name="Cacute" unicode="&#x106;" horiz-adv-x="1534" 
d="M1190 1909h315l-381 -318h-277zM1259 946c-2 40 -10.6699 76.332 -26.0029 108.999s-36.333 60.667 -63 84s-58.334 41.333 -95.001 54s-77 19 -121 19c-65.333 0 -126.333 -15.833 -183 -47.5s-105.834 -75.334 -147.501 -131.001s-74.5 -121.5 -98.5 -197.5
s-36 -158.333 -36 -247c0 -55.333 7.33301 -105.166 22 -149.499s35.667 -82 63 -113s60.333 -54.833 99 -71.5s82.334 -25 131.001 -25c40.667 0 79.834 5.5 117.501 16.5s71.834 26.833 102.501 47.5s57.334 45.334 80.001 74.001s40 60.667 52 96h299
c-16 -76 -43.833 -144.833 -83.5 -206.5s-89 -114.334 -148 -158.001s-126.167 -77.334 -201.5 -101.001s-156.666 -35.5 -243.999 -35.5c-90.667 0 -172.834 14.333 -246.501 43s-136.5 69.334 -188.5 122.001s-92.167 116.167 -120.5 190.5s-42.5 157.5 -42.5 249.5
c0 133.333 19.667 255.833 59 367.5s94.333 207.834 165 288.501s154.334 143.5 251.001 188.5s202.667 67.5 318 67.5c82.667 0 159.5 -12.833 230.5 -38.5s132.5 -61.167 184.5 -106.5s92.833 -98.833 122.5 -160.5s44.5 -128.167 44.5 -199.5v-21.5
c0 -7 -0.666992 -14.167 -2 -21.5h-294v14z" />
    <glyph glyph-name="cacute" unicode="&#x107;" horiz-adv-x="1218" 
d="M922 723c-1.33301 26 -7.33301 49.166 -18 69.499s-24.834 37.5 -42.501 51.5s-38.334 24.833 -62.001 32.5s-49.167 11.5 -76.5 11.5c-44 0 -84.333 -11 -121 -33s-68.167 -52 -94.5 -90s-46.833 -82.833 -61.5 -134.5s-22 -107.5 -22 -167.5
c0 -42 5.33301 -78.333 16 -109s25.5 -56.167 44.5 -76.5s41 -35.5 66 -45.5s52.167 -15 81.5 -15c54.667 0 101.667 13.333 141 40s67.333 65.334 84 116.001h279c-9.33301 -55.333 -28.166 -107.166 -56.499 -155.499s-64.833 -90.333 -109.5 -126
s-96.834 -63.834 -156.501 -84.501s-125.834 -31 -198.501 -31c-73.333 0 -139.666 11 -198.999 33s-110 53.167 -152 93.5s-74.333 89.166 -97 146.499s-34 121.333 -34 192c0 98 14.667 188.833 44 272.5s70.833 156.167 124.5 217.5s117.834 109.333 192.501 144
s157.334 52 248.001 52c67.333 0 128 -10.167 182 -30.5s100.5 -47.166 139.5 -80.499s69.833 -71.833 92.5 -115.5s36 -88.5 40 -134.5c1.33301 -6.66699 2 -13.667 2 -21v-22h-276zM952 1634h310l-361 -353h-272z" />
    <glyph glyph-name="Ccircumflex" unicode="&#x108;" horiz-adv-x="1534" 
d="M1259 946c-2 40 -10.6699 76.332 -26.0029 108.999s-36.333 60.667 -63 84s-58.334 41.333 -95.001 54s-77 19 -121 19c-65.333 0 -126.333 -15.833 -183 -47.5s-105.834 -75.334 -147.501 -131.001s-74.5 -121.5 -98.5 -197.5s-36 -158.333 -36 -247
c0 -55.333 7.33301 -105.166 22 -149.499s35.667 -82 63 -113s60.333 -54.833 99 -71.5s82.334 -25 131.001 -25c40.667 0 79.834 5.5 117.501 16.5s71.834 26.833 102.501 47.5s57.334 45.334 80.001 74.001s40 60.667 52 96h299c-16 -76 -43.833 -144.833 -83.5 -206.5
s-89 -114.334 -148 -158.001s-126.167 -77.334 -201.5 -101.001s-156.666 -35.5 -243.999 -35.5c-90.667 0 -172.834 14.333 -246.501 43s-136.5 69.334 -188.5 122.001s-92.167 116.167 -120.5 190.5s-42.5 157.5 -42.5 249.5c0 133.333 19.667 255.833 59 367.5
s94.333 207.834 165 288.501s154.334 143.5 251.001 188.5s202.667 67.5 318 67.5c82.667 0 159.5 -12.833 230.5 -38.5s132.5 -61.167 184.5 -106.5s92.833 -98.833 122.5 -160.5s44.5 -128.167 44.5 -199.5v-21.5c0 -7 -0.666992 -14.167 -2 -21.5h-294v14zM1385 1591
h-249l-92 191h-18l-172 -191h-275l328 335h291z" />
    <glyph glyph-name="ccircumflex" unicode="&#x109;" horiz-adv-x="1218" 
d="M1193 1251h-250l-104 209h-18l-193 -209h-276l350 354h291zM922 723c-1.33301 26 -7.33301 49.166 -18 69.499s-24.834 37.5 -42.501 51.5s-38.334 24.833 -62.001 32.5s-49.167 11.5 -76.5 11.5c-44 0 -84.333 -11 -121 -33s-68.167 -52 -94.5 -90
s-46.833 -82.833 -61.5 -134.5s-22 -107.5 -22 -167.5c0 -42 5.33301 -78.333 16 -109s25.5 -56.167 44.5 -76.5s41 -35.5 66 -45.5s52.167 -15 81.5 -15c54.667 0 101.667 13.333 141 40s67.333 65.334 84 116.001h279c-9.33301 -55.333 -28.166 -107.166 -56.499 -155.499
s-64.833 -90.333 -109.5 -126s-96.834 -63.834 -156.501 -84.501s-125.834 -31 -198.501 -31c-73.333 0 -139.666 11 -198.999 33s-110 53.167 -152 93.5s-74.333 89.166 -97 146.499s-34 121.333 -34 192c0 98 14.667 188.833 44 272.5s70.833 156.167 124.5 217.5
s117.834 109.333 192.501 144s157.334 52 248.001 52c67.333 0 128 -10.167 182 -30.5s100.5 -47.166 139.5 -80.499s69.833 -71.833 92.5 -115.5s36 -88.5 40 -134.5c1.33301 -6.66699 2 -13.667 2 -21v-22h-276z" />
    <glyph glyph-name="Cdotaccent" unicode="&#x10a;" horiz-adv-x="1534" 
d="M1028 1580c-23.333 0 -44.666 4 -63.999 12s-36 19 -50 33s-24.833 30.667 -32.5 50s-11.5 40.333 -11.5 63s3.83301 43.667 11.5 63s18.5 36 32.5 50s30.667 25 50 33s40.666 12 63.999 12c22.667 0 43.667 -4 63 -12s36 -19 50 -33s24.833 -30.667 32.5 -50
s11.5 -40.333 11.5 -63s-3.83301 -43.667 -11.5 -63s-18.5 -36 -32.5 -50s-30.667 -25 -50 -33s-40.333 -12 -63 -12zM1259 946c-2 40 -10.6699 76.332 -26.0029 108.999s-36.333 60.667 -63 84s-58.334 41.333 -95.001 54s-77 19 -121 19
c-65.333 0 -126.333 -15.833 -183 -47.5s-105.834 -75.334 -147.501 -131.001s-74.5 -121.5 -98.5 -197.5s-36 -158.333 -36 -247c0 -55.333 7.33301 -105.166 22 -149.499s35.667 -82 63 -113s60.333 -54.833 99 -71.5s82.334 -25 131.001 -25
c40.667 0 79.834 5.5 117.501 16.5s71.834 26.833 102.501 47.5s57.334 45.334 80.001 74.001s40 60.667 52 96h299c-16 -76 -43.833 -144.833 -83.5 -206.5s-89 -114.334 -148 -158.001s-126.167 -77.334 -201.5 -101.001s-156.666 -35.5 -243.999 -35.5
c-90.667 0 -172.834 14.333 -246.501 43s-136.5 69.334 -188.5 122.001s-92.167 116.167 -120.5 190.5s-42.5 157.5 -42.5 249.5c0 133.333 19.667 255.833 59 367.5s94.333 207.834 165 288.501s154.334 143.5 251.001 188.5s202.667 67.5 318 67.5
c82.667 0 159.5 -12.833 230.5 -38.5s132.5 -61.167 184.5 -106.5s92.833 -98.833 122.5 -160.5s44.5 -128.167 44.5 -199.5v-21.5c0 -7 -0.666992 -14.167 -2 -21.5h-294v14z" />
    <glyph glyph-name="cdotaccent" unicode="&#x10b;" horiz-adv-x="1218" 
d="M922 723c-1.33301 26 -7.33301 49.166 -18 69.499s-24.834 37.5 -42.501 51.5s-38.334 24.833 -62.001 32.5s-49.167 11.5 -76.5 11.5c-44 0 -84.333 -11 -121 -33s-68.167 -52 -94.5 -90s-46.833 -82.833 -61.5 -134.5s-22 -107.5 -22 -167.5
c0 -42 5.33301 -78.333 16 -109s25.5 -56.167 44.5 -76.5s41 -35.5 66 -45.5s52.167 -15 81.5 -15c54.667 0 101.667 13.333 141 40s67.333 65.334 84 116.001h279c-9.33301 -55.333 -28.166 -107.166 -56.499 -155.499s-64.833 -90.333 -109.5 -126
s-96.834 -63.834 -156.501 -84.501s-125.834 -31 -198.501 -31c-73.333 0 -139.666 11 -198.999 33s-110 53.167 -152 93.5s-74.333 89.166 -97 146.499s-34 121.333 -34 192c0 98 14.667 188.833 44 272.5s70.833 156.167 124.5 217.5s117.834 109.333 192.501 144
s157.334 52 248.001 52c67.333 0 128 -10.167 182 -30.5s100.5 -47.166 139.5 -80.499s69.833 -71.833 92.5 -115.5s36 -88.5 40 -134.5c1.33301 -6.66699 2 -13.667 2 -21v-22h-276zM825 1274c-22.667 0 -43.834 4.16699 -63.501 12.5s-36.667 19.833 -51 34.5
s-25.666 32 -33.999 52s-12.5 41.667 -12.5 65s4.16699 45 12.5 65s19.666 37.333 33.999 52s31.333 26.167 51 34.5s40.834 12.5 63.501 12.5s43.834 -4.16699 63.501 -12.5s36.667 -19.833 51 -34.5s25.666 -32 33.999 -52s12.5 -41.667 12.5 -65s-4.16699 -45 -12.5 -65
s-19.666 -37.333 -33.999 -52s-31.333 -26.167 -51 -34.5s-40.834 -12.5 -63.501 -12.5z" />
    <glyph glyph-name="Ccaron" unicode="&#x10c;" horiz-adv-x="1534" 
d="M1259 946c-2 40 -10.6699 76.332 -26.0029 108.999s-36.333 60.667 -63 84s-58.334 41.333 -95.001 54s-77 19 -121 19c-65.333 0 -126.333 -15.833 -183 -47.5s-105.834 -75.334 -147.501 -131.001s-74.5 -121.5 -98.5 -197.5s-36 -158.333 -36 -247
c0 -55.333 7.33301 -105.166 22 -149.499s35.667 -82 63 -113s60.333 -54.833 99 -71.5s82.334 -25 131.001 -25c40.667 0 79.834 5.5 117.501 16.5s71.834 26.833 102.501 47.5s57.334 45.334 80.001 74.001s40 60.667 52 96h299c-16 -76 -43.833 -144.833 -83.5 -206.5
s-89 -114.334 -148 -158.001s-126.167 -77.334 -201.5 -101.001s-156.666 -35.5 -243.999 -35.5c-90.667 0 -172.834 14.333 -246.501 43s-136.5 69.334 -188.5 122.001s-92.167 116.167 -120.5 190.5s-42.5 157.5 -42.5 249.5c0 133.333 19.667 255.833 59 367.5
s94.333 207.834 165 288.501s154.334 143.5 251.001 188.5s202.667 67.5 318 67.5c82.667 0 159.5 -12.833 230.5 -38.5s132.5 -61.167 184.5 -106.5s92.833 -98.833 122.5 -160.5s44.5 -128.167 44.5 -199.5v-21.5c0 -7 -0.666992 -14.167 -2 -21.5h-294v14zM673.997 1926
h250l92 -191h18l172 191h275l-328 -335h-291z" />
    <glyph glyph-name="ccaron" unicode="&#x10d;" horiz-adv-x="1218" 
d="M655 1251l-200 354h249l103 -209h18l194 209h277l-350 -354h-291zM922 723c-1.33301 26 -7.33301 49.166 -18 69.499s-24.834 37.5 -42.501 51.5s-38.334 24.833 -62.001 32.5s-49.167 11.5 -76.5 11.5c-44 0 -84.333 -11 -121 -33s-68.167 -52 -94.5 -90
s-46.833 -82.833 -61.5 -134.5s-22 -107.5 -22 -167.5c0 -42 5.33301 -78.333 16 -109s25.5 -56.167 44.5 -76.5s41 -35.5 66 -45.5s52.167 -15 81.5 -15c54.667 0 101.667 13.333 141 40s67.333 65.334 84 116.001h279c-9.33301 -55.333 -28.166 -107.166 -56.499 -155.499
s-64.833 -90.333 -109.5 -126s-96.834 -63.834 -156.501 -84.501s-125.834 -31 -198.501 -31c-73.333 0 -139.666 11 -198.999 33s-110 53.167 -152 93.5s-74.333 89.166 -97 146.499s-34 121.333 -34 192c0 98 14.667 188.833 44 272.5s70.833 156.167 124.5 217.5
s117.834 109.333 192.501 144s157.334 52 248.001 52c67.333 0 128 -10.167 182 -30.5s100.5 -47.166 139.5 -80.499s69.833 -71.833 92.5 -115.5s36 -88.5 40 -134.5c1.33301 -6.66699 2 -13.667 2 -21v-22h-276z" />
    <glyph glyph-name="Dcaron" unicode="&#x10e;" horiz-adv-x="1535" 
d="M549 1925h250l92 -191h18l172 191h275l-328 -335h-291zM918 1443c92 0 174.501 -13.334 247.501 -40.001s135 -65.167 186 -115.5s90 -111.833 117 -184.5s40.5 -155 40.5 -247c0 -82.667 -8.5 -161.167 -25.5 -235.5s-41.167 -143.166 -72.5 -206.499
s-69.333 -120.5 -114 -171.5s-95 -94.5 -151 -130.5s-116.833 -63.667 -182.5 -83s-134.834 -29 -207.501 -29h-655l306 1443h511zM459.001 256.999l270.001 0.000976562c68 0 130.667 13.5 188 40.5s106.833 65.333 148.5 115s74.167 109.167 97.5 178.5s35 146.333 35 231
c0 56 -7.83301 106.667 -23.5 152s-38.334 83.666 -68.001 114.999s-66 55.5 -109 72.5s-91.833 25.5 -146.5 25.5h-191z" />
    <glyph glyph-name="dcaron" unicode="&#x10f;" horiz-adv-x="1559" 
d="M1823 1524l-157 -505h-201l107 505h251zM511 -17c-54.667 0 -105.333 9.83301 -152 29.5s-87 48 -121 85s-60.667 82 -80 135s-29 113.167 -29 180.5c0 102.667 14.333 197.167 43 283.5s68.167 161 118.5 224s109.5 112.167 177.5 147.5s141.333 53 220 53
c40.667 0 78.167 -5.16699 112.5 -15.5s65 -24.833 92 -43.5s49.667 -40.5 68 -65.5s31.833 -52.167 40.5 -81.5h18l130 609h292l-323 -1524h-283l32 153h-18c-38 -52 -85.333 -93.333 -142 -124s-122 -46 -196 -46zM641.001 223c44 0 85.168 11.002 123.501 33.002
s71.666 52 99.999 90s50.666 82.167 66.999 132.5s24.5 103.833 24.5 160.5c0 38 -5.16699 71.5 -15.5 100.5s-25 53.5 -44 73.5s-41.5 35.167 -67.5 45.5s-54.333 15.5 -85 15.5c-43.333 0 -84 -10.333 -122 -31s-71.167 -49.334 -99.5 -86.001
s-50.666 -80.167 -66.999 -130.5s-24.5 -104.833 -24.5 -163.5c0 -37.333 5.33301 -70.833 16 -100.5s25.5 -54.834 44.5 -75.501s41.167 -36.5 66.5 -47.5s53 -16.5 83 -16.5z" />
    <glyph glyph-name="Dcroat" unicode="&#x110;" horiz-adv-x="1518" 
d="M729 257c68 0 130.668 13.501 188.001 40.501s106.833 65.333 148.5 115s74.167 109.167 97.5 178.5s35 146.333 35 231c0 56 -7.83301 106.667 -23.5 152s-38.334 83.666 -68.001 114.999s-66 55.5 -109 72.5s-91.833 25.5 -146.5 25.5h-191l-74 -342h204l-48 -227h-205
l-78 -361h270zM918.001 1443c92 0 174.501 -13.334 247.501 -40.001s135 -65.167 186 -115.5s90 -111.833 117 -184.5s40.5 -155 40.5 -247c0 -82.667 -8.5 -161.167 -25.5 -235.5s-41.167 -143.166 -72.5 -206.499s-69.333 -120.5 -114 -171.5s-95 -94.5 -151 -130.5
s-116.833 -63.667 -182.5 -83s-134.834 -29 -207.501 -29h-655l131 618h-144l47 227h145l127 598h511z" />
    <glyph glyph-name="dcroat" unicode="&#x111;" horiz-adv-x="1343" 
d="M641 223c44 0 85.168 11.002 123.501 33.002s71.666 52 99.999 90s50.666 82.167 66.999 132.5s24.5 103.833 24.5 160.5c0 38 -5.16699 71.5 -15.5 100.5s-25 53.5 -44 73.5s-41.5 35.167 -67.5 45.5s-54.333 15.5 -85 15.5c-43.333 0 -84 -10.333 -122 -31
s-71.167 -49.334 -99.5 -86.001s-50.666 -80.167 -66.999 -130.5s-24.5 -104.833 -24.5 -163.5c0 -37.333 5.33301 -70.833 16 -100.5s25.5 -54.834 44.5 -75.501s41.167 -36.5 66.5 -47.5s53 -16.5 83 -16.5zM1519 1260h-133.999l-267 -1260h-283l32 153h-18
c-38 -52 -85.333 -93.333 -142 -124s-122 -46 -196 -46c-54.667 0 -105.334 9.83301 -152.001 29.5s-87 48 -121 85s-60.667 82 -80 135s-29 113.167 -29 180.5c0 102.667 14.333 197.167 43 283.5s68.167 161 118.5 224s109.5 112.167 177.5 147.5s141.333 53 220 53
c40.667 0 78.167 -5.16699 112.5 -15.5s65 -24.833 92 -43.5s49.667 -40.5 68 -65.5s31.833 -52.167 40.5 -81.5h18l74 345h-182l32 152h182l24 112h292l-24 -112h134z" />
    <glyph glyph-name="Emacron" unicode="&#x112;" horiz-adv-x="1274" 
d="M1057 0h-957l307 1443h956l-53 -258h-652l-75 -337h616l-50 -239h-615l-78 -351h653zM553 1632l37 181h746l-38 -181h-745z" />
    <glyph glyph-name="emacron" unicode="&#x113;" horiz-adv-x="1248" 
d="M624 -24c-71.333 0 -136.834 10.6621 -196.501 31.9951s-111.167 52.333 -154.5 93s-77 90.334 -101 149.001s-36 125.334 -36 200.001c0 100.667 14.5 192.667 43.5 276s69.833 154.666 122.5 213.999s115.667 105.333 189 138s154 49 242 49
c66 0 127.333 -10.833 184 -32.5s105.834 -52.5 147.501 -92.5s74.334 -88.5 98.001 -145.5s35.5 -120.833 35.5 -191.5c0 -11.333 -0.5 -24.666 -1.5 -39.999s-2.16699 -31.166 -3.5 -47.499s-3.16602 -32.666 -5.49902 -48.999s-4.5 -30.833 -6.5 -43.5h-770
c0 -4 -0.166992 -9.16699 -0.5 -15.5s-0.5 -11.5 -0.5 -15.5c0 -42.667 6.16699 -79.667 18.5 -111s29.166 -57.333 50.499 -78s46 -36.167 74 -46.5s57.667 -15.5 89 -15.5c56.667 0 103 10.333 139 31s62.333 48.334 79 83.001h280
c-12.667 -50.667 -33.834 -97 -63.501 -139s-66.667 -78 -111 -108s-95.333 -53.167 -153 -69.5s-120.5 -24.5 -188.5 -24.5zM921.999 668.995c0.666992 3.33301 1.33105 8.83105 1.99805 16.498s1 14.834 1 21.501c0 27.333 -4.66699 53 -14 77
s-22.666 44.833 -39.999 62.5s-38.666 31.5 -63.999 41.5s-54 15 -86 15c-33.333 0 -64.833 -5.66699 -94.5 -17s-56.5 -27.166 -80.5 -47.499s-44.833 -45 -62.5 -74s-31.167 -60.833 -40.5 -95.5h479zM404.996 1315.99l38 180h735l-38 -180h-735z" />
    <glyph glyph-name="Ebreve" unicode="&#x114;" horiz-adv-x="1274" 
d="M1057 0h-957l307 1443h956l-53 -258h-652l-75 -337h616l-50 -239h-615l-78 -351h653zM551 1884c0 6.66699 0.166992 12.168 0.5 16.501s0.833008 9.16602 1.5 14.499h205v-21c0 -21.333 4.5 -40.666 13.5 -57.999s21.667 -32.5 38 -45.5s35.5 -23 57.5 -30
s46 -10.5 72 -10.5c55.333 0 100.333 14.167 135 42.5s58 69.166 70 122.499h205c-7.33301 -50.667 -22.333 -96.667 -45 -138s-52 -76.666 -88 -105.999s-77.833 -52 -125.5 -68s-100.167 -24 -157.5 -24c-56 0 -107.333 7.66699 -154 23s-87 36.666 -121 63.999
s-60.333 59.5 -79 96.5s-28 77.5 -28 121.5z" />
    <glyph glyph-name="ebreve" unicode="&#x115;" horiz-adv-x="1248" 
d="M624 -24c-71.333 0 -136.834 10.6621 -196.501 31.9951s-111.167 52.333 -154.5 93s-77 90.334 -101 149.001s-36 125.334 -36 200.001c0 100.667 14.5 192.667 43.5 276s69.833 154.666 122.5 213.999s115.667 105.333 189 138s154 49 242 49
c66 0 127.333 -10.833 184 -32.5s105.834 -52.5 147.501 -92.5s74.334 -88.5 98.001 -145.5s35.5 -120.833 35.5 -191.5c0 -11.333 -0.5 -24.666 -1.5 -39.999s-2.16699 -31.166 -3.5 -47.499s-3.16602 -32.666 -5.49902 -48.999s-4.5 -30.833 -6.5 -43.5h-770
c0 -4 -0.166992 -9.16699 -0.5 -15.5s-0.5 -11.5 -0.5 -15.5c0 -42.667 6.16699 -79.667 18.5 -111s29.166 -57.333 50.499 -78s46 -36.167 74 -46.5s57.667 -15.5 89 -15.5c56.667 0 103 10.333 139 31s62.333 48.334 79 83.001h280
c-12.667 -50.667 -33.834 -97 -63.501 -139s-66.667 -78 -111 -108s-95.333 -53.167 -153 -69.5s-120.5 -24.5 -188.5 -24.5zM921.999 668.995c0.666992 3.33301 1.33105 8.83105 1.99805 16.498s1 14.834 1 21.501c0 27.333 -4.66699 53 -14 77
s-22.666 44.833 -39.999 62.5s-38.666 31.5 -63.999 41.5s-54 15 -86 15c-33.333 0 -64.833 -5.66699 -94.5 -17s-56.5 -27.166 -80.5 -47.499s-44.833 -45 -62.5 -74s-31.167 -60.833 -40.5 -95.5h479zM616.996 1601.99c-0.666992 -4 -1.16602 -7.99805 -1.49902 -11.998
s-0.5 -9.66699 -0.5 -17c0 -22.667 4.33301 -43.334 13 -62.001s21 -34.667 37 -48s35.167 -23.666 57.5 -30.999s47.166 -11 74.499 -11c60.667 0 109 15.5 145 46.5s59 75.833 69 134.5h206c-5.33301 -53.333 -19 -101.5 -41 -144.5s-51.333 -79.833 -88 -110.5
s-80 -54.334 -130 -71.001s-106 -25 -168 -25c-58 0 -110.667 7.83301 -158 23.5s-87.5 37.167 -120.5 64.5s-58.5 59.5 -76.5 96.5s-27 77.167 -27 120.5c0 17.333 1.33301 32.666 4 45.999h205z" />
    <glyph glyph-name="Edotaccent" unicode="&#x116;" horiz-adv-x="1274" 
d="M950 1579c-23.333 0 -44.666 4 -63.999 12s-36 19 -50 33s-24.833 30.667 -32.5 50s-11.5 40.333 -11.5 63s3.83301 43.667 11.5 63s18.5 36 32.5 50s30.667 25 50 33s40.666 12 63.999 12c22.667 0 43.667 -4 63 -12s36 -19 50 -33s24.833 -30.667 32.5 -50
s11.5 -40.333 11.5 -63s-3.83301 -43.667 -11.5 -63s-18.5 -36 -32.5 -50s-30.667 -25 -50 -33s-40.333 -12 -63 -12zM1057 0h-957l307 1443h956l-53 -258h-652l-75 -337h616l-50 -239h-615l-78 -351h653z" />
    <glyph glyph-name="edotaccent" unicode="&#x117;" horiz-adv-x="1248" 
d="M799 1274c-22.667 0 -43.834 4.16699 -63.501 12.5s-36.667 19.833 -51 34.5s-25.666 32 -33.999 52s-12.5 41.667 -12.5 65s4.16699 45 12.5 65s19.666 37.333 33.999 52s31.333 26.167 51 34.5s40.834 12.5 63.501 12.5s43.834 -4.16699 63.501 -12.5
s36.667 -19.833 51 -34.5s25.666 -32 33.999 -52s12.5 -41.667 12.5 -65s-4.16699 -45 -12.5 -65s-19.666 -37.333 -33.999 -52s-31.333 -26.167 -51 -34.5s-40.834 -12.5 -63.501 -12.5zM624 -24c-71.333 0 -136.834 10.6621 -196.501 31.9951s-111.167 52.333 -154.5 93
s-77 90.334 -101 149.001s-36 125.334 -36 200.001c0 100.667 14.5 192.667 43.5 276s69.833 154.666 122.5 213.999s115.667 105.333 189 138s154 49 242 49c66 0 127.333 -10.833 184 -32.5s105.834 -52.5 147.501 -92.5s74.334 -88.5 98.001 -145.5
s35.5 -120.833 35.5 -191.5c0 -11.333 -0.5 -24.666 -1.5 -39.999s-2.16699 -31.166 -3.5 -47.499s-3.16602 -32.666 -5.49902 -48.999s-4.5 -30.833 -6.5 -43.5h-770c0 -4 -0.166992 -9.16699 -0.5 -15.5s-0.5 -11.5 -0.5 -15.5c0 -42.667 6.16699 -79.667 18.5 -111
s29.166 -57.333 50.499 -78s46 -36.167 74 -46.5s57.667 -15.5 89 -15.5c56.667 0 103 10.333 139 31s62.333 48.334 79 83.001h280c-12.667 -50.667 -33.834 -97 -63.501 -139s-66.667 -78 -111 -108s-95.333 -53.167 -153 -69.5s-120.5 -24.5 -188.5 -24.5z
M921.999 668.995c0.666992 3.33301 1.33105 8.83105 1.99805 16.498s1 14.834 1 21.501c0 27.333 -4.66699 53 -14 77s-22.666 44.833 -39.999 62.5s-38.666 31.5 -63.999 41.5s-54 15 -86 15c-33.333 0 -64.833 -5.66699 -94.5 -17s-56.5 -27.166 -80.5 -47.499
s-44.833 -45 -62.5 -74s-31.167 -60.833 -40.5 -95.5h479z" />
    <glyph glyph-name="Eogonek" unicode="&#x118;" horiz-adv-x="1274" 
d="M854 -458c-38.667 0 -73.6689 4.66504 -105.002 13.998s-58.166 22.833 -80.499 40.5s-39.5 38.834 -51.5 63.501s-18 52.334 -18 83.001c0 48 13.167 92 39.5 132s67.166 78 122.499 114l2 11h-663l307 1443h956l-53 -258h-652l-75 -337h616l-50 -239h-615l-78 -351h653
l-45 -218c-78.667 -30 -139.167 -65 -181.5 -105s-63.5 -82.667 -63.5 -128c0 -28 10.833 -50.333 32.5 -67s50.834 -25 87.501 -25c10.667 0 21.5 0.5 32.5 1.5s19.167 2.16699 24.5 3.5l-34 -164c-15.333 -4 -32.666 -7.33301 -51.999 -10s-38 -4 -56 -4z" />
    <glyph glyph-name="eogonek" unicode="&#x119;" horiz-adv-x="1251" 
d="M737 -458c-39.333 0 -74.832 4.83301 -106.499 14.5s-58.667 23.167 -81 40.5s-39.666 37.833 -51.999 61.5s-18.5 49.5 -18.5 77.5c0 50 13.167 93.833 39.5 131.5s59.5 68.5 99.5 92.5l-1 17h-14c-71.333 2 -135.833 14.667 -193.5 38s-106.667 55.5 -147 96.5
s-71.5 90.167 -93.5 147.5s-33 121 -33 191c0 100.667 14.5 192.5 43.5 275.5s69.667 154.167 122 213.5s115.166 105.5 188.499 138.5s154.333 49.5 243 49.5c68 0 130.5 -11.333 187.5 -34s106 -54.334 147 -95.001s73 -89.334 96 -146.001s34.5 -119 34.5 -187
c0 -11.333 -0.5 -24.666 -1.5 -39.999s-2.16699 -31.333 -3.5 -48s-3.16602 -33 -5.49902 -49l-6.5 -43h-770c0 -6 -0.166992 -11.833 -0.5 -17.5s-0.5 -10.167 -0.5 -13.5c0 -38 5.5 -72.5 16.5 -103.5s26.5 -57.5 46.5 -79.5s44.333 -38.833 73 -50.5
s60.667 -17.5 96 -17.5c53.333 0 98.666 9.83301 135.999 29.5s64.666 47.834 81.999 84.501h280c-14 -55.333 -40 -106.166 -78 -152.499s-92.333 -91.833 -163 -136.5c-36.667 -23.333 -67.834 -44.833 -93.501 -64.5s-46.5 -38.5 -62.5 -56.5s-27.5 -35.333 -34.5 -52
s-10.5 -33.334 -10.5 -50.001c0 -30 11 -52.833 33 -68.5s54 -23.5 96 -23.5c9.33301 0 18 0.166992 26 0.5s14 0.833008 18 1.5l-34 -161c-14.667 -4 -30.667 -7 -48 -9s-34.666 -3 -51.999 -3zM922.001 669c0.666992 3.33301 1.33203 8.83301 1.99902 16.5
s1 14.834 1 21.501c0 29.333 -5 56 -15 80s-24 44.667 -42 62s-39.5 30.666 -64.5 39.999s-52.5 14 -82.5 14c-32.667 0 -63.667 -5.5 -93 -16.5s-56.166 -26.5 -80.499 -46.5s-45.333 -44.5 -63 -73.5s-31.5 -61.5 -41.5 -97.5h479z" />
    <glyph glyph-name="Ecaron" unicode="&#x11a;" horiz-adv-x="1274" 
d="M596 1925h250l92 -191h18l172 191h275l-328 -335h-291zM1057 0h-957l307 1443h956l-53 -258h-652l-75 -337h616l-50 -239h-615l-78 -351h653z" />
    <glyph glyph-name="ecaron" unicode="&#x11b;" horiz-adv-x="1248" 
d="M629 1251l-200 354h249l103 -209h18l194 209h277l-350 -354h-291zM624 -24c-71.333 0 -136.834 10.6621 -196.501 31.9951s-111.167 52.333 -154.5 93s-77 90.334 -101 149.001s-36 125.334 -36 200.001c0 100.667 14.5 192.667 43.5 276s69.833 154.666 122.5 213.999
s115.667 105.333 189 138s154 49 242 49c66 0 127.333 -10.833 184 -32.5s105.834 -52.5 147.501 -92.5s74.334 -88.5 98.001 -145.5s35.5 -120.833 35.5 -191.5c0 -11.333 -0.5 -24.666 -1.5 -39.999s-2.16699 -31.166 -3.5 -47.499s-3.16602 -32.666 -5.49902 -48.999
s-4.5 -30.833 -6.5 -43.5h-770c0 -4 -0.166992 -9.16699 -0.5 -15.5s-0.5 -11.5 -0.5 -15.5c0 -42.667 6.16699 -79.667 18.5 -111s29.166 -57.333 50.499 -78s46 -36.167 74 -46.5s57.667 -15.5 89 -15.5c56.667 0 103 10.333 139 31s62.333 48.334 79 83.001h280
c-12.667 -50.667 -33.834 -97 -63.501 -139s-66.667 -78 -111 -108s-95.333 -53.167 -153 -69.5s-120.5 -24.5 -188.5 -24.5zM921.999 668.995c0.666992 3.33301 1.33105 8.83105 1.99805 16.498s1 14.834 1 21.501c0 27.333 -4.66699 53 -14 77
s-22.666 44.833 -39.999 62.5s-38.666 31.5 -63.999 41.5s-54 15 -86 15c-33.333 0 -64.833 -5.66699 -94.5 -17s-56.5 -27.166 -80.5 -47.499s-44.833 -45 -62.5 -74s-31.167 -60.833 -40.5 -95.5h479z" />
    <glyph glyph-name="Gcircumflex" unicode="&#x11c;" horiz-adv-x="1567" 
d="M1383 1591h-249l-92 191h-18l-172 -191h-275l328 335h291zM1497 576c-19.333 -100 -49.333 -188.168 -90 -264.501s-90.834 -140.333 -150.501 -192s-128.667 -90.667 -207 -117s-164.833 -39.5 -259.5 -39.5c-91.333 0 -174.5 14.5 -249.5 43.5s-139 70.333 -192 124
s-94 118 -123 193s-43.5 158.5 -43.5 250.5c0 88.667 8.83301 172.667 26.5 252s43 152.5 76 219.5s73 127.333 120 181s99.667 99.334 158 137.001s122 66.5 191 86.5s141.833 30 218.5 30c80 0 155 -12 225 -36s131.167 -57.167 183.5 -99.5s94 -92.166 125 -149.499
s47.5 -119 49.5 -185c0.666992 -4.66699 0.833984 -9.83398 0.500977 -15.501s-0.5 -11.5 -0.5 -17.5h-294c-2 34.667 -11 66.334 -27 95.001s-37.5 53.334 -64.5 74.001s-59 36.667 -96 48s-77.167 17 -120.5 17c-66 0 -127.167 -15.5 -183.5 -46.5
s-105.166 -73.833 -146.499 -128.5s-73.666 -119.667 -96.999 -195s-35 -157.333 -35 -246c0 -56 7.66699 -106.333 23 -151s37.166 -82.834 65.499 -114.501s62.666 -55.834 102.999 -72.501s85.5 -25 135.5 -25c46.667 0 90.667 6.5 132 19.5s78 31.667 110 56
s59 53.5 81 87.5s37.333 72 46 114l5 25h-307l47 226h602z" />
    <glyph glyph-name="gcircumflex" unicode="&#x11d;" horiz-adv-x="1327" 
d="M1183 1252h-250l-104 209h-18l-193 -209h-276l350 354h291zM530 -417c-74.667 0 -142.498 8.5 -203.498 25.5s-113.333 40.333 -157 70s-77.334 64.834 -101.001 105.501s-35.5 85 -35.5 133h290c3.33301 -36 24.666 -65.5 63.999 -88.5s93.333 -34.5 162 -34.5
c76.667 0 136.5 16.667 179.5 50s71.167 79.333 84.5 138l44 194l-18 1c-36 -51.333 -81.5 -90 -136.5 -116s-117.833 -39 -188.5 -39c-55.333 0 -106.166 10 -152.499 30s-86.5 48.167 -120.5 84.5s-60.5 80.166 -79.5 131.499s-28.5 108 -28.5 170
c0 96.667 14.167 186.667 42.5 270s67 155.5 116 216.5s106.667 109 173 144s137.833 52.5 214.5 52.5c38 0 74.333 -5 109 -15s66.167 -24.167 94.5 -42.5s52.833 -40.5 73.5 -66.5s36 -54.667 46 -86h17l42 192h284l-246 -1147c-12 -58 -33.833 -110 -65.5 -156
s-71.834 -85.167 -120.501 -117.5s-105.167 -57 -169.5 -74s-135.5 -25.5 -213.5 -25.5zM641.002 237c42.667 0 82.667 10.168 120 30.501s70 48.5 98 84.5s50 78.5 66 127.5s24 102.167 24 159.5c0 36 -5 68.333 -15 97s-24.333 53.334 -43 74.001s-41.167 36.5 -67.5 47.5
s-55.833 16.5 -88.5 16.5c-43.333 0 -83.5 -9.83301 -120.5 -29.5s-69 -47.167 -96 -82.5s-48.167 -77.333 -63.5 -126s-23 -102 -23 -160c0 -36.667 4.83301 -69.834 14.5 -99.501s23.667 -54.834 42 -75.501s40.333 -36.5 66 -47.5s54.5 -16.5 86.5 -16.5z" />
    <glyph glyph-name="Gbreve" unicode="&#x11e;" horiz-adv-x="1567" 
d="M1497 576c-19.333 -100 -49.333 -188.168 -90 -264.501s-90.834 -140.333 -150.501 -192s-128.667 -90.667 -207 -117s-164.833 -39.5 -259.5 -39.5c-91.333 0 -174.5 14.5 -249.5 43.5s-139 70.333 -192 124s-94 118 -123 193s-43.5 158.5 -43.5 250.5
c0 88.667 8.83301 172.667 26.5 252s43 152.5 76 219.5s73 127.333 120 181s99.667 99.334 158 137.001s122 66.5 191 86.5s141.833 30 218.5 30c80 0 155 -12 225 -36s131.167 -57.167 183.5 -99.5s94 -92.166 125 -149.499s47.5 -119 49.5 -185
c0.666992 -4.66699 0.833984 -9.83398 0.500977 -15.501s-0.5 -11.5 -0.5 -17.5h-294c-2 34.667 -11 66.334 -27 95.001s-37.5 53.334 -64.5 74.001s-59 36.667 -96 48s-77.167 17 -120.5 17c-66 0 -127.167 -15.5 -183.5 -46.5s-105.166 -73.833 -146.499 -128.5
s-73.666 -119.667 -96.999 -195s-35 -157.333 -35 -246c0 -56 7.66699 -106.333 23 -151s37.166 -82.834 65.499 -114.501s62.666 -55.834 102.999 -72.501s85.5 -25 135.5 -25c46.667 0 90.667 6.5 132 19.5s78 31.667 110 56s59 53.5 81 87.5s37.333 72 46 114l5 25h-307
l47 226h602zM627 1885c0 6.66699 0.166992 12.168 0.5 16.501s0.833008 9.16602 1.5 14.499h205v-21c0 -21.333 4.5 -40.666 13.5 -57.999s21.667 -32.5 38 -45.5s35.5 -23 57.5 -30s46 -10.5 72 -10.5c55.333 0 100.333 14.167 135 42.5s58 69.166 70 122.499h205
c-7.33301 -50.667 -22.333 -96.667 -45 -138s-52 -76.666 -88 -105.999s-77.833 -52 -125.5 -68s-100.167 -24 -157.5 -24c-56 0 -107.333 7.66699 -154 23s-87 36.666 -121 63.999s-60.333 59.5 -79 96.5s-28 77.5 -28 121.5z" />
    <glyph glyph-name="gbreve" unicode="&#x11f;" horiz-adv-x="1327" 
d="M633 1603c-0.666992 -4 -1.16602 -7.99805 -1.49902 -11.998s-0.5 -9.66699 -0.5 -17c0 -22.667 4.33301 -43.334 13 -62.001s21 -34.667 37 -48s35.167 -23.666 57.5 -30.999s47.166 -11 74.499 -11c60.667 0 109 15.5 145 46.5s59 75.833 69 134.5h206
c-5.33301 -53.333 -19 -101.5 -41 -144.5s-51.333 -79.833 -88 -110.5s-80 -54.334 -130 -71.001s-106 -25 -168 -25c-58 0 -110.667 7.83301 -158 23.5s-87.5 37.167 -120.5 64.5s-58.5 59.5 -76.5 96.5s-27 77.167 -27 120.5c0 17.333 1.33301 32.666 4 45.999h205z
M530.001 -416.998c-74.667 0 -142.498 8.5 -203.498 25.5s-113.333 40.333 -157 70s-77.334 64.834 -101.001 105.501s-35.5 85 -35.5 133h290c3.33301 -36 24.666 -65.5 63.999 -88.5s93.333 -34.5 162 -34.5c76.667 0 136.5 16.667 179.5 50s71.167 79.333 84.5 138
l44 194l-18 1c-36 -51.333 -81.5 -90 -136.5 -116s-117.833 -39 -188.5 -39c-55.333 0 -106.166 10 -152.499 30s-86.5 48.167 -120.5 84.5s-60.5 80.166 -79.5 131.499s-28.5 108 -28.5 170c0 96.667 14.167 186.667 42.5 270s67 155.5 116 216.5s106.667 109 173 144
s137.833 52.5 214.5 52.5c38 0 74.333 -5 109 -15s66.167 -24.167 94.5 -42.5s52.833 -40.5 73.5 -66.5s36 -54.667 46 -86h17l42 192h284l-246 -1147c-12 -58 -33.833 -110 -65.5 -156s-71.834 -85.167 -120.501 -117.5s-105.167 -57 -169.5 -74s-135.5 -25.5 -213.5 -25.5
zM641.003 237.002c42.667 0 82.667 10.168 120 30.501s70 48.5 98 84.5s50 78.5 66 127.5s24 102.167 24 159.5c0 36 -5 68.333 -15 97s-24.333 53.334 -43 74.001s-41.167 36.5 -67.5 47.5s-55.833 16.5 -88.5 16.5c-43.333 0 -83.5 -9.83301 -120.5 -29.5
s-69 -47.167 -96 -82.5s-48.167 -77.333 -63.5 -126s-23 -102 -23 -160c0 -36.667 4.83301 -69.834 14.5 -99.501s23.667 -54.834 42 -75.501s40.333 -36.5 66 -47.5s54.5 -16.5 86.5 -16.5z" />
    <glyph glyph-name="Gdotaccent" unicode="&#x120;" horiz-adv-x="1567" 
d="M1026 1580c-23.333 0 -44.666 4 -63.999 12s-36 19 -50 33s-24.833 30.667 -32.5 50s-11.5 40.333 -11.5 63s3.83301 43.667 11.5 63s18.5 36 32.5 50s30.667 25 50 33s40.666 12 63.999 12c22.667 0 43.667 -4 63 -12s36 -19 50 -33s24.833 -30.667 32.5 -50
s11.5 -40.333 11.5 -63s-3.83301 -43.667 -11.5 -63s-18.5 -36 -32.5 -50s-30.667 -25 -50 -33s-40.333 -12 -63 -12zM1497 576c-19.333 -100 -49.333 -188.168 -90 -264.501s-90.834 -140.333 -150.501 -192s-128.667 -90.667 -207 -117s-164.833 -39.5 -259.5 -39.5
c-91.333 0 -174.5 14.5 -249.5 43.5s-139 70.333 -192 124s-94 118 -123 193s-43.5 158.5 -43.5 250.5c0 88.667 8.83301 172.667 26.5 252s43 152.5 76 219.5s73 127.333 120 181s99.667 99.334 158 137.001s122 66.5 191 86.5s141.833 30 218.5 30c80 0 155 -12 225 -36
s131.167 -57.167 183.5 -99.5s94 -92.166 125 -149.499s47.5 -119 49.5 -185c0.666992 -4.66699 0.833984 -9.83398 0.500977 -15.501s-0.5 -11.5 -0.5 -17.5h-294c-2 34.667 -11 66.334 -27 95.001s-37.5 53.334 -64.5 74.001s-59 36.667 -96 48s-77.167 17 -120.5 17
c-66 0 -127.167 -15.5 -183.5 -46.5s-105.166 -73.833 -146.499 -128.5s-73.666 -119.667 -96.999 -195s-35 -157.333 -35 -246c0 -56 7.66699 -106.333 23 -151s37.166 -82.834 65.499 -114.501s62.666 -55.834 102.999 -72.501s85.5 -25 135.5 -25
c46.667 0 90.667 6.5 132 19.5s78 31.667 110 56s59 53.5 81 87.5s37.333 72 46 114l5 25h-307l47 226h602z" />
    <glyph glyph-name="gdotaccent" unicode="&#x121;" horiz-adv-x="1327" 
d="M815 1275c-22.667 0 -43.834 4.16699 -63.501 12.5s-36.667 19.833 -51 34.5s-25.666 32 -33.999 52s-12.5 41.667 -12.5 65s4.16699 45 12.5 65s19.666 37.333 33.999 52s31.333 26.167 51 34.5s40.834 12.5 63.501 12.5s43.834 -4.16699 63.501 -12.5
s36.667 -19.833 51 -34.5s25.666 -32 33.999 -52s12.5 -41.667 12.5 -65s-4.16699 -45 -12.5 -65s-19.666 -37.333 -33.999 -52s-31.333 -26.167 -51 -34.5s-40.834 -12.5 -63.501 -12.5zM530 -417c-74.667 0 -142.498 8.5 -203.498 25.5s-113.333 40.333 -157 70
s-77.334 64.834 -101.001 105.501s-35.5 85 -35.5 133h290c3.33301 -36 24.666 -65.5 63.999 -88.5s93.333 -34.5 162 -34.5c76.667 0 136.5 16.667 179.5 50s71.167 79.333 84.5 138l44 194l-18 1c-36 -51.333 -81.5 -90 -136.5 -116s-117.833 -39 -188.5 -39
c-55.333 0 -106.166 10 -152.499 30s-86.5 48.167 -120.5 84.5s-60.5 80.166 -79.5 131.499s-28.5 108 -28.5 170c0 96.667 14.167 186.667 42.5 270s67 155.5 116 216.5s106.667 109 173 144s137.833 52.5 214.5 52.5c38 0 74.333 -5 109 -15s66.167 -24.167 94.5 -42.5
s52.833 -40.5 73.5 -66.5s36 -54.667 46 -86h17l42 192h284l-246 -1147c-12 -58 -33.833 -110 -65.5 -156s-71.834 -85.167 -120.501 -117.5s-105.167 -57 -169.5 -74s-135.5 -25.5 -213.5 -25.5zM641.002 237c42.667 0 82.667 10.168 120 30.501s70 48.5 98 84.5
s50 78.5 66 127.5s24 102.167 24 159.5c0 36 -5 68.333 -15 97s-24.333 53.334 -43 74.001s-41.167 36.5 -67.5 47.5s-55.833 16.5 -88.5 16.5c-43.333 0 -83.5 -9.83301 -120.5 -29.5s-69 -47.167 -96 -82.5s-48.167 -77.333 -63.5 -126s-23 -102 -23 -160
c0 -36.667 4.83301 -69.834 14.5 -99.501s23.667 -54.834 42 -75.501s40.333 -36.5 66 -47.5s54.5 -16.5 86.5 -16.5z" />
    <glyph glyph-name="Gcommaaccent" unicode="&#x122;" horiz-adv-x="1567" 
d="M473 -509l172 358h292l-206 -358h-258zM1497 576c-19.333 -100 -49.333 -188.168 -90 -264.501s-90.834 -140.333 -150.501 -192s-128.667 -90.667 -207 -117s-164.833 -39.5 -259.5 -39.5c-91.333 0 -174.5 14.5 -249.5 43.5s-139 70.333 -192 124s-94 118 -123 193
s-43.5 158.5 -43.5 250.5c0 88.667 8.83301 172.667 26.5 252s43 152.5 76 219.5s73 127.333 120 181s99.667 99.334 158 137.001s122 66.5 191 86.5s141.833 30 218.5 30c80 0 155 -12 225 -36s131.167 -57.167 183.5 -99.5s94 -92.166 125 -149.499s47.5 -119 49.5 -185
c0.666992 -4.66699 0.833984 -9.83398 0.500977 -15.501s-0.5 -11.5 -0.5 -17.5h-294c-2 34.667 -11 66.334 -27 95.001s-37.5 53.334 -64.5 74.001s-59 36.667 -96 48s-77.167 17 -120.5 17c-66 0 -127.167 -15.5 -183.5 -46.5s-105.166 -73.833 -146.499 -128.5
s-73.666 -119.667 -96.999 -195s-35 -157.333 -35 -246c0 -56 7.66699 -106.333 23 -151s37.166 -82.834 65.499 -114.501s62.666 -55.834 102.999 -72.501s85.5 -25 135.5 -25c46.667 0 90.667 6.5 132 19.5s78 31.667 110 56s59 53.5 81 87.5s37.333 72 46 114l5 25h-307
l47 226h602z" />
    <glyph glyph-name="gcommaaccent" unicode="&#x123;" horiz-adv-x="1328" 
d="M1352 1649l-172 -358h-292l206 358h258zM530 -417c-74.667 0 -142.498 8.5 -203.498 25.5s-113.333 40.333 -157 70s-77.334 64.834 -101.001 105.501s-35.5 85 -35.5 133h290c3.33301 -36 24.666 -65.5 63.999 -88.5s93.333 -34.5 162 -34.5
c76.667 0 136.5 16.667 179.5 50s71.167 79.333 84.5 138l44 194l-18 1c-36 -51.333 -81.5 -90 -136.5 -116s-117.833 -39 -188.5 -39c-55.333 0 -106.166 10 -152.499 30s-86.5 48.167 -120.5 84.5s-60.5 80.166 -79.5 131.499s-28.5 108 -28.5 170
c0 96.667 14.167 186.667 42.5 270s67 155.5 116 216.5s106.667 109 173 144s137.833 52.5 214.5 52.5c38 0 74.333 -5 109 -15s66.167 -24.167 94.5 -42.5s52.833 -40.5 73.5 -66.5s36 -54.667 46 -86h17l42 192h284l-246 -1147c-12 -58 -33.833 -110 -65.5 -156
s-71.834 -85.167 -120.501 -117.5s-105.167 -57 -169.5 -74s-135.5 -25.5 -213.5 -25.5zM641.002 237c42.667 0 82.667 10.168 120 30.501s70 48.5 98 84.5s50 78.5 66 127.5s24 102.167 24 159.5c0 36 -5 68.333 -15 97s-24.333 53.334 -43 74.001s-41.167 36.5 -67.5 47.5
s-55.833 16.5 -88.5 16.5c-43.333 0 -83.5 -9.83301 -120.5 -29.5s-69 -47.167 -96 -82.5s-48.167 -77.333 -63.5 -126s-23 -102 -23 -160c0 -36.667 4.83301 -69.834 14.5 -99.501s23.667 -54.834 42 -75.501s40.333 -36.5 66 -47.5s54.5 -16.5 86.5 -16.5z" />
    <glyph glyph-name="Hcircumflex" unicode="&#x124;" horiz-adv-x="1606" 
d="M1051 0l129 603h-648l-129 -603h-303l307 1443h304l-125 -582h648l125 582h304l-307 -1443h-305zM1457 1590h-249l-92 191h-18l-172 -191h-275l328 335h291z" />
    <glyph glyph-name="hcircumflex" unicode="&#x125;" horiz-adv-x="1321" 
d="M398 1515h291.998l-125 -578h18c16.667 26.667 36.334 51.5 59.001 74.5s48.334 42.833 77.001 59.5s60.167 29.667 94.5 39s71.833 14 112.5 14c52.667 0 100.167 -8.16699 142.5 -24.5s78.333 -38.833 108 -67.5s52.5 -62.167 68.5 -100.5s24 -79.833 24 -124.5
c0 -38.667 -4.66699 -82.334 -14 -131.001l-142 -676h-291l132 628c3.33301 14.667 5.83301 28.834 7.5 42.501s2.5 27.5 2.5 41.5c0 26 -4.83301 49.667 -14.5 71s-23 39.333 -40 54s-37.333 26 -61 34s-49.5 12 -77.5 12c-33.333 0 -64.5 -5.5 -93.5 -16.5
s-55 -26.5 -78 -46.5s-42.5 -43.667 -58.5 -71s-27.333 -57.333 -34 -90l-140 -659h-292zM962.998 1662h-249l-92 191h-18l-172 -191h-275l328 335h291z" />
    <glyph glyph-name="Hbar" unicode="&#x126;" horiz-adv-x="1557" 
d="M1252 1055h-648l-42 -194h648zM1684 1055h-128l-224 -1055h-305l129 603h-648l-129 -603h-303l224 1055h-127l43 206h128l39 182h304l-39 -182h648l39 182h304l-39 -182h126z" />
    <glyph glyph-name="hbar" unicode="&#x127;" horiz-adv-x="1339" 
d="M583 937c16.667 26.667 36.332 51.5 58.999 74.5s48.334 42.833 77.001 59.5s60.167 29.667 94.5 39s71.833 14 112.5 14c52.667 0 100.167 -8.16699 142.5 -24.5s78.333 -38.833 108 -67.5s52.5 -62.167 68.5 -100.5s24 -79.833 24 -124.5
c0 -38.667 -4.66699 -82.334 -14 -131.001l-142 -676h-291l132 628c3.33301 14.667 5.83301 28.834 7.5 42.501s2.5 27.5 2.5 41.5c0 26 -4.83301 49.667 -14.5 71s-23 39.333 -40 54s-37.333 26 -61 34s-49.5 12 -77.5 12c-33.333 0 -64.5 -5.5 -93.5 -16.5
s-55 -26.5 -78 -46.5s-42.5 -43.667 -58.5 -71s-27.333 -57.333 -34 -90l-140 -659h-292l269 1260h-172l33 158h172l21 97h292l-21 -97h217l-33 -158h-218l-70 -323h18z" />
    <glyph glyph-name="Itilde" unicode="&#x128;" horiz-adv-x="653" 
d="M100 0l307 1443h304l-307 -1443h-304zM780 1578c-40.667 0 -75.335 7.5 -104.002 22.5s-54.334 31.5 -77.001 49.5l-62.5 49.5c-19 15 -39.5 22.5 -61.5 22.5c-26 0 -47.333 -8.16699 -64 -24.5s-27.667 -42.833 -33 -79.5h-181c6 43.333 16.833 82.166 32.5 116.499
s35.334 63.333 59.001 87s50.667 41.834 81 54.501s62.5 19 96.5 19c40.667 0 75.334 -7.5 104.001 -22.5s54.167 -31.5 76.5 -49.5l62.5 -49.5c19.333 -15 39.666 -22.5 60.999 -22.5c26.667 0 48.334 8.16699 65.001 24.5s27.667 42.833 33 79.5h181
c-6 -43.333 -17 -82.166 -33 -116.499s-35.667 -63.333 -59 -87s-50.166 -41.834 -80.499 -54.501s-62.5 -19 -96.5 -19z" />
    <glyph glyph-name="itilde" unicode="&#x129;" horiz-adv-x="599" 
d="M313 1103h291l-234 -1103h-291zM690 1247c-28 0 -52.667 4 -74 12s-40.833 18.167 -58.5 30.5s-33.5 25.5 -47.5 39.5l-41 39.5c-13.333 12.333 -26.5 22.5 -39.5 30.5s-27.167 12 -42.5 12c-26 0 -46.667 -10.667 -62 -32s-26 -52 -32 -92h-184
c5.33301 45.333 15.833 86.333 31.5 123s35.334 67.834 59.001 93.501s50.834 45.5 81.501 59.5s63.667 21 99 21c27.333 0 51.833 -4 73.5 -12s41.167 -18.167 58.5 -30.5s33 -25.5 47 -39.5l41 -39.5c13.333 -12.333 26.5 -22.5 39.5 -30.5s27.167 -12 42.5 -12
c26 0 46.833 10.667 62.5 32s26.5 52 32.5 92h184c-5.33301 -45.333 -15.833 -86.333 -31.5 -123s-35.334 -67.834 -59.001 -93.501s-50.834 -45.5 -81.501 -59.5s-63.667 -21 -99 -21z" />
    <glyph glyph-name="Imacron" unicode="&#x12a;" horiz-adv-x="653" 
d="M100 0l307 1443h304l-307 -1443h-304zM227 1632l37 181h746l-38 -181h-745z" />
    <glyph glyph-name="imacron" unicode="&#x12b;" horiz-adv-x="599" 
d="M313 1103h291l-234 -1103h-291zM136 1316l38 180h735l-38 -180h-735z" />
    <glyph glyph-name="Ibreve" unicode="&#x12c;" horiz-adv-x="653" 
d="M100 0l307 1443h304l-307 -1443h-304zM225 1884c0 6.66699 0.166992 12.168 0.5 16.501s0.833008 9.16602 1.5 14.499h205v-21c0 -21.333 4.5 -40.666 13.5 -57.999s21.667 -32.5 38 -45.5s35.5 -23 57.5 -30s46 -10.5 72 -10.5c55.333 0 100.333 14.167 135 42.5
s58 69.166 70 122.499h205c-7.33301 -50.667 -22.333 -96.667 -45 -138s-52 -76.666 -88 -105.999s-77.833 -52 -125.5 -68s-100.167 -24 -157.5 -24c-56 0 -107.333 7.66699 -154 23s-87 36.666 -121 63.999s-60.333 59.5 -79 96.5s-28 77.5 -28 121.5z" />
    <glyph glyph-name="ibreve" unicode="&#x12d;" horiz-adv-x="599" 
d="M313 1103h291l-234 -1103h-291zM348 1602c-0.666992 -4 -1.16602 -7.99805 -1.49902 -11.998s-0.5 -9.66699 -0.5 -17c0 -22.667 4.33301 -43.334 13 -62.001s21 -34.667 37 -48s35.167 -23.666 57.5 -30.999s47.166 -11 74.499 -11c60.667 0 109 15.5 145 46.5
s59 75.833 69 134.5h206c-5.33301 -53.333 -19 -101.5 -41 -144.5s-51.333 -79.833 -88 -110.5s-80 -54.334 -130 -71.001s-106 -25 -168 -25c-58 0 -110.667 7.83301 -158 23.5s-87.5 37.167 -120.5 64.5s-58.5 59.5 -76.5 96.5s-27 77.167 -27 120.5
c0 17.333 1.33301 32.666 4 45.999h205z" />
    <glyph glyph-name="Iogonek" unicode="&#x12e;" horiz-adv-x="653" 
d="M711 1443l-299.002 -1403c-152.667 -66.667 -229 -143 -229 -229c0 -30 10.667 -53.5 32 -70.5s50.666 -25.5 87.999 -25.5c10.667 0 21.5 0.5 32.5 1.5s19.167 2.16699 24.5 3.5l-34 -164c-15.333 -4 -32.666 -7.33301 -51.999 -10s-38 -4 -56 -4
c-38 0 -72.667 4.83301 -104 14.5s-58.166 23.5 -80.499 41.5s-39.666 39.667 -51.999 65s-18.5 53.333 -18.5 84c0 53.333 15 101 45 143s78.333 83.667 145 125l2 11h-49l301 1417h304z" />
    <glyph glyph-name="iogonek" unicode="&#x12f;" horiz-adv-x="599" 
d="M524 1257c-25.333 0 -48.665 3.50293 -69.998 10.5029s-39.5 16.833 -54.5 29.5s-26.667 27.667 -35 45s-12.5 36.666 -12.5 57.999c0 22 4.16699 42.333 12.5 61s20.166 34.667 35.499 48s33.5 23.666 54.5 30.999s44.167 11 69.5 11s48.5 -3.5 69.5 -10.5
s39.167 -16.833 54.5 -29.5s27.166 -27.667 35.499 -45s12.5 -36.333 12.5 -57c0 -22 -4.33301 -42.333 -13 -61s-20.5 -34.834 -35.5 -48.501s-33.167 -24.167 -54.5 -31.5s-44.333 -11 -69 -11zM193.001 -457.997c-38 0 -72.6699 4.83496 -104.003 14.502
s-58.166 23.5 -80.499 41.5s-39.666 39.667 -51.999 65s-18.5 53.333 -18.5 84c0 53.333 15.5 101 46.5 143s79.833 83.667 146.5 125l2 11h-49l229 1077h294l-227 -1063c-75.333 -32.667 -131.166 -67.834 -167.499 -105.501s-54.5 -78.834 -54.5 -123.501
c0 -30 10.667 -53.5 32 -70.5s50.666 -25.5 87.999 -25.5c10.667 0 21.5 0.5 32.5 1.5s19.167 2.16699 24.5 3.5l-34 -164c-16 -4 -33.667 -7.33301 -53 -10s-37.666 -4 -54.999 -4z" />
    <glyph glyph-name="Idotaccent" unicode="&#x130;" horiz-adv-x="654" 
d="M100 0l307 1443h304l-307 -1443h-304zM624 1579c-23.333 0 -44.666 4 -63.999 12s-36 19 -50 33s-24.833 30.667 -32.5 50s-11.5 40.333 -11.5 63s3.83301 43.667 11.5 63s18.5 36 32.5 50s30.667 25 50 33s40.666 12 63.999 12c22.667 0 43.667 -4 63 -12s36 -19 50 -33
s24.833 -30.667 32.5 -50s11.5 -40.333 11.5 -63s-3.83301 -43.667 -11.5 -63s-18.5 -36 -32.5 -50s-30.667 -25 -50 -33s-40.333 -12 -63 -12z" />
    <glyph glyph-name="dotlessi" unicode="&#x131;" horiz-adv-x="599" 
d="M313 1103h291l-234 -1103h-291z" />
    <glyph glyph-name="u0132" unicode="&#x132;" horiz-adv-x="1881" 
d="M100 0l307 1443h304l-307 -1443h-304zM1032 413l0.000976562 -9c0.666992 -51.333 17 -92 49 -122s75.667 -45 131 -45c111.333 0 182 69.667 212 209l213 997h302l-222 -1042c-30 -142 -88.667 -250.5 -176 -325.5s-201.333 -112.5 -342 -112.5
c-70 0 -133.667 10.167 -191 30.5s-106.333 49 -147 86s-71.834 81.167 -93.501 132.5s-31.5 108 -29.5 170v15.5c0 5 0.333008 10.167 1 15.5h293z" />
    <glyph glyph-name="u0133" unicode="&#x133;" horiz-adv-x="1199" 
d="M313 1103h293l-235 -1103h-293zM524 1257c-26 0 -49.667 3.66504 -71 10.998s-39.5 17.333 -54.5 30s-26.5 27.834 -34.5 45.501s-12 36.5 -12 56.5c0 21.333 4 41.166 12 59.499s19.5 34.333 34.5 48s33.167 24.334 54.5 32.001s45 11.5 71 11.5s49.5 -3.66699 70.5 -11
s39 -17.333 54 -30s26.667 -27.667 35 -45s12.5 -36 12.5 -56c0 -21.333 -4.16699 -41.166 -12.5 -59.499s-20 -34.333 -35 -48s-33 -24.5 -54 -32.5s-44.5 -12 -70.5 -12zM958 -55.002c-22 -104 -68.168 -182.999 -138.501 -236.999s-160.5 -81.333 -270.5 -82
c-9.33301 0 -19.666 0.333008 -30.999 1s-23 1.5 -35 2.5s-23.667 2.33301 -35 4l-30 4.5l48 226c8.66699 -2 18.667 -3.5 30 -4.5s22.333 -1.5 33 -1.5c42 0 74.333 9.66699 97 29s38.667 49.666 48 90.999l240 1125h291zM1124 1257c-26 0 -49.667 3.66504 -71 10.998
s-39.5 17.333 -54.5 30s-26.5 27.834 -34.5 45.501s-12 36.5 -12 56.5c0 21.333 4 41.166 12 59.499s19.5 34.333 34.5 48s33.167 24.334 54.5 32.001s45 11.5 71 11.5s49.5 -3.66699 70.5 -11s39 -17.333 54 -30s26.667 -27.667 35 -45s12.5 -36 12.5 -56
c0 -21.333 -4.16699 -41.166 -12.5 -59.499s-20 -34.333 -35 -48s-33 -24.5 -54 -32.5s-44.5 -12 -70.5 -12z" />
    <glyph glyph-name="Jcircumflex" unicode="&#x134;" horiz-adv-x="1229" 
d="M379 413l0.000976562 -9c0.666992 -51.333 17 -92 49 -122s75.667 -45 131 -45c111.333 0 182 69.667 212 209l213 997h302l-222 -1042c-30 -142 -88.667 -250.5 -176 -325.5s-201.333 -112.5 -342 -112.5c-70 0 -133.667 10.167 -191 30.5s-106.333 49 -147 86
s-71.834 81.167 -93.501 132.5s-31.5 108 -29.5 170v15.5c0 5 0.333008 10.167 1 15.5h293zM1556 1590h-249l-92 191h-18l-172 -191h-275l328 335h291z" />
    <glyph glyph-name="jcircumflex" unicode="&#x135;" horiz-adv-x="599" 
d="M358 -55c-22 -104 -68.168 -182.999 -138.501 -236.999s-160.5 -81.333 -270.5 -82c-9.33301 0 -19.666 0.333008 -30.999 1s-23 1.5 -35 2.5s-23.667 2.33301 -35 4l-30 4.5l48 226c8.66699 -2 18.667 -3.5 30 -4.5s22.333 -1.5 33 -1.5c42 0 74.333 9.66699 97 29
s38.667 49.666 48 90.999l240 1125h291zM897.999 1251h-250l-104 209h-18l-193 -209h-276l350 354h291z" />
    <glyph glyph-name="Kcommaaccent" unicode="&#x136;" horiz-adv-x="1454" 
d="M100 0l307 1443h301l-136 -635h18l659 635h358l-670 -653l382 -790h-340l-293 606l-192 -182l-92 -424h-302zM347 -509l172 358h292l-206 -358h-258z" />
    <glyph glyph-name="kcommaaccent" unicode="&#x137;" horiz-adv-x="1223" 
d="M979 1103h340l-529 -482l328 -621h-321l-242 457l-110 -94l-78 -363h-292l324 1524h291l-177 -834h18zM244 -509l172 358h292l-206 -358h-258z" />
    <glyph glyph-name="Lacute" unicode="&#x139;" horiz-adv-x="1219" 
d="M785 1908h315l-381 -318h-277zM1044 0h-944l307 1443h303l-253 -1180h641z" />
    <glyph glyph-name="lacute" unicode="&#x13a;" horiz-adv-x="594" 
d="M772 1988h315l-381 -318h-277zM399 1524h293l-324 -1524h-293z" />
    <glyph glyph-name="Lcommaaccent" unicode="&#x13b;" horiz-adv-x="1219" 
d="M240 -509l172 358h292l-206 -358h-258zM1044 0h-944l307 1443h303l-253 -1180h641z" />
    <glyph glyph-name="lcommaaccent" unicode="&#x13c;" horiz-adv-x="594" 
d="M-110 -509l172 358h292l-206 -358h-258zM399 1524h293l-324 -1524h-293z" />
    <glyph glyph-name="Lcaron" unicode="&#x13d;" horiz-adv-x="1219" 
d="M1181 1443l-157 -504h-196l107 504h246zM1044 0h-944l307 1443h303l-253 -1180h641z" />
    <glyph glyph-name="lcaron" unicode="&#x13e;" horiz-adv-x="814" 
d="M1074 1524l-157 -505h-201l107 505h251zM399 1524h293l-324 -1524h-293z" />
    <glyph glyph-name="Lslash" unicode="&#x141;" horiz-adv-x="1223" 
d="M1127 263l-54 -263h-944l142 667l-181 -84l42 205l183 84l121 571h303l-89 -416l248 115l-42 -205l-250 -116l-120 -558h641z" />
    <glyph glyph-name="lslash" unicode="&#x142;" horiz-adv-x="593" 
d="M675 885l-132 -64l-175 -821h-293l141 664l-129 -62l42 205l131 63l139 654h293l-106 -497l131 63z" />
    <glyph glyph-name="Nacute" unicode="&#x143;" horiz-adv-x="1573" 
d="M1227 1908h315l-381 -318h-277zM100 0l307 1443h231l479 -929h18l202 929h293l-307 -1443h-229l-483 922h-18l-200 -922h-293z" />
    <glyph glyph-name="nacute" unicode="&#x144;" horiz-adv-x="1304" 
d="M944 1640h310l-361 -353h-272zM303 1112l281.999 0.000976562l-37 -175h18c17.333 28 37.833 53.667 61.5 77s50.167 43.333 79.5 60s61.333 29.667 96 39s71.667 14 111 14c51.333 0 97.833 -8.16699 139.5 -24.5s77.334 -38.833 107.001 -67.5s52.5 -62.5 68.5 -101.5
s24 -81.167 24 -126.5c0 -38.667 -4.66699 -82.334 -14 -131.001l-142 -676h-291l132 628c6.66699 30.667 10 58.667 10 84s-4.5 48.5 -13.5 69.5s-21.833 39 -38.5 54s-36.5 26.667 -59.5 35s-48.833 12.5 -77.5 12.5c-32.667 0 -63.167 -5.5 -91.5 -16.5
s-53.833 -26.5 -76.5 -46.5s-42 -43.667 -58 -71s-27.333 -57.333 -34 -90l-140 -659h-292z" />
    <glyph glyph-name="Ncommaaccent" unicode="&#x145;" horiz-adv-x="1573" 
d="M403 -509l172 358h292l-206 -358h-258zM100 0l307 1443h231l479 -929h18l202 929h293l-307 -1443h-229l-483 922h-18l-200 -922h-293z" />
    <glyph glyph-name="ncommaaccent" unicode="&#x146;" horiz-adv-x="1304" 
d="M249 -509l172 358h292l-206 -358h-258zM303 1112l281.999 0.000976562l-37 -175h18c17.333 28 37.833 53.667 61.5 77s50.167 43.333 79.5 60s61.333 29.667 96 39s71.667 14 111 14c51.333 0 97.833 -8.16699 139.5 -24.5s77.334 -38.833 107.001 -67.5
s52.5 -62.5 68.5 -101.5s24 -81.167 24 -126.5c0 -38.667 -4.66699 -82.334 -14 -131.001l-142 -676h-291l132 628c6.66699 30.667 10 58.667 10 84s-4.5 48.5 -13.5 69.5s-21.833 39 -38.5 54s-36.5 26.667 -59.5 35s-48.833 12.5 -77.5 12.5
c-32.667 0 -63.167 -5.5 -91.5 -16.5s-53.833 -26.5 -76.5 -46.5s-42 -43.667 -58 -71s-27.333 -57.333 -34 -90l-140 -659h-292z" />
    <glyph glyph-name="Ncaron" unicode="&#x147;" horiz-adv-x="1573" 
d="M711 1925h250l92 -191h18l172 191h275l-328 -335h-291zM100 0l307 1443h231l479 -929h18l202 929h293l-307 -1443h-229l-483 922h-18l-200 -922h-293z" />
    <glyph glyph-name="ncaron" unicode="&#x148;" horiz-adv-x="1304" 
d="M647 1257l-200 354h249l103 -209h18l194 209h277l-350 -354h-291zM303 1112l281.999 0.000976562l-37 -175h18c17.333 28 37.833 53.667 61.5 77s50.167 43.333 79.5 60s61.333 29.667 96 39s71.667 14 111 14c51.333 0 97.833 -8.16699 139.5 -24.5
s77.334 -38.833 107.001 -67.5s52.5 -62.5 68.5 -101.5s24 -81.167 24 -126.5c0 -38.667 -4.66699 -82.334 -14 -131.001l-142 -676h-291l132 628c6.66699 30.667 10 58.667 10 84s-4.5 48.5 -13.5 69.5s-21.833 39 -38.5 54s-36.5 26.667 -59.5 35s-48.833 12.5 -77.5 12.5
c-32.667 0 -63.167 -5.5 -91.5 -16.5s-53.833 -26.5 -76.5 -46.5s-42 -43.667 -58 -71s-27.333 -57.333 -34 -90l-140 -659h-292z" />
    <glyph glyph-name="Omacron" unicode="&#x14c;" horiz-adv-x="1617" 
d="M805 -37c-94.667 0 -180.333 15.499 -257 46.499s-142.167 73.833 -196.5 128.5s-96.333 119.5 -126 194.5s-44.5 156.167 -44.5 243.5c0 88.667 9.16699 172.5 27.5 251.5s44.166 152 77.499 219s73.833 127.167 121.5 180.5s100.667 98.833 159 136.5
s121.666 66.5 189.999 86.5s139.833 30 214.5 30c96 0 182.333 -15.5 259 -46.5s141.834 -73.833 195.501 -128.5s95 -119.5 124 -194.5s43.5 -156.167 43.5 -243.5c0 -88.667 -9 -172.667 -27 -252s-43.833 -152.5 -77.5 -219.5s-74.167 -127.167 -121.5 -180.5
s-100.166 -98.666 -158.499 -135.999s-121.5 -66 -189.5 -86s-139.333 -30 -214 -30zM1283 843.999c0 54.667 -7.83203 104.501 -23.499 149.501s-37.667 83.5 -66 115.5s-62.333 56.667 -102 74s-83.834 26 -132.501 26c-65.333 0 -126.5 -15.667 -183.5 -47
s-106.5 -74.5 -148.5 -129.5s-75.167 -119.667 -99.5 -194s-36.5 -154.5 -36.5 -240.5c0 -55.333 7.83301 -105.333 23.5 -150s37.667 -83 66 -115s62.5 -56.667 102.5 -74s84.667 -26 134 -26c65.333 0 126.333 15.5 183 46.5s106 73.833 148 128.5s75 119.167 99 193.5
s36 155.166 36 242.499zM640.002 1631l37 181h746l-38 -181h-745z" />
    <glyph glyph-name="omacron" unicode="&#x14d;" horiz-adv-x="1289" 
d="M426 1316l38 180h735l-38 -180h-735zM438 467c0 -38 4.66504 -72.501 13.998 -103.501s22.833 -57.5 40.5 -79.5s39.334 -39 65.001 -51s54.834 -18 87.501 -18c39.333 0 77 10.667 113 32s67.667 50.5 95 87.5s49.166 80.667 65.499 131s24.5 104.5 24.5 162.5
c0 82.667 -17.667 146.834 -53 192.501s-84.666 68.5 -147.999 68.5c-44.667 0 -85.667 -11 -123 -33s-69.333 -52 -96 -90s-47.5 -82.667 -62.5 -134s-22.5 -106.333 -22.5 -165zM627.998 -24.001c-74 0 -141.334 11.498 -202.001 34.498s-112.5 55.667 -155.5 98
s-76.333 93.166 -100 152.499s-35.5 125 -35.5 197c0 62 6.83301 121.5 20.5 178.5s33.167 110.333 58.5 160s56.333 94.834 93 135.501s78.167 75.5 124.5 104.5s96.833 51.333 151.5 67s113 23.5 175 23.5c74 0 141.167 -11.667 201.5 -35s111.833 -56.166 154.5 -98.499
s75.667 -93.166 99 -152.499s35 -125 35 -197c0 -91.333 -14.833 -177.5 -44.5 -258.5s-71.667 -151.833 -126 -212.5s-119.666 -108.667 -195.999 -144s-160.833 -53 -253.5 -53z" />
    <glyph glyph-name="Obreve" unicode="&#x14e;" horiz-adv-x="1617" 
d="M805 -37c-94.667 0 -180.333 15.499 -257 46.499s-142.167 73.833 -196.5 128.5s-96.333 119.5 -126 194.5s-44.5 156.167 -44.5 243.5c0 88.667 9.16699 172.5 27.5 251.5s44.166 152 77.499 219s73.833 127.167 121.5 180.5s100.667 98.833 159 136.5
s121.666 66.5 189.999 86.5s139.833 30 214.5 30c96 0 182.333 -15.5 259 -46.5s141.834 -73.833 195.501 -128.5s95 -119.5 124 -194.5s43.5 -156.167 43.5 -243.5c0 -88.667 -9 -172.667 -27 -252s-43.833 -152.5 -77.5 -219.5s-74.167 -127.167 -121.5 -180.5
s-100.166 -98.666 -158.499 -135.999s-121.5 -66 -189.5 -86s-139.333 -30 -214 -30zM1283 843.999c0 54.667 -7.83203 104.501 -23.499 149.501s-37.667 83.5 -66 115.5s-62.333 56.667 -102 74s-83.834 26 -132.501 26c-65.333 0 -126.5 -15.667 -183.5 -47
s-106.5 -74.5 -148.5 -129.5s-75.167 -119.667 -99.5 -194s-36.5 -154.5 -36.5 -240.5c0 -55.333 7.83301 -105.333 23.5 -150s37.667 -83 66 -115s62.5 -56.667 102.5 -74s84.667 -26 134 -26c65.333 0 126.333 15.5 183 46.5s106 73.833 148 128.5s75 119.167 99 193.5
s36 155.166 36 242.499zM638.002 1883c0 6.66699 0.166992 12.168 0.5 16.501s0.833008 9.16602 1.5 14.499h205v-21c0 -21.333 4.5 -40.666 13.5 -57.999s21.667 -32.5 38 -45.5s35.5 -23 57.5 -30s46 -10.5 72 -10.5c55.333 0 100.333 14.167 135 42.5
s58 69.166 70 122.499h205c-7.33301 -50.667 -22.333 -96.667 -45 -138s-52 -76.666 -88 -105.999s-77.833 -52 -125.5 -68s-100.167 -24 -157.5 -24c-56 0 -107.333 7.66699 -154 23s-87 36.666 -121 63.999s-60.333 59.5 -79 96.5s-28 77.5 -28 121.5z" />
    <glyph glyph-name="obreve" unicode="&#x14f;" horiz-adv-x="1289" 
d="M638 1602c-0.666992 -4 -1.16602 -7.99805 -1.49902 -11.998s-0.5 -9.66699 -0.5 -17c0 -22.667 4.33301 -43.334 13 -62.001s21 -34.667 37 -48s35.167 -23.666 57.5 -30.999s47.166 -11 74.499 -11c60.667 0 109 15.5 145 46.5s59 75.833 69 134.5h206
c-5.33301 -53.333 -19 -101.5 -41 -144.5s-51.333 -79.833 -88 -110.5s-80 -54.334 -130 -71.001s-106 -25 -168 -25c-58 0 -110.667 7.83301 -158 23.5s-87.5 37.167 -120.5 64.5s-58.5 59.5 -76.5 96.5s-27 77.167 -27 120.5c0 17.333 1.33301 32.666 4 45.999h205z
M438.001 467.002c0 -38 4.66504 -72.501 13.998 -103.501s22.833 -57.5 40.5 -79.5s39.334 -39 65.001 -51s54.834 -18 87.501 -18c39.333 0 77 10.667 113 32s67.667 50.5 95 87.5s49.166 80.667 65.499 131s24.5 104.5 24.5 162.5c0 82.667 -17.667 146.834 -53 192.501
s-84.666 68.5 -147.999 68.5c-44.667 0 -85.667 -11 -123 -33s-69.333 -52 -96 -90s-47.5 -82.667 -62.5 -134s-22.5 -106.333 -22.5 -165zM627.999 -23.999c-74 0 -141.334 11.498 -202.001 34.498s-112.5 55.667 -155.5 98s-76.333 93.166 -100 152.499
s-35.5 125 -35.5 197c0 62 6.83301 121.5 20.5 178.5s33.167 110.333 58.5 160s56.333 94.834 93 135.501s78.167 75.5 124.5 104.5s96.833 51.333 151.5 67s113 23.5 175 23.5c74 0 141.167 -11.667 201.5 -35s111.833 -56.166 154.5 -98.499s75.667 -93.166 99 -152.499
s35 -125 35 -197c0 -91.333 -14.833 -177.5 -44.5 -258.5s-71.667 -151.833 -126 -212.5s-119.666 -108.667 -195.999 -144s-160.833 -53 -253.5 -53z" />
    <glyph glyph-name="Ohungarumlaut" unicode="&#x150;" horiz-adv-x="1617" 
d="M1360 1907h270l-345 -318h-244zM923 1907h270l-345 -318h-244zM805 -37c-94.667 0 -180.333 15.499 -257 46.499s-142.167 73.833 -196.5 128.5s-96.333 119.5 -126 194.5s-44.5 156.167 -44.5 243.5c0 88.667 9.16699 172.5 27.5 251.5s44.166 152 77.499 219
s73.833 127.167 121.5 180.5s100.667 98.833 159 136.5s121.666 66.5 189.999 86.5s139.833 30 214.5 30c96 0 182.333 -15.5 259 -46.5s141.834 -73.833 195.501 -128.5s95 -119.5 124 -194.5s43.5 -156.167 43.5 -243.5c0 -88.667 -9 -172.667 -27 -252
s-43.833 -152.5 -77.5 -219.5s-74.167 -127.167 -121.5 -180.5s-100.166 -98.666 -158.499 -135.999s-121.5 -66 -189.5 -86s-139.333 -30 -214 -30zM1283 843.999c0 54.667 -7.83203 104.501 -23.499 149.501s-37.667 83.5 -66 115.5s-62.333 56.667 -102 74
s-83.834 26 -132.501 26c-65.333 0 -126.5 -15.667 -183.5 -47s-106.5 -74.5 -148.5 -129.5s-75.167 -119.667 -99.5 -194s-36.5 -154.5 -36.5 -240.5c0 -55.333 7.83301 -105.333 23.5 -150s37.667 -83 66 -115s62.5 -56.667 102.5 -74s84.667 -26 134 -26
c65.333 0 126.333 15.5 183 46.5s106 73.833 148 128.5s75 119.167 99 193.5s36 155.166 36 242.499z" />
    <glyph glyph-name="ohungarumlaut" unicode="&#x151;" horiz-adv-x="1289" 
d="M1172 1634h261l-317 -353h-231zM736 1634h261l-317 -353h-231zM438 467c0 -38 4.66504 -72.501 13.998 -103.501s22.833 -57.5 40.5 -79.5s39.334 -39 65.001 -51s54.834 -18 87.501 -18c39.333 0 77 10.667 113 32s67.667 50.5 95 87.5s49.166 80.667 65.499 131
s24.5 104.5 24.5 162.5c0 82.667 -17.667 146.834 -53 192.501s-84.666 68.5 -147.999 68.5c-44.667 0 -85.667 -11 -123 -33s-69.333 -52 -96 -90s-47.5 -82.667 -62.5 -134s-22.5 -106.333 -22.5 -165zM627.998 -24.001c-74 0 -141.334 11.498 -202.001 34.498
s-112.5 55.667 -155.5 98s-76.333 93.166 -100 152.499s-35.5 125 -35.5 197c0 62 6.83301 121.5 20.5 178.5s33.167 110.333 58.5 160s56.333 94.834 93 135.501s78.167 75.5 124.5 104.5s96.833 51.333 151.5 67s113 23.5 175 23.5c74 0 141.167 -11.667 201.5 -35
s111.833 -56.166 154.5 -98.499s75.667 -93.166 99 -152.499s35 -125 35 -197c0 -91.333 -14.833 -177.5 -44.5 -258.5s-71.667 -151.833 -126 -212.5s-119.666 -108.667 -195.999 -144s-160.833 -53 -253.5 -53z" />
    <glyph glyph-name="OE" unicode="&#x152;" horiz-adv-x="2312" 
d="M1291 846c0 55.333 -7.83398 105.665 -23.501 150.998s-37.834 84.166 -66.501 116.499s-63.167 57.333 -103.5 75s-84.833 26.5 -133.5 26.5c-66 0 -127.667 -16 -185 -48s-107.166 -75.833 -149.499 -131.5s-75.666 -121 -99.999 -196s-36.5 -155.833 -36.5 -242.5
c0 -55.333 7.83301 -105.666 23.5 -150.999s37.834 -84.166 66.501 -116.499s63.167 -57.333 103.5 -75s85.166 -26.5 134.499 -26.5c66.667 0 128.667 15.833 186 47.5s107 75.334 149 131.001s75 121 99 196s36 156.167 36 243.5zM1213 101.999h-14.998
c-20 -20 -43.833 -38.5 -71.5 -55.5s-58.334 -31.667 -92.001 -44s-69.5 -22 -107.5 -29s-77 -10.5 -117 -10.5c-92 0 -176.167 15 -252.5 45s-142 72 -197 126s-97.833 118.5 -128.5 193.5s-46 157.833 -46 248.5c0 87.333 9 170.166 27 248.499s43.667 151 77 218
s73.5 127.5 120.5 181.5s99.833 100 158.5 138s122.167 67.167 190.5 87.5s140.5 30.5 216.5 30.5c52 0 101.167 -5.66699 147.5 -17s89.166 -27.166 128.499 -47.499s74.5 -45 105.5 -74s57.167 -61.167 78.5 -96.5h18l43 198h901l-53 -258h-652l-75 -337h616l-50 -239
h-615l-78 -351h653l-52 -258h-902z" />
    <glyph glyph-name="oe" unicode="&#x153;" horiz-adv-x="2048" 
d="M1422 -24c-80 0 -152.499 16.165 -217.499 48.498s-117.5 78.5 -157.5 138.5h-18c-48 -61.333 -106 -107.833 -174 -139.5s-144.333 -47.5 -229 -47.5c-74 0 -141.167 11.5 -201.5 34.5s-112 55.5 -155 97.5s-76.167 92.667 -99.5 152s-35 125 -35 197
c0 96.667 15.5 185.834 46.5 267.501s74.167 152.334 129.5 212.001s120.833 106.334 196.5 140.001s158.167 50.5 247.5 50.5c80 0 151.667 -16.5 215 -49.5s113.333 -79.833 150 -140.5h19c98.667 126.667 229 190 391 190c68.667 0 131.5 -11.333 188.5 -34
s106 -54.334 147 -95.001s73 -89.334 96 -146.001s34.5 -119 34.5 -187c0 -11.333 -0.5 -24.666 -1.5 -39.999s-2.33301 -31.333 -4 -48s-3.5 -33 -5.5 -49s-4.33301 -30.333 -7 -43h-769c-0.666992 -6 -1 -12 -1 -18v-14c0 -38 5.5 -72.5 16.5 -103.5
s26.5 -57.333 46.5 -79s44.333 -38.334 73 -50.001s60.667 -17.5 96 -17.5c53.333 0 98.5 9.83301 135.5 29.5s64.167 47.834 81.5 84.501h281c-13.333 -52 -35.333 -99 -66 -141s-68.334 -77.833 -113.001 -107.5s-95.5 -52.5 -152.5 -68.5s-118.5 -24 -184.5 -24z
M1719 668.998c1.33301 3.33301 2.16504 8.83301 2.49805 16.5s0.5 14.834 0.5 21.501c0 29.333 -4.83301 56 -14.5 80s-23.5 44.667 -41.5 62s-39.5 30.666 -64.5 39.999s-52.5 14 -82.5 14c-33.333 0 -64.666 -5.5 -93.999 -16.5s-56.166 -26.5 -80.499 -46.5
s-45.333 -44.5 -63 -73.5s-31.5 -61.5 -41.5 -97.5h479zM438 465.998c0 -38.667 4.83105 -73.499 14.498 -104.499s23.5 -57.5 41.5 -79.5s39.667 -38.833 65 -50.5s54 -17.5 86 -17.5c40.667 0 79.167 11 115.5 33s68 51.833 95 89.5s48.333 81.5 64 131.5
s23.5 103.333 23.5 160c0 82.667 -17.667 146.834 -53 192.501s-84.666 68.5 -147.999 68.5c-43.333 0 -83.666 -10.833 -120.999 -32.5s-69.5 -51.334 -96.5 -89.001s-48.167 -82.334 -63.5 -134.001s-23 -107.5 -23 -167.5z" />
    <glyph glyph-name="Racute" unicode="&#x154;" horiz-adv-x="1418" 
d="M1058 1908h315l-381 -318h-277zM407 1443l571.001 -0.000976562c66.667 0 127.667 -10 183 -30s103 -48.167 143 -84.5s71 -79.5 93 -129.5s33 -105 33 -165c0 -53.333 -8.33301 -104.666 -25 -153.999s-40.334 -94.833 -71.001 -136.5s-68.167 -78.5 -112.5 -110.5
s-93.833 -57 -148.5 -75l198 -558h-325l-172 523h-258l-112 -523h-304zM563.001 754.999l263.999 0.00195312c44 0 84.167 6.16699 120.5 18.5s67.5 29.666 93.5 51.999s46 48.833 60 79.5s21 64.667 21 102c0 61.333 -18.667 108.666 -56 141.999s-89.666 50 -156.999 50
h-248z" />
    <glyph glyph-name="racute" unicode="&#x155;" horiz-adv-x="875" 
d="M801 1634h310l-361 -353h-272zM298 1103l283.001 0.000976562l-31 -152h18c30 54.667 68.333 96.667 115 126s99.667 44 159 44c28 0 54.167 -2 78.5 -6s45.166 -10 62.499 -18l-57 -268c-22.667 9.33301 -49.667 16.666 -81 21.999s-60.333 8 -87 8
c-145.333 0 -236 -83.667 -272 -251l-131 -608h-292z" />
    <glyph glyph-name="Rcommaaccent" unicode="&#x156;" horiz-adv-x="1418" 
d="M407 1443l571.001 -0.000976562c66.667 0 127.667 -10 183 -30s103 -48.167 143 -84.5s71 -79.5 93 -129.5s33 -105 33 -165c0 -53.333 -8.33301 -104.666 -25 -153.999s-40.334 -94.833 -71.001 -136.5s-68.167 -78.5 -112.5 -110.5s-93.833 -57 -148.5 -75l198 -558
h-325l-172 523h-258l-112 -523h-304zM563.001 754.999l263.999 0.00195312c44 0 84.167 6.16699 120.5 18.5s67.5 29.666 93.5 51.999s46 48.833 60 79.5s21 64.667 21 102c0 61.333 -18.667 108.666 -56 141.999s-89.666 50 -156.999 50h-248zM333 -508.999l172 358h292
l-206 -358h-258z" />
    <glyph glyph-name="rcommaaccent" unicode="&#x157;" horiz-adv-x="875" 
d="M298 1103l283.001 0.000976562l-31 -152h18c30 54.667 68.333 96.667 115 126s99.667 44 159 44c28 0 54.167 -2 78.5 -6s45.166 -10 62.499 -18l-57 -268c-22.667 9.33301 -49.667 16.666 -81 21.999s-60.333 8 -87 8c-145.333 0 -236 -83.667 -272 -251l-131 -608h-292
zM-117.999 -508.999l172 358h292l-206 -358h-258z" />
    <glyph glyph-name="Rcaron" unicode="&#x158;" horiz-adv-x="1418" 
d="M407 1443l571.001 -0.000976562c66.667 0 127.667 -10 183 -30s103 -48.167 143 -84.5s71 -79.5 93 -129.5s33 -105 33 -165c0 -53.333 -8.33301 -104.666 -25 -153.999s-40.334 -94.833 -71.001 -136.5s-68.167 -78.5 -112.5 -110.5s-93.833 -57 -148.5 -75l198 -558
h-325l-172 523h-258l-112 -523h-304zM563.001 754.999l263.999 0.00195312c44 0 84.167 6.16699 120.5 18.5s67.5 29.666 93.5 51.999s46 48.833 60 79.5s21 64.667 21 102c0 61.333 -18.667 108.666 -56 141.999s-89.666 50 -156.999 50h-248zM542 1925h250l92 -191h18
l172 191h275l-328 -335h-291z" />
    <glyph glyph-name="rcaron" unicode="&#x159;" horiz-adv-x="875" 
d="M504 1251l-200 354h249l103 -209h18l194 209h277l-350 -354h-291zM298 1103l283.001 0.000976562l-31 -152h18c30 54.667 68.333 96.667 115 126s99.667 44 159 44c28 0 54.167 -2 78.5 -6s45.166 -10 62.499 -18l-57 -268c-22.667 9.33301 -49.667 16.666 -81 21.999
s-60.333 8 -87 8c-145.333 0 -236 -83.667 -272 -251l-131 -608h-292z" />
    </font>
</defs>
</svg>
