<?xml version="1.0" standalone="no"?>
<!DOCTYPE svg PUBLIC "-//W3C//DTD SVG 1.1//EN" "http://www.w3.org/Graphics/SVG/1.1/DTD/svg11.dtd" >
<svg>
<metadata>
Created by FontForge 20090914 at Wed Mar 16 04:22:50 2016
 By www-data
&#194;&#169; 2015 Apple Inc. All rights reserved.
</metadata>
<defs>
<font id=".HelveticaNeueDeskInterface-Italic" horiz-adv-x="0" >
  <font-face 
    font-family="SFNS Text"
    font-weight="400"
    font-style="italic"
    font-stretch="normal"
    units-per-em="2048"
    panose-1="0 0 5 0 0 0 0 0 0 0"
    ascent="1638"
    descent="-410"
    x-height="1078"
    cap-height="1443"
    bbox="-534 -573 2927 2173"
    underline-thickness="50"
    underline-position="-25"
    slope="-12"
    unicode-range="U+0020-U+FB02"
  />
<missing-glyph horiz-adv-x="1293" 
d="M350 1365h1053l-290 -1365h-1053zM519 303c0 -30 10.3311 -54.167 30.998 -72.5s47.334 -27.5 80.001 -27.5c34.667 0 62.834 9.5 84.501 28.5s32.5 43.833 32.5 74.5s-10.5 55.5 -31.5 74.5s-48.5 28.5 -82.5 28.5s-61.5 -9.66699 -82.5 -29s-31.5 -45 -31.5 -77z
M625.998 908c6 38 22.498 68.002 49.498 90.002s60.5 33 100.5 33c42 0 75.833 -10.167 101.5 -30.5s38.5 -47.166 38.5 -80.499c0 -12.667 -2 -24 -6 -34s-11.5 -20.333 -22.5 -31s-26.333 -22.334 -46 -35.001s-44.834 -28 -75.501 -46
c-31.333 -17.333 -57.5 -34 -78.5 -50s-38.5 -32.5 -52.5 -49.5s-24.833 -35.333 -32.5 -55s-13.167 -41.834 -16.5 -66.501l-6 -42h150l7 39c2.66699 14 6.33398 26.333 11.001 37s12.334 21.167 23.001 31.5s25.334 21.5 44.001 33.5s43.334 27 74.001 45
c33.333 18.667 62 37.167 86 55.5s43.667 36.833 59 55.5s26.5 38 33.5 58s10.5 41 10.5 63c0 35.333 -7 67.5 -21 96.5s-34 53.667 -60 74s-57.333 36.166 -94 47.499s-77.334 17 -122.001 17c-44 0 -84.167 -6 -120.5 -18s-67.833 -29 -94.5 -51s-48 -48.833 -64 -80.5
s-25.333 -67.167 -28 -106.5h152z" />
    <glyph glyph-name=".notdef" horiz-adv-x="1293" 
d="M350 1365h1053l-290 -1365h-1053zM519 303c0 -30 10.3311 -54.167 30.998 -72.5s47.334 -27.5 80.001 -27.5c34.667 0 62.834 9.5 84.501 28.5s32.5 43.833 32.5 74.5s-10.5 55.5 -31.5 74.5s-48.5 28.5 -82.5 28.5s-61.5 -9.66699 -82.5 -29s-31.5 -45 -31.5 -77z
M625.998 908c6 38 22.498 68.002 49.498 90.002s60.5 33 100.5 33c42 0 75.833 -10.167 101.5 -30.5s38.5 -47.166 38.5 -80.499c0 -12.667 -2 -24 -6 -34s-11.5 -20.333 -22.5 -31s-26.333 -22.334 -46 -35.001s-44.834 -28 -75.501 -46
c-31.333 -17.333 -57.5 -34 -78.5 -50s-38.5 -32.5 -52.5 -49.5s-24.833 -35.333 -32.5 -55s-13.167 -41.834 -16.5 -66.501l-6 -42h150l7 39c2.66699 14 6.33398 26.333 11.001 37s12.334 21.167 23.001 31.5s25.334 21.5 44.001 33.5s43.334 27 74.001 45
c33.333 18.667 62 37.167 86 55.5s43.667 36.833 59 55.5s26.5 38 33.5 58s10.5 41 10.5 63c0 35.333 -7 67.5 -21 96.5s-34 53.667 -60 74s-57.333 36.166 -94 47.499s-77.334 17 -122.001 17c-44 0 -84.167 -6 -120.5 -18s-67.833 -29 -94.5 -51s-48 -48.833 -64 -80.5
s-25.333 -67.167 -28 -106.5h152z" />
    <glyph glyph-name="space" unicode=" " horiz-adv-x="578" 
 />
    <glyph glyph-name="exclam" unicode="!" horiz-adv-x="636" 
d="M663 1444l-222 -964h-166l188 964h200zM284 -18c-20 0 -38.5 3.5 -55.5 10.5s-31.667 16.833 -44 29.5s-22 27.334 -29 44.001s-10.5 35 -10.5 55s3.5 38.5 10.5 55.5s16.667 31.833 29 44.5s27 22.5 44 29.5s35.5 10.5 55.5 10.5s38.5 -3.5 55.5 -10.5
s31.667 -16.833 44 -29.5s21.833 -27.5 28.5 -44.5s10 -35.5 10 -55.5s-3.33301 -38.333 -10 -55s-16.167 -31.334 -28.5 -44.001s-27 -22.5 -44 -29.5s-35.5 -10.5 -55.5 -10.5z" />
    <glyph glyph-name="quotedbl" unicode="&#x22;" horiz-adv-x="895" 
d="M311 904l115 539h160l-115 -539h-160zM688 904l115 539h160l-115 -539h-160z" />
    <glyph glyph-name="numbersign" unicode="#" horiz-adv-x="1296" 
d="M1115 901l-144 -344h212l-59 -144h-212l-172 -413h-152l173 413h-299l-172 -413h-151l172 413h-212l61 144h212l143 344h-212l59 143h212l167 399h151l-166 -399h298l167 399h152l-168 -399h212l-60 -143h-212zM520 554h301l145 349h-302z" />
    <glyph glyph-name="dollar" unicode="$" horiz-adv-x="1328" 
d="M703 129c48.667 0.666992 92.1641 7.50293 130.497 20.5029s70.833 30.667 97.5 53s46.834 49 60.501 80s20.5 64.5 20.5 100.5c0 28.667 -4.33301 54.667 -13 78s-21.667 44.666 -39 63.999s-38.666 37.166 -63.999 53.499s-54.666 32.166 -87.999 47.499zM819.997 1313
c-42.667 0 -81.666 -6.16895 -116.999 -18.502s-65.833 -29 -91.5 -50s-45.5 -46 -59.5 -75s-21 -59.833 -21 -92.5c0 -53.333 16.667 -96.666 50 -129.999s80.666 -63.666 141.999 -90.999zM862.998 796.001c53.333 -23.333 101.165 -48.1699 143.498 -74.5029
s78 -55.333 107 -87s51.167 -66.5 66.5 -104.5s23 -80 23 -126c0 -66.667 -13 -127 -39 -181s-62.167 -100 -108.5 -138s-101.333 -67.333 -165 -88s-132.834 -31 -207.501 -31h-15l-23 -108h-134l27 126c-51.333 12.667 -99.333 31.5 -144 56.5s-83.667 55.167 -117 90.5
s-60 74.833 -80 118.5s-31.333 90.5 -34 140.5h182c9.33301 -62.667 33.833 -114.834 73.5 -156.501s90.834 -71.167 153.501 -88.5l113 533l-51 21c-93.333 38.667 -165.5 88.5 -216.5 149.5s-76.5 133.5 -76.5 217.5c0 58.667 11.833 113 35.5 163s57.5 93.333 101.5 130
s97 65.334 159 86.001s131.333 31 208 31h10l26 124h134l-30 -142c48.667 -12.667 93.167 -31.667 133.5 -57s75 -55.166 104 -89.499s51.667 -72.166 68 -113.499s24.833 -84.666 25.5 -129.999h-181c-9.33301 57.333 -29.666 105 -60.999 143s-72.666 65.667 -123.999 83
l-104 -491z" />
    <glyph glyph-name="percent" unicode="%" horiz-adv-x="1610" 
d="M606 1339c-25.333 0 -49.168 -7.33301 -71.501 -22s-42 -34.5 -59 -59.5s-30.5 -54.167 -40.5 -87.5s-15 -68.333 -15 -105c0 -50 11 -90.167 33 -120.5s51.333 -45.5 88 -45.5c24.667 0 48.167 7.5 70.5 22.5s41.833 35.167 58.5 60.5s29.834 54.833 39.501 88.5
s14.5 69.167 14.5 106.5c0 50 -10.5 89.5 -31.5 118.5s-49.833 43.5 -86.5 43.5zM129.998 0l711 752l653 691h188l-723 -766l-639 -677h-190zM532.998 770c-40.667 0 -77.667 6.99902 -111 20.999s-61.833 34 -85.5 60s-42 57.167 -55 93.5s-19.5 76.833 -19.5 121.5
c0 55.333 9.16699 107.5 27.5 156.5s43.333 91.667 75 128s68.667 65 111 86s87.833 31.5 136.5 31.5c40 0 76.667 -7.16699 110 -21.5s61.833 -34.333 85.5 -60s42 -56.667 55 -93s19.5 -76.5 19.5 -120.5c0 -55.333 -9.16699 -107.5 -27.5 -156.5
s-43.333 -91.667 -75 -128s-68.667 -65.166 -111 -86.499s-87.5 -32 -135.5 -32zM1278 543.999c-25.333 0 -49.168 -7.33301 -71.501 -22s-42 -34.5 -59 -59.5s-30.5 -54.167 -40.5 -87.5s-15 -68.333 -15 -105c0 -50 11 -90.167 33 -120.5s51.333 -45.5 88 -45.5
c24.667 0 48.167 7.5 70.5 22.5s41.833 35.167 58.5 60.5s29.834 54.833 39.501 88.5s14.5 69.167 14.5 106.5c0 50 -10.5 89.5 -31.5 118.5s-49.833 43.5 -86.5 43.5zM1205 -25.001c-40.667 0 -77.667 6.99902 -111 20.999s-61.833 34 -85.5 60s-42 57.167 -55 93.5
s-19.5 76.833 -19.5 121.5c0 55.333 9.16699 107.5 27.5 156.5s43.333 91.667 75 128s68.667 65 111 86s87.833 31.5 136.5 31.5c40 0 76.667 -7.16699 110 -21.5s61.833 -34.333 85.5 -60s42 -56.667 55 -93s19.5 -76.5 19.5 -120.5
c0 -55.333 -9.16699 -107.5 -27.5 -156.5s-43.333 -91.667 -75 -128s-68.667 -65.166 -111 -86.499s-87.5 -32 -135.5 -32z" />
    <glyph glyph-name="ampersand" unicode="&#x26;" horiz-adv-x="1457" 
d="M605 1116c0 -32 8.16797 -66.002 24.501 -102.002s42.833 -79 79.5 -129c54 16 100 35.167 138 57.5s69 46.333 93 72s41.667 52.167 53 79.5s17 54 17 80c0 24.667 -4.5 46.834 -13.5 66.501s-21.667 36.334 -38 50.001s-35.833 24.167 -58.5 31.5
s-47.334 11 -74.001 11c-30 0 -58.5 -5.66699 -85.5 -17s-50.5 -26.833 -70.5 -46.5s-35.833 -42.667 -47.5 -69s-17.5 -54.5 -17.5 -84.5zM608.001 123.998c26.667 0 54.666 1.83105 83.999 5.49805s58.833 9.5 88.5 17.5s58.834 18.333 87.501 31s55.667 28.334 81 47.001
l-322 487l-57 -21c-91.333 -34 -160.5 -77 -207.5 -129s-70.5 -110 -70.5 -174c0 -37.333 7.33301 -72.166 22 -104.499s35.5 -60.333 62.5 -84s60 -42.167 99 -55.5s83.167 -20 132.5 -20zM1033 95.9961c-56.667 -39.333 -122.171 -69.6641 -196.504 -90.9971
s-153.166 -32 -236.499 -32c-67.333 0 -130.666 10.333 -189.999 31s-111 49 -155 85s-78.833 78.5 -104.5 127.5s-38.5 102.167 -38.5 159.5c0 94.667 30.833 178.167 92.5 250.5s155.834 133.166 282.501 182.499l62 24c-40.667 59.333 -70.167 111.833 -88.5 157.5
s-27.5 89.167 -27.5 130.5c0 48.667 10.167 94.667 30.5 138s48.333 81.166 84 113.499s77.834 57.833 126.501 76.5s101.667 28 159 28c50 0 96.333 -7.33301 139 -22s79.5 -34.834 110.5 -60.501s55.167 -56.167 72.5 -91.5s26 -73.666 26 -114.999
s-7.66699 -81.833 -23 -121.5s-39 -77.5 -71 -113.5s-72.833 -69.333 -122.5 -100s-109.167 -57.667 -178.5 -81l291 -427c38 43.333 68.833 94.666 92.5 153.999s38.5 129 44.5 209l4 54h168l-5 -61c-8.66699 -105.333 -31.667 -198.5 -69 -279.5s-85 -152.167 -143 -213.5
l139 -208h-213z" />
    <glyph glyph-name="quotesingle" unicode="'" horiz-adv-x="518" 
d="M311 904l115 539h160l-115 -539h-160z" />
    <glyph glyph-name="parenleft" unicode="(" horiz-adv-x="728" 
d="M305 -277c-16 35.333 -31 77.166 -45 125.499s-26 99.666 -36 153.999s-17.833 109.666 -23.5 165.999s-8.5 110.166 -8.5 161.499c0 103.333 10 206.166 30 308.499s49 201.333 87 297s84.5 186.5 139.5 272.5s117.833 164.333 188.5 235h192
c-74 -76.667 -139.833 -158.5 -197.5 -245.5s-106 -177.833 -145 -272.5s-68.667 -192.167 -89 -292.5s-30.5 -202.166 -30.5 -305.499c0 -55.333 1.83301 -108.666 5.5 -159.999s9.16699 -101.666 16.5 -150.999s16.833 -98.166 28.5 -146.499s25.5 -97.166 41.5 -146.499
h-154z" />
    <glyph glyph-name="parenright" unicode=")" horiz-adv-x="728" 
d="M550 1443c16 -35.333 31 -77.1631 45 -125.496s26 -99.666 36 -153.999s17.833 -109.833 23.5 -166.5s8.5 -110.334 8.5 -161.001c0 -103.333 -9.83301 -206.166 -29.5 -308.499s-48.5 -201.333 -86.5 -297s-84.5 -186.5 -139.5 -272.5s-117.833 -164.333 -188.5 -235
h-192c74 76.667 139.667 158.5 197 245.5s105.5 177.833 144.5 272.5s68.667 192.167 89 292.5s30.5 202.166 30.5 305.499c0 55.333 -1.83301 108.666 -5.5 159.999s-9.16699 101.666 -16.5 150.999s-16.833 98.166 -28.5 146.499s-25.5 97.166 -41.5 146.499h154z" />
    <glyph glyph-name="asterisk" unicode="*" horiz-adv-x="1032" 
d="M709 920l-52 -323l-144 12l85 322l-309 -154l-46 135l319 121l-257 171l101 122l233 -202l53 325l144 -12l-85 -323l309 154l45 -134l-318 -121l256 -171l-100 -123z" />
    <glyph glyph-name="plus" unicode="+" horiz-adv-x="1328" 
d="M695 71h-152l93 435h-433l33 148h431l92 435h152l-92 -435h433l-33 -148h-431z" />
    <glyph glyph-name="comma" unicode="," horiz-adv-x="628" 
d="M50 -367l217 569h202l-269 -569h-150z" />
    <glyph glyph-name="hyphen" unicode="-" horiz-adv-x="966" 
d="M201 499l35 163h656l-35 -163h-656z" />
    <glyph glyph-name="period" unicode="." horiz-adv-x="608" 
d="M244 -10c-18 0 -34.833 3.5 -50.5 10.5s-29.334 16.333 -41.001 28s-21 25.334 -28 41.001s-10.5 32.5 -10.5 50.5s3.5 34.833 10.5 50.5s16.333 29.5 28 41.5s25.334 21.333 41.001 28s32.5 10 50.5 10s34.833 -3.33301 50.5 -10s29.5 -16 41.5 -28
s21.333 -25.833 28 -41.5s10 -32.5 10 -50.5s-3.33301 -34.833 -10 -50.5s-16 -29.334 -28 -41.001s-25.833 -21 -41.5 -28s-32.5 -10.5 -50.5 -10.5z" />
    <glyph glyph-name="slash" unicode="/" horiz-adv-x="712" 
d="M-69 -325l816 1768h154l-818 -1768h-152z" />
    <glyph glyph-name="zero" unicode="0" horiz-adv-x="1290" 
d="M633 -34c-66 0 -125.5 12.334 -178.5 37.001s-98.167 59.5 -135.5 104.5s-66 99.333 -86 163s-30 134.167 -30 211.5c0 94.667 7.83301 185 23.5 271s38 165.833 67 239.5s63.5 140.334 103.5 200.001s84.333 110.5 133 152.5s100.834 74.5 156.501 97.5
s113.5 34.5 173.5 34.5c65.333 0 124.333 -12.5 177 -37.5s97.667 -60.333 135 -106s66 -100.334 86 -164.001s30 -134.5 30 -212.5c0 -95.333 -7.83301 -186 -23.5 -272s-37.667 -165.667 -66 -239s-62.5 -139.5 -102.5 -198.5s-84.333 -109.333 -133 -151
s-100.834 -73.834 -156.501 -96.501s-113.5 -34 -173.5 -34zM383 485.001c0 -56 5.83496 -106.334 17.502 -151.001s28.834 -82.5 51.501 -113.5s50.167 -54.833 82.5 -71.5s69.5 -25 111.5 -25c41.333 0 81.666 10 120.999 30s76 48.167 110 84.5s65.167 79.833 93.5 130.5
s52.666 106.834 72.999 168.501s36.166 127.834 47.499 198.501s17 144 17 220c0 56 -5.83301 106.333 -17.5 151s-28.667 82.667 -51 114s-49.5 55.333 -81.5 72s-68.333 25 -109 25c-42 0 -82.667 -10 -122 -30s-76.166 -48.333 -110.499 -85s-65.833 -80.5 -94.5 -131.5
s-53.334 -107.333 -74.001 -169s-36.667 -127.834 -48 -198.501s-17 -143.667 -17 -219z" />
    <glyph glyph-name="one" unicode="1" horiz-adv-x="955" 
d="M706 1223h-16l-423 -262l44 206l443 276h179l-307 -1443h-180z" />
    <glyph glyph-name="two" unicode="2" horiz-adv-x="1237" 
d="M308 1067c6.66699 60.667 24 116.167 52 166.5s63.833 93.5 107.5 129.5s94.167 64 151.5 84s119.333 30 186 30c61.333 0 118.5 -9.33301 171.5 -28s98.833 -44.334 137.5 -77.001s69 -71.334 91 -116.001s33 -93 33 -145c0 -40.667 -6.16699 -79.667 -18.5 -117
s-34 -77.166 -65 -119.499s-72.5 -89.5 -124.5 -141.5s-117.667 -112.667 -197 -182l-426 -373l-4 -16h702l-34 -162h-970l29 139l615 545c64 56.667 116 104.5 156 143.5s71.167 73.333 93.5 103s37.666 56.834 45.999 81.501s12.5 51 12.5 79c0 32.667 -6.5 63 -19.5 91
s-31.167 52.333 -54.5 73s-50.833 36.667 -82.5 48s-66.5 17 -104.5 17c-39.333 0 -76.166 -6 -110.499 -18s-65 -29 -92 -51s-49.5 -48.667 -67.5 -80s-30.333 -66 -37 -104v-1h-38c-14.667 0 -30 0.166992 -46 0.5s-32 0.5 -48 0.5h-45z" />
    <glyph glyph-name="three" unicode="3" horiz-adv-x="1284" 
d="M574 819l209.003 -0.00195312c43.333 0 83.833 7.33301 121.5 22s70.5 34.834 98.5 60.501s50 55.834 66 90.501s24 72 24 112c0 32 -6.5 61.167 -19.5 87.5s-31.333 49 -55 68s-52 33.667 -85 44s-69.5 15.5 -109.5 15.5c-34.667 0 -68.334 -5.5 -101.001 -16.5
s-62.5 -26.333 -89.5 -46s-50.333 -43.167 -70 -70.5s-34.5 -57.333 -44.5 -90h-177c12 57.333 33 109.333 63 156s66.667 86.667 110 120s92.666 59.166 147.999 77.499s114.333 27.5 177 27.5c63.333 0 121.833 -9 175.5 -27s100.167 -42.667 139.5 -74
s70 -68.666 92 -111.999s33 -90.333 33 -141c0 -48 -7.83301 -92.833 -23.5 -134.5s-38 -78.834 -67 -111.501s-63.667 -60.334 -104 -83.001s-85.5 -39 -135.5 -49l-3 -16c79.333 -17.333 140.333 -50.833 183 -100.5s64 -112.834 64 -189.501
c0 -69.333 -13.333 -133 -40 -191s-64 -107.833 -112 -149.5s-105.5 -74.167 -172.5 -97.5s-140.5 -35 -220.5 -35c-68 0 -131.667 10 -191 30s-110.666 47.333 -153.999 82s-77.666 75.5 -102.999 122.5s-38 97.5 -38 151.5c0 4.66699 0.166992 9.83398 0.5 15.501
s0.833008 11.167 1.5 16.5h174v-8c0 -37.333 7.83301 -71.5 23.5 -102.5s37.667 -57.667 66 -80s62.166 -39.666 101.499 -51.999s82.666 -18.5 129.999 -18.5c53.333 0 101.5 7.16699 144.5 21.5s79.667 34.833 110 61.5s53.666 58.834 69.999 96.501
s24.5 80.167 24.5 127.5c0 34.667 -7.66699 66.5 -23 95.5s-36.833 53.833 -64.5 74.5s-60.5 36.667 -98.5 48s-79.667 17 -125 17h-156z" />
    <glyph glyph-name="four" unicode="4" horiz-adv-x="1318" 
d="M824 299h-703l27 171l155 193.5l194 233.5l224.5 263l247.5 283h274l-209 -983h205l-34 -161h-205l-64 -299h-176zM339 459h520l173 817h-12l-154.5 -175.5l-169.5 -198l-177 -213l-178 -218.5z" />
    <glyph glyph-name="five" unicode="5" horiz-adv-x="1267" 
d="M653 -34c-67.333 0 -130.171 10.168 -188.504 30.501s-108.833 48 -151.5 83s-76.167 76.333 -100.5 124s-36.5 99.167 -36.5 154.5c0 4.66699 0.166992 9.66699 0.5 15s0.833008 9.66602 1.5 12.999h178v-7c0 -38 7.33301 -72.5 22 -103.5s35.334 -57.833 62.001 -80.5
s58.667 -40.167 96 -52.5s78.333 -18.5 123 -18.5c53.333 0 101.833 9.5 145.5 28.5s81 45.333 112 79s55 73.834 72 120.501s25.5 97.667 25.5 153c0 44 -7.5 83.667 -22.5 119s-35.5 65.166 -61.5 89.499s-56.667 43 -92 56s-73.666 19.5 -114.999 19.5
c-61.333 0 -116.833 -11.5 -166.5 -34.5s-91.5 -54.5 -125.5 -94.5h-178l244 783h796l-35 -161h-646l-133 -437l16 -2c38 33.333 79.833 57.833 125.5 73.5s94.834 23.5 147.501 23.5c59.333 0 115.166 -10.167 167.499 -30.5s98 -48.833 137 -85.5
s69.833 -80.334 92.5 -131.001s34 -106 34 -166c0 -81.333 -12.667 -156.166 -38 -224.499s-61.666 -127.5 -108.999 -177.5s-104.666 -89 -171.999 -117s-143 -42 -227 -42z" />
    <glyph glyph-name="six" unicode="6" horiz-adv-x="1305" 
d="M1236 537c0 -80.667 -14.3311 -155.671 -42.998 -225.004s-68.334 -129.666 -119.001 -180.999s-110.167 -91.666 -178.5 -120.999s-142.166 -44 -221.499 -44c-72.667 0 -138.334 12.333 -197.001 37s-108.667 59.667 -150 105s-73.166 100.5 -95.499 165.5
s-33.5 137.5 -33.5 217.5c0 121.333 14.833 239.333 44.5 354s71.5 218.667 125.5 312c60.667 104 135 183.333 223 238s185.333 82 292 82c63.333 0 122.166 -9.83301 176.499 -29.5s101.666 -47.167 141.999 -82.5s72.5 -77.333 96.5 -126s37.333 -102 40 -160h-186
c-3.33301 36 -12.5 68.667 -27.5 98s-34.833 54.333 -59.5 75s-53.834 36.667 -87.501 48s-70.5 17 -110.5 17c-111.333 0 -206.5 -47.667 -285.5 -143s-137.833 -233.666 -176.5 -414.999l16 -2c46 61.333 102.333 108.5 169 141.5s138.334 49.5 215.001 49.5
c62.667 0 120.5 -10 173.5 -30s98.5 -48.167 136.5 -84.5s67.667 -79.666 89 -129.999s32 -105.833 32 -166.5zM762.002 793.996c-52 0 -101.001 -9.83496 -147.001 -29.502s-86 -46.5 -120 -80.5s-60.833 -74.167 -80.5 -120.5s-29.5 -95.833 -29.5 -148.5
c0 -43.333 7.16699 -82.666 21.5 -117.999s34.666 -65.666 60.999 -90.999s58 -45 95 -59s78.167 -21 123.5 -21c50.667 0 98.167 10.167 142.5 30.5s82.833 48 115.5 83s58.334 76.167 77.001 123.5s28 98.333 28 153c0 41.333 -7 79 -21 113s-33.667 63.333 -59 88
s-55.666 43.667 -90.999 57s-74 20 -116 20z" />
    <glyph glyph-name="seven" unicode="7" horiz-adv-x="1167" 
d="M1067 1266l3 16h-737l35 161h925l-36 -167l-913 -1276h-197z" />
    <glyph glyph-name="eight" unicode="8" horiz-adv-x="1308" 
d="M1206 429c0 -67.333 -13.667 -129.333 -41 -186s-65.5 -105.5 -114.5 -146.5s-107.167 -73 -174.5 -96s-141 -34.5 -221 -34.5c-74 0 -142.167 9.33301 -204.5 28s-116 44.834 -161 78.501s-80 73.834 -105 120.501s-37.5 98 -37.5 154c0 55.333 9.66699 107.5 29 156.5
s46.333 92.5 81 130.5s75.5 69 122.5 93s98.5 38.667 154.5 44l4 16c-57.333 28 -101.833 65.667 -133.5 113s-47.5 99.666 -47.5 156.999c0 60.667 12.5 116.667 37.5 168s59.5 95.666 103.5 132.999s96 66.5 156 87.5s125.333 31.5 196 31.5
c62.667 0 121.167 -8.83301 175.5 -26.5s101.5 -42.167 141.5 -73.5s71.5 -68.166 94.5 -110.499s34.5 -88.166 34.5 -137.499c0 -47.333 -7.66699 -91.833 -23 -133.5s-36.833 -78.834 -64.5 -111.501s-61 -60.334 -100 -83.001s-82.5 -38.667 -130.5 -48l-4 -16
c72.667 -28 129.5 -69 170.5 -123s61.5 -115.667 61.5 -185zM695 680c-52 0 -99.998 -7.66602 -143.998 -22.999s-82 -36.833 -114 -64.5s-57 -60.334 -75 -98.001s-27 -78.834 -27 -123.501c0 -38.667 7.66699 -73.5 23 -104.5s37.166 -57.167 65.499 -78.5
s62.666 -37.833 102.999 -49.5s85.833 -17.5 136.5 -17.5c52 0 100 7.5 144 22.5s82 36 114 63s57 59.333 75 97s27 78.834 27 123.501c0 38 -8 72.5 -24 103.5s-38.333 57.5 -67 79.5s-63.167 39.167 -103.5 51.5s-84.833 18.5 -133.5 18.5zM533.002 1045
c0 -32 6.66602 -61.333 19.999 -88s32 -49.5 56 -68.5s52.833 -33.833 86.5 -44.5s70.834 -16 111.501 -16c44 0 84.833 7 122.5 21s70 33.333 97 58s48.167 54.167 63.5 88.5s23 71.5 23 111.5c0 32.667 -6.66699 62.167 -20 88.5s-32 48.833 -56 67.5
s-52.833 33.167 -86.5 43.5s-71.167 15.5 -112.5 15.5c-44.667 0 -85.667 -6.66699 -123 -20s-69.5 -32.333 -96.5 -57s-48 -54 -63 -88s-22.5 -71.333 -22.5 -112z" />
    <glyph glyph-name="nine" unicode="9" horiz-adv-x="1306" 
d="M730 649c52 0 101.001 9.83301 147.001 29.5s86 46.834 120 81.501s60.833 75 80.5 121s29.5 95.667 29.5 149c0 43.333 -7.16699 82.666 -21.5 117.999s-34.666 65.5 -60.999 90.5s-58 44.333 -95 58s-78.167 20.5 -123.5 20.5c-50.667 0 -98.167 -10 -142.5 -30
s-82.833 -47.5 -115.5 -82.5s-58.334 -76 -77.001 -123s-28 -97.833 -28 -152.5c0 -41.333 7 -79.166 21 -113.499s33.667 -63.833 59 -88.5s55.666 -43.834 90.999 -57.501s74 -20.5 116 -20.5zM256.001 908c0 80.667 14.3311 155.666 42.998 224.999
s68.334 129.5 119.001 180.5s110.167 91 178.5 120s142.166 43.5 221.499 43.5c72.667 0 138.334 -12.167 197.001 -36.5s108.667 -59.166 150 -104.499s73.166 -100.333 95.499 -165s33.5 -137 33.5 -217c0 -121.333 -14.833 -240 -44.5 -356s-71.5 -220.667 -125.5 -314
c-60.667 -104 -135 -183 -223 -237s-185.333 -81 -292 -81c-63.333 0 -122.166 9.66699 -176.499 29s-101.666 46.5 -141.999 81.5s-72.5 76.833 -96.5 125.5s-37.333 102 -40 160h186c3.33301 -36 12.5 -68.667 27.5 -98s34.833 -54.166 59.5 -74.499
s53.834 -36 87.501 -47s70.5 -16.5 110.5 -16.5c111.333 0 206.5 47.667 285.5 143s137.833 233.666 176.5 414.999l-16 2c-46 -61.333 -102.333 -108.5 -169 -141.5s-138.334 -49.5 -215.001 -49.5c-63.333 0 -121.333 10.167 -174 30.5s-98 48.666 -136 84.999
s-67.667 79.833 -89 130.5s-32 106.334 -32 167.001z" />
    <glyph glyph-name="colon" unicode=":" horiz-adv-x="608" 
d="M244 -10c-18 0 -34.833 3.5 -50.5 10.5s-29.334 16.333 -41.001 28s-21 25.334 -28 41.001s-10.5 32.5 -10.5 50.5s3.5 34.833 10.5 50.5s16.333 29.5 28 41.5s25.334 21.333 41.001 28s32.5 10 50.5 10s34.833 -3.33301 50.5 -10s29.5 -16 41.5 -28
s21.333 -25.833 28 -41.5s10 -32.5 10 -50.5s-3.33301 -34.833 -10 -50.5s-16 -29.334 -28 -41.001s-25.833 -21 -41.5 -28s-32.5 -10.5 -50.5 -10.5zM405 759c-18 0 -34.833 3.5 -50.5 10.5s-29.334 16.333 -41.001 28s-21 25.334 -28 41.001s-10.5 32.5 -10.5 50.5
s3.5 34.833 10.5 50.5s16.333 29.5 28 41.5s25.334 21.333 41.001 28s32.5 10 50.5 10s34.833 -3.33301 50.5 -10s29.5 -16 41.5 -28s21.333 -25.833 28 -41.5s10 -32.5 10 -50.5s-3.33301 -34.833 -10 -50.5s-16 -29.334 -28 -41.001s-25.833 -21 -41.5 -28
s-32.5 -10.5 -50.5 -10.5z" />
    <glyph glyph-name="semicolon" unicode=";" horiz-adv-x="608" 
d="M-24 -367l217 569h202l-269 -569h-150zM405 759c-18 0 -34.833 3.5 -50.5 10.5s-29.334 16.333 -41.001 28s-21 25.334 -28 41.001s-10.5 32.5 -10.5 50.5s3.5 34.833 10.5 50.5s16.333 29.5 28 41.5s25.334 21.333 41.001 28s32.5 10 50.5 10s34.833 -3.33301 50.5 -10
s29.5 -16 41.5 -28s21.333 -25.833 28 -41.5s10 -32.5 10 -50.5s-3.33301 -34.833 -10 -50.5s-16 -29.334 -28 -41.001s-25.833 -21 -41.5 -28s-32.5 -10.5 -50.5 -10.5z" />
    <glyph glyph-name="less" unicode="&#x3c;" horiz-adv-x="1328" 
d="M1047 -21l-771 585l30 142l988 433l-40 -188l-790 -327l-3 -16l625 -445z" />
    <glyph glyph-name="equal" unicode="=" horiz-adv-x="1329" 
d="M167 312l32 149h1008l-32 -149h-1008zM249 700l32 149h1008l-32 -149h-1008z" />
    <glyph glyph-name="greater" unicode="&#x3e;" horiz-adv-x="1328" 
d="M399 1139l771 -585l-30 -142l-988 -433l40 188l790 327l3 16l-625 445z" />
    <glyph glyph-name="question" unicode="?" horiz-adv-x="1050" 
d="M247 1089c10.667 54.667 28.6689 104.666 54.002 149.999s57.5 84 96.5 116s84.667 56.833 137 74.5s110.833 26.5 175.5 26.5c62 0 118.5 -8.83301 169.5 -26.5s94.667 -41.5 131 -71.5s64.333 -65 84 -105s29.5 -82.333 29.5 -127c0 -44 -7.33301 -85.833 -22 -125.5
s-34.834 -76.667 -60.501 -111s-56.167 -65.166 -91.5 -92.499s-74 -50.333 -116 -69c-36 -16 -66.5 -31.667 -91.5 -47s-45.667 -31.5 -62 -48.5s-29.333 -35.833 -39 -56.5s-16.834 -44 -21.501 -70l-11 -60h-179l18 82c9.33301 42.667 21.166 79.334 35.499 110.001
s32.333 57.667 54 81s47.167 44.166 76.5 62.499s63.333 36.166 102 53.499c75.333 35.333 130.333 74.833 165 118.5s52 94.834 52 153.501c0 24.667 -5 48.667 -15 72s-24.833 43.833 -44.5 61.5s-44.167 31.834 -73.5 42.501s-63.333 16 -102 16
c-68.667 0 -127.167 -18.333 -175.5 -55s-82.166 -88.334 -101.499 -155.001h-174zM456.002 -18.001c-20 0 -38.5 3.5 -55.5 10.5s-31.667 16.667 -44 29s-22 27 -29 44s-10.5 35.5 -10.5 55.5c0 20.667 3.5 39.5 10.5 56.5s16.667 31.667 29 44s27 22 44 29
s35.5 10.5 55.5 10.5s38.5 -3.5 55.5 -10.5s31.667 -16.667 44 -29s21.833 -27 28.5 -44s10 -35.833 10 -56.5c0 -20 -3.33301 -38.5 -10 -55.5s-16.167 -31.667 -28.5 -44s-27 -22 -44 -29s-35.5 -10.5 -55.5 -10.5z" />
    <glyph glyph-name="at" unicode="@" horiz-adv-x="1880" 
d="M1174 1438c106 0 204.496 -16.6719 295.496 -50.0049s170 -79.166 237 -137.499s119.5 -127.166 157.5 -206.499s57 -165.333 57 -258s-12.167 -179 -36.5 -259s-57.5 -149.667 -99.5 -209s-91.5 -106 -148.5 -140s-118.5 -51 -184.5 -51
c-31.333 0 -60.166 4.33301 -86.499 13s-49.166 20.667 -68.499 36s-34.5 33.5 -45.5 54.5s-16.5 43.833 -16.5 68.5c0 2.66699 0.166992 5.33398 0.5 8.00098s0.5 5.33398 0.5 8.00098l-16 1c-25.333 -44.667 -59 -78.834 -101 -102.501s-89.667 -35.5 -143 -35.5
c-47.333 0 -90.166 7.83301 -128.499 23.5s-71.166 37.834 -98.499 66.501s-48.333 63.334 -63 104.001s-22 86 -22 136c0 72 10.5 139 31.5 201s50 115.833 87 161.5s80.333 81.667 130 108s103.5 39.5 161.5 39.5c29.333 0 57.5 -4.16699 84.5 -12.5
s51.5 -19.833 73.5 -34.5s40.5 -32 55.5 -52s25.167 -41.333 30.5 -64h16l26 124h157l-131 -603c-1.33301 -8 -2.33301 -14.333 -3 -19s-1 -8.66699 -1 -12c0 -60.667 35.667 -91 107 -91c38 0 74.667 14.667 110 44s66.833 68.333 94.5 117s49.667 104.667 66 168
s24.5 128.666 24.5 195.999c0 76.667 -15.667 147.667 -47 213s-74.666 121.666 -129.999 168.999s-121.166 84.333 -197.499 111s-159.833 40 -250.5 40c-72 0 -141.333 -9.66699 -208 -29s-128.834 -46.5 -186.501 -81.5s-110.167 -77 -157.5 -126
s-87.833 -103.667 -121.5 -164s-59.667 -125.166 -78 -194.499s-27.5 -141.666 -27.5 -216.999c0 -92 17 -175.833 51 -251.5s81.833 -140.5 143.5 -194.5s135.834 -95.833 222.501 -125.5s182.667 -44.5 288 -44.5c45.333 0 86.666 2.16699 123.999 6.5
s67.666 10.5 90.999 18.5l-27 -126c-34.667 -8 -72 -14.167 -112 -18.5s-81 -6.5 -123 -6.5c-116 0 -222.667 18 -320 54s-181.333 86 -252 150s-125.667 140.333 -165 229s-59 185.667 -59 291c0 92 10.5 179.5 31.5 262.5s51.167 159.833 90.5 230.5
s86.833 134.5 142.5 191.5s118 105.667 187 146s144 71.333 225 93s166.167 32.5 255.5 32.5zM1283 658.995c0 32.667 -4.66406 62.502 -13.9971 89.502s-22.5 50 -39.5 69s-37.5 33.833 -61.5 44.5s-50.667 16 -80 16c-36.667 0 -70.834 -9.33301 -102.501 -28
s-59.334 -44 -83.001 -76s-42.334 -69.667 -56.001 -113s-20.5 -90 -20.5 -140c0 -62.667 16.667 -112.334 50 -149.001s78.333 -55 135 -55c37.333 0 72.5 9 105.5 27s61.833 42.5 86.5 73.5s44.167 67.167 58.5 108.5s21.5 85.666 21.5 132.999z" />
    <glyph glyph-name="A" unicode="A" horiz-adv-x="1380" 
d="M1015 413h-579l-232 -413h-193l845 1443h167l226 -1443h-176zM522 566h473l-95 641h-16z" />
    <glyph glyph-name="B" unicode="B" horiz-adv-x="1346" 
d="M123 0l306.997 1443h501c61.333 0 117 -7.5 167 -22.5s92.667 -36.333 128 -64s62.666 -61.167 81.999 -100.5s29 -83 29 -131c0 -45.333 -7.33301 -88.166 -22 -128.499s-35.667 -76.5 -63 -108.5s-60.166 -59.333 -98.499 -82s-81.166 -39 -128.499 -49l-4 -16
c38.667 -6.66699 73.334 -18.167 104.001 -34.5s56.834 -36.666 78.501 -60.999s38.167 -52.333 49.5 -84s17 -66.167 17 -103.5c0 -66.667 -13.833 -128 -41.5 -184s-66.167 -104.333 -115.5 -145s-108 -72.334 -176 -95.001s-142.667 -34 -224 -34h-590zM480.997 820.999
h297.997c54.667 0 104.834 6.5 150.501 19.5s84.834 31.167 117.501 54.5s58 51.5 76 84.5s27 69.167 27 108.5c0 66.667 -23.667 116 -71 148s-119.666 48 -216.999 48h-283zM706.994 158.999c52.667 0 101.833 7.16699 147.5 21.5s85 34.166 118 59.499s59 55.333 78 90
s28.5 72.334 28.5 113.001c0 148.667 -98.667 223 -296 223h-335l-108 -507h367z" />
    <glyph glyph-name="C" unicode="C" horiz-adv-x="1463" 
d="M1324 994c-4 48 -15.6709 91.5029 -35.0039 130.503s-45.333 72.333 -78 100s-71.167 48.834 -115.5 63.501s-93.5 22 -147.5 22c-78.667 0 -152.167 -18.833 -220.5 -56.5s-127.666 -89.667 -177.999 -156s-89.833 -144.333 -118.5 -234s-43 -186.5 -43 -290.5
c0 -68 9.16699 -129.167 27.5 -183.5s44.5 -100.5 78.5 -138.5s75.333 -67.167 124 -87.5s103 -30.5 163 -30.5c48.667 0 95 5.83301 139 17.5s83.833 28.334 119.5 50.001s66.334 47.667 92.001 78s45.167 64.166 58.5 101.499h190c-18 -64 -45.667 -121.667 -83 -173
s-82.666 -94.833 -135.999 -130.5s-113.833 -63 -181.5 -82s-140.5 -28.5 -218.5 -28.5c-84 0 -160.5 14 -229.5 42s-128 67.667 -177 119s-86.833 113.166 -113.5 185.499s-40 152.833 -40 241.5s8.66699 173 26 253s42 154.167 74 222.5s70.833 130.166 116.5 185.499
s96.667 102.333 153 141s117.5 68.5 183.5 89.5s135.333 31.5 208 31.5c78 0 150.333 -12 217 -36s124.334 -57.333 173.001 -100s86.667 -93.334 114 -152.001s41 -122.334 41 -191.001v-6h-183v2z" />
    <glyph glyph-name="D" unicode="D" horiz-adv-x="1486" 
d="M833 1443c100.667 0 190 -14.501 268 -43.501s143.667 -70.667 197 -125s94 -120.5 122 -198.5s42 -166 42 -264c0 -77.333 -8.66699 -151.166 -26 -221.499s-42 -135.5 -74 -195.5s-70.5 -114.333 -115.5 -163s-95.167 -90.167 -150.5 -124.5s-115 -60.833 -179 -79.5
s-131 -28 -201 -28h-591l305 1443h403zM341 159.999l382.002 0.000976562c79.333 0 152.666 16.167 219.999 48.5s125.666 77.166 174.999 134.499s88 125.333 116 204s42 164 42 256c0 75.333 -10.333 142.833 -31 202.5s-50.5 110 -89.5 151s-86.833 72.333 -143.5 94
s-121 32.5 -193 32.5h-239z" />
    <glyph glyph-name="E" unicode="E" horiz-adv-x="1219" 
d="M1019 0h-896l307 1443h896l-35 -162h-711l-100 -463h675l-34 -160h-674l-106 -496h712z" />
    <glyph glyph-name="F" unicode="F" horiz-adv-x="1170" 
d="M123 0l307 1443h878l-35 -162h-693l-107 -496h637l-34 -160h-637l-131 -625h-185z" />
    <glyph glyph-name="G" unicode="G" horiz-adv-x="1525" 
d="M1449 540c-40 -187.333 -117.501 -329.834 -232.501 -427.501s-261.833 -146.5 -440.5 -146.5c-86 0 -164.167 14.333 -234.5 43s-130.666 69 -180.999 121s-89.333 114.667 -117 188s-41.5 154.666 -41.5 243.999c0 88 8.66699 171.833 26 251.5s42 153.334 74 221.001
s70.667 128.834 116 183.501s96.166 101.167 152.499 139.5s117.5 67.833 183.5 88.5s135.667 31 209 31c74.667 0 144.167 -11 208.5 -33s120.5 -52.833 168.5 -92.5s86.667 -87 116 -142s46.333 -115.5 51 -181.5c0.666992 -4 1 -8.16699 1 -12.5v-23.5h-183
c-3.33301 48.667 -14.666 92.5 -33.999 131.5s-45.333 72.333 -78 100s-71.334 49 -116.001 64s-94 22.5 -148 22.5c-52.667 0 -103.167 -8.5 -151.5 -25.5s-93.166 -41 -134.499 -72s-78.833 -68.333 -112.5 -112s-62.5 -92.5 -86.5 -146.5s-42.5 -112.5 -55.5 -175.5
s-19.5 -128.833 -19.5 -197.5c0 -69.333 9.5 -131.666 28.5 -186.999s46.333 -102.333 82 -141s79 -68.334 130 -89.001s108.5 -31 172.5 -31c57.333 0 111.333 9.33301 162 28s96.167 45 136.5 79s74.333 75 102 123s47.5 101.333 59.5 160l11 55h-400l34 158h584z" />
    <glyph glyph-name="H" unicode="H" horiz-adv-x="1522" 
d="M1094 0l140 657h-788l-140 -657h-183l307 1443h184l-133 -624h788l133 624h184l-307 -1443h-185z" />
    <glyph glyph-name="I" unicode="I" horiz-adv-x="550" 
d="M123 0l307 1443h184l-307 -1443h-184z" />
    <glyph glyph-name="J" unicode="J" horiz-adv-x="1102" 
d="M277 337c0.666992 -31.333 6.33496 -59.501 17.002 -84.501s25.667 -46.167 45 -63.5s42.5 -30.666 69.5 -39.999s57.5 -14 91.5 -14c138.667 0 227 89.667 265 269l221 1039h179l-228 -1080c-26.667 -126 -78.834 -223.667 -156.501 -293s-178.5 -104 -302.5 -104
c-58 0 -111.167 9.5 -159.5 28.5s-89.5 45 -123.5 78s-59.833 72.167 -77.5 117.5s-24.834 94.333 -21.501 147h181z" />
    <glyph glyph-name="K" unicode="K" horiz-adv-x="1349" 
d="M123 0l307 1443h179l-149 -701h16l772 701h235l-702 -635l449 -808h-210l-381 697l-229 -204l-107 -493h-180z" />
    <glyph glyph-name="L" unicode="L" horiz-adv-x="1164" 
d="M1001 0h-878l307 1443h184l-273 -1281h694z" />
    <glyph glyph-name="M" unicode="M" horiz-adv-x="1792" 
d="M123 0l307 1443h200l242 -1194h16l746 1194h222l-307 -1443h-172l234 1102h-12l-685 -1092h-152l-221 1092h-12l-234 -1102h-172z" />
    <glyph glyph-name="N" unicode="N" horiz-adv-x="1520" 
d="M123 0l307 1443h177l534 -1153h16l245 1153h182l-307 -1443h-179l-533 1150h-16l-244 -1150h-182z" />
    <glyph glyph-name="O" unicode="O" horiz-adv-x="1579" 
d="M787 -34c-84.667 0 -162.833 14.998 -234.5 44.998s-133.5 71.5 -185.5 124.5s-92.667 116 -122 189s-44 152.5 -44 238.5c0 87.333 8.83301 170.666 26.5 249.999s43 152.833 76 220.5s72.833 128.834 119.5 183.501s99 101.334 157 140.001
s120.833 68.334 188.5 89.001s138.834 31 213.501 31c84 0 161.667 -15 233 -45s132.833 -71.5 184.5 -124.5s92 -116 121 -189s43.5 -152.5 43.5 -238.5c0 -88 -8.83301 -171.833 -26.5 -251.5s-42.834 -153.334 -75.501 -221.001s-72.167 -128.667 -118.5 -183
s-98.166 -100.666 -155.499 -138.999s-119.833 -67.833 -187.5 -88.5s-138.834 -31 -213.501 -31zM1374 863.998c0 66 -9.83008 126.501 -29.4971 181.501s-47.334 102 -83.001 141s-78.334 69.333 -128.001 91s-104.834 32.5 -165.501 32.5
c-82 0 -158.333 -18.5 -229 -55.5s-131.667 -88.333 -183 -154s-91.666 -143 -120.999 -232s-44 -185.5 -44 -289.5c0 -66.667 9.83301 -127.334 29.5 -182.001s47.5 -101.5 83.5 -140.5s79.167 -69.333 129.5 -91s106.166 -32.5 167.499 -32.5
c82.667 0 159 18.167 229 54.5s130.5 87 181.5 152s90.833 142.167 119.5 231.5s43 187 43 293z" />
    <glyph glyph-name="P" unicode="P" horiz-adv-x="1304" 
d="M937 1443c57.333 0 111.168 -9.16797 161.501 -27.501s94.166 -44.333 131.499 -78s66.833 -74.5 88.5 -122.5s32.5 -102 32.5 -162c0 -84 -14.833 -159.333 -44.5 -226s-70.5 -123.167 -122.5 -169.5s-113 -81.666 -183 -105.999s-145 -36.5 -225 -36.5h-360l-109 -515
h-184l307 1443h507zM450.002 674.999l315 -0.000976562c59.333 0 113.5 8 162.5 24s91 39.333 126 70s62 68.5 81 113.5s28.5 96.5 28.5 154.5c0 38.667 -6.83301 73.334 -20.5 104.001s-33 56.5 -58 77.5s-55.333 37 -91 48s-75.5 16.5 -119.5 16.5h-294z" />
    <glyph glyph-name="Q" unicode="Q" horiz-adv-x="1579" 
d="M1105 -163l-85.0049 163.999c-38 -12.667 -76.333 -21.667 -115 -27s-78 -8 -118 -8c-84 0 -161.833 15 -233.5 45s-133.667 71.5 -186 124.5s-93.166 116 -122.499 189s-44 152.5 -44 238.5c0 87.333 8.83301 170.666 26.5 249.999s43 152.833 76 220.5
s73 128.834 120 183.501s99.333 101.334 157 140.001s120.334 68.334 188.001 89.001s138.834 31 213.501 31c84 0 161.5 -14.833 232.5 -44.5s132.5 -71 184.5 -124s92.5 -116 121.5 -189s43.5 -152.833 43.5 -239.5c0 -88 -8.83301 -172.167 -26.5 -252.5
s-43.167 -155 -76.5 -224s-74.166 -131.333 -122.499 -187s-103.166 -102.834 -164.499 -141.501l123 -238h-192zM800.995 132.999c24 0 47.6689 1.33105 71.002 3.99805s46.666 7.33398 69.999 14.001l-136 262h194l96 -186c44 31.333 83.167 69.333 117.5 114
s63.333 94.167 87 148.5s41.834 113.166 54.501 176.499s19 129.333 19 198c0 66.667 -9.83301 127.334 -29.5 182.001s-47.334 101.5 -83.001 140.5s-78.5 69.333 -128.5 91s-105 32.5 -165 32.5c-82 0 -158.167 -18.5 -228.5 -55.5s-131.333 -88.167 -183 -153.5
s-92.167 -142.666 -121.5 -231.999s-44 -186 -44 -290c0 -66.667 9.83301 -127.5 29.5 -182.5s47.5 -102 83.5 -141s79.167 -69.167 129.5 -90.5s106.166 -32 167.499 -32z" />
    <glyph glyph-name="R" unicode="R" horiz-adv-x="1338" 
d="M430 1443h499.002c65.333 0 124.5 -9 177.5 -27s98.333 -43.667 136 -77s66.667 -73.5 87 -120.5s30.5 -99.5 30.5 -157.5c0 -56 -9.16699 -109 -27.5 -159s-44.333 -95 -78 -135s-74.334 -74.5 -122.001 -103.5s-100.834 -50.5 -159.501 -64.5l207 -599h-196l-188 571
h-368l-121 -571h-184zM462.002 731h347.997c52.667 0 101.167 7.66699 145.5 23s82.333 36.833 114 64.5s56.334 60.667 74.001 99s26.5 80.5 26.5 126.5c0 36.667 -5.66699 69.667 -17 99s-27.666 54.333 -48.999 75s-47.166 36.667 -77.499 48s-64.5 17 -102.5 17h-344z
" />
    <glyph glyph-name="S" unicode="S" horiz-adv-x="1276" 
d="M301 400c8.66699 -41.333 23.8311 -78.8311 45.498 -112.498s48.667 -62.167 81 -85.5s69.333 -41.333 111 -54s86.834 -19 135.501 -19c50 0 95.5 6.16699 136.5 18.5s76.167 29.666 105.5 51.999s52 49.333 68 81s24 66.5 24 104.5c0 59.333 -20.667 109.333 -62 150
s-108.333 77.334 -201 110.001l-137 48c-98.667 34.667 -175.167 84.167 -229.5 148.5s-81.5 138.166 -81.5 221.499c0 59.333 12.833 114.166 38.5 164.499s61.334 94 107.001 131s99.5 66 161.5 87s129.333 31.5 202 31.5c68.667 0 132.5 -10.333 191.5 -31
s111 -49.5 156 -86.5s81.333 -81.333 109 -133s44.167 -108.167 49.5 -169.5h-181c-18.667 81.333 -57.334 144.5 -116.001 189.5s-132 67.5 -220 67.5c-44.667 0 -85.834 -5.83301 -123.501 -17.5s-70.167 -28 -97.5 -49s-48.666 -45.833 -63.999 -74.5s-23 -60 -23 -94
c0 -51.333 18.833 -96 56.5 -134s96.167 -71.333 175.5 -100l130 -47c118.667 -43.333 206.667 -96.833 264 -160.5s86 -140.167 86 -229.5c0 -65.333 -13.167 -125 -39.5 -179s-63.333 -100.5 -111 -139.5s-104.667 -69.333 -171 -91s-139.166 -32.5 -218.499 -32.5
c-74 0 -142 10 -204 30s-116.167 48.667 -162.5 86s-84.333 82.833 -114 136.5s-49.5 114.167 -59.5 181.5h182z" />
    <glyph glyph-name="T" unicode="T" horiz-adv-x="1291" 
d="M494 0l272 1281h-463l34 162h1110l-34 -162h-463l-272 -1281h-184z" />
    <glyph glyph-name="U" unicode="U" horiz-adv-x="1524" 
d="M736 -34c-82 0 -154.165 11.667 -216.498 35s-114.5 55.166 -156.5 95.499s-74 87.666 -96 141.999s-33.333 112.833 -34 175.5c-0.666992 21.333 0.166016 42.833 2.49902 64.5s5.83301 43.5 10.5 65.5l188 899h184l-186 -887c-5.33301 -23.333 -9 -46.166 -11 -68.499
s-2.66699 -43.833 -2 -64.5c2 -44 10.5 -84 25.5 -120s36.833 -66.667 65.5 -92s64.5 -44.833 107.5 -58.5s93.167 -20.5 150.5 -20.5c53.333 0 103.5 8.16699 150.5 24.5s89.167 39.833 126.5 70.5s69 68.334 95 113.001s45 95 57 151l203 952h184l-210 -987
c-16.667 -77.333 -42.334 -146.333 -77.001 -207s-78.5 -112 -131.5 -154s-115.333 -74 -187 -96s-152.5 -33 -242.5 -33z" />
    <glyph glyph-name="V" unicode="V" horiz-adv-x="1380" 
d="M542 0l-226 1443h170l186 -1204h16l671 1204h199l-838 -1443h-178z" />
    <glyph glyph-name="W" unicode="W" horiz-adv-x="1982" 
d="M601 0h-177l-87 1443h165l58 -1173h12l572 1173h162l94 -1173h12l541 1173h186l-692 -1443h-177l-97 1139h-12z" />
    <glyph glyph-name="X" unicode="X" horiz-adv-x="1390" 
d="M686 752l-323 691h206l249 -574h16l508 574h205l-649 -727l332 -716h-194l-268 586h-16l-517 -586h-204z" />
    <glyph glyph-name="Y" unicode="Y" horiz-adv-x="1344" 
d="M521 0l132 621l-336 822h187l268 -649h16l526 649h207l-692 -848l-124 -595h-184z" />
    <glyph glyph-name="Z" unicode="Z" horiz-adv-x="1355" 
d="M111 128l1048 1137l4 16h-779l34 162h1022l-27 -128l-1045 -1137l-3 -16h820l-34 -162h-1067z" />
    <glyph glyph-name="bracketleft" unicode="[" horiz-adv-x="758" 
d="M893 1444l-29 -136h-284l-300 -1413h296l-29 -135h-464l358 1684h452z" />
    <glyph glyph-name="backslash" unicode="\" horiz-adv-x="712" 
d="M311 1443h144l64 -1768h-142z" />
    <glyph glyph-name="bracketright" unicode="]" horiz-adv-x="758" 
d="M453 -240h-452l29 136h284l300 1413h-296l29 134h464z" />
    <glyph glyph-name="asciicircum" unicode="^" horiz-adv-x="828" 
d="M337 815h-169l396 609h184l138 -609h-161l-88 463h-16z" />
    <glyph glyph-name="underscore" unicode="_" horiz-adv-x="916" 
d="M-120 -235l27 128h936l-27 -128h-936z" />
    <glyph glyph-name="grave" unicode="`" horiz-adv-x="1094" 
d="M800 1263l-206 338h214l180 -338h-188z" />
    <glyph glyph-name="a" unicode="a" horiz-adv-x="1126" 
d="M490 130c40.667 0 79.1699 6.33301 115.503 19s69.166 30.167 98.499 52.5s54.166 49 74.499 80s34.5 64.833 42.5 101.5l27 124l-287 -14c-88.667 -4.66699 -157.167 -24.167 -205.5 -58.5s-72.5 -79.833 -72.5 -136.5c0 -24.667 5 -47.167 15 -67.5
s24.167 -38 42.5 -53s40.166 -26.667 65.499 -35s53.333 -12.5 84 -12.5zM436.003 -19c-47.333 0 -91 7.66699 -131 23s-74.833 36.333 -104.5 63s-52.834 58.167 -69.501 94.5s-25 75.5 -25 117.5c0 52.667 10.167 100.167 30.5 142.5s50.333 78.5 90 108.5
s88.334 53.667 146.001 71s123.834 27.666 198.501 30.999l306 14l16 73c2 11.333 3.5 20.666 4.5 27.999s1.5 15 1.5 23c0 54.667 -20.333 97.167 -61 127.5s-97.334 45.5 -170.001 45.5c-60.667 0 -111.334 -11.5 -152.001 -34.5s-69.667 -56.5 -87 -100.5h-182
c12 44.667 31.167 84.834 57.5 120.501s58.333 66 96 91s80.334 44.167 128.001 57.5s98.834 20 153.501 20c59.333 0 113.166 -7.16699 161.499 -21.5s89.5 -34.666 123.5 -60.999s60.333 -58 79 -95s28 -78.5 28 -124.5c0 -28.667 -3 -58 -9 -88l-150 -707h-167l30 141
h-16c-38 -50 -85.333 -89.167 -142 -117.5s-118 -42.5 -184 -42.5z" />
    <glyph glyph-name="b" unicode="b" horiz-adv-x="1259" 
d="M666 -19c-37.333 0 -73.667 5.33301 -109 16s-67.666 25.667 -96.999 45s-54.833 42.333 -76.5 69s-37.834 56 -48.501 88h-16l-44 -199h-165l320 1506h172l-120 -575h16c40.667 54.667 89.334 96 146.001 124s120.667 42 192 42c54 0 104.333 -10.5 151 -31.5
s87.167 -50 121.5 -87s61.166 -81 80.499 -132s29 -106.5 29 -166.5c0 -98.667 -14.167 -190.5 -42.5 -275.5s-67.333 -158.833 -117 -221.5s-108 -112 -175 -148s-139.5 -54 -217.5 -54zM652.999 136c54.667 0 105.501 13.1699 152.501 39.5029s87.833 62.5 122.5 108.5
s61.667 100.667 81 164s29 132 29 206c0 91.333 -22.667 162.166 -68 212.499s-109 75.5 -191 75.5c-56 0 -108.167 -13.167 -156.5 -39.5s-90.333 -62.333 -126 -108s-63.667 -99.334 -84 -161.001s-30.5 -128.167 -30.5 -199.5c0 -46 6.33301 -87.333 19 -124
s30.667 -67.834 54 -93.501s51.666 -45.5 84.999 -59.5s71 -21 113 -21z" />
    <glyph glyph-name="c" unicode="c" horiz-adv-x="1135" 
d="M967 748c-2.66699 28 -11.166 53.834 -25.499 77.501s-32.833 44.167 -55.5 61.5s-49 30.833 -79 40.5s-62 14.5 -96 14.5c-53.333 0 -102.833 -12.333 -148.5 -37s-85.167 -58.5 -118.5 -101.5s-59.5 -93.833 -78.5 -152.5s-28.5 -122 -28.5 -190
c0 -50 6.33301 -95 19 -135s30.667 -74 54 -102s51.666 -49.333 84.999 -64s70.666 -22 111.999 -22c66.667 0 124 14.833 172 44.5s82.333 71.5 103 125.5h179c-11.333 -49.333 -31 -94 -59 -134s-62.5 -74.333 -103.5 -103s-87.5 -50.834 -139.5 -66.501
s-107.667 -23.5 -167 -23.5c-65.333 0 -124.833 10.833 -178.5 32.5s-99.5 52.5 -137.5 92.5s-67.5 88 -88.5 144s-31.5 118.667 -31.5 188c0 94.667 14.167 182.167 42.5 262.5s67.833 149.833 118.5 208.5s110.834 104.667 180.501 138s145.5 50 227.5 50
c53.333 0 103.333 -7.5 150 -22.5s88 -35.833 124 -62.5s66.167 -58.5 90.5 -95.5s40.5 -77.5 48.5 -121.5c1.33301 -7.33301 2.33301 -15 3 -23l2 -24h-176z" />
    <glyph glyph-name="d" unicode="d" horiz-adv-x="1265" 
d="M545 -19c-54 0 -104.665 10.166 -151.998 30.499s-88.833 49.5 -124.5 87.5s-63.834 84 -84.501 138s-31 114.333 -31 181c0 64.667 6.5 126.5 19.5 185.5s31.5 113.667 55.5 164s52.833 95.833 86.5 136.5s71 75.334 112 104.001s85.333 50.667 133 66s97.5 23 149.5 23
c38.667 0 75.5 -5.33301 110.5 -16s66.667 -25.5 95 -44.5s52.666 -42 72.999 -69s35.166 -56.5 44.499 -88.5h16l133 627h175l-320 -1506h-166l31 147h-16c-39.333 -51.333 -88.666 -91.833 -147.999 -121.5s-123.333 -44.5 -192 -44.5zM600.002 135.999
c56 0 107.831 13.165 155.498 39.498s89.167 62.333 124.5 108s63 99.334 83 161.001s30 128.167 30 199.5c0 46 -6.33301 87.333 -19 124s-30.667 67.834 -54 93.501s-51.666 45.5 -84.999 59.5s-71 21 -113 21c-55.333 0 -106.666 -12.333 -153.999 -37
s-88.333 -59 -123 -103s-62 -96.5 -82 -157.5s-30 -127.833 -30 -200.5c0 -45.333 6.5 -87 19.5 -125s31.167 -70.5 54.5 -97.5s51.333 -48 84 -63s69 -22.5 109 -22.5z" />
    <glyph glyph-name="e" unicode="e" horiz-adv-x="1176" 
d="M595 -19c-60 0 -116.666 9.83301 -169.999 29.5s-99.833 48.667 -139.5 87s-71 85.5 -94 141.5s-34.5 120.333 -34.5 193c0 99.333 13.833 189.833 41.5 271.5s66.167 151.667 115.5 210s108.5 103.5 177.5 135.5s144.5 48 226.5 48c55.333 0 107.833 -9.66699 157.5 -29
s93.167 -47.5 130.5 -84.5s67 -82.5 89 -136.5s33 -116 33 -186c0 -10.667 -0.333008 -23.167 -1 -37.5s-1.66699 -29 -3 -44l-4 -44c-1.33301 -14.333 -3 -26.5 -5 -36.5h-777c-0.666992 -9.33301 -1.16699 -18.333 -1.5 -27s-0.5 -17.667 -0.5 -27
c0 -55.333 8 -102.5 24 -141.5s36.833 -70.833 62.5 -95.5s54.5 -42.5 86.5 -53.5s64.333 -16.5 97 -16.5c71.333 0 128.666 12.333 171.999 37s76.333 58 99 100h183c-11.333 -41.333 -30 -80 -56 -116s-58.833 -67.167 -98.5 -93.5s-85.667 -47 -138 -62
s-109.833 -22.5 -172.5 -22.5zM946.001 638c0.666992 3.33301 1.16797 9.5 1.50098 18.5s0.5 17.833 0.5 26.5c0 35.333 -5.16699 68.833 -15.5 100.5s-25.833 59.5 -46.5 83.5s-46.334 43 -77.001 57s-66.334 21 -107.001 21c-41.333 0 -80 -7.33301 -116 -22
s-68.667 -35.5 -98 -62.5s-54.666 -59.333 -75.999 -97s-38.333 -79.5 -51 -125.5h585z" />
    <glyph glyph-name="f" unicode="f" horiz-adv-x="741" 
d="M368 934l-179 0.000976562l30 144h179l20 105c10.667 55.333 26 102.666 46 141.999s45.167 71.666 75.5 96.999s66.5 44 108.5 56s90.333 18 145 18c25.333 0 46.666 -0.833008 63.999 -2.5s36.333 -4.16699 57 -7.5l-29 -144
c-11.333 2.66699 -26.5 4.83398 -45.5 6.50098s-40.167 2.5 -63.5 2.5c-50 0 -90.167 -13.667 -120.5 -41s-51.166 -71.333 -62.499 -132l-19 -100h245l-30 -144h-245l-194 -934h-176z" />
    <glyph glyph-name="g" unicode="g" horiz-adv-x="1247" 
d="M503 -413c-62.667 0 -120.004 8.3291 -172.004 24.9961s-97.167 39 -135.5 67s-68.666 60.5 -90.999 97.5s-35.166 76.167 -38.499 117.5h183c4 -21.333 12.667 -41.666 26 -60.999s31.333 -36.166 54 -50.499s49.834 -25.666 81.501 -33.999s67.167 -12.5 106.5 -12.5
c48 0 90.667 6 128 18s69.5 28.667 96.5 50s49.167 46.833 66.5 76.5s30 62.167 38 97.5l47 200h-16c-39.333 -54.667 -86.333 -95.334 -141 -122.001s-116.334 -40 -185.001 -40c-54.667 0 -105.834 10.333 -153.501 31s-89.167 50 -124.5 88s-63.166 83.5 -83.499 136.5
s-30.5 111.5 -30.5 175.5c0 96 13.667 183.833 41 263.5s65 148.167 113 205.5s104.667 101.833 170 133.5s136 47.5 212 47.5c38 0 74.833 -5.33301 110.5 -16s68.5 -25.667 98.5 -45s56.167 -42.333 78.5 -69s38.833 -56 49.5 -88h16l42 199h167l-244 -1130
c-12 -55.333 -32.167 -105.166 -60.5 -149.499s-64.166 -82.166 -107.499 -113.499s-93.666 -55.5 -150.999 -72.5s-121 -25.5 -191 -25.5zM603.996 167.996c54 0 104.331 11.5 150.998 34.5s87 55.333 121 97s60.667 91.667 80 150s29 123.166 29 194.499
c0 46 -6.5 87.333 -19.5 124s-31.5 67.834 -55.5 93.501s-53.167 45.5 -87.5 59.5s-72.5 21 -114.5 21c-53.333 0 -102.666 -11 -147.999 -33s-84.333 -53.333 -117 -94s-58.167 -90 -76.5 -148s-27.5 -122.667 -27.5 -194c0 -48 6.16699 -90.833 18.5 -128.5
s30 -69.667 53 -96s50.833 -46.333 83.5 -60s69.334 -20.5 110.001 -20.5z" />
    <glyph glyph-name="h" unicode="h" horiz-adv-x="1236" 
d="M432 1506l175.002 -0.00390625l-127 -589h16c16.667 24 35.667 46.833 57 68.5s45.5 40.834 72.5 57.501s57.333 29.834 91 39.501s71.167 14.5 112.5 14.5c52.667 0 100.334 -8.83301 143.001 -26.5s79 -41.5 109 -71.5s53.167 -64.5 69.5 -103.5
s24.5 -79.833 24.5 -122.5c0 -37.333 -4.66699 -78.666 -14 -123.999l-138 -649h-175l132 619c4 19.333 7.16699 37.833 9.5 55.5s3.5 34.167 3.5 49.5c0 32.667 -5.33301 62.334 -16 89.001s-26.334 49.5 -47.001 68.5s-45.667 33.833 -75 44.5s-62.333 16 -99 16
c-42.667 0 -82.167 -7.16699 -118.5 -21.5s-68.833 -34.166 -97.5 -59.499s-52.834 -55.333 -72.501 -90s-33.834 -72.334 -42.501 -113.001l-140 -658h-175z" />
    <glyph glyph-name="i" unicode="i" horiz-adv-x="516" 
d="M341 1078h176l-231 -1078h-176zM499 1297c-16.667 0 -32.167 3.16699 -46.5 9.5s-27 15 -38 26s-19.667 23.667 -26 38s-9.5 29.833 -9.5 46.5s3.16699 32.167 9.5 46.5s15 27 26 38s23.667 19.667 38 26s29.833 9.5 46.5 9.5s32.167 -3.16699 46.5 -9.5s27 -15 38 -26
s19.667 -23.667 26 -38s9.5 -29.833 9.5 -46.5s-3.16699 -32.167 -9.5 -46.5s-15 -27 -26 -38s-23.667 -19.667 -38 -26s-29.833 -9.5 -46.5 -9.5z" />
    <glyph glyph-name="j" unicode="j" horiz-adv-x="516" 
d="M262 -107c-10.667 -50.667 -25.6689 -94.334 -45.002 -131.001s-43.166 -66.834 -71.499 -90.501s-61.5 -41.167 -99.5 -52.5s-81 -17 -129 -17c-8 0 -20 0.333008 -36 1s-31 1.66699 -45 3l33 152c10.667 -1.33301 19.834 -2.16602 27.501 -2.49902
s16.167 -0.5 25.5 -0.5c25.333 0 47.333 2.83301 66 8.5s35 14.834 49 27.501s25.667 29.167 35 49.5s17 45.5 23 75.5l247 1162h172zM498.998 1297c-16.667 0 -32.167 3.16699 -46.5 9.5s-27 15 -38 26s-19.667 23.667 -26 38s-9.5 29.833 -9.5 46.5
s3.16699 32.167 9.5 46.5s15 27 26 38s23.667 19.667 38 26s29.833 9.5 46.5 9.5s32.167 -3.16699 46.5 -9.5s27 -15 38 -26s19.667 -23.667 26 -38s9.5 -29.833 9.5 -46.5s-3.16699 -32.167 -9.5 -46.5s-15 -27 -26 -38s-23.667 -19.667 -38 -26s-29.833 -9.5 -46.5 -9.5z
" />
    <glyph glyph-name="k" unicode="k" horiz-adv-x="1086" 
d="M981 1078h227l-565 -465l363 -613h-201l-301 516l-130 -94l-90 -422h-174l320 1506h174l-185 -870h16z" />
    <glyph glyph-name="l" unicode="l" horiz-adv-x="516" 
d="M430 1506h176l-320 -1506h-176z" />
    <glyph glyph-name="m" unicode="m" horiz-adv-x="1782" 
d="M329 1078l167.008 -0.00195312l-35 -166h16c14.667 26.667 32.667 51.167 54 73.5s45 41.833 71 58.5s53.833 29.667 83.5 39s59.5 14 89.5 14c39.333 0 75.166 -5.66699 107.499 -17s60.666 -26.166 84.999 -44.499s44.333 -39.333 60 -63s26.5 -47.834 32.5 -72.501h16
c16 26 35.333 50.833 58 74.5s48.5 44.667 77.5 63s61 32.833 96 43.5s73.167 16 114.5 16c44 0 84.5 -7.33301 121.5 -22s69.167 -35 96.5 -61s48.666 -57 63.999 -93s23 -75.333 23 -118c0 -37.333 -4.66699 -78.666 -14 -123.999l-144 -679h-175l138 649
c4 19.333 7.16699 37.833 9.5 55.5s3.5 34.167 3.5 49.5c0 26 -4.33301 50.333 -13 73s-21.167 42.5 -37.5 59.5s-36.333 30.5 -60 40.5s-50.834 15 -81.501 15c-32 0 -63.333 -6 -94 -18s-58.834 -29.5 -84.501 -52.5s-48 -51 -67 -84s-32.833 -70.167 -41.5 -111.5
l-144 -676h-175l138 649c4 19.333 7.16699 37.833 9.5 55.5s3.5 34.167 3.5 49.5c0 26 -4.33301 50.333 -13 73s-21.167 42.5 -37.5 59.5s-36.333 30.5 -60 40.5s-50.834 15 -81.501 15c-32 0 -63.333 -6 -94 -18s-58.834 -29.167 -84.501 -51.5
s-47.834 -49.166 -66.501 -80.499s-32 -66 -40 -104l-146 -688h-175z" />
    <glyph glyph-name="n" unicode="n" horiz-adv-x="1218" 
d="M329 1078l167.001 -0.00390625l-34 -161h16c16.667 24 36 46.833 58 68.5s47 40.834 75 57.501s59 29.834 93 39.501s71 14.5 111 14.5c52 0 99 -8.83301 141 -26.5s77.833 -41.5 107.5 -71.5s52.667 -64.5 69 -103.5s24.5 -79.833 24.5 -122.5
c0 -37.333 -4.66699 -78.666 -14 -123.999l-138 -649h-175l132 619c4 19.333 7.16699 37.833 9.5 55.5s3.5 34.167 3.5 49.5c0 32.667 -5.33301 62.334 -16 89.001s-26.167 49.5 -46.5 68.5s-44.833 33.833 -73.5 44.5s-61 16 -97 16c-41.333 0 -80 -7.16699 -116 -21.5
s-68.167 -34.166 -96.5 -59.499s-52.333 -55.333 -72 -90s-33.834 -72.334 -42.501 -113.001l-140 -658h-175z" />
    <glyph glyph-name="o" unicode="o" horiz-adv-x="1212" 
d="M338 448c0 -44.667 6.33301 -86 19 -124s31 -71 55 -99s53.333 -49.833 88 -65.5s74 -23.5 118 -23.5c46.667 0 92 11.667 136 35s82.833 56 116.5 98s60.667 92.167 81 150.5s30.5 122.5 30.5 192.5c0 51.333 -6.16699 97.5 -18.5 138.5s-30.333 75.667 -54 104
s-52.167 50 -85.5 65s-71 22.5 -113 22.5c-58 0 -110 -12.5 -156 -37.5s-85.167 -59.5 -117.5 -103.5s-57 -96.167 -74 -156.5s-25.5 -125.833 -25.5 -196.5zM596 -19c-66 0 -126.003 10.999 -180.003 32.999s-100.333 52.667 -139 92s-68.667 86.333 -90 141
s-32 114.667 -32 180c0 90.667 13 176.667 39 258s63.5 152.5 112.5 213.5s108.833 109.333 179.5 145s151 53.5 241 53.5c66 0 126 -11 180 -33s100.167 -52.667 138.5 -92s68 -86.166 89 -140.499s31.5 -113.833 31.5 -178.5c0 -58 -5.66699 -115 -17 -171
s-28.166 -108.833 -50.499 -158.5s-49.666 -95.5 -81.999 -137.5s-69.666 -78.167 -111.999 -108.5s-89.333 -54 -141 -71s-107.5 -25.5 -167.5 -25.5z" />
    <glyph glyph-name="p" unicode="p" horiz-adv-x="1254" 
d="M648 136c54.667 0 105.501 13.1699 152.501 39.5029s87.833 62.5 122.5 108.5s61.667 100.667 81 164s29 132 29 206c0 91.333 -22.667 162.166 -68 212.499s-109 75.5 -191 75.5c-56 0 -108.167 -13.167 -156.5 -39.5s-90.333 -62.333 -126 -108
s-63.667 -99.334 -84 -161.001s-30.5 -128.167 -30.5 -199.5c0 -46 6.33301 -87.333 19 -124s30.667 -67.834 54 -93.501s51.666 -45.5 84.999 -59.5s71 -21 113 -21zM28.001 -359.997l305.998 1438h166l-31 -147h16c19.333 25.333 41.833 48.333 67.5 69
s53.167 38.167 82.5 52.5s60.5 25.333 93.5 33s66.5 11.5 100.5 11.5c54 0 104.5 -10.5 151.5 -31.5s87.667 -50 122 -87s61.333 -81 81 -132s29.5 -106.5 29.5 -166.5c0 -98.667 -14.167 -190.5 -42.5 -275.5s-67.333 -158.833 -117 -221.5s-108 -112 -175 -148
s-139.5 -54 -217.5 -54c-39.333 0 -76.333 5.33301 -111 16s-66.167 25.5 -94.5 44.5s-52.666 42 -72.999 69s-35.166 56.5 -44.499 88.5h-16l-121 -559h-173z" />
    <glyph glyph-name="q" unicode="q" horiz-adv-x="1251" 
d="M591 136c56 0 108.167 13.1641 156.5 39.4971s90.333 62.333 126 108s63.667 99.334 84 161.001s30.5 128.167 30.5 199.5c0 46 -6.33301 87.333 -19 124s-30.667 67.834 -54 93.501s-51.666 45.5 -84.999 59.5s-71 21 -113 21c-55.333 0 -106.333 -12.667 -153 -38
s-87.334 -60.5 -122.001 -105.5s-61.667 -98.167 -81 -159.5s-29 -127.666 -29 -198.999c0 -96.667 22.667 -171.5 68 -224.5s109 -79.5 191 -79.5zM782 -360.003l106.001 507h-16c-40.667 -54.667 -89.334 -96 -146.001 -124s-120.667 -42 -192 -42
c-54 0 -104.333 10.833 -151 32.5s-87.167 51.667 -121.5 90s-61.166 84 -80.499 137s-29 110.833 -29 173.5c0 96 14.167 185.5 42.5 268.5s67.333 155.333 117 217s108 110 175 145s139.5 52.5 217.5 52.5c37.333 0 73.666 -5.33301 108.999 -16
s67.666 -25.667 96.999 -45s54.833 -42.333 76.5 -69s37.834 -56 48.501 -88h16l42 199h167l-306 -1438h-172z" />
    <glyph glyph-name="r" unicode="r" horiz-adv-x="791" 
d="M321 1078l166.003 0.00195312l-29 -137h16c36 54 77.333 93.5 124 118.5s101.667 37.5 165 37.5c12 0 24.167 -0.333008 36.5 -1s24.333 -1.83398 36 -3.50098s22.167 -3.33398 31.5 -5.00098s16.666 -3.5 21.999 -5.5l-37 -165c-8 2 -17.833 3.66699 -29.5 5l-36.5 4
c-12.667 1.33301 -25.334 2.33301 -38.001 3s-23.334 1 -32.001 1c-86.667 0 -155.5 -23.667 -206.5 -71s-87.167 -121.333 -108.5 -222l-135 -637h-174z" />
    <glyph glyph-name="s" unicode="s" horiz-adv-x="1052" 
d="M275 289c6.66699 -24 17.334 -45.8301 32.001 -65.4971s32.667 -36.834 54 -51.501s46 -26 74 -34s59 -12 93 -12c36.667 0 70.167 4.16699 100.5 12.5s56.5 20 78.5 35s39.167 32.667 51.5 53s18.5 42.833 18.5 67.5c0 32 -10 60.333 -30 85s-55 45 -105 61l-165 53
c-84 27.333 -146.667 63.166 -188 107.499s-62 102.5 -62 174.5c0 48 10.167 91.833 30.5 131.5s48.5 73.5 84.5 101.5s78.667 49.833 128 65.5s103 23.5 161 23.5c57.333 0 109.333 -7 156 -21s87.167 -34 121.5 -60s62.333 -57.167 84 -93.5s36.167 -76.5 43.5 -120.5
h-171c-11.333 46.667 -37.833 83.167 -79.5 109.5s-94.167 39.5 -157.5 39.5c-33.333 0 -63.833 -4 -91.5 -12s-51.667 -19 -72 -33s-36.166 -30.833 -47.499 -50.5s-17 -41.167 -17 -64.5c0 -33.333 12.833 -62 38.5 -86s63.167 -44 112.5 -60l146 -47
c45.333 -14.667 84.166 -31.167 116.499 -49.5s59 -39.333 80 -63s36.333 -50.334 46 -80.001s14.5 -62.5 14.5 -98.5c0 -47.333 -10.833 -90.833 -32.5 -130.5s-51.834 -74 -90.501 -103s-84.5 -51.667 -137.5 -68s-110.833 -24.5 -173.5 -24.5
c-59.333 0 -113.833 7.5 -163.5 22.5s-93 36 -130 63s-66.667 59.333 -89 97s-35.5 79.5 -39.5 125.5h177z" />
    <glyph glyph-name="t" unicode="t" horiz-adv-x="744" 
d="M484 -8c-37.333 0 -71.835 4.5 -103.502 13.5s-59 22.5 -82 40.5s-40.833 40.667 -53.5 68s-19 59.333 -19 96c0 26.667 3.66699 57.667 11 93l135 631h-181l30 144h182l55 269h175l-57 -269h250l-30 -144h-250l-123 -578c-8 -38 -12 -70.333 -12 -97
c0 -41.333 11.833 -71 35.5 -89s57.167 -27 100.5 -27c15.333 0 27.833 0.333008 37.5 1s20.167 1.66699 31.5 3l-31 -145c-17.333 -3.33301 -34.166 -5.83301 -50.499 -7.5s-33.166 -2.5 -50.499 -2.5z" />
    <glyph glyph-name="u" unicode="u" horiz-adv-x="1215" 
d="M997 0h-166.001l33 146h-16c-15.333 -23.333 -34.166 -45 -56.499 -65s-48 -37.5 -77 -52.5s-61.167 -26.667 -96.5 -35s-73.333 -12.5 -114 -12.5c-49.333 0 -94.333 8 -135 24s-75.5 38 -104.5 66s-51.667 61 -68 99s-24.5 79.333 -24.5 124c0 8 0.333008 17.667 1 29
s1.66699 23.5 3 36.5s3 25.833 5 38.5s4 24.667 6 36l135 644h175l-131 -619c-2 -10 -3.83301 -20.667 -5.5 -32s-3.16699 -22.5 -4.5 -33.5s-2.33301 -21.5 -3 -31.5s-1 -18 -1 -24c0 -69.333 18.833 -120.333 56.5 -153s91.834 -49 162.501 -49
c43.333 0 83.833 7.33301 121.5 22s71.5 35 101.5 61s55.167 57 75.5 93s35.166 75.333 44.499 118l138 648h174z" />
    <glyph glyph-name="v" unicode="v" horiz-adv-x="1110" 
d="M411 1078l126 -856h16l468 856h191l-622 -1078h-183l-169 1078h173z" />
    <glyph glyph-name="w" unicode="w" horiz-adv-x="1586" 
d="M1155 0h-175l-70 827h-16l-411 -827h-174l-72 1078h157l49 -853h16l411 853h175l57 -862h16l396 862h173z" />
    <glyph glyph-name="x" unicode="x" horiz-adv-x="1076" 
d="M562 405l-339 -405h-205l484 548l-258 530h188l179 -401h16l337 401h205l-481 -539l256 -539h-181l-185 405h-16z" />
    <glyph glyph-name="y" unicode="y" horiz-adv-x="1112" 
d="M158 -392c-24.667 0 -47.167 1.49805 -67.5 4.49805l-50.5 7.5l26 147c10.667 -3.33301 24.667 -6.33301 42 -9s37.333 -4 60 -4c18 0 35.333 3 52 9s33.167 16 49.5 30s33 32.5 50 55.5s34.833 51.833 53.5 86.5l39 73l-175 1070h171l128 -857h16l472 857h189
l-686 -1196c-31.333 -55.333 -61.333 -100.666 -90 -135.999s-57.5 -63.166 -86.5 -83.499s-59.167 -34.5 -90.5 -42.5s-65.333 -12 -102 -12z" />
    <glyph glyph-name="z" unicode="z" horiz-adv-x="1104" 
d="M104 126l764 792l3 16h-594l32 144h826l-29 -129l-758 -789l-3 -16h593l-31 -144h-830z" />
    <glyph glyph-name="braceleft" unicode="{" horiz-adv-x="823" 
d="M333 606c40.667 -9.33301 73.833 -27.0059 99.5 -53.0059s38.5 -60.667 38.5 -104c0 -12.667 -0.833008 -26 -2.5 -40s-4.16699 -28.667 -7.5 -44l-71 -334c-3.33301 -15.333 -5.83301 -29.666 -7.5 -42.999s-2.5 -25.666 -2.5 -36.999
c0 -50.667 15.5 -88.167 46.5 -112.5s80.5 -36.5 148.5 -36.5h45l-29 -136h-48c-51.333 0 -97.5 5.83301 -138.5 17.5s-76 28.334 -105 50.001s-51.167 47.334 -66.5 77.001s-23 62.5 -23 98.5c0 34.667 4.33301 71.334 13 110.001l61 289c8 36.667 12 68.334 12 95.001
c0 42.667 -11.5 72.667 -34.5 90s-59.833 26 -110.5 26l41 191c33.333 0 62 3.66699 86 11s44.833 19.333 62.5 36s32.334 38.5 44.001 65.5s21.834 60.5 30.501 100.5l59 275c12.667 58.667 32 108.5 58 149.5s58.5 74.5 97.5 100.5s84.167 44.833 135.5 56.5
s108.333 17.5 171 17.5h50l-30 -141h-45c-42 0 -78.667 -4.16699 -110 -12.5s-58.333 -21.5 -81 -39.5s-41.334 -41.333 -56.001 -70s-26.334 -63 -35.001 -103l-63 -296c-16.667 -78 -44 -135.667 -82 -173s-87.333 -59 -148 -65z" />
    <glyph glyph-name="bar" unicode="|" horiz-adv-x="676" 
d="M135 -326l376 1769h148l-376 -1769h-148z" />
    <glyph glyph-name="braceright" unicode="}" horiz-adv-x="824" 
d="M623 582c-40.667 9.33301 -73.833 27.0049 -99.5 53.0049s-38.5 60.667 -38.5 104c0 12.667 0.833008 26 2.5 40s4.16699 28.667 7.5 44l71 334c3.33301 15.333 5.83301 29.666 7.5 42.999s2.5 25.666 2.5 36.999c0 50.667 -15.5 88.167 -46.5 112.5
s-80.5 36.5 -148.5 36.5h-45l29 136h48c51.333 0 97.5 -5.83301 138.5 -17.5s76 -28.334 105 -50.001s51.167 -47.334 66.5 -77.001s23 -62.5 23 -98.5c0 -34.667 -4.33301 -71.334 -13 -110.001l-61 -289c-8 -37.333 -12 -69 -12 -95c0 -42.667 11.5 -72.667 34.5 -90
s59.833 -26 110.5 -26l-41 -191c-33.333 0 -62 -3.66699 -86 -11s-44.833 -19.333 -62.5 -36s-32.334 -38.5 -44.001 -65.5s-21.834 -60.5 -30.501 -100.5l-59 -275c-12.667 -58.667 -32.167 -108.5 -58.5 -149.5s-59 -74.5 -98 -100.5s-84 -44.833 -135 -56.5
s-107.833 -17.5 -170.5 -17.5h-50l30 141h45c42 0 78.667 4.16699 110 12.5s58.333 21.5 81 39.5s41.334 41.333 56.001 70s26.334 63 35.001 103l63 296c16.667 78 44 135.667 82 173s87.333 59 148 65z" />
    <glyph glyph-name="asciitilde" unicode="~" horiz-adv-x="1202" 
d="M726 512c-34 0 -63.8359 5.66699 -89.5029 17s-48.834 25.333 -69.501 42s-39.5 35 -56.5 55s-33.333 38.333 -49 55s-31.334 30.667 -47.001 42s-32.834 17 -51.501 17c-36 0 -65 -13.333 -87 -40s-38.333 -69 -49 -127h-171c6 53.333 18.667 100.5 38 141.5
s43 75.333 71 103s59.333 48.667 94 63s71 21.5 109 21.5c33.333 0 62.833 -5.66699 88.5 -17s48.834 -25.333 69.501 -42s39.334 -35 56.001 -55s32.834 -38.333 48.501 -55s31.334 -30.667 47.001 -42s32.834 -17 51.501 -17c36 0 65.333 13.333 88 40
s39.334 69 50.001 127h171c-6 -53.333 -18.667 -100.5 -38 -141.5s-43 -75.333 -71 -103s-59.333 -48.667 -94 -63s-71 -21.5 -109 -21.5z" />
    <glyph glyph-name="nonbreakingspace" unicode="&#xa0;" horiz-adv-x="578" 
 />
    <glyph glyph-name="exclamdown" unicode="&#xa1;" horiz-adv-x="636" 
d="M87 -342l222 964h166l-188 -964h-200zM466 1120c20 0 38.5 -3.5 55.5 -10.5s31.667 -16.833 44 -29.5s22 -27.334 29 -44.001s10.5 -35 10.5 -55s-3.5 -38.5 -10.5 -55.5s-16.667 -31.833 -29 -44.5s-27 -22.5 -44 -29.5s-35.5 -10.5 -55.5 -10.5s-38.5 3.5 -55.5 10.5
s-31.667 16.833 -44 29.5s-21.833 27.5 -28.5 44.5s-10 35.5 -10 55.5s3.33301 38.333 10 55s16.167 31.334 28.5 44.001s27 22.5 44 29.5s35.5 10.5 55.5 10.5z" />
    <glyph glyph-name="cent" unicode="&#xa2;" horiz-adv-x="1328" 
d="M1188 504c-10.667 -46.667 -28.833 -89.1719 -54.5 -127.505s-57.167 -71.666 -94.5 -99.999s-80 -51 -128 -68s-99.333 -27.167 -154 -30.5l-38 -178h-172l41 194c-46.667 12.667 -88.834 32.334 -126.501 59.001s-69.667 59 -96 97s-46.666 81.333 -60.999 130
s-21.5 101.334 -21.5 158.001c0 92 13.333 177.167 40 255.5s64 146.666 112 204.999s105 104.833 171 139.5s138.333 54 217 58l31 147h172l-35 -165c72.667 -21.333 133.334 -56.666 182.001 -105.999s79.334 -108.333 92.001 -177c1.33301 -7.33301 2.33301 -15 3 -23
l2 -24h-176c-2.66699 28 -11.167 53.833 -25.5 77.5s-32.833 44.167 -55.5 61.5s-49 30.833 -79 40.5s-62 14.5 -96 14.5c-53.333 0 -102.833 -12.333 -148.5 -37s-85.167 -58.5 -118.5 -101.5s-59.5 -93.833 -78.5 -152.5s-28.5 -122 -28.5 -190
c0 -50 6.33301 -95.167 19 -135.5s30.667 -74.666 54 -102.999s51.666 -50.166 84.999 -65.499s70.666 -23 111.999 -23c66.667 0 124 14.833 172 44.5s82.333 71.5 103 125.5h179v0z" />
    <glyph glyph-name="sterling" unicode="&#xa3;" horiz-adv-x="1328" 
d="M1156 0l-1062 0.00488281l32 152c26.667 4.66699 54.667 12.5 84 23.5s58.166 25.167 86.499 42.5s55.333 37.666 81 60.999s48.334 49.666 68.001 78.999s35.334 61.5 47.001 96.5s17.5 72.833 17.5 113.5c0 11.333 -0.5 24.166 -1.5 38.499s-2.16699 29.833 -3.5 46.5
h-314l30 144h269c-2.66699 29.333 -5 58.333 -7 87s-3 56.667 -3 84c0 77.333 11.167 147.333 33.5 210s56.666 116.167 102.999 160.5s105.166 78.5 176.499 102.5s156.333 36 255 36c28.667 0 59 -1.5 91 -4.5s63.333 -7.33301 94 -13s59.5 -12.5 86.5 -20.5
s50.5 -17 70.5 -27l-35 -158c-16 9.33301 -36 17.833 -60 25.5s-50 14.334 -78 20.001s-57 10.167 -87 13.5s-59 5 -87 5c-56.667 0 -108 -6.5 -154 -19.5s-85.167 -32.667 -117.5 -59s-57.333 -59.333 -75 -99s-26.5 -86.5 -26.5 -140.5c0 -30 1 -62.333 3 -97
s4.66699 -70 8 -106h428l-30 -144h-389c0.666992 -10 1.16699 -19.833 1.5 -29.5s0.5 -18.834 0.5 -27.501c0 -60 -6.5 -113.333 -19.5 -160s-31.333 -87.334 -55 -122.001s-52.167 -63.834 -85.5 -87.501s-70.333 -42.5 -111 -56.5l-3 -16h771z" />
    <glyph glyph-name="currency" unicode="&#xa4;" horiz-adv-x="1328" 
d="M446 656c0 -36 7 -70 21 -102s33 -60 57 -84s52 -43 84 -57s66 -21 102 -21s70 7 102 21s60 33 84 57s43 52 57 84s21 66 21 102s-7 70 -21 102s-33 60 -57 84s-52 43 -84 57s-66 21 -102 21s-70 -7 -102 -21s-60 -33 -84 -57s-43 -52 -57 -84s-21 -66 -21 -102z
M1051 847c16 -28.667 28.333 -59 37 -91s13 -65.333 13 -100c0 -48 -8.16699 -93.5 -24.5 -136.5s-39.166 -81.833 -68.499 -116.5l109 -138l-123 -98l-110 139c-26 -13.333 -53.5 -23.5 -82.5 -30.5s-59.5 -10.5 -91.5 -10.5c-48 0 -93.5 8.16699 -136.5 24.5
s-81.5 39.166 -115.5 68.499l-239 -198l-87 110l236 196c-15.333 28.667 -27.333 58.834 -36 90.501s-13 64.834 -13 99.501c0 48 8.16699 93.5 24.5 136.5s39.166 81.5 68.499 115.5l-111 140l123 98l111 -141c26 13.333 53.667 23.666 83 30.999s60 11 92 11
c48 0 93.5 -8.16699 136.5 -24.5s81.5 -38.833 115.5 -67.5l237 196l87 -110z" />
    <glyph glyph-name="yen" unicode="&#xa5;" horiz-adv-x="1328" 
d="M753 269l-55 -269h-185l57 269h-278l29 136h278l35 166h-278l29 136h225l-301 736h187l268 -649h16l526 649h207l-601 -736h207l-29 -136h-274l-35 -166h274l-29 -136h-273z" />
    <glyph glyph-name="brokenbar" unicode="&#xa6;" horiz-adv-x="676" 
d="M369 774l142 669h148l-142 -669h-148zM135 -326l142 669h148l-142 -669h-148z" />
    <glyph glyph-name="section" unicode="&#xa7;" horiz-adv-x="1032" 
d="M592 373c32.667 6 62.501 15.168 89.501 27.501s50.167 27.666 69.5 45.999s34.166 39 44.499 62s15.5 48.167 15.5 75.5c0 16 -2 31.333 -6 46s-10.667 28.667 -20 42s-22 25.666 -38 36.999s-36.333 21.666 -61 30.999l-86 31
c-34 -3.33301 -65.667 -10.666 -95 -21.999s-54.833 -26 -76.5 -44s-38.667 -39.167 -51 -63.5s-18.5 -50.5 -18.5 -78.5c0 -33.333 11.5 -63.166 34.5 -89.499s58.5 -48.5 106.5 -66.5zM459.001 -256.999c-54 0 -104.835 7.49902 -152.502 22.499s-89.5 36 -125.5 63
s-65 59.333 -87 97s-34.333 79.5 -37 125.5h177c6 -24 15.5 -45.833 28.5 -65.5s29.5 -36.834 49.5 -51.501s43 -26 69 -34s54.667 -12 86 -12c34 0 65 4.16699 93 12.5s52.167 20 72.5 35s36 32.667 47 53s16.5 42.833 16.5 67.5c0 16 -2 30.833 -6 44.5
s-10.667 26.5 -20 38.5s-22 23.167 -38 33.5s-36.333 20.166 -61 29.499l-145 53c-36.667 13.333 -69.834 29 -99.501 47s-54.834 38.5 -75.501 61.5s-36.667 49 -48 78s-17 61.5 -17 97.5c0 36.667 6.5 70.5 19.5 101.5s31.333 58.833 55 83.5s51.667 45.5 84 62.5
s67.833 29.5 106.5 37.5l4 18c-27.333 16 -50.833 32.5 -70.5 49.5s-35.667 35 -48 54s-21.333 39.5 -27 61.5s-8.5 46.667 -8.5 74c0 48 9.66699 91.5 29 130.5s46 72.167 80 99.5s74.5 48.5 121.5 63.5s98.167 22.5 153.5 22.5c54.667 0 104.334 -7.33301 149.001 -22
s83.5 -35 116.5 -61s59.667 -57 80 -93s33.5 -75.667 39.5 -119h-171c-9.33301 44.667 -33.166 80.667 -71.499 108s-86.833 41 -145.5 41c-30.667 0 -58.667 -4 -84 -12s-47.166 -19 -65.499 -33s-32.666 -30.833 -42.999 -50.5s-15.5 -41.167 -15.5 -64.5
c0 -33.333 11.5 -61.5 34.5 -84.5s58.5 -43.5 106.5 -61.5l126 -47c40 -15.333 75.333 -31.666 106 -48.999s56.5 -37.166 77.5 -59.499s36.833 -47.666 47.5 -75.999s16 -60.5 16 -96.5c0 -34 -5.83301 -67 -17.5 -99s-28.5 -61.167 -50.5 -87.5s-49.167 -49.333 -81.5 -69
s-69.166 -34.5 -110.499 -44.5l-3 -12c27.333 -16.667 50.333 -33.667 69 -51s33.834 -35.5 45.501 -54.5s20.167 -39.5 25.5 -61.5s8 -46.333 8 -73c0 -47.333 -10.333 -90.666 -31 -129.999s-49.334 -73.333 -86.001 -102s-80.334 -50.834 -131.001 -66.501
s-106 -23.5 -166 -23.5z" />
    <glyph glyph-name="dieresis" unicode="&#xa8;" horiz-adv-x="1094" 
d="M579 1263c-16.667 0 -32.334 3.16699 -47.001 9.5s-27.5 15 -38.5 26s-19.667 23.833 -26 38.5s-9.5 30.334 -9.5 47.001s3.16699 32.334 9.5 47.001s15 27.5 26 38.5s23.833 19.667 38.5 26s30.334 9.5 47.001 9.5s32.334 -3.16699 47.001 -9.5s27.5 -15 38.5 -26
s19.667 -23.833 26 -38.5s9.5 -30.334 9.5 -47.001s-3.16699 -32.334 -9.5 -47.001s-15 -27.5 -26 -38.5s-23.833 -19.667 -38.5 -26s-30.334 -9.5 -47.001 -9.5zM983 1263c-16.667 0 -32.334 3.16699 -47.001 9.5s-27.5 15 -38.5 26s-19.667 23.833 -26 38.5
s-9.5 30.334 -9.5 47.001s3.16699 32.334 9.5 47.001s15 27.5 26 38.5s23.833 19.667 38.5 26s30.334 9.5 47.001 9.5s32.334 -3.16699 47.001 -9.5s27.5 -15 38.5 -26s19.667 -23.833 26 -38.5s9.5 -30.334 9.5 -47.001s-3.16699 -32.334 -9.5 -47.001s-15 -27.5 -26 -38.5
s-23.833 -19.667 -38.5 -26s-30.334 -9.5 -47.001 -9.5z" />
    <glyph glyph-name="copyright" unicode="&#xa9;" horiz-adv-x="1742" 
d="M896 -171c-67.333 0 -132.168 8.33105 -194.501 24.998s-120.5 40 -174.5 70s-103 66.167 -147 108.5s-81.667 89.5 -113 141.5s-55.666 107.833 -72.999 167.5s-26 121.834 -26 186.501c0 85.333 10.167 166.833 30.5 244.5s49.5 149.5 87.5 215.5
s83.833 125.833 137.5 179.5s113.5 99.5 179.5 137.5s137.833 67.167 215.5 87.5s159.167 30.5 244.5 30.5c104 0 200.333 -17.667 289 -53s165.667 -84.166 231 -146.499s116.5 -136 153.5 -221s55.5 -177.167 55.5 -276.5c0 -86 -10.167 -167.833 -30.5 -245.5
s-49.5 -149.667 -87.5 -216s-83.833 -126.333 -137.5 -180s-113.667 -99.5 -180 -137.5s-138.333 -67.167 -216 -87.5s-159.167 -30.5 -244.5 -30.5zM912.998 -31.002c68.667 0 134.498 8.66602 197.498 25.999s121.667 41.833 176 73.5s103.833 69.834 148.5 114.501
s82.667 94.334 114 149.001s55.666 113.667 72.999 177s26 129.666 26 198.999c0 82.667 -15.167 159.167 -45.5 229.5s-72.166 131 -125.499 182s-116.666 91 -189.999 120s-153.333 43.5 -240 43.5c-68.667 0 -134.5 -8.66699 -197.5 -26s-121.667 -41.833 -176 -73.5
s-103.666 -69.667 -147.999 -114s-82.333 -93.833 -114 -148.5s-56.167 -113.667 -73.5 -177s-26 -129.333 -26 -198c0 -81.333 15.333 -157.166 46 -227.499s73 -131.333 127 -183s117.5 -92.334 190.5 -122.001s152.167 -44.5 237.5 -44.5zM1209 794.997
c-2 20.667 -8.33105 39.999 -18.998 57.999s-24.5 33.5 -41.5 46.5s-36.667 23.167 -59 30.5s-46.5 11 -72.5 11c-40 0 -77.167 -9.16699 -111.5 -27.5s-64 -43.666 -89 -75.999s-44.667 -70.5 -59 -114.5s-21.5 -91.667 -21.5 -143c0 -38 4.66699 -72 14 -102
s22.833 -55.667 40.5 -77s39 -37.666 64 -48.999s53.167 -17 84.5 -17c50 0 93 11 129 33s61.667 53.333 77 94h134c-8 -36.667 -22.5 -70 -43.5 -100s-47 -55.833 -78 -77.5s-66 -38.334 -105 -50.001s-80.5 -17.5 -124.5 -17.5c-49.333 0 -94 8.33301 -134 25
s-74.333 40 -103 70s-50.834 66.333 -66.501 109s-23.5 90 -23.5 142c0 70.667 10.667 136.167 32 196.5s51 112.5 89 156.5s83 78.5 135 103.5s108.667 37.5 170 37.5c44.667 0 85.667 -6.16699 123 -18.5s69.666 -29.833 96.999 -52.5s49 -50.167 65 -82.5
s25.667 -68.5 29 -108.5h-132z" />
    <glyph glyph-name="ordfeminine" unicode="&#xaa;" horiz-adv-x="942" 
d="M572 949c-70 -3.33301 -124.332 -18.502 -162.999 -45.502s-58 -62.833 -58 -107.5c0 -19.333 4 -37.166 12 -53.499s19.333 -30.333 34 -42s32.167 -20.667 52.5 -27s42.5 -9.5 66.5 -9.5c32 0 62.5 4.83301 91.5 14.5s55.167 23.334 78.5 41.001
s43.166 38.5 59.499 62.5s27.5 50.333 33.5 79l21 99zM458.001 527.998c-39.333 0 -75.6689 6.33301 -109.002 19s-62.166 30 -86.499 52s-43.5 48.167 -57.5 78.5s-21 63.166 -21 98.499c0 90 34 160.5 102 211.5s165 79.167 291 84.5l249 11l13 60
c2 12.667 3.33301 21.334 4 26.001s0.666992 9.33398 0 14.001c0.666992 43.333 -15.166 77 -47.499 101s-77.5 36 -135.5 36c-48 0 -88.333 -9.16699 -121 -27.5s-56 -44.833 -70 -79.5h-168c10 38 26.167 72.333 48.5 103s49.666 56.667 81.999 78
s68.833 37.833 109.5 49.5s84.667 17.5 132 17.5c50.667 0 96.834 -6 138.501 -18s77.167 -29.167 106.5 -51.5s52 -49.333 68 -81s24 -66.834 24 -105.501c0 -13.333 -0.5 -26 -1.5 -38s-2.83301 -23.667 -5.5 -35l-126 -591h-160l25 117h-14
c-30.667 -41.333 -69.667 -73.333 -117 -96s-98.333 -34 -153 -34z" />
    <glyph glyph-name="guillemotleft" unicode="&#xab;" horiz-adv-x="1390" 
d="M892 553l-3 -16l248 -392h-190l-262 416l2 8l439 416h219zM414 553l-3 -16l248 -392h-190l-262 416l2 8l439 416h219z" />
    <glyph glyph-name="logicalnot" unicode="&#xac;" horiz-adv-x="1328" 
d="M1105 126h-148l81 380h-800l31 148h948z" />
    <glyph glyph-name="registered" unicode="&#xae;" horiz-adv-x="1261" 
d="M497 655l105.998 498.999h241c22 0 42.333 -3.66699 61 -11s34.834 -17.166 48.501 -29.499s24.334 -26.5 32.001 -42.5s11.5 -32.667 11.5 -50c0 -48 -14.167 -86.5 -42.5 -115.5s-64.5 -47.167 -108.5 -54.5l96 -196h-120l-90 183h-98l-39 -183h-98zM651.998 921.999
l124 -0.000976562c35.333 0 62.333 6.5 81 19.5s28 34.167 28 63.5c0 16.667 -6.33301 30.834 -19 42.501s-31.667 17.5 -57 17.5h-127zM236.998 886.998c0 72.667 13.5 140.834 40.5 204.501s64 119 111 166s102.333 84 166 111s131.834 40.5 204.501 40.5
s140.834 -13.5 204.501 -40.5s119 -64 166 -111s84 -102.333 111 -166s40.5 -131.834 40.5 -204.501s-13.5 -140.834 -40.5 -204.501s-64 -119 -111 -166s-102.333 -84 -166 -111s-131.834 -40.5 -204.501 -40.5s-140.834 13.5 -204.501 40.5s-119 64 -166 111
s-84 102.333 -111 166s-40.5 131.834 -40.5 204.501zM1177 886.998c0 58.667 -10.8281 113.334 -32.4951 164.001s-51.334 94.834 -89.001 132.501s-81.834 67.334 -132.501 89.001s-105.334 32.5 -164.001 32.5c-58 0 -112.5 -10.833 -163.5 -32.5
s-95.333 -51.334 -133 -89.001s-67.334 -81.834 -89.001 -132.501s-32.5 -105.334 -32.5 -164.001c0 -58 10.667 -112.5 32 -163.5s50.666 -95.333 87.999 -133s81.333 -67.334 132 -89.001s105 -32.5 163 -32.5c58.667 0 113.5 10.833 164.5 32.5s95.5 51.334 133.5 89.001
s68 82 90 133s33 105.5 33 163.5z" />
    <glyph glyph-name="macron" unicode="&#xaf;" horiz-adv-x="1094" 
d="M423 1286l29 136h674l-29 -136h-674z" />
    <glyph glyph-name="degree" unicode="&#xb0;" horiz-adv-x="820" 
d="M603 909c-40 0 -77.167 7.5 -111.5 22.5s-64.333 35.333 -90 61s-45.834 55.834 -60.501 90.501s-22 71.667 -22 111s7.33301 76.333 22 111s34.834 64.834 60.501 90.501s55.667 46 90 61s71.5 22.5 111.5 22.5c39.333 0 76.333 -7.5 111 -22.5
s64.834 -35.333 90.501 -61s46 -55.834 61 -90.501s22.5 -71.667 22.5 -111s-7.5 -76.333 -22.5 -111s-35.333 -64.834 -61 -90.501s-55.834 -46 -90.501 -61s-71.667 -22.5 -111 -22.5zM603 1038c22 0 42.667 4.16699 62 12.5s36 19.5 50 33.5s25.167 30.5 33.5 49.5
s12.5 39.167 12.5 60.5c0 22 -4.16699 42.5 -12.5 61.5s-19.5 35.5 -33.5 49.5s-30.667 25.167 -50 33.5s-40 12.5 -62 12.5c-20.667 0 -40.5 -4.16699 -59.5 -12.5s-35.667 -19.5 -50 -33.5s-25.833 -30.5 -34.5 -49.5s-13 -39.5 -13 -61.5
c0 -21.333 4.33301 -41.5 13 -60.5s20.167 -35.5 34.5 -49.5s31 -25.167 50 -33.5s38.833 -12.5 59.5 -12.5z" />
    <glyph glyph-name="plusminus" unicode="&#xb1;" horiz-adv-x="1328" 
d="M119 112l31 148h1018l-31 -148h-1018zM759 371h-152l62 291h-433l29 136h433l63 291h152l-63 -291h433l-29 -136h-433z" />
    <glyph glyph-name="two.sups" unicode="&#xb2;" horiz-adv-x="855" 
d="M366 1547c3.33301 40.667 14.334 78.168 33.001 112.501s43.167 63.833 73.5 88.5s65.5 44 105.5 58s83 21 129 21c42.667 0 82.167 -6.16699 118.5 -18.5s67.666 -29.166 93.999 -50.499s47 -46.833 62 -76.5s22.5 -61.834 22.5 -96.501c0 -26.667 -4 -52 -12 -76
s-22.333 -49.333 -43 -76s-48.5 -56.167 -83.5 -88.5s-79.5 -70.5 -133.5 -114.5l-212 -178l-2 -11h403l-30 -141h-646l27 126l356 297c42 34.667 76.167 64 102.5 88s47 45 62 63s25.167 34.333 30.5 49s8 30 8 46c0 35.333 -12.833 64.166 -38.5 86.499
s-58.834 33.5 -99.501 33.5c-20.667 0 -40.167 -3.33301 -58.5 -10s-34.666 -16 -48.999 -28s-26.5 -26.667 -36.5 -44s-17 -36.333 -21 -57v-3h-162v0z" />
    <glyph glyph-name="three.sups" unicode="&#xb3;" horiz-adv-x="867" 
d="M558 1429l122.994 -0.000976562c24.667 0 47.334 3.66699 68.001 11s38.5 17.333 53.5 30s26.667 27.834 35 45.501s12.5 37.167 12.5 58.5c0 34.667 -13.167 62.667 -39.5 84s-61.5 32 -105.5 32c-19.333 0 -37.5 -2.83301 -54.5 -8.5s-32.667 -13.667 -47 -24
s-26.833 -22.666 -37.5 -36.999s-18.667 -30.166 -24 -47.499h-161c8 38.667 22 73.667 42 105s44.667 58 74 80s62.833 39 100.5 51s78.167 18 121.5 18c44 0 84.333 -5.83301 121 -17.5s68.334 -27.834 95.001 -48.501s47.5 -45.167 62.5 -73.5s22.5 -59.5 22.5 -93.5
c0 -29.333 -5.16699 -57 -15.5 -83s-25 -49.333 -44 -70s-41.5 -37.834 -67.5 -51.501s-54.333 -22.834 -85 -27.501l-1 -11c50 -11.333 88.5 -33 115.5 -65s40.5 -72.333 40.5 -121c0 -42 -8.83301 -80.667 -26.5 -116s-42.167 -65.833 -73.5 -91.5
s-68.666 -45.667 -111.999 -60s-91 -21.5 -143 -21.5s-99.5 7.33301 -142.5 22s-79.167 35 -108.5 61s-51.166 56.5 -65.499 91.5s-18.833 73.167 -13.5 114.5h165c0 -22 4 -42 12 -60s19.333 -33.5 34 -46.5s32.334 -23 53.001 -30s43.667 -10.5 69 -10.5
c26.667 0 51.167 3.83301 73.5 11.5s41.333 18.334 57 32.001s27.834 30.167 36.501 49.5s13 41 13 65c0 18 -4 34.667 -12 50s-19 28.5 -33 39.5s-30.833 19.5 -50.5 25.5s-41.167 9 -64.5 9h-99z" />
    <glyph glyph-name="acute" unicode="&#xb4;" horiz-adv-x="1094" 
d="M843 1601h220l-350 -338h-194z" />
    <glyph glyph-name="paragraph" unicode="&#xb6;" horiz-adv-x="1321" 
d="M594 -220l169.001 795.002c-60 0 -115.333 9.33301 -166 28s-94.334 44.5 -131.001 77.5s-65.167 72.5 -85.5 118.5s-30.5 96.333 -30.5 151c0 72.667 14.167 139.167 42.5 199.5s68 112.166 119 155.499s111.833 77.166 182.5 101.499s148.667 36.5 234 36.5h200
l-354 -1663h-180zM1275 1443h180l-354 -1663h-180z" />
    <glyph glyph-name="periodcentered" unicode="&#xb7;" horiz-adv-x="630" 
d="M413 597c-42 0 -76.167 13.167 -102.5 39.5s-39.5 60.5 -39.5 102.5c0 20.667 3.5 39.667 10.5 57s16.833 32.333 29.5 45s27.667 22.5 45 29.5s36.333 10.5 57 10.5s39.5 -3.5 56.5 -10.5s31.667 -16.833 44 -29.5s22 -27.667 29 -45s10.5 -36.333 10.5 -57
s-3.5 -39.667 -10.5 -57s-16.667 -32.333 -29 -45s-27 -22.5 -44 -29.5s-35.833 -10.5 -56.5 -10.5z" />
    <glyph glyph-name="cedilla" unicode="&#xb8;" horiz-adv-x="1094" 
d="M294 -143l113.005 182.002h141l-111 -179c119.333 -13.333 179 -65.333 179 -156c0 -28.667 -6.16699 -54.834 -18.5 -78.501s-29.333 -44.167 -51 -61.5s-47.667 -30.833 -78 -40.5s-63.5 -14.5 -99.5 -14.5c-28.667 0 -58.834 3.16699 -90.501 9.5
s-59.834 15.166 -84.501 26.499l23 108c8.66699 -4 19.167 -7.66699 31.5 -11s25.166 -6.16602 38.499 -8.49902s26.666 -4.33301 39.999 -6s25.666 -2.5 36.999 -2.5c32 0 57.333 6.33301 76 19s28 29.667 28 51c0 23.333 -11.333 41.166 -34 53.499s-56 18.5 -100 18.5
h-53z" />
    <glyph glyph-name="one.sups" unicode="&#xb9;" horiz-adv-x="680" 
d="M604 1625h-11l-256 -155l36 169l270 164h173l-192 -903h-174z" />
    <glyph glyph-name="ordmasculine" unicode="&#xba;" horiz-adv-x="1024" 
d="M702 1315c-42.667 0 -82.333 -9.5 -119 -28.5s-68.334 -45.167 -95.001 -78.5s-47.5 -72.833 -62.5 -118.5s-22.5 -95.167 -22.5 -148.5c0 -87.333 19.333 -155.5 58 -204.5s92.334 -73.5 161.001 -73.5c42 0 81.167 10 117.5 30s68 47.333 95 82s48.167 75.5 63.5 122.5
s23 97.5 23 151.5c0 40.667 -5 77.5 -15 110.5s-24.5 61 -43.5 84s-42 40.667 -69 53s-57.5 18.5 -91.5 18.5zM604.001 515c-58 0 -110.171 9.5 -156.504 28.5s-86 46 -119 81s-58.333 77.333 -76 127s-26.5 105.167 -26.5 166.5c0 77.333 12.667 149.166 38 215.499
s60.333 124 105 173s97.334 87.333 158.001 115s126 41.5 196 41.5c58 0 110 -9.33301 156 -28s85.333 -45.334 118 -80.001s57.667 -76.667 75 -126s26 -105 26 -167c0 -77.333 -12.667 -149.166 -38 -215.499s-60.166 -124.166 -104.499 -173.499
s-96.666 -88 -156.999 -116s-125.166 -42 -194.499 -42z" />
    <glyph glyph-name="guillemotright" unicode="&#xbb;" horiz-adv-x="1393" 
d="M373 985h190l262 -416l-2 -8l-439 -416h-219l453 432l3 16zM854 985h190l262 -416l-2 -8l-439 -416h-219l453 432l3 16z" />
    <glyph glyph-name="onequarter" unicode="&#xbc;" horiz-adv-x="2046" 
d="M1025 758l448 685h173l-472 -721l-472 -722h-173zM1658 166h-443l28 156c56.667 74.667 125.5 160.5 206.5 257.5l277.5 323.5h254l-127 -596h120l-30 -141h-120l-35 -166h-166zM1403 303h288l98 465h-9l-175.5 -206l-199.5 -250zM616 1265h-11l-256 -155l36 169l270 164
h173l-192 -903h-174z" />
    <glyph glyph-name="onehalf" unicode="&#xbd;" horiz-adv-x="2036" 
d="M1387 647c3.33301 40.667 14.334 78.168 33.001 112.501s43.167 63.833 73.5 88.5s65.5 44 105.5 58s83 21 129 21c42.667 0 82.167 -6.16699 118.5 -18.5s67.666 -29.166 93.999 -50.499s47 -46.833 62 -76.5s22.5 -61.834 22.5 -96.501c0 -26.667 -4 -52 -12 -76
s-22.333 -49.333 -43 -76s-48.5 -56.167 -83.5 -88.5s-79.5 -70.5 -133.5 -114.5l-212 -178l-2 -11h403l-30 -141h-646l27 126l356 297c42 34.667 76.167 64 102.5 88s47 45 62 63s25.167 34.333 30.5 49s8 30 8 46c0 35.333 -12.833 64.166 -38.5 86.499
s-58.834 33.5 -99.501 33.5c-20.667 0 -40.167 -3.33301 -58.5 -10s-34.666 -16 -48.999 -28s-26.5 -26.667 -36.5 -44s-17 -36.333 -21 -57v-3h-162zM616.001 1265h-11l-256 -155l36 169l270 164h173l-192 -903h-174zM1025 758.001l448 685h173l-472 -721l-472 -722h-173z
" />
    <glyph glyph-name="threequarters" unicode="&#xbe;" horiz-adv-x="2182" 
d="M1161 758l448 685h173l-472 -721l-472 -722h-173zM1794 166h-443l28 156c56.667 74.667 125.5 160.5 206.5 257.5l277.5 323.5h254l-127 -596h120l-30 -141h-120l-35 -166h-166zM1539 303h288l98 465h-9l-175.5 -206l-199.5 -250zM481 1069l122.994 -0.000976562
c24.667 0 47.334 3.66699 68.001 11s38.5 17.333 53.5 30s26.667 27.834 35 45.501s12.5 37.167 12.5 58.5c0 34.667 -13.167 62.667 -39.5 84s-61.5 32 -105.5 32c-19.333 0 -37.5 -2.83301 -54.5 -8.5s-32.667 -13.667 -47 -24s-26.833 -22.666 -37.5 -36.999
s-18.667 -30.166 -24 -47.499h-161c8 38.667 22 73.667 42 105s44.667 58 74 80s62.833 39 100.5 51s78.167 18 121.5 18c44 0 84.333 -5.83301 121 -17.5s68.334 -27.834 95.001 -48.501s47.5 -45.167 62.5 -73.5s22.5 -59.5 22.5 -93.5c0 -29.333 -5.16699 -57 -15.5 -83
s-25 -49.333 -44 -70s-41.5 -37.834 -67.5 -51.501s-54.333 -22.834 -85 -27.501l-1 -11c50 -11.333 88.5 -33 115.5 -65s40.5 -72.333 40.5 -121c0 -42 -8.83301 -80.667 -26.5 -116s-42.167 -65.833 -73.5 -91.5s-68.666 -45.667 -111.999 -60s-91 -21.5 -143 -21.5
s-99.5 7.33301 -142.5 22s-79.167 35 -108.5 61s-51.166 56.5 -65.499 91.5s-18.833 73.167 -13.5 114.5h165c0 -22 4 -42 12 -60s19.333 -33.5 34 -46.5s32.334 -23 53.001 -30s43.667 -10.5 69 -10.5c26.667 0 51.167 3.83301 73.5 11.5s41.333 18.334 57 32.001
s27.834 30.167 36.501 49.5s13 41 13 65c0 18 -4 34.667 -12 50s-19 28.5 -33 39.5s-30.833 19.5 -50.5 25.5s-41.167 9 -64.5 9h-99z" />
    <glyph glyph-name="questiondown" unicode="&#xbf;" horiz-adv-x="1049" 
d="M708 1120c20 0 38.5 -3.5 55.5 -10.5s31.667 -16.667 44 -29s22 -27 29 -44s10.5 -35.5 10.5 -55.5c0 -20.667 -3.5 -39.5 -10.5 -56.5s-16.667 -31.667 -29 -44s-27 -22 -44 -29s-35.5 -10.5 -55.5 -10.5s-38.5 3.5 -55.5 10.5s-31.667 16.667 -44 29
s-21.833 27 -28.5 44s-10 35.833 -10 56.5c0 20 3.33301 38.5 10 55.5s16.167 31.667 28.5 44s27 22 44 29s35.5 10.5 55.5 10.5zM917 13c-11.333 -55.333 -29.502 -105.499 -54.502 -150.499s-57 -83.5 -96 -115.5s-84.667 -56.833 -137 -74.5s-110.833 -26.5 -175.5 -26.5
c-62 0 -118.5 8.66699 -169.5 26s-94.667 41 -131 71s-64.333 65 -84 105s-29.5 82.667 -29.5 128c0 44 7.33301 85.833 22 125.5s34.834 76.667 60.501 111s56.167 65.166 91.5 92.499s74 50.333 116 69c36 16 66.5 31.667 91.5 47s45.667 31.5 62 48.5
s29.333 35.833 39 56.5s16.834 44 21.501 70l11 60h179l-18 -82c-9.33301 -42.667 -21.333 -79.334 -36 -110.001s-32.667 -57.667 -54 -81s-46.666 -44.166 -75.999 -62.499s-63.333 -36.166 -102 -53.499c-75.333 -35.333 -130.333 -74.833 -165 -118.5
s-52 -94.834 -52 -153.501c0 -25.333 5 -49.5 15 -72.5s24.833 -43.333 44.5 -61s44.167 -31.834 73.5 -42.501s63.333 -16 102 -16c68.667 0 127.167 18.333 175.5 55s82.166 88.334 101.499 155.001h174z" />
    <glyph glyph-name="Agrave" unicode="&#xc0;" horiz-adv-x="1380" 
d="M1015 413h-579l-232 -413h-193l845 1443h167l226 -1443h-176zM522 566h473l-95 641h-16zM1049 1575h-184l-206 298h206z" />
    <glyph glyph-name="Aacute" unicode="&#xc1;" horiz-adv-x="1380" 
d="M1015 413h-579l-232 -413h-193l845 1443h167l226 -1443h-176zM522 566h473l-95 641h-16zM1250 1873h226l-395 -298h-204z" />
    <glyph glyph-name="Acircumflex" unicode="&#xc2;" horiz-adv-x="1380" 
d="M1015 413h-579l-232 -413h-193l845 1443h167l226 -1443h-176zM522 566h473l-95 641h-16zM1304 1575h-185l-105 186h-16l-183 -186h-207l310 298h202z" />
    <glyph glyph-name="Atilde" unicode="&#xc3;" horiz-adv-x="1380" 
d="M1015 413h-579l-232 -413h-193l845 1443h167l226 -1443h-176zM522 566h473l-95 641h-16zM1151 1575c-28 0 -53 4 -75 12s-41.667 18 -59 30s-33.166 25.167 -47.499 39.5l-41 39.5c-13 12 -26 22 -39 30s-26.833 12 -41.5 12c-59.333 0 -97.333 -39.333 -114 -118h-142
c6.66699 40 18 75.667 34 107s35.5 57.833 58.5 79.5s48.667 38.167 77 49.5s58.166 17 89.499 17c28 0 52.833 -4 74.5 -12s41.167 -18 58.5 -30s33.166 -25.167 47.499 -39.5l41 -39.5c13 -12 26 -22 39 -30s26.833 -12 41.5 -12c60 0 98.333 39.333 115 118h142
c-6.66699 -40 -18 -75.667 -34 -107s-35.5 -57.833 -58.5 -79.5s-48.667 -38.167 -77 -49.5s-58.166 -17 -89.499 -17z" />
    <glyph glyph-name="Adieresis" unicode="&#xc4;" horiz-adv-x="1380" 
d="M1015 413h-579l-232 -413h-193l845 1443h167l226 -1443h-176zM522 566h473l-95 641h-16zM791 1575c-16.667 0 -32.334 3.16699 -47.001 9.5s-27.5 15 -38.5 26s-19.667 23.833 -26 38.5s-9.5 30.334 -9.5 47.001s3.16699 32.334 9.5 47.001s15 27.5 26 38.5
s23.833 19.667 38.5 26s30.334 9.5 47.001 9.5s32.334 -3.16699 47.001 -9.5s27.5 -15 38.5 -26s19.667 -23.833 26 -38.5s9.5 -30.334 9.5 -47.001s-3.16699 -32.334 -9.5 -47.001s-15 -27.5 -26 -38.5s-23.833 -19.667 -38.5 -26s-30.334 -9.5 -47.001 -9.5zM1195 1575
c-16.667 0 -32.334 3.16699 -47.001 9.5s-27.5 15 -38.5 26s-19.667 23.833 -26 38.5s-9.5 30.334 -9.5 47.001s3.16699 32.334 9.5 47.001s15 27.5 26 38.5s23.833 19.667 38.5 26s30.334 9.5 47.001 9.5s32.334 -3.16699 47.001 -9.5s27.5 -15 38.5 -26
s19.667 -23.833 26 -38.5s9.5 -30.334 9.5 -47.001s-3.16699 -32.334 -9.5 -47.001s-15 -27.5 -26 -38.5s-23.833 -19.667 -38.5 -26s-30.334 -9.5 -47.001 -9.5z" />
    <glyph glyph-name="Aring" unicode="&#xc5;" horiz-adv-x="1380" 
d="M1015 413h-579l-232 -413h-193l845 1443h167l226 -1443h-176zM522 566h473l-95 641h-16zM1015 1571c-32 0 -62.167 5.83301 -90.5 17.5s-53 27.834 -74 48.501s-37.5 45 -49.5 73s-18 58 -18 90s6 62 18 90s28.5 52.333 49.5 73s45.667 36.834 74 48.501
s58.5 17.5 90.5 17.5s62 -5.83301 90 -17.5s52.5 -27.834 73.5 -48.501s37.667 -45 50 -73s18.5 -58 18.5 -90s-6.16699 -62 -18.5 -90s-29 -52.333 -50 -73s-45.5 -36.834 -73.5 -48.501s-58 -17.5 -90 -17.5zM1015 1677c17.333 0 33.5 3.16699 48.5 9.5s28 15 39 26
s19.5 24 25.5 39s9 31.167 9 48.5s-3 33.5 -9 48.5s-14.5 28 -25.5 39s-24 19.667 -39 26s-31.167 9.5 -48.5 9.5s-33.5 -3.16699 -48.5 -9.5s-28 -15 -39 -26s-19.5 -24 -25.5 -39s-9 -31.167 -9 -48.5s3 -33.5 9 -48.5s14.5 -28 25.5 -39s24 -19.667 39 -26
s31.167 -9.5 48.5 -9.5z" />
    <glyph glyph-name="AE" unicode="&#xc6;" horiz-adv-x="1966" 
d="M1060 1292l-455 -680h457l145 680h-147zM1030 459h-527l-307 -459h-187l958 1443h1110l-35 -162h-658l-100 -473h621l-34 -160h-621l-104 -486h658l-34 -162h-838z" />
    <glyph glyph-name="Ccedilla" unicode="&#xc7;" horiz-adv-x="1466" 
d="M1324 992l0.00195312 2.00098c-4 48 -15.667 91.5 -35 130.5s-45.333 72.333 -78 100s-71.167 48.834 -115.5 63.501s-93.5 22 -147.5 22c-78.667 0 -152.167 -18.833 -220.5 -56.5s-127.666 -89.667 -177.999 -156s-89.833 -144.333 -118.5 -234s-43 -186.5 -43 -290.5
c0 -68 9.16699 -129.167 27.5 -183.5s44.5 -100.5 78.5 -138.5s75.333 -67.167 124 -87.5s103 -30.5 163 -30.5c48.667 0 95 5.83301 139 17.5s83.833 28.334 119.5 50.001s66.334 47.667 92.001 78s45.167 64.166 58.5 101.499h190c-16.667 -59.333 -41.5 -113 -74.5 -161
s-73 -89.667 -120 -125s-100.167 -63.666 -159.5 -84.999s-123.333 -34.666 -192 -39.999l-68 -109c119.333 -13.333 179 -65.333 179 -156c0 -28.667 -6.16699 -54.834 -18.5 -78.501s-29.333 -44.167 -51 -61.5s-47.667 -30.833 -78 -40.5s-63.5 -14.5 -99.5 -14.5
c-28.667 0 -58.834 3.16699 -90.501 9.5s-59.834 15.166 -84.501 26.499l23 108c8.66699 -4 19.167 -7.66699 31.5 -11s25.166 -6.16602 38.499 -8.49902s26.666 -4.33301 39.999 -6s25.666 -2.5 36.999 -2.5c32 0 57.333 6.33301 76 19s28 29.667 28 51
c0 23.333 -11.333 41.166 -34 53.499s-56 18.5 -100 18.5h-53l13 90l70 112c-74.667 7.33301 -142.167 26.5 -202.5 57.5s-112 71.833 -155 122.5s-76.167 110.334 -99.5 179.001s-35 144 -35 226c0 88.667 8.66699 173 26 253s42 154.167 74 222.5
s70.833 130.166 116.5 185.499s96.667 102.333 153 141s117.5 68.5 183.5 89.5s135.333 31.5 208 31.5c78 0 150.333 -12 217 -36s124.334 -57.333 173.001 -100s86.667 -93.334 114 -152.001s41 -122.334 41 -191.001v-6h-183z" />
    <glyph glyph-name="Egrave" unicode="&#xc8;" horiz-adv-x="1219" 
d="M1019 0h-896l307 1443h896l-35 -162h-711l-100 -463h675l-34 -160h-674l-106 -496h712zM987 1575h-184l-206 298h206z" />
    <glyph glyph-name="Eacute" unicode="&#xc9;" horiz-adv-x="1219" 
d="M1019 0h-896l307 1443h896l-35 -162h-711l-100 -463h675l-34 -160h-674l-106 -496h712zM1188 1873h226l-395 -298h-204z" />
    <glyph glyph-name="Ecircumflex" unicode="&#xca;" horiz-adv-x="1219" 
d="M1019 0h-896l307 1443h896l-35 -162h-711l-100 -463h675l-34 -160h-674l-106 -496h712zM1242 1575h-185l-105 186h-16l-183 -186h-207l310 298h202z" />
    <glyph glyph-name="Edieresis" unicode="&#xcb;" horiz-adv-x="1219" 
d="M1019 0h-896l307 1443h896l-35 -162h-711l-100 -463h675l-34 -160h-674l-106 -496h712zM729 1575c-16.667 0 -32.334 3.16699 -47.001 9.5s-27.5 15 -38.5 26s-19.667 23.833 -26 38.5s-9.5 30.334 -9.5 47.001s3.16699 32.334 9.5 47.001s15 27.5 26 38.5
s23.833 19.667 38.5 26s30.334 9.5 47.001 9.5s32.334 -3.16699 47.001 -9.5s27.5 -15 38.5 -26s19.667 -23.833 26 -38.5s9.5 -30.334 9.5 -47.001s-3.16699 -32.334 -9.5 -47.001s-15 -27.5 -26 -38.5s-23.833 -19.667 -38.5 -26s-30.334 -9.5 -47.001 -9.5zM1133 1575
c-16.667 0 -32.334 3.16699 -47.001 9.5s-27.5 15 -38.5 26s-19.667 23.833 -26 38.5s-9.5 30.334 -9.5 47.001s3.16699 32.334 9.5 47.001s15 27.5 26 38.5s23.833 19.667 38.5 26s30.334 9.5 47.001 9.5s32.334 -3.16699 47.001 -9.5s27.5 -15 38.5 -26
s19.667 -23.833 26 -38.5s9.5 -30.334 9.5 -47.001s-3.16699 -32.334 -9.5 -47.001s-15 -27.5 -26 -38.5s-23.833 -19.667 -38.5 -26s-30.334 -9.5 -47.001 -9.5z" />
    <glyph glyph-name="Igrave" unicode="&#xcc;" horiz-adv-x="550" 
d="M123 0l307 1443h184l-307 -1443h-184zM632 1575h-184l-206 298h206z" />
    <glyph glyph-name="Iacute" unicode="&#xcd;" horiz-adv-x="550" 
d="M123 0l307 1443h184l-307 -1443h-184zM833 1873h226l-395 -298h-204z" />
    <glyph glyph-name="Icircumflex" unicode="&#xce;" horiz-adv-x="550" 
d="M123 0l307 1443h184l-307 -1443h-184zM887 1575h-185l-105 186h-16l-183 -186h-207l310 298h202z" />
    <glyph glyph-name="Idieresis" unicode="&#xcf;" horiz-adv-x="550" 
d="M123 0l307 1443h184l-307 -1443h-184zM374 1575c-16.667 0 -32.334 3.16699 -47.001 9.5s-27.5 15 -38.5 26s-19.667 23.833 -26 38.5s-9.5 30.334 -9.5 47.001s3.16699 32.334 9.5 47.001s15 27.5 26 38.5s23.833 19.667 38.5 26s30.334 9.5 47.001 9.5
s32.334 -3.16699 47.001 -9.5s27.5 -15 38.5 -26s19.667 -23.833 26 -38.5s9.5 -30.334 9.5 -47.001s-3.16699 -32.334 -9.5 -47.001s-15 -27.5 -26 -38.5s-23.833 -19.667 -38.5 -26s-30.334 -9.5 -47.001 -9.5zM778 1575c-16.667 0 -32.334 3.16699 -47.001 9.5
s-27.5 15 -38.5 26s-19.667 23.833 -26 38.5s-9.5 30.334 -9.5 47.001s3.16699 32.334 9.5 47.001s15 27.5 26 38.5s23.833 19.667 38.5 26s30.334 9.5 47.001 9.5s32.334 -3.16699 47.001 -9.5s27.5 -15 38.5 -26s19.667 -23.833 26 -38.5s9.5 -30.334 9.5 -47.001
s-3.16699 -32.334 -9.5 -47.001s-15 -27.5 -26 -38.5s-23.833 -19.667 -38.5 -26s-30.334 -9.5 -47.001 -9.5z" />
    <glyph glyph-name="Eth" unicode="&#xd0;" horiz-adv-x="1486" 
d="M723 160c79.333 0 152.668 16.168 220.001 48.501s125.666 77.166 174.999 134.499s88 125.333 116 204s42 164 42 256c0 75.333 -10.333 142.833 -31 202.5s-50.5 110 -89.5 151s-86.833 72.333 -143.5 94s-121 32.5 -193 32.5h-239l-97 -457h202l-35 -163h-202
l-107 -503h382zM833.002 1443c100.667 0 190 -14.501 268 -43.501s143.667 -70.667 197 -125s94 -120.5 122 -198.5s42 -166 42 -264c0 -77.333 -8.66699 -151.166 -26 -221.499s-42 -135.5 -74 -195.5s-70.5 -114.333 -115.5 -163s-95.167 -90.167 -150.5 -124.5
s-115 -60.833 -179 -79.5s-131 -28 -201 -28h-591l140 663h-201l35 163h201l130 617h403z" />
    <glyph glyph-name="Ntilde" unicode="&#xd1;" horiz-adv-x="1520" 
d="M123 0l307 1443h177l534 -1153h16l245 1153h182l-307 -1443h-179l-533 1150h-16l-244 -1150h-182zM1228 1575c-28 0 -53 4 -75 12s-41.667 18 -59 30s-33.166 25.167 -47.499 39.5l-41 39.5c-13 12 -26 22 -39 30s-26.833 12 -41.5 12
c-59.333 0 -97.333 -39.333 -114 -118h-142c6.66699 40 18 75.667 34 107s35.5 57.833 58.5 79.5s48.667 38.167 77 49.5s58.166 17 89.499 17c28 0 52.833 -4 74.5 -12s41.167 -18 58.5 -30s33.166 -25.167 47.499 -39.5l41 -39.5c13 -12 26 -22 39 -30
s26.833 -12 41.5 -12c60 0 98.333 39.333 115 118h142c-6.66699 -40 -18 -75.667 -34 -107s-35.5 -57.833 -58.5 -79.5s-48.667 -38.167 -77 -49.5s-58.166 -17 -89.499 -17z" />
    <glyph glyph-name="Ograve" unicode="&#xd2;" horiz-adv-x="1579" 
d="M787 -34c-84.667 0 -162.833 14.998 -234.5 44.998s-133.5 71.5 -185.5 124.5s-92.667 116 -122 189s-44 152.5 -44 238.5c0 87.333 8.83301 170.666 26.5 249.999s43 152.833 76 220.5s72.833 128.834 119.5 183.501s99 101.334 157 140.001
s120.833 68.334 188.5 89.001s138.834 31 213.501 31c84 0 161.667 -15 233 -45s132.833 -71.5 184.5 -124.5s92 -116 121 -189s43.5 -152.5 43.5 -238.5c0 -88 -8.83301 -171.833 -26.5 -251.5s-42.834 -153.334 -75.501 -221.001s-72.167 -128.667 -118.5 -183
s-98.166 -100.666 -155.499 -138.999s-119.833 -67.833 -187.5 -88.5s-138.834 -31 -213.501 -31zM1374 863.998c0 66 -9.83008 126.501 -29.4971 181.501s-47.334 102 -83.001 141s-78.334 69.333 -128.001 91s-104.834 32.5 -165.501 32.5
c-82 0 -158.333 -18.5 -229 -55.5s-131.667 -88.333 -183 -154s-91.666 -143 -120.999 -232s-44 -185.5 -44 -289.5c0 -66.667 9.83301 -127.334 29.5 -182.001s47.5 -101.5 83.5 -140.5s79.167 -69.333 129.5 -91s106.166 -32.5 167.499 -32.5
c82.667 0 159 18.167 229 54.5s130.5 87 181.5 152s90.833 142.167 119.5 231.5s43 187 43 293zM1087 1573h-184l-206 298h206z" />
    <glyph glyph-name="Oacute" unicode="&#xd3;" horiz-adv-x="1579" 
d="M787 -34c-84.667 0 -162.833 14.998 -234.5 44.998s-133.5 71.5 -185.5 124.5s-92.667 116 -122 189s-44 152.5 -44 238.5c0 87.333 8.83301 170.666 26.5 249.999s43 152.833 76 220.5s72.833 128.834 119.5 183.501s99 101.334 157 140.001
s120.833 68.334 188.5 89.001s138.834 31 213.501 31c84 0 161.667 -15 233 -45s132.833 -71.5 184.5 -124.5s92 -116 121 -189s43.5 -152.5 43.5 -238.5c0 -88 -8.83301 -171.833 -26.5 -251.5s-42.834 -153.334 -75.501 -221.001s-72.167 -128.667 -118.5 -183
s-98.166 -100.666 -155.499 -138.999s-119.833 -67.833 -187.5 -88.5s-138.834 -31 -213.501 -31zM1374 863.998c0 66 -9.83008 126.501 -29.4971 181.501s-47.334 102 -83.001 141s-78.334 69.333 -128.001 91s-104.834 32.5 -165.501 32.5
c-82 0 -158.333 -18.5 -229 -55.5s-131.667 -88.333 -183 -154s-91.666 -143 -120.999 -232s-44 -185.5 -44 -289.5c0 -66.667 9.83301 -127.334 29.5 -182.001s47.5 -101.5 83.5 -140.5s79.167 -69.333 129.5 -91s106.166 -32.5 167.499 -32.5
c82.667 0 159 18.167 229 54.5s130.5 87 181.5 152s90.833 142.167 119.5 231.5s43 187 43 293zM1288 1871h226l-395 -298h-204z" />
    <glyph glyph-name="Ocircumflex" unicode="&#xd4;" horiz-adv-x="1579" 
d="M787 -34c-84.667 0 -162.833 14.998 -234.5 44.998s-133.5 71.5 -185.5 124.5s-92.667 116 -122 189s-44 152.5 -44 238.5c0 87.333 8.83301 170.666 26.5 249.999s43 152.833 76 220.5s72.833 128.834 119.5 183.501s99 101.334 157 140.001
s120.833 68.334 188.5 89.001s138.834 31 213.501 31c84 0 161.667 -15 233 -45s132.833 -71.5 184.5 -124.5s92 -116 121 -189s43.5 -152.5 43.5 -238.5c0 -88 -8.83301 -171.833 -26.5 -251.5s-42.834 -153.334 -75.501 -221.001s-72.167 -128.667 -118.5 -183
s-98.166 -100.666 -155.499 -138.999s-119.833 -67.833 -187.5 -88.5s-138.834 -31 -213.501 -31zM1374 863.998c0 66 -9.83008 126.501 -29.4971 181.501s-47.334 102 -83.001 141s-78.334 69.333 -128.001 91s-104.834 32.5 -165.501 32.5
c-82 0 -158.333 -18.5 -229 -55.5s-131.667 -88.333 -183 -154s-91.666 -143 -120.999 -232s-44 -185.5 -44 -289.5c0 -66.667 9.83301 -127.334 29.5 -182.001s47.5 -101.5 83.5 -140.5s79.167 -69.333 129.5 -91s106.166 -32.5 167.499 -32.5
c82.667 0 159 18.167 229 54.5s130.5 87 181.5 152s90.833 142.167 119.5 231.5s43 187 43 293zM1342 1573h-185l-105 186h-16l-183 -186h-207l310 298h202z" />
    <glyph glyph-name="Otilde" unicode="&#xd5;" horiz-adv-x="1579" 
d="M787 -34c-84.667 0 -162.833 14.998 -234.5 44.998s-133.5 71.5 -185.5 124.5s-92.667 116 -122 189s-44 152.5 -44 238.5c0 87.333 8.83301 170.666 26.5 249.999s43 152.833 76 220.5s72.833 128.834 119.5 183.501s99 101.334 157 140.001
s120.833 68.334 188.5 89.001s138.834 31 213.501 31c84 0 161.667 -15 233 -45s132.833 -71.5 184.5 -124.5s92 -116 121 -189s43.5 -152.5 43.5 -238.5c0 -88 -8.83301 -171.833 -26.5 -251.5s-42.834 -153.334 -75.501 -221.001s-72.167 -128.667 -118.5 -183
s-98.166 -100.666 -155.499 -138.999s-119.833 -67.833 -187.5 -88.5s-138.834 -31 -213.501 -31zM1374 863.998c0 66 -9.83008 126.501 -29.4971 181.501s-47.334 102 -83.001 141s-78.334 69.333 -128.001 91s-104.834 32.5 -165.501 32.5
c-82 0 -158.333 -18.5 -229 -55.5s-131.667 -88.333 -183 -154s-91.666 -143 -120.999 -232s-44 -185.5 -44 -289.5c0 -66.667 9.83301 -127.334 29.5 -182.001s47.5 -101.5 83.5 -140.5s79.167 -69.333 129.5 -91s106.166 -32.5 167.499 -32.5
c82.667 0 159 18.167 229 54.5s130.5 87 181.5 152s90.833 142.167 119.5 231.5s43 187 43 293zM1189 1573c-28 0 -53 4 -75 12s-41.667 18 -59 30s-33.166 25.167 -47.499 39.5l-41 39.5c-13 12 -26 22 -39 30s-26.833 12 -41.5 12c-59.333 0 -97.333 -39.333 -114 -118
h-142c6.66699 40 18 75.667 34 107s35.5 57.833 58.5 79.5s48.667 38.167 77 49.5s58.166 17 89.499 17c28 0 52.833 -4 74.5 -12s41.167 -18 58.5 -30s33.166 -25.167 47.499 -39.5l41 -39.5c13 -12 26 -22 39 -30s26.833 -12 41.5 -12c60 0 98.333 39.333 115 118h142
c-6.66699 -40 -18 -75.667 -34 -107s-35.5 -57.833 -58.5 -79.5s-48.667 -38.167 -77 -49.5s-58.166 -17 -89.499 -17z" />
    <glyph glyph-name="Odieresis" unicode="&#xd6;" horiz-adv-x="1579" 
d="M787 -34c-84.667 0 -162.833 14.998 -234.5 44.998s-133.5 71.5 -185.5 124.5s-92.667 116 -122 189s-44 152.5 -44 238.5c0 87.333 8.83301 170.666 26.5 249.999s43 152.833 76 220.5s72.833 128.834 119.5 183.501s99 101.334 157 140.001
s120.833 68.334 188.5 89.001s138.834 31 213.501 31c84 0 161.667 -15 233 -45s132.833 -71.5 184.5 -124.5s92 -116 121 -189s43.5 -152.5 43.5 -238.5c0 -88 -8.83301 -171.833 -26.5 -251.5s-42.834 -153.334 -75.501 -221.001s-72.167 -128.667 -118.5 -183
s-98.166 -100.666 -155.499 -138.999s-119.833 -67.833 -187.5 -88.5s-138.834 -31 -213.501 -31zM1374 863.998c0 66 -9.83008 126.501 -29.4971 181.501s-47.334 102 -83.001 141s-78.334 69.333 -128.001 91s-104.834 32.5 -165.501 32.5
c-82 0 -158.333 -18.5 -229 -55.5s-131.667 -88.333 -183 -154s-91.666 -143 -120.999 -232s-44 -185.5 -44 -289.5c0 -66.667 9.83301 -127.334 29.5 -182.001s47.5 -101.5 83.5 -140.5s79.167 -69.333 129.5 -91s106.166 -32.5 167.499 -32.5
c82.667 0 159 18.167 229 54.5s130.5 87 181.5 152s90.833 142.167 119.5 231.5s43 187 43 293zM829.004 1573c-16.667 0 -32.334 3.16699 -47.001 9.5s-27.5 15 -38.5 26s-19.667 23.833 -26 38.5s-9.5 30.334 -9.5 47.001s3.16699 32.334 9.5 47.001s15 27.5 26 38.5
s23.833 19.667 38.5 26s30.334 9.5 47.001 9.5s32.334 -3.16699 47.001 -9.5s27.5 -15 38.5 -26s19.667 -23.833 26 -38.5s9.5 -30.334 9.5 -47.001s-3.16699 -32.334 -9.5 -47.001s-15 -27.5 -26 -38.5s-23.833 -19.667 -38.5 -26s-30.334 -9.5 -47.001 -9.5zM1233 1573
c-16.667 0 -32.334 3.16699 -47.001 9.5s-27.5 15 -38.5 26s-19.667 23.833 -26 38.5s-9.5 30.334 -9.5 47.001s3.16699 32.334 9.5 47.001s15 27.5 26 38.5s23.833 19.667 38.5 26s30.334 9.5 47.001 9.5s32.334 -3.16699 47.001 -9.5s27.5 -15 38.5 -26
s19.667 -23.833 26 -38.5s9.5 -30.334 9.5 -47.001s-3.16699 -32.334 -9.5 -47.001s-15 -27.5 -26 -38.5s-23.833 -19.667 -38.5 -26s-30.334 -9.5 -47.001 -9.5z" />
    <glyph glyph-name="multiply" unicode="&#xd7;" horiz-adv-x="1328" 
d="M711 467l-373 -307l-94 116l373 308l-238 304l126 104l239 -303l373 307l94 -116l-372 -308l233 -300l-126 -104z" />
    <glyph glyph-name="Oslash" unicode="&#xd8;" horiz-adv-x="1551" 
d="M558 208c33.333 -24 70.167 -42.501 110.5 -55.501s84.5 -19.5 132.5 -19.5c82.667 0 159 18.167 229 54.5s130.5 87 181.5 152s90.833 142.167 119.5 231.5s43 187 43 293c0 58.667 -7.66699 112.834 -23 162.501s-37 93.5 -65 131.5zM1198 1242
c-32 22 -67.168 38.833 -105.501 50.5s-79.833 17.5 -124.5 17.5c-82 0 -158.333 -18.5 -229 -55.5s-131.667 -88.333 -183 -154s-91.666 -143 -120.999 -232s-44 -185.5 -44 -289.5c0 -55.333 6.83301 -106.5 20.5 -153.5s33.167 -89.167 58.5 -126.5zM1400 1307
c52 -53.333 92.334 -116.169 121.001 -188.502s43 -151.833 43 -238.5c0 -88 -8.83301 -171.833 -26.5 -251.5s-42.834 -153.334 -75.501 -221.001s-72.167 -128.667 -118.5 -183s-98.166 -100.666 -155.499 -138.999s-119.833 -67.833 -187.5 -88.5
s-138.834 -31 -213.501 -31c-64.667 0 -125.334 8.83301 -182.001 26.5s-108.667 42.5 -156 74.5l-87 -114l-100 76l93 120c-48.667 52.667 -86.5 114 -113.5 184s-40.5 146.667 -40.5 230c0 87.333 8.83301 170.666 26.5 249.999s43 152.833 76 220.5
s72.833 128.834 119.5 183.501s99 101.334 157 140.001s120.833 68.334 188.5 89.001s138.834 31 213.501 31c62 0 120.167 -8 174.5 -24s104.5 -39 150.5 -69l81 104l98 -69z" />
    <glyph glyph-name="Ugrave" unicode="&#xd9;" horiz-adv-x="1524" 
d="M736 -34c-82 0 -154.165 11.667 -216.498 35s-114.5 55.166 -156.5 95.499s-74 87.666 -96 141.999s-33.333 112.833 -34 175.5c-0.666992 21.333 0.166016 42.833 2.49902 64.5s5.83301 43.5 10.5 65.5l188 899h184l-186 -887c-5.33301 -23.333 -9 -46.166 -11 -68.499
s-2.66699 -43.833 -2 -64.5c2 -44 10.5 -84 25.5 -120s36.833 -66.667 65.5 -92s64.5 -44.833 107.5 -58.5s93.167 -20.5 150.5 -20.5c53.333 0 103.5 8.16699 150.5 24.5s89.167 39.833 126.5 70.5s69 68.334 95 113.001s45 95 57 151l203 952h184l-210 -987
c-16.667 -77.333 -42.334 -146.333 -77.001 -207s-78.5 -112 -131.5 -154s-115.333 -74 -187 -96s-152.5 -33 -242.5 -33zM1118 1575h-184l-206 298h206z" />
    <glyph glyph-name="Uacute" unicode="&#xda;" horiz-adv-x="1524" 
d="M736 -34c-82 0 -154.165 11.667 -216.498 35s-114.5 55.166 -156.5 95.499s-74 87.666 -96 141.999s-33.333 112.833 -34 175.5c-0.666992 21.333 0.166016 42.833 2.49902 64.5s5.83301 43.5 10.5 65.5l188 899h184l-186 -887c-5.33301 -23.333 -9 -46.166 -11 -68.499
s-2.66699 -43.833 -2 -64.5c2 -44 10.5 -84 25.5 -120s36.833 -66.667 65.5 -92s64.5 -44.833 107.5 -58.5s93.167 -20.5 150.5 -20.5c53.333 0 103.5 8.16699 150.5 24.5s89.167 39.833 126.5 70.5s69 68.334 95 113.001s45 95 57 151l203 952h184l-210 -987
c-16.667 -77.333 -42.334 -146.333 -77.001 -207s-78.5 -112 -131.5 -154s-115.333 -74 -187 -96s-152.5 -33 -242.5 -33zM1319 1873h226l-395 -298h-204z" />
    <glyph glyph-name="Ucircumflex" unicode="&#xdb;" horiz-adv-x="1524" 
d="M736 -34c-82 0 -154.165 11.667 -216.498 35s-114.5 55.166 -156.5 95.499s-74 87.666 -96 141.999s-33.333 112.833 -34 175.5c-0.666992 21.333 0.166016 42.833 2.49902 64.5s5.83301 43.5 10.5 65.5l188 899h184l-186 -887c-5.33301 -23.333 -9 -46.166 -11 -68.499
s-2.66699 -43.833 -2 -64.5c2 -44 10.5 -84 25.5 -120s36.833 -66.667 65.5 -92s64.5 -44.833 107.5 -58.5s93.167 -20.5 150.5 -20.5c53.333 0 103.5 8.16699 150.5 24.5s89.167 39.833 126.5 70.5s69 68.334 95 113.001s45 95 57 151l203 952h184l-210 -987
c-16.667 -77.333 -42.334 -146.333 -77.001 -207s-78.5 -112 -131.5 -154s-115.333 -74 -187 -96s-152.5 -33 -242.5 -33zM1373 1575h-185l-105 186h-16l-183 -186h-207l310 298h202z" />
    <glyph glyph-name="Udieresis" unicode="&#xdc;" horiz-adv-x="1524" 
d="M736 -34c-82 0 -154.165 11.667 -216.498 35s-114.5 55.166 -156.5 95.499s-74 87.666 -96 141.999s-33.333 112.833 -34 175.5c-0.666992 21.333 0.166016 42.833 2.49902 64.5s5.83301 43.5 10.5 65.5l188 899h184l-186 -887c-5.33301 -23.333 -9 -46.166 -11 -68.499
s-2.66699 -43.833 -2 -64.5c2 -44 10.5 -84 25.5 -120s36.833 -66.667 65.5 -92s64.5 -44.833 107.5 -58.5s93.167 -20.5 150.5 -20.5c53.333 0 103.5 8.16699 150.5 24.5s89.167 39.833 126.5 70.5s69 68.334 95 113.001s45 95 57 151l203 952h184l-210 -987
c-16.667 -77.333 -42.334 -146.333 -77.001 -207s-78.5 -112 -131.5 -154s-115.333 -74 -187 -96s-152.5 -33 -242.5 -33zM860.002 1575c-16.667 0 -32.334 3.16699 -47.001 9.5s-27.5 15 -38.5 26s-19.667 23.833 -26 38.5s-9.5 30.334 -9.5 47.001
s3.16699 32.334 9.5 47.001s15 27.5 26 38.5s23.833 19.667 38.5 26s30.334 9.5 47.001 9.5s32.334 -3.16699 47.001 -9.5s27.5 -15 38.5 -26s19.667 -23.833 26 -38.5s9.5 -30.334 9.5 -47.001s-3.16699 -32.334 -9.5 -47.001s-15 -27.5 -26 -38.5
s-23.833 -19.667 -38.5 -26s-30.334 -9.5 -47.001 -9.5zM1264 1575c-16.667 0 -32.334 3.16699 -47.001 9.5s-27.5 15 -38.5 26s-19.667 23.833 -26 38.5s-9.5 30.334 -9.5 47.001s3.16699 32.334 9.5 47.001s15 27.5 26 38.5s23.833 19.667 38.5 26s30.334 9.5 47.001 9.5
s32.334 -3.16699 47.001 -9.5s27.5 -15 38.5 -26s19.667 -23.833 26 -38.5s9.5 -30.334 9.5 -47.001s-3.16699 -32.334 -9.5 -47.001s-15 -27.5 -26 -38.5s-23.833 -19.667 -38.5 -26s-30.334 -9.5 -47.001 -9.5z" />
    <glyph glyph-name="Yacute" unicode="&#xdd;" horiz-adv-x="1344" 
d="M521 0l132 621l-336 822h187l268 -649h16l526 649h207l-692 -848l-124 -595h-184zM1229 1873h226l-395 -298h-204z" />
    <glyph glyph-name="Thorn" unicode="&#xde;" horiz-adv-x="1280" 
d="M431 1443h179l-57 -266h332c56.667 0 108.667 -8.66699 156 -26s88 -41.666 122 -72.999s60.5 -68.833 79.5 -112.5s28.5 -91.834 28.5 -144.501c0 -70.667 -13.333 -135 -40 -193s-64.167 -107.667 -112.5 -149s-106.5 -73.333 -174.5 -96s-143.333 -34 -226 -34h-340
l-74 -349h-180zM412 509h295c59.333 0 112.333 6.66699 159 20s86 32.666 118 57.999s56.5 56.333 73.5 93s25.5 78.334 25.5 125.001c0 65.333 -21.667 117 -65 155s-108 57 -194 57h-304z" />
    <glyph glyph-name="germandbls" unicode="&#xdf;" horiz-adv-x="1338" 
d="M165 0l228.004 1072c12 55.333 31.167 104.833 57.5 148.5s59 80.667 98 111s83.833 53.5 134.5 69.5s105.667 24 165 24c56.667 0 109.167 -8.16699 157.5 -24.5s90.166 -39 125.499 -68s63 -63.333 83 -103s30 -82.834 30 -129.501s-8 -90 -24 -130
s-38.5 -75.167 -67.5 -105.5s-63.833 -55 -104.5 -74s-85.334 -30.5 -134.001 -34.5l-4 -18c48.667 -5.33301 92.5 -16.333 131.5 -33s72.167 -38.334 99.5 -65.001s48.5 -57.667 63.5 -93s22.5 -74 22.5 -116c0 -64.667 -12.5 -124.5 -37.5 -179.5
s-59.833 -102.5 -104.5 -142.5s-97.834 -71.167 -159.501 -93.5s-128.834 -33.5 -201.501 -33.5c-36 0 -72.667 3 -110 9s-70 14.333 -98 25l33 152c11.333 -4.66699 24.666 -8.83398 39.999 -12.501s31.166 -7 47.499 -10s33 -5.33301 50 -7s32.5 -2.5 46.5 -2.5
c44.667 0 86.667 7.5 126 22.5s73.5 35.5 102.5 61.5s51.833 56.667 68.5 92s25 73 25 113c0 35.333 -7.16699 67.333 -21.5 96s-34.666 53 -60.999 73s-58 35.5 -95 46.5s-78.5 16.5 -124.5 16.5h-71l36 170h79c37.333 0 72.666 6.33301 105.999 19s62.333 30 87 52
s44.167 47.667 58.5 77s21.5 60.666 21.5 93.999c0 30 -5.66699 57.5 -17 82.5s-27.166 46.5 -47.499 64.5s-44.666 31.833 -72.999 41.5s-59.833 14.5 -94.5 14.5c-73.333 0 -134.333 -21.667 -183 -65s-81.667 -105.333 -99 -186l-217 -1021h-174z" />
    <glyph glyph-name="agrave" unicode="&#xe0;" horiz-adv-x="1126" 
d="M490 130c40.667 0 79.1699 6.33301 115.503 19s69.166 30.167 98.499 52.5s54.166 49 74.499 80s34.5 64.833 42.5 101.5l27 124l-287 -14c-88.667 -4.66699 -157.167 -24.167 -205.5 -58.5s-72.5 -79.833 -72.5 -136.5c0 -24.667 5 -47.167 15 -67.5
s24.167 -38 42.5 -53s40.166 -26.667 65.499 -35s53.333 -12.5 84 -12.5zM436.003 -19c-47.333 0 -91 7.66699 -131 23s-74.833 36.333 -104.5 63s-52.834 58.167 -69.501 94.5s-25 75.5 -25 117.5c0 52.667 10.167 100.167 30.5 142.5s50.333 78.5 90 108.5
s88.334 53.667 146.001 71s123.834 27.666 198.501 30.999l306 14l16 73c2 11.333 3.5 20.666 4.5 27.999s1.5 15 1.5 23c0 54.667 -20.333 97.167 -61 127.5s-97.334 45.5 -170.001 45.5c-60.667 0 -111.334 -11.5 -152.001 -34.5s-69.667 -56.5 -87 -100.5h-182
c12 44.667 31.167 84.834 57.5 120.501s58.333 66 96 91s80.334 44.167 128.001 57.5s98.834 20 153.501 20c59.333 0 113.166 -7.16699 161.499 -21.5s89.5 -34.666 123.5 -60.999s60.333 -58 79 -95s28 -78.5 28 -124.5c0 -28.667 -3 -58 -9 -88l-150 -707h-167l30 141
h-16c-38 -50 -85.333 -89.167 -142 -117.5s-118 -42.5 -184 -42.5zM609.003 1263l-206 338h214l180 -338h-188z" />
    <glyph glyph-name="aacute" unicode="&#xe1;" horiz-adv-x="1126" 
d="M490 130c40.667 0 79.1699 6.33301 115.503 19s69.166 30.167 98.499 52.5s54.166 49 74.499 80s34.5 64.833 42.5 101.5l27 124l-287 -14c-88.667 -4.66699 -157.167 -24.167 -205.5 -58.5s-72.5 -79.833 -72.5 -136.5c0 -24.667 5 -47.167 15 -67.5
s24.167 -38 42.5 -53s40.166 -26.667 65.499 -35s53.333 -12.5 84 -12.5zM436.003 -19c-47.333 0 -91 7.66699 -131 23s-74.833 36.333 -104.5 63s-52.834 58.167 -69.501 94.5s-25 75.5 -25 117.5c0 52.667 10.167 100.167 30.5 142.5s50.333 78.5 90 108.5
s88.334 53.667 146.001 71s123.834 27.666 198.501 30.999l306 14l16 73c2 11.333 3.5 20.666 4.5 27.999s1.5 15 1.5 23c0 54.667 -20.333 97.167 -61 127.5s-97.334 45.5 -170.001 45.5c-60.667 0 -111.334 -11.5 -152.001 -34.5s-69.667 -56.5 -87 -100.5h-182
c12 44.667 31.167 84.834 57.5 120.501s58.333 66 96 91s80.334 44.167 128.001 57.5s98.834 20 153.501 20c59.333 0 113.166 -7.16699 161.499 -21.5s89.5 -34.666 123.5 -60.999s60.333 -58 79 -95s28 -78.5 28 -124.5c0 -28.667 -3 -58 -9 -88l-150 -707h-167l30 141
h-16c-38 -50 -85.333 -89.167 -142 -117.5s-118 -42.5 -184 -42.5zM965.003 1601h220l-350 -338h-194z" />
    <glyph glyph-name="acircumflex" unicode="&#xe2;" horiz-adv-x="1126" 
d="M490 130c40.667 0 79.1699 6.33301 115.503 19s69.166 30.167 98.499 52.5s54.166 49 74.499 80s34.5 64.833 42.5 101.5l27 124l-287 -14c-88.667 -4.66699 -157.167 -24.167 -205.5 -58.5s-72.5 -79.833 -72.5 -136.5c0 -24.667 5 -47.167 15 -67.5
s24.167 -38 42.5 -53s40.166 -26.667 65.499 -35s53.333 -12.5 84 -12.5zM436.003 -19c-47.333 0 -91 7.66699 -131 23s-74.833 36.333 -104.5 63s-52.834 58.167 -69.501 94.5s-25 75.5 -25 117.5c0 52.667 10.167 100.167 30.5 142.5s50.333 78.5 90 108.5
s88.334 53.667 146.001 71s123.834 27.666 198.501 30.999l306 14l16 73c2 11.333 3.5 20.666 4.5 27.999s1.5 15 1.5 23c0 54.667 -20.333 97.167 -61 127.5s-97.334 45.5 -170.001 45.5c-60.667 0 -111.334 -11.5 -152.001 -34.5s-69.667 -56.5 -87 -100.5h-182
c12 44.667 31.167 84.834 57.5 120.501s58.333 66 96 91s80.334 44.167 128.001 57.5s98.834 20 153.501 20c59.333 0 113.166 -7.16699 161.499 -21.5s89.5 -34.666 123.5 -60.999s60.333 -58 79 -95s28 -78.5 28 -124.5c0 -28.667 -3 -58 -9 -88l-150 -707h-167l30 141
h-16c-38 -50 -85.333 -89.167 -142 -117.5s-118 -42.5 -184 -42.5zM1103 1228h-187l-129 227h-16l-225 -227h-209l354 340h202z" />
    <glyph glyph-name="atilde" unicode="&#xe3;" horiz-adv-x="1126" 
d="M490 130c40.667 0 79.1699 6.33301 115.503 19s69.166 30.167 98.499 52.5s54.166 49 74.499 80s34.5 64.833 42.5 101.5l27 124l-287 -14c-88.667 -4.66699 -157.167 -24.167 -205.5 -58.5s-72.5 -79.833 -72.5 -136.5c0 -24.667 5 -47.167 15 -67.5
s24.167 -38 42.5 -53s40.166 -26.667 65.499 -35s53.333 -12.5 84 -12.5zM436.003 -19c-47.333 0 -91 7.66699 -131 23s-74.833 36.333 -104.5 63s-52.834 58.167 -69.501 94.5s-25 75.5 -25 117.5c0 52.667 10.167 100.167 30.5 142.5s50.333 78.5 90 108.5
s88.334 53.667 146.001 71s123.834 27.666 198.501 30.999l306 14l16 73c2 11.333 3.5 20.666 4.5 27.999s1.5 15 1.5 23c0 54.667 -20.333 97.167 -61 127.5s-97.334 45.5 -170.001 45.5c-60.667 0 -111.334 -11.5 -152.001 -34.5s-69.667 -56.5 -87 -100.5h-182
c12 44.667 31.167 84.834 57.5 120.501s58.333 66 96 91s80.334 44.167 128.001 57.5s98.834 20 153.501 20c59.333 0 113.166 -7.16699 161.499 -21.5s89.5 -34.666 123.5 -60.999s60.333 -58 79 -95s28 -78.5 28 -124.5c0 -28.667 -3 -58 -9 -88l-150 -707h-167l30 141
h-16c-38 -50 -85.333 -89.167 -142 -117.5s-118 -42.5 -184 -42.5zM927.003 1217c-29.333 0 -54.834 4.5 -76.501 13.5s-41 20.333 -58 34s-32 28.5 -45 44.5s-25.667 30.833 -38 44.5s-25 25 -38 34s-27.5 13.5 -43.5 13.5c-30 0 -54.167 -11.167 -72.5 -33.5
s-32.166 -57.5 -41.499 -105.5h-142c5.33301 44.667 15.666 84 30.999 118s34.666 62.5 57.999 85.5s49.833 40.5 79.5 52.5s61.167 18 94.5 18c29.333 0 54.666 -4.5 75.999 -13.5s40.333 -20.333 57 -34s31.667 -28.5 45 -44.5l38.5 -44.5
c12.333 -13.667 24.833 -25 37.5 -34s27.334 -13.5 44.001 -13.5c30 0 54.333 11.167 73 33.5s32.667 57.5 42 105.5h142c-5.33301 -44.667 -15.666 -84 -30.999 -118s-34.666 -62.5 -57.999 -85.5s-49.833 -40.5 -79.5 -52.5s-61.167 -18 -94.5 -18z" />
    <glyph glyph-name="adieresis" unicode="&#xe4;" horiz-adv-x="1126" 
d="M490 130c40.667 0 79.1699 6.33301 115.503 19s69.166 30.167 98.499 52.5s54.166 49 74.499 80s34.5 64.833 42.5 101.5l27 124l-287 -14c-88.667 -4.66699 -157.167 -24.167 -205.5 -58.5s-72.5 -79.833 -72.5 -136.5c0 -24.667 5 -47.167 15 -67.5
s24.167 -38 42.5 -53s40.166 -26.667 65.499 -35s53.333 -12.5 84 -12.5zM436.003 -19c-47.333 0 -91 7.66699 -131 23s-74.833 36.333 -104.5 63s-52.834 58.167 -69.501 94.5s-25 75.5 -25 117.5c0 52.667 10.167 100.167 30.5 142.5s50.333 78.5 90 108.5
s88.334 53.667 146.001 71s123.834 27.666 198.501 30.999l306 14l16 73c2 11.333 3.5 20.666 4.5 27.999s1.5 15 1.5 23c0 54.667 -20.333 97.167 -61 127.5s-97.334 45.5 -170.001 45.5c-60.667 0 -111.334 -11.5 -152.001 -34.5s-69.667 -56.5 -87 -100.5h-182
c12 44.667 31.167 84.834 57.5 120.501s58.333 66 96 91s80.334 44.167 128.001 57.5s98.834 20 153.501 20c59.333 0 113.166 -7.16699 161.499 -21.5s89.5 -34.666 123.5 -60.999s60.333 -58 79 -95s28 -78.5 28 -124.5c0 -28.667 -3 -58 -9 -88l-150 -707h-167l30 141
h-16c-38 -50 -85.333 -89.167 -142 -117.5s-118 -42.5 -184 -42.5zM554.003 1228c-16.667 0 -32.334 3.16699 -47.001 9.5s-27.5 15 -38.5 26s-19.667 23.833 -26 38.5s-9.5 30.334 -9.5 47.001s3.16699 32.334 9.5 47.001s15 27.5 26 38.5s23.833 19.667 38.5 26
s30.334 9.5 47.001 9.5s32.334 -3.16699 47.001 -9.5s27.5 -15 38.5 -26s19.667 -23.833 26 -38.5s9.5 -30.334 9.5 -47.001s-3.16699 -32.334 -9.5 -47.001s-15 -27.5 -26 -38.5s-23.833 -19.667 -38.5 -26s-30.334 -9.5 -47.001 -9.5zM958.003 1228
c-16.667 0 -32.334 3.16699 -47.001 9.5s-27.5 15 -38.5 26s-19.667 23.833 -26 38.5s-9.5 30.334 -9.5 47.001s3.16699 32.334 9.5 47.001s15 27.5 26 38.5s23.833 19.667 38.5 26s30.334 9.5 47.001 9.5s32.334 -3.16699 47.001 -9.5s27.5 -15 38.5 -26
s19.667 -23.833 26 -38.5s9.5 -30.334 9.5 -47.001s-3.16699 -32.334 -9.5 -47.001s-15 -27.5 -26 -38.5s-23.833 -19.667 -38.5 -26s-30.334 -9.5 -47.001 -9.5z" />
    <glyph glyph-name="aring" unicode="&#xe5;" horiz-adv-x="1126" 
d="M490 130c40.667 0 79.1699 6.33301 115.503 19s69.166 30.167 98.499 52.5s54.166 49 74.499 80s34.5 64.833 42.5 101.5l27 124l-287 -14c-88.667 -4.66699 -157.167 -24.167 -205.5 -58.5s-72.5 -79.833 -72.5 -136.5c0 -24.667 5 -47.167 15 -67.5
s24.167 -38 42.5 -53s40.166 -26.667 65.499 -35s53.333 -12.5 84 -12.5zM436.003 -19c-47.333 0 -91 7.66699 -131 23s-74.833 36.333 -104.5 63s-52.834 58.167 -69.501 94.5s-25 75.5 -25 117.5c0 52.667 10.167 100.167 30.5 142.5s50.333 78.5 90 108.5
s88.334 53.667 146.001 71s123.834 27.666 198.501 30.999l306 14l16 73c2 11.333 3.5 20.666 4.5 27.999s1.5 15 1.5 23c0 54.667 -20.333 97.167 -61 127.5s-97.334 45.5 -170.001 45.5c-60.667 0 -111.334 -11.5 -152.001 -34.5s-69.667 -56.5 -87 -100.5h-182
c12 44.667 31.167 84.834 57.5 120.501s58.333 66 96 91s80.334 44.167 128.001 57.5s98.834 20 153.501 20c59.333 0 113.166 -7.16699 161.499 -21.5s89.5 -34.666 123.5 -60.999s60.333 -58 79 -95s28 -78.5 28 -124.5c0 -28.667 -3 -58 -9 -88l-150 -707h-167l30 141
h-16c-38 -50 -85.333 -89.167 -142 -117.5s-118 -42.5 -184 -42.5zM780.003 1228c-32 0 -62.167 5.83301 -90.5 17.5s-53 27.834 -74 48.501s-37.5 45 -49.5 73s-18 58 -18 90s6 62 18 90s28.5 52.333 49.5 73s45.667 36.834 74 48.501s58.5 17.5 90.5 17.5
s62 -5.83301 90 -17.5s52.5 -27.834 73.5 -48.501s37.667 -45 50 -73s18.5 -58 18.5 -90s-6.16699 -62 -18.5 -90s-29 -52.333 -50 -73s-45.5 -36.834 -73.5 -48.501s-58 -17.5 -90 -17.5zM780.003 1334c17.333 0 33.5 3.16699 48.5 9.5s28 15 39 26s19.5 24 25.5 39
s9 31.167 9 48.5s-3 33.5 -9 48.5s-14.5 28 -25.5 39s-24 19.667 -39 26s-31.167 9.5 -48.5 9.5s-33.5 -3.16699 -48.5 -9.5s-28 -15 -39 -26s-19.5 -24 -25.5 -39s-9 -31.167 -9 -48.5s3 -33.5 9 -48.5s14.5 -28 25.5 -39s24 -19.667 39 -26s31.167 -9.5 48.5 -9.5z" />
    <glyph glyph-name="ae" unicode="&#xe6;" horiz-adv-x="1866" 
d="M1273 -19c-41.333 0 -81.835 5.49902 -121.502 16.499s-76.667 27 -111 48s-64.666 46.167 -90.999 75.5s-46.833 62.666 -61.5 99.999h-15c-18.667 -32 -42.5 -62.5 -71.5 -91.5s-61.5 -54.5 -97.5 -76.5s-75 -39.5 -117 -52.5s-85.667 -19.5 -131 -19.5
c-52 0 -99.5 7.66699 -142.5 23s-79.833 36.333 -110.5 63s-54.5 58.167 -71.5 94.5s-25.5 75.5 -25.5 117.5c0 53.333 10.167 101 30.5 143s50.333 78 90 108s88.334 53.667 146.001 71s123.834 27.666 198.501 30.999l306 14l16 73c2 11.333 3.5 20.666 4.5 27.999
s1.5 15 1.5 23c0 54.667 -20.333 97.167 -61 127.5s-97.334 45.5 -170.001 45.5c-60.667 0 -111.334 -11.5 -152.001 -34.5s-69.667 -56.5 -87 -100.5h-182c12 44.667 31.167 84.834 57.5 120.501s58.333 66 96 91s80.334 44.167 128.001 57.5s98.834 20 153.501 20
c80.667 0 151 -14.167 211 -42.5s105 -70.166 135 -125.499h16c45.333 54 98.833 95.5 160.5 124.5s129.5 43.5 203.5 43.5c55.333 0 107.833 -9.66699 157.5 -29s93.167 -47.5 130.5 -84.5s67 -82.5 89 -136.5s33 -116 33 -186c0 -10.667 -0.333008 -23.167 -1 -37.5
s-1.66699 -29 -3 -44l-4 -44c-1.33301 -14.333 -3 -26.5 -5 -36.5h-777c-0.666992 -9.33301 -1.16699 -18.666 -1.5 -27.999s-0.5 -18.666 -0.5 -27.999c0 -55.333 8 -102.333 24 -141s36.833 -70.167 62.5 -94.5s54.5 -42 86.5 -53s64.333 -16.5 97 -16.5
c71.333 0 128.666 12.333 171.999 37s76.333 58 99 100h183c-11.333 -41.333 -30.166 -80 -56.499 -116s-59.833 -67.167 -100.5 -93.5s-87.834 -47 -141.501 -62s-113.167 -22.5 -178.5 -22.5zM1636 637.999c0.666992 3.33301 1.16797 9.5 1.50098 18.5
s0.5 17.833 0.5 26.5c0 35.333 -5.16699 68.833 -15.5 100.5s-25.833 59.5 -46.5 83.5s-46.334 43 -77.001 57s-66.334 21 -107.001 21c-41.333 0 -80 -7.33301 -116 -22s-68.667 -35.5 -98 -62.5s-54.666 -59.333 -75.999 -97s-38.333 -79.5 -51 -125.5h585z
M489.999 129.999c40.667 0 79.1699 6.33301 115.503 19s69.166 30.167 98.499 52.5s54.166 49 74.499 80s34.5 64.833 42.5 101.5l27 124l-287 -14c-88.667 -4.66699 -157.167 -24.167 -205.5 -58.5s-72.5 -79.833 -72.5 -136.5c0 -24.667 5 -47.167 15 -67.5
s24.167 -38 42.5 -53s40.166 -26.667 65.499 -35s53.333 -12.5 84 -12.5z" />
    <glyph glyph-name="ccedilla" unicode="&#xe7;" horiz-adv-x="1146" 
d="M967 748c-2.66699 28 -11.1621 53.833 -25.4951 77.5s-32.833 44.167 -55.5 61.5s-49 30.833 -79 40.5s-62 14.5 -96 14.5c-53.333 0 -102.833 -12.333 -148.5 -37s-85.167 -58.5 -118.5 -101.5s-59.5 -93.833 -78.5 -152.5s-28.5 -122 -28.5 -190
c0 -50 6.33301 -95 19 -135s30.667 -74 54 -102s51.666 -49.333 84.999 -64s70.666 -22 111.999 -22c66.667 0 124 14.833 172 44.5s82.333 71.5 103 125.5h179c-10.667 -48 -29.5 -91.833 -56.5 -131.5s-60.333 -73.667 -100 -102s-84.667 -50.666 -135 -66.999
s-104.166 -25.166 -161.499 -26.499l-75 -121c119.333 -13.333 179 -65.333 179 -156c0 -28.667 -6.16699 -54.834 -18.5 -78.501s-29.333 -44.167 -51 -61.5s-47.667 -30.833 -78 -40.5s-63.5 -14.5 -99.5 -14.5c-28.667 0 -58.834 3.16699 -90.501 9.5
s-59.834 15.166 -84.501 26.499l23 108c8.66699 -4 19.167 -7.66699 31.5 -11s25.166 -6.16602 38.499 -8.49902s26.666 -4.33301 39.999 -6s25.666 -2.5 36.999 -2.5c32 0 57.333 6.33301 76 19s28 29.667 28 51c0 23.333 -11.333 41.166 -34 53.499s-56 18.5 -100 18.5
h-53l13 90l85 137c-48.667 11.333 -92.667 30 -132 56s-72.833 58 -100.5 96s-49 81.667 -64 131s-22.5 103 -22.5 161c0 94.667 14.167 182.167 42.5 262.5s67.833 149.833 118.5 208.5s110.834 104.667 180.501 138s145.5 50 227.5 50c53.333 0 103.333 -7.5 150 -22.5
s88 -35.833 124 -62.5s66.167 -58.5 90.5 -95.5s40.5 -77.5 48.5 -121.5c1.33301 -7.33301 2.33301 -15 3 -23l2 -24h-176z" />
    <glyph glyph-name="egrave" unicode="&#xe8;" horiz-adv-x="1170" 
d="M595 -19c-60 0 -116.666 9.83301 -169.999 29.5s-99.833 48.667 -139.5 87s-71 85.5 -94 141.5s-34.5 120.333 -34.5 193c0 99.333 13.833 189.833 41.5 271.5s66.167 151.667 115.5 210s108.5 103.5 177.5 135.5s144.5 48 226.5 48c55.333 0 107.833 -9.66699 157.5 -29
s93.167 -47.5 130.5 -84.5s67 -82.5 89 -136.5s33 -116 33 -186c0 -10.667 -0.333008 -23.167 -1 -37.5s-1.66699 -29 -3 -44l-4 -44c-1.33301 -14.333 -3 -26.5 -5 -36.5h-777c-0.666992 -9.33301 -1.16699 -18.333 -1.5 -27s-0.5 -17.667 -0.5 -27
c0 -55.333 8 -102.5 24 -141.5s36.833 -70.833 62.5 -95.5s54.5 -42.5 86.5 -53.5s64.333 -16.5 97 -16.5c71.333 0 128.666 12.333 171.999 37s76.333 58 99 100h183c-11.333 -41.333 -30 -80 -56 -116s-58.833 -67.167 -98.5 -93.5s-85.667 -47 -138 -62
s-109.833 -22.5 -172.5 -22.5zM946.001 638c0.666992 3.33301 1.16797 9.5 1.50098 18.5s0.5 17.833 0.5 26.5c0 35.333 -5.16699 68.833 -15.5 100.5s-25.833 59.5 -46.5 83.5s-46.334 43 -77.001 57s-66.334 21 -107.001 21c-41.333 0 -80 -7.33301 -116 -22
s-68.667 -35.5 -98 -62.5s-54.666 -59.333 -75.999 -97s-38.333 -79.5 -51 -125.5h585zM620.002 1263l-206 338h214l180 -338h-188z" />
    <glyph glyph-name="eacute" unicode="&#xe9;" horiz-adv-x="1170" 
d="M595 -19c-60 0 -116.666 9.83301 -169.999 29.5s-99.833 48.667 -139.5 87s-71 85.5 -94 141.5s-34.5 120.333 -34.5 193c0 99.333 13.833 189.833 41.5 271.5s66.167 151.667 115.5 210s108.5 103.5 177.5 135.5s144.5 48 226.5 48c55.333 0 107.833 -9.66699 157.5 -29
s93.167 -47.5 130.5 -84.5s67 -82.5 89 -136.5s33 -116 33 -186c0 -10.667 -0.333008 -23.167 -1 -37.5s-1.66699 -29 -3 -44l-4 -44c-1.33301 -14.333 -3 -26.5 -5 -36.5h-777c-0.666992 -9.33301 -1.16699 -18.333 -1.5 -27s-0.5 -17.667 -0.5 -27
c0 -55.333 8 -102.5 24 -141.5s36.833 -70.833 62.5 -95.5s54.5 -42.5 86.5 -53.5s64.333 -16.5 97 -16.5c71.333 0 128.666 12.333 171.999 37s76.333 58 99 100h183c-11.333 -41.333 -30 -80 -56 -116s-58.833 -67.167 -98.5 -93.5s-85.667 -47 -138 -62
s-109.833 -22.5 -172.5 -22.5zM946.001 638c0.666992 3.33301 1.16797 9.5 1.50098 18.5s0.5 17.833 0.5 26.5c0 35.333 -5.16699 68.833 -15.5 100.5s-25.833 59.5 -46.5 83.5s-46.334 43 -77.001 57s-66.334 21 -107.001 21c-41.333 0 -80 -7.33301 -116 -22
s-68.667 -35.5 -98 -62.5s-54.666 -59.333 -75.999 -97s-38.333 -79.5 -51 -125.5h585zM976.002 1601h220l-350 -338h-194z" />
    <glyph glyph-name="ecircumflex" unicode="&#xea;" horiz-adv-x="1170" 
d="M595 -19c-60 0 -116.666 9.83301 -169.999 29.5s-99.833 48.667 -139.5 87s-71 85.5 -94 141.5s-34.5 120.333 -34.5 193c0 99.333 13.833 189.833 41.5 271.5s66.167 151.667 115.5 210s108.5 103.5 177.5 135.5s144.5 48 226.5 48c55.333 0 107.833 -9.66699 157.5 -29
s93.167 -47.5 130.5 -84.5s67 -82.5 89 -136.5s33 -116 33 -186c0 -10.667 -0.333008 -23.167 -1 -37.5s-1.66699 -29 -3 -44l-4 -44c-1.33301 -14.333 -3 -26.5 -5 -36.5h-777c-0.666992 -9.33301 -1.16699 -18.333 -1.5 -27s-0.5 -17.667 -0.5 -27
c0 -55.333 8 -102.5 24 -141.5s36.833 -70.833 62.5 -95.5s54.5 -42.5 86.5 -53.5s64.333 -16.5 97 -16.5c71.333 0 128.666 12.333 171.999 37s76.333 58 99 100h183c-11.333 -41.333 -30 -80 -56 -116s-58.833 -67.167 -98.5 -93.5s-85.667 -47 -138 -62
s-109.833 -22.5 -172.5 -22.5zM946.001 638c0.666992 3.33301 1.16797 9.5 1.50098 18.5s0.5 17.833 0.5 26.5c0 35.333 -5.16699 68.833 -15.5 100.5s-25.833 59.5 -46.5 83.5s-46.334 43 -77.001 57s-66.334 21 -107.001 21c-41.333 0 -80 -7.33301 -116 -22
s-68.667 -35.5 -98 -62.5s-54.666 -59.333 -75.999 -97s-38.333 -79.5 -51 -125.5h585zM1114 1228h-187l-129 227h-16l-225 -227h-209l354 340h202z" />
    <glyph glyph-name="edieresis" unicode="&#xeb;" horiz-adv-x="1170" 
d="M595 -19c-60 0 -116.666 9.83301 -169.999 29.5s-99.833 48.667 -139.5 87s-71 85.5 -94 141.5s-34.5 120.333 -34.5 193c0 99.333 13.833 189.833 41.5 271.5s66.167 151.667 115.5 210s108.5 103.5 177.5 135.5s144.5 48 226.5 48c55.333 0 107.833 -9.66699 157.5 -29
s93.167 -47.5 130.5 -84.5s67 -82.5 89 -136.5s33 -116 33 -186c0 -10.667 -0.333008 -23.167 -1 -37.5s-1.66699 -29 -3 -44l-4 -44c-1.33301 -14.333 -3 -26.5 -5 -36.5h-777c-0.666992 -9.33301 -1.16699 -18.333 -1.5 -27s-0.5 -17.667 -0.5 -27
c0 -55.333 8 -102.5 24 -141.5s36.833 -70.833 62.5 -95.5s54.5 -42.5 86.5 -53.5s64.333 -16.5 97 -16.5c71.333 0 128.666 12.333 171.999 37s76.333 58 99 100h183c-11.333 -41.333 -30 -80 -56 -116s-58.833 -67.167 -98.5 -93.5s-85.667 -47 -138 -62
s-109.833 -22.5 -172.5 -22.5zM946.001 638c0.666992 3.33301 1.16797 9.5 1.50098 18.5s0.5 17.833 0.5 26.5c0 35.333 -5.16699 68.833 -15.5 100.5s-25.833 59.5 -46.5 83.5s-46.334 43 -77.001 57s-66.334 21 -107.001 21c-41.333 0 -80 -7.33301 -116 -22
s-68.667 -35.5 -98 -62.5s-54.666 -59.333 -75.999 -97s-38.333 -79.5 -51 -125.5h585zM565.002 1228c-16.667 0 -32.334 3.16699 -47.001 9.5s-27.5 15 -38.5 26s-19.667 23.833 -26 38.5s-9.5 30.334 -9.5 47.001s3.16699 32.334 9.5 47.001s15 27.5 26 38.5
s23.833 19.667 38.5 26s30.334 9.5 47.001 9.5s32.334 -3.16699 47.001 -9.5s27.5 -15 38.5 -26s19.667 -23.833 26 -38.5s9.5 -30.334 9.5 -47.001s-3.16699 -32.334 -9.5 -47.001s-15 -27.5 -26 -38.5s-23.833 -19.667 -38.5 -26s-30.334 -9.5 -47.001 -9.5zM969.002 1228
c-16.667 0 -32.334 3.16699 -47.001 9.5s-27.5 15 -38.5 26s-19.667 23.833 -26 38.5s-9.5 30.334 -9.5 47.001s3.16699 32.334 9.5 47.001s15 27.5 26 38.5s23.833 19.667 38.5 26s30.334 9.5 47.001 9.5s32.334 -3.16699 47.001 -9.5s27.5 -15 38.5 -26
s19.667 -23.833 26 -38.5s9.5 -30.334 9.5 -47.001s-3.16699 -32.334 -9.5 -47.001s-15 -27.5 -26 -38.5s-23.833 -19.667 -38.5 -26s-30.334 -9.5 -47.001 -9.5z" />
    <glyph glyph-name="igrave" unicode="&#xec;" horiz-adv-x="516" 
d="M341 1078h172l-229 -1078h-172zM337 1263l-206 338h214l180 -338h-188z" />
    <glyph glyph-name="iacute" unicode="&#xed;" horiz-adv-x="516" 
d="M341 1078h172l-229 -1078h-172zM693 1601h220l-350 -338h-194z" />
    <glyph glyph-name="icircumflex" unicode="&#xee;" horiz-adv-x="516" 
d="M341 1078h172l-229 -1078h-172zM831 1228h-187l-129 227h-16l-225 -227h-209l354 340h202z" />
    <glyph glyph-name="idieresis" unicode="&#xef;" horiz-adv-x="516" 
d="M341 1078h172l-229 -1078h-172zM282 1228c-16.667 0 -32.334 3.16699 -47.001 9.5s-27.5 15 -38.5 26s-19.667 23.833 -26 38.5s-9.5 30.334 -9.5 47.001s3.16699 32.334 9.5 47.001s15 27.5 26 38.5s23.833 19.667 38.5 26s30.334 9.5 47.001 9.5
s32.334 -3.16699 47.001 -9.5s27.5 -15 38.5 -26s19.667 -23.833 26 -38.5s9.5 -30.334 9.5 -47.001s-3.16699 -32.334 -9.5 -47.001s-15 -27.5 -26 -38.5s-23.833 -19.667 -38.5 -26s-30.334 -9.5 -47.001 -9.5zM686 1228c-16.667 0 -32.334 3.16699 -47.001 9.5
s-27.5 15 -38.5 26s-19.667 23.833 -26 38.5s-9.5 30.334 -9.5 47.001s3.16699 32.334 9.5 47.001s15 27.5 26 38.5s23.833 19.667 38.5 26s30.334 9.5 47.001 9.5s32.334 -3.16699 47.001 -9.5s27.5 -15 38.5 -26s19.667 -23.833 26 -38.5s9.5 -30.334 9.5 -47.001
s-3.16699 -32.334 -9.5 -47.001s-15 -27.5 -26 -38.5s-23.833 -19.667 -38.5 -26s-30.334 -9.5 -47.001 -9.5z" />
    <glyph glyph-name="eth" unicode="&#xf0;" horiz-adv-x="1188" 
d="M588 -19c-66 0 -126.331 10.668 -180.998 32.001s-101.667 50.833 -141 88.5s-70 82.334 -92 134.001s-33 107.5 -33 167.5c0 92.667 13.167 179.167 39.5 259.5s63 150 110 209s102.5 105.5 166.5 139.5s133.667 51 209 51c38.667 0 76 -5 112 -15
s69.167 -23.667 99.5 -41s56.833 -38.333 79.5 -63s39.667 -51.334 51 -80.001l15 -1c-2 61.333 -12.5 124.333 -31.5 189s-45.833 130 -80.5 196l-351 -106l-7 128l292 89c-13.333 18.667 -29.5 39.667 -48.5 63l-73.5 86h191l47.5 -57.5
c13 -16.333 24.167 -31.833 33.5 -46.5l233 71l8 -128l-181 -55c20.667 -44 38.667 -86.5 54 -127.5s27.666 -81.5 36.999 -121.5s16.333 -80.167 21 -120.5s7 -81.833 7 -124.5c0 -58.667 -3.33301 -114.834 -10 -168.501s-16.334 -104.5 -29.001 -152.5
c-20 -76.667 -47.333 -145.5 -82 -206.5s-75.5 -112.833 -122.5 -155.5s-99.333 -75.5 -157 -98.5s-119.5 -34.5 -185.5 -34.5zM981.002 607.001c0 43.333 -7.33203 83.1689 -21.999 119.502s-35 67.5 -61 93.5s-57 46.333 -93 61s-75.333 22 -118 22
c-52 0 -100.167 -11.833 -144.5 -35.5s-82.833 -56.5 -115.5 -98.5s-58.167 -91.667 -76.5 -149s-27.5 -119.333 -27.5 -186c0 -46 6.5 -87.333 19.5 -124s31.667 -67.834 56 -93.501s53.666 -45.334 87.999 -59.001s72.833 -20.5 115.5 -20.5c49.333 0 96.833 13 142.5 39
s86 60.667 121 104s63 93.333 84 150s31.5 115.667 31.5 177z" />
    <glyph glyph-name="ntilde" unicode="&#xf1;" horiz-adv-x="1215" 
d="M329 1078l167.001 -0.00390625l-34 -161h16c16.667 24 36 46.833 58 68.5s47 40.834 75 57.501s59 29.834 93 39.501s71 14.5 111 14.5c52 0 99 -8.83301 141 -26.5s77.833 -41.5 107.5 -71.5s52.667 -64.5 69 -103.5s24.5 -79.833 24.5 -122.5
c0 -37.333 -4.66699 -78.666 -14 -123.999l-138 -649h-175l132 619c4 19.333 7.16699 37.833 9.5 55.5s3.5 34.167 3.5 49.5c0 32.667 -5.33301 62.334 -16 89.001s-26.167 49.5 -46.5 68.5s-44.833 33.833 -73.5 44.5s-61 16 -97 16c-41.333 0 -80 -7.16699 -116 -21.5
s-68.167 -34.166 -96.5 -59.499s-52.333 -55.333 -72 -90s-33.834 -72.334 -42.501 -113.001l-140 -658h-175zM1010 1217c-29.333 0 -54.834 4.5 -76.501 13.5s-41 20.333 -58 34s-32 28.5 -45 44.5s-25.667 30.833 -38 44.5s-25 25 -38 34s-27.5 13.5 -43.5 13.5
c-30 0 -54.167 -11.167 -72.5 -33.5s-32.166 -57.5 -41.499 -105.5h-142c5.33301 44.667 15.666 84 30.999 118s34.666 62.5 57.999 85.5s49.833 40.5 79.5 52.5s61.167 18 94.5 18c29.333 0 54.666 -4.5 75.999 -13.5s40.333 -20.333 57 -34s31.667 -28.5 45 -44.5
l38.5 -44.5c12.333 -13.667 24.833 -25 37.5 -34s27.334 -13.5 44.001 -13.5c30 0 54.333 11.167 73 33.5s32.667 57.5 42 105.5h142c-5.33301 -44.667 -15.666 -84 -30.999 -118s-34.666 -62.5 -57.999 -85.5s-49.833 -40.5 -79.5 -52.5s-61.167 -18 -94.5 -18z" />
    <glyph glyph-name="ograve" unicode="&#xf2;" horiz-adv-x="1210" 
d="M338 448c0 -44.667 6.33301 -86 19 -124s31 -71 55 -99s53.333 -49.833 88 -65.5s74 -23.5 118 -23.5c46.667 0 92 11.667 136 35s82.833 56 116.5 98s60.667 92.167 81 150.5s30.5 122.5 30.5 192.5c0 51.333 -6.16699 97.5 -18.5 138.5s-30.333 75.667 -54 104
s-52.167 50 -85.5 65s-71 22.5 -113 22.5c-58 0 -110 -12.5 -156 -37.5s-85.167 -59.5 -117.5 -103.5s-57 -96.167 -74 -156.5s-25.5 -125.833 -25.5 -196.5zM596 -19c-66 0 -126.003 10.999 -180.003 32.999s-100.333 52.667 -139 92s-68.667 86.333 -90 141
s-32 114.667 -32 180c0 90.667 13 176.667 39 258s63.5 152.5 112.5 213.5s108.833 109.333 179.5 145s151 53.5 241 53.5c66 0 126 -11 180 -33s100.167 -52.667 138.5 -92s68 -86.166 89 -140.499s31.5 -113.833 31.5 -178.5c0 -58 -5.66699 -115 -17 -171
s-28.166 -108.833 -50.499 -158.5s-49.666 -95.5 -81.999 -137.5s-69.666 -78.167 -111.999 -108.5s-89.333 -54 -141 -71s-107.5 -25.5 -167.5 -25.5zM634.997 1263l-206 338h214l180 -338h-188z" />
    <glyph glyph-name="oacute" unicode="&#xf3;" horiz-adv-x="1210" 
d="M338 448c0 -44.667 6.33301 -86 19 -124s31 -71 55 -99s53.333 -49.833 88 -65.5s74 -23.5 118 -23.5c46.667 0 92 11.667 136 35s82.833 56 116.5 98s60.667 92.167 81 150.5s30.5 122.5 30.5 192.5c0 51.333 -6.16699 97.5 -18.5 138.5s-30.333 75.667 -54 104
s-52.167 50 -85.5 65s-71 22.5 -113 22.5c-58 0 -110 -12.5 -156 -37.5s-85.167 -59.5 -117.5 -103.5s-57 -96.167 -74 -156.5s-25.5 -125.833 -25.5 -196.5zM596 -19c-66 0 -126.003 10.999 -180.003 32.999s-100.333 52.667 -139 92s-68.667 86.333 -90 141
s-32 114.667 -32 180c0 90.667 13 176.667 39 258s63.5 152.5 112.5 213.5s108.833 109.333 179.5 145s151 53.5 241 53.5c66 0 126 -11 180 -33s100.167 -52.667 138.5 -92s68 -86.166 89 -140.499s31.5 -113.833 31.5 -178.5c0 -58 -5.66699 -115 -17 -171
s-28.166 -108.833 -50.499 -158.5s-49.666 -95.5 -81.999 -137.5s-69.666 -78.167 -111.999 -108.5s-89.333 -54 -141 -71s-107.5 -25.5 -167.5 -25.5zM990.997 1601h220l-350 -338h-194z" />
    <glyph glyph-name="ocircumflex" unicode="&#xf4;" horiz-adv-x="1210" 
d="M338 448c0 -44.667 6.33301 -86 19 -124s31 -71 55 -99s53.333 -49.833 88 -65.5s74 -23.5 118 -23.5c46.667 0 92 11.667 136 35s82.833 56 116.5 98s60.667 92.167 81 150.5s30.5 122.5 30.5 192.5c0 51.333 -6.16699 97.5 -18.5 138.5s-30.333 75.667 -54 104
s-52.167 50 -85.5 65s-71 22.5 -113 22.5c-58 0 -110 -12.5 -156 -37.5s-85.167 -59.5 -117.5 -103.5s-57 -96.167 -74 -156.5s-25.5 -125.833 -25.5 -196.5zM596 -19c-66 0 -126.003 10.999 -180.003 32.999s-100.333 52.667 -139 92s-68.667 86.333 -90 141
s-32 114.667 -32 180c0 90.667 13 176.667 39 258s63.5 152.5 112.5 213.5s108.833 109.333 179.5 145s151 53.5 241 53.5c66 0 126 -11 180 -33s100.167 -52.667 138.5 -92s68 -86.166 89 -140.499s31.5 -113.833 31.5 -178.5c0 -58 -5.66699 -115 -17 -171
s-28.166 -108.833 -50.499 -158.5s-49.666 -95.5 -81.999 -137.5s-69.666 -78.167 -111.999 -108.5s-89.333 -54 -141 -71s-107.5 -25.5 -167.5 -25.5zM1129 1228h-187l-129 227h-16l-225 -227h-209l354 340h202z" />
    <glyph glyph-name="otilde" unicode="&#xf5;" horiz-adv-x="1210" 
d="M338 448c0 -44.667 6.33301 -86 19 -124s31 -71 55 -99s53.333 -49.833 88 -65.5s74 -23.5 118 -23.5c46.667 0 92 11.667 136 35s82.833 56 116.5 98s60.667 92.167 81 150.5s30.5 122.5 30.5 192.5c0 51.333 -6.16699 97.5 -18.5 138.5s-30.333 75.667 -54 104
s-52.167 50 -85.5 65s-71 22.5 -113 22.5c-58 0 -110 -12.5 -156 -37.5s-85.167 -59.5 -117.5 -103.5s-57 -96.167 -74 -156.5s-25.5 -125.833 -25.5 -196.5zM596 -19c-66 0 -126.003 10.999 -180.003 32.999s-100.333 52.667 -139 92s-68.667 86.333 -90 141
s-32 114.667 -32 180c0 90.667 13 176.667 39 258s63.5 152.5 112.5 213.5s108.833 109.333 179.5 145s151 53.5 241 53.5c66 0 126 -11 180 -33s100.167 -52.667 138.5 -92s68 -86.166 89 -140.499s31.5 -113.833 31.5 -178.5c0 -58 -5.66699 -115 -17 -171
s-28.166 -108.833 -50.499 -158.5s-49.666 -95.5 -81.999 -137.5s-69.666 -78.167 -111.999 -108.5s-89.333 -54 -141 -71s-107.5 -25.5 -167.5 -25.5zM952.997 1217c-29.333 0 -54.834 4.5 -76.501 13.5s-41 20.333 -58 34s-32 28.5 -45 44.5s-25.667 30.833 -38 44.5
s-25 25 -38 34s-27.5 13.5 -43.5 13.5c-30 0 -54.167 -11.167 -72.5 -33.5s-32.166 -57.5 -41.499 -105.5h-142c5.33301 44.667 15.666 84 30.999 118s34.666 62.5 57.999 85.5s49.833 40.5 79.5 52.5s61.167 18 94.5 18c29.333 0 54.666 -4.5 75.999 -13.5
s40.333 -20.333 57 -34s31.667 -28.5 45 -44.5l38.5 -44.5c12.333 -13.667 24.833 -25 37.5 -34s27.334 -13.5 44.001 -13.5c30 0 54.333 11.167 73 33.5s32.667 57.5 42 105.5h142c-5.33301 -44.667 -15.666 -84 -30.999 -118s-34.666 -62.5 -57.999 -85.5
s-49.833 -40.5 -79.5 -52.5s-61.167 -18 -94.5 -18z" />
    <glyph glyph-name="odieresis" unicode="&#xf6;" horiz-adv-x="1210" 
d="M338 448c0 -44.667 6.33301 -86 19 -124s31 -71 55 -99s53.333 -49.833 88 -65.5s74 -23.5 118 -23.5c46.667 0 92 11.667 136 35s82.833 56 116.5 98s60.667 92.167 81 150.5s30.5 122.5 30.5 192.5c0 51.333 -6.16699 97.5 -18.5 138.5s-30.333 75.667 -54 104
s-52.167 50 -85.5 65s-71 22.5 -113 22.5c-58 0 -110 -12.5 -156 -37.5s-85.167 -59.5 -117.5 -103.5s-57 -96.167 -74 -156.5s-25.5 -125.833 -25.5 -196.5zM596 -19c-66 0 -126.003 10.999 -180.003 32.999s-100.333 52.667 -139 92s-68.667 86.333 -90 141
s-32 114.667 -32 180c0 90.667 13 176.667 39 258s63.5 152.5 112.5 213.5s108.833 109.333 179.5 145s151 53.5 241 53.5c66 0 126 -11 180 -33s100.167 -52.667 138.5 -92s68 -86.166 89 -140.499s31.5 -113.833 31.5 -178.5c0 -58 -5.66699 -115 -17 -171
s-28.166 -108.833 -50.499 -158.5s-49.666 -95.5 -81.999 -137.5s-69.666 -78.167 -111.999 -108.5s-89.333 -54 -141 -71s-107.5 -25.5 -167.5 -25.5zM579.997 1228c-16.667 0 -32.334 3.16699 -47.001 9.5s-27.5 15 -38.5 26s-19.667 23.833 -26 38.5
s-9.5 30.334 -9.5 47.001s3.16699 32.334 9.5 47.001s15 27.5 26 38.5s23.833 19.667 38.5 26s30.334 9.5 47.001 9.5s32.334 -3.16699 47.001 -9.5s27.5 -15 38.5 -26s19.667 -23.833 26 -38.5s9.5 -30.334 9.5 -47.001s-3.16699 -32.334 -9.5 -47.001s-15 -27.5 -26 -38.5
s-23.833 -19.667 -38.5 -26s-30.334 -9.5 -47.001 -9.5zM983.997 1228c-16.667 0 -32.334 3.16699 -47.001 9.5s-27.5 15 -38.5 26s-19.667 23.833 -26 38.5s-9.5 30.334 -9.5 47.001s3.16699 32.334 9.5 47.001s15 27.5 26 38.5s23.833 19.667 38.5 26
s30.334 9.5 47.001 9.5s32.334 -3.16699 47.001 -9.5s27.5 -15 38.5 -26s19.667 -23.833 26 -38.5s9.5 -30.334 9.5 -47.001s-3.16699 -32.334 -9.5 -47.001s-15 -27.5 -26 -38.5s-23.833 -19.667 -38.5 -26s-30.334 -9.5 -47.001 -9.5z" />
    <glyph glyph-name="divide" unicode="&#xf7;" horiz-adv-x="1328" 
d="M203 506l31 148h1018l-31 -148h-1018zM796 812c-18 0 -34.667 3.16699 -50 9.5s-28.666 15 -39.999 26s-20.166 24.167 -26.499 39.5s-9.5 32 -9.5 50s3.16699 34.667 9.5 50s15.166 28.5 26.499 39.5s24.666 19.667 39.999 26s32 9.5 50 9.5s34.5 -3.16699 49.5 -9.5
s28 -15 39 -26s19.667 -24.167 26 -39.5s9.5 -32 9.5 -50s-3.16699 -34.667 -9.5 -50s-15 -28.5 -26 -39.5s-24 -19.667 -39 -26s-31.5 -9.5 -49.5 -9.5zM645 98c-18 0 -34.667 3.16699 -50 9.5s-28.666 15 -39.999 26s-20.166 24.167 -26.499 39.5s-9.5 32 -9.5 50
s3.16699 34.667 9.5 50s15.166 28.5 26.499 39.5s24.666 19.667 39.999 26s32 9.5 50 9.5s34.5 -3.16699 49.5 -9.5s28 -15 39 -26s19.667 -24.167 26 -39.5s9.5 -32 9.5 -50s-3.16699 -34.667 -9.5 -50s-15 -28.5 -26 -39.5s-24 -19.667 -39 -26s-31.5 -9.5 -49.5 -9.5z
" />
    <glyph glyph-name="oslash" unicode="&#xf8;" horiz-adv-x="1212" 
d="M433 204c23.333 -21.333 50.5 -38 81.5 -50s65.5 -18 103.5 -18c46.667 0 92 11.667 136 35s82.833 56 116.5 98s60.667 92.167 81 150.5s30.5 122.5 30.5 192.5c0 66 -10.333 123.667 -31 173zM888 877c-22.667 21.333 -48.833 37.5 -78.5 48.5s-62.5 16.5 -98.5 16.5
c-58 0 -110 -12.5 -156 -37.5s-85.167 -59.5 -117.5 -103.5s-57 -96.167 -74 -156.5s-25.5 -125.833 -25.5 -196.5c0 -54.667 9.66699 -105 29 -151zM1081 931c28 -37.333 49.1641 -79.5 63.4971 -126.5s21.5 -97.5 21.5 -151.5c0 -58 -5.66699 -115 -17 -171
s-28.166 -108.833 -50.499 -158.5s-49.666 -95.5 -81.999 -137.5s-69.666 -78.167 -111.999 -108.5s-89.333 -54 -141 -71s-107.5 -25.5 -167.5 -25.5c-56 0 -107.5 7.83301 -154.5 23.5s-89.167 38.167 -126.5 67.5l-97 -109l-89 69l108 121
c-26 36.667 -46.167 78 -60.5 124s-21.5 96 -21.5 150c0 90.667 13 176.667 39 258s63.5 152.5 112.5 213.5s108.833 109.333 179.5 145s151 53.5 241 53.5c56 0 107.333 -7.66699 154 -23s88 -37.333 124 -66l99 110l86 -64z" />
    <glyph glyph-name="ugrave" unicode="&#xf9;" horiz-adv-x="1215" 
d="M997 0h-166.001l33 146h-16c-15.333 -23.333 -34.166 -45 -56.499 -65s-48 -37.5 -77 -52.5s-61.167 -26.667 -96.5 -35s-73.333 -12.5 -114 -12.5c-49.333 0 -94.333 8 -135 24s-75.5 38 -104.5 66s-51.667 61 -68 99s-24.5 79.333 -24.5 124c0 8 0.333008 17.667 1 29
s1.66699 23.5 3 36.5s3 25.833 5 38.5s4 24.667 6 36l135 644h175l-131 -619c-2 -10 -3.83301 -20.667 -5.5 -32s-3.16699 -22.5 -4.5 -33.5s-2.33301 -21.5 -3 -31.5s-1 -18 -1 -24c0 -69.333 18.833 -120.333 56.5 -153s91.834 -49 162.501 -49
c43.333 0 83.833 7.33301 121.5 22s71.5 35 101.5 61s55.167 57 75.5 93s35.166 75.333 44.499 118l138 648h174zM675.999 1263l-206 338h214l180 -338h-188z" />
    <glyph glyph-name="uacute" unicode="&#xfa;" horiz-adv-x="1215" 
d="M997 0h-166.001l33 146h-16c-15.333 -23.333 -34.166 -45 -56.499 -65s-48 -37.5 -77 -52.5s-61.167 -26.667 -96.5 -35s-73.333 -12.5 -114 -12.5c-49.333 0 -94.333 8 -135 24s-75.5 38 -104.5 66s-51.667 61 -68 99s-24.5 79.333 -24.5 124c0 8 0.333008 17.667 1 29
s1.66699 23.5 3 36.5s3 25.833 5 38.5s4 24.667 6 36l135 644h175l-131 -619c-2 -10 -3.83301 -20.667 -5.5 -32s-3.16699 -22.5 -4.5 -33.5s-2.33301 -21.5 -3 -31.5s-1 -18 -1 -24c0 -69.333 18.833 -120.333 56.5 -153s91.834 -49 162.501 -49
c43.333 0 83.833 7.33301 121.5 22s71.5 35 101.5 61s55.167 57 75.5 93s35.166 75.333 44.499 118l138 648h174zM1032 1601h220l-350 -338h-194z" />
    <glyph glyph-name="ucircumflex" unicode="&#xfb;" horiz-adv-x="1215" 
d="M997 0h-166.001l33 146h-16c-15.333 -23.333 -34.166 -45 -56.499 -65s-48 -37.5 -77 -52.5s-61.167 -26.667 -96.5 -35s-73.333 -12.5 -114 -12.5c-49.333 0 -94.333 8 -135 24s-75.5 38 -104.5 66s-51.667 61 -68 99s-24.5 79.333 -24.5 124c0 8 0.333008 17.667 1 29
s1.66699 23.5 3 36.5s3 25.833 5 38.5s4 24.667 6 36l135 644h175l-131 -619c-2 -10 -3.83301 -20.667 -5.5 -32s-3.16699 -22.5 -4.5 -33.5s-2.33301 -21.5 -3 -31.5s-1 -18 -1 -24c0 -69.333 18.833 -120.333 56.5 -153s91.834 -49 162.501 -49
c43.333 0 83.833 7.33301 121.5 22s71.5 35 101.5 61s55.167 57 75.5 93s35.166 75.333 44.499 118l138 648h174zM1170 1228h-187l-129 227h-16l-225 -227h-209l354 340h202z" />
    <glyph glyph-name="udieresis" unicode="&#xfc;" horiz-adv-x="1215" 
d="M997 0h-166.001l33 146h-16c-15.333 -23.333 -34.166 -45 -56.499 -65s-48 -37.5 -77 -52.5s-61.167 -26.667 -96.5 -35s-73.333 -12.5 -114 -12.5c-49.333 0 -94.333 8 -135 24s-75.5 38 -104.5 66s-51.667 61 -68 99s-24.5 79.333 -24.5 124c0 8 0.333008 17.667 1 29
s1.66699 23.5 3 36.5s3 25.833 5 38.5s4 24.667 6 36l135 644h175l-131 -619c-2 -10 -3.83301 -20.667 -5.5 -32s-3.16699 -22.5 -4.5 -33.5s-2.33301 -21.5 -3 -31.5s-1 -18 -1 -24c0 -69.333 18.833 -120.333 56.5 -153s91.834 -49 162.501 -49
c43.333 0 83.833 7.33301 121.5 22s71.5 35 101.5 61s55.167 57 75.5 93s35.166 75.333 44.499 118l138 648h174zM620.999 1228c-16.667 0 -32.334 3.16699 -47.001 9.5s-27.5 15 -38.5 26s-19.667 23.833 -26 38.5s-9.5 30.334 -9.5 47.001s3.16699 32.334 9.5 47.001
s15 27.5 26 38.5s23.833 19.667 38.5 26s30.334 9.5 47.001 9.5s32.334 -3.16699 47.001 -9.5s27.5 -15 38.5 -26s19.667 -23.833 26 -38.5s9.5 -30.334 9.5 -47.001s-3.16699 -32.334 -9.5 -47.001s-15 -27.5 -26 -38.5s-23.833 -19.667 -38.5 -26
s-30.334 -9.5 -47.001 -9.5zM1025 1228c-16.667 0 -32.334 3.16699 -47.001 9.5s-27.5 15 -38.5 26s-19.667 23.833 -26 38.5s-9.5 30.334 -9.5 47.001s3.16699 32.334 9.5 47.001s15 27.5 26 38.5s23.833 19.667 38.5 26s30.334 9.5 47.001 9.5
s32.334 -3.16699 47.001 -9.5s27.5 -15 38.5 -26s19.667 -23.833 26 -38.5s9.5 -30.334 9.5 -47.001s-3.16699 -32.334 -9.5 -47.001s-15 -27.5 -26 -38.5s-23.833 -19.667 -38.5 -26s-30.334 -9.5 -47.001 -9.5z" />
    <glyph glyph-name="yacute" unicode="&#xfd;" horiz-adv-x="1112" 
d="M158 -392c-24.667 0 -47.167 1.49805 -67.5 4.49805l-50.5 7.5l26 147c10.667 -3.33301 24.667 -6.33301 42 -9s37.333 -4 60 -4c18 0 35.333 3 52 9s33.167 16 49.5 30s33 32.5 50 55.5s34.833 51.833 53.5 86.5l39 73l-175 1070h171l128 -857h16l472 857h189
l-686 -1196c-31.333 -55.333 -61.333 -100.666 -90 -135.999s-57.5 -63.166 -86.5 -83.499s-59.167 -34.5 -90.5 -42.5s-65.333 -12 -102 -12zM992 1601h220l-350 -338h-194z" />
    <glyph glyph-name="thorn" unicode="&#xfe;" horiz-adv-x="1260" 
d="M653 136c54.667 0 105.501 13.1699 152.501 39.5029s87.833 62.5 122.5 108.5s61.667 100.667 81 164s29 132 29 206c0 91.333 -22.667 162.166 -68 212.499s-109 75.5 -191 75.5c-56 0 -108.167 -13.167 -156.5 -39.5s-90.333 -62.333 -126 -108
s-63.667 -99.334 -84 -161.001s-30.5 -128.167 -30.5 -199.5c0 -46 6.33301 -87.333 19 -124s30.667 -67.834 54 -93.501s51.666 -45.5 84.999 -59.5s71 -21 113 -21zM206.001 -359.997h-173.002l397 1866h172l-120 -575h16c40.667 54.667 89.334 96 146.001 124
s120.667 42 192 42c54 0 104.333 -10.5 151 -31.5s87.167 -50 121.5 -87s61.166 -81 80.499 -132s29 -106.5 29 -166.5c0 -98.667 -14.167 -190.5 -42.5 -275.5s-67.333 -158.833 -117 -221.5s-108 -112 -175 -148s-139.5 -54 -217.5 -54c-39.333 0 -76.333 5.33301 -111 16
s-66.167 25.5 -94.5 44.5s-52.666 42 -72.999 69s-35.166 56.5 -44.499 88.5h-16z" />
    <glyph glyph-name="ydieresis" unicode="&#xff;" horiz-adv-x="1112" 
d="M158 -392c-24.667 0 -47.167 1.49805 -67.5 4.49805l-50.5 7.5l26 147c10.667 -3.33301 24.667 -6.33301 42 -9s37.333 -4 60 -4c18 0 35.333 3 52 9s33.167 16 49.5 30s33 32.5 50 55.5s34.833 51.833 53.5 86.5l39 73l-175 1070h171l128 -857h16l472 857h189
l-686 -1196c-31.333 -55.333 -61.333 -100.666 -90 -135.999s-57.5 -63.166 -86.5 -83.499s-59.167 -34.5 -90.5 -42.5s-65.333 -12 -102 -12zM581 1228c-16.667 0 -32.334 3.16699 -47.001 9.5s-27.5 15 -38.5 26s-19.667 23.833 -26 38.5s-9.5 30.334 -9.5 47.001
s3.16699 32.334 9.5 47.001s15 27.5 26 38.5s23.833 19.667 38.5 26s30.334 9.5 47.001 9.5s32.334 -3.16699 47.001 -9.5s27.5 -15 38.5 -26s19.667 -23.833 26 -38.5s9.5 -30.334 9.5 -47.001s-3.16699 -32.334 -9.5 -47.001s-15 -27.5 -26 -38.5
s-23.833 -19.667 -38.5 -26s-30.334 -9.5 -47.001 -9.5zM985 1228c-16.667 0 -32.334 3.16699 -47.001 9.5s-27.5 15 -38.5 26s-19.667 23.833 -26 38.5s-9.5 30.334 -9.5 47.001s3.16699 32.334 9.5 47.001s15 27.5 26 38.5s23.833 19.667 38.5 26s30.334 9.5 47.001 9.5
s32.334 -3.16699 47.001 -9.5s27.5 -15 38.5 -26s19.667 -23.833 26 -38.5s9.5 -30.334 9.5 -47.001s-3.16699 -32.334 -9.5 -47.001s-15 -27.5 -26 -38.5s-23.833 -19.667 -38.5 -26s-30.334 -9.5 -47.001 -9.5z" />
    <glyph glyph-name="Amacron" unicode="&#x100;" horiz-adv-x="1380" 
d="M1015 413h-579l-232 -413h-193l845 1443h167l226 -1443h-176zM522 566h473l-95 641h-16zM640 1620l29 136h674l-29 -136h-674z" />
    <glyph glyph-name="amacron" unicode="&#x101;" horiz-adv-x="1126" 
d="M490 130c40.667 0 79.1699 6.33301 115.503 19s69.166 30.167 98.499 52.5s54.166 49 74.499 80s34.5 64.833 42.5 101.5l27 124l-287 -14c-88.667 -4.66699 -157.167 -24.167 -205.5 -58.5s-72.5 -79.833 -72.5 -136.5c0 -24.667 5 -47.167 15 -67.5
s24.167 -38 42.5 -53s40.166 -26.667 65.499 -35s53.333 -12.5 84 -12.5zM436.003 -19c-47.333 0 -91 7.66699 -131 23s-74.833 36.333 -104.5 63s-52.834 58.167 -69.501 94.5s-25 75.5 -25 117.5c0 52.667 10.167 100.167 30.5 142.5s50.333 78.5 90 108.5
s88.334 53.667 146.001 71s123.834 27.666 198.501 30.999l306 14l16 73c2 11.333 3.5 20.666 4.5 27.999s1.5 15 1.5 23c0 54.667 -20.333 97.167 -61 127.5s-97.334 45.5 -170.001 45.5c-60.667 0 -111.334 -11.5 -152.001 -34.5s-69.667 -56.5 -87 -100.5h-182
c12 44.667 31.167 84.834 57.5 120.501s58.333 66 96 91s80.334 44.167 128.001 57.5s98.834 20 153.501 20c59.333 0 113.166 -7.16699 161.499 -21.5s89.5 -34.666 123.5 -60.999s60.333 -58 79 -95s28 -78.5 28 -124.5c0 -28.667 -3 -58 -9 -88l-150 -707h-167l30 141
h-16c-38 -50 -85.333 -89.167 -142 -117.5s-118 -42.5 -184 -42.5zM406.003 1286l29 136h674l-29 -136h-674z" />
    <glyph glyph-name="Abreve" unicode="&#x102;" horiz-adv-x="1380" 
d="M1015 413h-579l-232 -413h-193l845 1443h167l226 -1443h-176zM522 566h473l-95 641h-16zM639 1873l150.002 0.000976562v-13c0 -22.667 5 -43.5 15 -62.5s23.833 -35.5 41.5 -49.5s38.5 -24.833 62.5 -32.5s49.667 -11.5 77 -11.5c56.667 0 104.167 15 142.5 45
s64.166 71.333 77.499 124h154c-8.66699 -46 -24.334 -87.333 -47.001 -124s-50.5 -68 -83.5 -94s-70.5 -45.833 -112.5 -59.5s-87 -20.5 -135 -20.5c-50.667 0 -97 7 -139 21s-78 33.667 -108 59s-53.333 55.666 -70 90.999s-25 74.333 -25 117v10z" />
    <glyph glyph-name="abreve" unicode="&#x103;" horiz-adv-x="1126" 
d="M490 130c40.667 0 79.1699 6.33301 115.503 19s69.166 30.167 98.499 52.5s54.166 49 74.499 80s34.5 64.833 42.5 101.5l27 124l-287 -14c-88.667 -4.66699 -157.167 -24.167 -205.5 -58.5s-72.5 -79.833 -72.5 -136.5c0 -24.667 5 -47.167 15 -67.5
s24.167 -38 42.5 -53s40.166 -26.667 65.499 -35s53.333 -12.5 84 -12.5zM436.003 -19c-47.333 0 -91 7.66699 -131 23s-74.833 36.333 -104.5 63s-52.834 58.167 -69.501 94.5s-25 75.5 -25 117.5c0 52.667 10.167 100.167 30.5 142.5s50.333 78.5 90 108.5
s88.334 53.667 146.001 71s123.834 27.666 198.501 30.999l306 14l16 73c2 11.333 3.5 20.666 4.5 27.999s1.5 15 1.5 23c0 54.667 -20.333 97.167 -61 127.5s-97.334 45.5 -170.001 45.5c-60.667 0 -111.334 -11.5 -152.001 -34.5s-69.667 -56.5 -87 -100.5h-182
c12 44.667 31.167 84.834 57.5 120.501s58.333 66 96 91s80.334 44.167 128.001 57.5s98.834 20 153.501 20c59.333 0 113.166 -7.16699 161.499 -21.5s89.5 -34.666 123.5 -60.999s60.333 -58 79 -95s28 -78.5 28 -124.5c0 -28.667 -3 -58 -9 -88l-150 -707h-167l30 141
h-16c-38 -50 -85.333 -89.167 -142 -117.5s-118 -42.5 -184 -42.5zM553.003 1556c-0.666992 -4 -1.1709 -8.33594 -1.50391 -13.0029s-0.5 -10.667 -0.5 -18c0 -52 17.833 -93 53.5 -123s83.834 -45 144.501 -45c67.333 0 121.333 17 162 51s65.667 83.333 75 148h156
c-4.66699 -49.333 -17.5 -94 -38.5 -134s-48.667 -74.5 -83 -103.5s-75.166 -51.333 -122.499 -67s-99.333 -23.5 -156 -23.5c-55.333 0 -104.166 7.33301 -146.499 22s-78.166 34.834 -107.499 60.501s-51.5 55.834 -66.5 90.501s-22.5 72.334 -22.5 113.001
c0 12.667 1 26.667 3 42h151z" />
    <glyph glyph-name="Aogonek" unicode="&#x104;" horiz-adv-x="1380" 
d="M522 566h473l-95 641h-16zM1197 -416c-11.333 -4.66699 -26.001 -8.50098 -44.001 -11.501s-35.333 -4.5 -52 -4.5c-69.333 0 -123.333 16.5 -162 49.5s-58 78.833 -58 137.5c0 54 15.167 103.167 45.5 147.5s77.833 86.5 142.5 126.5l-54 384h-579l-232 -413h-193
l845 1443h167l223 -1424c-131.333 -73.333 -197 -149 -197 -227c0 -60 34.333 -90 103 -90c13.333 0 26.833 0.833008 40.5 2.5s23.834 3.83398 30.501 6.50098z" />
    <glyph glyph-name="aogonek" unicode="&#x105;" horiz-adv-x="1126" 
d="M765 -432c-37.333 0 -70.3379 5.66406 -99.0049 16.9971s-52 27.333 -70 48s-30.333 45.334 -37 74.001s-6.33398 60.334 0.999023 95.001c9.33301 44 29.5 82.833 60.5 116.5s75.167 65.167 132.5 94.5l25 128h-16c-38 -50.667 -85.667 -90 -143 -118
s-118.333 -42 -183 -42c-46.667 0 -90.167 7.66699 -130.5 23s-75.166 36.333 -104.499 63s-52.5 58.167 -69.5 94.5s-25.5 75.5 -25.5 117.5c0 53.333 10.167 101 30.5 143s50.333 78 90 108s88.334 53.667 146.001 71s123.834 27.666 198.501 30.999l306 14l16 73
c2.66699 13.333 4.33398 23.333 5.00098 30s1 13.667 1 21c0 54.667 -20.333 97.167 -61 127.5s-97.334 45.5 -170.001 45.5c-60.667 0 -111.334 -11.5 -152.001 -34.5s-69.667 -56.5 -87 -100.5h-182c12 44.667 31.167 84.834 57.5 120.501s58.333 66 96 91
s80.334 44.167 128.001 57.5s98.834 20 153.501 20c59.333 0 113.166 -7.16699 161.499 -21.5s89.5 -34.666 123.5 -60.999s60.333 -58 79 -95s28 -78.5 28 -124.5c0 -28.667 -3 -58 -9 -88l-146 -688c-59.333 -32.667 -104.666 -65 -135.999 -97s-50.666 -66 -57.999 -102
s-2.66602 -64.667 14.001 -86s43 -32 79 -32s62 3 78 9l-26 -127c-11.333 -4.66699 -26.833 -8.5 -46.5 -11.5s-39.167 -4.5 -58.5 -4.5zM489.995 129.997c40 0 78.3359 6.33496 115.003 19.002s69.667 30.167 99 52.5s54.166 49 74.499 80s34.5 64.833 42.5 101.5l27 124
l-287 -14c-88 -4.66699 -156.333 -24 -205 -58s-73 -79.667 -73 -137c0 -24.667 5.16699 -47.334 15.5 -68.001s24.666 -38.334 42.999 -53.001s40.166 -26.167 65.499 -34.5s53 -12.5 83 -12.5z" />
    <glyph glyph-name="Cacute" unicode="&#x106;" horiz-adv-x="1466" 
d="M1324 994c-4 48 -15.6709 91.5029 -35.0039 130.503s-45.333 72.333 -78 100s-71.167 48.834 -115.5 63.501s-93.5 22 -147.5 22c-78.667 0 -152.167 -18.833 -220.5 -56.5s-127.666 -89.667 -177.999 -156s-89.833 -144.333 -118.5 -234s-43 -186.5 -43 -290.5
c0 -68 9.16699 -129.167 27.5 -183.5s44.5 -100.5 78.5 -138.5s75.333 -67.167 124 -87.5s103 -30.5 163 -30.5c48.667 0 95 5.83301 139 17.5s83.833 28.334 119.5 50.001s66.334 47.667 92.001 78s45.167 64.166 58.5 101.499h190c-18 -64 -45.667 -121.667 -83 -173
s-82.666 -94.833 -135.999 -130.5s-113.833 -63 -181.5 -82s-140.5 -28.5 -218.5 -28.5c-84 0 -160.5 14 -229.5 42s-128 67.667 -177 119s-86.833 113.166 -113.5 185.499s-40 152.833 -40 241.5s8.66699 173 26 253s42 154.167 74 222.5s70.833 130.166 116.5 185.499
s96.667 102.333 153 141s117.5 68.5 183.5 89.5s135.333 31.5 208 31.5c78 0 150.333 -12 217 -36s124.334 -57.333 173.001 -100s86.667 -93.334 114 -152.001s41 -122.334 41 -191.001v-6h-183v2zM1267 1875h226l-395 -298h-204z" />
    <glyph glyph-name="cacute" unicode="&#x107;" horiz-adv-x="1146" 
d="M967 748c-2.66699 28 -11.166 53.834 -25.499 77.501s-32.833 44.167 -55.5 61.5s-49 30.833 -79 40.5s-62 14.5 -96 14.5c-53.333 0 -102.833 -12.333 -148.5 -37s-85.167 -58.5 -118.5 -101.5s-59.5 -93.833 -78.5 -152.5s-28.5 -122 -28.5 -190
c0 -50 6.33301 -95 19 -135s30.667 -74 54 -102s51.666 -49.333 84.999 -64s70.666 -22 111.999 -22c66.667 0 124 14.833 172 44.5s82.333 71.5 103 125.5h179c-11.333 -49.333 -31 -94 -59 -134s-62.5 -74.333 -103.5 -103s-87.5 -50.834 -139.5 -66.501
s-107.667 -23.5 -167 -23.5c-65.333 0 -124.833 10.833 -178.5 32.5s-99.5 52.5 -137.5 92.5s-67.5 88 -88.5 144s-31.5 118.667 -31.5 188c0 94.667 14.167 182.167 42.5 262.5s67.833 149.833 118.5 208.5s110.834 104.667 180.501 138s145.5 50 227.5 50
c53.333 0 103.333 -7.5 150 -22.5s88 -35.833 124 -62.5s66.167 -58.5 90.5 -95.5s40.5 -77.5 48.5 -121.5c1.33301 -7.33301 2.33301 -15 3 -23l2 -24h-176zM1018 1601h220l-350 -338h-194z" />
    <glyph glyph-name="Ccircumflex" unicode="&#x108;" horiz-adv-x="1466" 
d="M1324 994c-4 48 -15.6709 91.5029 -35.0039 130.503s-45.333 72.333 -78 100s-71.167 48.834 -115.5 63.501s-93.5 22 -147.5 22c-78.667 0 -152.167 -18.833 -220.5 -56.5s-127.666 -89.667 -177.999 -156s-89.833 -144.333 -118.5 -234s-43 -186.5 -43 -290.5
c0 -68 9.16699 -129.167 27.5 -183.5s44.5 -100.5 78.5 -138.5s75.333 -67.167 124 -87.5s103 -30.5 163 -30.5c48.667 0 95 5.83301 139 17.5s83.833 28.334 119.5 50.001s66.334 47.667 92.001 78s45.167 64.166 58.5 101.499h190c-18 -64 -45.667 -121.667 -83 -173
s-82.666 -94.833 -135.999 -130.5s-113.833 -63 -181.5 -82s-140.5 -28.5 -218.5 -28.5c-84 0 -160.5 14 -229.5 42s-128 67.667 -177 119s-86.833 113.166 -113.5 185.499s-40 152.833 -40 241.5s8.66699 173 26 253s42 154.167 74 222.5s70.833 130.166 116.5 185.499
s96.667 102.333 153 141s117.5 68.5 183.5 89.5s135.333 31.5 208 31.5c78 0 150.333 -12 217 -36s124.334 -57.333 173.001 -100s86.667 -93.334 114 -152.001s41 -122.334 41 -191.001v-6h-183v2zM1321 1577h-185l-105 186h-16l-183 -186h-207l310 298h202z" />
    <glyph glyph-name="ccircumflex" unicode="&#x109;" horiz-adv-x="1146" 
d="M967 748c-2.66699 28 -11.166 53.834 -25.499 77.501s-32.833 44.167 -55.5 61.5s-49 30.833 -79 40.5s-62 14.5 -96 14.5c-53.333 0 -102.833 -12.333 -148.5 -37s-85.167 -58.5 -118.5 -101.5s-59.5 -93.833 -78.5 -152.5s-28.5 -122 -28.5 -190
c0 -50 6.33301 -95 19 -135s30.667 -74 54 -102s51.666 -49.333 84.999 -64s70.666 -22 111.999 -22c66.667 0 124 14.833 172 44.5s82.333 71.5 103 125.5h179c-11.333 -49.333 -31 -94 -59 -134s-62.5 -74.333 -103.5 -103s-87.5 -50.834 -139.5 -66.501
s-107.667 -23.5 -167 -23.5c-65.333 0 -124.833 10.833 -178.5 32.5s-99.5 52.5 -137.5 92.5s-67.5 88 -88.5 144s-31.5 118.667 -31.5 188c0 94.667 14.167 182.167 42.5 262.5s67.833 149.833 118.5 208.5s110.834 104.667 180.501 138s145.5 50 227.5 50
c53.333 0 103.333 -7.5 150 -22.5s88 -35.833 124 -62.5s66.167 -58.5 90.5 -95.5s40.5 -77.5 48.5 -121.5c1.33301 -7.33301 2.33301 -15 3 -23l2 -24h-176zM1156 1228h-187l-129 227h-16l-225 -227h-209l354 340h202z" />
    <glyph glyph-name="Cdotaccent" unicode="&#x10a;" horiz-adv-x="1466" 
d="M1324 994c-4 48 -15.6709 91.5029 -35.0039 130.503s-45.333 72.333 -78 100s-71.167 48.834 -115.5 63.501s-93.5 22 -147.5 22c-78.667 0 -152.167 -18.833 -220.5 -56.5s-127.666 -89.667 -177.999 -156s-89.833 -144.333 -118.5 -234s-43 -186.5 -43 -290.5
c0 -68 9.16699 -129.167 27.5 -183.5s44.5 -100.5 78.5 -138.5s75.333 -67.167 124 -87.5s103 -30.5 163 -30.5c48.667 0 95 5.83301 139 17.5s83.833 28.334 119.5 50.001s66.334 47.667 92.001 78s45.167 64.166 58.5 101.499h190c-18 -64 -45.667 -121.667 -83 -173
s-82.666 -94.833 -135.999 -130.5s-113.833 -63 -181.5 -82s-140.5 -28.5 -218.5 -28.5c-84 0 -160.5 14 -229.5 42s-128 67.667 -177 119s-86.833 113.166 -113.5 185.499s-40 152.833 -40 241.5s8.66699 173 26 253s42 154.167 74 222.5s70.833 130.166 116.5 185.499
s96.667 102.333 153 141s117.5 68.5 183.5 89.5s135.333 31.5 208 31.5c78 0 150.333 -12 217 -36s124.334 -57.333 173.001 -100s86.667 -93.334 114 -152.001s41 -122.334 41 -191.001v-6h-183v2zM1011 1577c-16.667 0 -32.334 3.16699 -47.001 9.5s-27.5 15 -38.5 26
s-19.667 23.833 -26 38.5s-9.5 30.334 -9.5 47.001s3.16699 32.334 9.5 47.001s15 27.5 26 38.5s23.833 19.667 38.5 26s30.334 9.5 47.001 9.5s32.334 -3.16699 47.001 -9.5s27.5 -15 38.5 -26s19.667 -23.833 26 -38.5s9.5 -30.334 9.5 -47.001
s-3.16699 -32.334 -9.5 -47.001s-15 -27.5 -26 -38.5s-23.833 -19.667 -38.5 -26s-30.334 -9.5 -47.001 -9.5z" />
    <glyph glyph-name="cdotaccent" unicode="&#x10b;" horiz-adv-x="1146" 
d="M967 748c-2.66699 28 -11.166 53.834 -25.499 77.501s-32.833 44.167 -55.5 61.5s-49 30.833 -79 40.5s-62 14.5 -96 14.5c-53.333 0 -102.833 -12.333 -148.5 -37s-85.167 -58.5 -118.5 -101.5s-59.5 -93.833 -78.5 -152.5s-28.5 -122 -28.5 -190
c0 -50 6.33301 -95 19 -135s30.667 -74 54 -102s51.666 -49.333 84.999 -64s70.666 -22 111.999 -22c66.667 0 124 14.833 172 44.5s82.333 71.5 103 125.5h179c-11.333 -49.333 -31 -94 -59 -134s-62.5 -74.333 -103.5 -103s-87.5 -50.834 -139.5 -66.501
s-107.667 -23.5 -167 -23.5c-65.333 0 -124.833 10.833 -178.5 32.5s-99.5 52.5 -137.5 92.5s-67.5 88 -88.5 144s-31.5 118.667 -31.5 188c0 94.667 14.167 182.167 42.5 262.5s67.833 149.833 118.5 208.5s110.834 104.667 180.501 138s145.5 50 227.5 50
c53.333 0 103.333 -7.5 150 -22.5s88 -35.833 124 -62.5s66.167 -58.5 90.5 -95.5s40.5 -77.5 48.5 -121.5c1.33301 -7.33301 2.33301 -15 3 -23l2 -24h-176zM824.001 1287c-17.333 0 -33.833 3.33301 -49.5 10s-29.334 15.834 -41.001 27.501
s-20.834 25.334 -27.501 41.001s-10 32.167 -10 49.5s3.33301 33.666 10 48.999s15.834 28.833 27.501 40.5s25.334 20.834 41.001 27.501s32.167 10 49.5 10s33.833 -3.33301 49.5 -10s29.334 -15.834 41.001 -27.501s20.834 -25.167 27.501 -40.5s10 -31.666 10 -48.999
s-3.33301 -33.833 -10 -49.5s-15.834 -29.334 -27.501 -41.001s-25.334 -20.834 -41.001 -27.501s-32.167 -10 -49.5 -10z" />
    <glyph glyph-name="Ccaron" unicode="&#x10c;" horiz-adv-x="1466" 
d="M1324 994c-4 48 -15.6709 91.5029 -35.0039 130.503s-45.333 72.333 -78 100s-71.167 48.834 -115.5 63.501s-93.5 22 -147.5 22c-78.667 0 -152.167 -18.833 -220.5 -56.5s-127.666 -89.667 -177.999 -156s-89.833 -144.333 -118.5 -234s-43 -186.5 -43 -290.5
c0 -68 9.16699 -129.167 27.5 -183.5s44.5 -100.5 78.5 -138.5s75.333 -67.167 124 -87.5s103 -30.5 163 -30.5c48.667 0 95 5.83301 139 17.5s83.833 28.334 119.5 50.001s66.334 47.667 92.001 78s45.167 64.166 58.5 101.499h190c-18 -64 -45.667 -121.667 -83 -173
s-82.666 -94.833 -135.999 -130.5s-113.833 -63 -181.5 -82s-140.5 -28.5 -218.5 -28.5c-84 0 -160.5 14 -229.5 42s-128 67.667 -177 119s-86.833 113.166 -113.5 185.499s-40 152.833 -40 241.5s8.66699 173 26 253s42 154.167 74 222.5s70.833 130.166 116.5 185.499
s96.667 102.333 153 141s117.5 68.5 183.5 89.5s135.333 31.5 208 31.5c78 0 150.333 -12 217 -36s124.334 -57.333 173.001 -100s86.667 -93.334 114 -152.001s41 -122.334 41 -191.001v-6h-183v2zM709.996 1875h185l105 -186h16l183 186h207l-310 -298h-202z" />
    <glyph glyph-name="ccaron" unicode="&#x10d;" horiz-adv-x="1146" 
d="M967 748c-2.66699 28 -11.166 53.834 -25.499 77.501s-32.833 44.167 -55.5 61.5s-49 30.833 -79 40.5s-62 14.5 -96 14.5c-53.333 0 -102.833 -12.333 -148.5 -37s-85.167 -58.5 -118.5 -101.5s-59.5 -93.833 -78.5 -152.5s-28.5 -122 -28.5 -190
c0 -50 6.33301 -95 19 -135s30.667 -74 54 -102s51.666 -49.333 84.999 -64s70.666 -22 111.999 -22c66.667 0 124 14.833 172 44.5s82.333 71.5 103 125.5h179c-11.333 -49.333 -31 -94 -59 -134s-62.5 -74.333 -103.5 -103s-87.5 -50.834 -139.5 -66.501
s-107.667 -23.5 -167 -23.5c-65.333 0 -124.833 10.833 -178.5 32.5s-99.5 52.5 -137.5 92.5s-67.5 88 -88.5 144s-31.5 118.667 -31.5 188c0 94.667 14.167 182.167 42.5 262.5s67.833 149.833 118.5 208.5s110.834 104.667 180.501 138s145.5 50 227.5 50
c53.333 0 103.333 -7.5 150 -22.5s88 -35.833 124 -62.5s66.167 -58.5 90.5 -95.5s40.5 -77.5 48.5 -121.5c1.33301 -7.33301 2.33301 -15 3 -23l2 -24h-176zM696.001 1228l-210 340h185l129 -227h16l225 227h211l-354 -340h-202z" />
    <glyph glyph-name="Dcaron" unicode="&#x10e;" horiz-adv-x="1486" 
d="M833 1443c100.667 0 190 -14.501 268 -43.501s143.667 -70.667 197 -125s94 -120.5 122 -198.5s42 -166 42 -264c0 -77.333 -8.66699 -151.166 -26 -221.499s-42 -135.5 -74 -195.5s-70.5 -114.333 -115.5 -163s-95.167 -90.167 -150.5 -124.5s-115 -60.833 -179 -79.5
s-131 -28 -201 -28h-591l305 1443h403zM341 159.999l382.002 0.000976562c79.333 0 152.666 16.167 219.999 48.5s125.666 77.166 174.999 134.499s88 125.333 116 204s42 164 42 256c0 75.333 -10.333 142.833 -31 202.5s-50.5 110 -89.5 151s-86.833 72.333 -143.5 94
s-121 32.5 -193 32.5h-239zM536.002 1873h185l105 -186h16l183 186h207l-310 -298h-202z" />
    <glyph glyph-name="dcaron" unicode="&#x10f;" horiz-adv-x="1357" 
d="M1647 1506l-154 -488h-120l104 488h170zM545 -19c-54 0 -104.665 10.166 -151.998 30.499s-88.833 49.5 -124.5 87.5s-63.834 84 -84.501 138s-31 114.333 -31 181c0 64.667 6.5 126.5 19.5 185.5s31.5 113.667 55.5 164s52.833 95.833 86.5 136.5s71 75.334 112 104.001
s85.333 50.667 133 66s97.5 23 149.5 23c38.667 0 75.5 -5.33301 110.5 -16s66.667 -25.5 95 -44.5s52.666 -42 72.999 -69s35.166 -56.5 44.499 -88.5h16l133 627h175l-320 -1506h-166l31 147h-16c-39.333 -51.333 -88.666 -91.833 -147.999 -121.5
s-123.333 -44.5 -192 -44.5zM600.002 135.999c56 0 107.831 13.165 155.498 39.498s89.167 62.333 124.5 108s63 99.334 83 161.001s30 128.167 30 199.5c0 46 -6.33301 87.333 -19 124s-30.667 67.834 -54 93.501s-51.666 45.5 -84.999 59.5s-71 21 -113 21
c-55.333 0 -106.666 -12.333 -153.999 -37s-88.333 -59 -123 -103s-62 -96.5 -82 -157.5s-30 -127.833 -30 -200.5c0 -45.333 6.5 -87 19.5 -125s31.167 -70.5 54.5 -97.5s51.333 -48 84 -63s69 -22.5 109 -22.5z" />
    <glyph glyph-name="Dcroat" unicode="&#x110;" horiz-adv-x="1452" 
d="M723 160c79.333 0 152.668 16.168 220.001 48.501s125.666 77.166 174.999 134.499s88 125.333 116 204s42 164 42 256c0 75.333 -10.333 142.833 -31 202.5s-50.5 110 -89.5 151s-86.833 72.333 -143.5 94s-121 32.5 -193 32.5h-239l-97 -457h200l-35 -163h-200
l-107 -503h382zM833.002 1443c100.667 0 190 -14.501 268 -43.501s143.667 -70.667 197 -125s94 -120.5 122 -198.5s42 -166 42 -264c0 -77.333 -8.66699 -151.166 -26 -221.499s-42 -135.5 -74 -195.5s-70.5 -114.333 -115.5 -163s-95.167 -90.167 -150.5 -124.5
s-115 -60.833 -179 -79.5s-131 -28 -201 -28h-591l140 663h-203l35 163h203l130 617h403z" />
    <glyph glyph-name="dcroat" unicode="&#x111;" horiz-adv-x="1258" 
d="M600 136c56 0 107.831 13.165 155.498 39.498s89.167 62.333 124.5 108s63 99.334 83 161.001s30 128.167 30 199.5c0 46 -6.33301 87.333 -19 124s-30.667 67.834 -54 93.501s-51.666 45.5 -84.999 59.5s-71 21 -113 21c-55.333 0 -106.666 -12.333 -153.999 -37
s-88.333 -59 -123 -103s-62 -96.5 -82 -157.5s-30 -127.833 -30 -200.5c0 -45.333 6.5 -87 19.5 -125s31.167 -70.5 54.5 -97.5s51.333 -48 84 -63s69 -22.5 109 -22.5zM1460 1287l-150.998 -0.000976562l-273 -1287h-166l31 147h-16
c-39.333 -51.333 -88.666 -91.833 -147.999 -121.5s-123.333 -44.5 -192 -44.5c-54 0 -104.667 10.167 -152 30.5s-88.833 49.5 -124.5 87.5s-63.834 84 -84.501 138s-31 114.333 -31 181c0 64.667 6.5 126.5 19.5 185.5s31.5 113.667 55.5 164s52.833 95.833 86.5 136.5
s71 75.334 112 104.001s85.333 50.667 133 66s97.5 23 149.5 23c38.667 0 75.5 -5.33301 110.5 -16s66.667 -25.5 95 -44.5s52.666 -42 72.999 -69s35.166 -56.5 44.499 -88.5h16l87 408h-231l26 124h231l20 95h175l-20 -95h150z" />
    <glyph glyph-name="Emacron" unicode="&#x112;" horiz-adv-x="1219" 
d="M1019 0h-896l307 1443h896l-35 -162h-711l-100 -463h675l-34 -160h-674l-106 -496h712zM578 1620l29 136h674l-29 -136h-674z" />
    <glyph glyph-name="emacron" unicode="&#x113;" horiz-adv-x="1170" 
d="M595 -19c-60 0 -116.666 9.83301 -169.999 29.5s-99.833 48.667 -139.5 87s-71 85.5 -94 141.5s-34.5 120.333 -34.5 193c0 99.333 13.833 189.833 41.5 271.5s66.167 151.667 115.5 210s108.5 103.5 177.5 135.5s144.5 48 226.5 48c55.333 0 107.833 -9.66699 157.5 -29
s93.167 -47.5 130.5 -84.5s67 -82.5 89 -136.5s33 -116 33 -186c0 -10.667 -0.333008 -23.167 -1 -37.5s-1.66699 -29 -3 -44l-4 -44c-1.33301 -14.333 -3 -26.5 -5 -36.5h-777c-0.666992 -9.33301 -1.16699 -18.333 -1.5 -27s-0.5 -17.667 -0.5 -27
c0 -55.333 8 -102.5 24 -141.5s36.833 -70.833 62.5 -95.5s54.5 -42.5 86.5 -53.5s64.333 -16.5 97 -16.5c71.333 0 128.666 12.333 171.999 37s76.333 58 99 100h183c-11.333 -41.333 -30 -80 -56 -116s-58.833 -67.167 -98.5 -93.5s-85.667 -47 -138 -62
s-109.833 -22.5 -172.5 -22.5zM946.001 638c0.666992 3.33301 1.16797 9.5 1.50098 18.5s0.5 17.833 0.5 26.5c0 35.333 -5.16699 68.833 -15.5 100.5s-25.833 59.5 -46.5 83.5s-46.334 43 -77.001 57s-66.334 21 -107.001 21c-41.333 0 -80 -7.33301 -116 -22
s-68.667 -35.5 -98 -62.5s-54.666 -59.333 -75.999 -97s-38.333 -79.5 -51 -125.5h585zM417.002 1286l29 136h674l-29 -136h-674z" />
    <glyph glyph-name="Ebreve" unicode="&#x114;" horiz-adv-x="1219" 
d="M1019 0h-896l307 1443h896l-35 -162h-711l-100 -463h675l-34 -160h-674l-106 -496h712zM577 1873l150.002 0.000976562v-13c0 -22.667 5 -43.5 15 -62.5s23.833 -35.5 41.5 -49.5s38.5 -24.833 62.5 -32.5s49.667 -11.5 77 -11.5c56.667 0 104.167 15 142.5 45
s64.166 71.333 77.499 124h154c-8.66699 -46 -24.334 -87.333 -47.001 -124s-50.5 -68 -83.5 -94s-70.5 -45.833 -112.5 -59.5s-87 -20.5 -135 -20.5c-50.667 0 -97 7 -139 21s-78 33.667 -108 59s-53.333 55.666 -70 90.999s-25 74.333 -25 117v10z" />
    <glyph glyph-name="ebreve" unicode="&#x115;" horiz-adv-x="1170" 
d="M595 -19c-60 0 -116.666 9.83301 -169.999 29.5s-99.833 48.667 -139.5 87s-71 85.5 -94 141.5s-34.5 120.333 -34.5 193c0 99.333 13.833 189.833 41.5 271.5s66.167 151.667 115.5 210s108.5 103.5 177.5 135.5s144.5 48 226.5 48c55.333 0 107.833 -9.66699 157.5 -29
s93.167 -47.5 130.5 -84.5s67 -82.5 89 -136.5s33 -116 33 -186c0 -10.667 -0.333008 -23.167 -1 -37.5s-1.66699 -29 -3 -44l-4 -44c-1.33301 -14.333 -3 -26.5 -5 -36.5h-777c-0.666992 -9.33301 -1.16699 -18.333 -1.5 -27s-0.5 -17.667 -0.5 -27
c0 -55.333 8 -102.5 24 -141.5s36.833 -70.833 62.5 -95.5s54.5 -42.5 86.5 -53.5s64.333 -16.5 97 -16.5c71.333 0 128.666 12.333 171.999 37s76.333 58 99 100h183c-11.333 -41.333 -30 -80 -56 -116s-58.833 -67.167 -98.5 -93.5s-85.667 -47 -138 -62
s-109.833 -22.5 -172.5 -22.5zM946.001 638c0.666992 3.33301 1.16797 9.5 1.50098 18.5s0.5 17.833 0.5 26.5c0 35.333 -5.16699 68.833 -15.5 100.5s-25.833 59.5 -46.5 83.5s-46.334 43 -77.001 57s-66.334 21 -107.001 21c-41.333 0 -80 -7.33301 -116 -22
s-68.667 -35.5 -98 -62.5s-54.666 -59.333 -75.999 -97s-38.333 -79.5 -51 -125.5h585zM564.002 1556c-0.666992 -4 -1.1709 -8.33594 -1.50391 -13.0029s-0.5 -10.667 -0.5 -18c0 -52 17.833 -93 53.5 -123s83.834 -45 144.501 -45c67.333 0 121.333 17 162 51
s65.667 83.333 75 148h156c-4.66699 -49.333 -17.5 -94 -38.5 -134s-48.667 -74.5 -83 -103.5s-75.166 -51.333 -122.499 -67s-99.333 -23.5 -156 -23.5c-55.333 0 -104.166 7.33301 -146.499 22s-78.166 34.834 -107.499 60.501s-51.5 55.834 -66.5 90.501
s-22.5 72.334 -22.5 113.001c0 12.667 1 26.667 3 42h151z" />
    <glyph glyph-name="Edotaccent" unicode="&#x116;" horiz-adv-x="1219" 
d="M1019 0h-896l307 1443h896l-35 -162h-711l-100 -463h675l-34 -160h-674l-106 -496h712zM932 1575c-16.667 0 -32.334 3.16699 -47.001 9.5s-27.5 15 -38.5 26s-19.667 23.833 -26 38.5s-9.5 30.334 -9.5 47.001s3.16699 32.334 9.5 47.001s15 27.5 26 38.5
s23.833 19.667 38.5 26s30.334 9.5 47.001 9.5s32.334 -3.16699 47.001 -9.5s27.5 -15 38.5 -26s19.667 -23.833 26 -38.5s9.5 -30.334 9.5 -47.001s-3.16699 -32.334 -9.5 -47.001s-15 -27.5 -26 -38.5s-23.833 -19.667 -38.5 -26s-30.334 -9.5 -47.001 -9.5z" />
    <glyph glyph-name="edotaccent" unicode="&#x117;" horiz-adv-x="1170" 
d="M595 -19c-60 0 -116.666 9.83301 -169.999 29.5s-99.833 48.667 -139.5 87s-71 85.5 -94 141.5s-34.5 120.333 -34.5 193c0 99.333 13.833 189.833 41.5 271.5s66.167 151.667 115.5 210s108.5 103.5 177.5 135.5s144.5 48 226.5 48c55.333 0 107.833 -9.66699 157.5 -29
s93.167 -47.5 130.5 -84.5s67 -82.5 89 -136.5s33 -116 33 -186c0 -10.667 -0.333008 -23.167 -1 -37.5s-1.66699 -29 -3 -44l-4 -44c-1.33301 -14.333 -3 -26.5 -5 -36.5h-777c-0.666992 -9.33301 -1.16699 -18.333 -1.5 -27s-0.5 -17.667 -0.5 -27
c0 -55.333 8 -102.5 24 -141.5s36.833 -70.833 62.5 -95.5s54.5 -42.5 86.5 -53.5s64.333 -16.5 97 -16.5c71.333 0 128.666 12.333 171.999 37s76.333 58 99 100h183c-11.333 -41.333 -30 -80 -56 -116s-58.833 -67.167 -98.5 -93.5s-85.667 -47 -138 -62
s-109.833 -22.5 -172.5 -22.5zM946.001 638c0.666992 3.33301 1.16797 9.5 1.50098 18.5s0.5 17.833 0.5 26.5c0 35.333 -5.16699 68.833 -15.5 100.5s-25.833 59.5 -46.5 83.5s-46.334 43 -77.001 57s-66.334 21 -107.001 21c-41.333 0 -80 -7.33301 -116 -22
s-68.667 -35.5 -98 -62.5s-54.666 -59.333 -75.999 -97s-38.333 -79.5 -51 -125.5h585zM782.002 1287c-17.333 0 -33.833 3.33301 -49.5 10s-29.334 15.834 -41.001 27.501s-20.834 25.334 -27.501 41.001s-10 32.167 -10 49.5s3.33301 33.666 10 48.999
s15.834 28.833 27.501 40.5s25.334 20.834 41.001 27.501s32.167 10 49.5 10s33.833 -3.33301 49.5 -10s29.334 -15.834 41.001 -27.501s20.834 -25.167 27.501 -40.5s10 -31.666 10 -48.999s-3.33301 -33.833 -10 -49.5s-15.834 -29.334 -27.501 -41.001
s-25.334 -20.834 -41.001 -27.501s-32.167 -10 -49.5 -10z" />
    <glyph glyph-name="Eogonek" unicode="&#x118;" horiz-adv-x="1219" 
d="M834 -432c-69.333 0 -123.335 16.4971 -162.002 49.4971s-58 78.833 -58 137.5c0 47.333 11.667 90.833 35 130.5s60 77.834 110 114.501h-636l307 1443h896l-35 -162h-711l-100 -463h675l-34 -160h-674l-106 -496h712l-29 -123
c-78.667 -30 -138.667 -66.167 -180 -108.5s-62 -88.5 -62 -138.5c0 -27.333 9.33301 -49.166 28 -65.499s43.667 -24.5 75 -24.5c13.333 0 26.833 0.833008 40.5 2.5s23.834 3.83398 30.501 6.50098l-26 -127c-11.333 -4.66699 -26.166 -8.5 -44.499 -11.5
s-35.5 -4.5 -51.5 -4.5z" />
    <glyph glyph-name="eogonek" unicode="&#x119;" horiz-adv-x="1176" 
d="M737 -432c-36 0 -68.001 4.66699 -96.001 14s-51.667 22.333 -71 39s-34 36.167 -44 58.5s-15 46.166 -15 71.499c0 26 2.83301 49.5 8.5 70.5s13.334 40.167 23.001 57.5s20.5 33 32.5 47s24 27 36 39v16h-16c-65.333 0 -125 10.833 -179 32.5
s-100.167 52.167 -138.5 91.5s-68 86.833 -89 142.5s-31.5 117.167 -31.5 184.5c0 98.667 13.667 188.667 41 270s65.666 151.333 114.999 210s108.333 104.167 177 136.5s144.667 48.5 228 48.5c60.667 0 116 -10.667 166 -32s93 -51.166 129 -89.499
s64.167 -84.166 84.5 -137.499s30.5 -112.333 30.5 -177c0 -11.333 -0.333008 -24.166 -1 -38.499s-1.66699 -29 -3 -44l-4 -43.5c-1.33301 -14 -3 -26 -5 -36h-777c-0.666992 -13.333 -1.16699 -23.833 -1.5 -31.5s-0.5 -15.167 -0.5 -22.5c0 -46 6.5 -88 19.5 -126
s31.167 -70.333 54.5 -97s51.666 -47.334 84.999 -62.001s70.333 -22 111 -22c131.333 0 221.666 45.667 270.999 137h183c-6 -22.667 -14.667 -44.167 -26 -64.5s-26.166 -40.833 -44.499 -61.5s-40.833 -42.334 -67.5 -65.001s-58.667 -47.667 -96 -75
c-100 -72 -150 -143.333 -150 -214c0 -32 10.333 -56.167 31 -72.5s51 -24.5 91 -24.5c20.667 0 35.667 1 45 3l-26 -123c-7.33301 -3.33301 -18.166 -5.83301 -32.499 -7.5s-30.166 -2.5 -47.499 -2.5zM945.999 638c0.666992 3.33301 1.16699 9.50098 1.5 18.501
s0.5 17.833 0.5 26.5c0 39.333 -5.83301 75 -17.5 107s-28.334 59.5 -50.001 82.5s-47.667 40.833 -78 53.5s-63.833 19 -100.5 19c-40 0 -77.833 -7 -113.5 -21s-68.167 -34.333 -97.5 -61s-55.166 -58.834 -77.499 -96.501s-39.833 -80.5 -52.5 -128.5h585z" />
    <glyph glyph-name="Ecaron" unicode="&#x11a;" horiz-adv-x="1219" 
d="M1019 0h-896l307 1443h896l-35 -162h-711l-100 -463h675l-34 -160h-674l-106 -496h712zM631 1873h185l105 -186h16l183 186h207l-310 -298h-202z" />
    <glyph glyph-name="ecaron" unicode="&#x11b;" horiz-adv-x="1170" 
d="M595 -19c-60 0 -116.666 9.83301 -169.999 29.5s-99.833 48.667 -139.5 87s-71 85.5 -94 141.5s-34.5 120.333 -34.5 193c0 99.333 13.833 189.833 41.5 271.5s66.167 151.667 115.5 210s108.5 103.5 177.5 135.5s144.5 48 226.5 48c55.333 0 107.833 -9.66699 157.5 -29
s93.167 -47.5 130.5 -84.5s67 -82.5 89 -136.5s33 -116 33 -186c0 -10.667 -0.333008 -23.167 -1 -37.5s-1.66699 -29 -3 -44l-4 -44c-1.33301 -14.333 -3 -26.5 -5 -36.5h-777c-0.666992 -9.33301 -1.16699 -18.333 -1.5 -27s-0.5 -17.667 -0.5 -27
c0 -55.333 8 -102.5 24 -141.5s36.833 -70.833 62.5 -95.5s54.5 -42.5 86.5 -53.5s64.333 -16.5 97 -16.5c71.333 0 128.666 12.333 171.999 37s76.333 58 99 100h183c-11.333 -41.333 -30 -80 -56 -116s-58.833 -67.167 -98.5 -93.5s-85.667 -47 -138 -62
s-109.833 -22.5 -172.5 -22.5zM946.001 638c0.666992 3.33301 1.16797 9.5 1.50098 18.5s0.5 17.833 0.5 26.5c0 35.333 -5.16699 68.833 -15.5 100.5s-25.833 59.5 -46.5 83.5s-46.334 43 -77.001 57s-66.334 21 -107.001 21c-41.333 0 -80 -7.33301 -116 -22
s-68.667 -35.5 -98 -62.5s-54.666 -59.333 -75.999 -97s-38.333 -79.5 -51 -125.5h585zM654.002 1228l-210 340h185l129 -227h16l225 227h211l-354 -340h-202z" />
    <glyph glyph-name="Gcircumflex" unicode="&#x11c;" horiz-adv-x="1528" 
d="M1449 540c-40 -187.333 -117.501 -329.834 -232.501 -427.501s-261.833 -146.5 -440.5 -146.5c-86 0 -164.167 14.333 -234.5 43s-130.666 69 -180.999 121s-89.333 114.667 -117 188s-41.5 154.666 -41.5 243.999c0 88 8.66699 171.833 26 251.5s42 153.334 74 221.001
s70.667 128.834 116 183.501s96.166 101.167 152.499 139.5s117.5 67.833 183.5 88.5s135.667 31 209 31c74.667 0 144.167 -11 208.5 -33s120.5 -52.833 168.5 -92.5s86.667 -87 116 -142s46.333 -115.5 51 -181.5c0.666992 -4 1 -8.16699 1 -12.5v-23.5h-183
c-3.33301 48.667 -14.666 92.5 -33.999 131.5s-45.333 72.333 -78 100s-71.334 49 -116.001 64s-94 22.5 -148 22.5c-52.667 0 -103.167 -8.5 -151.5 -25.5s-93.166 -41 -134.499 -72s-78.833 -68.333 -112.5 -112s-62.5 -92.5 -86.5 -146.5s-42.5 -112.5 -55.5 -175.5
s-19.5 -128.833 -19.5 -197.5c0 -69.333 9.5 -131.666 28.5 -186.999s46.333 -102.333 82 -141s79 -68.334 130 -89.001s108.5 -31 172.5 -31c57.333 0 111.333 9.33301 162 28s96.167 45 136.5 79s74.333 75 102 123s47.5 101.333 59.5 160l11 55h-400l34 158h584z
M1318 1575h-185l-105 186h-16l-183 -186h-207l310 298h202z" />
    <glyph glyph-name="gcircumflex" unicode="&#x11d;" horiz-adv-x="1247" 
d="M503 -413c-62.667 0 -120.004 8.3291 -172.004 24.9961s-97.167 39 -135.5 67s-68.666 60.5 -90.999 97.5s-35.166 76.167 -38.499 117.5h183c4 -21.333 12.667 -41.666 26 -60.999s31.333 -36.166 54 -50.499s49.834 -25.666 81.501 -33.999s67.167 -12.5 106.5 -12.5
c48 0 90.667 6 128 18s69.5 28.667 96.5 50s49.167 46.833 66.5 76.5s30 62.167 38 97.5l47 200h-16c-39.333 -54.667 -86.333 -95.334 -141 -122.001s-116.334 -40 -185.001 -40c-54.667 0 -105.834 10.333 -153.501 31s-89.167 50 -124.5 88s-63.166 83.5 -83.499 136.5
s-30.5 111.5 -30.5 175.5c0 96 13.667 183.833 41 263.5s65 148.167 113 205.5s104.667 101.833 170 133.5s136 47.5 212 47.5c38 0 74.833 -5.33301 110.5 -16s68.5 -25.667 98.5 -45s56.167 -42.333 78.5 -69s38.833 -56 49.5 -88h16l42 199h167l-244 -1130
c-12 -55.333 -32.167 -105.166 -60.5 -149.499s-64.166 -82.166 -107.499 -113.499s-93.666 -55.5 -150.999 -72.5s-121 -25.5 -191 -25.5zM603.996 167.996c54 0 104.331 11.5 150.998 34.5s87 55.333 121 97s60.667 91.667 80 150s29 123.166 29 194.499
c0 46 -6.5 87.333 -19.5 124s-31.5 67.834 -55.5 93.501s-53.167 45.5 -87.5 59.5s-72.5 21 -114.5 21c-53.333 0 -102.666 -11 -147.999 -33s-84.333 -53.333 -117 -94s-58.167 -90 -76.5 -148s-27.5 -122.667 -27.5 -194c0 -48 6.16699 -90.833 18.5 -128.5
s30 -69.667 53 -96s50.833 -46.333 83.5 -60s69.334 -20.5 110.001 -20.5zM1153.99 1228h-187l-129 227h-16l-225 -227h-209l354 340h202z" />
    <glyph glyph-name="Gbreve" unicode="&#x11e;" horiz-adv-x="1528" 
d="M1449 540c-40 -187.333 -117.501 -329.834 -232.501 -427.501s-261.833 -146.5 -440.5 -146.5c-86 0 -164.167 14.333 -234.5 43s-130.666 69 -180.999 121s-89.333 114.667 -117 188s-41.5 154.666 -41.5 243.999c0 88 8.66699 171.833 26 251.5s42 153.334 74 221.001
s70.667 128.834 116 183.501s96.166 101.167 152.499 139.5s117.5 67.833 183.5 88.5s135.667 31 209 31c74.667 0 144.167 -11 208.5 -33s120.5 -52.833 168.5 -92.5s86.667 -87 116 -142s46.333 -115.5 51 -181.5c0.666992 -4 1 -8.16699 1 -12.5v-23.5h-183
c-3.33301 48.667 -14.666 92.5 -33.999 131.5s-45.333 72.333 -78 100s-71.334 49 -116.001 64s-94 22.5 -148 22.5c-52.667 0 -103.167 -8.5 -151.5 -25.5s-93.166 -41 -134.499 -72s-78.833 -68.333 -112.5 -112s-62.5 -92.5 -86.5 -146.5s-42.5 -112.5 -55.5 -175.5
s-19.5 -128.833 -19.5 -197.5c0 -69.333 9.5 -131.666 28.5 -186.999s46.333 -102.333 82 -141s79 -68.334 130 -89.001s108.5 -31 172.5 -31c57.333 0 111.333 9.33301 162 28s96.167 45 136.5 79s74.333 75 102 123s47.5 101.333 59.5 160l11 55h-400l34 158h584z
M652.999 1873l150.002 0.000976562v-13c0 -22.667 5 -43.5 15 -62.5s23.833 -35.5 41.5 -49.5s38.5 -24.833 62.5 -32.5s49.667 -11.5 77 -11.5c56.667 0 104.167 15 142.5 45s64.166 71.333 77.499 124h154c-8.66699 -46 -24.334 -87.333 -47.001 -124s-50.5 -68 -83.5 -94
s-70.5 -45.833 -112.5 -59.5s-87 -20.5 -135 -20.5c-50.667 0 -97 7 -139 21s-78 33.667 -108 59s-53.333 55.666 -70 90.999s-25 74.333 -25 117v10z" />
    <glyph glyph-name="gbreve" unicode="&#x11f;" horiz-adv-x="1247" 
d="M503 -413c-62.667 0 -120.004 8.3291 -172.004 24.9961s-97.167 39 -135.5 67s-68.666 60.5 -90.999 97.5s-35.166 76.167 -38.499 117.5h183c4 -21.333 12.667 -41.666 26 -60.999s31.333 -36.166 54 -50.499s49.834 -25.666 81.501 -33.999s67.167 -12.5 106.5 -12.5
c48 0 90.667 6 128 18s69.5 28.667 96.5 50s49.167 46.833 66.5 76.5s30 62.167 38 97.5l47 200h-16c-39.333 -54.667 -86.333 -95.334 -141 -122.001s-116.334 -40 -185.001 -40c-54.667 0 -105.834 10.333 -153.501 31s-89.167 50 -124.5 88s-63.166 83.5 -83.499 136.5
s-30.5 111.5 -30.5 175.5c0 96 13.667 183.833 41 263.5s65 148.167 113 205.5s104.667 101.833 170 133.5s136 47.5 212 47.5c38 0 74.833 -5.33301 110.5 -16s68.5 -25.667 98.5 -45s56.167 -42.333 78.5 -69s38.833 -56 49.5 -88h16l42 199h167l-244 -1130
c-12 -55.333 -32.167 -105.166 -60.5 -149.499s-64.166 -82.166 -107.499 -113.499s-93.666 -55.5 -150.999 -72.5s-121 -25.5 -191 -25.5zM603.996 167.996c54 0 104.331 11.5 150.998 34.5s87 55.333 121 97s60.667 91.667 80 150s29 123.166 29 194.499
c0 46 -6.5 87.333 -19.5 124s-31.5 67.834 -55.5 93.501s-53.167 45.5 -87.5 59.5s-72.5 21 -114.5 21c-53.333 0 -102.666 -11 -147.999 -33s-84.333 -53.333 -117 -94s-58.167 -90 -76.5 -148s-27.5 -122.667 -27.5 -194c0 -48 6.16699 -90.833 18.5 -128.5
s30 -69.667 53 -96s50.833 -46.333 83.5 -60s69.334 -20.5 110.001 -20.5zM603.994 1556c-0.666992 -4 -1.1709 -8.33594 -1.50391 -13.0029s-0.5 -10.667 -0.5 -18c0 -52 17.833 -93 53.5 -123s83.834 -45 144.501 -45c67.333 0 121.333 17 162 51s65.667 83.333 75 148
h156c-4.66699 -49.333 -17.5 -94 -38.5 -134s-48.667 -74.5 -83 -103.5s-75.166 -51.333 -122.499 -67s-99.333 -23.5 -156 -23.5c-55.333 0 -104.166 7.33301 -146.499 22s-78.166 34.834 -107.499 60.501s-51.5 55.834 -66.5 90.501s-22.5 72.334 -22.5 113.001
c0 12.667 1 26.667 3 42h151z" />
    <glyph glyph-name="Gdotaccent" unicode="&#x120;" horiz-adv-x="1528" 
d="M1449 540c-40 -187.333 -117.501 -329.834 -232.501 -427.501s-261.833 -146.5 -440.5 -146.5c-86 0 -164.167 14.333 -234.5 43s-130.666 69 -180.999 121s-89.333 114.667 -117 188s-41.5 154.666 -41.5 243.999c0 88 8.66699 171.833 26 251.5s42 153.334 74 221.001
s70.667 128.834 116 183.501s96.166 101.167 152.499 139.5s117.5 67.833 183.5 88.5s135.667 31 209 31c74.667 0 144.167 -11 208.5 -33s120.5 -52.833 168.5 -92.5s86.667 -87 116 -142s46.333 -115.5 51 -181.5c0.666992 -4 1 -8.16699 1 -12.5v-23.5h-183
c-3.33301 48.667 -14.666 92.5 -33.999 131.5s-45.333 72.333 -78 100s-71.334 49 -116.001 64s-94 22.5 -148 22.5c-52.667 0 -103.167 -8.5 -151.5 -25.5s-93.166 -41 -134.499 -72s-78.833 -68.333 -112.5 -112s-62.5 -92.5 -86.5 -146.5s-42.5 -112.5 -55.5 -175.5
s-19.5 -128.833 -19.5 -197.5c0 -69.333 9.5 -131.666 28.5 -186.999s46.333 -102.333 82 -141s79 -68.334 130 -89.001s108.5 -31 172.5 -31c57.333 0 111.333 9.33301 162 28s96.167 45 136.5 79s74.333 75 102 123s47.5 101.333 59.5 160l11 55h-400l34 158h584z
M1008 1575c-16.667 0 -32.334 3.16699 -47.001 9.5s-27.5 15 -38.5 26s-19.667 23.833 -26 38.5s-9.5 30.334 -9.5 47.001s3.16699 32.334 9.5 47.001s15 27.5 26 38.5s23.833 19.667 38.5 26s30.334 9.5 47.001 9.5s32.334 -3.16699 47.001 -9.5s27.5 -15 38.5 -26
s19.667 -23.833 26 -38.5s9.5 -30.334 9.5 -47.001s-3.16699 -32.334 -9.5 -47.001s-15 -27.5 -26 -38.5s-23.833 -19.667 -38.5 -26s-30.334 -9.5 -47.001 -9.5z" />
    <glyph glyph-name="gdotaccent" unicode="&#x121;" horiz-adv-x="1247" 
d="M503 -413c-62.667 0 -120.004 8.3291 -172.004 24.9961s-97.167 39 -135.5 67s-68.666 60.5 -90.999 97.5s-35.166 76.167 -38.499 117.5h183c4 -21.333 12.667 -41.666 26 -60.999s31.333 -36.166 54 -50.499s49.834 -25.666 81.501 -33.999s67.167 -12.5 106.5 -12.5
c48 0 90.667 6 128 18s69.5 28.667 96.5 50s49.167 46.833 66.5 76.5s30 62.167 38 97.5l47 200h-16c-39.333 -54.667 -86.333 -95.334 -141 -122.001s-116.334 -40 -185.001 -40c-54.667 0 -105.834 10.333 -153.501 31s-89.167 50 -124.5 88s-63.166 83.5 -83.499 136.5
s-30.5 111.5 -30.5 175.5c0 96 13.667 183.833 41 263.5s65 148.167 113 205.5s104.667 101.833 170 133.5s136 47.5 212 47.5c38 0 74.833 -5.33301 110.5 -16s68.5 -25.667 98.5 -45s56.167 -42.333 78.5 -69s38.833 -56 49.5 -88h16l42 199h167l-244 -1130
c-12 -55.333 -32.167 -105.166 -60.5 -149.499s-64.166 -82.166 -107.499 -113.499s-93.666 -55.5 -150.999 -72.5s-121 -25.5 -191 -25.5zM603.996 167.996c54 0 104.331 11.5 150.998 34.5s87 55.333 121 97s60.667 91.667 80 150s29 123.166 29 194.499
c0 46 -6.5 87.333 -19.5 124s-31.5 67.834 -55.5 93.501s-53.167 45.5 -87.5 59.5s-72.5 21 -114.5 21c-53.333 0 -102.666 -11 -147.999 -33s-84.333 -53.333 -117 -94s-58.167 -90 -76.5 -148s-27.5 -122.667 -27.5 -194c0 -48 6.16699 -90.833 18.5 -128.5
s30 -69.667 53 -96s50.833 -46.333 83.5 -60s69.334 -20.5 110.001 -20.5zM821.994 1287c-17.333 0 -33.833 3.33301 -49.5 10s-29.334 15.834 -41.001 27.501s-20.834 25.334 -27.501 41.001s-10 32.167 -10 49.5s3.33301 33.666 10 48.999s15.834 28.833 27.501 40.5
s25.334 20.834 41.001 27.501s32.167 10 49.5 10s33.833 -3.33301 49.5 -10s29.334 -15.834 41.001 -27.501s20.834 -25.167 27.501 -40.5s10 -31.666 10 -48.999s-3.33301 -33.833 -10 -49.5s-15.834 -29.334 -27.501 -41.001s-25.334 -20.834 -41.001 -27.501
s-32.167 -10 -49.5 -10z" />
    <glyph glyph-name="Gcommaaccent" unicode="&#x122;" horiz-adv-x="1528" 
d="M1449 540c-40 -187.333 -117.501 -329.834 -232.501 -427.501s-261.833 -146.5 -440.5 -146.5c-86 0 -164.167 14.333 -234.5 43s-130.666 69 -180.999 121s-89.333 114.667 -117 188s-41.5 154.666 -41.5 243.999c0 88 8.66699 171.833 26 251.5s42 153.334 74 221.001
s70.667 128.834 116 183.501s96.166 101.167 152.499 139.5s117.5 67.833 183.5 88.5s135.667 31 209 31c74.667 0 144.167 -11 208.5 -33s120.5 -52.833 168.5 -92.5s86.667 -87 116 -142s46.333 -115.5 51 -181.5c0.666992 -4 1 -8.16699 1 -12.5v-23.5h-183
c-3.33301 48.667 -14.666 92.5 -33.999 131.5s-45.333 72.333 -78 100s-71.334 49 -116.001 64s-94 22.5 -148 22.5c-52.667 0 -103.167 -8.5 -151.5 -25.5s-93.166 -41 -134.499 -72s-78.833 -68.333 -112.5 -112s-62.5 -92.5 -86.5 -146.5s-42.5 -112.5 -55.5 -175.5
s-19.5 -128.833 -19.5 -197.5c0 -69.333 9.5 -131.666 28.5 -186.999s46.333 -102.333 82 -141s79 -68.334 130 -89.001s108.5 -31 172.5 -31c57.333 0 111.333 9.33301 162 28s96.167 45 136.5 79s74.333 75 102 123s47.5 101.333 59.5 160l11 55h-400l34 158h584z
M502.999 -518.001l182 377h182l-197 -377h-167z" />
    <glyph glyph-name="gcommaaccent" unicode="&#x123;" horiz-adv-x="1248" 
d="M503 -413c-62.667 0 -120.004 8.3291 -172.004 24.9961s-97.167 39 -135.5 67s-68.666 60.5 -90.999 97.5s-35.166 76.167 -38.499 117.5h183c4 -21.333 12.667 -41.666 26 -60.999s31.333 -36.166 54 -50.499s49.834 -25.666 81.501 -33.999s67.167 -12.5 106.5 -12.5
c48 0 90.667 6 128 18s69.5 28.667 96.5 50s49.167 46.833 66.5 76.5s30 62.167 38 97.5l47 200h-16c-39.333 -54.667 -86.333 -95.334 -141 -122.001s-116.334 -40 -185.001 -40c-54.667 0 -105.834 10.333 -153.501 31s-89.167 50 -124.5 88s-63.166 83.5 -83.499 136.5
s-30.5 111.5 -30.5 175.5c0 96 13.667 183.833 41 263.5s65 148.167 113 205.5s104.667 101.833 170 133.5s136 47.5 212 47.5c38 0 74.833 -5.33301 110.5 -16s68.5 -25.667 98.5 -45s56.167 -42.333 78.5 -69s38.833 -56 49.5 -88h16l42 199h167l-244 -1130
c-12 -55.333 -32.167 -105.166 -60.5 -149.499s-64.166 -82.166 -107.499 -113.499s-93.666 -55.5 -150.999 -72.5s-121 -25.5 -191 -25.5zM603.996 167.996c54 0 104.331 11.5 150.998 34.5s87 55.333 121 97s60.667 91.667 80 150s29 123.166 29 194.499
c0 46 -6.5 87.333 -19.5 124s-31.5 67.834 -55.5 93.501s-53.167 45.5 -87.5 59.5s-72.5 21 -114.5 21c-53.333 0 -102.666 -11 -147.999 -33s-84.333 -53.333 -117 -94s-58.167 -90 -76.5 -148s-27.5 -122.667 -27.5 -194c0 -48 6.16699 -90.833 18.5 -128.5
s30 -69.667 53 -96s50.833 -46.333 83.5 -60s69.334 -20.5 110.001 -20.5zM1254.99 1663l-182 -377h-182l197 377h167z" />
    <glyph glyph-name="Hcircumflex" unicode="&#x124;" horiz-adv-x="1522" 
d="M1094 0l140 657h-788l-140 -657h-183l307 1443h184l-133 -624h788l133 624h184l-307 -1443h-185zM1372 1575h-185l-105 186h-16l-183 -186h-207l310 298h202z" />
    <glyph glyph-name="hcircumflex" unicode="&#x125;" horiz-adv-x="1236" 
d="M432 1506l175.002 -0.00390625l-127 -589h16c16.667 24 35.667 46.833 57 68.5s45.5 40.834 72.5 57.501s57.333 29.834 91 39.501s71.167 14.5 112.5 14.5c52.667 0 100.334 -8.83301 143.001 -26.5s79 -41.5 109 -71.5s53.167 -64.5 69.5 -103.5
s24.5 -79.833 24.5 -122.5c0 -37.333 -4.66699 -78.666 -14 -123.999l-138 -649h-175l132 619c4 19.333 7.16699 37.833 9.5 55.5s3.5 34.167 3.5 49.5c0 32.667 -5.33301 62.334 -16 89.001s-26.334 49.5 -47.001 68.5s-45.667 33.833 -75 44.5s-62.333 16 -99 16
c-42.667 0 -82.167 -7.16699 -118.5 -21.5s-68.833 -34.166 -97.5 -59.499s-52.834 -55.333 -72.501 -90s-33.834 -72.334 -42.501 -113.001l-140 -658h-175zM883.002 1638h-185l-105 186h-16l-183 -186h-207l310 298h202z" />
    <glyph glyph-name="Hbar" unicode="&#x126;" horiz-adv-x="1473" 
d="M1301 1075h-788l-55 -256h788zM1617 1075h-132l-229 -1075h-185l140 657h-788l-140 -657h-183l229 1075h-136l30 143h136l48 225h184l-48 -225h788l48 225h184l-48 -225h132z" />
    <glyph glyph-name="hbar" unicode="&#x127;" horiz-adv-x="1252" 
d="M496 917c16.667 24 35.6689 46.8291 57.002 68.4961s45.5 40.834 72.5 57.501s57.333 29.834 91 39.501s71.167 14.5 112.5 14.5c52.667 0 100.334 -8.83301 143.001 -26.5s79 -41.5 109 -71.5s53.167 -64.5 69.5 -103.5s24.5 -79.833 24.5 -122.5
c0 -37.333 -4.66699 -78.666 -14 -123.999l-138 -649h-175l132 619c4 19.333 7.16699 37.833 9.5 55.5s3.5 34.167 3.5 49.5c0 32.667 -5.33301 62.334 -16 89.001s-26.334 49.5 -47.001 68.5s-45.667 33.833 -75 44.5s-62.333 16 -99 16
c-42.667 0 -82.167 -7.16699 -118.5 -21.5s-68.833 -34.166 -97.5 -59.499s-52.834 -55.333 -72.501 -90s-33.834 -72.334 -42.501 -113.001l-140 -658h-175l275 1287h-147l26 124h148l20 95h175l-20 -95h233l-26 -124h-234l-80 -370h16z" />
    <glyph glyph-name="Itilde" unicode="&#x128;" horiz-adv-x="550" 
d="M123 0l307 1443h184l-307 -1443h-184zM734 1575c-28 0 -53 4 -75 12s-41.667 18 -59 30s-33.166 25.167 -47.499 39.5l-41 39.5c-13 12 -26 22 -39 30s-26.833 12 -41.5 12c-59.333 0 -97.333 -39.333 -114 -118h-142c6.66699 40 18 75.667 34 107s35.5 57.833 58.5 79.5
s48.667 38.167 77 49.5s58.166 17 89.499 17c28 0 52.833 -4 74.5 -12s41.167 -18 58.5 -30s33.166 -25.167 47.499 -39.5l41 -39.5c13 -12 26 -22 39 -30s26.833 -12 41.5 -12c60 0 98.333 39.333 115 118h142c-6.66699 -40 -18 -75.667 -34 -107
s-35.5 -57.833 -58.5 -79.5s-48.667 -38.167 -77 -49.5s-58.166 -17 -89.499 -17z" />
    <glyph glyph-name="itilde" unicode="&#x129;" horiz-adv-x="516" 
d="M341 1078h172l-229 -1078h-172zM655 1217c-29.333 0 -54.834 4.5 -76.501 13.5s-41 20.333 -58 34s-32 28.5 -45 44.5s-25.667 30.833 -38 44.5s-25 25 -38 34s-27.5 13.5 -43.5 13.5c-30 0 -54.167 -11.167 -72.5 -33.5s-32.166 -57.5 -41.499 -105.5h-142
c5.33301 44.667 15.666 84 30.999 118s34.666 62.5 57.999 85.5s49.833 40.5 79.5 52.5s61.167 18 94.5 18c29.333 0 54.666 -4.5 75.999 -13.5s40.333 -20.333 57 -34s31.667 -28.5 45 -44.5l38.5 -44.5c12.333 -13.667 24.833 -25 37.5 -34s27.334 -13.5 44.001 -13.5
c30 0 54.333 11.167 73 33.5s32.667 57.5 42 105.5h142c-5.33301 -44.667 -15.666 -84 -30.999 -118s-34.666 -62.5 -57.999 -85.5s-49.833 -40.5 -79.5 -52.5s-61.167 -18 -94.5 -18z" />
    <glyph glyph-name="Imacron" unicode="&#x12a;" horiz-adv-x="550" 
d="M123 0l307 1443h184l-307 -1443h-184zM223 1620l29 136h674l-29 -136h-674z" />
    <glyph glyph-name="imacron" unicode="&#x12b;" horiz-adv-x="516" 
d="M341 1078h172l-229 -1078h-172zM134 1286l29 136h674l-29 -136h-674z" />
    <glyph glyph-name="Ibreve" unicode="&#x12c;" horiz-adv-x="550" 
d="M123 0l307 1443h184l-307 -1443h-184zM222 1873l150.002 0.000976562v-13c0 -22.667 5 -43.5 15 -62.5s23.833 -35.5 41.5 -49.5s38.5 -24.833 62.5 -32.5s49.667 -11.5 77 -11.5c56.667 0 104.167 15 142.5 45s64.166 71.333 77.499 124h154
c-8.66699 -46 -24.334 -87.333 -47.001 -124s-50.5 -68 -83.5 -94s-70.5 -45.833 -112.5 -59.5s-87 -20.5 -135 -20.5c-50.667 0 -97 7 -139 21s-78 33.667 -108 59s-53.333 55.666 -70 90.999s-25 74.333 -25 117v10z" />
    <glyph glyph-name="ibreve" unicode="&#x12d;" horiz-adv-x="516" 
d="M341 1078h172l-229 -1078h-172zM281 1556c-0.666992 -4 -1.1709 -8.33594 -1.50391 -13.0029s-0.5 -10.667 -0.5 -18c0 -52 17.833 -93 53.5 -123s83.834 -45 144.501 -45c67.333 0 121.333 17 162 51s65.667 83.333 75 148h156c-4.66699 -49.333 -17.5 -94 -38.5 -134
s-48.667 -74.5 -83 -103.5s-75.166 -51.333 -122.499 -67s-99.333 -23.5 -156 -23.5c-55.333 0 -104.166 7.33301 -146.499 22s-78.166 34.834 -107.499 60.501s-51.5 55.834 -66.5 90.501s-22.5 72.334 -22.5 113.001c0 12.667 1 26.667 3 42h151z" />
    <glyph glyph-name="Iogonek" unicode="&#x12e;" horiz-adv-x="550" 
d="M614 1443l-299.003 -1404c-38 -19.333 -70.5 -38.333 -97.5 -57s-49 -37.5 -66 -56.5s-29.333 -38.667 -37 -59s-11.5 -41.833 -11.5 -64.5c0 -31.333 9.16699 -55.833 27.5 -73.5s43.5 -26.5 75.5 -26.5c13.333 0 26.833 0.833008 40.5 2.5
s23.834 3.83398 30.501 6.50098l-26 -127c-11.333 -4.66699 -26.166 -8.5 -44.499 -11.5s-35.5 -4.5 -51.5 -4.5c-33.333 0 -63.666 4.66699 -90.999 14s-50.5 22.5 -69.5 39.5s-33.667 37.667 -44 62s-15.5 51.5 -15.5 81.5c0 29.333 3.66699 56.5 11 81.5
s19 49.167 35 72.5s36.667 46.166 62 68.499s56 45.5 92 69.5l295 1386h184z" />
    <glyph glyph-name="iogonek" unicode="&#x12f;" horiz-adv-x="516" 
d="M499 1297c-16.667 0 -32.167 3.16699 -46.5 9.5s-27 15 -38 26s-19.667 23.667 -26 38s-9.5 29.833 -9.5 46.5s3.16699 32.167 9.5 46.5s15 27 26 38s23.667 19.667 38 26s29.833 9.5 46.5 9.5s32.167 -3.16699 46.5 -9.5s27 -15 38 -26s19.667 -23.667 26 -38
s9.5 -29.833 9.5 -46.5s-3.16699 -32.167 -9.5 -46.5s-15 -27 -26 -38s-23.667 -19.667 -38 -26s-29.833 -9.5 -46.5 -9.5zM135 -432c-33.333 0 -63.6689 4.66699 -91.002 14s-50.5 22.5 -69.5 39.5s-33.667 37.667 -44 62s-15.5 51.5 -15.5 81.5c0 29.333 4 56.5 12 81.5
s20.333 49.167 37 72.5s38.167 46.166 64.5 68.499s57.5 45.5 93.5 69.5l219 1021h177l-223 -1039c-38 -19.333 -70.5 -38.333 -97.5 -57s-49 -37.5 -66 -56.5s-29.333 -38.667 -37 -59s-11.5 -41.833 -11.5 -64.5c0 -31.333 9.16699 -55.833 27.5 -73.5
s43.5 -26.5 75.5 -26.5c13.333 0 26.833 0.833008 40.5 2.5s23.834 3.83398 30.501 6.50098l-26 -127c-11.333 -4.66699 -26.166 -8.5 -44.499 -11.5s-35.5 -4.5 -51.5 -4.5z" />
    <glyph glyph-name="Idotaccent" unicode="&#x130;" horiz-adv-x="550" 
d="M123 0l307 1443h184l-307 -1443h-184zM576 1575c-16.667 0 -32.334 3.16699 -47.001 9.5s-27.5 15 -38.5 26s-19.667 23.833 -26 38.5s-9.5 30.334 -9.5 47.001s3.16699 32.334 9.5 47.001s15 27.5 26 38.5s23.833 19.667 38.5 26s30.334 9.5 47.001 9.5
s32.334 -3.16699 47.001 -9.5s27.5 -15 38.5 -26s19.667 -23.833 26 -38.5s9.5 -30.334 9.5 -47.001s-3.16699 -32.334 -9.5 -47.001s-15 -27.5 -26 -38.5s-23.833 -19.667 -38.5 -26s-30.334 -9.5 -47.001 -9.5z" />
    <glyph glyph-name="dotlessi" unicode="&#x131;" horiz-adv-x="516" 
d="M341 1078h172l-229 -1078h-172z" />
    <glyph glyph-name="u0132" unicode="&#x132;" horiz-adv-x="1650" 
d="M123 0l307 1443h184l-307 -1443h-184zM825 337c0.666992 -31.333 6.33496 -59.501 17.002 -84.501s25.667 -46.167 45 -63.5s42.5 -30.666 69.5 -39.999s57.5 -14 91.5 -14c138.667 0 227 89.667 265 269l221 1039h179l-228 -1080
c-26.667 -126 -78.834 -223.667 -156.501 -293s-178.5 -104 -302.5 -104c-58 0 -111.167 9.5 -159.5 28.5s-89.5 45 -123.5 78s-59.833 72.167 -77.5 117.5s-24.834 94.333 -21.501 147h181z" />
    <glyph glyph-name="u0133" unicode="&#x133;" horiz-adv-x="1032" 
d="M341 1078h176l-231 -1078h-176zM499 1297c-16.667 0 -32.167 3.16699 -46.5 9.5s-27 15 -38 26s-19.667 23.667 -26 38s-9.5 29.833 -9.5 46.5s3.16699 32.167 9.5 46.5s15 27 26 38s23.667 19.667 38 26s29.833 9.5 46.5 9.5s32.167 -3.16699 46.5 -9.5s27 -15 38 -26
s19.667 -23.667 26 -38s9.5 -29.833 9.5 -46.5s-3.16699 -32.167 -9.5 -46.5s-15 -27 -26 -38s-23.667 -19.667 -38 -26s-29.833 -9.5 -46.5 -9.5zM778 -107c-10.667 -50.667 -25.6689 -94.334 -45.002 -131.001s-43.166 -66.834 -71.499 -90.501s-61.5 -41.167 -99.5 -52.5
s-81 -17 -129 -17c-8 0 -20 0.333008 -36 1s-31 1.66699 -45 3l33 152c10.667 -1.33301 19.834 -2.16602 27.501 -2.49902s16.167 -0.5 25.5 -0.5c25.333 0 47.333 2.83301 66 8.5s35 14.834 49 27.501s25.667 29.167 35 49.5s17 45.5 23 75.5l247 1162h172zM1015 1297
c-16.667 0 -32.167 3.16699 -46.5 9.5s-27 15 -38 26s-19.667 23.667 -26 38s-9.5 29.833 -9.5 46.5s3.16699 32.167 9.5 46.5s15 27 26 38s23.667 19.667 38 26s29.833 9.5 46.5 9.5s32.167 -3.16699 46.5 -9.5s27 -15 38 -26s19.667 -23.667 26 -38s9.5 -29.833 9.5 -46.5
s-3.16699 -32.167 -9.5 -46.5s-15 -27 -26 -38s-23.667 -19.667 -38 -26s-29.833 -9.5 -46.5 -9.5z" />
    <glyph glyph-name="Jcircumflex" unicode="&#x134;" horiz-adv-x="1102" 
d="M277 337c0.666992 -31.333 6.33496 -59.501 17.002 -84.501s25.667 -46.167 45 -63.5s42.5 -30.666 69.5 -39.999s57.5 -14 91.5 -14c138.667 0 227 89.667 265 269l221 1039h179l-228 -1080c-26.667 -126 -78.834 -223.667 -156.501 -293s-178.5 -104 -302.5 -104
c-58 0 -111.167 9.5 -159.5 28.5s-89.5 45 -123.5 78s-59.833 72.167 -77.5 117.5s-24.834 94.333 -21.501 147h181zM1439 1575h-185l-105 186h-16l-183 -186h-207l310 298h202z" />
    <glyph glyph-name="jcircumflex" unicode="&#x135;" horiz-adv-x="516" 
d="M262 -107c-10.667 -50.667 -25.6689 -94.334 -45.002 -131.001s-43.166 -66.834 -71.499 -90.501s-61.5 -41.167 -99.5 -52.5s-81 -17 -129 -17c-8 0 -20 0.333008 -36 1s-31 1.66699 -45 3l33 152c10.667 -1.33301 19.834 -2.16602 27.501 -2.49902
s16.167 -0.5 25.5 -0.5c25.333 0 47.333 2.83301 66 8.5s35 14.834 49 27.501s25.667 29.167 35 49.5s17 45.5 23 75.5l247 1162h172zM831.998 1228h-187l-129 227h-16l-225 -227h-209l354 340h202z" />
    <glyph glyph-name="Kcommaaccent" unicode="&#x136;" horiz-adv-x="1349" 
d="M123 0l307 1443h179l-149 -701h16l772 701h235l-702 -635l449 -808h-210l-381 697l-229 -204l-107 -493h-180zM354 -518l182 377h182l-197 -377h-167z" />
    <glyph glyph-name="kcommaaccent" unicode="&#x137;" horiz-adv-x="1112" 
d="M981 1078h227l-565 -465l363 -613h-201l-301 516l-130 -94l-90 -422h-174l320 1506h174l-185 -870h16zM255 -518l182 377h182l-197 -377h-167z" />
    <glyph glyph-name="Lacute" unicode="&#x139;" horiz-adv-x="1164" 
d="M1001 0h-878l307 1443h184l-273 -1281h694zM832 1873h226l-395 -298h-204z" />
    <glyph glyph-name="lacute" unicode="&#x13a;" horiz-adv-x="518" 
d="M430 1506h176l-320 -1506h-176zM829 1936h226l-395 -298h-204z" />
    <glyph glyph-name="Lcommaaccent" unicode="&#x13b;" horiz-adv-x="1164" 
d="M1001 0h-878l307 1443h184l-273 -1281h694zM274 -518l182 377h182l-197 -377h-167z" />
    <glyph glyph-name="lcommaaccent" unicode="&#x13c;" horiz-adv-x="518" 
d="M430 1506h176l-320 -1506h-176zM-89 -518l182 377h182l-197 -377h-167z" />
    <glyph glyph-name="Lcaron" unicode="&#x13d;" horiz-adv-x="1164" 
d="M983 1443l-154 -488h-120l104 488h170zM1001 0h-878l307 1443h184l-273 -1281h694z" />
    <glyph glyph-name="lcaron" unicode="&#x13e;" horiz-adv-x="615" 
d="M899 1506l-154 -488h-120l104 488h170zM430 1506h176l-320 -1506h-176z" />
    <glyph glyph-name="Lslash" unicode="&#x141;" horiz-adv-x="1115" 
d="M1035 162l-34 -162h-878l153 718l-181 -75l30 143l181 75l124 582h184l-106 -498l317 132l-30 -143l-318 -132l-136 -640h694z" />
    <glyph glyph-name="lslash" unicode="&#x142;" horiz-adv-x="516" 
d="M596 851l-142 -62l-168 -789h-176l150 705l-136 -59l30 143l136 59l140 658h176l-122 -574l142 62z" />
    <glyph glyph-name="Nacute" unicode="&#x143;" horiz-adv-x="1520" 
d="M123 0l307 1443h177l534 -1153h16l245 1153h182l-307 -1443h-179l-533 1150h-16l-244 -1150h-182zM1327 1873h226l-395 -298h-204z" />
    <glyph glyph-name="nacute" unicode="&#x144;" horiz-adv-x="1215" 
d="M329 1078l167.001 -0.00390625l-34 -161h16c16.667 24 36 46.833 58 68.5s47 40.834 75 57.501s59 29.834 93 39.501s71 14.5 111 14.5c52 0 99 -8.83301 141 -26.5s77.833 -41.5 107.5 -71.5s52.667 -64.5 69 -103.5s24.5 -79.833 24.5 -122.5
c0 -37.333 -4.66699 -78.666 -14 -123.999l-138 -649h-175l132 619c4 19.333 7.16699 37.833 9.5 55.5s3.5 34.167 3.5 49.5c0 32.667 -5.33301 62.334 -16 89.001s-26.167 49.5 -46.5 68.5s-44.833 33.833 -73.5 44.5s-61 16 -97 16c-41.333 0 -80 -7.16699 -116 -21.5
s-68.167 -34.166 -96.5 -59.499s-52.333 -55.333 -72 -90s-33.834 -72.334 -42.501 -113.001l-140 -658h-175zM1048 1601h220l-350 -338h-194z" />
    <glyph glyph-name="Ncommaaccent" unicode="&#x145;" horiz-adv-x="1520" 
d="M123 0l307 1443h177l534 -1153h16l245 1153h182l-307 -1443h-179l-533 1150h-16l-244 -1150h-182zM412 -518l182 377h182l-197 -377h-167z" />
    <glyph glyph-name="ncommaaccent" unicode="&#x146;" horiz-adv-x="1215" 
d="M329 1078l167.001 -0.00390625l-34 -161h16c16.667 24 36 46.833 58 68.5s47 40.834 75 57.501s59 29.834 93 39.501s71 14.5 111 14.5c52 0 99 -8.83301 141 -26.5s77.833 -41.5 107.5 -71.5s52.667 -64.5 69 -103.5s24.5 -79.833 24.5 -122.5
c0 -37.333 -4.66699 -78.666 -14 -123.999l-138 -649h-175l132 619c4 19.333 7.16699 37.833 9.5 55.5s3.5 34.167 3.5 49.5c0 32.667 -5.33301 62.334 -16 89.001s-26.167 49.5 -46.5 68.5s-44.833 33.833 -73.5 44.5s-61 16 -97 16c-41.333 0 -80 -7.16699 -116 -21.5
s-68.167 -34.166 -96.5 -59.499s-52.333 -55.333 -72 -90s-33.834 -72.334 -42.501 -113.001l-140 -658h-175zM264.001 -518.004l182 377h182l-197 -377h-167z" />
    <glyph glyph-name="Ncaron" unicode="&#x147;" horiz-adv-x="1520" 
d="M123 0l307 1443h177l534 -1153h16l245 1153h182l-307 -1443h-179l-533 1150h-16l-244 -1150h-182zM770 1873h185l105 -186h16l183 186h207l-310 -298h-202z" />
    <glyph glyph-name="ncaron" unicode="&#x148;" horiz-adv-x="1215" 
d="M329 1078l167.001 -0.00390625l-34 -161h16c16.667 24 36 46.833 58 68.5s47 40.834 75 57.501s59 29.834 93 39.501s71 14.5 111 14.5c52 0 99 -8.83301 141 -26.5s77.833 -41.5 107.5 -71.5s52.667 -64.5 69 -103.5s24.5 -79.833 24.5 -122.5
c0 -37.333 -4.66699 -78.666 -14 -123.999l-138 -649h-175l132 619c4 19.333 7.16699 37.833 9.5 55.5s3.5 34.167 3.5 49.5c0 32.667 -5.33301 62.334 -16 89.001s-26.167 49.5 -46.5 68.5s-44.833 33.833 -73.5 44.5s-61 16 -97 16c-41.333 0 -80 -7.16699 -116 -21.5
s-68.167 -34.166 -96.5 -59.499s-52.333 -55.333 -72 -90s-33.834 -72.334 -42.501 -113.001l-140 -658h-175zM726.001 1228l-210 340h185l129 -227h16l225 227h211l-354 -340h-202z" />
    <glyph glyph-name="Omacron" unicode="&#x14c;" horiz-adv-x="1579" 
d="M787 -34c-84.667 0 -162.833 14.998 -234.5 44.998s-133.5 71.5 -185.5 124.5s-92.667 116 -122 189s-44 152.5 -44 238.5c0 87.333 8.83301 170.666 26.5 249.999s43 152.833 76 220.5s72.833 128.834 119.5 183.501s99 101.334 157 140.001
s120.833 68.334 188.5 89.001s138.834 31 213.501 31c84 0 161.667 -15 233 -45s132.833 -71.5 184.5 -124.5s92 -116 121 -189s43.5 -152.5 43.5 -238.5c0 -88 -8.83301 -171.833 -26.5 -251.5s-42.834 -153.334 -75.501 -221.001s-72.167 -128.667 -118.5 -183
s-98.166 -100.666 -155.499 -138.999s-119.833 -67.833 -187.5 -88.5s-138.834 -31 -213.501 -31zM1374 863.998c0 66 -9.83008 126.501 -29.4971 181.501s-47.334 102 -83.001 141s-78.334 69.333 -128.001 91s-104.834 32.5 -165.501 32.5
c-82 0 -158.333 -18.5 -229 -55.5s-131.667 -88.333 -183 -154s-91.666 -143 -120.999 -232s-44 -185.5 -44 -289.5c0 -66.667 9.83301 -127.334 29.5 -182.001s47.5 -101.5 83.5 -140.5s79.167 -69.333 129.5 -91s106.166 -32.5 167.499 -32.5
c82.667 0 159 18.167 229 54.5s130.5 87 181.5 152s90.833 142.167 119.5 231.5s43 187 43 293zM678.004 1618l29 136h674l-29 -136h-674z" />
    <glyph glyph-name="omacron" unicode="&#x14d;" horiz-adv-x="1210" 
d="M338 448c0 -44.667 6.33301 -86 19 -124s31 -71 55 -99s53.333 -49.833 88 -65.5s74 -23.5 118 -23.5c46.667 0 92 11.667 136 35s82.833 56 116.5 98s60.667 92.167 81 150.5s30.5 122.5 30.5 192.5c0 51.333 -6.16699 97.5 -18.5 138.5s-30.333 75.667 -54 104
s-52.167 50 -85.5 65s-71 22.5 -113 22.5c-58 0 -110 -12.5 -156 -37.5s-85.167 -59.5 -117.5 -103.5s-57 -96.167 -74 -156.5s-25.5 -125.833 -25.5 -196.5zM596 -19c-66 0 -126.003 10.999 -180.003 32.999s-100.333 52.667 -139 92s-68.667 86.333 -90 141
s-32 114.667 -32 180c0 90.667 13 176.667 39 258s63.5 152.5 112.5 213.5s108.833 109.333 179.5 145s151 53.5 241 53.5c66 0 126 -11 180 -33s100.167 -52.667 138.5 -92s68 -86.166 89 -140.499s31.5 -113.833 31.5 -178.5c0 -58 -5.66699 -115 -17 -171
s-28.166 -108.833 -50.499 -158.5s-49.666 -95.5 -81.999 -137.5s-69.666 -78.167 -111.999 -108.5s-89.333 -54 -141 -71s-107.5 -25.5 -167.5 -25.5zM431.997 1286l29 136h674l-29 -136h-674z" />
    <glyph glyph-name="Obreve" unicode="&#x14e;" horiz-adv-x="1579" 
d="M787 -34c-84.667 0 -162.833 14.998 -234.5 44.998s-133.5 71.5 -185.5 124.5s-92.667 116 -122 189s-44 152.5 -44 238.5c0 87.333 8.83301 170.666 26.5 249.999s43 152.833 76 220.5s72.833 128.834 119.5 183.501s99 101.334 157 140.001
s120.833 68.334 188.5 89.001s138.834 31 213.501 31c84 0 161.667 -15 233 -45s132.833 -71.5 184.5 -124.5s92 -116 121 -189s43.5 -152.5 43.5 -238.5c0 -88 -8.83301 -171.833 -26.5 -251.5s-42.834 -153.334 -75.501 -221.001s-72.167 -128.667 -118.5 -183
s-98.166 -100.666 -155.499 -138.999s-119.833 -67.833 -187.5 -88.5s-138.834 -31 -213.501 -31zM1374 863.998c0 66 -9.83008 126.501 -29.4971 181.501s-47.334 102 -83.001 141s-78.334 69.333 -128.001 91s-104.834 32.5 -165.501 32.5
c-82 0 -158.333 -18.5 -229 -55.5s-131.667 -88.333 -183 -154s-91.666 -143 -120.999 -232s-44 -185.5 -44 -289.5c0 -66.667 9.83301 -127.334 29.5 -182.001s47.5 -101.5 83.5 -140.5s79.167 -69.333 129.5 -91s106.166 -32.5 167.499 -32.5
c82.667 0 159 18.167 229 54.5s130.5 87 181.5 152s90.833 142.167 119.5 231.5s43 187 43 293zM677.004 1871l150.002 0.000976562v-13c0 -22.667 5 -43.5 15 -62.5s23.833 -35.5 41.5 -49.5s38.5 -24.833 62.5 -32.5s49.667 -11.5 77 -11.5c56.667 0 104.167 15 142.5 45
s64.166 71.333 77.499 124h154c-8.66699 -46 -24.334 -87.333 -47.001 -124s-50.5 -68 -83.5 -94s-70.5 -45.833 -112.5 -59.5s-87 -20.5 -135 -20.5c-50.667 0 -97 7 -139 21s-78 33.667 -108 59s-53.333 55.666 -70 90.999s-25 74.333 -25 117v10z" />
    <glyph glyph-name="obreve" unicode="&#x14f;" horiz-adv-x="1210" 
d="M338 448c0 -44.667 6.33301 -86 19 -124s31 -71 55 -99s53.333 -49.833 88 -65.5s74 -23.5 118 -23.5c46.667 0 92 11.667 136 35s82.833 56 116.5 98s60.667 92.167 81 150.5s30.5 122.5 30.5 192.5c0 51.333 -6.16699 97.5 -18.5 138.5s-30.333 75.667 -54 104
s-52.167 50 -85.5 65s-71 22.5 -113 22.5c-58 0 -110 -12.5 -156 -37.5s-85.167 -59.5 -117.5 -103.5s-57 -96.167 -74 -156.5s-25.5 -125.833 -25.5 -196.5zM596 -19c-66 0 -126.003 10.999 -180.003 32.999s-100.333 52.667 -139 92s-68.667 86.333 -90 141
s-32 114.667 -32 180c0 90.667 13 176.667 39 258s63.5 152.5 112.5 213.5s108.833 109.333 179.5 145s151 53.5 241 53.5c66 0 126 -11 180 -33s100.167 -52.667 138.5 -92s68 -86.166 89 -140.499s31.5 -113.833 31.5 -178.5c0 -58 -5.66699 -115 -17 -171
s-28.166 -108.833 -50.499 -158.5s-49.666 -95.5 -81.999 -137.5s-69.666 -78.167 -111.999 -108.5s-89.333 -54 -141 -71s-107.5 -25.5 -167.5 -25.5zM578.997 1556c-0.666992 -4 -1.1709 -8.33594 -1.50391 -13.0029s-0.5 -10.667 -0.5 -18c0 -52 17.833 -93 53.5 -123
s83.834 -45 144.501 -45c67.333 0 121.333 17 162 51s65.667 83.333 75 148h156c-4.66699 -49.333 -17.5 -94 -38.5 -134s-48.667 -74.5 -83 -103.5s-75.166 -51.333 -122.499 -67s-99.333 -23.5 -156 -23.5c-55.333 0 -104.166 7.33301 -146.499 22
s-78.166 34.834 -107.499 60.501s-51.5 55.834 -66.5 90.501s-22.5 72.334 -22.5 113.001c0 12.667 1 26.667 3 42h151z" />
    <glyph glyph-name="Ohungarumlaut" unicode="&#x150;" horiz-adv-x="1579" 
d="M787 -34c-84.667 0 -162.833 14.998 -234.5 44.998s-133.5 71.5 -185.5 124.5s-92.667 116 -122 189s-44 152.5 -44 238.5c0 87.333 8.83301 170.666 26.5 249.999s43 152.833 76 220.5s72.833 128.834 119.5 183.501s99 101.334 157 140.001
s120.833 68.334 188.5 89.001s138.834 31 213.501 31c84 0 161.667 -15 233 -45s132.833 -71.5 184.5 -124.5s92 -116 121 -189s43.5 -152.5 43.5 -238.5c0 -88 -8.83301 -171.833 -26.5 -251.5s-42.834 -153.334 -75.501 -221.001s-72.167 -128.667 -118.5 -183
s-98.166 -100.666 -155.499 -138.999s-119.833 -67.833 -187.5 -88.5s-138.834 -31 -213.501 -31zM1374 863.998c0 66 -9.83008 126.501 -29.4971 181.501s-47.334 102 -83.001 141s-78.334 69.333 -128.001 91s-104.834 32.5 -165.501 32.5
c-82 0 -158.333 -18.5 -229 -55.5s-131.667 -88.333 -183 -154s-91.666 -143 -120.999 -232s-44 -185.5 -44 -289.5c0 -66.667 9.83301 -127.334 29.5 -182.001s47.5 -101.5 83.5 -140.5s79.167 -69.333 129.5 -91s106.166 -32.5 167.499 -32.5
c82.667 0 159 18.167 229 54.5s130.5 87 181.5 152s90.833 142.167 119.5 231.5s43 187 43 293zM1476 1871h226l-395 -298h-204zM1062 1871h226l-395 -298h-204z" />
    <glyph glyph-name="ohungarumlaut" unicode="&#x151;" horiz-adv-x="1210" 
d="M338 448c0 -44.667 6.33301 -86 19 -124s31 -71 55 -99s53.333 -49.833 88 -65.5s74 -23.5 118 -23.5c46.667 0 92 11.667 136 35s82.833 56 116.5 98s60.667 92.167 81 150.5s30.5 122.5 30.5 192.5c0 51.333 -6.16699 97.5 -18.5 138.5s-30.333 75.667 -54 104
s-52.167 50 -85.5 65s-71 22.5 -113 22.5c-58 0 -110 -12.5 -156 -37.5s-85.167 -59.5 -117.5 -103.5s-57 -96.167 -74 -156.5s-25.5 -125.833 -25.5 -196.5zM596 -19c-66 0 -126.003 10.999 -180.003 32.999s-100.333 52.667 -139 92s-68.667 86.333 -90 141
s-32 114.667 -32 180c0 90.667 13 176.667 39 258s63.5 152.5 112.5 213.5s108.833 109.333 179.5 145s151 53.5 241 53.5c66 0 126 -11 180 -33s100.167 -52.667 138.5 -92s68 -86.166 89 -140.499s31.5 -113.833 31.5 -178.5c0 -58 -5.66699 -115 -17 -171
s-28.166 -108.833 -50.499 -158.5s-49.666 -95.5 -81.999 -137.5s-69.666 -78.167 -111.999 -108.5s-89.333 -54 -141 -71s-107.5 -25.5 -167.5 -25.5zM1198 1601h210l-352 -338h-182zM797.997 1601h210l-352 -338h-182z" />
    <glyph glyph-name="OE" unicode="&#x152;" horiz-adv-x="2325" 
d="M1374 864c0 66.667 -9.83105 127.332 -29.498 181.999s-47.334 101.5 -83.001 140.5s-78.5 69.333 -128.5 91s-105 32.5 -165 32.5c-82 0 -158.167 -18.5 -228.5 -55.5s-131.333 -88.167 -183 -153.5s-92.167 -142.666 -121.5 -231.999s-44 -186 -44 -290
c0 -66.667 9.83301 -127.5 29.5 -182.5s47.5 -102 83.5 -141s79.167 -69.167 129.5 -90.5s106.166 -32 167.499 -32c82.667 0 159 18.167 229 54.5s130.5 87 181.5 152s90.833 142.167 119.5 231.5s43 187 43 293zM1251 139.998l-16.0029 -1.00195
c-52.667 -51.333 -116.5 -93 -191.5 -125s-160.5 -48 -256.5 -48c-84 0 -161.833 15 -233.5 45s-133.667 71.5 -186 124.5s-93.166 116 -122.499 189s-44 152.5 -44 238.5c0 87.333 8.83301 170.666 26.5 249.999s43 152.833 76 220.5s73 128.834 120 183.501
s99.333 101.334 157 140.001s120.334 68.334 188.001 89.001s138.834 31 213.501 31c56 0 108.5 -7.16699 157.5 -21.5s93.833 -34 134.5 -59s76.667 -54.5 108 -88.5s57 -71 77 -111l17 1l52 245h896l-35 -162h-711l-100 -463h675l-34 -160h-674l-106 -496h712l-34 -162
h-896z" />
    <glyph glyph-name="oe" unicode="&#x153;" horiz-adv-x="1991" 
d="M1410 -19c-86 0 -161.499 18.8291 -226.499 56.4961s-115.5 92.834 -151.5 165.501h-16c-51.333 -72.667 -112.666 -127.834 -183.999 -165.501s-151 -56.5 -239 -56.5c-65.333 0 -124.833 10.833 -178.5 32.5s-99.667 52 -138 91s-68.166 86 -89.499 141
s-32 115.5 -32 181.5c0 98 14.167 188 42.5 270s67.666 152.667 117.999 212s110.5 105.5 180.5 138.5s147 49.5 231 49.5c87.333 0 162.5 -19.833 225.5 -59.5s110.833 -97.167 143.5 -172.5h16c47.333 76 106.5 133.667 177.5 173s152.167 59 243.5 59
c60.667 0 116 -10.667 166 -32s93 -51.166 129 -89.499s64.167 -84.166 84.5 -137.499s30.5 -112.333 30.5 -177c0 -11.333 -0.333008 -24.166 -1 -38.499s-1.66699 -29 -3 -44l-4 -43.5c-1.33301 -14 -3 -26 -5 -36h-777c-0.666992 -13.333 -1.16699 -24.166 -1.5 -32.499
s-0.5 -16.166 -0.5 -23.499c0 -46 6.5 -87.833 19.5 -125.5s31.333 -69.834 55 -96.501s52 -47.167 85 -61.5s69.833 -21.5 110.5 -21.5c131.333 0 221.666 45.667 270.999 137h183c-12 -44.667 -31.833 -85 -59.5 -121s-61.834 -66.833 -102.501 -92.5
s-86.667 -45.5 -138 -59.5s-106.333 -21 -165 -21zM1761 637.996c0.666992 3.33301 1.16699 9.50098 1.5 18.501s0.5 17.833 0.5 26.5c0 39.333 -5.83301 75 -17.5 107s-28.334 59.5 -50.001 82.5s-47.667 40.833 -78 53.5s-63.833 19 -100.5 19
c-40 0 -77.833 -7 -113.5 -21s-68.167 -34.333 -97.5 -61s-55.166 -58.834 -77.499 -96.501s-39.833 -80.5 -52.5 -128.5h585zM338.001 447.997c0 -46.667 6.66602 -89.1689 19.999 -127.502s32.333 -71.166 57 -98.499s54.167 -48.5 88.5 -63.5s72.5 -22.5 114.5 -22.5
c50 0 97.167 12.5 141.5 37.5s83 59 116 102s59 93.5 78 151.5s28.5 119.667 28.5 185c0 51.333 -6.16699 97.333 -18.5 138s-30.166 75.334 -53.499 104.001s-51.833 50.5 -85.5 65.5s-71.5 22.5 -113.5 22.5c-55.333 0 -106 -11.833 -152 -35.5
s-85.333 -57.167 -118 -100.5s-58 -95.333 -76 -156s-27 -128 -27 -202z" />
    </font>
</defs>
</svg>
