<?xml version="1.0" standalone="no"?>
<!DOCTYPE svg PUBLIC "-//W3C//DTD SVG 1.1//EN" "http://www.w3.org/Graphics/SVG/1.1/DTD/svg11.dtd" >
<svg>
<metadata>
Created by FontForge 20090914 at Wed Mar 16 04:23:04 2016
 By www-data
&#194;&#169; 2014 Apple Inc. All rights reserved.
</metadata>
<defs>
<font id=".HelveticaNeueDeskInterface-Thin" horiz-adv-x="0" >
  <font-face 
    font-family="SFNS Display"
    font-weight="250"
    font-stretch="normal"
    units-per-em="2048"
    panose-1="0 0 3 0 0 0 0 0 0 0"
    ascent="1638"
    descent="-410"
    x-height="1077"
    cap-height="1443"
    bbox="-477 -849 2434 2086"
    underline-thickness="50"
    underline-position="-25"
    unicode-range="U+0020-U+FB02"
  />
<missing-glyph horiz-adv-x="1293" 
d="M120 1365h1053v-1365h-1053v1365zM501 313c0 -32 11 -57.834 33 -77.501s51 -29.5 87 -29.5c37.333 0 67 9.83301 89 29.5s33 45.5 33 77.5c0 32.667 -11 58.834 -33 78.501s-51.667 29.5 -89 29.5c-36 0 -65 -10 -87 -30s-33 -46 -33 -78zM508 887.999
c0.666992 40 12.165 71.665 34.498 94.998s52.5 35 90.5 35c36 0 65 -9.83301 87 -29.5s33 -46.5 33 -80.5c0 -12.667 -1.5 -24.167 -4.5 -34.5s-8.33301 -20.666 -16 -30.999s-18.167 -21.333 -31.5 -33s-30.333 -24.834 -51 -39.501c-46 -32.667 -78 -66.167 -96 -100.5
s-25.333 -74.5 -22 -120.5l1 -18h166v15c0 16 1.33301 29.833 4 41.5s7.66699 23 15 34s18 22.5 32 34.5s32.667 26.333 56 43c24 17.333 44.5 34.333 61.5 51s30.833 33.667 41.5 51s18.334 35.5 23.001 54.5s7 39.5 7 61.5c0 38 -7 72.333 -21 103s-34 56.834 -60 78.501
s-57.167 38.5 -93.5 50.5s-76.833 18 -121.5 18c-47.333 0 -90.166 -6.5 -128.499 -19.5s-70.666 -31.667 -96.999 -56s-46.333 -53.666 -60 -87.999s-19.834 -72.833 -18.501 -115.5h169z" />
    <glyph glyph-name=".notdef" horiz-adv-x="1293" 
d="M120 1365h1053v-1365h-1053v1365zM501 313c0 -32 11 -57.834 33 -77.501s51 -29.5 87 -29.5c37.333 0 67 9.83301 89 29.5s33 45.5 33 77.5c0 32.667 -11 58.834 -33 78.501s-51.667 29.5 -89 29.5c-36 0 -65 -10 -87 -30s-33 -46 -33 -78zM508 887.999
c0.666992 40 12.165 71.665 34.498 94.998s52.5 35 90.5 35c36 0 65 -9.83301 87 -29.5s33 -46.5 33 -80.5c0 -12.667 -1.5 -24.167 -4.5 -34.5s-8.33301 -20.666 -16 -30.999s-18.167 -21.333 -31.5 -33s-30.333 -24.834 -51 -39.501c-46 -32.667 -78 -66.167 -96 -100.5
s-25.333 -74.5 -22 -120.5l1 -18h166v15c0 16 1.33301 29.833 4 41.5s7.66699 23 15 34s18 22.5 32 34.5s32.667 26.333 56 43c24 17.333 44.5 34.333 61.5 51s30.833 33.667 41.5 51s18.334 35.5 23.001 54.5s7 39.5 7 61.5c0 38 -7 72.333 -21 103s-34 56.834 -60 78.501
s-57.167 38.5 -93.5 50.5s-76.833 18 -121.5 18c-47.333 0 -90.166 -6.5 -128.499 -19.5s-70.666 -31.667 -96.999 -56s-46.333 -53.666 -60 -87.999s-19.834 -72.833 -18.501 -115.5h169z" />
    <glyph glyph-name="space" unicode=" " horiz-adv-x="406" 
 />
    <glyph glyph-name="exclam" unicode="!" horiz-adv-x="510" 
d="M296 1443l-3 -1017h-76l-3 1017h82zM255 -10c-19.333 0 -36 6.83301 -50 20.5s-21 30.5 -21 50.5c0 19.333 7 35.833 21 49.5s30.667 20.5 50 20.5c20 0 36.833 -6.83301 50.5 -20.5s20.5 -30.167 20.5 -49.5c0 -20 -6.83301 -36.833 -20.5 -50.5
s-30.5 -20.5 -50.5 -20.5z" />
    <glyph glyph-name="quotedbl" unicode="&#x22;" horiz-adv-x="564" 
d="M107 984v459h74v-459h-74zM384 984v459h73v-459h-73z" />
    <glyph glyph-name="numbersign" unicode="#" horiz-adv-x="1224" 
d="M909 940l-86 -430h258l-14 -67h-258l-92 -443h-70l92 443h-383l-92 -443h-69l92 443h-247l12 67h250l85 430h-235l13 67h235l92 441h69l-90 -441h382l92 441h69l-91 -441h271l-14 -67h-271zM370 509h384l85 431h-382z" />
    <glyph glyph-name="dollar" unicode="$" horiz-adv-x="1192" 
d="M563 -167l-0.0078125 150.998c-67.333 2.66699 -129.833 14.667 -187.5 36s-107.667 49.833 -150 85.5s-75.833 77.334 -100.5 125.001s-37.667 99.167 -39 154.5h77c2.66699 -44 14.667 -85.5 36 -124.5s49.833 -73.167 85.5 -102.5s77.334 -53 125.001 -71
s98.834 -28.333 153.501 -31v656l-22 6c-75.333 18 -139.666 38.333 -192.999 61s-96.666 48.667 -129.999 78s-57.666 62.666 -72.999 99.999s-23 80 -23 128c0 52.667 10.833 101.334 32.5 146.001s51.834 83.667 90.501 117s85 59.833 139 79.5s113.667 31.167 179 34.5
v135h64v-135c62 -3.33301 119.5 -15 172.5 -35s99.167 -46.333 138.5 -79s70.5 -70.5 93.5 -113.5s35.5 -89.167 37.5 -138.5h-77c-2 38.667 -12.667 75.334 -32 110.001s-45.5 65.167 -78.5 91.5s-71.167 47.833 -114.5 64.5s-90 26.667 -140 30v-617l24 -6
c80.667 -19.333 149.334 -40.833 206.001 -64.5s102.834 -51 138.501 -82s61.5 -66.667 77.5 -107s24 -86.5 24 -138.5c0 -55.333 -11.5 -106.166 -34.5 -152.499s-55.167 -86.833 -96.5 -121.5s-90.833 -62.334 -148.5 -83.001s-121.167 -32.667 -190.5 -36v-151h-64z
M1019.99 372.998c0 42.667 -7 80.499 -21 113.499s-36.667 62.5 -68 88.5s-71.833 48.833 -121.5 68.5s-110.5 37.834 -182.5 54.501v-643c56.667 2 109 11.5 157 28.5s89.5 39.667 124.5 68s62.333 61.333 82 99s29.5 78.5 29.5 122.5zM198.992 1089
c0 -38.667 6.49902 -73.166 19.499 -103.499s34 -57.333 63 -81s66.667 -44.834 113 -63.501s102.5 -36 168.5 -52v603c-52 -2 -100.333 -11 -145 -27s-83.167 -37.5 -115.5 -64.5s-57.666 -58.5 -75.999 -94.5s-27.5 -75 -27.5 -117z" />
    <glyph glyph-name="percent" unicode="%" horiz-adv-x="1420" 
d="M1370 334c0 -52 -5.66699 -99.333 -17 -142s-27.833 -79.167 -49.5 -109.5s-48.167 -53.666 -79.5 -69.999s-67 -24.5 -107 -24.5c-39.333 0 -74.666 8.16699 -105.999 24.5s-57.833 39.666 -79.5 69.999s-38.334 66.833 -50.001 109.5s-17.5 90 -17.5 142
s5.83301 99.167 17.5 141.5s28.334 78.666 50.001 108.999s48.167 53.666 79.5 69.999s66.666 24.5 105.999 24.5c40 0 75.667 -8.16699 107 -24.5s57.833 -39.666 79.5 -69.999s38.167 -66.666 49.5 -108.999s17 -89.5 17 -141.5zM1117 48
c28.667 0 54.167 6.83203 76.5 20.499s41.166 33 56.499 58s27 55 35 90s12 74.167 12 117.5c0 42.667 -4 81.667 -12 117s-19.667 65.333 -35 90s-34.166 43.834 -56.499 57.501s-47.833 20.5 -76.5 20.5c-28 0 -53.167 -6.83301 -75.5 -20.5s-41.166 -33 -56.499 -58
s-27 -55 -35 -90s-12 -73.833 -12 -116.5c0 -43.333 4 -82.5 12 -117.5s19.667 -65 35 -90s34.166 -44.333 56.499 -58s47.5 -20.5 75.5 -20.5zM556 1109c0 -52 -5.66699 -99.333 -17 -142s-27.833 -79.167 -49.5 -109.5s-48.167 -53.666 -79.5 -69.999
s-67 -24.5 -107 -24.5c-39.333 0 -74.666 8.16699 -105.999 24.5s-57.833 39.666 -79.5 69.999s-38.334 66.833 -50.001 109.5s-17.5 90 -17.5 142s5.83301 99.167 17.5 141.5s28.334 78.666 50.001 108.999s48.167 53.666 79.5 69.999s66.666 24.5 105.999 24.5
c40 0 75.667 -8.16699 107 -24.5s57.833 -39.666 79.5 -69.999s38.167 -66.666 49.5 -108.999s17 -89.5 17 -141.5zM303 822.999c28.667 0 54.167 6.83203 76.5 20.499s41.166 33 56.499 58s27 55 35 90s12 74.167 12 117.5c0 42.667 -4 81.667 -12 117
s-19.667 65.333 -35 90s-34.166 43.834 -56.499 57.501s-47.833 20.5 -76.5 20.5c-28 0 -53.167 -6.83301 -75.5 -20.5s-41.166 -33 -56.499 -58s-27 -55 -35 -90s-12 -73.833 -12 -116.5c0 -43.333 4 -82.5 12 -117.5s19.667 -65 35 -90s34.166 -44.333 56.499 -58
s47.5 -20.5 75.5 -20.5zM126 -0.00195312l1075 1443h85l-1075 -1443h-85z" />
    <glyph glyph-name="ampersand" unicode="&#x26;" horiz-adv-x="1374" 
d="M1022 199c-31.333 -34 -66.1709 -64.666 -104.504 -91.999s-78.666 -50.5 -120.999 -69.5s-86.166 -33.5 -131.499 -43.5s-90.666 -15 -135.999 -15c-67.333 0 -128.833 9.5 -184.5 28.5s-103.5 45.667 -143.5 80s-71.167 75.166 -93.5 122.499s-33.5 99.333 -33.5 156
c0 75.333 22 144.166 66 206.499s114 119.5 210 171.5c2 0.666992 8.33301 3.83398 19 9.50098l34 18.5l33 18c10 5.33301 15.333 8 16 8c-41.333 42 -75.833 79.5 -103.5 112.5s-50 63.667 -67 92s-29 55.166 -36 80.499s-10.5 51.333 -10.5 78
c0 42.667 8.83301 82.334 26.5 119.001s41.834 68.5 72.501 95.5s67 48.333 109 64s87 23.5 135 23.5s92.667 -7.5 134 -22.5s77 -35.833 107 -62.5s53.5 -58.334 70.5 -95.001s25.5 -76.667 25.5 -120c0 -34 -6.5 -67.167 -19.5 -99.5s-33.5 -64 -61.5 -95
s-64.167 -62 -108.5 -93s-97.833 -62.5 -160.5 -94.5l451 -476c18.667 30 35.667 62 51 96s28.5 69 39.5 105s19.333 72.667 25 110s8.5 74 8.5 110v79h75v-77c0 -41.333 -3.5 -83.166 -10.5 -125.499s-16.833 -84 -29.5 -125s-28 -80.5 -46 -118.5s-38 -73 -60 -105
l246 -254h-101zM394.995 691.001c-84.667 -46 -146.166 -96 -184.499 -150s-57.5 -111.667 -57.5 -173c0 -45.333 9.16699 -87.5 27.5 -126.5s44.166 -72.833 77.499 -101.5s73.333 -51.167 120 -67.5s98.667 -24.5 156 -24.5c38.667 0 78.334 4.83301 119.001 14.5
s80.334 23.334 119.001 41.001s75 38.834 109 63.501s63.667 51.667 89 81l-471 499c-0.666992 -0.666992 -6.33398 -3.83398 -17.001 -9.50098l-35 -18.5l-35 -18.5c-10.667 -5.66699 -16.334 -8.83398 -17.001 -9.50098zM519.996 829.001
c112.667 54.667 194.001 109.335 244.001 164.002s75 110.667 75 168c0 33.333 -6.66699 64.333 -20 93s-31.833 53.667 -55.5 75s-51.334 38 -83.001 50s-65.834 18 -102.501 18s-71.167 -6.33301 -103.5 -19s-60.666 -29.834 -84.999 -51.501s-43.5 -47 -57.5 -76
s-21 -59.833 -21 -92.5c0 -22.667 3.16699 -44.834 9.5 -66.501s17.5 -45 33.5 -70s37.5 -53 64.5 -84s60.833 -67.167 101.5 -108.5z" />
    <glyph glyph-name="quotesingle" unicode="'" horiz-adv-x="287" 
d="M107 984v459h74v-459h-74z" />
    <glyph glyph-name="parenleft" unicode="(" horiz-adv-x="570" 
d="M422 -257c-39.333 50 -75.5 105.834 -108.5 167.501s-61.333 128.334 -85 200.001s-42.167 148.167 -55.5 229.5s-20 167.333 -20 258s6.66699 175.834 20 255.501s32 154.5 56 224.5s52.667 135.333 86 196s70 117 110 169h74
c-37.333 -48.667 -72.166 -103.5 -104.499 -164.5s-60.5 -127.333 -84.5 -199s-43 -147.834 -57 -228.501s-21 -165 -21 -253s6.83301 -172.167 20.5 -252.5s32.5 -156.333 56.5 -228s52.167 -138.834 84.5 -201.501s67.166 -120.334 104.499 -173.001h-76z" />
    <glyph glyph-name="parenright" unicode=")" horiz-adv-x="570" 
d="M72 -257c37.333 52.667 72.168 110.333 104.501 173s60.5 129.834 84.5 201.501s42.833 147.667 56.5 228s20.5 164.5 20.5 252.5s-7 172.333 -21 253s-33 156.834 -57 228.501s-52.333 138 -85 199s-67.334 115.833 -104.001 164.5h74c40 -52 76.667 -108.333 110 -169
s62 -126 86 -196s42.5 -144.833 55.5 -224.5s19.5 -164.834 19.5 -255.501s-6.66699 -176.667 -20 -258s-31.833 -157.833 -55.5 -229.5s-52 -138.334 -85 -200.001s-68.833 -117.5 -107.5 -167.5h-76v0z" />
    <glyph glyph-name="asterisk" unicode="*" horiz-adv-x="953" 
d="M505 1017l5 -341h-66l5 341l-293 -175l-32 57l297 166l-297 165l32 58l293 -176l-5 342h66l-5 -342l292 176l33 -57l-297 -166l297 -166l-33 -57z" />
    <glyph glyph-name="plus" unicode="+" horiz-adv-x="1192" 
d="M633 35h-74v504h-453v73h453v490h74v-490h453v-73h-453v-504z" />
    <glyph glyph-name="comma" unicode="," horiz-adv-x="501" 
d="M156 -222l65 402h83l-86 -402h-62z" />
    <glyph glyph-name="hyphen" unicode="-" horiz-adv-x="868" 
d="M106 539v73h656v-73h-656z" />
    <glyph glyph-name="period" unicode="." horiz-adv-x="496" 
d="M248 -10c-19.333 0 -35.833 6.83301 -49.5 20.5s-20.5 30.167 -20.5 49.5s6.83301 35.833 20.5 49.5s30.167 20.5 49.5 20.5s35.833 -6.83301 49.5 -20.5s20.5 -30.167 20.5 -49.5s-6.83301 -35.833 -20.5 -49.5s-30.167 -20.5 -49.5 -20.5z" />
    <glyph glyph-name="slash" unicode="/" horiz-adv-x="518" 
d="M0 -331l446 1774h72l-448 -1774h-70z" />
    <glyph glyph-name="zero" unicode="0" horiz-adv-x="1194" 
d="M598 -21c-79.333 0 -150.666 17.332 -213.999 51.999s-117 84.167 -161 148.5s-77.833 142.333 -101.5 234s-35.5 194.5 -35.5 308.5c0 113.333 11.833 215.833 35.5 307.5s57.5 169.667 101.5 234s97.667 113.833 161 148.5s134.666 52 213.999 52
c78.667 0 149.5 -17.333 212.5 -52s116.5 -84.167 160.5 -148.5s77.833 -142.166 101.5 -233.499s35.5 -194 35.5 -308s-11.833 -216.833 -35.5 -308.5s-57.5 -169.667 -101.5 -234s-97.5 -113.833 -160.5 -148.5s-133.833 -52 -212.5 -52zM598 49.999
c66.667 0 126.667 15.667 180 47s98.5 76.166 135.5 134.499s65.5 128.833 85.5 211.5s30 175.667 30 279c0 102.667 -10 195.334 -30 278.001s-48.667 153.167 -86 211.5s-82.5 103.166 -135.5 134.499s-112.833 47 -179.5 47s-126.667 -15.833 -180 -47.5
s-98.666 -76.667 -135.999 -135s-66 -128.833 -86 -211.5s-30 -175 -30 -277c0 -103.333 10 -196.333 30 -279s48.5 -153.167 85.5 -211.5s82.167 -103.166 135.5 -134.499s113.666 -47 180.999 -47z" />
    <glyph glyph-name="one" unicode="1" horiz-adv-x="804" 
d="M484 1359h-2c-14 -8 -30 -18.167 -48 -30.5l-71 -47.5l-110 -72l-165 -104v88l90.5 58.5l110 71.5l108.5 70.5l87 54.5h78v-1448h-78v1359z" />
    <glyph glyph-name="two" unicode="2" horiz-adv-x="1142" 
d="M124 1054c1.33301 59.333 13.3428 114.172 36.0098 164.505s53.667 93.666 93 129.999s85.666 64.666 138.999 84.999s111.666 30.5 174.999 30.5c61.333 0 118.5 -10 171.5 -30s99 -47.667 138 -83s69.667 -76.833 92 -124.5s33.5 -99.167 33.5 -154.5
c0 -38 -4.83301 -74.833 -14.5 -110.5s-26.334 -73.334 -50.001 -113.001s-55.334 -83.334 -95.001 -131.001s-89.167 -102.5 -148.5 -164.5l-451 -477v-4h813v-72h-927v60l513 544c55.333 58 101.166 108.667 137.499 152s65.166 82.5 86.499 117.5s36.166 68 44.499 99
s12.5 63.167 12.5 96.5c0 46 -9.16699 88.667 -27.5 128s-43.5 73.5 -75.5 102.5s-69.833 51.833 -113.5 68.5s-90.834 25 -141.501 25c-51.333 0 -98.833 -8.5 -142.5 -25.5s-81.834 -40.5 -114.501 -70.5s-58.334 -65.833 -77.001 -107.5s-28.667 -86.834 -30 -135.501
h-77v0z" />
    <glyph glyph-name="three" unicode="3" horiz-adv-x="1146" 
d="M384 784l161.009 0.00292969c54.667 0 104.5 7.5 149.5 22.5s83.833 36.167 116.5 63.5s58 59.833 76 97.5s27 79.167 27 124.5c0 43.333 -8.83301 83.333 -26.5 120s-42.334 68.5 -74.001 95.5s-69.334 48 -113.001 63s-91.834 22.5 -144.501 22.5
c-49.333 0 -95.166 -7.5 -137.499 -22.5s-79.333 -35.667 -111 -62s-57.334 -57.833 -77.001 -94.5s-30.834 -76.334 -33.501 -119.001h-77c2.66699 54 15.667 103.5 39 148.5s54.333 83.833 93 116.5s84.167 58.167 136.5 76.5s109.166 27.5 170.499 27.5
c62 0 119.5 -9.16699 172.5 -27.5s98.833 -43.833 137.5 -76.5s69 -71.167 91 -115.5s33 -92.833 33 -145.5c0 -44.667 -7 -86.167 -21 -124.5s-34.333 -72.333 -61 -102s-58.834 -54.667 -96.501 -75s-80.167 -34.833 -127.5 -43.5v-4c56 -3.33301 106.667 -14.333 152 -33
s84.166 -43.5 116.499 -74.5s57.166 -67.667 74.499 -110s26 -88.833 26 -139.5c0 -60 -12.333 -115.333 -37 -166s-58.667 -94.334 -102 -131.001s-94.666 -65.334 -153.999 -86.001s-123.666 -31 -192.999 -31s-133.166 9.66699 -191.499 29
s-108.833 46.166 -151.5 80.499s-76.334 75 -101.001 122s-37.667 97.833 -39 152.5h77c1.33301 -44.667 12.666 -86 33.999 -124s50 -71 86 -99s78.5 -50 127.5 -66s101.833 -24 158.5 -24c58 0 111.833 8.5 161.5 25.5s92.667 40.667 129 71s64.666 66.333 84.999 108
s30.5 87.167 30.5 136.5c0 50.667 -9.83301 96 -29.5 136s-47.834 73.833 -84.501 101.5s-81.667 48.834 -135 63.501s-113.333 22 -180 22h-163v70z" />
    <glyph glyph-name="four" unicode="4" horiz-adv-x="1181" 
d="M813 361h-743v73l155 235l165.5 242l182 256.5l204.5 279.5l114 1v-1015h229v-72h-229v-361h-78v361zM157 433h656v935h-2l-354.5 -489.5l-299.5 -443.5v-2z" />
    <glyph glyph-name="five" unicode="5" horiz-adv-x="1171" 
d="M595 -21c-62 0 -120.502 9.33594 -175.502 28.0029s-103.5 44.667 -145.5 78s-76.167 72.833 -102.5 118.5s-42.166 95.5 -47.499 149.5h79c5.33301 -43.333 19.333 -83.5 42 -120.5s51.5 -69 86.5 -96s75 -48.167 120 -63.5s93.167 -23 144.5 -23
c60 0 115.333 10.333 166 31s94.5 49.167 131.5 85.5s66 79.5 87 129.5s31.5 104.333 31.5 163c0 58 -10.333 112 -31 162s-49.167 93.333 -85.5 130s-79.166 65.5 -128.499 86.5s-103 31.5 -161 31.5c-80.667 0 -154.167 -18.833 -220.5 -56.5
s-119.166 -89.834 -158.499 -156.501h-80l86 787h765v-72h-697l-68 -617h3c19.333 28.667 42.666 54.5 69.999 77.5s57.333 42.5 90 58.5s67.5 28.333 104.5 37s75.167 13 114.5 13c68 0 131 -12.167 189 -36.5s108.333 -57.833 151 -100.5s76 -93.334 100 -152.001
s36 -122.334 36 -191.001c0 -69.333 -12.5 -133.5 -37.5 -192.5s-59.5 -109.833 -103.5 -152.5s-96.333 -76 -157 -100s-126.667 -36 -198 -36z" />
    <glyph glyph-name="six" unicode="6" horiz-adv-x="1179" 
d="M616 -21c-83.333 0 -158.67 17.5 -226.003 52.5s-123.333 85.5 -168 151.5c-88 117.333 -132 284.333 -132 501c0 120 12.333 228.167 37 324.5s60.167 178.166 106.5 245.499s102.333 119.166 168 155.499s139.5 54.5 221.5 54.5c58 0 112.333 -8.5 163 -25.5
s95.667 -41.167 135 -72.5s71.833 -68.833 97.5 -112.5s42.834 -92.167 51.501 -145.5h-80c-8 42 -22.833 80.333 -44.5 115s-48.834 64.667 -81.501 90s-69.5 45 -110.5 59s-84.833 21 -131.5 21c-73.333 0 -138.5 -17.667 -195.5 -53s-105 -86.166 -144 -152.499
s-68.333 -147.5 -88 -243.5s-28.5 -205 -26.5 -327h4c12.667 48 33.167 92 61.5 132s62.333 74.5 102 103.5s84 51.5 133 67.5s100.5 24 154.5 24c68 0 131.333 -12.167 190 -36.5s109.334 -57.666 152.001 -99.999s76.167 -92.5 100.5 -150.5s36.5 -120.667 36.5 -188
c0 -70 -12.167 -134.833 -36.5 -194.5s-58.166 -111.5 -101.499 -155.5s-94.666 -78.333 -153.999 -103s-124 -37 -194 -37zM614.996 51c57.333 0 110.836 10.667 160.503 32s92.667 50.666 129 87.999s65 81.333 86 132s31.5 105.334 31.5 164.001
c0 57.333 -10.333 110.833 -31 160.5s-49.334 92.667 -86.001 129s-79.667 64.833 -129 85.5s-103 31 -161 31c-56.667 0 -110.167 -10.333 -160.5 -31s-94.333 -48.834 -132 -84.501s-67.5 -77.167 -89.5 -124.5s-33 -97.666 -33 -150.999
c0 -60.667 10.667 -117.167 32 -169.5s50.666 -97.833 87.999 -136.5s81.166 -69.167 131.499 -91.5s104.833 -33.5 163.5 -33.5z" />
    <glyph glyph-name="seven" unicode="7" horiz-adv-x="1085" 
d="M921 1368v3h-839v72h920v-76l-685 -1367h-86z" />
    <glyph glyph-name="eight" unicode="8" horiz-adv-x="1189" 
d="M594 -21c-75.333 0 -143.665 10.3359 -204.998 31.0029s-114 49.334 -158 86.001s-78 80.5 -102 131.5s-36 106.5 -36 166.5c0 46 8.16699 89.5 24.5 130.5s39.333 77.833 69 110.5s65.167 60.167 106.5 82.5s87 38.166 137 47.499v3
c-43.333 10 -82.333 24.833 -117 44.5s-64.5 43.5 -89.5 71.5s-44.167 59.5 -57.5 94.5s-20 72.5 -20 112.5c0 54 11 103.833 33 149.5s52.833 85 92.5 118s86.834 58.833 141.501 77.5s115 28 181 28s126.5 -9.33301 181.5 -28s102.167 -44.5 141.5 -77.5
s70 -72.333 92 -118s33 -95.5 33 -149.5c0 -38.667 -6.83301 -75.334 -20.5 -110.001s-32.834 -66 -57.501 -94s-54.334 -52.333 -89.001 -73s-73 -36 -115 -46v-3c49.333 -9.33301 94.666 -25.166 135.999 -47.499s76.833 -49.833 106.5 -82.5s52.667 -69.5 69 -110.5
s24.5 -84.5 24.5 -130.5c0 -60.667 -12 -116.334 -36 -167.001s-58 -94.334 -102 -131.001s-96.833 -65.334 -158.5 -86.001s-130.167 -31 -205.5 -31zM594.001 50.0029c64 0 121.833 8.66602 173.5 25.999s96 41.5 133 72.5s65.5 67.667 85.5 110s30 88.5 30 138.5
c0 48 -10.167 92.167 -30.5 132.5s-49 75 -86 104s-81.333 51.667 -133 68s-109.167 24.5 -172.5 24.5s-120.833 -8.16699 -172.5 -24.5s-95.834 -39.166 -132.501 -68.499s-65.167 -64 -85.5 -104s-30.5 -84 -30.5 -132c0 -50 10 -96.167 30 -138.5s48.333 -79 85 -110
s80.834 -55.167 132.501 -72.5s109.5 -26 173.5 -26zM594.001 799.002c54 0 103.666 7.16699 148.999 21.5s84.166 34.166 116.499 59.499s57.666 55.666 75.999 90.999s27.5 74 27.5 116c0 43.333 -8.66699 83.666 -26 120.999s-42.166 69.666 -74.499 96.999
s-71.166 48.833 -116.499 64.5s-96 23.5 -152 23.5s-106.667 -7.83301 -152 -23.5s-84.166 -37.167 -116.499 -64.5s-57.333 -59.666 -75 -96.999s-26.5 -77.666 -26.5 -120.999c0 -42 9.16699 -80.667 27.5 -116s44 -65.666 77 -90.999s72 -45.166 117 -59.499
s94.5 -21.5 148.5 -21.5z" />
    <glyph glyph-name="nine" unicode="9" horiz-adv-x="1179" 
d="M557 -21c-60 0 -115.672 8.66895 -167.005 26.002s-96.333 41.666 -135 72.999s-70.667 68.833 -96 112.5s-42 91.834 -50 144.501h80c7.33301 -40.667 21.333 -78.334 42 -113.001s47 -64.834 79 -90.501s68.833 -45.667 110.5 -60s87.167 -21.5 136.5 -21.5
c70.667 0 133.834 16.167 189.501 48.5s102.834 78.833 141.501 139.5s68.5 134 89.5 220s32.5 183 34.5 291c0.666992 11.333 0.833984 24 0.500977 38s-0.833008 27 -1.5 39h-1h-1c-12 -46 -32.167 -89 -60.5 -129s-62.666 -74.667 -102.999 -104
s-85.166 -52.333 -134.499 -69s-101 -25 -155 -25c-69.333 0 -133.333 12 -192 36s-109.167 57 -151.5 99s-75.5 91.667 -99.5 149s-36 119.333 -36 186c0 70.667 12.167 136.167 36.5 196.5s58 112.666 101 156.999s94.333 79 154 104s124.5 37.5 194.5 37.5
c84.667 0 160.5 -17.833 227.5 -53.5s122.5 -86.5 166.5 -152.5c44 -58.667 77 -129.5 99 -212.5s33 -178.5 33 -286.5c0 -119.333 -12.167 -227.166 -36.5 -323.499s-59.333 -178.333 -105 -246s-101.5 -119.667 -167.5 -156s-140.333 -54.5 -223 -54.5zM563.995 570.002
c56.667 0 110.334 10.499 161.001 31.499s94.667 49.5 132 85.5s67 77.667 89 125s33 97 33 149c0 60 -10.5 116.167 -31.5 168.5s-50.167 98 -87.5 137s-81.333 69.667 -132 92s-105.334 33.5 -164.001 33.5c-58 0 -112 -10.833 -162 -32.5s-93.167 -51.5 -129.5 -89.5
s-64.833 -82.667 -85.5 -134s-31 -106.666 -31 -165.999c0 -55.333 10.167 -107.333 30.5 -156s48.5 -91 84.5 -127s79 -64.5 129 -85.5s104.667 -31.5 164 -31.5z" />
    <glyph glyph-name="colon" unicode=":" horiz-adv-x="496" 
d="M248 -10c-19.333 0 -35.833 6.83301 -49.5 20.5s-20.5 30.167 -20.5 49.5s6.83301 35.833 20.5 49.5s30.167 20.5 49.5 20.5s35.833 -6.83301 49.5 -20.5s20.5 -30.167 20.5 -49.5s-6.83301 -35.833 -20.5 -49.5s-30.167 -20.5 -49.5 -20.5zM248 760
c-19.333 0 -35.833 6.83301 -49.5 20.5s-20.5 30.167 -20.5 49.5s6.83301 35.833 20.5 49.5s30.167 20.5 49.5 20.5s35.833 -6.83301 49.5 -20.5s20.5 -30.167 20.5 -49.5s-6.83301 -35.833 -20.5 -49.5s-30.167 -20.5 -49.5 -20.5z" />
    <glyph glyph-name="semicolon" unicode=";" horiz-adv-x="496" 
d="M248 760c-19.333 0 -35.833 6.83301 -49.5 20.5s-20.5 30.167 -20.5 49.5s6.83301 35.833 20.5 49.5s30.167 20.5 49.5 20.5s35.833 -6.83301 49.5 -20.5s20.5 -30.167 20.5 -49.5s-6.83301 -35.833 -20.5 -49.5s-30.167 -20.5 -49.5 -20.5zM140 -222l65 402h84l-86 -402
h-63z" />
    <glyph glyph-name="less" unicode="&#x3c;" horiz-adv-x="1192" 
d="M274 545v-6l730 -501v-85l-815 554v67l815 564v-85z" />
    <glyph glyph-name="equal" unicode="=" horiz-adv-x="1192" 
d="M112 353v70h969v-70h-969zM112 728v70h969v-70h-969z" />
    <glyph glyph-name="greater" unicode="&#x3e;" horiz-adv-x="1192" 
d="M189 1138l815 -564v-66l-815 -555v85l730 502v6l-730 507v85z" />
    <glyph glyph-name="question" unicode="?" horiz-adv-x="931" 
d="M60 1096c3.33301 52 15.165 100.165 35.498 144.498s47.833 82.666 82.5 114.999s75.667 57.833 123 76.5s99.333 28 156 28s109 -9 157 -27s89.333 -42.833 124 -74.5s61.667 -69.167 81 -112.5s29 -90 29 -140c0 -34 -4.16699 -65.833 -12.5 -95.5
s-21.166 -58 -38.499 -85s-39.333 -53.333 -66 -79s-58.667 -51.5 -96 -77.5c-34 -23.333 -62.333 -45.166 -85 -65.499s-40.667 -40.833 -54 -61.5s-22.666 -42.5 -27.999 -65.5s-8 -49.167 -8 -78.5v-90h-77v98c0 32.667 3.16699 62.5 9.5 89.5s17.166 52.5 32.499 76.5
s35.333 47.5 60 70.5s55.334 47.5 92.001 73.5c34 24.667 63.167 48.334 87.5 71.001s44 45.5 59 68.5s26 46.5 33 70.5s10.5 49.667 10.5 77c0 42 -7.83301 80.5 -23.5 115.5s-37.5 65.167 -65.5 90.5s-61 45 -99 59s-79.333 21 -124 21c-43.333 0 -83.5 -7 -120.5 -21
s-69.5 -33.667 -97.5 -59s-50.833 -56.166 -68.5 -92.499s-28.5 -76.5 -32.5 -120.5h-76zM423.999 -10.002c-19.333 0 -35.833 6.83301 -49.5 20.5s-20.5 30.5 -20.5 50.5c0 19.333 6.83301 35.833 20.5 49.5s30.167 20.5 49.5 20.5c20 0 36.833 -6.83301 50.5 -20.5
s20.5 -30.167 20.5 -49.5c0 -20 -6.83301 -36.833 -20.5 -50.5s-30.5 -20.5 -50.5 -20.5z" />
    <glyph glyph-name="at" unicode="@" horiz-adv-x="1741" 
d="M865 947c-41.333 0 -79.334 -8.83203 -114.001 -26.499s-64.5 -42.334 -89.5 -74.001s-44.667 -69.167 -59 -112.5s-21.5 -90.666 -21.5 -141.999c0 -52 6.83301 -99.5 20.5 -142.5s32.834 -79.833 57.501 -110.5s54.5 -54.334 89.5 -71.001s73.5 -25 115.5 -25
c40 0 76.5 8.5 109.5 25.5s61.167 41.167 84.5 72.5s41.333 69.166 54 113.499s19 93.5 19 147.5c0 53.333 -6.16699 101.333 -18.5 144s-30 78.834 -53 108.501s-51 52.5 -84 68.5s-69.833 24 -110.5 24zM891.999 1432c116.667 0 223.837 -18.333 321.504 -55
s181.834 -88.167 252.501 -154.5s125.5 -145.666 164.5 -237.999s58.5 -194.166 58.5 -305.499c0 -80 -7.16699 -151.333 -21.5 -214s-35 -115.834 -62 -159.501s-60.167 -77 -99.5 -100s-84 -34.5 -134 -34.5c-33.333 0 -63.833 4.66699 -91.5 14s-51.667 22.833 -72 40.5
s-37 39.167 -50 64.5s-20.833 53.666 -23.5 84.999h-5c-24.667 -64.667 -60.5 -114 -107.5 -148s-101.833 -51 -164.5 -51c-52 0 -99.5 10.167 -142.5 30.5s-80 49 -111 86s-55 81 -72 132s-25.5 107.5 -25.5 169.5c0 61.333 8.66699 117.666 26 168.999
s41.5 95.5 72.5 132.5s68 65.833 111 86.5s90.167 31 141.5 31c30.667 0 60.167 -4.5 88.5 -13.5s54.166 -21.667 77.499 -38s44 -35.833 62 -58.5s31.667 -48 41 -76h5v165h71v-560c0 -64 14.667 -112.833 44 -146.5s73.333 -50.5 132 -50.5
c38 0 71.833 9.83301 101.5 29.5s55 48.334 76 86.001s37 84.167 48 139.5s16.5 118.666 16.5 189.999c0 102 -18 195.167 -54 279.5s-86.167 156.833 -150.5 217.5s-141.5 107.834 -231.5 141.501s-189 50.5 -297 50.5c-72 0 -140.333 -8.66699 -205 -26
s-124.834 -42 -180.501 -74s-105.834 -70.667 -150.501 -116s-82.667 -96.333 -114 -153s-55.5 -118.167 -72.5 -184.5s-25.5 -136.166 -25.5 -209.499c0 -116.667 18.667 -222.5 56 -317.5s89.166 -176.333 155.499 -244s145.666 -119.834 237.999 -156.501
s193.5 -55 303.5 -55c68 0 130.5 3.33301 187.5 10s103.5 16 139.5 28v-64c-37.333 -12 -84 -21.167 -140 -27.5s-118.667 -9.5 -188 -9.5c-120 0 -230.167 20 -330.5 60s-186.833 96.5 -259.5 169.5s-129.167 161 -169.5 264s-60.5 217.5 -60.5 343.5
c0 120.667 20.333 231.5 61 332.5s97.334 188 170.001 261s159.167 129.833 259.5 170.5s210.166 61 329.499 61z" />
    <glyph glyph-name="A" unicode="A" horiz-adv-x="1221" 
d="M935 481h-649l-179 -481h-86l550 1443h80l549 -1443h-85zM312 552h598l-297 788h-5z" />
    <glyph glyph-name="B" unicode="B" horiz-adv-x="1165" 
d="M128 0v1443h486c62.667 0 119.834 -8.5 171.501 -25.5s96 -40.833 133 -71.5s65.667 -67.667 86 -111s30.5 -91 30.5 -143c0 -43.333 -6.66699 -83.666 -20 -120.999s-32.5 -70.666 -57.5 -99.999s-55 -54.166 -90 -74.499s-73.833 -34.5 -116.5 -42.5v-6
c50.667 -5.33301 98 -17.5 142 -36.5s82.167 -44 114.5 -75s57.666 -67.667 75.999 -110s27.5 -89.5 27.5 -141.5c0 -59.333 -11.167 -112.666 -33.5 -159.999s-54.5 -87.666 -96.5 -120.999s-93 -59 -153 -77s-127.667 -27 -203 -27h-497zM207 777.995l376 0.000976562
c56.667 0 107.834 7.16699 153.501 21.5s84.667 34.833 117 61.5s57.333 59 75 97s26.5 80.667 26.5 128c0 43.333 -8.33301 82.666 -25 117.999s-40.334 65.333 -71.001 90s-67.667 43.667 -111 57s-92 20 -146 20h-395v-593zM617 71.9961
c64.667 0 122.667 7.33105 174 21.998s94.833 35.667 130.5 63s62.834 60.333 81.501 99s28 82.334 28 131.001c0 50 -9.83301 94.667 -29.5 134s-48.167 72.833 -85.5 100.5s-82.833 48.834 -136.5 63.501s-114.834 22 -183.501 22h-389v-635h410z" />
    <glyph glyph-name="C" unicode="C" horiz-adv-x="1326" 
d="M702 -21c-96.667 0 -184.164 17.6641 -262.497 52.9971s-145 85.5 -200 150.5s-97.5 143.833 -127.5 236.5s-45 196.334 -45 311.001c0 112 14.833 213.333 44.5 304s72.167 167.834 127.5 231.501s122 112.667 200 147s165.667 51.5 263 51.5
c73.333 0 142.666 -12.333 207.999 -37s123.333 -58.5 174 -101.5s92.334 -94 125.001 -153s52.667 -122.833 60 -191.5h-79c-8 58 -26.167 112 -54.5 162s-64.333 93.167 -108 129.5s-93.334 65 -149.001 86s-114.5 31.5 -176.5 31.5
c-84.667 0 -161.167 -15.333 -229.5 -46s-126.5 -74.667 -174.5 -132s-85 -126.666 -111 -207.999s-39 -172.666 -39 -273.999c0 -104 13.167 -197.667 39.5 -281s63.5 -154.333 111.5 -213s106.167 -103.834 174.5 -135.501s144.5 -47.5 228.5 -47.5c63.333 0 123 9 179 27
s105.5 43.833 148.5 77.5s78.5 74 106.5 121s46 99.5 54 157.5h79c-8 -68.667 -27.833 -131 -59.5 -187s-72.334 -104 -122.001 -144s-107.334 -71 -173.001 -93s-136.5 -33 -212.5 -33z" />
    <glyph glyph-name="D" unicode="D" horiz-adv-x="1332" 
d="M577 1443c109.333 0 206.666 -16.1689 291.999 -48.502s157.333 -79.166 216 -140.499s103.334 -136.666 134.001 -225.999s46 -191.333 46 -306s-15.333 -216.834 -46 -306.501s-75.334 -165.167 -134.001 -226.5s-130.667 -108.166 -216 -140.499
s-182.666 -48.5 -291.999 -48.5h-449v1443h449zM208 72.998h365c98 0 185 14.333 261 43s140 70.5 192 125.5s91.5 122.667 118.5 203s40.5 172.5 40.5 276.5s-13.5 196.333 -40.5 277s-66.5 148.5 -118.5 203.5s-116 96.833 -192 125.5s-163 43 -261 43h-365v-1297z" />
    <glyph glyph-name="E" unicode="E" horiz-adv-x="1068" 
d="M969 0h-841v1443h841v-73h-762v-594h726v-72h-726v-631h762v-73z" />
    <glyph glyph-name="F" unicode="F" horiz-adv-x="1033" 
d="M128 0v1443h830v-73h-751v-603h691v-72h-691v-695h-79z" />
    <glyph glyph-name="G" unicode="G" horiz-adv-x="1358" 
d="M1281 571c0 -92 -13.3311 -174.672 -39.998 -248.005s-65 -135.5 -115 -186.5s-111 -90 -183 -117s-153.333 -40.5 -244 -40.5c-94 0 -179.833 18.167 -257.5 54.5s-144.167 87.333 -199.5 153s-98.333 144.667 -129 237s-46 194.5 -46 306.5
c0 110.667 15.167 211.167 45.5 301.5s73 167.5 128 231.5s121.333 113.5 199 148.5s164.167 52.5 259.5 52.5c72.667 0 140.834 -10.5 204.501 -31.5s120.5 -50.667 170.5 -89s92.167 -84.333 126.5 -138s58.166 -113.167 71.499 -178.5h-81
c-14 55.333 -36.167 105.333 -66.5 150s-66.833 82.834 -109.5 114.501s-90.834 56 -144.501 73s-110.834 25.5 -171.501 25.5c-83.333 0 -159 -15.667 -227 -47s-126 -75.666 -174 -132.999s-85 -126.5 -111 -207.5s-39 -171.5 -39 -271.5
c0 -101.333 13.333 -193.666 40 -276.999s64.167 -154.666 112.5 -213.999s106.333 -105.333 174 -138s142.5 -49 224.5 -49c77.333 0 147 11.833 209 35.5s114.833 57.334 158.5 101.001s77.167 96.667 100.5 159s35 132.5 35 210.5v83h-503v72h582v-143v0z" />
    <glyph glyph-name="H" unicode="H" horiz-adv-x="1327" 
d="M1120 0v705h-913v-705h-79v1443h79v-666h913v666h79v-1443h-79z" />
    <glyph glyph-name="I" unicode="I" horiz-adv-x="335" 
d="M128 0v1443h79v-1443h-79z" />
    <glyph glyph-name="J" unicode="J" horiz-adv-x="951" 
d="M119 320c2 -40 11 -76.499 27 -109.499s37.5 -61.333 64.5 -85s58.667 -42.167 95 -55.5s76.166 -20 119.499 -20c50 0 94.667 7.5 134 22.5s72.833 37 100.5 66s48.667 64.5 63 106.5s21.5 90 21.5 144v1054h80v-1058c0 -62.667 -9.16699 -119.167 -27.5 -169.5
s-44.5 -93.333 -78.5 -129s-75.667 -63 -125 -82s-105 -28.5 -167 -28.5c-55.333 0 -106.166 8.5 -152.499 25.5s-86.5 40.667 -120.5 71s-60.833 66.666 -80.5 108.999s-30.167 88.5 -31.5 138.5h78z" />
    <glyph glyph-name="K" unicode="K" horiz-adv-x="1142" 
d="M128 0v1443h79v-806h6l750 806h101l-594 -636l660 -807h-101l-615 751l-207 -223v-528h-79z" />
    <glyph glyph-name="L" unicode="L" horiz-adv-x="1024" 
d="M964 0h-836v1443h79v-1370h757v-73z" />
    <glyph glyph-name="M" unicode="M" horiz-adv-x="1604" 
d="M1476 0h-76v1279h-4l-556 -1276h-76l-556 1276h-4v-1279h-76v1443h88l583 -1340h6l581 1340h90v-1443z" />
    <glyph glyph-name="N" unicode="N" horiz-adv-x="1341" 
d="M128 0v1443h82l919 -1299h6v1299h79v-1443h-75l-927 1307h-6v-1307h-78z" />
    <glyph glyph-name="O" unicode="O" horiz-adv-x="1420" 
d="M710 1464c98 0 186.667 -17.333 266 -52s147 -84.167 203 -148.5s99 -142.333 129 -234s45 -194.167 45 -307.5c0 -114 -15 -216.833 -45 -308.5s-72.833 -169.667 -128.5 -234s-123.167 -113.833 -202.5 -148.5s-168.333 -52 -267 -52s-187.667 17.333 -267 52
s-146.833 84.167 -202.5 148.5s-98.5 142.333 -128.5 234s-45 194.5 -45 308.5c0 113.333 15 215.833 45 307.5s73 169.667 129 234s123.667 113.833 203 148.5s168 52 266 52zM710 1390c-86 0 -163.499 -15.667 -232.499 -47s-128 -76 -177 -134
s-86.667 -128.167 -113 -210.5s-39.5 -174.5 -39.5 -276.5s13.167 -194.333 39.5 -277s64 -153 113 -211s108.167 -102.667 177.5 -134s146.666 -47 231.999 -47c86 0 163.5 15.667 232.5 47s128 76 177 134s86.667 128.333 113 211s39.5 175 39.5 277
s-13.167 194.167 -39.5 276.5s-64 152.5 -113 210.5s-108 102.667 -177 134s-146.5 47 -232.5 47z" />
    <glyph glyph-name="P" unicode="P" horiz-adv-x="1116" 
d="M597 1443c70 0 133.668 -10.168 191.001 -30.501s106.166 -49.333 146.499 -87s71.5 -83 93.5 -136s33 -112.167 33 -177.5s-11 -124.5 -33 -177.5s-53.333 -98.167 -94 -135.5s-89.5 -66.166 -146.5 -86.499s-120.5 -30.5 -190.5 -30.5h-390v-582h-79v1443h469z
M207.001 653.999l377 0.000976562c60.667 0 115.5 8.16699 164.5 24.5s90.667 40 125 71s60.666 68.667 78.999 113s27.5 94.166 27.5 149.499c0 56 -9.16699 106.167 -27.5 150.5s-44.666 82 -78.999 113s-76 54.667 -125 71s-103.833 24.5 -164.5 24.5h-377v-717z" />
    <glyph glyph-name="Q" unicode="Q" horiz-adv-x="1420" 
d="M1153 -177l-159 217.002c-85.333 -40.667 -180 -61 -284 -61c-98.667 0 -187.667 17.333 -267 52s-146.833 84.167 -202.5 148.5s-98.5 142.333 -128.5 234s-45 194.5 -45 308.5c0 113.333 15 215.833 45 307.5s73 169.667 129 234s123.667 113.833 203 148.5
s168 52 266 52s186.667 -17.333 266 -52s147 -84.167 203 -148.5s99 -142.333 129 -234s45 -194.167 45 -307.5c0 -148.667 -25.5 -278.334 -76.5 -389.001s-123.5 -196.334 -217.5 -257.001l185 -253h-91zM710 53.002c88 0 167.334 16.667 238.001 50l-196 269h91l170 -233
c84 54.667 148 132 192 232s66 217 66 351c0 102 -13.167 194.167 -39.5 276.5s-63.833 152.5 -112.5 210.5s-107.5 102.667 -176.5 134s-146.5 47 -232.5 47s-163.5 -15.667 -232.5 -47s-128 -76 -177 -134s-86.667 -128.167 -113 -210.5s-39.5 -174.5 -39.5 -276.5
s13.167 -194.333 39.5 -277s64 -153 113 -211s108.167 -102.667 177.5 -134s146.666 -47 231.999 -47z" />
    <glyph glyph-name="R" unicode="R" horiz-adv-x="1150" 
d="M207 688l386.999 0.00195312c60.667 0 114.834 7.83301 162.501 23.5s88.167 38.167 121.5 67.5s58.833 65 76.5 107s26.5 89.667 26.5 143c0 54 -9 102.167 -27 144.5s-43.667 78.166 -77 107.499s-74 51.666 -122 66.999s-102.333 23 -163 23h-385v-683z
M206.999 0.00195312l-78.999 -0.00292969v1443h471c71.333 0 135.666 -9.5 192.999 -28.5s106 -46.333 146 -82s70.667 -79 92 -130s32 -108.167 32 -171.5c0 -52 -7.5 -100.167 -22.5 -144.5s-36.833 -83.666 -65.5 -117.999s-63.667 -63.166 -105 -86.499
s-88.333 -40.333 -141 -51l371 -631h-93l-361 619c-6.66699 -1.33301 -15 -2.16602 -25 -2.49902s-18.667 -0.5 -26 -0.5h-387v-616z" />
    <glyph glyph-name="S" unicode="S" horiz-adv-x="1137" 
d="M136 385c2.66699 -49.333 15.835 -94.3311 39.502 -134.998s55.167 -75.667 94.5 -105s85.666 -52.166 138.999 -68.499s111.333 -24.5 174 -24.5c61.333 0 117.5 8.16699 168.5 24.5s94.833 39.166 131.5 68.499s65.167 63.833 85.5 103.5s30.5 83.167 30.5 130.5
c0 38 -6.5 72 -19.5 102s-33.5 57 -61.5 81s-63.667 45.5 -107 64.5s-95.333 36.167 -156 51.5l-171 42c-66.667 16.667 -124.334 36.334 -173.001 59.001s-89 48.5 -121 77.5s-55.667 61.667 -71 98s-23 77.166 -23 122.499c0 56 12.333 107.667 37 155
s58.334 88.166 101.001 122.499s92.667 61.166 150 80.499s119 29 185 29c68 0 131 -9.5 189 -28.5s108.5 -45 151.5 -78s77.167 -72.333 102.5 -118s39 -94.834 41 -147.501h-79c-2.66699 43.333 -14.834 83.333 -36.501 120s-50.5 68.167 -86.5 94.5s-78.167 47 -126.5 62
s-100.833 22.5 -157.5 22.5c-54 0 -104.833 -7.66699 -152.5 -23s-89 -36.833 -124 -64.5s-62.667 -60.667 -83 -99s-30.5 -80.166 -30.5 -125.499c0 -72 27.333 -130.333 82 -175s140 -81.334 256 -110.001l161 -41c70 -17.333 130.333 -37.166 181 -59.499
s92.5 -48.333 125.5 -78s57.5 -63.5 73.5 -101.5s24 -81 24 -129c0 -60 -12 -114.833 -36 -164.5s-58 -92.334 -102 -128.001s-97 -63.5 -159 -83.5s-130.667 -30 -206 -30c-74 0 -142.167 10 -204.5 30s-116.333 47.833 -162 83.5s-82 78.334 -109 128.001
s-41.833 104.5 -44.5 164.5h79z" />
    <glyph glyph-name="T" unicode="T" horiz-adv-x="1138" 
d="M529 0v1370h-508v73h1096v-73h-508v-1370h-80z" />
    <glyph glyph-name="U" unicode="U" horiz-adv-x="1334" 
d="M207 504c0 -68.667 10.667 -130.834 32 -186.501s51.833 -103 91.5 -142s87.834 -69.167 144.501 -90.5s120.667 -32 192 -32c70.667 0 134.5 10.667 191.5 32s105.333 51.5 145 90.5s70.167 86.333 91.5 142s32 117.834 32 186.501v939h79v-942
c0 -78.667 -12.5 -150.167 -37.5 -214.5s-60.833 -119.166 -107.5 -164.499s-103.334 -80.5 -170.001 -105.5s-141.334 -37.5 -224.001 -37.5c-83.333 0 -158.166 12.5 -224.499 37.5s-122.833 60.167 -169.5 105.5s-82.5 100.166 -107.5 164.499s-37.5 135.833 -37.5 214.5
v942h79v-939z" />
    <glyph glyph-name="V" unicode="V" horiz-adv-x="1223" 
d="M571 0l-550 1443h85l503 -1338h5l503 1338h84l-550 -1443h-80z" />
    <glyph glyph-name="W" unicode="W" horiz-adv-x="1803" 
d="M515 0h-70l-403 1443h82l356 -1306h5l379 1306h74l380 -1306h5l355 1306h83l-403 -1443h-70l-384 1295h-5z" />
    <glyph glyph-name="X" unicode="X" horiz-adv-x="1215" 
d="M558 722v2l-514 719h95l469 -658h2l471 658h92l-518 -721v-2l515 -720h-95l-468 656h-2l-471 -656h-92z" />
    <glyph glyph-name="Y" unicode="Y" horiz-adv-x="1172" 
d="M547 0v629l-525 814h93l469 -733h5l469 733h92l-524 -814v-629h-79z" />
    <glyph glyph-name="Z" unicode="Z" horiz-adv-x="1173" 
d="M71 62l925 1303v5h-896v73h997v-62l-923 -1303v-5h928v-73h-1031v62z" />
    <glyph glyph-name="bracketleft" unicode="[" horiz-adv-x="580" 
d="M532 1443v-65h-294v-1549h308v-65h-384v1679h370z" />
    <glyph glyph-name="backslash" unicode="\" horiz-adv-x="518" 
d="M0 1443h72l446 -1774h-70z" />
    <glyph glyph-name="bracketright" unicode="]" horiz-adv-x="580" 
d="M419 -236h-384v65h308v1549h-294v65h370v-1679z" />
    <glyph glyph-name="asciicircum" unicode="^" horiz-adv-x="782" 
d="M133 823h-80l301 603h75l300 -603h-79l-256 518h-6z" />
    <glyph glyph-name="underscore" unicode="_" horiz-adv-x="807" 
d="M-63 -205v63h933v-63h-933z" />
    <glyph glyph-name="grave" unicode="`" horiz-adv-x="758" 
d="M479 1253l-249 303h93l230 -303h-74z" />
    <glyph glyph-name="a" unicode="a" horiz-adv-x="1030" 
d="M453 55c54 0 104.5 9.00098 151.5 27.001s88 42.5 123 73.5s62.5 67.333 82.5 109s30 86.5 30 134.5v161l-359 -27c-103.333 -7.33301 -182 -31.5 -236 -72.5s-81 -97.833 -81 -170.5c0 -34 7.16699 -65.5 21.5 -94.5s34.333 -53.833 60 -74.5
s56.167 -36.834 91.5 -48.501s74 -17.5 116 -17.5zM443 -13.999c-52.667 0 -100.836 7.33203 -144.503 21.999s-81.334 35.5 -113.001 62.5s-56.167 59 -73.5 96s-26 78.167 -26 123.5c0 92.667 32.333 164.834 97 216.501s160.667 82.167 288 91.5l369 27v96
c0 46.667 -7 88.667 -21 126s-34.167 68.666 -60.5 93.999s-58.5 44.833 -96.5 58.5s-81.333 20.5 -130 20.5c-92 0 -166.667 -22.167 -224 -66.5s-92.666 -107.5 -105.999 -189.5h-75c4.66699 50 17.834 95 39.501 135s50.167 74.333 85.5 103s76.833 50.667 124.5 66
s99.834 23 156.501 23c58.667 0 111.834 -8.5 159.501 -25.5s88 -41.167 121 -72.5s58.5 -69.666 76.5 -114.999s27 -96 27 -152v-726h-75v232h-2c-13.333 -36.667 -32.833 -70 -58.5 -100s-56 -55.833 -91 -77.5s-73.5 -38.5 -115.5 -50.5s-86 -18 -132 -18z" />
    <glyph glyph-name="b" unicode="b" horiz-adv-x="1129" 
d="M611 -14c-48 0 -93.332 7.00195 -135.999 21.002s-81.5 34 -116.5 60s-65.5 57.667 -91.5 95s-46 79.333 -60 126h-3v-288h-75v1506h78v-713h3c13.333 44.667 32.666 85.334 57.999 122.001s55.333 68 90 94s73.5 46.167 116.5 60.5s88.5 21.5 136.5 21.5
c66.667 0 127.834 -13.333 183.501 -40s103.5 -64.334 143.5 -113.001s71 -106.834 93 -174.501s33 -142.5 33 -224.5s-11 -157 -33 -225s-53 -126.333 -93 -175s-87.833 -86.334 -143.5 -113.001s-116.834 -40 -183.501 -40zM600.001 1020
c-58 0 -110.999 -11.8291 -158.999 -35.4961s-89.333 -56.834 -124 -99.501s-61.667 -93.5 -81 -152.5s-29 -123.833 -29 -194.5s9.66699 -135.5 29 -194.5s46.333 -109.833 81 -152.5s76 -75.834 124 -99.501s100.667 -35.5 158 -35.5s109.666 11.667 156.999 35
s88 56.166 122 98.499s60.333 93.166 79 152.499s28 125 28 197s-9.33301 137.5 -28 196.5s-44.834 109.5 -78.501 151.5s-74.167 74.667 -121.5 98s-99.666 35 -156.999 35z" />
    <glyph glyph-name="c" unicode="c" horiz-adv-x="1028" 
d="M892 753c-8 38.667 -21.9951 74.3291 -41.9951 106.996s-45.333 60.834 -76 84.501s-65.834 42.167 -105.501 55.5s-82.834 20 -129.501 20c-60.667 0 -115.334 -11.333 -164.001 -34s-90.167 -55 -124.5 -97s-60.833 -92.667 -79.5 -152s-28 -125.666 -28 -198.999
c0 -74 9.33301 -140.667 28 -200s45.167 -109.833 79.5 -151.5s76 -73.834 125 -96.501s103.833 -34 164.5 -34c46 0 88.667 6.16699 128 18.5s74.166 29.833 104.499 52.5s55.666 50 75.999 82s34.5 67.333 42.5 106h78c-8 -48.667 -24.167 -93.167 -48.5 -133.5
s-55.166 -75 -92.499 -104s-80.5 -51.5 -129.5 -67.5s-101.833 -24 -158.5 -24c-72 0 -137.333 12.833 -196 38.5s-108.667 62.5 -150 110.5s-73.166 106 -95.499 174s-33.5 144.333 -33.5 229c0 84 11.167 160.167 33.5 228.5s54.166 126.5 95.499 174.5
s91.166 85 149.499 111s123.5 39 195.5 39c58 0 111.5 -8.66699 160.5 -26s92.167 -41.166 129.5 -71.499s68 -66.166 92 -107.499s40 -85.666 48 -132.999h-77z" />
    <glyph glyph-name="d" unicode="d" horiz-adv-x="1136" 
d="M525 -14c-67.333 0 -129.164 13.3291 -185.497 39.9961s-104.833 64.334 -145.5 113.001s-72.334 106.834 -95.001 174.501s-34 142.5 -34 224.5s11.333 157 34 225s54.167 126.333 94.5 175s88.666 86.334 144.999 113.001s118.166 40 185.499 40
c50 0 96.833 -7.66699 140.5 -23s83 -36.333 118 -63s64.833 -58.167 89.5 -94.5s43 -75.5 55 -117.5h2v713h78v-1506h-73v290h-3c-12.667 -43.333 -31.5 -83.666 -56.5 -120.999s-55 -69.5 -90 -96.5s-74.5 -48.167 -118.5 -63.5s-91 -23 -141 -23zM534.002 1020
c-57.333 0 -110 -11.6689 -158 -35.002s-89.167 -56 -123.5 -98s-61 -92.5 -80 -151.5s-28.5 -124.5 -28.5 -196.5s9.5 -137.667 28.5 -197s45.667 -110.166 80 -152.499s75.5 -75.166 123.5 -98.499s100.667 -35 158 -35c58 0 111.167 11.833 159.5 35.5s90 56.667 125 99
s62.333 93 82 152s29.5 124.167 29.5 195.5s-9.83301 136.5 -29.5 195.5s-47 109.833 -82 152.5s-76.667 75.667 -125 99s-101.5 35 -159.5 35z" />
    <glyph glyph-name="e" unicode="e" horiz-adv-x="1062" 
d="M536 1021c-56 0 -107.33 -10.335 -153.997 -31.002s-87 -49.667 -121 -87s-61.167 -82.5 -81.5 -135.5s-31.833 -111.5 -34.5 -175.5h773c0 64 -9.33301 122.333 -28 175s-44.834 97.834 -78.501 135.501s-73.834 66.834 -120.501 87.501s-98.334 31 -155.001 31z
M984.003 300.998c-8.66699 -45.333 -25.333 -87.3291 -50 -125.996s-55.834 -72 -93.501 -100s-81.5 -49.833 -131.5 -65.5s-104.667 -23.5 -164 -23.5c-73.333 0 -139.5 12.5 -198.5 37.5s-109.333 61.167 -151 108.5s-73.834 105 -96.501 173s-34 145.333 -34 232
c0 83.333 11.333 159.166 34 227.499s54.5 126.666 95.5 174.999s90.5 85.666 148.5 111.999s122.667 39.5 194 39.5c69.333 0 132.333 -12.333 189 -37s105 -59.834 145 -105.501s71 -100.5 93 -164.5s33 -135 33 -213v-45h-853v-4c0 -73.333 9.66699 -138.833 29 -196.5
s46.5 -106.5 81.5 -146.5s77.167 -70.5 126.5 -91.5s104.333 -31.5 165 -31.5c49.333 0 94.333 6.16699 135 18.5s76.334 29.333 107.001 51s55.834 47.5 75.501 77.5s33.5 62.667 41.5 98h79z" />
    <glyph glyph-name="f" unicode="f" horiz-adv-x="536" 
d="M171 1009h-150v68h150v153c0 88 20.833 151.667 62.5 191s100.167 59 175.5 59c32.667 0 59 -3 79 -9v-68c-22 6 -47 9 -75 9c-51.333 0 -91.5 -14.167 -120.5 -42.5s-43.5 -76.5 -43.5 -144.5v-148h231v-68h-231v-1009h-78v1009z" />
    <glyph glyph-name="g" unicode="g" horiz-adv-x="1119" 
d="M529 59c58 0 111.167 11.667 159.5 35s89.666 56.166 123.999 98.499s61.166 93 80.499 152s29 123.833 29 194.5s-9.66699 135.5 -29 194.5s-46.166 109.833 -80.499 152.5s-75.666 75.667 -123.999 99s-101.5 35 -159.5 35c-57.333 0 -109.666 -11.667 -156.999 -35
s-87.833 -56.166 -121.5 -98.499s-59.834 -93 -78.501 -152s-28 -124.167 -28 -195.5s9.33301 -136.5 28 -195.5s44.834 -109.5 78.501 -151.5s74.167 -74.667 121.5 -98s99.666 -35 156.999 -35zM545 -361c-57.333 0 -110 6.00488 -158 18.0049s-90 28.833 -126 50.5
s-65.5 47.667 -88.5 78s-38.167 64.166 -45.5 101.499h81c6.66699 -26 19.5 -50 38.5 -72s43.333 -41 73 -57s64 -28.333 103 -37s81.5 -13 127.5 -13c54.667 0 104.834 6.66699 150.501 20s85 32.666 118 57.999s58.5 56.166 76.5 92.499s27 77.5 27 123.5v285h-2
c-12 -42 -30.333 -81.333 -55 -118s-54.334 -68.334 -89.001 -95.001s-73.667 -47.667 -117 -63s-89.666 -23 -138.999 -23c-68 0 -129.833 13.333 -185.5 40s-103.5 64.167 -143.5 112.5s-71 106.333 -93 174s-33 142.5 -33 224.5s11 157 33 225s53 126.167 93 174.5
s88 85.833 144 112.5s118 40 186 40c49.333 0 95.666 -7.66699 138.999 -23s82.5 -36.5 117.5 -63.5s65 -59 90 -96s43.833 -76.833 56.5 -119.5h3v288h73v-1070c0 -58 -11.167 -109.833 -33.5 -155.5s-53.5 -84.334 -93.5 -116.001s-87.833 -55.667 -143.5 -72
s-117.167 -24.5 -184.5 -24.5z" />
    <glyph glyph-name="h" unicode="h" horiz-adv-x="1095" 
d="M129 1506h77.999v-666h3c12.667 38 30.667 72.333 54 103s51.333 57 84 79s69 39 109 51s82.667 18 128 18c58.667 0 112.5 -9.5 161.5 -28.5s90.833 -45.667 125.5 -80s61.667 -76 81 -125s29 -103.5 29 -163.5v-694h-77v685c0 52 -8 98.667 -24 140
s-38.833 76.5 -68.5 105.5s-65.167 51.167 -106.5 66.5s-87 23 -137 23c-53.333 0 -102.166 -9.33301 -146.499 -28s-82.5 -44.667 -114.5 -78s-56.833 -73.5 -74.5 -120.5s-26.5 -98.5 -26.5 -154.5v-639h-78v1506z" />
    <glyph glyph-name="i" unicode="i" horiz-adv-x="336" 
d="M129 1077h78v-1077h-78v1077zM168 1341c-17.333 0 -32 5.83301 -44 17.5s-18 26.167 -18 43.5s6 32 18 44s26.667 18 44 18s32.166 -6 44.499 -18s18.5 -26.667 18.5 -44s-6.16699 -31.833 -18.5 -43.5s-27.166 -17.5 -44.499 -17.5z" />
    <glyph glyph-name="j" unicode="j" horiz-adv-x="336" 
d="M207 -80c0 -49.333 -5.83301 -91.333 -17.5 -126s-29 -63 -52 -85s-52 -38.167 -87 -48.5s-75.5 -15.5 -121.5 -15.5h-30v69h27c70.667 0 122.167 15.667 154.5 47s48.5 83 48.5 155v1161h78v-1157zM168 1341c-17.333 0 -32 5.83301 -44 17.5s-18 26.167 -18 43.5
s6 32 18 44s26.667 18 44 18s32.166 -6 44.499 -18s18.5 -26.667 18.5 -44s-6.16699 -31.833 -18.5 -43.5s-27.166 -17.5 -44.499 -17.5z" />
    <glyph glyph-name="k" unicode="k" horiz-adv-x="938" 
d="M817 1077h102l-507 -464l511 -613h-95l-474 565l-147 -132v-433h-78v1506h78v-982h1z" />
    <glyph glyph-name="l" unicode="l" horiz-adv-x="336" 
d="M129 1506h78v-1506h-78v1506z" />
    <glyph glyph-name="m" unicode="m" horiz-adv-x="1645" 
d="M119 1077l73.002 -0.000976562v-237h3c10 36 24.5 69.333 43.5 100s42.333 57.167 70 79.5s59.167 39.833 94.5 52.5s74 19 116 19c42.667 0 82 -6.66699 118 -20s67.833 -31.5 95.5 -54.5s51 -50 70 -81s32.5 -64.5 40.5 -100.5h2
c9.33301 34.667 24.166 67.5 44.499 98.5s45.166 58.167 74.499 81.5s62.833 41.833 100.5 55.5s78.5 20.5 122.5 20.5c52 0 99.167 -8.66699 141.5 -26s78.5 -41.833 108.5 -73.5s53.333 -70.167 70 -115.5s25 -96 25 -152v-724h-78v707
c0 48.667 -6.5 92.334 -19.5 131.001s-31.667 71.5 -56 98.5s-54.166 47.667 -89.499 62s-75 21.5 -119 21.5c-45.333 0 -86.833 -8.66699 -124.5 -26s-70 -41.5 -97 -72.5s-47.833 -68.167 -62.5 -111.5s-22 -91 -22 -143v-667h-77v710c0 46.667 -7 89.167 -21 127.5
s-33.5 71 -58.5 98s-54.833 47.833 -89.5 62.5s-72.334 22 -113.001 22c-45.333 0 -86.833 -9 -124.5 -27s-70.167 -43.5 -97.5 -76.5s-48.5 -72.833 -63.5 -119.5s-22.5 -98.667 -22.5 -156v-641h-78v1077z" />
    <glyph glyph-name="n" unicode="n" horiz-adv-x="1080" 
d="M119 1077l73.001 0.000976562v-237h3c12.667 38 30.667 72.333 54 103s51.166 57 83.499 79s68.5 39 108.5 51s83 18 129 18c59.333 0 113.333 -9.33301 162 -28s90.5 -45.167 125.5 -79.5s62 -75.833 81 -124.5s28.5 -103.334 28.5 -164.001v-695h-78v686
c0 52 -8 98.667 -24 140s-38.833 76.333 -68.5 105s-65.167 50.667 -106.5 66s-87 23 -137 23c-52.667 0 -100.834 -9.16699 -144.501 -27.5s-81.167 -44.333 -112.5 -78s-55.666 -73.667 -72.999 -120s-26 -97.5 -26 -153.5v-641h-78v1077z" />
    <glyph glyph-name="o" unicode="o" horiz-adv-x="1089" 
d="M544 -14c-72 0 -137.333 12.833 -196 38.5s-109 62.5 -151 110.5s-74.5 106 -97.5 174s-34.5 144.333 -34.5 229s11.5 161.167 34.5 229.5s55.5 126.5 97.5 174.5s92.5 84.833 151.5 110.5s124.167 38.5 195.5 38.5c72 0 137.5 -12.833 196.5 -38.5
s109.5 -62.5 151.5 -110.5s74.5 -106.167 97.5 -174.5s34.5 -144.833 34.5 -229.5s-11.5 -161 -34.5 -229s-55.5 -126 -97.5 -174s-92.5 -84.833 -151.5 -110.5s-124.5 -38.5 -196.5 -38.5zM544 56c60.667 0 115.667 11.168 165 33.501s91.5 54.5 126.5 96.5
s62 92.667 81 152s28.5 126 28.5 200c0 74.667 -9.5 141.667 -28.5 201s-46 109.833 -81 151.5s-77.167 73.667 -126.5 96s-104.333 33.5 -165 33.5s-115.667 -11.167 -165 -33.5s-91.5 -54.333 -126.5 -96s-62 -92.167 -81 -151.5s-28.5 -126.333 -28.5 -201
c0 -74 9.5 -140.833 28.5 -200.5s46 -110.334 81 -152.001s77.167 -73.667 126.5 -96s104.333 -33.5 165 -33.5z" />
    <glyph glyph-name="p" unicode="p" horiz-adv-x="1119" 
d="M598 1091c67.333 0 128.998 -13.332 184.998 -39.999s104 -64.334 144 -113.001s71.167 -107 93.5 -175s33.5 -143 33.5 -225s-11 -157 -33 -225s-53 -126.167 -93 -174.5s-88 -85.833 -144 -112.5s-117.667 -40 -185 -40c-50 0 -96.667 7.66699 -140 23
s-82.166 36.333 -116.499 63s-63.666 58.167 -87.999 94.5s-42.5 75.5 -54.5 117.5h-3v-629h-78v1422h73v-288h3c12 42.667 30.5 82.5 55.5 119.5s55 69 90 96s74.333 48.167 118 63.5s90.167 23 139.5 23zM588.998 56.001c57.333 0 109.666 11.6689 156.999 35.002
s88 56.166 122 98.499s60.333 93 79 152s28 124.5 28 196.5s-9.33301 137.5 -28 196.5s-45 109.667 -79 152s-74.667 75.166 -122 98.499s-99.666 35 -156.999 35c-58 0 -111 -11.667 -159 -35s-89.167 -56.333 -123.5 -99s-61.166 -93.5 -80.499 -152.5
s-29 -124.167 -29 -195.5s9.66699 -136.5 29 -195.5s46.166 -109.667 80.499 -152s75.5 -75.333 123.5 -99s101 -35.5 159 -35.5z" />
    <glyph glyph-name="q" unicode="q" horiz-adv-x="1126" 
d="M524 1091c50 0 97.001 -7.66797 141.001 -23.001s83.667 -36.5 119 -63.5s65.5 -58.833 90.5 -95.5s43.833 -76.667 56.5 -120h3v288h73v-1422h-78v629h-2c-12 -42 -30.5 -81.167 -55.5 -117.5s-55 -67.833 -90 -94.5s-74.333 -47.667 -118 -63s-90.5 -23 -140.5 -23
c-67.333 0 -129 13.333 -185 40s-104.333 64.167 -145 112.5s-72.167 106.5 -94.5 174.5s-33.5 143 -33.5 225s11.167 157 33.5 225s53.833 126.333 94.5 175s89.167 86.334 145.5 113.001s118.166 40 185.499 40zM532.001 55.999c58 0 111.333 11.832 160 35.499
s90.5 56.667 125.5 99s62.333 93 82 152s29.5 124.167 29.5 195.5c0 70.667 -9.83301 135.667 -29.5 195s-47 110.166 -82 152.499s-76.833 75.333 -125.5 99s-102 35.5 -160 35.5c-57.333 0 -109.833 -11.667 -157.5 -35s-88.5 -56.166 -122.5 -98.499
s-60.5 -93 -79.5 -152s-28.5 -124.5 -28.5 -196.5s9.5 -137.5 28.5 -196.5s45.5 -109.667 79.5 -152s74.833 -75.166 122.5 -98.499s100.167 -35 157.5 -35z" />
    <glyph glyph-name="r" unicode="r" horiz-adv-x="614" 
d="M119 1077l72.999 0.00195312v-213h3c21.333 74 56.666 130.333 105.999 169s110.333 58 183 58c19.333 0 38 -2 56 -6s32 -8 42 -12v-78c-11.333 5.33301 -26.666 10.333 -45.999 15s-40.666 7 -63.999 7c-42 0 -80 -8.66699 -114 -26s-63 -41.333 -87 -72
s-42.333 -67.334 -55 -110.001s-19 -89.334 -19 -140.001v-669h-78v1077z" />
    <glyph glyph-name="s" unicode="s" horiz-adv-x="923" 
d="M94 801c0 42.667 9.49902 81.835 28.499 117.502s45.167 66.167 78.5 91.5s72.5 45.166 117.5 59.499s93.5 21.5 145.5 21.5c54 0 103.5 -7.66699 148.5 -23s84.167 -37.166 117.5 -65.499s60 -62.5 80 -102.5s32 -84.333 36 -133h-76
c-4 37.333 -13.833 71.666 -29.5 102.999s-36.667 58.333 -63 81s-57.5 40.334 -93.5 53.001s-76.333 19 -121 19c-40 0 -77.833 -5.33301 -113.5 -16s-66.667 -25.667 -93 -45s-47.333 -42.333 -63 -69s-23.5 -56.334 -23.5 -89.001c0 -53.333 18.5 -95.166 55.5 -125.499
s93.833 -54.5 170.5 -72.5l167 -41c53.333 -13.333 99 -28.333 137 -45s69 -36.334 93 -59.001s41.667 -48.5 53 -77.5s17 -61.833 17 -98.5c0 -44.667 -9.83301 -85.334 -29.5 -122.001s-47.167 -68.167 -82.5 -94.5s-77.333 -46.666 -126 -60.999s-102 -21.5 -160 -21.5
s-111.167 8.16699 -159.5 24.5s-90.333 38.833 -126 67.5s-64 62.334 -85 101.001s-32.833 80.334 -35.5 125.001h78c3.33301 -35.333 13.833 -68.333 31.5 -99s41 -57.334 70 -80.001s62.833 -40.334 101.5 -53.001s81 -19 127 -19c44.667 0 86.5 5.33301 125.5 16
s72.833 26 101.5 46s51.167 44 67.5 72s24.5 59 24.5 93c0 28 -4.5 53 -13.5 75s-23.5 41.667 -43.5 59s-45.5 32.666 -76.5 45.999s-68.5 25.333 -112.5 36l-173 42c-91.333 22 -159.666 53.833 -204.999 95.5s-68 97.5 -68 167.5z" />
    <glyph glyph-name="t" unicode="t" horiz-adv-x="551" 
d="M256 1354l-0.000976562 -276.999h224v-68h-224v-762c0 -64.667 12.5 -110.834 37.5 -138.501s64.5 -41.5 118.5 -41.5h15c8.66699 0 17.834 0.166992 27.501 0.5s18.5 0.666016 26.5 0.999023s12.333 0.5 13 0.5v-69c-1.33301 0 -6.33301 -0.166992 -15 -0.5
s-18.167 -0.666016 -28.5 -0.999023s-20.333 -0.5 -30 -0.5h-18.5c-39.333 0 -73 4.5 -101 13.5s-51 23.333 -69 43s-31.333 45.167 -40 76.5s-13 69.333 -13 114v764h-158v68h158v277h77z" />
    <glyph glyph-name="u" unicode="u" horiz-adv-x="1080" 
d="M960 0l-71.998 -0.000976562v235h-3c-12 -36 -30.167 -69.333 -54.5 -100s-53.333 -57 -87 -79s-70.834 -39.167 -111.501 -51.5s-83.334 -18.5 -128.001 -18.5c-58 0 -111 9.16699 -159 27.5s-89.167 44.5 -123.5 78.5s-61 75.167 -80 123.5s-28.5 102.5 -28.5 162.5
v699h78v-687c0 -53.333 7.83301 -100.666 23.5 -141.999s37.834 -76.166 66.501 -104.499s63.334 -50 104.001 -65s85.667 -22.5 135 -22.5c51.333 0 99.166 8.83301 143.499 26.5s82.666 43 114.999 76s57.833 72.667 76.5 119s28 98.166 28 155.499v644h77v-1077z" />
    <glyph glyph-name="v" unicode="v" horiz-adv-x="918" 
d="M505 0h-92l-406 1077h83l368 -998h2l369 998h82z" />
    <glyph glyph-name="w" unicode="w" horiz-adv-x="1430" 
d="M1108 0h-91l-301 976h-2l-301 -976h-91l-314 1077h82l277 -990h3l301 990h88l301 -990h3l277 990h82z" />
    <glyph glyph-name="x" unicode="x" horiz-adv-x="897" 
d="M447 485l-347 -485h-90l395 546l-394 531h92l345 -471h3l344 471h92l-394 -529l392 -548h-90l-346 485h-2z" />
    <glyph glyph-name="y" unicode="y" horiz-adv-x="919" 
d="M186 -354c-10 0 -20.168 1.16797 -30.501 3.50098s-18.166 4.16602 -23.499 5.49902v69c6 -2 14.333 -3.83301 25 -5.5s21 -2.5 31 -2.5c24 0 45.667 3.66699 65 11s37 18.833 53 34.5s30.833 36.167 44.5 61.5s27.5 56 41.5 92l27 70l-412 1092h83l369 -1001h2l369 1001
h82l-417 -1111c-24 -64.667 -46.5 -117.667 -67.5 -159s-43 -74 -66 -98s-48.5 -40.5 -76.5 -49.5s-61 -13.5 -99 -13.5z" />
    <glyph glyph-name="z" unicode="z" horiz-adv-x="928" 
d="M66 65l704 942v2h-704v68h795v-66l-705 -941v-2h706v-68h-796v65z" />
    <glyph glyph-name="braceleft" unicode="{" horiz-adv-x="694" 
d="M184 615c58.667 -5.33301 101.334 -26.335 128.001 -63.002s40 -92 40 -166v-395c0 -158 83.333 -237 250 -237h65v-67h-50c-60 0 -111.5 6.16699 -154.5 18.5s-78.167 31.5 -105.5 57.5s-47.5 59.333 -60.5 100s-19.5 89.667 -19.5 147v336
c0 41.333 -3 76.166 -9 104.499s-15.833 51.333 -29.5 69s-31.667 30.334 -54 38.001s-49.5 11.5 -81.5 11.5v113c32 0 59 3.83301 81 11.5s40 20.334 54 38.001s24 40.834 30 69.501s9 64 9 106v284c0 56 6.33301 103.833 19 143.5s32.667 72.167 60 97.5
s62.5 43.833 105.5 55.5s94.833 17.5 155.5 17.5h50v-66h-65c-86.667 0 -150 -19.167 -190 -57.5s-60 -98.5 -60 -180.5v-335c0 -73.333 -13.333 -128.5 -40 -165.5s-69.334 -58.167 -128.001 -63.5v-22v0z" />
    <glyph glyph-name="bar" unicode="|" horiz-adv-x="355" 
d="M143 -330v1773h69v-1773h-69z" />
    <glyph glyph-name="braceright" unicode="}" horiz-adv-x="694" 
d="M510 637c-58.667 5.33301 -101.334 26.502 -128.001 63.502s-40 92.167 -40 165.5v335c0 82.667 -20 143 -60 181s-103.667 57 -191 57h-65v66h51c60.667 0 112.5 -5.83301 155.5 -17.5s78.167 -30.167 105.5 -55.5s47.333 -57.833 60 -97.5s19 -87.5 19 -143.5v-284
c0 -42 3 -77.333 9 -106s15.833 -51.834 29.5 -69.501s31.667 -30.334 54 -38.001s49.833 -11.5 82.5 -11.5v-113c-32.667 0 -60.167 -3.83301 -82.5 -11.5s-40.333 -20.334 -54 -38.001s-23.5 -40.667 -29.5 -69s-9 -63.166 -9 -104.499v-336
c0 -57.333 -6.5 -106.333 -19.5 -147s-33.167 -74 -60.5 -100s-62.5 -45.167 -105.5 -57.5s-94.5 -18.5 -154.5 -18.5h-51v67h65c167.333 0 251 79 251 237v395c0 74 13.333 129.333 40 166s69.334 57.667 128.001 63v22z" />
    <glyph glyph-name="asciitilde" unicode="~" horiz-adv-x="1192" 
d="M563 668c-22.667 21.333 -42.6699 39.1689 -60.0029 53.502s-33.166 25.666 -47.499 33.999s-28 14.333 -41 18s-26.5 5.5 -40.5 5.5c-24 0 -46 -5.16699 -66 -15.5s-37.167 -25 -51.5 -44s-25.666 -42.167 -33.999 -69.5s-12.833 -57.666 -13.5 -90.999h-73
c0 44 5.5 84.167 16.5 120.5s27 67.166 48 92.499s46.333 45 76 59s62.5 21 98.5 21c18.667 0 36.5 -2 53.5 -6s34.5 -10.833 52.5 -20.5s37.167 -22.334 57.5 -38.001s43.5 -35.5 69.5 -59.5c21.333 -20 41 -36.833 59 -50.5s35 -25 51 -34s31.167 -15.5 45.5 -19.5
s28.833 -6 43.5 -6c24 0 46.5 5.66699 67.5 17s39.333 27.166 55 47.499s28.167 44.5 37.5 72.5s14.666 58.667 15.999 92h74c0 -43.333 -6.33301 -83.5 -19 -120.5s-30 -69 -52 -96s-48.333 -48.167 -79 -63.5s-64 -23 -100 -23c-21.333 0 -41.166 1.83301 -59.499 5.5
s-36.666 10.334 -54.999 20.001s-38 22.5 -59 38.5s-44.5 36 -70.5 60z" />
    <glyph glyph-name="nonbreakingspace" unicode="&#xa0;" horiz-adv-x="406" 
 />
    <glyph glyph-name="exclamdown" unicode="&#xa1;" horiz-adv-x="510" 
d="M217 679h76l3 -1017h-82zM255 974c-19.333 0 -36 7 -50 21s-21 30.667 -21 50c0 20 7 36.833 21 50.5s30.667 20.5 50 20.5c20 0 36.833 -6.83301 50.5 -20.5s20.5 -30.5 20.5 -50.5c0 -19.333 -6.83301 -36 -20.5 -50s-30.5 -21 -50.5 -21z" />
    <glyph glyph-name="cent" unicode="&#xa2;" horiz-adv-x="1192" 
d="M1083 478c-7.33301 -48.667 -23.665 -92.8291 -48.998 -132.496s-57 -73.834 -95 -102.501s-81.167 -51.5 -129.5 -68.5s-99.5 -26.833 -153.5 -29.5v-213h-77v213c-68 4.66699 -130.833 20.667 -188.5 48s-107.334 64.666 -149.001 111.999
s-74.334 104.166 -98.001 170.499s-35.5 140.833 -35.5 223.5c0 82 11.833 156 35.5 222s56.5 122.833 98.5 170.5s91.667 85.167 149 112.5s120 43 188 47v199h77v-198c54 -3.33301 105.333 -13.833 154 -31.5s92.167 -41.334 130.5 -71.001
s70.166 -64.834 95.499 -105.501s41.666 -85.334 48.999 -134.001h-79c-8 42 -23.833 79.833 -47.5 113.5s-52.834 62.334 -87.501 86.001s-73.667 41.834 -117 54.501s-89 19 -137 19c-61.333 0 -118.166 -11.167 -170.499 -33.5s-97.833 -54.333 -136.5 -96
s-69 -92.5 -91 -152.5s-33 -127.333 -33 -202c0 -75.333 11 -143 33 -203s52.167 -111 90.5 -153s83.833 -74.167 136.5 -96.5s109.667 -33.5 171 -33.5c47.333 0 92.833 5.83301 136.5 17.5s82.834 28.667 117.501 51s63.834 50 87.501 83s39.167 70.833 46.5 113.5h78v0z
" />
    <glyph glyph-name="sterling" unicode="&#xa3;" horiz-adv-x="1192" 
d="M1131 70l0.00390625 -70.001h-1065v71c48 12 93.5 28.167 136.5 48.5s80.667 45 113 74s58 62.833 77 101.5s28.5 83 28.5 133c0 44 -5.66699 86.833 -17 128.5s-24.666 83.5 -39.999 125.5h-264v67h239c-20 53.333 -38.333 107.666 -55 162.999s-25 113.666 -25 174.999
c0 58 10.167 110.833 30.5 158.5s50.166 88.334 89.499 122.001s87.666 59.834 144.999 78.501s122.666 28 195.999 28c36.667 0 71.5 -1.83301 104.5 -5.5s63.167 -8.16699 90.5 -13.5s51.666 -11.666 72.999 -18.999s38.666 -14.333 51.999 -21v-74
c-28 15.333 -69.833 29.333 -125.5 42s-119.167 19 -190.5 19c-62.667 0 -118 -7.66699 -166 -23s-88.167 -37 -120.5 -65s-56.833 -61.333 -73.5 -100s-25 -81.334 -25 -128.001c0 -60 8.5 -117.667 25.5 -173s35.833 -110 56.5 -164h469v-67h-444
c14.667 -41.333 27.167 -82.833 37.5 -124.5s15.5 -84.5 15.5 -128.5c0 -51.333 -8.83301 -96.666 -26.5 -135.999s-40.167 -73.333 -67.5 -102s-57.5 -52.667 -90.5 -72s-65.167 -34.333 -96.5 -45v-4h913z" />
    <glyph glyph-name="currency" unicode="&#xa4;" horiz-adv-x="1192" 
d="M282 655c0 -43.333 8.16699 -84.168 24.5 -122.501s38.833 -71.833 67.5 -100.5s62.167 -51.167 100.5 -67.5s79.166 -24.5 122.499 -24.5s84 8.33301 122 25s71.333 39.334 100 68.001s51.167 62 67.5 100s24.5 78.667 24.5 122s-8.16699 84.166 -24.5 122.499
s-38.833 71.833 -67.5 100.5s-62 51.334 -100 68.001s-78.667 25 -122 25s-84.166 -8.33301 -122.499 -25s-71.833 -39.334 -100.5 -68.001s-51.167 -62.167 -67.5 -100.5s-24.5 -79.166 -24.5 -122.499zM889 897.998c27.333 -33.333 48.668 -70.667 64.001 -112
s23 -85 23 -131s-7.66699 -89.5 -23 -130.5s-37 -78.167 -65 -111.5l167 -167l-50 -50l-167 167c-33.333 -27.333 -70.333 -48.666 -111 -63.999s-84 -23 -130 -23s-89.5 7.66699 -130.5 23s-77.833 36.666 -110.5 63.999l-168 -167l-51 50l168 168
c-27.333 33.333 -48.666 70.333 -63.999 111s-23 84 -23 130s7.66699 89.5 23 130.5s36.666 78.167 63.999 111.5l-168 167l51 50l166 -167c33.333 28 70.666 49.667 111.999 65s85 23 131 23s89.333 -7.5 130 -22.5s77.667 -36.5 111 -64.5l167 166l50 -50z" />
    <glyph glyph-name="yen" unicode="&#xa5;" horiz-adv-x="1192" 
d="M637 363v-363h-80v363h-341v66h341v208h-341v65h308l-492 741h93l470 -711h4l469 711h92l-490 -741h306v-65h-339v-208h339v-66h-339z" />
    <glyph glyph-name="brokenbar" unicode="&#xa6;" horiz-adv-x="356" 
d="M143 752v691h70v-691h-70zM143 -330v695h70v-695h-70z" />
    <glyph glyph-name="section" unicode="&#xa7;" horiz-adv-x="953" 
d="M503 337c42.667 0.666992 81.833 6.83203 117.5 18.499s66.5 27.834 92.5 48.501s46.167 45.334 60.5 74.001s21.5 60 21.5 94c0 58.667 -21.167 106 -63.5 142s-109.5 64.333 -201.5 85l-78 17c-42.667 -0.666992 -82 -6.83398 -118 -18.501s-67 -28 -93 -49
s-46.167 -45.667 -60.5 -74s-21.5 -59.5 -21.5 -93.5c0 -58 21.333 -105.167 64 -141.5s110 -64.833 202 -85.5zM481.999 -240.002c-54 0 -103.666 6.49902 -148.999 19.499s-85 31.333 -119 55s-61.5 52.167 -82.5 85.5s-33.5 70 -37.5 110h78
c4.66699 -30 15.667 -57.5 33 -82.5s39.666 -46.167 66.999 -63.5s59.166 -30.833 95.499 -40.5s75.5 -14.5 117.5 -14.5s80.833 5.33301 116.5 16s66.5 25.334 92.5 44.001s46.333 41 61 67s22 54.333 22 85c0 54 -20.333 98.167 -61 132.5s-105.334 61.833 -194.001 82.5
l-113 27c-113.333 26.667 -196.5 63 -249.5 109s-79.5 105.333 -79.5 178c0 34.667 6 66.834 18 96.501s29.5 56.167 52.5 79.5s50.833 43 83.5 59s69.667 28 111 36v6c-83.333 24.667 -144.666 58.167 -183.999 100.5s-59 95.833 -59 160.5
c0 41.333 9.16699 79.5 27.5 114.5s43.833 65.167 76.5 90.5s71.5 45 116.5 59s94.5 21 148.5 21c53.333 0 102.5 -6.33301 147.5 -19s84.333 -30.667 118 -54s60.834 -51.5 81.501 -84.5s33.334 -69.5 38.001 -109.5h-77c-4.66699 30 -15.5 57.167 -32.5 81.5
s-39 45.166 -66 62.499s-58.333 30.666 -94 39.999s-74.5 14 -116.5 14s-80.833 -5.16699 -116.5 -15.5s-66.334 -25 -92.001 -44s-45.667 -41.5 -60 -67.5s-21.5 -54.333 -21.5 -85c0 -54 20.167 -98.167 60.5 -132.5s104.5 -61.833 192.5 -82.5l113 -27
c113.333 -26.667 196.333 -63 249 -109s79 -104.667 79 -176c0 -35.333 -6.33301 -68.166 -19 -98.499s-31 -57.5 -55 -81.5s-52.833 -44.333 -86.5 -61s-71.5 -28.667 -113.5 -36v-6c86.667 -21.333 150.5 -52.833 191.5 -94.5s61.5 -95.834 61.5 -162.501
c0 -41.333 -9.16699 -79.333 -27.5 -114s-44 -64.667 -77 -90s-72.167 -45.166 -117.5 -59.499s-95 -21.5 -149 -21.5z" />
    <glyph glyph-name="dieresis" unicode="&#xa8;" horiz-adv-x="758" 
d="M227 1256c-18.667 0 -34.667 6.5 -48 19.5s-20 28.833 -20 47.5c0 18 6.66699 33.5 20 46.5s29.333 19.5 48 19.5c18 0 33.667 -6.5 47 -19.5s20 -28.5 20 -46.5c0 -18.667 -6.66699 -34.5 -20 -47.5s-29 -19.5 -47 -19.5zM531 1256c-18 0 -33.667 6.5 -47 19.5
s-20 28.833 -20 47.5c0 18 6.66699 33.5 20 46.5s29 19.5 47 19.5c18.667 0 34.667 -6.5 48 -19.5s20 -28.5 20 -46.5c0 -18.667 -6.66699 -34.5 -20 -47.5s-29.333 -19.5 -48 -19.5z" />
    <glyph glyph-name="copyright" unicode="&#xa9;" horiz-adv-x="1732" 
d="M866 -145c-72 0 -141 8.83301 -207 26.5s-127.5 42.834 -184.5 75.501s-108.833 72.167 -155.5 118.5s-86.5 98.166 -119.5 155.499s-58.5 119.166 -76.5 185.499s-27 136.166 -27 209.499s9 143.333 27 210s43.5 128.667 76.5 186s72.833 109 119.5 155
s98.5 85.333 155.5 118s118.5 57.834 184.5 75.501s135 26.5 207 26.5s141.167 -8.83301 207.5 -26.5s128 -42.834 185 -75.501s108.667 -72 155 -118s86 -97.667 119 -155s58.5 -119.333 76.5 -186s27 -136.667 27 -210s-9 -143.166 -27 -209.499
s-43.5 -128.166 -76.5 -185.499s-72.667 -109.166 -119 -155.499s-98 -85.833 -155 -118.5s-118.667 -57.834 -185 -75.501s-135.5 -26.5 -207.5 -26.5zM866 -78c66 0 129.171 8 189.504 24s116.5 39 168.5 69s99.167 66 141.5 108s78.5 89.167 108.5 141.5
s53.167 108.833 69.5 169.5s24.5 124.667 24.5 192c0 101.333 -18 195 -54 281s-85.5 160.333 -148.5 223s-137.333 111.667 -223 147s-177.834 53 -276.501 53c-98 0 -189.833 -17.667 -275.5 -53s-160 -84.333 -223 -147s-112.667 -137 -149 -223
s-54.5 -179.667 -54.5 -281c0 -67.333 8.16699 -131.333 24.5 -192s39.666 -117.167 69.999 -169.5s66.666 -99.5 108.999 -141.5s89.5 -78 141.5 -108s108.167 -53 168.5 -69s123.166 -24 188.499 -24zM1150 795c-7.33301 28 -19.165 54.333 -35.498 79
s-36.5 46.167 -60.5 64.5s-52 32.666 -84 42.999s-67.333 15.5 -106 15.5c-46.667 0 -89.834 -8.33301 -129.501 -25s-73.834 -40.667 -102.501 -72s-51.167 -69.5 -67.5 -114.5s-24.5 -96.167 -24.5 -153.5c0 -58 8 -109.833 24 -155.5s38.5 -84.334 67.5 -116.001
s63.167 -56 102.5 -73s82.666 -25.5 129.999 -25.5c40 0 76 4.83301 108 14.5s60 23 84 40s43.667 37.167 59 60.5s26.333 49 33 77h69c-7.33301 -37.333 -20.5 -71.5 -39.5 -102.5s-43.5 -57.833 -73.5 -80.5s-65 -40.167 -105 -52.5s-84.667 -18.5 -134 -18.5
c-57.333 0 -110 10 -158 30s-89.5 48.5 -124.5 85.5s-62.333 82.167 -82 135.5s-29.5 113.666 -29.5 180.999c0 66.667 9.83301 126.334 29.5 179.001s46.834 97.334 81.501 134.001s76 64.834 124 84.501s100.667 29.5 158 29.5c48.667 0 93.334 -7.16699 134.001 -21.5
s76.167 -33.5 106.5 -57.5s55.166 -52 74.499 -84s32.333 -65.667 39 -101h-68z" />
    <glyph glyph-name="ordfeminine" unicode="&#xaa;" horiz-adv-x="879" 
d="M182 828c0 -28 5.5 -53.3311 16.5 -75.998s26.333 -42.167 46 -58.5s43.167 -29 70.5 -38s57.666 -13.5 90.999 -13.5c40.667 0 78.667 6.83301 114 20.5s66.333 32.167 93 55.5s47.667 50.666 63 81.999s23 64.666 23 99.999v136l-274 -22
c-79.333 -6.66699 -139.666 -25.667 -180.999 -57s-62 -74.333 -62 -129zM391 581.002c-42 0 -80.1709 5.83301 -114.504 17.5s-63.666 28.334 -87.999 50.001s-43.333 47.5 -57 77.5s-20.5 63.333 -20.5 100c0 72.667 25.5 129.667 76.5 171s126.167 65.666 225.5 72.999
l285 22v83c0 34 -5.5 64.5 -16.5 91.5s-27 50 -48 69s-46.333 33.5 -76 43.5s-63.167 15 -100.5 15c-35.333 0 -67 -4.16699 -95 -12.5s-52.167 -19.666 -72.5 -33.999s-36.833 -31.5 -49.5 -51.5s-21.334 -41.667 -26.001 -65h-70c4.66699 32 15 61.667 31 89
s37.333 51.166 64 71.499s58.334 36.166 95.001 47.499s78.334 17 125.001 17c48 0 91 -6.5 129 -19.5s70.333 -31.667 97 -56s47.167 -53.833 61.5 -88.5s21.5 -73.667 21.5 -117v-585h-67v174h-6c-11.333 -27.333 -27.166 -52.166 -47.499 -74.499
s-43.666 -41.5 -69.999 -57.5s-55.5 -28.5 -87.5 -37.5s-65 -13.5 -99 -13.5z" />
    <glyph glyph-name="guillemotleft" unicode="&#xab;" horiz-adv-x="1185" 
d="M666 563l366 -408h-95l-370 410v5l370 409h95l-366 -408v-8zM252 563l366 -408h-95l-370 410v5l370 409h95l-366 -408v-8z" />
    <glyph glyph-name="logicalnot" unicode="&#xac;" horiz-adv-x="1192" 
d="M1076 170h-70v468h-890v69h960v-537z" />
    <glyph glyph-name="registered" unicode="&#xae;" horiz-adv-x="1207" 
d="M603 514c-67.333 0 -130.167 12.5 -188.5 37.5s-109.333 59.167 -153 102.5s-78 94.166 -103 152.499s-37.5 121.166 -37.5 188.499c0 66.667 12.5 129.334 37.5 188.001s59.167 109.5 102.5 152.5s94.333 77 153 102s121.667 37.5 189 37.5s130.333 -12.5 189 -37.5
s109.834 -59 153.501 -102s78 -93.833 103 -152.5s37.5 -121.334 37.5 -188.001c0 -67.333 -12.5 -130.166 -37.5 -188.499s-59.333 -109.166 -103 -152.499s-94.834 -77.5 -153.501 -102.5s-121.667 -37.5 -189 -37.5zM602.999 569c60 0 116 11 168 33s97 52.167 135 90.5
s68 83.333 90 135s33 107.5 33 167.5s-11 115.833 -33 167.5s-52 96.5 -90 134.5s-83 68 -135 90s-108 33 -168 33c-59.333 0 -114.833 -11 -166.5 -33s-96.667 -52 -135 -90s-68.5 -82.833 -90.5 -134.5s-33 -107.5 -33 -167.5s11 -115.833 33 -167.5
s52.167 -96.667 90.5 -135s83.333 -68.5 135 -90.5s107.167 -33 166.5 -33zM420.999 756v510.998h197c24 0 46.167 -3.5 66.5 -10.5s38 -17.167 53 -30.5s26.833 -29.5 35.5 -48.5s13 -40.833 13 -65.5c0 -21.333 -3.33301 -40.666 -10 -57.999s-15.5 -32.166 -26.5 -44.499
s-24 -22.5 -39 -30.5s-30.5 -13 -46.5 -15l148 -208h-66l-141 200h-131v-200h-53zM473.999 1002h131c42 0 73.667 10.333 95 31s32 47 32 79s-10.833 57.833 -32.5 77.5s-53.167 29.5 -94.5 29.5h-131v-217z" />
    <glyph glyph-name="macron" unicode="&#xaf;" horiz-adv-x="856" 
d="M726 1308h-596v58h596v-58z" />
    <glyph glyph-name="degree" unicode="&#xb0;" horiz-adv-x="591" 
d="M295 998c-30.667 0 -59.5 5.83301 -86.5 17.5s-50.5 27.5 -70.5 47.5s-35.833 43.5 -47.5 70.5s-17.5 55.833 -17.5 86.5s5.83301 59.5 17.5 86.5s27.5 50.667 47.5 71s43.5 36.333 70.5 48s55.833 17.5 86.5 17.5s59.5 -5.83301 86.5 -17.5s50.667 -27.667 71 -48
s36.333 -44 48 -71s17.5 -55.833 17.5 -86.5s-5.83301 -59.5 -17.5 -86.5s-27.667 -50.5 -48 -70.5s-44 -35.833 -71 -47.5s-55.833 -17.5 -86.5 -17.5zM295 1059c22.667 0 43.834 4.33398 63.501 13.001s36.834 20.167 51.501 34.5s26.334 31.333 35.001 51
s13 40.5 13 62.5c0 22.667 -4.33301 43.834 -13 63.501s-20.334 36.834 -35.001 51.501s-31.834 26.167 -51.501 34.5s-40.834 12.5 -63.501 12.5c-22 0 -42.833 -4.16699 -62.5 -12.5s-36.834 -19.833 -51.501 -34.5s-26.334 -31.834 -35.001 -51.501
s-13 -40.834 -13 -63.501c0 -22 4.33301 -42.833 13 -62.5s20.334 -36.834 35.001 -51.501s31.834 -26.167 51.501 -34.5s40.5 -12.5 62.5 -12.5z" />
    <glyph glyph-name="plusminus" unicode="&#xb1;" horiz-adv-x="1192" 
d="M106 113v69h980v-69h-980zM631 332h-70v350h-455v66h455v332h70v-332h455v-66h-455v-350z" />
    <glyph glyph-name="two.sups" unicode="&#xb2;" horiz-adv-x="565" 
d="M63 1591c0 28.667 5.50098 55.334 16.501 80.001s26.167 45.667 45.5 63s42.333 31 69 41s56 15 88 15c30.667 0 59.167 -4.66699 85.5 -14s49 -22.166 68 -38.499s33.833 -36 44.5 -59s16 -47.833 16 -74.5c0 -17.333 -2.33301 -34 -7 -50s-12.167 -32.833 -22.5 -50.5
s-24.166 -36.834 -41.499 -57.501s-39 -44 -65 -70l-193 -202v-2h348v-61h-449v52l245 251c21.333 22.667 39.166 42.667 53.499 60s25.833 33.166 34.5 47.499s14.834 27.666 18.501 39.999s5.5 25.166 5.5 38.499c0 18.667 -3.5 35.834 -10.5 51.501
s-17 29.334 -30 41.001s-28.333 20.667 -46 27s-36.834 9.5 -57.501 9.5s-39.834 -3.5 -57.501 -10.5s-33 -16.5 -46 -28.5s-23.333 -26.5 -31 -43.5s-11.5 -35.5 -11.5 -55.5v-2h-70v2v0z" />
    <glyph glyph-name="three.sups" unicode="&#xb3;" horiz-adv-x="572" 
d="M198 1484l78.0049 -0.000976562c44 0 79.5 11.5 106.5 34.5s40.5 53.167 40.5 90.5c0 16.667 -3.5 32.5 -10.5 47.5s-17 27.833 -30 38.5s-28.333 19.167 -46 25.5s-36.834 9.5 -57.501 9.5s-39.667 -3 -57 -9s-32.5 -14.5 -45.5 -25.5s-23.333 -24 -31 -39
s-12.167 -31.5 -13.5 -49.5h-69c1.33301 26.667 7.66602 51.334 18.999 74.001s26.5 42 45.5 58s41.667 28.5 68 37.5s55.166 13.5 86.499 13.5c30.667 0 58.834 -4.33301 84.501 -13s48 -20.667 67 -36s33.833 -33.666 44.5 -54.999s16 -44.333 16 -69
c0 -41.333 -12.5 -76 -37.5 -104s-59.167 -45.667 -102.5 -53v-3c52 -3.33301 93 -19.833 123 -49.5s45 -67.5 45 -113.5c0 -28 -6 -54 -18 -78s-28.5 -44.667 -49.5 -62s-46.333 -30.833 -76 -40.5s-61.834 -14.5 -96.501 -14.5c-34 0 -65.167 4.66699 -93.5 14
s-52.666 22.5 -72.999 39.5s-36.333 37 -48 60s-17.834 48.167 -18.501 75.5h71c0.666992 -18 5.16699 -34.667 13.5 -50s19.5 -28.833 33.5 -40.5s30.833 -20.667 50.5 -27s41.167 -9.5 64.5 -9.5c24 0 46.167 3.5 66.5 10.5s37.666 16.5 51.999 28.5
s25.666 26.167 33.999 42.5s12.5 34.166 12.5 53.499c0 40.667 -14.833 72.667 -44.5 96s-71.5 35 -125.5 35h-79v57z" />
    <glyph glyph-name="acute" unicode="&#xb4;" horiz-adv-x="758" 
d="M205 1253l230 303h93l-249 -303h-74z" />
    <glyph glyph-name="paragraph" unicode="&#xb6;" horiz-adv-x="1165" 
d="M663 -162l0.000976562 736.997h-20c-70 0 -134 10.833 -192 32.5s-107.833 51.834 -149.5 90.501s-74.167 84.167 -97.5 136.5s-35 109.5 -35 171.5c0 64.667 11.333 123.834 34 177.501s54.667 99.834 96 138.501s91.166 68.5 149.499 89.5s123.5 31.5 195.5 31.5h98
v-1605h-79zM917.001 1443h79v-1605h-79v1605z" />
    <glyph glyph-name="periodcentered" unicode="&#xb7;" horiz-adv-x="496" 
d="M248 528c-19.333 0 -35.833 6.83301 -49.5 20.5s-20.5 30.167 -20.5 49.5s6.83301 35.833 20.5 49.5s30.167 20.5 49.5 20.5s35.833 -6.83301 49.5 -20.5s20.5 -30.167 20.5 -49.5s-6.83301 -35.833 -20.5 -49.5s-30.167 -20.5 -49.5 -20.5z" />
    <glyph glyph-name="cedilla" unicode="&#xb8;" horiz-adv-x="758" 
d="M266 -150l67 157.001l60 -7l-58 -141c64.667 0 115.334 -13.5 152.001 -40.5s55 -64.167 55 -111.5c0 -25.333 -5.33301 -48.333 -16 -69s-25.5 -38.5 -44.5 -53.5s-41.833 -26.667 -68.5 -35s-56 -12.5 -88 -12.5c-23.333 -0.666992 -46.5 0.5 -69.5 3.5
s-42.5 7.16699 -58.5 12.5v56c14 -5.33301 32.167 -9.5 54.5 -12.5s44.833 -4.5 67.5 -4.5s43.667 2.83301 63 8.5s36.166 13.5 50.499 23.5s25.5 22 33.5 36s12 29 12 45c0 33.333 -13.667 58.666 -41 75.999s-67 26 -119 26h-52v43z" />
    <glyph glyph-name="one.sups" unicode="&#xb9;" horiz-adv-x="434" 
d="M237 1709h-3l-178 -118v70l178 118h74v-668h-71v598z" />
    <glyph glyph-name="ordmasculine" unicode="&#xba;" horiz-adv-x="970" 
d="M180 1016c0 -58 7.16699 -109.833 21.5 -155.5s34.833 -84.5 61.5 -116.5s58.667 -56.5 96 -73.5s79 -25.5 125 -25.5c46.667 0 88.834 8.5 126.501 25.5s69.834 41.5 96.501 73.5s47.167 71 61.5 117s21.5 97.667 21.5 155c0 58 -7.16699 110.167 -21.5 156.5
s-34.833 85.5 -61.5 117.5s-58.834 56.667 -96.501 74s-79.834 26 -126.501 26c-46 0 -87.667 -8.66699 -125 -26s-69.333 -42 -96 -74s-47.167 -71.167 -61.5 -117.5s-21.5 -98.5 -21.5 -156.5zM484 580c-57.333 0 -109.33 10.167 -155.997 30.5
s-86.334 49.333 -119.001 87s-57.834 83.334 -75.501 137.001s-26.5 114.167 -26.5 181.5s9 128.166 27 182.499s43.333 100.5 76 138.5s72.167 67.167 118.5 87.5s98.166 30.5 155.499 30.5s109.333 -10.167 156 -30.5s86.5 -49.5 119.5 -87.5s58.5 -84.167 76.5 -138.5
s27 -115.166 27 -182.499s-9 -127.833 -27 -181.5s-43.5 -99.334 -76.5 -137.001s-72.833 -66.667 -119.5 -87s-98.667 -30.5 -156 -30.5z" />
    <glyph glyph-name="guillemotright" unicode="&#xbb;" horiz-adv-x="1185" 
d="M153 979h95l370 -409v-5l-370 -410h-95l365 408v8zM567 979h94l371 -409v-5l-371 -410h-94l365 408v8z" />
    <glyph glyph-name="onequarter" unicode="&#xbc;" horiz-adv-x="1394" 
d="M1185 150h-339v65l63.5 100l70 105.5l80 115.5l92.5 132h105v-457h99v-61h-99v-150h-72v150zM916 210h271v399h-2l-151 -216.5l-118 -181.5v-1zM240 1373h-3l-178 -118v70l178 118h74v-668h-71v598zM89 1l1075 1443h85l-1075 -1443h-85z" />
    <glyph glyph-name="onehalf" unicode="&#xbd;" horiz-adv-x="1409" 
d="M912 480c0 28.667 5.50098 55.334 16.501 80.001s26.167 45.667 45.5 63s42.333 31 69 41s56 15 88 15c30.667 0 59.167 -4.66699 85.5 -14s49 -22.166 68 -38.499s33.833 -36 44.5 -59s16 -47.833 16 -74.5c0 -17.333 -2.33301 -34 -7 -50s-12.167 -32.833 -22.5 -50.5
s-24.166 -36.834 -41.499 -57.501s-39 -44 -65 -70l-193 -202v-2h348v-61h-449v52l245 251c21.333 22.667 39.166 42.667 53.499 60s25.833 33.166 34.5 47.499s14.834 27.666 18.501 39.999s5.5 25.166 5.5 38.499c0 18.667 -3.5 35.834 -10.5 51.501
s-17 29.334 -30 41.001s-28.333 20.667 -46 27s-36.834 9.5 -57.501 9.5s-39.834 -3.5 -57.501 -10.5s-33 -16.5 -46 -28.5s-23.333 -26.5 -31 -43.5s-11.5 -35.5 -11.5 -55.5v-2h-70v2zM240.001 1373h-3l-178 -118v70l178 118h74v-668h-71v598zM89.001 1l1075 1443h85
l-1075 -1443h-85z" />
    <glyph glyph-name="threequarters" unicode="&#xbe;" horiz-adv-x="1460" 
d="M191 1148l78.0049 -0.000976562c44 0 79.5 11.5 106.5 34.5s40.5 53.167 40.5 90.5c0 16.667 -3.5 32.5 -10.5 47.5s-17 27.833 -30 38.5s-28.333 19.167 -46 25.5s-36.834 9.5 -57.501 9.5s-39.667 -3 -57 -9s-32.5 -14.5 -45.5 -25.5s-23.333 -24 -31 -39
s-12.167 -31.5 -13.5 -49.5h-69c1.33301 26.667 7.66602 51.334 18.999 74.001s26.5 42 45.5 58s41.667 28.5 68 37.5s55.166 13.5 86.499 13.5c30.667 0 58.834 -4.33301 84.501 -13s48 -20.667 67 -36s33.833 -33.666 44.5 -54.999s16 -44.333 16 -69
c0 -41.333 -12.5 -76 -37.5 -104s-59.167 -45.667 -102.5 -53v-3c52 -3.33301 93 -19.833 123 -49.5s45 -67.5 45 -113.5c0 -28 -6 -54 -18 -78s-28.5 -44.667 -49.5 -62s-46.333 -30.833 -76 -40.5s-61.834 -14.5 -96.501 -14.5c-34 0 -65.167 4.66699 -93.5 14
s-52.666 22.5 -72.999 39.5s-36.333 37 -48 60s-17.834 48.167 -18.501 75.5h71c0.666992 -18 5.16699 -34.667 13.5 -50s19.5 -28.833 33.5 -40.5s30.833 -20.667 50.5 -27s41.167 -9.5 64.5 -9.5c24 0 46.167 3.5 66.5 10.5s37.666 16.5 51.999 28.5
s25.666 26.167 33.999 42.5s12.5 34.166 12.5 53.499c0 40.667 -14.833 72.667 -44.5 96s-71.5 35 -125.5 35h-79v57zM1252 149.999h-339v65l63.5 100l70 105.5l80 115.5l92.5 132h105v-457h99v-61h-99v-150h-72v150zM983.005 209.999h271v399h-2l-151 -216.5l-118 -181.5
v-1zM185.005 0.999023l1075 1443h85l-1075 -1443h-85z" />
    <glyph glyph-name="questiondown" unicode="&#xbf;" horiz-adv-x="931" 
d="M871 2c-3.33301 -52 -15.1641 -100.332 -35.4971 -144.999s-47.833 -83.167 -82.5 -115.5s-75.667 -57.833 -123 -76.5s-99.333 -28 -156 -28s-108.834 9 -156.501 27s-88.834 42.833 -123.501 74.5s-61.834 69.167 -81.501 112.5s-29.5 90.333 -29.5 141
c0 34 4.16699 65.833 12.5 95.5s21.166 58 38.499 85s39.333 53.167 66 78.5s58.667 51 96 77c34 24 62.333 46 85 66s40.5 40.333 53.5 61s22.167 42.5 27.5 65.5s8 49.167 8 78.5v90h78v-98c0 -33.333 -3.33301 -63.333 -10 -90s-17.5 -52 -32.5 -76
s-34.833 -47.5 -59.5 -70.5s-55 -47.5 -91 -73.5c-34 -24.667 -63.167 -48.334 -87.5 -71.001s-44.166 -45.5 -59.499 -68.5s-26.5 -46.5 -33.5 -70.5s-10.5 -49.333 -10.5 -76c0 -42 8 -80.5 24 -115.5s38 -65.333 66 -91s61 -45.5 99 -59.5s79 -21 123 -21
c43.333 0 83.5 7 120.5 21s69.5 33.833 97.5 59.5s50.833 56.5 68.5 92.5s28.5 76.333 32.5 121h76zM501.002 974.001c-19.333 0 -35.833 7 -49.5 21s-20.5 30.667 -20.5 50c0 20 6.83301 36.833 20.5 50.5s30.167 20.5 49.5 20.5c20 0 36.833 -6.83301 50.5 -20.5
s20.5 -30.5 20.5 -50.5c0 -19.333 -6.83301 -36 -20.5 -50s-30.5 -21 -50.5 -21z" />
    <glyph glyph-name="Agrave" unicode="&#xc0;" horiz-adv-x="1221" 
d="M935 481h-649l-179 -481h-86l550 1443h80l549 -1443h-85zM312 552h598l-297 788h-5zM283 1843h95l280 -290h-78z" />
    <glyph glyph-name="Aacute" unicode="&#xc1;" horiz-adv-x="1221" 
d="M935 481h-649l-179 -481h-86l550 1443h80l549 -1443h-85zM312 552h598l-297 788h-5zM565 1553l279 290h96l-297 -290h-78z" />
    <glyph glyph-name="Acircumflex" unicode="&#xc2;" horiz-adv-x="1221" 
d="M935 481h-649l-179 -481h-86l550 1443h80l549 -1443h-85zM312 552h598l-297 788h-5zM645 1843l271 -290h-83l-221 238h-2l-221 -238h-83l271 290h68z" />
    <glyph glyph-name="Atilde" unicode="&#xc3;" horiz-adv-x="1221" 
d="M935 481h-649l-179 -481h-86l550 1443h80l549 -1443h-85zM312 552h598l-297 788h-5zM746 1549c-21.333 0 -40.665 4 -57.998 12s-33.166 18.167 -47.499 30.5s-27.666 25.5 -39.999 39.5s-24.833 27.167 -37.5 39.5s-25.834 22.5 -39.501 30.5s-28.834 12 -45.501 12
c-32 0 -55.167 -14 -69.5 -42s-21.5 -65 -21.5 -111h-60c0 32 3.16699 61 9.5 87s15.666 48.167 27.999 66.5s27.833 32.666 46.5 42.999s40.667 15.5 66 15.5c22 0 41.667 -4 59 -12s33.333 -18.167 48 -30.5s28.334 -25.5 41.001 -39.5s25.167 -27.167 37.5 -39.5
s25.333 -22.5 39 -30.5s28.5 -12 44.5 -12c32 0 54.833 14.167 68.5 42.5s20.5 65.5 20.5 111.5h61c0 -31.333 -3.16699 -60.166 -9.5 -86.499s-15.833 -48.833 -28.5 -67.5s-28.334 -33.167 -47.001 -43.5s-40.334 -15.5 -65.001 -15.5z" />
    <glyph glyph-name="Adieresis" unicode="&#xc4;" horiz-adv-x="1221" 
d="M935 481h-649l-179 -481h-86l550 1443h80l549 -1443h-85zM312 552h598l-297 788h-5zM459 1563c-18.667 0 -34.667 6.5 -48 19.5s-20 28.833 -20 47.5c0 18 6.66699 33.5 20 46.5s29.333 19.5 48 19.5c18 0 33.667 -6.5 47 -19.5s20 -28.5 20 -46.5
c0 -18.667 -6.66699 -34.5 -20 -47.5s-29 -19.5 -47 -19.5zM763 1563c-18 0 -33.667 6.5 -47 19.5s-20 28.833 -20 47.5c0 18 6.66699 33.5 20 46.5s29 19.5 47 19.5c18.667 0 34.667 -6.5 48 -19.5s20 -28.5 20 -46.5c0 -18.667 -6.66699 -34.5 -20 -47.5
s-29.333 -19.5 -48 -19.5z" />
    <glyph glyph-name="Aring" unicode="&#xc5;" horiz-adv-x="1221" 
d="M935 481h-649l-179 -481h-86l550 1443h80l549 -1443h-85zM312 552h598l-297 788h-5zM611 1506c-24 0 -46.333 4.5 -67 13.5s-38.834 21.333 -54.501 37s-28 34 -37 55s-13.5 43.5 -13.5 67.5s4.5 46.5 13.5 67.5s21.333 39.333 37 55s33.834 28 54.501 37
s43 13.5 67 13.5s46.333 -4.5 67 -13.5s38.834 -21.333 54.501 -37s28 -34 37 -55s13.5 -43.5 13.5 -67.5s-4.5 -46.5 -13.5 -67.5s-21.333 -39.333 -37 -55s-33.834 -28 -54.501 -37s-43 -13.5 -67 -13.5zM611 1554c17.333 0 33.666 3.33301 48.999 10s28.5 15.667 39.5 27
s19.667 24.5 26 39.5s9.5 31.167 9.5 48.5s-3.16699 33.5 -9.5 48.5s-15 28.167 -26 39.5s-24.167 20.333 -39.5 27s-31.666 10 -48.999 10s-33.666 -3.33301 -48.999 -10s-28.5 -15.667 -39.5 -27s-19.667 -24.5 -26 -39.5s-9.5 -31.167 -9.5 -48.5
s3.16699 -33.5 9.5 -48.5s15 -28.167 26 -39.5s24.167 -20.333 39.5 -27s31.666 -10 48.999 -10z" />
    <glyph glyph-name="AE" unicode="&#xc6;" horiz-adv-x="1900" 
d="M374 492h625v881h-184zM999 422h-659l-210 -422h-84l722 1443h1021v-73h-712v-597h676v-72h-676v-628h712v-73h-790v422z" />
    <glyph glyph-name="Ccedilla" unicode="&#xc7;" horiz-adv-x="1326" 
d="M1190 981c-8 58 -26.1641 111.999 -54.4971 161.999s-64.333 93.167 -108 129.5s-93.334 65 -149.001 86s-114.5 31.5 -176.5 31.5c-84.667 0 -161.167 -15.333 -229.5 -46s-126.5 -74.667 -174.5 -132s-85 -126.666 -111 -207.999s-39 -172.666 -39 -273.999
c0 -104 13.167 -197.667 39.5 -281s63.5 -154.333 111.5 -213s106.167 -103.834 174.5 -135.501s144.5 -47.5 228.5 -47.5c63.333 0 123 9 179 27s105.5 43.833 148.5 77.5s78.5 74 106.5 121s46 99.5 54 157.5h79c-8 -66.667 -27 -127.5 -57 -182.5
s-68.667 -102.333 -116 -142s-102.333 -71 -165 -94s-130.334 -35.833 -203.001 -38.5l-50 -120c64.667 0 115.334 -13.5 152.001 -40.5s55 -64.167 55 -111.5c0 -25.333 -5.33301 -48.333 -16 -69s-25.5 -38.5 -44.5 -53.5s-41.833 -26.667 -68.5 -35s-56 -12.5 -88 -12.5
c-23.333 -0.666992 -46.5 0.5 -69.5 3.5s-42.5 7.16699 -58.5 12.5v56c14 -5.33301 32.167 -9.5 54.5 -12.5s44.833 -4.5 67.5 -4.5s43.667 2.83301 63 8.5s36.166 13.5 50.499 23.5s25.5 22 33.5 36s12 29 12 45c0 33.333 -13.667 58.666 -41 75.999s-67 26 -119 26h-52v43
l55 130c-91.333 4.66699 -173.833 25.5 -247.5 62.5s-136.334 88 -188.001 153s-91.5 142.5 -119.5 232.5s-42 190.667 -42 302c0 112 14.833 213.333 44.5 304s72.167 167.834 127.5 231.501s122 112.667 200 147s165.667 51.5 263 51.5
c73.333 0 142.666 -12.333 207.999 -37s123.333 -58.5 174 -101.5s92.334 -94 125.001 -153s52.667 -122.833 60 -191.5h-79z" />
    <glyph glyph-name="Egrave" unicode="&#xc8;" horiz-adv-x="1068" 
d="M220 1843h95l280 -290h-78zM969 0h-841v1443h841v-73h-762v-594h726v-72h-726v-631h762v-73z" />
    <glyph glyph-name="Eacute" unicode="&#xc9;" horiz-adv-x="1068" 
d="M502 1553l279 290h96l-297 -290h-78zM969 0h-841v1443h841v-73h-762v-594h726v-72h-726v-631h762v-73z" />
    <glyph glyph-name="Ecircumflex" unicode="&#xca;" horiz-adv-x="1068" 
d="M582 1843l271 -290h-83l-221 238h-2l-221 -238h-83l271 290h68zM969 0h-841v1443h841v-73h-762v-594h726v-72h-726v-631h762v-73z" />
    <glyph glyph-name="Edieresis" unicode="&#xcb;" horiz-adv-x="1068" 
d="M396 1563c-18.667 0 -34.667 6.5 -48 19.5s-20 28.833 -20 47.5c0 18 6.66699 33.5 20 46.5s29.333 19.5 48 19.5c18 0 33.667 -6.5 47 -19.5s20 -28.5 20 -46.5c0 -18.667 -6.66699 -34.5 -20 -47.5s-29 -19.5 -47 -19.5zM700 1563c-18 0 -33.667 6.5 -47 19.5
s-20 28.833 -20 47.5c0 18 6.66699 33.5 20 46.5s29 19.5 47 19.5c18.667 0 34.667 -6.5 48 -19.5s20 -28.5 20 -46.5c0 -18.667 -6.66699 -34.5 -20 -47.5s-29.333 -19.5 -48 -19.5zM969 0h-841v1443h841v-73h-762v-594h726v-72h-726v-631h762v-73z" />
    <glyph glyph-name="Igrave" unicode="&#xcc;" horiz-adv-x="335" 
d="M128 0v1443h79v-1443h-79zM-161 1843h95l280 -290h-78z" />
    <glyph glyph-name="Iacute" unicode="&#xcd;" horiz-adv-x="335" 
d="M128 0v1443h79v-1443h-79zM121 1553l279 290h96l-297 -290h-78z" />
    <glyph glyph-name="Icircumflex" unicode="&#xce;" horiz-adv-x="335" 
d="M128 0v1443h79v-1443h-79zM201 1843l271 -290h-83l-221 238h-2l-221 -238h-83l271 290h68z" />
    <glyph glyph-name="Idieresis" unicode="&#xcf;" horiz-adv-x="335" 
d="M128 0v1443h79v-1443h-79zM15 1563c-18.667 0 -34.667 6.5 -48 19.5s-20 28.833 -20 47.5c0 18 6.66699 33.5 20 46.5s29.333 19.5 48 19.5c18 0 33.667 -6.5 47 -19.5s20 -28.5 20 -46.5c0 -18.667 -6.66699 -34.5 -20 -47.5s-29 -19.5 -47 -19.5zM319 1563
c-18 0 -33.667 6.5 -47 19.5s-20 28.833 -20 47.5c0 18 6.66699 33.5 20 46.5s29 19.5 47 19.5c18.667 0 34.667 -6.5 48 -19.5s20 -28.5 20 -46.5c0 -18.667 -6.66699 -34.5 -20 -47.5s-29.333 -19.5 -48 -19.5z" />
    <glyph glyph-name="Eth" unicode="&#xd0;" horiz-adv-x="1399" 
d="M573 73c98 0 185 14.333 261 43s140 70.5 192 125.5s91.5 122.667 118.5 203s40.5 172.5 40.5 276.5s-13.5 196.333 -40.5 277s-66.5 148.5 -118.5 203.5s-116 96.833 -192 125.5s-163 43 -261 43h-365v-592h358v-73h-358v-632h365zM577 1443
c109.333 0 206.666 -16.1689 291.999 -48.502s157.333 -79.166 216 -140.499s103.334 -136.666 134.001 -225.999s46 -191.333 46 -306s-15.333 -216.834 -46 -306.501s-75.334 -165.167 -134.001 -226.5s-130.667 -108.166 -216 -140.499s-182.666 -48.5 -291.999 -48.5
h-449v705h-115v73h115v665h449z" />
    <glyph glyph-name="Ntilde" unicode="&#xd1;" horiz-adv-x="1341" 
d="M806 1549c-21.333 0 -40.665 4 -57.998 12s-33.166 18.167 -47.499 30.5s-27.666 25.5 -39.999 39.5s-24.833 27.167 -37.5 39.5s-25.834 22.5 -39.501 30.5s-28.834 12 -45.501 12c-32 0 -55.167 -14 -69.5 -42s-21.5 -65 -21.5 -111h-60c0 32 3.16699 61 9.5 87
s15.666 48.167 27.999 66.5s27.833 32.666 46.5 42.999s40.667 15.5 66 15.5c22 0 41.667 -4 59 -12s33.333 -18.167 48 -30.5s28.334 -25.5 41.001 -39.5s25.167 -27.167 37.5 -39.5s25.333 -22.5 39 -30.5s28.5 -12 44.5 -12c32 0 54.833 14.167 68.5 42.5
s20.5 65.5 20.5 111.5h61c0 -31.333 -3.16699 -60.166 -9.5 -86.499s-15.833 -48.833 -28.5 -67.5s-28.334 -33.167 -47.001 -43.5s-40.334 -15.5 -65.001 -15.5zM128.001 0v1443h82l919 -1299h6v1299h79v-1443h-75l-927 1307h-6v-1307h-78z" />
    <glyph glyph-name="Ograve" unicode="&#xd2;" horiz-adv-x="1420" 
d="M382 1843h95l280 -290h-78zM710 1464c98 0 186.667 -17.333 266 -52s147 -84.167 203 -148.5s99 -142.333 129 -234s45 -194.167 45 -307.5c0 -114 -15 -216.833 -45 -308.5s-72.833 -169.667 -128.5 -234s-123.167 -113.833 -202.5 -148.5s-168.333 -52 -267 -52
s-187.667 17.333 -267 52s-146.833 84.167 -202.5 148.5s-98.5 142.333 -128.5 234s-45 194.5 -45 308.5c0 113.333 15 215.833 45 307.5s73 169.667 129 234s123.667 113.833 203 148.5s168 52 266 52zM710 1390c-86 0 -163.499 -15.667 -232.499 -47s-128 -76 -177 -134
s-86.667 -128.167 -113 -210.5s-39.5 -174.5 -39.5 -276.5s13.167 -194.333 39.5 -277s64 -153 113 -211s108.167 -102.667 177.5 -134s146.666 -47 231.999 -47c86 0 163.5 15.667 232.5 47s128 76 177 134s86.667 128.333 113 211s39.5 175 39.5 277
s-13.167 194.167 -39.5 276.5s-64 152.5 -113 210.5s-108 102.667 -177 134s-146.5 47 -232.5 47z" />
    <glyph glyph-name="Oacute" unicode="&#xd3;" horiz-adv-x="1420" 
d="M664 1553l279 290h96l-297 -290h-78zM710 1464c98 0 186.667 -17.333 266 -52s147 -84.167 203 -148.5s99 -142.333 129 -234s45 -194.167 45 -307.5c0 -114 -15 -216.833 -45 -308.5s-72.833 -169.667 -128.5 -234s-123.167 -113.833 -202.5 -148.5
s-168.333 -52 -267 -52s-187.667 17.333 -267 52s-146.833 84.167 -202.5 148.5s-98.5 142.333 -128.5 234s-45 194.5 -45 308.5c0 113.333 15 215.833 45 307.5s73 169.667 129 234s123.667 113.833 203 148.5s168 52 266 52zM710 1390
c-86 0 -163.499 -15.667 -232.499 -47s-128 -76 -177 -134s-86.667 -128.167 -113 -210.5s-39.5 -174.5 -39.5 -276.5s13.167 -194.333 39.5 -277s64 -153 113 -211s108.167 -102.667 177.5 -134s146.666 -47 231.999 -47c86 0 163.5 15.667 232.5 47s128 76 177 134
s86.667 128.333 113 211s39.5 175 39.5 277s-13.167 194.167 -39.5 276.5s-64 152.5 -113 210.5s-108 102.667 -177 134s-146.5 47 -232.5 47z" />
    <glyph glyph-name="Ocircumflex" unicode="&#xd4;" horiz-adv-x="1420" 
d="M744 1843l271 -290h-83l-221 238h-2l-221 -238h-83l271 290h68zM710 1464c98 0 186.667 -17.333 266 -52s147 -84.167 203 -148.5s99 -142.333 129 -234s45 -194.167 45 -307.5c0 -114 -15 -216.833 -45 -308.5s-72.833 -169.667 -128.5 -234
s-123.167 -113.833 -202.5 -148.5s-168.333 -52 -267 -52s-187.667 17.333 -267 52s-146.833 84.167 -202.5 148.5s-98.5 142.333 -128.5 234s-45 194.5 -45 308.5c0 113.333 15 215.833 45 307.5s73 169.667 129 234s123.667 113.833 203 148.5s168 52 266 52zM710 1390
c-86 0 -163.499 -15.667 -232.499 -47s-128 -76 -177 -134s-86.667 -128.167 -113 -210.5s-39.5 -174.5 -39.5 -276.5s13.167 -194.333 39.5 -277s64 -153 113 -211s108.167 -102.667 177.5 -134s146.666 -47 231.999 -47c86 0 163.5 15.667 232.5 47s128 76 177 134
s86.667 128.333 113 211s39.5 175 39.5 277s-13.167 194.167 -39.5 276.5s-64 152.5 -113 210.5s-108 102.667 -177 134s-146.5 47 -232.5 47z" />
    <glyph glyph-name="Otilde" unicode="&#xd5;" horiz-adv-x="1420" 
d="M710 1464c98 0 186.667 -17.333 266 -52s147 -84.167 203 -148.5s99 -142.333 129 -234s45 -194.167 45 -307.5c0 -114 -15 -216.833 -45 -308.5s-72.833 -169.667 -128.5 -234s-123.167 -113.833 -202.5 -148.5s-168.333 -52 -267 -52s-187.667 17.333 -267 52
s-146.833 84.167 -202.5 148.5s-98.5 142.333 -128.5 234s-45 194.5 -45 308.5c0 113.333 15 215.833 45 307.5s73 169.667 129 234s123.667 113.833 203 148.5s168 52 266 52zM710 1390c-86 0 -163.499 -15.667 -232.499 -47s-128 -76 -177 -134
s-86.667 -128.167 -113 -210.5s-39.5 -174.5 -39.5 -276.5s13.167 -194.333 39.5 -277s64 -153 113 -211s108.167 -102.667 177.5 -134s146.666 -47 231.999 -47c86 0 163.5 15.667 232.5 47s128 76 177 134s86.667 128.333 113 211s39.5 175 39.5 277
s-13.167 194.167 -39.5 276.5s-64 152.5 -113 210.5s-108 102.667 -177 134s-146.5 47 -232.5 47zM845.001 1549c-21.333 0 -40.665 4 -57.998 12s-33.166 18.167 -47.499 30.5s-27.666 25.5 -39.999 39.5s-24.833 27.167 -37.5 39.5s-25.834 22.5 -39.501 30.5
s-28.834 12 -45.501 12c-32 0 -55.167 -14 -69.5 -42s-21.5 -65 -21.5 -111h-60c0 32 3.16699 61 9.5 87s15.666 48.167 27.999 66.5s27.833 32.666 46.5 42.999s40.667 15.5 66 15.5c22 0 41.667 -4 59 -12s33.333 -18.167 48 -30.5s28.334 -25.5 41.001 -39.5
s25.167 -27.167 37.5 -39.5s25.333 -22.5 39 -30.5s28.5 -12 44.5 -12c32 0 54.833 14.167 68.5 42.5s20.5 65.5 20.5 111.5h61c0 -31.333 -3.16699 -60.166 -9.5 -86.499s-15.833 -48.833 -28.5 -67.5s-28.334 -33.167 -47.001 -43.5s-40.334 -15.5 -65.001 -15.5z" />
    <glyph glyph-name="Odieresis" unicode="&#xd6;" horiz-adv-x="1420" 
d="M558 1563c-18.667 0 -34.667 6.5 -48 19.5s-20 28.833 -20 47.5c0 18 6.66699 33.5 20 46.5s29.333 19.5 48 19.5c18 0 33.667 -6.5 47 -19.5s20 -28.5 20 -46.5c0 -18.667 -6.66699 -34.5 -20 -47.5s-29 -19.5 -47 -19.5zM862 1563c-18 0 -33.667 6.5 -47 19.5
s-20 28.833 -20 47.5c0 18 6.66699 33.5 20 46.5s29 19.5 47 19.5c18.667 0 34.667 -6.5 48 -19.5s20 -28.5 20 -46.5c0 -18.667 -6.66699 -34.5 -20 -47.5s-29.333 -19.5 -48 -19.5zM710 1464c98 0 186.667 -17.333 266 -52s147 -84.167 203 -148.5s99 -142.333 129 -234
s45 -194.167 45 -307.5c0 -114 -15 -216.833 -45 -308.5s-72.833 -169.667 -128.5 -234s-123.167 -113.833 -202.5 -148.5s-168.333 -52 -267 -52s-187.667 17.333 -267 52s-146.833 84.167 -202.5 148.5s-98.5 142.333 -128.5 234s-45 194.5 -45 308.5
c0 113.333 15 215.833 45 307.5s73 169.667 129 234s123.667 113.833 203 148.5s168 52 266 52zM710 1390c-86 0 -163.499 -15.667 -232.499 -47s-128 -76 -177 -134s-86.667 -128.167 -113 -210.5s-39.5 -174.5 -39.5 -276.5s13.167 -194.333 39.5 -277s64 -153 113 -211
s108.167 -102.667 177.5 -134s146.666 -47 231.999 -47c86 0 163.5 15.667 232.5 47s128 76 177 134s86.667 128.333 113 211s39.5 175 39.5 277s-13.167 194.167 -39.5 276.5s-64 152.5 -113 210.5s-108 102.667 -177 134s-146.5 47 -232.5 47z" />
    <glyph glyph-name="multiply" unicode="&#xd7;" horiz-adv-x="1192" 
d="M275 208l-50 49l322 322l-322 323l50 50l321 -323l322 321l50 -48l-321 -323l321 -321l-50 -50l-321 322z" />
    <glyph glyph-name="Oslash" unicode="&#xd8;" horiz-adv-x="1420" 
d="M352 181c46.667 -42 100 -73.833 160 -95.5s126 -32.5 198 -32.5c86 0 163.5 15.667 232.5 47s128 76 177 134s86.667 128.333 113 211s39.5 175 39.5 277c0 97.333 -11.667 185 -35 263s-57 146 -101 204zM1095 1236c-48 50 -104.333 88.166 -169 114.499
s-136.667 39.5 -216 39.5c-86 0 -163.5 -15.667 -232.5 -47s-128 -76 -177 -134s-86.667 -128.167 -113 -210.5s-39.5 -174.5 -39.5 -276.5c0 -105.333 13.833 -199.666 41.5 -282.999s67.167 -154.333 118.5 -213zM1187 1254
c53.333 -64.667 94.332 -141.501 122.999 -230.501s43 -189.5 43 -301.5c0 -114 -15 -216.833 -45 -308.5s-72.833 -169.667 -128.5 -234s-123.167 -113.833 -202.5 -148.5s-168.333 -52 -267 -52c-82 0 -157 11.833 -225 35.5s-128.667 58.167 -182 103.5l-157 -202l-51 37
l162 208c-61.333 64.667 -108.333 144.334 -141 239.001s-49 202 -49 322c0 113.333 15 215.833 45 307.5s73 169.667 129 234s123.667 113.833 203 148.5s168 52 266 52c89.333 0 170.333 -14 243 -42s136.334 -68.667 191.001 -122l144 184l50 -35z" />
    <glyph glyph-name="Ugrave" unicode="&#xd9;" horiz-adv-x="1332" 
d="M338 1843h95l280 -290h-78zM207 504c0 -68.667 10.667 -130.834 32 -186.501s51.833 -103 91.5 -142s87.834 -69.167 144.501 -90.5s120.667 -32 192 -32c70.667 0 134.5 10.667 191.5 32s105.333 51.5 145 90.5s70.167 86.333 91.5 142s32 117.834 32 186.501v939h79
v-942c0 -78.667 -12.5 -150.167 -37.5 -214.5s-60.833 -119.166 -107.5 -164.499s-103.334 -80.5 -170.001 -105.5s-141.334 -37.5 -224.001 -37.5c-83.333 0 -158.166 12.5 -224.499 37.5s-122.833 60.167 -169.5 105.5s-82.5 100.166 -107.5 164.499
s-37.5 135.833 -37.5 214.5v942h79v-939z" />
    <glyph glyph-name="Uacute" unicode="&#xda;" horiz-adv-x="1332" 
d="M620 1553l279 290h96l-297 -290h-78zM207 504c0 -68.667 10.667 -130.834 32 -186.501s51.833 -103 91.5 -142s87.834 -69.167 144.501 -90.5s120.667 -32 192 -32c70.667 0 134.5 10.667 191.5 32s105.333 51.5 145 90.5s70.167 86.333 91.5 142s32 117.834 32 186.501
v939h79v-942c0 -78.667 -12.5 -150.167 -37.5 -214.5s-60.833 -119.166 -107.5 -164.499s-103.334 -80.5 -170.001 -105.5s-141.334 -37.5 -224.001 -37.5c-83.333 0 -158.166 12.5 -224.499 37.5s-122.833 60.167 -169.5 105.5s-82.5 100.166 -107.5 164.499
s-37.5 135.833 -37.5 214.5v942h79v-939z" />
    <glyph glyph-name="Ucircumflex" unicode="&#xdb;" horiz-adv-x="1332" 
d="M700 1843l271 -290h-83l-221 238h-2l-221 -238h-83l271 290h68zM207 504c0 -68.667 10.667 -130.834 32 -186.501s51.833 -103 91.5 -142s87.834 -69.167 144.501 -90.5s120.667 -32 192 -32c70.667 0 134.5 10.667 191.5 32s105.333 51.5 145 90.5
s70.167 86.333 91.5 142s32 117.834 32 186.501v939h79v-942c0 -78.667 -12.5 -150.167 -37.5 -214.5s-60.833 -119.166 -107.5 -164.499s-103.334 -80.5 -170.001 -105.5s-141.334 -37.5 -224.001 -37.5c-83.333 0 -158.166 12.5 -224.499 37.5
s-122.833 60.167 -169.5 105.5s-82.5 100.166 -107.5 164.499s-37.5 135.833 -37.5 214.5v942h79v-939z" />
    <glyph glyph-name="Udieresis" unicode="&#xdc;" horiz-adv-x="1332" 
d="M514 1563c-18.667 0 -34.667 6.5 -48 19.5s-20 28.833 -20 47.5c0 18 6.66699 33.5 20 46.5s29.333 19.5 48 19.5c18 0 33.667 -6.5 47 -19.5s20 -28.5 20 -46.5c0 -18.667 -6.66699 -34.5 -20 -47.5s-29 -19.5 -47 -19.5zM818 1563c-18 0 -33.667 6.5 -47 19.5
s-20 28.833 -20 47.5c0 18 6.66699 33.5 20 46.5s29 19.5 47 19.5c18.667 0 34.667 -6.5 48 -19.5s20 -28.5 20 -46.5c0 -18.667 -6.66699 -34.5 -20 -47.5s-29.333 -19.5 -48 -19.5zM207 504c0 -68.667 10.667 -130.834 32 -186.501s51.833 -103 91.5 -142
s87.834 -69.167 144.501 -90.5s120.667 -32 192 -32c70.667 0 134.5 10.667 191.5 32s105.333 51.5 145 90.5s70.167 86.333 91.5 142s32 117.834 32 186.501v939h79v-942c0 -78.667 -12.5 -150.167 -37.5 -214.5s-60.833 -119.166 -107.5 -164.499
s-103.334 -80.5 -170.001 -105.5s-141.334 -37.5 -224.001 -37.5c-83.333 0 -158.166 12.5 -224.499 37.5s-122.833 60.167 -169.5 105.5s-82.5 100.166 -107.5 164.499s-37.5 135.833 -37.5 214.5v942h79v-939z" />
    <glyph glyph-name="Yacute" unicode="&#xdd;" horiz-adv-x="1172" 
d="M547 0v629l-525 814h93l469 -733h5l469 733h92l-524 -814v-629h-79zM540 1553l279 290h96l-297 -290h-78z" />
    <glyph glyph-name="Thorn" unicode="&#xde;" horiz-adv-x="1209" 
d="M243 1443l-0.000976562 -285.001h404c64.667 0 124 -9.16699 178 -27.5s100.333 -44.833 139 -79.5s68.834 -77 90.501 -127s32.5 -106.667 32.5 -170s-10.667 -119.833 -32 -169.5s-51.333 -91.667 -90 -126s-85 -60.666 -139 -78.999s-114 -27.5 -180 -27.5h-403v-352
h-80v1443h80zM242.999 423.999l390 -0.000976562c58 0 110.167 7.5 156.5 22.5s85.666 36.833 117.999 65.5s57.166 63.334 74.499 104.001s26 86.667 26 138c0 50.667 -8.66699 96.5 -26 137.5s-42.166 75.833 -74.499 104.5s-71.666 50.667 -117.999 66
s-98.5 23 -156.5 23h-390v-661z" />
    <glyph glyph-name="germandbls" unicode="&#xdf;" horiz-adv-x="1090" 
d="M134 0l0.00488281 1072c0 59.333 8.66699 112.333 26 159s42.333 86.167 75 118.5s72.5 57 119.5 74s100.167 25.5 159.5 25.5c56.667 0 108.667 -8.16699 156 -24.5s87.666 -39.5 120.999 -69.5s59.333 -66 78 -108s28 -88.333 28 -139c0 -42.667 -6.66699 -83 -20 -121
s-31.833 -72 -55.5 -102s-51.167 -55.333 -82.5 -76s-65 -35.334 -101 -44.001v-3c54.667 -5.33301 105.167 -18 151.5 -38s86.333 -46 120 -78s59.834 -69.5 78.501 -112.5s28 -90.167 28 -141.5c0 -59.333 -11.167 -114 -33.5 -164s-53.333 -93.333 -93 -130
s-86.834 -65.167 -141.501 -85.5s-114.334 -30.5 -179.001 -30.5c-30 0 -58.333 1.16699 -85 3.5s-55 6.5 -85 12.5v72c21.333 -5.33301 47.166 -9.66602 77.499 -12.999s60.166 -5 89.499 -5c52.667 0 101.667 8.5 147 25.5s84.666 40.5 117.999 70.5
s59.666 65.833 78.999 107.5s29 87.167 29 136.5c0 48.667 -10.167 93 -30.5 133s-48.833 74.333 -85.5 103s-80.834 50.834 -132.501 66.501s-108.5 23.5 -170.5 23.5h-99v75h96c42.667 0 82.334 8.16699 119.001 24.5s68.667 38.5 96 66.5s48.833 61 64.5 99
s23.5 78.667 23.5 122c0 40.667 -7.33301 77.834 -22 111.501s-35.5 62.5 -62.5 86.5s-59.167 42.667 -96.5 56s-78.666 20 -123.999 20c-47.333 0 -89.833 -7.16699 -127.5 -21.5s-69.667 -34.833 -96 -61.5s-46.5 -59.334 -60.5 -98.001s-21 -82.334 -21 -131.001v-1067
h-76z" />
    <glyph glyph-name="agrave" unicode="&#xe0;" horiz-adv-x="1030" 
d="M453 55c54 0 104.5 9.00098 151.5 27.001s88 42.5 123 73.5s62.5 67.333 82.5 109s30 86.5 30 134.5v161l-359 -27c-103.333 -7.33301 -182 -31.5 -236 -72.5s-81 -97.833 -81 -170.5c0 -34 7.16699 -65.5 21.5 -94.5s34.333 -53.833 60 -74.5
s56.167 -36.834 91.5 -48.501s74 -17.5 116 -17.5zM443 -13.999c-52.667 0 -100.836 7.33203 -144.503 21.999s-81.334 35.5 -113.001 62.5s-56.167 59 -73.5 96s-26 78.167 -26 123.5c0 92.667 32.333 164.834 97 216.501s160.667 82.167 288 91.5l369 27v96
c0 46.667 -7 88.667 -21 126s-34.167 68.666 -60.5 93.999s-58.5 44.833 -96.5 58.5s-81.333 20.5 -130 20.5c-92 0 -166.667 -22.167 -224 -66.5s-92.666 -107.5 -105.999 -189.5h-75c4.66699 50 17.834 95 39.501 135s50.167 74.333 85.5 103s76.833 50.667 124.5 66
s99.834 23 156.501 23c58.667 0 111.834 -8.5 159.501 -25.5s88 -41.167 121 -72.5s58.5 -69.666 76.5 -114.999s27 -96 27 -152v-726h-75v232h-2c-13.333 -36.667 -32.833 -70 -58.5 -100s-56 -55.833 -91 -77.5s-73.5 -38.5 -115.5 -50.5s-86 -18 -132 -18zM508.998 1253
l-249 303h93l230 -303h-74z" />
    <glyph glyph-name="aacute" unicode="&#xe1;" horiz-adv-x="1030" 
d="M453 55c54 0 104.5 9.00098 151.5 27.001s88 42.5 123 73.5s62.5 67.333 82.5 109s30 86.5 30 134.5v161l-359 -27c-103.333 -7.33301 -182 -31.5 -236 -72.5s-81 -97.833 -81 -170.5c0 -34 7.16699 -65.5 21.5 -94.5s34.333 -53.833 60 -74.5
s56.167 -36.834 91.5 -48.501s74 -17.5 116 -17.5zM443 -13.999c-52.667 0 -100.836 7.33203 -144.503 21.999s-81.334 35.5 -113.001 62.5s-56.167 59 -73.5 96s-26 78.167 -26 123.5c0 92.667 32.333 164.834 97 216.501s160.667 82.167 288 91.5l369 27v96
c0 46.667 -7 88.667 -21 126s-34.167 68.666 -60.5 93.999s-58.5 44.833 -96.5 58.5s-81.333 20.5 -130 20.5c-92 0 -166.667 -22.167 -224 -66.5s-92.666 -107.5 -105.999 -189.5h-75c4.66699 50 17.834 95 39.501 135s50.167 74.333 85.5 103s76.833 50.667 124.5 66
s99.834 23 156.501 23c58.667 0 111.834 -8.5 159.501 -25.5s88 -41.167 121 -72.5s58.5 -69.666 76.5 -114.999s27 -96 27 -152v-726h-75v232h-2c-13.333 -36.667 -32.833 -70 -58.5 -100s-56 -55.833 -91 -77.5s-73.5 -38.5 -115.5 -50.5s-86 -18 -132 -18zM477.998 1253
l230 303h93l-249 -303h-74z" />
    <glyph glyph-name="acircumflex" unicode="&#xe2;" horiz-adv-x="1030" 
d="M453 55c54 0 104.5 9.00098 151.5 27.001s88 42.5 123 73.5s62.5 67.333 82.5 109s30 86.5 30 134.5v161l-359 -27c-103.333 -7.33301 -182 -31.5 -236 -72.5s-81 -97.833 -81 -170.5c0 -34 7.16699 -65.5 21.5 -94.5s34.333 -53.833 60 -74.5
s56.167 -36.834 91.5 -48.501s74 -17.5 116 -17.5zM443 -13.999c-52.667 0 -100.836 7.33203 -144.503 21.999s-81.334 35.5 -113.001 62.5s-56.167 59 -73.5 96s-26 78.167 -26 123.5c0 92.667 32.333 164.834 97 216.501s160.667 82.167 288 91.5l369 27v96
c0 46.667 -7 88.667 -21 126s-34.167 68.666 -60.5 93.999s-58.5 44.833 -96.5 58.5s-81.333 20.5 -130 20.5c-92 0 -166.667 -22.167 -224 -66.5s-92.666 -107.5 -105.999 -189.5h-75c4.66699 50 17.834 95 39.501 135s50.167 74.333 85.5 103s76.833 50.667 124.5 66
s99.834 23 156.501 23c58.667 0 111.834 -8.5 159.501 -25.5s88 -41.167 121 -72.5s58.5 -69.666 76.5 -114.999s27 -96 27 -152v-726h-75v232h-2c-13.333 -36.667 -32.833 -70 -58.5 -100s-56 -55.833 -91 -77.5s-73.5 -38.5 -115.5 -50.5s-86 -18 -132 -18zM830.998 1253
h-80l-217 249h-3l-217 -249h-81l268 303h62z" />
    <glyph glyph-name="atilde" unicode="&#xe3;" horiz-adv-x="1030" 
d="M453 55c54 0 104.5 9.00098 151.5 27.001s88 42.5 123 73.5s62.5 67.333 82.5 109s30 86.5 30 134.5v161l-359 -27c-103.333 -7.33301 -182 -31.5 -236 -72.5s-81 -97.833 -81 -170.5c0 -34 7.16699 -65.5 21.5 -94.5s34.333 -53.833 60 -74.5
s56.167 -36.834 91.5 -48.501s74 -17.5 116 -17.5zM443 -13.999c-52.667 0 -100.836 7.33203 -144.503 21.999s-81.334 35.5 -113.001 62.5s-56.167 59 -73.5 96s-26 78.167 -26 123.5c0 92.667 32.333 164.834 97 216.501s160.667 82.167 288 91.5l369 27v96
c0 46.667 -7 88.667 -21 126s-34.167 68.666 -60.5 93.999s-58.5 44.833 -96.5 58.5s-81.333 20.5 -130 20.5c-92 0 -166.667 -22.167 -224 -66.5s-92.666 -107.5 -105.999 -189.5h-75c4.66699 50 17.834 95 39.501 135s50.167 74.333 85.5 103s76.833 50.667 124.5 66
s99.834 23 156.501 23c58.667 0 111.834 -8.5 159.501 -25.5s88 -41.167 121 -72.5s58.5 -69.666 76.5 -114.999s27 -96 27 -152v-726h-75v232h-2c-13.333 -36.667 -32.833 -70 -58.5 -100s-56 -55.833 -91 -77.5s-73.5 -38.5 -115.5 -50.5s-86 -18 -132 -18zM666.998 1255
c-22 0 -41.4971 4 -58.4971 12s-32.667 18.167 -47 30.5s-27.666 25.5 -39.999 39.5s-24.833 27.167 -37.5 39.5s-25.834 22.5 -39.501 30.5s-28.834 12 -45.501 12c-32 0 -55.167 -14 -69.5 -42s-21.5 -65 -21.5 -111h-60c0 32 3.16699 61 9.5 87
s15.666 48.167 27.999 66.5s27.833 32.666 46.5 42.999s40.667 15.5 66 15.5c22 0 41.667 -4 59 -12s33.333 -18.167 48 -30.5s28.334 -25.5 41.001 -39.5s25.167 -27.167 37.5 -39.5s25.333 -22.5 39 -30.5s28.5 -12 44.5 -12c32 0 54.833 14.167 68.5 42.5
s20.5 65.5 20.5 111.5h61c0 -31.333 -3.16699 -60.166 -9.5 -86.499s-15.833 -48.833 -28.5 -67.5s-28.334 -33.167 -47.001 -43.5s-40.334 -15.5 -65.001 -15.5z" />
    <glyph glyph-name="adieresis" unicode="&#xe4;" horiz-adv-x="1030" 
d="M453 55c54 0 104.5 9.00098 151.5 27.001s88 42.5 123 73.5s62.5 67.333 82.5 109s30 86.5 30 134.5v161l-359 -27c-103.333 -7.33301 -182 -31.5 -236 -72.5s-81 -97.833 -81 -170.5c0 -34 7.16699 -65.5 21.5 -94.5s34.333 -53.833 60 -74.5
s56.167 -36.834 91.5 -48.501s74 -17.5 116 -17.5zM443 -13.999c-52.667 0 -100.836 7.33203 -144.503 21.999s-81.334 35.5 -113.001 62.5s-56.167 59 -73.5 96s-26 78.167 -26 123.5c0 92.667 32.333 164.834 97 216.501s160.667 82.167 288 91.5l369 27v96
c0 46.667 -7 88.667 -21 126s-34.167 68.666 -60.5 93.999s-58.5 44.833 -96.5 58.5s-81.333 20.5 -130 20.5c-92 0 -166.667 -22.167 -224 -66.5s-92.666 -107.5 -105.999 -189.5h-75c4.66699 50 17.834 95 39.501 135s50.167 74.333 85.5 103s76.833 50.667 124.5 66
s99.834 23 156.501 23c58.667 0 111.834 -8.5 159.501 -25.5s88 -41.167 121 -72.5s58.5 -69.666 76.5 -114.999s27 -96 27 -152v-726h-75v232h-2c-13.333 -36.667 -32.833 -70 -58.5 -100s-56 -55.833 -91 -77.5s-73.5 -38.5 -115.5 -50.5s-86 -18 -132 -18zM379.998 1256
c-18.667 0 -34.667 6.5 -48 19.5s-20 28.833 -20 47.5c0 18 6.66699 33.5 20 46.5s29.333 19.5 48 19.5c18 0 33.667 -6.5 47 -19.5s20 -28.5 20 -46.5c0 -18.667 -6.66699 -34.5 -20 -47.5s-29 -19.5 -47 -19.5zM683.998 1256c-18 0 -33.667 6.5 -47 19.5
s-20 28.833 -20 47.5c0 18 6.66699 33.5 20 46.5s29 19.5 47 19.5c18.667 0 34.667 -6.5 48 -19.5s20 -28.5 20 -46.5c0 -18.667 -6.66699 -34.5 -20 -47.5s-29.333 -19.5 -48 -19.5z" />
    <glyph glyph-name="aring" unicode="&#xe5;" horiz-adv-x="1030" 
d="M453 55c54 0 104.5 9.00098 151.5 27.001s88 42.5 123 73.5s62.5 67.333 82.5 109s30 86.5 30 134.5v161l-359 -27c-103.333 -7.33301 -182 -31.5 -236 -72.5s-81 -97.833 -81 -170.5c0 -34 7.16699 -65.5 21.5 -94.5s34.333 -53.833 60 -74.5
s56.167 -36.834 91.5 -48.501s74 -17.5 116 -17.5zM443 -13.999c-52.667 0 -100.836 7.33203 -144.503 21.999s-81.334 35.5 -113.001 62.5s-56.167 59 -73.5 96s-26 78.167 -26 123.5c0 92.667 32.333 164.834 97 216.501s160.667 82.167 288 91.5l369 27v96
c0 46.667 -7 88.667 -21 126s-34.167 68.666 -60.5 93.999s-58.5 44.833 -96.5 58.5s-81.333 20.5 -130 20.5c-92 0 -166.667 -22.167 -224 -66.5s-92.666 -107.5 -105.999 -189.5h-75c4.66699 50 17.834 95 39.501 135s50.167 74.333 85.5 103s76.833 50.667 124.5 66
s99.834 23 156.501 23c58.667 0 111.834 -8.5 159.501 -25.5s88 -41.167 121 -72.5s58.5 -69.666 76.5 -114.999s27 -96 27 -152v-726h-75v232h-2c-13.333 -36.667 -32.833 -70 -58.5 -100s-56 -55.833 -91 -77.5s-73.5 -38.5 -115.5 -50.5s-86 -18 -132 -18zM531.998 1234
c-24 0 -46.333 4.5 -67 13.5s-38.834 21.333 -54.501 37s-28 34 -37 55s-13.5 43.5 -13.5 67.5s4.5 46.5 13.5 67.5s21.333 39.333 37 55s33.834 28 54.501 37s43 13.5 67 13.5s46.333 -4.5 67 -13.5s38.834 -21.333 54.501 -37s28 -34 37 -55s13.5 -43.5 13.5 -67.5
s-4.5 -46.5 -13.5 -67.5s-21.333 -39.333 -37 -55s-33.834 -28 -54.501 -37s-43 -13.5 -67 -13.5zM531.998 1282c17.333 0 33.666 3.33301 48.999 10s28.5 15.667 39.5 27s19.667 24.5 26 39.5s9.5 31.167 9.5 48.5s-3.16699 33.5 -9.5 48.5s-15 28.167 -26 39.5
s-24.167 20.333 -39.5 27s-31.666 10 -48.999 10s-33.666 -3.33301 -48.999 -10s-28.5 -15.667 -39.5 -27s-19.667 -24.5 -26 -39.5s-9.5 -31.167 -9.5 -48.5s3.16699 -33.5 9.5 -48.5s15 -28.167 26 -39.5s24.167 -20.333 39.5 -27s31.666 -10 48.999 -10z" />
    <glyph glyph-name="ae" unicode="&#xe6;" horiz-adv-x="1830" 
d="M1318 -14c-103.333 0 -191.835 25.6689 -265.502 77.002s-127.167 126.666 -160.5 225.999h-6c-14.667 -47.333 -35.834 -89.666 -63.501 -126.999s-60.167 -69 -97.5 -95s-79 -46 -125 -60s-95 -21 -147 -21c-55.333 0 -105.5 7.33301 -150.5 22
s-83.5 35.167 -115.5 61.5s-56.833 57.833 -74.5 94.5s-26.5 77.334 -26.5 122.001c0 88.667 32 157.834 96 207.501s159 78.167 285 85.5l373 24v127c0 45.333 -7.33301 86 -22 122s-35.5 66.5 -62.5 91.5s-59.833 44 -98.5 57s-82 19.5 -130 19.5
c-46 0 -88 -5.83301 -126 -17.5s-71.333 -28.5 -100 -50.5s-51.834 -48.833 -69.501 -80.5s-29.167 -67.5 -34.5 -107.5h-76c4.66699 49.333 17.834 94.166 39.501 134.499s50.167 74.666 85.5 102.999s76.666 50.333 123.999 66s99.333 23.5 156 23.5
c50 0 96.5 -6.5 139.5 -19.5s80.833 -31.667 113.5 -56s59.167 -54.333 79.5 -90s32.833 -76.167 37.5 -121.5h6c14.667 42 34.834 80.5 60.501 115.5s56 65.333 91 91s74.5 45.5 118.5 59.5s92 21 144 21c68.667 0 130.834 -12.167 186.501 -36.5
s102.834 -58.833 141.501 -103.5s68.5 -98.5 89.5 -161.5s31.5 -133.5 31.5 -211.5v-46h-848v-9c0 -70.667 9.5 -134.834 28.5 -192.501s46 -106.834 81 -147.501s77.167 -72 126.5 -94s104.666 -33 165.999 -33c48 0 91.833 6.16699 131.5 18.5s74.334 29.333 104.001 51
s54.334 47.5 74.001 77.5s33.5 62.667 41.5 98h79c-9.33301 -45.333 -26 -87.333 -50 -126s-54.5 -72 -91.5 -100s-80 -49.833 -129 -65.5s-102.5 -23.5 -160.5 -23.5zM1312 1021c-56.667 0 -108.501 -10.167 -155.501 -30.5s-87.667 -49 -122 -86
s-61.666 -81.5 -81.999 -133.5s-31.833 -109.667 -34.5 -173h768c0 63.333 -9 121 -27 173s-43.167 96.5 -75.5 133.5s-71.5 65.667 -117.5 86s-97.333 30.5 -154 30.5zM453.997 55.002c54 0 104.333 9 151 27s87.5 42.667 122.5 74s62.5 68.166 82.5 110.499
s30 87.833 30 136.5v134l-362 -23c-103.333 -6.66699 -181.5 -29.167 -234.5 -67.5s-79.5 -91.5 -79.5 -159.5c0 -34 7 -65.167 21 -93.5s33.667 -52.666 59 -72.999s55.833 -36.333 91.5 -48s75.167 -17.5 118.5 -17.5z" />
    <glyph glyph-name="ccedilla" unicode="&#xe7;" horiz-adv-x="1028" 
d="M892 753c-8 38.667 -21.9941 74.3301 -41.9941 106.997s-45.333 60.834 -76 84.501s-65.834 42.167 -105.501 55.5s-82.834 20 -129.501 20c-60.667 0 -115.334 -11.333 -164.001 -34s-90.167 -55 -124.5 -97s-60.833 -92.667 -79.5 -152s-28 -125.666 -28 -198.999
c0 -74 9.33301 -140.667 28 -200s45.167 -109.833 79.5 -151.5s76 -73.834 125 -96.501s103.833 -34 164.5 -34c46 0 88.667 6.16699 128 18.5s74.166 29.833 104.499 52.5s55.666 50 75.999 82s34.5 67.333 42.5 106h78c-8 -46.667 -23.333 -89.5 -46 -128.5
s-51.334 -72.833 -86.001 -101.5s-74.667 -51.5 -120 -68.5s-94.666 -26.833 -147.999 -29.5l-53 -128c64.667 0 115.334 -13.5 152.001 -40.5s55 -64.167 55 -111.5c0 -25.333 -5.33301 -48.333 -16 -69s-25.5 -38.5 -44.5 -53.5s-41.833 -26.667 -68.5 -35
s-56 -12.5 -88 -12.5c-23.333 -0.666992 -46.5 0.5 -69.5 3.5s-42.5 7.16699 -58.5 12.5v56c14 -5.33301 32.167 -9.5 54.5 -12.5s44.833 -4.5 67.5 -4.5s43.667 2.83301 63 8.5s36.166 13.5 50.499 23.5s25.5 22 33.5 36s12 29 12 45c0 33.333 -13.667 58.666 -41 75.999
s-67 26 -119 26h-52v43l58 137c-67.333 4 -128.166 19.667 -182.499 47s-100.5 64.833 -138.5 112.5s-67.333 104.5 -88 170.5s-31 139.667 -31 221c0 84 11.167 160.167 33.5 228.5s54.166 126.5 95.499 174.5s91.166 85 149.499 111s123.5 39 195.5 39
c58 0 111.5 -8.66699 160.5 -26s92.167 -41.166 129.5 -71.499s68 -66.166 92 -107.499s40 -85.666 48 -132.999h-77z" />
    <glyph glyph-name="egrave" unicode="&#xe8;" horiz-adv-x="1062" 
d="M514 1253l-249 303h93l230 -303h-74zM536 1021c-56 0 -107.33 -10.335 -153.997 -31.002s-87 -49.667 -121 -87s-61.167 -82.5 -81.5 -135.5s-31.833 -111.5 -34.5 -175.5h773c0 64 -9.33301 122.333 -28 175s-44.834 97.834 -78.501 135.501
s-73.834 66.834 -120.501 87.501s-98.334 31 -155.001 31zM984.003 300.998c-8.66699 -45.333 -25.333 -87.3291 -50 -125.996s-55.834 -72 -93.501 -100s-81.5 -49.833 -131.5 -65.5s-104.667 -23.5 -164 -23.5c-73.333 0 -139.5 12.5 -198.5 37.5
s-109.333 61.167 -151 108.5s-73.834 105 -96.501 173s-34 145.333 -34 232c0 83.333 11.333 159.166 34 227.499s54.5 126.666 95.5 174.999s90.5 85.666 148.5 111.999s122.667 39.5 194 39.5c69.333 0 132.333 -12.333 189 -37s105 -59.834 145 -105.501
s71 -100.5 93 -164.5s33 -135 33 -213v-45h-853v-4c0 -73.333 9.66699 -138.833 29 -196.5s46.5 -106.5 81.5 -146.5s77.167 -70.5 126.5 -91.5s104.333 -31.5 165 -31.5c49.333 0 94.333 6.16699 135 18.5s76.334 29.333 107.001 51s55.834 47.5 75.501 77.5
s33.5 62.667 41.5 98h79z" />
    <glyph glyph-name="eacute" unicode="&#xe9;" horiz-adv-x="1062" 
d="M483 1253l230 303h93l-249 -303h-74zM536 1021c-56 0 -107.33 -10.335 -153.997 -31.002s-87 -49.667 -121 -87s-61.167 -82.5 -81.5 -135.5s-31.833 -111.5 -34.5 -175.5h773c0 64 -9.33301 122.333 -28 175s-44.834 97.834 -78.501 135.501
s-73.834 66.834 -120.501 87.501s-98.334 31 -155.001 31zM984.003 300.998c-8.66699 -45.333 -25.333 -87.3291 -50 -125.996s-55.834 -72 -93.501 -100s-81.5 -49.833 -131.5 -65.5s-104.667 -23.5 -164 -23.5c-73.333 0 -139.5 12.5 -198.5 37.5
s-109.333 61.167 -151 108.5s-73.834 105 -96.501 173s-34 145.333 -34 232c0 83.333 11.333 159.166 34 227.499s54.5 126.666 95.5 174.999s90.5 85.666 148.5 111.999s122.667 39.5 194 39.5c69.333 0 132.333 -12.333 189 -37s105 -59.834 145 -105.501
s71 -100.5 93 -164.5s33 -135 33 -213v-45h-853v-4c0 -73.333 9.66699 -138.833 29 -196.5s46.5 -106.5 81.5 -146.5s77.167 -70.5 126.5 -91.5s104.333 -31.5 165 -31.5c49.333 0 94.333 6.16699 135 18.5s76.334 29.333 107.001 51s55.834 47.5 75.501 77.5
s33.5 62.667 41.5 98h79z" />
    <glyph glyph-name="ecircumflex" unicode="&#xea;" horiz-adv-x="1062" 
d="M836 1253h-80l-217 249h-3l-217 -249h-81l268 303h62zM536 1021c-56 0 -107.33 -10.335 -153.997 -31.002s-87 -49.667 -121 -87s-61.167 -82.5 -81.5 -135.5s-31.833 -111.5 -34.5 -175.5h773c0 64 -9.33301 122.333 -28 175s-44.834 97.834 -78.501 135.501
s-73.834 66.834 -120.501 87.501s-98.334 31 -155.001 31zM984.003 300.998c-8.66699 -45.333 -25.333 -87.3291 -50 -125.996s-55.834 -72 -93.501 -100s-81.5 -49.833 -131.5 -65.5s-104.667 -23.5 -164 -23.5c-73.333 0 -139.5 12.5 -198.5 37.5
s-109.333 61.167 -151 108.5s-73.834 105 -96.501 173s-34 145.333 -34 232c0 83.333 11.333 159.166 34 227.499s54.5 126.666 95.5 174.999s90.5 85.666 148.5 111.999s122.667 39.5 194 39.5c69.333 0 132.333 -12.333 189 -37s105 -59.834 145 -105.501
s71 -100.5 93 -164.5s33 -135 33 -213v-45h-853v-4c0 -73.333 9.66699 -138.833 29 -196.5s46.5 -106.5 81.5 -146.5s77.167 -70.5 126.5 -91.5s104.333 -31.5 165 -31.5c49.333 0 94.333 6.16699 135 18.5s76.334 29.333 107.001 51s55.834 47.5 75.501 77.5
s33.5 62.667 41.5 98h79z" />
    <glyph glyph-name="edieresis" unicode="&#xeb;" horiz-adv-x="1062" 
d="M536 1021c-56 0 -107.33 -10.335 -153.997 -31.002s-87 -49.667 -121 -87s-61.167 -82.5 -81.5 -135.5s-31.833 -111.5 -34.5 -175.5h773c0 64 -9.33301 122.333 -28 175s-44.834 97.834 -78.501 135.501s-73.834 66.834 -120.501 87.501s-98.334 31 -155.001 31z
M984.003 300.998c-8.66699 -45.333 -25.333 -87.3291 -50 -125.996s-55.834 -72 -93.501 -100s-81.5 -49.833 -131.5 -65.5s-104.667 -23.5 -164 -23.5c-73.333 0 -139.5 12.5 -198.5 37.5s-109.333 61.167 -151 108.5s-73.834 105 -96.501 173s-34 145.333 -34 232
c0 83.333 11.333 159.166 34 227.499s54.5 126.666 95.5 174.999s90.5 85.666 148.5 111.999s122.667 39.5 194 39.5c69.333 0 132.333 -12.333 189 -37s105 -59.834 145 -105.501s71 -100.5 93 -164.5s33 -135 33 -213v-45h-853v-4c0 -73.333 9.66699 -138.833 29 -196.5
s46.5 -106.5 81.5 -146.5s77.167 -70.5 126.5 -91.5s104.333 -31.5 165 -31.5c49.333 0 94.333 6.16699 135 18.5s76.334 29.333 107.001 51s55.834 47.5 75.501 77.5s33.5 62.667 41.5 98h79zM385.004 1256c-18.667 0 -34.667 6.5 -48 19.5s-20 28.833 -20 47.5
c0 18 6.66699 33.5 20 46.5s29.333 19.5 48 19.5c18 0 33.667 -6.5 47 -19.5s20 -28.5 20 -46.5c0 -18.667 -6.66699 -34.5 -20 -47.5s-29 -19.5 -47 -19.5zM689.004 1256c-18 0 -33.667 6.5 -47 19.5s-20 28.833 -20 47.5c0 18 6.66699 33.5 20 46.5s29 19.5 47 19.5
c18.667 0 34.667 -6.5 48 -19.5s20 -28.5 20 -46.5c0 -18.667 -6.66699 -34.5 -20 -47.5s-29.333 -19.5 -48 -19.5z" />
    <glyph glyph-name="igrave" unicode="&#xec;" horiz-adv-x="336" 
d="M145 1253l-249 303h93l230 -303h-74zM129 1077h78v-1077h-78v1077z" />
    <glyph glyph-name="iacute" unicode="&#xed;" horiz-adv-x="336" 
d="M114 1253l230 303h93l-249 -303h-74zM129 1077h78v-1077h-78v1077z" />
    <glyph glyph-name="icircumflex" unicode="&#xee;" horiz-adv-x="336" 
d="M467 1253h-80l-217 249h-3l-217 -249h-81l268 303h62zM129 1077h78v-1077h-78v1077z" />
    <glyph glyph-name="idieresis" unicode="&#xef;" horiz-adv-x="336" 
d="M129 1077h78v-1077h-78v1077zM16 1256c-18.667 0 -34.667 6.5 -48 19.5s-20 28.833 -20 47.5c0 18 6.66699 33.5 20 46.5s29.333 19.5 48 19.5c18 0 33.667 -6.5 47 -19.5s20 -28.5 20 -46.5c0 -18.667 -6.66699 -34.5 -20 -47.5s-29 -19.5 -47 -19.5zM320 1256
c-18 0 -33.667 6.5 -47 19.5s-20 28.833 -20 47.5c0 18 6.66699 33.5 20 46.5s29 19.5 47 19.5c18.667 0 34.667 -6.5 48 -19.5s20 -28.5 20 -46.5c0 -18.667 -6.66699 -34.5 -20 -47.5s-29.333 -19.5 -48 -19.5z" />
    <glyph glyph-name="eth" unicode="&#xf0;" horiz-adv-x="1120" 
d="M547 -17c-71.333 0 -136.167 13.168 -194.5 39.501s-108.5 63.666 -150.5 111.999s-74.5 106.166 -97.5 173.499s-34.5 142 -34.5 224c0 76 11.5 146 34.5 210s55 119 96 165s90.167 81.833 147.5 107.5s120 38.5 188 38.5c40.667 0 79.834 -5.16699 117.501 -15.5
s72.667 -25.166 105 -44.499s61.333 -43 87 -71s47.167 -59.667 64.5 -95h8c-19.333 89.333 -48.333 172.5 -87 249.5s-84.334 143.167 -137.001 198.5l-290 -117l-20 55l267 109c-14 13.333 -28.5 26.333 -43.5 39s-31.667 25.667 -50 39s-39 27.166 -62 41.499l-77.5 47.5
h108c42.667 -24.667 79.167 -48.167 109.5 -70.5s58.166 -46.166 83.499 -71.499l267 107l20 -55l-243 -98c165.333 -188.667 248 -436 248 -742c0 -88 -10.833 -167.5 -32.5 -238.5s-52.667 -131.5 -93 -181.5s-89.166 -88.5 -146.499 -115.5s-121.333 -40.5 -192 -40.5z
M541.999 983.001c-57.333 0 -110.167 -11.167 -158.5 -33.5s-89.833 -53.333 -124.5 -93s-61.667 -87 -81 -142s-29 -115.5 -29 -181.5c0 -71.333 9.66699 -136.333 29 -195s46.5 -109 81.5 -151s76.833 -74.667 125.5 -98s102.667 -35 162 -35
c58 0 110.833 11.333 158.5 34s88.5 54.667 122.5 96s60.5 90.833 79.5 148.5s28.5 121.5 28.5 191.5s-9.33301 133.167 -28 189.5s-45 104.5 -79 144.5s-75.333 70.833 -124 92.5s-103 32.5 -163 32.5z" />
    <glyph glyph-name="ntilde" unicode="&#xf1;" horiz-adv-x="1080" 
d="M681 1255c-22 0 -41.4971 4 -58.4971 12s-32.667 18.167 -47 30.5s-27.666 25.5 -39.999 39.5s-24.833 27.167 -37.5 39.5s-25.834 22.5 -39.501 30.5s-28.834 12 -45.501 12c-32 0 -55.167 -14 -69.5 -42s-21.5 -65 -21.5 -111h-60c0 32 3.16699 61 9.5 87
s15.666 48.167 27.999 66.5s27.833 32.666 46.5 42.999s40.667 15.5 66 15.5c22 0 41.667 -4 59 -12s33.333 -18.167 48 -30.5s28.334 -25.5 41.001 -39.5s25.167 -27.167 37.5 -39.5s25.333 -22.5 39 -30.5s28.5 -12 44.5 -12c32 0 54.833 14.167 68.5 42.5
s20.5 65.5 20.5 111.5h61c0 -31.333 -3.16699 -60.166 -9.5 -86.499s-15.833 -48.833 -28.5 -67.5s-28.334 -33.167 -47.001 -43.5s-40.334 -15.5 -65.001 -15.5zM119.003 1077l73.001 0.000976562v-237h3c12.667 38 30.667 72.333 54 103s51.166 57 83.499 79
s68.5 39 108.5 51s83 18 129 18c59.333 0 113.333 -9.33301 162 -28s90.5 -45.167 125.5 -79.5s62 -75.833 81 -124.5s28.5 -103.334 28.5 -164.001v-695h-78v686c0 52 -8 98.667 -24 140s-38.833 76.333 -68.5 105s-65.167 50.667 -106.5 66s-87 23 -137 23
c-52.667 0 -100.834 -9.16699 -144.501 -27.5s-81.167 -44.333 -112.5 -78s-55.666 -73.667 -72.999 -120s-26 -97.5 -26 -153.5v-641h-78v1077z" />
    <glyph glyph-name="ograve" unicode="&#xf2;" horiz-adv-x="1089" 
d="M521 1252l-249 303h93l230 -303h-74zM544 -14c-72 0 -137.333 12.833 -196 38.5s-109 62.5 -151 110.5s-74.5 106 -97.5 174s-34.5 144.333 -34.5 229s11.5 161.167 34.5 229.5s55.5 126.5 97.5 174.5s92.5 84.833 151.5 110.5s124.167 38.5 195.5 38.5
c72 0 137.5 -12.833 196.5 -38.5s109.5 -62.5 151.5 -110.5s74.5 -106.167 97.5 -174.5s34.5 -144.833 34.5 -229.5s-11.5 -161 -34.5 -229s-55.5 -126 -97.5 -174s-92.5 -84.833 -151.5 -110.5s-124.5 -38.5 -196.5 -38.5zM544 56c60.667 0 115.667 11.168 165 33.501
s91.5 54.5 126.5 96.5s62 92.667 81 152s28.5 126 28.5 200c0 74.667 -9.5 141.667 -28.5 201s-46 109.833 -81 151.5s-77.167 73.667 -126.5 96s-104.333 33.5 -165 33.5s-115.667 -11.167 -165 -33.5s-91.5 -54.333 -126.5 -96s-62 -92.167 -81 -151.5
s-28.5 -126.333 -28.5 -201c0 -74 9.5 -140.833 28.5 -200.5s46 -110.334 81 -152.001s77.167 -73.667 126.5 -96s104.333 -33.5 165 -33.5z" />
    <glyph glyph-name="oacute" unicode="&#xf3;" horiz-adv-x="1089" 
d="M490 1252l230 303h93l-249 -303h-74zM544 -14c-72 0 -137.333 12.833 -196 38.5s-109 62.5 -151 110.5s-74.5 106 -97.5 174s-34.5 144.333 -34.5 229s11.5 161.167 34.5 229.5s55.5 126.5 97.5 174.5s92.5 84.833 151.5 110.5s124.167 38.5 195.5 38.5
c72 0 137.5 -12.833 196.5 -38.5s109.5 -62.5 151.5 -110.5s74.5 -106.167 97.5 -174.5s34.5 -144.833 34.5 -229.5s-11.5 -161 -34.5 -229s-55.5 -126 -97.5 -174s-92.5 -84.833 -151.5 -110.5s-124.5 -38.5 -196.5 -38.5zM544 56c60.667 0 115.667 11.168 165 33.501
s91.5 54.5 126.5 96.5s62 92.667 81 152s28.5 126 28.5 200c0 74.667 -9.5 141.667 -28.5 201s-46 109.833 -81 151.5s-77.167 73.667 -126.5 96s-104.333 33.5 -165 33.5s-115.667 -11.167 -165 -33.5s-91.5 -54.333 -126.5 -96s-62 -92.167 -81 -151.5
s-28.5 -126.333 -28.5 -201c0 -74 9.5 -140.833 28.5 -200.5s46 -110.334 81 -152.001s77.167 -73.667 126.5 -96s104.333 -33.5 165 -33.5z" />
    <glyph glyph-name="ocircumflex" unicode="&#xf4;" horiz-adv-x="1089" 
d="M843 1252h-80l-217 249h-3l-217 -249h-81l268 303h62zM544 -14c-72 0 -137.333 12.833 -196 38.5s-109 62.5 -151 110.5s-74.5 106 -97.5 174s-34.5 144.333 -34.5 229s11.5 161.167 34.5 229.5s55.5 126.5 97.5 174.5s92.5 84.833 151.5 110.5s124.167 38.5 195.5 38.5
c72 0 137.5 -12.833 196.5 -38.5s109.5 -62.5 151.5 -110.5s74.5 -106.167 97.5 -174.5s34.5 -144.833 34.5 -229.5s-11.5 -161 -34.5 -229s-55.5 -126 -97.5 -174s-92.5 -84.833 -151.5 -110.5s-124.5 -38.5 -196.5 -38.5zM544 56c60.667 0 115.667 11.168 165 33.501
s91.5 54.5 126.5 96.5s62 92.667 81 152s28.5 126 28.5 200c0 74.667 -9.5 141.667 -28.5 201s-46 109.833 -81 151.5s-77.167 73.667 -126.5 96s-104.333 33.5 -165 33.5s-115.667 -11.167 -165 -33.5s-91.5 -54.333 -126.5 -96s-62 -92.167 -81 -151.5
s-28.5 -126.333 -28.5 -201c0 -74 9.5 -140.833 28.5 -200.5s46 -110.334 81 -152.001s77.167 -73.667 126.5 -96s104.333 -33.5 165 -33.5z" />
    <glyph glyph-name="otilde" unicode="&#xf5;" horiz-adv-x="1089" 
d="M679 1254c-21.333 0 -40.665 4 -57.998 12s-33.166 18.167 -47.499 30.5s-27.666 25.5 -39.999 39.5s-24.833 27.167 -37.5 39.5s-25.834 22.5 -39.501 30.5s-28.834 12 -45.501 12c-32 0 -55.167 -14 -69.5 -42s-21.5 -65 -21.5 -111h-60c0 32 3.16699 61 9.5 87
s15.666 48.167 27.999 66.5s27.833 32.666 46.5 42.999s40.667 15.5 66 15.5c22 0 41.667 -4 59 -12s33.333 -18.167 48 -30.5s28.334 -25.5 41.001 -39.5s25.167 -27.167 37.5 -39.5s25.333 -22.5 39 -30.5s28.5 -12 44.5 -12c32 0 54.833 14.167 68.5 42.5
s20.5 65.5 20.5 111.5h61c0 -31.333 -3.16699 -60.166 -9.5 -86.499s-15.833 -48.833 -28.5 -67.5s-28.334 -33.167 -47.001 -43.5s-40.334 -15.5 -65.001 -15.5zM544.001 -14c-72 0 -137.333 12.833 -196 38.5s-109 62.5 -151 110.5s-74.5 106 -97.5 174
s-34.5 144.333 -34.5 229s11.5 161.167 34.5 229.5s55.5 126.5 97.5 174.5s92.5 84.833 151.5 110.5s124.167 38.5 195.5 38.5c72 0 137.5 -12.833 196.5 -38.5s109.5 -62.5 151.5 -110.5s74.5 -106.167 97.5 -174.5s34.5 -144.833 34.5 -229.5s-11.5 -161 -34.5 -229
s-55.5 -126 -97.5 -174s-92.5 -84.833 -151.5 -110.5s-124.5 -38.5 -196.5 -38.5zM544.001 56c60.667 0 115.667 11.168 165 33.501s91.5 54.5 126.5 96.5s62 92.667 81 152s28.5 126 28.5 200c0 74.667 -9.5 141.667 -28.5 201s-46 109.833 -81 151.5
s-77.167 73.667 -126.5 96s-104.333 33.5 -165 33.5s-115.667 -11.167 -165 -33.5s-91.5 -54.333 -126.5 -96s-62 -92.167 -81 -151.5s-28.5 -126.333 -28.5 -201c0 -74 9.5 -140.833 28.5 -200.5s46 -110.334 81 -152.001s77.167 -73.667 126.5 -96
s104.333 -33.5 165 -33.5z" />
    <glyph glyph-name="odieresis" unicode="&#xf6;" horiz-adv-x="1089" 
d="M392 1255c-18.667 0 -34.667 6.5 -48 19.5s-20 28.833 -20 47.5c0 18 6.66699 33.5 20 46.5s29.333 19.5 48 19.5c18 0 33.667 -6.5 47 -19.5s20 -28.5 20 -46.5c0 -18.667 -6.66699 -34.5 -20 -47.5s-29 -19.5 -47 -19.5zM696 1255c-18 0 -33.667 6.5 -47 19.5
s-20 28.833 -20 47.5c0 18 6.66699 33.5 20 46.5s29 19.5 47 19.5c18.667 0 34.667 -6.5 48 -19.5s20 -28.5 20 -46.5c0 -18.667 -6.66699 -34.5 -20 -47.5s-29.333 -19.5 -48 -19.5zM544 -14c-72 0 -137.333 12.833 -196 38.5s-109 62.5 -151 110.5s-74.5 106 -97.5 174
s-34.5 144.333 -34.5 229s11.5 161.167 34.5 229.5s55.5 126.5 97.5 174.5s92.5 84.833 151.5 110.5s124.167 38.5 195.5 38.5c72 0 137.5 -12.833 196.5 -38.5s109.5 -62.5 151.5 -110.5s74.5 -106.167 97.5 -174.5s34.5 -144.833 34.5 -229.5s-11.5 -161 -34.5 -229
s-55.5 -126 -97.5 -174s-92.5 -84.833 -151.5 -110.5s-124.5 -38.5 -196.5 -38.5zM544 56c60.667 0 115.667 11.168 165 33.501s91.5 54.5 126.5 96.5s62 92.667 81 152s28.5 126 28.5 200c0 74.667 -9.5 141.667 -28.5 201s-46 109.833 -81 151.5s-77.167 73.667 -126.5 96
s-104.333 33.5 -165 33.5s-115.667 -11.167 -165 -33.5s-91.5 -54.333 -126.5 -96s-62 -92.167 -81 -151.5s-28.5 -126.333 -28.5 -201c0 -74 9.5 -140.833 28.5 -200.5s46 -110.334 81 -152.001s77.167 -73.667 126.5 -96s104.333 -33.5 165 -33.5z" />
    <glyph glyph-name="divide" unicode="&#xf7;" horiz-adv-x="1192" 
d="M597 832c-23.333 0 -43 8 -59 24s-24 35.667 -24 59s8 42.833 24 58.5s35.667 23.5 59 23.5s42.833 -7.83301 58.5 -23.5s23.5 -35.167 23.5 -58.5s-7.83301 -43 -23.5 -59s-35.167 -24 -58.5 -24zM597 138c-23.333 0 -43 7.83301 -59 23.5s-24 35.167 -24 58.5
s8 43 24 59s35.667 24 59 24s42.833 -8 58.5 -24s23.5 -35.667 23.5 -59s-7.83301 -42.833 -23.5 -58.5s-35.167 -23.5 -58.5 -23.5zM106 541v69h980v-69h-980z" />
    <glyph glyph-name="oslash" unicode="&#xf8;" horiz-adv-x="1089" 
d="M309 131c65.333 -50 143.668 -75 235.001 -75c60.667 0 115.667 11.167 165 33.5s91.5 54.5 126.5 96.5s62 92.667 81 152s28.5 126 28.5 200c0 72.667 -8.83301 137.667 -26.5 195s-42.834 107 -75.501 149zM800.002 927c-34 30 -72.333 53 -115 69s-89.667 24 -141 24
c-60.667 0 -115.667 -11.167 -165 -33.5s-91.5 -54.333 -126.5 -96s-62 -92.167 -81 -151.5s-28.5 -126.333 -28.5 -201c0 -78 10.5 -147.667 31.5 -209s50.5 -113 88.5 -155zM888.002 946c43.333 -48 76.835 -106.333 100.502 -175s35.5 -146.334 35.5 -233.001
c0 -84.667 -11.5 -161 -34.5 -229s-55.5 -126 -97.5 -174s-92.5 -84.833 -151.5 -110.5s-124.5 -38.5 -196.5 -38.5c-54 0 -104.167 7.16699 -150.5 21.5s-88.5 35.5 -126.5 63.5l-110 -154l-53 35l114 160c-48.667 48 -86.334 108 -113.001 180s-40 154 -40 246
c0 84.667 11.5 161.167 34.5 229.5s55.5 126.5 97.5 174.5s92.5 84.833 151.5 110.5s124.167 38.5 195.5 38.5c59.333 0 114.166 -8.66699 164.499 -26s95.5 -42.666 135.5 -75.999l102 143l51 -33z" />
    <glyph glyph-name="ugrave" unicode="&#xf9;" horiz-adv-x="1080" 
d="M514 1252l-249 303h93l230 -303h-74zM960 0l-71.998 -0.000976562v235h-3c-12 -36 -30.167 -69.333 -54.5 -100s-53.333 -57 -87 -79s-70.834 -39.167 -111.501 -51.5s-83.334 -18.5 -128.001 -18.5c-58 0 -111 9.16699 -159 27.5s-89.167 44.5 -123.5 78.5
s-61 75.167 -80 123.5s-28.5 102.5 -28.5 162.5v699h78v-687c0 -53.333 7.83301 -100.666 23.5 -141.999s37.834 -76.166 66.501 -104.499s63.334 -50 104.001 -65s85.667 -22.5 135 -22.5c51.333 0 99.166 8.83301 143.499 26.5s82.666 43 114.999 76
s57.833 72.667 76.5 119s28 98.166 28 155.499v644h77v-1077z" />
    <glyph glyph-name="uacute" unicode="&#xfa;" horiz-adv-x="1080" 
d="M483 1252l230 303h93l-249 -303h-74zM960 0l-71.998 -0.000976562v235h-3c-12 -36 -30.167 -69.333 -54.5 -100s-53.333 -57 -87 -79s-70.834 -39.167 -111.501 -51.5s-83.334 -18.5 -128.001 -18.5c-58 0 -111 9.16699 -159 27.5s-89.167 44.5 -123.5 78.5
s-61 75.167 -80 123.5s-28.5 102.5 -28.5 162.5v699h78v-687c0 -53.333 7.83301 -100.666 23.5 -141.999s37.834 -76.166 66.501 -104.499s63.334 -50 104.001 -65s85.667 -22.5 135 -22.5c51.333 0 99.166 8.83301 143.499 26.5s82.666 43 114.999 76
s57.833 72.667 76.5 119s28 98.166 28 155.499v644h77v-1077z" />
    <glyph glyph-name="ucircumflex" unicode="&#xfb;" horiz-adv-x="1080" 
d="M836 1252h-80l-217 249h-3l-217 -249h-81l268 303h62zM960 0l-71.998 -0.000976562v235h-3c-12 -36 -30.167 -69.333 -54.5 -100s-53.333 -57 -87 -79s-70.834 -39.167 -111.501 -51.5s-83.334 -18.5 -128.001 -18.5c-58 0 -111 9.16699 -159 27.5
s-89.167 44.5 -123.5 78.5s-61 75.167 -80 123.5s-28.5 102.5 -28.5 162.5v699h78v-687c0 -53.333 7.83301 -100.666 23.5 -141.999s37.834 -76.166 66.501 -104.499s63.334 -50 104.001 -65s85.667 -22.5 135 -22.5c51.333 0 99.166 8.83301 143.499 26.5
s82.666 43 114.999 76s57.833 72.667 76.5 119s28 98.166 28 155.499v644h77v-1077z" />
    <glyph glyph-name="udieresis" unicode="&#xfc;" horiz-adv-x="1080" 
d="M960 0l-71.998 -0.000976562v235h-3c-12 -36 -30.167 -69.333 -54.5 -100s-53.333 -57 -87 -79s-70.834 -39.167 -111.501 -51.5s-83.334 -18.5 -128.001 -18.5c-58 0 -111 9.16699 -159 27.5s-89.167 44.5 -123.5 78.5s-61 75.167 -80 123.5s-28.5 102.5 -28.5 162.5
v699h78v-687c0 -53.333 7.83301 -100.666 23.5 -141.999s37.834 -76.166 66.501 -104.499s63.334 -50 104.001 -65s85.667 -22.5 135 -22.5c51.333 0 99.166 8.83301 143.499 26.5s82.666 43 114.999 76s57.833 72.667 76.5 119s28 98.166 28 155.499v644h77v-1077z
M385.002 1255c-18.667 0 -34.667 6.5 -48 19.5s-20 28.833 -20 47.5c0 18 6.66699 33.5 20 46.5s29.333 19.5 48 19.5c18 0 33.667 -6.5 47 -19.5s20 -28.5 20 -46.5c0 -18.667 -6.66699 -34.5 -20 -47.5s-29 -19.5 -47 -19.5zM689.002 1255c-18 0 -33.667 6.5 -47 19.5
s-20 28.833 -20 47.5c0 18 6.66699 33.5 20 46.5s29 19.5 47 19.5c18.667 0 34.667 -6.5 48 -19.5s20 -28.5 20 -46.5c0 -18.667 -6.66699 -34.5 -20 -47.5s-29.333 -19.5 -48 -19.5z" />
    <glyph glyph-name="yacute" unicode="&#xfd;" horiz-adv-x="919" 
d="M186 -354c-10 0 -20.168 1.16797 -30.501 3.50098s-18.166 4.16602 -23.499 5.49902v69c6 -2 14.333 -3.83301 25 -5.5s21 -2.5 31 -2.5c24 0 45.667 3.66699 65 11s37 18.833 53 34.5s30.833 36.167 44.5 61.5s27.5 56 41.5 92l27 70l-412 1092h83l369 -1001h2l369 1001
h82l-417 -1111c-24 -64.667 -46.5 -117.667 -67.5 -159s-43 -74 -66 -98s-48.5 -40.5 -76.5 -49.5s-61 -13.5 -99 -13.5zM405.999 1252l230 303h93l-249 -303h-74z" />
    <glyph glyph-name="thorn" unicode="&#xfe;" horiz-adv-x="1129" 
d="M610 1093c67.333 0 128.833 -13.332 184.5 -39.999s103.5 -64.334 143.5 -113.001s71 -107.167 93 -175.5s33 -143.833 33 -226.5s-11 -158 -33 -226s-53 -126.333 -93 -175s-87.833 -86.5 -143.5 -113.5s-117.167 -40.5 -184.5 -40.5c-46 0 -89.667 6.5 -131 19.5
s-79.166 31.5 -113.499 55.5s-64.5 53.167 -90.5 87.5s-46.667 72.833 -62 115.5h-7v-646h-77v1868h74v-680h7c15.333 44 36.166 84 62.499 120s56.666 66.5 90.999 91.5s72.333 44.333 114 58s85.834 20.5 132.501 20.5zM598 54.001c58 0 110.834 11.5 158.501 34.5
s88.334 55.667 122.001 98s59.834 93.333 78.501 153s28 125.834 28 198.501s-9.33301 138.667 -28 198s-44.834 110.333 -78.501 153s-74.167 75.667 -121.5 99s-100 35 -158 35c-58.667 0 -112.167 -11.833 -160.5 -35.5s-89.833 -56.834 -124.5 -99.501
s-61.5 -93.667 -80.5 -153s-28.5 -125 -28.5 -197c0 -71.333 9.66699 -136.666 29 -195.999s46.166 -110.333 80.499 -153s75.666 -75.834 123.999 -99.501s101.5 -35.5 159.5 -35.5z" />
    <glyph glyph-name="ydieresis" unicode="&#xff;" horiz-adv-x="919" 
d="M186 -354c-10 0 -20.168 1.16797 -30.501 3.50098s-18.166 4.16602 -23.499 5.49902v69c6 -2 14.333 -3.83301 25 -5.5s21 -2.5 31 -2.5c24 0 45.667 3.66699 65 11s37 18.833 53 34.5s30.833 36.167 44.5 61.5s27.5 56 41.5 92l27 70l-412 1092h83l369 -1001h2l369 1001
h82l-417 -1111c-24 -64.667 -46.5 -117.667 -67.5 -159s-43 -74 -66 -98s-48.5 -40.5 -76.5 -49.5s-61 -13.5 -99 -13.5zM307.999 1255c-18.667 0 -34.667 6.5 -48 19.5s-20 28.833 -20 47.5c0 18 6.66699 33.5 20 46.5s29.333 19.5 48 19.5c18 0 33.667 -6.5 47 -19.5
s20 -28.5 20 -46.5c0 -18.667 -6.66699 -34.5 -20 -47.5s-29 -19.5 -47 -19.5zM611.999 1255c-18 0 -33.667 6.5 -47 19.5s-20 28.833 -20 47.5c0 18 6.66699 33.5 20 46.5s29 19.5 47 19.5c18.667 0 34.667 -6.5 48 -19.5s20 -28.5 20 -46.5
c0 -18.667 -6.66699 -34.5 -20 -47.5s-29.333 -19.5 -48 -19.5z" />
    <glyph glyph-name="Amacron" unicode="&#x100;" horiz-adv-x="1221" 
d="M935 481h-649l-179 -481h-86l550 1443h80l549 -1443h-85zM312 552h598l-297 788h-5zM901 1622h-580v57h580v-57z" />
    <glyph glyph-name="amacron" unicode="&#x101;" horiz-adv-x="1030" 
d="M453 55c54 0 104.5 9.00098 151.5 27.001s88 42.5 123 73.5s62.5 67.333 82.5 109s30 86.5 30 134.5v161l-359 -27c-103.333 -7.33301 -182 -31.5 -236 -72.5s-81 -97.833 -81 -170.5c0 -34 7.16699 -65.5 21.5 -94.5s34.333 -53.833 60 -74.5
s56.167 -36.834 91.5 -48.501s74 -17.5 116 -17.5zM443 -13.999c-52.667 0 -100.836 7.33203 -144.503 21.999s-81.334 35.5 -113.001 62.5s-56.167 59 -73.5 96s-26 78.167 -26 123.5c0 92.667 32.333 164.834 97 216.501s160.667 82.167 288 91.5l369 27v96
c0 46.667 -7 88.667 -21 126s-34.167 68.666 -60.5 93.999s-58.5 44.833 -96.5 58.5s-81.333 20.5 -130 20.5c-92 0 -166.667 -22.167 -224 -66.5s-92.666 -107.5 -105.999 -189.5h-75c4.66699 50 17.834 95 39.501 135s50.167 74.333 85.5 103s76.833 50.667 124.5 66
s99.834 23 156.501 23c58.667 0 111.834 -8.5 159.501 -25.5s88 -41.167 121 -72.5s58.5 -69.666 76.5 -114.999s27 -96 27 -152v-726h-75v232h-2c-13.333 -36.667 -32.833 -70 -58.5 -100s-56 -55.833 -91 -77.5s-73.5 -38.5 -115.5 -50.5s-86 -18 -132 -18zM824.998 1308
h-596v58h596v-58z" />
    <glyph glyph-name="Abreve" unicode="&#x102;" horiz-adv-x="1221" 
d="M935 481h-649l-179 -481h-86l550 1443h80l549 -1443h-85zM312 552h598l-297 788h-5zM403 1789c0 -25.333 5.00098 -49 15.001 -71s24.167 -41 42.5 -57s40.166 -28.667 65.499 -38s53.666 -14 84.999 -14c30.667 0 58.834 4.66699 84.501 14s47.667 22 66 38
s32.5 35 42.5 57s15 45.667 15 71h61c0 -36 -6.66699 -68.5 -20 -97.5s-32 -53.833 -56 -74.5s-52.5 -36.5 -85.5 -47.5s-68.833 -16.5 -107.5 -16.5c-39.333 0 -75.333 5.5 -108 16.5s-61 26.833 -85 47.5s-42.667 45.5 -56 74.5s-20 61.5 -20 97.5h61z" />
    <glyph glyph-name="abreve" unicode="&#x103;" horiz-adv-x="1030" 
d="M453 55c54 0 104.5 9.00098 151.5 27.001s88 42.5 123 73.5s62.5 67.333 82.5 109s30 86.5 30 134.5v161l-359 -27c-103.333 -7.33301 -182 -31.5 -236 -72.5s-81 -97.833 -81 -170.5c0 -34 7.16699 -65.5 21.5 -94.5s34.333 -53.833 60 -74.5
s56.167 -36.834 91.5 -48.501s74 -17.5 116 -17.5zM443 -13.999c-52.667 0 -100.836 7.33203 -144.503 21.999s-81.334 35.5 -113.001 62.5s-56.167 59 -73.5 96s-26 78.167 -26 123.5c0 92.667 32.333 164.834 97 216.501s160.667 82.167 288 91.5l369 27v96
c0 46.667 -7 88.667 -21 126s-34.167 68.666 -60.5 93.999s-58.5 44.833 -96.5 58.5s-81.333 20.5 -130 20.5c-92 0 -166.667 -22.167 -224 -66.5s-92.666 -107.5 -105.999 -189.5h-75c4.66699 50 17.834 95 39.501 135s50.167 74.333 85.5 103s76.833 50.667 124.5 66
s99.834 23 156.501 23c58.667 0 111.834 -8.5 159.501 -25.5s88 -41.167 121 -72.5s58.5 -69.666 76.5 -114.999s27 -96 27 -152v-726h-75v232h-2c-13.333 -36.667 -32.833 -70 -58.5 -100s-56 -55.833 -91 -77.5s-73.5 -38.5 -115.5 -50.5s-86 -18 -132 -18zM321.998 1503
c0 -29.333 4.99609 -56 14.9961 -80s24.333 -44.667 43 -62s40.834 -30.666 66.501 -39.999s54.167 -14 85.5 -14s59.833 4.66699 85.5 14s47.834 22.666 66.501 39.999s33 38 43 62s15 50.667 15 80h62c0 -40 -6.83301 -75.667 -20.5 -107s-32.5 -57.833 -56.5 -79.5
s-52.667 -38.167 -86 -49.5s-69.666 -17 -108.999 -17s-75.666 5.66699 -108.999 17s-62 27.833 -86 49.5s-42.833 48.167 -56.5 79.5s-20.5 67 -20.5 107h62z" />
    <glyph glyph-name="Aogonek" unicode="&#x104;" horiz-adv-x="1221" 
d="M1160 -412c-29.333 0 -56.3301 4.66797 -80.9971 14.001s-45.834 22.5 -63.501 39.5s-31.334 37.167 -41.001 60.5s-14.5 49 -14.5 77c0 89.333 50.333 167.666 151 234.999l-176 467h-649l-179 -481h-86l550 1443h80l548 -1441c-109.333 -58 -164 -129.333 -164 -214
c0 -20 3.5 -38.167 10.5 -54.5s16.833 -30.333 29.5 -42s27.667 -20.834 45 -27.501s36.666 -10 57.999 -10h11.5c5 0 8.5 0.333008 10.5 1v-64c-4 -1.33301 -10.333 -2.16602 -19 -2.49902s-15.667 -0.5 -21 -0.5zM312.003 552.001h598l-296 784h-7z" />
    <glyph glyph-name="aogonek" unicode="&#x105;" horiz-adv-x="1030" 
d="M878 -412c-29.333 0 -56.1689 4.66699 -80.502 14s-45.166 22.166 -62.499 38.499s-30.833 36.166 -40.5 59.499s-14.5 49 -14.5 77c0 46.667 13.167 89.5 39.5 128.5s67.166 76.167 122.499 111.5v215h-2c-13.333 -36.667 -32.833 -70 -58.5 -100s-56 -55.833 -91 -77.5
s-73.5 -38.5 -115.5 -50.5s-86 -18 -132 -18c-52.667 0 -100.834 7.33301 -144.501 22s-81.334 35.5 -113.001 62.5s-56.167 59 -73.5 96s-26 78.167 -26 123.5c0 92.667 32.333 164.834 97 216.501s160.667 82.167 288 91.5l369 27v96c0 46.667 -7 88.667 -21 126
s-34.167 68.666 -60.5 93.999s-58.5 44.833 -96.5 58.5s-81.333 20.5 -130 20.5c-92 0 -166.667 -22.167 -224 -66.5s-92.666 -107.5 -105.999 -189.5h-75c4.66699 50 17.834 95 39.501 135s50.167 74.333 85.5 103s76.833 50.667 124.5 66s99.834 23 156.501 23
c58.667 0 111.834 -8.5 159.501 -25.5s88 -41.167 121 -72.5s58.5 -69.666 76.5 -114.999s27 -96 27 -152v-724c-58 -34.667 -99.667 -68.5 -125 -101.5s-38 -70.5 -38 -112.5c0 -40 13.167 -72.333 39.5 -97s60.5 -37 102.5 -37h11.5c5 0 8.16699 0.333008 9.5 1v-64
c-3.33301 -1.33301 -9.33301 -2.16602 -18 -2.49902s-15.667 -0.5 -21 -0.5zM452.997 55c54 0 104.5 9.00098 151.5 27.001s88 42.5 123 73.5s62.5 67.333 82.5 109s30 86.5 30 134.5v161l-359 -27c-103.333 -7.33301 -182 -31.5 -236 -72.5s-81 -97.833 -81 -170.5
c0 -34 7.16699 -65.5 21.5 -94.5s34.333 -53.833 60 -74.5s56.167 -36.834 91.5 -48.501s74 -17.5 116 -17.5z" />
    <glyph glyph-name="Cacute" unicode="&#x106;" horiz-adv-x="1326" 
d="M656 1554l279 290h96l-297 -290h-78zM702 -21c-96.667 0 -184.164 17.6641 -262.497 52.9971s-145 85.5 -200 150.5s-97.5 143.833 -127.5 236.5s-45 196.334 -45 311.001c0 112 14.833 213.333 44.5 304s72.167 167.834 127.5 231.501s122 112.667 200 147
s165.667 51.5 263 51.5c73.333 0 142.666 -12.333 207.999 -37s123.333 -58.5 174 -101.5s92.334 -94 125.001 -153s52.667 -122.833 60 -191.5h-79c-8 58 -26.167 112 -54.5 162s-64.333 93.167 -108 129.5s-93.334 65 -149.001 86s-114.5 31.5 -176.5 31.5
c-84.667 0 -161.167 -15.333 -229.5 -46s-126.5 -74.667 -174.5 -132s-85 -126.666 -111 -207.999s-39 -172.666 -39 -273.999c0 -104 13.167 -197.667 39.5 -281s63.5 -154.333 111.5 -213s106.167 -103.834 174.5 -135.501s144.5 -47.5 228.5 -47.5c63.333 0 123 9 179 27
s105.5 43.833 148.5 77.5s78.5 74 106.5 121s46 99.5 54 157.5h79c-8 -68.667 -27.833 -131 -59.5 -187s-72.334 -104 -122.001 -144s-107.334 -71 -173.001 -93s-136.5 -33 -212.5 -33z" />
    <glyph glyph-name="cacute" unicode="&#x107;" horiz-adv-x="1028" 
d="M892 753c-8 38.667 -21.9951 74.3291 -41.9951 106.996s-45.333 60.834 -76 84.501s-65.834 42.167 -105.501 55.5s-82.834 20 -129.501 20c-60.667 0 -115.334 -11.333 -164.001 -34s-90.167 -55 -124.5 -97s-60.833 -92.667 -79.5 -152s-28 -125.666 -28 -198.999
c0 -74 9.33301 -140.667 28 -200s45.167 -109.833 79.5 -151.5s76 -73.834 125 -96.501s103.833 -34 164.5 -34c46 0 88.667 6.16699 128 18.5s74.166 29.833 104.499 52.5s55.666 50 75.999 82s34.5 67.333 42.5 106h78c-8 -48.667 -24.167 -93.167 -48.5 -133.5
s-55.166 -75 -92.499 -104s-80.5 -51.5 -129.5 -67.5s-101.833 -24 -158.5 -24c-72 0 -137.333 12.833 -196 38.5s-108.667 62.5 -150 110.5s-73.166 106 -95.499 174s-33.5 144.333 -33.5 229c0 84 11.167 160.167 33.5 228.5s54.166 126.5 95.499 174.5
s91.166 85 149.499 111s123.5 39 195.5 39c58 0 111.5 -8.66699 160.5 -26s92.167 -41.166 129.5 -71.499s68 -66.166 92 -107.499s40 -85.666 48 -132.999h-77zM485.005 1253l230 303h93l-249 -303h-74z" />
    <glyph glyph-name="Ccircumflex" unicode="&#x108;" horiz-adv-x="1326" 
d="M702 -21c-96.667 0 -184.164 17.6641 -262.497 52.9971s-145 85.5 -200 150.5s-97.5 143.833 -127.5 236.5s-45 196.334 -45 311.001c0 112 14.833 213.333 44.5 304s72.167 167.834 127.5 231.501s122 112.667 200 147s165.667 51.5 263 51.5
c73.333 0 142.666 -12.333 207.999 -37s123.333 -58.5 174 -101.5s92.334 -94 125.001 -153s52.667 -122.833 60 -191.5h-79c-8 58 -26.167 112 -54.5 162s-64.333 93.167 -108 129.5s-93.334 65 -149.001 86s-114.5 31.5 -176.5 31.5
c-84.667 0 -161.167 -15.333 -229.5 -46s-126.5 -74.667 -174.5 -132s-85 -126.666 -111 -207.999s-39 -172.666 -39 -273.999c0 -104 13.167 -197.667 39.5 -281s63.5 -154.333 111.5 -213s106.167 -103.834 174.5 -135.501s144.5 -47.5 228.5 -47.5c63.333 0 123 9 179 27
s105.5 43.833 148.5 77.5s78.5 74 106.5 121s46 99.5 54 157.5h79c-8 -68.667 -27.833 -131 -59.5 -187s-72.334 -104 -122.001 -144s-107.334 -71 -173.001 -93s-136.5 -33 -212.5 -33zM736.003 1844l271 -290h-83l-221 238h-2l-221 -238h-83l271 290h68z" />
    <glyph glyph-name="ccircumflex" unicode="&#x109;" horiz-adv-x="1028" 
d="M838 1253h-80l-217 249h-3l-217 -249h-81l268 303h62zM892 753c-8 38.667 -21.9951 74.3291 -41.9951 106.996s-45.333 60.834 -76 84.501s-65.834 42.167 -105.501 55.5s-82.834 20 -129.501 20c-60.667 0 -115.334 -11.333 -164.001 -34s-90.167 -55 -124.5 -97
s-60.833 -92.667 -79.5 -152s-28 -125.666 -28 -198.999c0 -74 9.33301 -140.667 28 -200s45.167 -109.833 79.5 -151.5s76 -73.834 125 -96.501s103.833 -34 164.5 -34c46 0 88.667 6.16699 128 18.5s74.166 29.833 104.499 52.5s55.666 50 75.999 82s34.5 67.333 42.5 106
h78c-8 -48.667 -24.167 -93.167 -48.5 -133.5s-55.166 -75 -92.499 -104s-80.5 -51.5 -129.5 -67.5s-101.833 -24 -158.5 -24c-72 0 -137.333 12.833 -196 38.5s-108.667 62.5 -150 110.5s-73.166 106 -95.499 174s-33.5 144.333 -33.5 229c0 84 11.167 160.167 33.5 228.5
s54.166 126.5 95.499 174.5s91.166 85 149.499 111s123.5 39 195.5 39c58 0 111.5 -8.66699 160.5 -26s92.167 -41.166 129.5 -71.499s68 -66.166 92 -107.499s40 -85.666 48 -132.999h-77z" />
    <glyph glyph-name="Cdotaccent" unicode="&#x10a;" horiz-adv-x="1326" 
d="M702 1564c-21.333 0 -39.5 7.33301 -54.5 22s-22.5 32.667 -22.5 54s7.5 39.333 22.5 54s33.167 22 54.5 22s39.5 -7.33301 54.5 -22s22.5 -32.667 22.5 -54s-7.5 -39.333 -22.5 -54s-33.167 -22 -54.5 -22zM702 -21c-96.667 0 -184.164 17.6641 -262.497 52.9971
s-145 85.5 -200 150.5s-97.5 143.833 -127.5 236.5s-45 196.334 -45 311.001c0 112 14.833 213.333 44.5 304s72.167 167.834 127.5 231.501s122 112.667 200 147s165.667 51.5 263 51.5c73.333 0 142.666 -12.333 207.999 -37s123.333 -58.5 174 -101.5
s92.334 -94 125.001 -153s52.667 -122.833 60 -191.5h-79c-8 58 -26.167 112 -54.5 162s-64.333 93.167 -108 129.5s-93.334 65 -149.001 86s-114.5 31.5 -176.5 31.5c-84.667 0 -161.167 -15.333 -229.5 -46s-126.5 -74.667 -174.5 -132s-85 -126.666 -111 -207.999
s-39 -172.666 -39 -273.999c0 -104 13.167 -197.667 39.5 -281s63.5 -154.333 111.5 -213s106.167 -103.834 174.5 -135.501s144.5 -47.5 228.5 -47.5c63.333 0 123 9 179 27s105.5 43.833 148.5 77.5s78.5 74 106.5 121s46 99.5 54 157.5h79
c-8 -68.667 -27.833 -131 -59.5 -187s-72.334 -104 -122.001 -144s-107.334 -71 -173.001 -93s-136.5 -33 -212.5 -33z" />
    <glyph glyph-name="cdotaccent" unicode="&#x10b;" horiz-adv-x="1028" 
d="M892 753c-8 38.667 -21.9951 74.3291 -41.9951 106.996s-45.333 60.834 -76 84.501s-65.834 42.167 -105.501 55.5s-82.834 20 -129.501 20c-60.667 0 -115.334 -11.333 -164.001 -34s-90.167 -55 -124.5 -97s-60.833 -92.667 -79.5 -152s-28 -125.666 -28 -198.999
c0 -74 9.33301 -140.667 28 -200s45.167 -109.833 79.5 -151.5s76 -73.834 125 -96.501s103.833 -34 164.5 -34c46 0 88.667 6.16699 128 18.5s74.166 29.833 104.499 52.5s55.666 50 75.999 82s34.5 67.333 42.5 106h78c-8 -48.667 -24.167 -93.167 -48.5 -133.5
s-55.166 -75 -92.499 -104s-80.5 -51.5 -129.5 -67.5s-101.833 -24 -158.5 -24c-72 0 -137.333 12.833 -196 38.5s-108.667 62.5 -150 110.5s-73.166 106 -95.499 174s-33.5 144.333 -33.5 229c0 84 11.167 160.167 33.5 228.5s54.166 126.5 95.499 174.5
s91.166 85 149.499 111s123.5 39 195.5 39c58 0 111.5 -8.66699 160.5 -26s92.167 -41.166 129.5 -71.499s68 -66.166 92 -107.499s40 -85.666 48 -132.999h-77zM539.005 1256c-21.333 0 -39.666 7.5 -54.999 22.5s-23 33.167 -23 54.5s7.66699 39.5 23 54.5
s33.666 22.5 54.999 22.5s39.666 -7.5 54.999 -22.5s23 -33.167 23 -54.5s-7.66699 -39.5 -23 -54.5s-33.666 -22.5 -54.999 -22.5z" />
    <glyph glyph-name="Ccaron" unicode="&#x10c;" horiz-adv-x="1326" 
d="M702 -21c-96.667 0 -184.164 17.6641 -262.497 52.9971s-145 85.5 -200 150.5s-97.5 143.833 -127.5 236.5s-45 196.334 -45 311.001c0 112 14.833 213.333 44.5 304s72.167 167.834 127.5 231.501s122 112.667 200 147s165.667 51.5 263 51.5
c73.333 0 142.666 -12.333 207.999 -37s123.333 -58.5 174 -101.5s92.334 -94 125.001 -153s52.667 -122.833 60 -191.5h-79c-8 58 -26.167 112 -54.5 162s-64.333 93.167 -108 129.5s-93.334 65 -149.001 86s-114.5 31.5 -176.5 31.5
c-84.667 0 -161.167 -15.333 -229.5 -46s-126.5 -74.667 -174.5 -132s-85 -126.666 -111 -207.999s-39 -172.666 -39 -273.999c0 -104 13.167 -197.667 39.5 -281s63.5 -154.333 111.5 -213s106.167 -103.834 174.5 -135.501s144.5 -47.5 228.5 -47.5c63.333 0 123 9 179 27
s105.5 43.833 148.5 77.5s78.5 74 106.5 121s46 99.5 54 157.5h79c-8 -68.667 -27.833 -131 -59.5 -187s-72.334 -104 -122.001 -144s-107.334 -71 -173.001 -93s-136.5 -33 -212.5 -33zM397.003 1844h83l221 -239h2l221 239h83l-271 -290h-68z" />
    <glyph glyph-name="ccaron" unicode="&#x10d;" horiz-adv-x="1028" 
d="M508 1253l-268 303h81l217 -249h3l217 249h80l-268 -303h-62zM892 753c-8 38.667 -21.9951 74.3291 -41.9951 106.996s-45.333 60.834 -76 84.501s-65.834 42.167 -105.501 55.5s-82.834 20 -129.501 20c-60.667 0 -115.334 -11.333 -164.001 -34s-90.167 -55 -124.5 -97
s-60.833 -92.667 -79.5 -152s-28 -125.666 -28 -198.999c0 -74 9.33301 -140.667 28 -200s45.167 -109.833 79.5 -151.5s76 -73.834 125 -96.501s103.833 -34 164.5 -34c46 0 88.667 6.16699 128 18.5s74.166 29.833 104.499 52.5s55.666 50 75.999 82s34.5 67.333 42.5 106
h78c-8 -48.667 -24.167 -93.167 -48.5 -133.5s-55.166 -75 -92.499 -104s-80.5 -51.5 -129.5 -67.5s-101.833 -24 -158.5 -24c-72 0 -137.333 12.833 -196 38.5s-108.667 62.5 -150 110.5s-73.166 106 -95.499 174s-33.5 144.333 -33.5 229c0 84 11.167 160.167 33.5 228.5
s54.166 126.5 95.499 174.5s91.166 85 149.499 111s123.5 39 195.5 39c58 0 111.5 -8.66699 160.5 -26s92.167 -41.166 129.5 -71.499s68 -66.166 92 -107.499s40 -85.666 48 -132.999h-77z" />
    <glyph glyph-name="Dcaron" unicode="&#x10e;" horiz-adv-x="1332" 
d="M247 1843h83l221 -239h2l221 239h83l-271 -290h-68zM577 1443c109.333 0 206.666 -16.1689 291.999 -48.502s157.333 -79.166 216 -140.499s103.334 -136.666 134.001 -225.999s46 -191.333 46 -306s-15.333 -216.834 -46 -306.501s-75.334 -165.167 -134.001 -226.5
s-130.667 -108.166 -216 -140.499s-182.666 -48.5 -291.999 -48.5h-449v1443h449zM208 72.998h365c98 0 185 14.333 261 43s140 70.5 192 125.5s91.5 122.667 118.5 203s40.5 172.5 40.5 276.5s-13.5 196.333 -40.5 277s-66.5 148.5 -118.5 203.5s-116 96.833 -192 125.5
s-163 43 -261 43h-365v-1297z" />
    <glyph glyph-name="dcaron" unicode="&#x10f;" horiz-adv-x="1231" 
d="M1261 1483l-15 -385h-53v385h68zM525 -14c-67.333 0 -129.164 13.3291 -185.497 39.9961s-104.833 64.334 -145.5 113.001s-72.334 106.834 -95.001 174.501s-34 142.5 -34 224.5s11.333 157 34 225s54.167 126.333 94.5 175s88.666 86.334 144.999 113.001
s118.166 40 185.499 40c50 0 96.833 -7.66699 140.5 -23s83 -36.333 118 -63s64.833 -58.167 89.5 -94.5s43 -75.5 55 -117.5h2v713h78v-1506h-73v290h-3c-12.667 -43.333 -31.5 -83.666 -56.5 -120.999s-55 -69.5 -90 -96.5s-74.5 -48.167 -118.5 -63.5s-91 -23 -141 -23z
M534.002 1020c-57.333 0 -110 -11.6689 -158 -35.002s-89.167 -56 -123.5 -98s-61 -92.5 -80 -151.5s-28.5 -124.5 -28.5 -196.5s9.5 -137.667 28.5 -197s45.667 -110.166 80 -152.499s75.5 -75.166 123.5 -98.499s100.667 -35 158 -35c58 0 111.167 11.833 159.5 35.5
s90 56.667 125 99s62.333 93 82 152s29.5 124.167 29.5 195.5s-9.83301 136.5 -29.5 195.5s-47 109.833 -82 152.5s-76.667 75.667 -125 99s-101.5 35 -159.5 35z" />
    <glyph glyph-name="Dcroat" unicode="&#x110;" horiz-adv-x="1404" 
d="M624 73c98 0 185 14.333 261 43s140 70.5 192 125.5s91.5 122.667 118.5 203s40.5 172.5 40.5 276.5s-13.5 196.333 -40.5 277s-66.5 148.5 -118.5 203.5s-116 96.833 -192 125.5s-163 43 -261 43h-365v-592h358v-73h-358v-632h365zM628 1443
c109.333 0 206.666 -16.1689 291.999 -48.502s157.333 -79.166 216 -140.499s103.334 -136.666 134.001 -225.999s46 -191.333 46 -306s-15.333 -216.834 -46 -306.501s-75.334 -165.167 -134.001 -226.5s-130.667 -108.166 -216 -140.499s-182.666 -48.5 -291.999 -48.5
h-449v705h-115v73h115v665h449z" />
    <glyph glyph-name="dcroat" unicode="&#x111;" horiz-adv-x="1147" 
d="M542 54c58.667 0 112.167 11.833 160.5 35.5s89.833 56.667 124.5 99s61.5 93.166 80.5 152.499s28.5 125 28.5 197s-9.66699 137.667 -29 197s-46.333 110.333 -81 153s-76.167 75.834 -124.5 99.501s-101.5 35.5 -159.5 35.5s-111.167 -11.833 -159.5 -35.5
s-89.833 -56.667 -124.5 -99s-61.5 -93.333 -80.5 -153s-28.5 -125.5 -28.5 -197.5s9.5 -137.667 28.5 -197s45.833 -110.333 80.5 -153s76.167 -75.667 124.5 -99s101.5 -35 159.5 -35zM1123 1283l-110.998 0.000976562v-1283h-74v271h-7c-15.333 -44 -36 -83.667 -62 -119
s-56.167 -65.5 -90.5 -90.5s-72.5 -44.333 -114.5 -58s-86.333 -20.5 -133 -20.5c-68 0 -130.333 13.5 -187 40.5s-105.334 64.833 -146.001 113.5s-72.167 107.167 -94.5 175.5s-33.5 143.5 -33.5 225.5s11.333 157 34 225s54.167 126.5 94.5 175.5s88.833 87 145.5 114
s119 40.5 187 40.5c46 0 89.667 -6.5 131 -19.5s79.166 -31.667 113.499 -56s64.5 -53.833 90.5 -88.5s46.667 -73.334 62 -116.001h7v470h-289v62h289v177h77v-177h111v-62z" />
    <glyph glyph-name="Emacron" unicode="&#x112;" horiz-adv-x="1068" 
d="M969 0h-841v1443h841v-73h-762v-594h726v-72h-726v-631h762v-73zM838 1622h-580v57h580v-57z" />
    <glyph glyph-name="emacron" unicode="&#x113;" horiz-adv-x="1062" 
d="M536 1021c-56 0 -107.33 -10.335 -153.997 -31.002s-87 -49.667 -121 -87s-61.167 -82.5 -81.5 -135.5s-31.833 -111.5 -34.5 -175.5h773c0 64 -9.33301 122.333 -28 175s-44.834 97.834 -78.501 135.501s-73.834 66.834 -120.501 87.501s-98.334 31 -155.001 31z
M984.003 300.998c-8.66699 -45.333 -25.333 -87.3291 -50 -125.996s-55.834 -72 -93.501 -100s-81.5 -49.833 -131.5 -65.5s-104.667 -23.5 -164 -23.5c-73.333 0 -139.5 12.5 -198.5 37.5s-109.333 61.167 -151 108.5s-73.834 105 -96.501 173s-34 145.333 -34 232
c0 83.333 11.333 159.166 34 227.499s54.5 126.666 95.5 174.999s90.5 85.666 148.5 111.999s122.667 39.5 194 39.5c69.333 0 132.333 -12.333 189 -37s105 -59.834 145 -105.501s71 -100.5 93 -164.5s33 -135 33 -213v-45h-853v-4c0 -73.333 9.66699 -138.833 29 -196.5
s46.5 -106.5 81.5 -146.5s77.167 -70.5 126.5 -91.5s104.333 -31.5 165 -31.5c49.333 0 94.333 6.16699 135 18.5s76.334 29.333 107.001 51s55.834 47.5 75.501 77.5s33.5 62.667 41.5 98h79zM830.004 1308h-596v58h596v-58z" />
    <glyph glyph-name="Ebreve" unicode="&#x114;" horiz-adv-x="1068" 
d="M969 0h-841v1443h841v-73h-762v-594h726v-72h-726v-631h762v-73zM340 1789c0 -25.333 5.00098 -49 15.001 -71s24.167 -41 42.5 -57s40.166 -28.667 65.499 -38s53.666 -14 84.999 -14c30.667 0 58.834 4.66699 84.501 14s47.667 22 66 38s32.5 35 42.5 57
s15 45.667 15 71h61c0 -36 -6.66699 -68.5 -20 -97.5s-32 -53.833 -56 -74.5s-52.5 -36.5 -85.5 -47.5s-68.833 -16.5 -107.5 -16.5c-39.333 0 -75.333 5.5 -108 16.5s-61 26.833 -85 47.5s-42.667 45.5 -56 74.5s-20 61.5 -20 97.5h61z" />
    <glyph glyph-name="ebreve" unicode="&#x115;" horiz-adv-x="1062" 
d="M536 1021c-56 0 -107.33 -10.335 -153.997 -31.002s-87 -49.667 -121 -87s-61.167 -82.5 -81.5 -135.5s-31.833 -111.5 -34.5 -175.5h773c0 64 -9.33301 122.333 -28 175s-44.834 97.834 -78.501 135.501s-73.834 66.834 -120.501 87.501s-98.334 31 -155.001 31z
M984.003 300.998c-8.66699 -45.333 -25.333 -87.3291 -50 -125.996s-55.834 -72 -93.501 -100s-81.5 -49.833 -131.5 -65.5s-104.667 -23.5 -164 -23.5c-73.333 0 -139.5 12.5 -198.5 37.5s-109.333 61.167 -151 108.5s-73.834 105 -96.501 173s-34 145.333 -34 232
c0 83.333 11.333 159.166 34 227.499s54.5 126.666 95.5 174.999s90.5 85.666 148.5 111.999s122.667 39.5 194 39.5c69.333 0 132.333 -12.333 189 -37s105 -59.834 145 -105.501s71 -100.5 93 -164.5s33 -135 33 -213v-45h-853v-4c0 -73.333 9.66699 -138.833 29 -196.5
s46.5 -106.5 81.5 -146.5s77.167 -70.5 126.5 -91.5s104.333 -31.5 165 -31.5c49.333 0 94.333 6.16699 135 18.5s76.334 29.333 107.001 51s55.834 47.5 75.501 77.5s33.5 62.667 41.5 98h79zM327.004 1503c0 -29.333 4.99609 -56 14.9961 -80s24.333 -44.667 43 -62
s40.834 -30.666 66.501 -39.999s54.167 -14 85.5 -14s59.833 4.66699 85.5 14s47.834 22.666 66.501 39.999s33 38 43 62s15 50.667 15 80h62c0 -40 -6.83301 -75.667 -20.5 -107s-32.5 -57.833 -56.5 -79.5s-52.667 -38.167 -86 -49.5s-69.666 -17 -108.999 -17
s-75.666 5.66699 -108.999 17s-62 27.833 -86 49.5s-42.833 48.167 -56.5 79.5s-20.5 67 -20.5 107h62z" />
    <glyph glyph-name="Edotaccent" unicode="&#x116;" horiz-adv-x="1068" 
d="M548 1563c-21.333 0 -39.5 7.33301 -54.5 22s-22.5 32.667 -22.5 54s7.5 39.333 22.5 54s33.167 22 54.5 22s39.5 -7.33301 54.5 -22s22.5 -32.667 22.5 -54s-7.5 -39.333 -22.5 -54s-33.167 -22 -54.5 -22zM969 0h-841v1443h841v-73h-762v-594h726v-72h-726v-631h762
v-73z" />
    <glyph glyph-name="edotaccent" unicode="&#x117;" horiz-adv-x="1062" 
d="M537 1256c-21.333 0 -39.666 7.5 -54.999 22.5s-23 33.167 -23 54.5s7.66699 39.5 23 54.5s33.666 22.5 54.999 22.5s39.666 -7.5 54.999 -22.5s23 -33.167 23 -54.5s-7.66699 -39.5 -23 -54.5s-33.666 -22.5 -54.999 -22.5zM536 1021
c-56 0 -107.33 -10.335 -153.997 -31.002s-87 -49.667 -121 -87s-61.167 -82.5 -81.5 -135.5s-31.833 -111.5 -34.5 -175.5h773c0 64 -9.33301 122.333 -28 175s-44.834 97.834 -78.501 135.501s-73.834 66.834 -120.501 87.501s-98.334 31 -155.001 31zM984.003 300.998
c-8.66699 -45.333 -25.333 -87.3291 -50 -125.996s-55.834 -72 -93.501 -100s-81.5 -49.833 -131.5 -65.5s-104.667 -23.5 -164 -23.5c-73.333 0 -139.5 12.5 -198.5 37.5s-109.333 61.167 -151 108.5s-73.834 105 -96.501 173s-34 145.333 -34 232
c0 83.333 11.333 159.166 34 227.499s54.5 126.666 95.5 174.999s90.5 85.666 148.5 111.999s122.667 39.5 194 39.5c69.333 0 132.333 -12.333 189 -37s105 -59.834 145 -105.501s71 -100.5 93 -164.5s33 -135 33 -213v-45h-853v-4c0 -73.333 9.66699 -138.833 29 -196.5
s46.5 -106.5 81.5 -146.5s77.167 -70.5 126.5 -91.5s104.333 -31.5 165 -31.5c49.333 0 94.333 6.16699 135 18.5s76.334 29.333 107.001 51s55.834 47.5 75.501 77.5s33.5 62.667 41.5 98h79z" />
    <glyph glyph-name="Eogonek" unicode="&#x118;" horiz-adv-x="1068" 
d="M128 0l0.000976562 1443h841v-73h-762v-594h726v-72h-726v-631h762v-62c-115.333 -62 -173 -136.333 -173 -223c0 -19.333 3.5 -37.166 10.5 -53.499s16.667 -30.5 29 -42.5s27.333 -21.333 45 -28s37.167 -10 58.5 -10c4.66699 0 10.334 0.166992 17.001 0.5
s11 0.833008 13 1.5v-62c-2.66699 -2 -9.5 -3.5 -20.5 -4.5s-20.167 -1.5 -27.5 -1.5c-30 0 -57.333 4.66699 -82 14s-45.834 22.333 -63.501 39s-31.334 36.667 -41.001 60s-14.5 49 -14.5 77c0 82.667 44.333 156.667 133 222h-725z" />
    <glyph glyph-name="eogonek" unicode="&#x119;" horiz-adv-x="1062" 
d="M727 -412c-28 0 -54.0029 5.00488 -78.0029 15.0049s-44.667 23.667 -62 41s-31 38 -41 62s-15 50 -15 78c0 39.333 10 76.333 30 111s49.333 67 88 97v3c-14 -3.33301 -29.5 -5.66602 -46.5 -6.99902s-36.167 -2 -57.5 -2c-74 0 -140.667 12.833 -200 38.5
s-109.666 62.167 -150.999 109.5s-73.166 105 -95.499 173s-33.5 144.667 -33.5 230c0 83.333 11.333 159.166 34 227.499s54.5 126.666 95.5 174.999s90.5 85.666 148.5 111.999s122.667 39.5 194 39.5c69.333 0 132.333 -12.333 189 -37s105 -59.834 145 -105.501
s71 -100.5 93 -164.5s33 -135 33 -213v-45h-853v-4c0 -72 9.33301 -136.833 28 -194.5s45.334 -106.5 80.001 -146.5s76.834 -70.833 126.501 -92.5s105.5 -32.5 167.5 -32.5c46.667 0 90 5.66699 130 17s75.5 27.666 106.5 48.999s57 47.166 78 77.499
s35.833 64.166 44.5 101.499h79c-10.667 -52 -31.667 -100.167 -63 -144.5s-73 -84.166 -125 -119.499c-67.333 -43.333 -116.166 -84.166 -146.499 -122.499s-45.5 -78.5 -45.5 -120.5c0 -20 3.5 -38.5 10.5 -55.5s16.667 -31.667 29 -44s27.166 -21.833 44.499 -28.5
s36.333 -10 57 -10c4.66699 0 10.167 0.166992 16.5 0.5s10.833 1.16602 13.5 2.49902v-65c-2.66699 -2 -9.33398 -3.5 -20.001 -4.5s-20 -1.5 -28 -1.5zM535.997 1021c-56 0 -107.166 -10.334 -153.499 -31.001s-86.666 -49.667 -120.999 -87s-61.666 -82.333 -81.999 -135
s-31.833 -111.334 -34.5 -176.001h773c0 64 -9.33301 122.333 -28 175s-44.834 97.834 -78.501 135.501s-73.834 66.834 -120.501 87.501s-98.334 31 -155.001 31z" />
    <glyph glyph-name="Ecaron" unicode="&#x11a;" horiz-adv-x="1068" 
d="M243 1843h83l221 -239h2l221 239h83l-271 -290h-68zM969 0h-841v1443h841v-73h-762v-594h726v-72h-726v-631h762v-73z" />
    <glyph glyph-name="ecaron" unicode="&#x11b;" horiz-adv-x="1062" 
d="M506 1253l-268 303h81l217 -249h3l217 249h80l-268 -303h-62zM536 1021c-56 0 -107.33 -10.335 -153.997 -31.002s-87 -49.667 -121 -87s-61.167 -82.5 -81.5 -135.5s-31.833 -111.5 -34.5 -175.5h773c0 64 -9.33301 122.333 -28 175s-44.834 97.834 -78.501 135.501
s-73.834 66.834 -120.501 87.501s-98.334 31 -155.001 31zM984.003 300.998c-8.66699 -45.333 -25.333 -87.3291 -50 -125.996s-55.834 -72 -93.501 -100s-81.5 -49.833 -131.5 -65.5s-104.667 -23.5 -164 -23.5c-73.333 0 -139.5 12.5 -198.5 37.5
s-109.333 61.167 -151 108.5s-73.834 105 -96.501 173s-34 145.333 -34 232c0 83.333 11.333 159.166 34 227.499s54.5 126.666 95.5 174.999s90.5 85.666 148.5 111.999s122.667 39.5 194 39.5c69.333 0 132.333 -12.333 189 -37s105 -59.834 145 -105.501
s71 -100.5 93 -164.5s33 -135 33 -213v-45h-853v-4c0 -73.333 9.66699 -138.833 29 -196.5s46.5 -106.5 81.5 -146.5s77.167 -70.5 126.5 -91.5s104.333 -31.5 165 -31.5c49.333 0 94.333 6.16699 135 18.5s76.334 29.333 107.001 51s55.834 47.5 75.501 77.5
s33.5 62.667 41.5 98h79z" />
    <glyph glyph-name="Gcircumflex" unicode="&#x11c;" horiz-adv-x="1358" 
d="M733 1843l271 -290h-83l-221 238h-2l-221 -238h-83l271 290h68zM1281 571c0 -92 -13.3311 -174.672 -39.998 -248.005s-65 -135.5 -115 -186.5s-111 -90 -183 -117s-153.333 -40.5 -244 -40.5c-94 0 -179.833 18.167 -257.5 54.5s-144.167 87.333 -199.5 153
s-98.333 144.667 -129 237s-46 194.5 -46 306.5c0 110.667 15.167 211.167 45.5 301.5s73 167.5 128 231.5s121.333 113.5 199 148.5s164.167 52.5 259.5 52.5c72.667 0 140.834 -10.5 204.501 -31.5s120.5 -50.667 170.5 -89s92.167 -84.333 126.5 -138
s58.166 -113.167 71.499 -178.5h-81c-14 55.333 -36.167 105.333 -66.5 150s-66.833 82.834 -109.5 114.501s-90.834 56 -144.501 73s-110.834 25.5 -171.501 25.5c-83.333 0 -159 -15.667 -227 -47s-126 -75.666 -174 -132.999s-85 -126.5 -111 -207.5
s-39 -171.5 -39 -271.5c0 -101.333 13.333 -193.666 40 -276.999s64.167 -154.666 112.5 -213.999s106.333 -105.333 174 -138s142.5 -49 224.5 -49c77.333 0 147 11.833 209 35.5s114.833 57.334 158.5 101.001s77.167 96.667 100.5 159s35 132.5 35 210.5v83h-503v72h582
v-143z" />
    <glyph glyph-name="gcircumflex" unicode="&#x11d;" horiz-adv-x="1119" 
d="M857 1253h-80l-217 249h-3l-217 -249h-81l268 303h62zM529 59c58 0 111.167 11.667 159.5 35s89.666 56.166 123.999 98.499s61.166 93 80.499 152s29 123.833 29 194.5s-9.66699 135.5 -29 194.5s-46.166 109.833 -80.499 152.5s-75.666 75.667 -123.999 99
s-101.5 35 -159.5 35c-57.333 0 -109.666 -11.667 -156.999 -35s-87.833 -56.166 -121.5 -98.499s-59.834 -93 -78.501 -152s-28 -124.167 -28 -195.5s9.33301 -136.5 28 -195.5s44.834 -109.5 78.501 -151.5s74.167 -74.667 121.5 -98s99.666 -35 156.999 -35zM545 -361
c-57.333 0 -110 6.00488 -158 18.0049s-90 28.833 -126 50.5s-65.5 47.667 -88.5 78s-38.167 64.166 -45.5 101.499h81c6.66699 -26 19.5 -50 38.5 -72s43.333 -41 73 -57s64 -28.333 103 -37s81.5 -13 127.5 -13c54.667 0 104.834 6.66699 150.501 20s85 32.666 118 57.999
s58.5 56.166 76.5 92.499s27 77.5 27 123.5v285h-2c-12 -42 -30.333 -81.333 -55 -118s-54.334 -68.334 -89.001 -95.001s-73.667 -47.667 -117 -63s-89.666 -23 -138.999 -23c-68 0 -129.833 13.333 -185.5 40s-103.5 64.167 -143.5 112.5s-71 106.333 -93 174
s-33 142.5 -33 224.5s11 157 33 225s53 126.167 93 174.5s88 85.833 144 112.5s118 40 186 40c49.333 0 95.666 -7.66699 138.999 -23s82.5 -36.5 117.5 -63.5s65 -59 90 -96s43.833 -76.833 56.5 -119.5h3v288h73v-1070c0 -58 -11.167 -109.833 -33.5 -155.5
s-53.5 -84.334 -93.5 -116.001s-87.833 -55.667 -143.5 -72s-117.167 -24.5 -184.5 -24.5z" />
    <glyph glyph-name="Gbreve" unicode="&#x11e;" horiz-adv-x="1358" 
d="M1281 571c0 -92 -13.3311 -174.672 -39.998 -248.005s-65 -135.5 -115 -186.5s-111 -90 -183 -117s-153.333 -40.5 -244 -40.5c-94 0 -179.833 18.167 -257.5 54.5s-144.167 87.333 -199.5 153s-98.333 144.667 -129 237s-46 194.5 -46 306.5
c0 110.667 15.167 211.167 45.5 301.5s73 167.5 128 231.5s121.333 113.5 199 148.5s164.167 52.5 259.5 52.5c72.667 0 140.834 -10.5 204.501 -31.5s120.5 -50.667 170.5 -89s92.167 -84.333 126.5 -138s58.166 -113.167 71.499 -178.5h-81
c-14 55.333 -36.167 105.333 -66.5 150s-66.833 82.834 -109.5 114.501s-90.834 56 -144.501 73s-110.834 25.5 -171.501 25.5c-83.333 0 -159 -15.667 -227 -47s-126 -75.666 -174 -132.999s-85 -126.5 -111 -207.5s-39 -171.5 -39 -271.5
c0 -101.333 13.333 -193.666 40 -276.999s64.167 -154.666 112.5 -213.999s106.333 -105.333 174 -138s142.5 -49 224.5 -49c77.333 0 147 11.833 209 35.5s114.833 57.334 158.5 101.001s77.167 96.667 100.5 159s35 132.5 35 210.5v83h-503v72h582v-143zM491.002 1789
c0 -25.333 5.00098 -49 15.001 -71s24.167 -41 42.5 -57s40.166 -28.667 65.499 -38s53.666 -14 84.999 -14c30.667 0 58.834 4.66699 84.501 14s47.667 22 66 38s32.5 35 42.5 57s15 45.667 15 71h61c0 -36 -6.66699 -68.5 -20 -97.5s-32 -53.833 -56 -74.5
s-52.5 -36.5 -85.5 -47.5s-68.833 -16.5 -107.5 -16.5c-39.333 0 -75.333 5.5 -108 16.5s-61 26.833 -85 47.5s-42.667 45.5 -56 74.5s-20 61.5 -20 97.5h61z" />
    <glyph glyph-name="gbreve" unicode="&#x11f;" horiz-adv-x="1119" 
d="M348 1503c0 -29.333 4.99609 -56 14.9961 -80s24.333 -44.667 43 -62s40.834 -30.666 66.501 -39.999s54.167 -14 85.5 -14s59.833 4.66699 85.5 14s47.834 22.666 66.501 39.999s33 38 43 62s15 50.667 15 80h62c0 -40 -6.83301 -75.667 -20.5 -107
s-32.5 -57.833 -56.5 -79.5s-52.667 -38.167 -86 -49.5s-69.666 -17 -108.999 -17s-75.666 5.66699 -108.999 17s-62 27.833 -86 49.5s-42.833 48.167 -56.5 79.5s-20.5 67 -20.5 107h62zM528.996 59c58 0 111.167 11.667 159.5 35s89.666 56.166 123.999 98.499
s61.166 93 80.499 152s29 123.833 29 194.5s-9.66699 135.5 -29 194.5s-46.166 109.833 -80.499 152.5s-75.666 75.667 -123.999 99s-101.5 35 -159.5 35c-57.333 0 -109.666 -11.667 -156.999 -35s-87.833 -56.166 -121.5 -98.499s-59.834 -93 -78.501 -152
s-28 -124.167 -28 -195.5s9.33301 -136.5 28 -195.5s44.834 -109.5 78.501 -151.5s74.167 -74.667 121.5 -98s99.666 -35 156.999 -35zM544.996 -361c-57.333 0 -110 6.00488 -158 18.0049s-90 28.833 -126 50.5s-65.5 47.667 -88.5 78s-38.167 64.166 -45.5 101.499h81
c6.66699 -26 19.5 -50 38.5 -72s43.333 -41 73 -57s64 -28.333 103 -37s81.5 -13 127.5 -13c54.667 0 104.834 6.66699 150.501 20s85 32.666 118 57.999s58.5 56.166 76.5 92.499s27 77.5 27 123.5v285h-2c-12 -42 -30.333 -81.333 -55 -118
s-54.334 -68.334 -89.001 -95.001s-73.667 -47.667 -117 -63s-89.666 -23 -138.999 -23c-68 0 -129.833 13.333 -185.5 40s-103.5 64.167 -143.5 112.5s-71 106.333 -93 174s-33 142.5 -33 224.5s11 157 33 225s53 126.167 93 174.5s88 85.833 144 112.5s118 40 186 40
c49.333 0 95.666 -7.66699 138.999 -23s82.5 -36.5 117.5 -63.5s65 -59 90 -96s43.833 -76.833 56.5 -119.5h3v288h73v-1070c0 -58 -11.167 -109.833 -33.5 -155.5s-53.5 -84.334 -93.5 -116.001s-87.833 -55.667 -143.5 -72s-117.167 -24.5 -184.5 -24.5z" />
    <glyph glyph-name="Gdotaccent" unicode="&#x120;" horiz-adv-x="1358" 
d="M699 1563c-21.333 0 -39.5 7.33301 -54.5 22s-22.5 32.667 -22.5 54s7.5 39.333 22.5 54s33.167 22 54.5 22s39.5 -7.33301 54.5 -22s22.5 -32.667 22.5 -54s-7.5 -39.333 -22.5 -54s-33.167 -22 -54.5 -22zM1281 571c0 -92 -13.3311 -174.672 -39.998 -248.005
s-65 -135.5 -115 -186.5s-111 -90 -183 -117s-153.333 -40.5 -244 -40.5c-94 0 -179.833 18.167 -257.5 54.5s-144.167 87.333 -199.5 153s-98.333 144.667 -129 237s-46 194.5 -46 306.5c0 110.667 15.167 211.167 45.5 301.5s73 167.5 128 231.5s121.333 113.5 199 148.5
s164.167 52.5 259.5 52.5c72.667 0 140.834 -10.5 204.501 -31.5s120.5 -50.667 170.5 -89s92.167 -84.333 126.5 -138s58.166 -113.167 71.499 -178.5h-81c-14 55.333 -36.167 105.333 -66.5 150s-66.833 82.834 -109.5 114.501s-90.834 56 -144.501 73
s-110.834 25.5 -171.501 25.5c-83.333 0 -159 -15.667 -227 -47s-126 -75.666 -174 -132.999s-85 -126.5 -111 -207.5s-39 -171.5 -39 -271.5c0 -101.333 13.333 -193.666 40 -276.999s64.167 -154.666 112.5 -213.999s106.333 -105.333 174 -138s142.5 -49 224.5 -49
c77.333 0 147 11.833 209 35.5s114.833 57.334 158.5 101.001s77.167 96.667 100.5 159s35 132.5 35 210.5v83h-503v72h582v-143z" />
    <glyph glyph-name="gdotaccent" unicode="&#x121;" horiz-adv-x="1119" 
d="M558 1256c-21.333 0 -39.666 7.5 -54.999 22.5s-23 33.167 -23 54.5s7.66699 39.5 23 54.5s33.666 22.5 54.999 22.5s39.666 -7.5 54.999 -22.5s23 -33.167 23 -54.5s-7.66699 -39.5 -23 -54.5s-33.666 -22.5 -54.999 -22.5zM529 59c58 0 111.167 11.667 159.5 35
s89.666 56.166 123.999 98.499s61.166 93 80.499 152s29 123.833 29 194.5s-9.66699 135.5 -29 194.5s-46.166 109.833 -80.499 152.5s-75.666 75.667 -123.999 99s-101.5 35 -159.5 35c-57.333 0 -109.666 -11.667 -156.999 -35s-87.833 -56.166 -121.5 -98.499
s-59.834 -93 -78.501 -152s-28 -124.167 -28 -195.5s9.33301 -136.5 28 -195.5s44.834 -109.5 78.501 -151.5s74.167 -74.667 121.5 -98s99.666 -35 156.999 -35zM545 -361c-57.333 0 -110 6.00488 -158 18.0049s-90 28.833 -126 50.5s-65.5 47.667 -88.5 78
s-38.167 64.166 -45.5 101.499h81c6.66699 -26 19.5 -50 38.5 -72s43.333 -41 73 -57s64 -28.333 103 -37s81.5 -13 127.5 -13c54.667 0 104.834 6.66699 150.501 20s85 32.666 118 57.999s58.5 56.166 76.5 92.499s27 77.5 27 123.5v285h-2
c-12 -42 -30.333 -81.333 -55 -118s-54.334 -68.334 -89.001 -95.001s-73.667 -47.667 -117 -63s-89.666 -23 -138.999 -23c-68 0 -129.833 13.333 -185.5 40s-103.5 64.167 -143.5 112.5s-71 106.333 -93 174s-33 142.5 -33 224.5s11 157 33 225s53 126.167 93 174.5
s88 85.833 144 112.5s118 40 186 40c49.333 0 95.666 -7.66699 138.999 -23s82.5 -36.5 117.5 -63.5s65 -59 90 -96s43.833 -76.833 56.5 -119.5h3v288h73v-1070c0 -58 -11.167 -109.833 -33.5 -155.5s-53.5 -84.334 -93.5 -116.001s-87.833 -55.667 -143.5 -72
s-117.167 -24.5 -184.5 -24.5z" />
    <glyph glyph-name="Gcommaaccent" unicode="&#x122;" horiz-adv-x="1358" 
d="M579 -493l99 344h78l-114 -344h-63zM1281 571c0 -92 -13.3311 -174.672 -39.998 -248.005s-65 -135.5 -115 -186.5s-111 -90 -183 -117s-153.333 -40.5 -244 -40.5c-94 0 -179.833 18.167 -257.5 54.5s-144.167 87.333 -199.5 153s-98.333 144.667 -129 237
s-46 194.5 -46 306.5c0 110.667 15.167 211.167 45.5 301.5s73 167.5 128 231.5s121.333 113.5 199 148.5s164.167 52.5 259.5 52.5c72.667 0 140.834 -10.5 204.501 -31.5s120.5 -50.667 170.5 -89s92.167 -84.333 126.5 -138s58.166 -113.167 71.499 -178.5h-81
c-14 55.333 -36.167 105.333 -66.5 150s-66.833 82.834 -109.5 114.501s-90.834 56 -144.501 73s-110.834 25.5 -171.501 25.5c-83.333 0 -159 -15.667 -227 -47s-126 -75.666 -174 -132.999s-85 -126.5 -111 -207.5s-39 -171.5 -39 -271.5
c0 -101.333 13.333 -193.666 40 -276.999s64.167 -154.666 112.5 -213.999s106.333 -105.333 174 -138s142.5 -49 224.5 -49c77.333 0 147 11.833 209 35.5s114.833 57.334 158.5 101.001s77.167 96.667 100.5 159s35 132.5 35 210.5v83h-503v72h582v-143z" />
    <glyph glyph-name="gcommaaccent" unicode="&#x123;" horiz-adv-x="1119" 
d="M425 -849l99 344h78l-114 -344h-63zM529 59c58 0 111.167 11.667 159.5 35s89.666 56.166 123.999 98.499s61.166 93 80.499 152s29 123.833 29 194.5s-9.66699 135.5 -29 194.5s-46.166 109.833 -80.499 152.5s-75.666 75.667 -123.999 99s-101.5 35 -159.5 35
c-57.333 0 -109.666 -11.667 -156.999 -35s-87.833 -56.166 -121.5 -98.499s-59.834 -93 -78.501 -152s-28 -124.167 -28 -195.5s9.33301 -136.5 28 -195.5s44.834 -109.5 78.501 -151.5s74.167 -74.667 121.5 -98s99.666 -35 156.999 -35zM545 -361
c-57.333 0 -110 6.00488 -158 18.0049s-90 28.833 -126 50.5s-65.5 47.667 -88.5 78s-38.167 64.166 -45.5 101.499h81c6.66699 -26 19.5 -50 38.5 -72s43.333 -41 73 -57s64 -28.333 103 -37s81.5 -13 127.5 -13c54.667 0 104.834 6.66699 150.501 20s85 32.666 118 57.999
s58.5 56.166 76.5 92.499s27 77.5 27 123.5v285h-2c-12 -42 -30.333 -81.333 -55 -118s-54.334 -68.334 -89.001 -95.001s-73.667 -47.667 -117 -63s-89.666 -23 -138.999 -23c-68 0 -129.833 13.333 -185.5 40s-103.5 64.167 -143.5 112.5s-71 106.333 -93 174
s-33 142.5 -33 224.5s11 157 33 225s53 126.167 93 174.5s88 85.833 144 112.5s118 40 186 40c49.333 0 95.666 -7.66699 138.999 -23s82.5 -36.5 117.5 -63.5s65 -59 90 -96s43.833 -76.833 56.5 -119.5h3v288h73v-1070c0 -58 -11.167 -109.833 -33.5 -155.5
s-53.5 -84.334 -93.5 -116.001s-87.833 -55.667 -143.5 -72s-117.167 -24.5 -184.5 -24.5z" />
    <glyph glyph-name="Hcircumflex" unicode="&#x124;" horiz-adv-x="1327" 
d="M1120 0v705h-913v-705h-79v1443h79v-666h913v666h79v-1443h-79zM697 1843l271 -290h-83l-221 238h-2l-221 -238h-83l271 290h68z" />
    <glyph glyph-name="hcircumflex" unicode="&#x125;" horiz-adv-x="1095" 
d="M129 1506h77.999v-666h3c12.667 38 30.667 72.333 54 103s51.333 57 84 79s69 39 109 51s82.667 18 128 18c58.667 0 112.5 -9.5 161.5 -28.5s90.833 -45.667 125.5 -80s61.667 -76 81 -125s29 -103.5 29 -163.5v-694h-77v685c0 52 -8 98.667 -24 140
s-38.833 76.5 -68.5 105.5s-65.167 51.167 -106.5 66.5s-87 23 -137 23c-53.333 0 -102.166 -9.33301 -146.499 -28s-82.5 -44.667 -114.5 -78s-56.833 -73.5 -74.5 -120.5s-26.5 -98.5 -26.5 -154.5v-639h-78v1506zM201.999 1906l271 -290h-83l-221 238h-2l-221 -238h-83
l271 290h68z" />
    <glyph glyph-name="Hbar" unicode="&#x126;" horiz-adv-x="1386" 
d="M1150 1122h-913v-345h913v345zM1370 1122h-141v-1122h-79v705h-913v-705h-79v1122h-142v67h142v254h79v-254h913v254h79v-254h141v-67z" />
    <glyph glyph-name="hbar" unicode="&#x127;" horiz-adv-x="1164" 
d="M245 848c14 38 32.9961 72 56.9961 102s52 55.5 84 76.5s67.667 37 107 48s81 16.5 125 16.5c58.667 0 112.334 -9.16699 161.001 -27.5s90.5 -44.5 125.5 -78.5s62.333 -75 82 -123s29.5 -102 29.5 -162v-700h-77v686c0 51.333 -8.5 97.5 -25.5 138.5
s-40.5 76 -70.5 105s-65.5 51.333 -106.5 67s-85.5 23.5 -133.5 23.5c-51.333 0 -99.166 -9.16699 -143.499 -27.5s-82.666 -44.333 -114.999 -78s-57.666 -74 -75.999 -121s-27.5 -99.167 -27.5 -156.5v-637h-78v1272h-142v62h142v186h78v-186h289v-62h-289v-424h4z" />
    <glyph glyph-name="Itilde" unicode="&#x128;" horiz-adv-x="335" 
d="M128 0v1443h79v-1443h-79zM302 1549c-22 0 -41.4971 4 -58.4971 12s-32.667 18.167 -47 30.5s-27.666 25.5 -39.999 39.5s-24.833 27.167 -37.5 39.5s-25.834 22.5 -39.501 30.5s-28.834 12 -45.501 12c-32 0 -55.167 -14 -69.5 -42s-21.5 -65 -21.5 -111h-60
c0 32 3.16699 61 9.5 87s15.666 48.167 27.999 66.5s27.833 32.666 46.5 42.999s40.667 15.5 66 15.5c22 0 41.667 -4 59 -12s33.333 -18.167 48 -30.5s28.334 -25.5 41.001 -39.5s25.167 -27.167 37.5 -39.5s25.333 -22.5 39 -30.5s28.5 -12 44.5 -12
c32 0 54.833 14.167 68.5 42.5s20.5 65.5 20.5 111.5h61c0 -31.333 -3.16699 -60.166 -9.5 -86.499s-15.833 -48.833 -28.5 -67.5s-28.334 -33.167 -47.001 -43.5s-40.334 -15.5 -65.001 -15.5z" />
    <glyph glyph-name="itilde" unicode="&#x129;" horiz-adv-x="336" 
d="M129 1077h78v-1077h-78v1077zM303 1255c-22 0 -41.4971 4 -58.4971 12s-32.667 18.167 -47 30.5s-27.666 25.5 -39.999 39.5s-24.833 27.167 -37.5 39.5s-25.834 22.5 -39.501 30.5s-28.834 12 -45.501 12c-32 0 -55.167 -14 -69.5 -42s-21.5 -65 -21.5 -111h-60
c0 32 3.16699 61 9.5 87s15.666 48.167 27.999 66.5s27.833 32.666 46.5 42.999s40.667 15.5 66 15.5c22 0 41.667 -4 59 -12s33.333 -18.167 48 -30.5s28.334 -25.5 41.001 -39.5s25.167 -27.167 37.5 -39.5s25.333 -22.5 39 -30.5s28.5 -12 44.5 -12
c32 0 54.833 14.167 68.5 42.5s20.5 65.5 20.5 111.5h61c0 -31.333 -3.16699 -60.166 -9.5 -86.499s-15.833 -48.833 -28.5 -67.5s-28.334 -33.167 -47.001 -43.5s-40.334 -15.5 -65.001 -15.5z" />
    <glyph glyph-name="Imacron" unicode="&#x12a;" horiz-adv-x="335" 
d="M128 0v1443h79v-1443h-79zM457 1622h-580v57h580v-57z" />
    <glyph glyph-name="imacron" unicode="&#x12b;" horiz-adv-x="336" 
d="M129 1077h78v-1077h-78v1077zM461 1308h-596v58h596v-58z" />
    <glyph glyph-name="Ibreve" unicode="&#x12c;" horiz-adv-x="335" 
d="M128 0v1443h79v-1443h-79zM-41 1789c0 -25.333 5.00098 -49 15.001 -71s24.167 -41 42.5 -57s40.166 -28.667 65.499 -38s53.666 -14 84.999 -14c30.667 0 58.834 4.66699 84.501 14s47.667 22 66 38s32.5 35 42.5 57s15 45.667 15 71h61c0 -36 -6.66699 -68.5 -20 -97.5
s-32 -53.833 -56 -74.5s-52.5 -36.5 -85.5 -47.5s-68.833 -16.5 -107.5 -16.5c-39.333 0 -75.333 5.5 -108 16.5s-61 26.833 -85 47.5s-42.667 45.5 -56 74.5s-20 61.5 -20 97.5h61z" />
    <glyph glyph-name="ibreve" unicode="&#x12d;" horiz-adv-x="336" 
d="M129 1077h78v-1077h-78v1077zM-42 1503c0 -29.333 4.99609 -56 14.9961 -80s24.333 -44.667 43 -62s40.834 -30.666 66.501 -39.999s54.167 -14 85.5 -14s59.833 4.66699 85.5 14s47.834 22.666 66.501 39.999s33 38 43 62s15 50.667 15 80h62
c0 -40 -6.83301 -75.667 -20.5 -107s-32.5 -57.833 -56.5 -79.5s-52.667 -38.167 -86 -49.5s-69.666 -17 -108.999 -17s-75.666 5.66699 -108.999 17s-62 27.833 -86 49.5s-42.833 48.167 -56.5 79.5s-20.5 67 -20.5 107h62z" />
    <glyph glyph-name="Iogonek" unicode="&#x12e;" horiz-adv-x="335" 
d="M167 -412c-29.333 0 -56.1689 4.66797 -80.502 14.001s-45.166 22.166 -62.499 38.499s-30.833 36.166 -40.5 59.499s-14.5 49 -14.5 77c0 47.333 12.5 90.166 37.5 128.499s65.5 75.5 121.5 111.5v1426h79v-1443c-29.333 -17.333 -54.333 -34.166 -75 -50.499
s-37.667 -33 -51 -50s-23.166 -34.667 -29.499 -53s-9.5 -37.833 -9.5 -58.5c0 -40 13.167 -72.333 39.5 -97s60.5 -37 102.5 -37h11.5c5 0 8.5 0.333008 10.5 1v-64c-4 -1.33301 -10.5 -2.16602 -19.5 -2.49902s-15.5 -0.5 -19.5 -0.5z" />
    <glyph glyph-name="iogonek" unicode="&#x12f;" horiz-adv-x="336" 
d="M168 1341c-17.333 0 -32 5.83301 -44 17.5s-18 26.167 -18 43.5s6 32 18 44s26.667 18 44 18s32.166 -6 44.499 -18s18.5 -26.667 18.5 -44s-6.16699 -31.833 -18.5 -43.5s-27.166 -17.5 -44.499 -17.5zM168 -412c-29.333 0 -56.167 4.66797 -80.5 14.001
s-45.166 22.166 -62.499 38.499s-30.833 36.166 -40.5 59.499s-14.5 49 -14.5 77c0 47.333 13 90.333 39 129s66 75.667 120 111v1060h78v-1075c-58 -34.667 -99.833 -68.5 -125.5 -101.5s-38.5 -70.5 -38.5 -112.5c0 -40 13.167 -72.333 39.5 -97s60.5 -37 102.5 -37h11.5
c5 0 8.5 0.333008 10.5 1v-64c-4 -1.33301 -10.333 -2.16602 -19 -2.49902s-15.334 -0.5 -20.001 -0.5z" />
    <glyph glyph-name="Idotaccent" unicode="&#x130;" horiz-adv-x="335" 
d="M128 0v1443h79v-1443h-79zM167 1563c-21.333 0 -39.5 7.33301 -54.5 22s-22.5 32.667 -22.5 54s7.5 39.333 22.5 54s33.167 22 54.5 22s39.5 -7.33301 54.5 -22s22.5 -32.667 22.5 -54s-7.5 -39.333 -22.5 -54s-33.167 -22 -54.5 -22z" />
    <glyph glyph-name="dotlessi" unicode="&#x131;" horiz-adv-x="336" 
d="M129 1077h78v-1077h-78v1077z" />
    <glyph glyph-name="u0132" unicode="&#x132;" horiz-adv-x="1286" 
d="M128 0v1443h79v-1443h-79zM454 320c2 -40 11 -76.499 27 -109.499s37.5 -61.333 64.5 -85s58.667 -42.167 95 -55.5s76.166 -20 119.499 -20c50 0 94.667 7.5 134 22.5s72.833 37 100.5 66s48.667 64.5 63 106.5s21.5 90 21.5 144v1054h80v-1058
c0 -62.667 -9.16699 -119.167 -27.5 -169.5s-44.5 -93.333 -78.5 -129s-75.667 -63 -125 -82s-105 -28.5 -167 -28.5c-55.333 0 -106.166 8.5 -152.499 25.5s-86.5 40.667 -120.5 71s-60.833 66.666 -80.5 108.999s-30.167 88.5 -31.5 138.5h78z" />
    <glyph glyph-name="u0133" unicode="&#x133;" horiz-adv-x="673" 
d="M129 1077h78v-1077h-78v1077zM168 1341c-17.333 0 -32 5.83301 -44 17.5s-18 26.167 -18 43.5s6 32 18 44s26.667 18 44 18s32.166 -6 44.499 -18s18.5 -26.667 18.5 -44s-6.16699 -31.833 -18.5 -43.5s-27.166 -17.5 -44.499 -17.5zM543 -80
c0 -49.333 -5.83301 -91.333 -17.5 -126s-29 -63 -52 -85s-52 -38.167 -87 -48.5s-75.5 -15.5 -121.5 -15.5h-30v69h27c70.667 0 122.167 15.667 154.5 47s48.5 83 48.5 155v1161h78v-1157zM504 1341c-17.333 0 -32 5.83301 -44 17.5s-18 26.167 -18 43.5s6 32 18 44
s26.667 18 44 18s32.166 -6 44.499 -18s18.5 -26.667 18.5 -44s-6.16699 -31.833 -18.5 -43.5s-27.166 -17.5 -44.499 -17.5z" />
    <glyph glyph-name="Jcircumflex" unicode="&#x134;" horiz-adv-x="951" 
d="M119 320c2 -40 11 -76.499 27 -109.499s37.5 -61.333 64.5 -85s58.667 -42.167 95 -55.5s76.166 -20 119.499 -20c50 0 94.667 7.5 134 22.5s72.833 37 100.5 66s48.667 64.5 63 106.5s21.5 90 21.5 144v1054h80v-1058c0 -62.667 -9.16699 -119.167 -27.5 -169.5
s-44.5 -93.333 -78.5 -129s-75.667 -63 -125 -82s-105 -28.5 -167 -28.5c-55.333 0 -106.166 8.5 -152.499 25.5s-86.5 40.667 -120.5 71s-60.833 66.666 -80.5 108.999s-30.167 88.5 -31.5 138.5h78zM818 1843l271 -290h-83l-221 238h-2l-221 -238h-83l271 290h68z" />
    <glyph glyph-name="jcircumflex" unicode="&#x135;" horiz-adv-x="336" 
d="M206 -80c0 -49.333 -5.83301 -91.333 -17.5 -126s-29 -63 -52 -85s-52 -38.167 -87 -48.5s-75.5 -15.5 -121.5 -15.5h-29v69h27c70.667 0 122.167 15.667 154.5 47s48.5 83 48.5 155v1161h77v-1157zM467 1253h-80l-217 249h-3l-217 -249h-81l268 303h62z" />
    <glyph glyph-name="Kcommaaccent" unicode="&#x136;" horiz-adv-x="1142" 
d="M128 0v1443h79v-806h6l750 806h101l-594 -636l660 -807h-101l-615 751l-207 -223v-528h-79zM424 -493l99 344h78l-114 -344h-63z" />
    <glyph glyph-name="kcommaaccent" unicode="&#x137;" horiz-adv-x="938" 
d="M817 1077h102l-507 -464l511 -613h-95l-474 565l-147 -132v-433h-78v1506h78v-982h1zM367 -493l99 344h78l-114 -344h-63z" />
    <glyph glyph-name="Lacute" unicode="&#x139;" horiz-adv-x="1024" 
d="M121 1553l279 290h96l-297 -290h-78zM964 0h-836v1443h79v-1370h757v-73z" />
    <glyph glyph-name="lacute" unicode="&#x13a;" horiz-adv-x="336" 
d="M122 1616l279 290h96l-297 -290h-78zM129 1506h78v-1506h-78v1506z" />
    <glyph glyph-name="Lcommaaccent" unicode="&#x13b;" horiz-adv-x="1024" 
d="M426 -493l99 344h78l-114 -344h-63zM964 0h-836v1443h79v-1370h757v-73z" />
    <glyph glyph-name="lcommaaccent" unicode="&#x13c;" horiz-adv-x="336" 
d="M48 -493l99 344h78l-114 -344h-63zM129 1506h78v-1506h-78v1506z" />
    <glyph glyph-name="Lcaron" unicode="&#x13d;" horiz-adv-x="1024" 
d="M525 1443l-20 -385h-56v385h76zM964 0h-836v1443h79v-1370h757v-73z" />
    <glyph glyph-name="lcaron" unicode="&#x13e;" horiz-adv-x="432" 
d="M461 1483l-15 -385h-53v385h68zM129 1506h78v-1506h-78v1506z" />
    <glyph glyph-name="Lslash" unicode="&#x141;" horiz-adv-x="1052" 
d="M993 73v-73h-836v715l-127 -67v69l127 67v659h79v-617l390 206v-68l-390 -207v-684h757z" />
    <glyph glyph-name="lslash" unicode="&#x142;" horiz-adv-x="347" 
d="M330 849l-123 -71v-778h-78v734l-114 -66v71l114 66v701h78v-656l123 71v-72z" />
    <glyph glyph-name="Nacute" unicode="&#x143;" horiz-adv-x="1341" 
d="M625 1553l279 290h96l-297 -290h-78zM128 0v1443h82l919 -1299h6v1299h79v-1443h-75l-927 1307h-6v-1307h-78z" />
    <glyph glyph-name="nacute" unicode="&#x144;" horiz-adv-x="1080" 
d="M492 1253l230 303h93l-249 -303h-74zM119 1077l73.001 0.000976562v-237h3c12.667 38 30.667 72.333 54 103s51.166 57 83.499 79s68.5 39 108.5 51s83 18 129 18c59.333 0 113.333 -9.33301 162 -28s90.5 -45.167 125.5 -79.5s62 -75.833 81 -124.5
s28.5 -103.334 28.5 -164.001v-695h-78v686c0 52 -8 98.667 -24 140s-38.833 76.333 -68.5 105s-65.167 50.667 -106.5 66s-87 23 -137 23c-52.667 0 -100.834 -9.16699 -144.501 -27.5s-81.167 -44.333 -112.5 -78s-55.666 -73.667 -72.999 -120s-26 -97.5 -26 -153.5v-641
h-78v1077z" />
    <glyph glyph-name="Ncommaaccent" unicode="&#x145;" horiz-adv-x="1341" 
d="M551 -493l99 344h78l-114 -344h-63zM128 0v1443h82l919 -1299h6v1299h79v-1443h-75l-927 1307h-6v-1307h-78z" />
    <glyph glyph-name="ncommaaccent" unicode="&#x146;" horiz-adv-x="1080" 
d="M411 -493l99 344h78l-114 -344h-63zM119 1077l73.001 0.000976562v-237h3c12.667 38 30.667 72.333 54 103s51.166 57 83.499 79s68.5 39 108.5 51s83 18 129 18c59.333 0 113.333 -9.33301 162 -28s90.5 -45.167 125.5 -79.5s62 -75.833 81 -124.5
s28.5 -103.334 28.5 -164.001v-695h-78v686c0 52 -8 98.667 -24 140s-38.833 76.333 -68.5 105s-65.167 50.667 -106.5 66s-87 23 -137 23c-52.667 0 -100.834 -9.16699 -144.501 -27.5s-81.167 -44.333 -112.5 -78s-55.666 -73.667 -72.999 -120s-26 -97.5 -26 -153.5v-641
h-78v1077z" />
    <glyph glyph-name="Ncaron" unicode="&#x147;" horiz-adv-x="1341" 
d="M366 1843h83l221 -239h2l221 239h83l-271 -290h-68zM128 0v1443h82l919 -1299h6v1299h79v-1443h-75l-927 1307h-6v-1307h-78z" />
    <glyph glyph-name="ncaron" unicode="&#x148;" horiz-adv-x="1080" 
d="M515 1253l-268 303h81l217 -249h3l217 249h80l-268 -303h-62zM119 1077l73.001 0.000976562v-237h3c12.667 38 30.667 72.333 54 103s51.166 57 83.499 79s68.5 39 108.5 51s83 18 129 18c59.333 0 113.333 -9.33301 162 -28s90.5 -45.167 125.5 -79.5
s62 -75.833 81 -124.5s28.5 -103.334 28.5 -164.001v-695h-78v686c0 52 -8 98.667 -24 140s-38.833 76.333 -68.5 105s-65.167 50.667 -106.5 66s-87 23 -137 23c-52.667 0 -100.834 -9.16699 -144.501 -27.5s-81.167 -44.333 -112.5 -78s-55.666 -73.667 -72.999 -120
s-26 -97.5 -26 -153.5v-641h-78v1077z" />
    <glyph glyph-name="Omacron" unicode="&#x14c;" horiz-adv-x="1420" 
d="M710 1464c98 0 186.667 -17.333 266 -52s147 -84.167 203 -148.5s99 -142.333 129 -234s45 -194.167 45 -307.5c0 -114 -15 -216.833 -45 -308.5s-72.833 -169.667 -128.5 -234s-123.167 -113.833 -202.5 -148.5s-168.333 -52 -267 -52s-187.667 17.333 -267 52
s-146.833 84.167 -202.5 148.5s-98.5 142.333 -128.5 234s-45 194.5 -45 308.5c0 113.333 15 215.833 45 307.5s73 169.667 129 234s123.667 113.833 203 148.5s168 52 266 52zM710 1390c-86 0 -163.499 -15.667 -232.499 -47s-128 -76 -177 -134
s-86.667 -128.167 -113 -210.5s-39.5 -174.5 -39.5 -276.5s13.167 -194.333 39.5 -277s64 -153 113 -211s108.167 -102.667 177.5 -134s146.666 -47 231.999 -47c86 0 163.5 15.667 232.5 47s128 76 177 134s86.667 128.333 113 211s39.5 175 39.5 277
s-13.167 194.167 -39.5 276.5s-64 152.5 -113 210.5s-108 102.667 -177 134s-146.5 47 -232.5 47zM1000 1622h-580v57h580v-57z" />
    <glyph glyph-name="omacron" unicode="&#x14d;" horiz-adv-x="1089" 
d="M837 1307h-596v58h596v-58zM544 -14c-72 0 -137.333 12.833 -196 38.5s-109 62.5 -151 110.5s-74.5 106 -97.5 174s-34.5 144.333 -34.5 229s11.5 161.167 34.5 229.5s55.5 126.5 97.5 174.5s92.5 84.833 151.5 110.5s124.167 38.5 195.5 38.5
c72 0 137.5 -12.833 196.5 -38.5s109.5 -62.5 151.5 -110.5s74.5 -106.167 97.5 -174.5s34.5 -144.833 34.5 -229.5s-11.5 -161 -34.5 -229s-55.5 -126 -97.5 -174s-92.5 -84.833 -151.5 -110.5s-124.5 -38.5 -196.5 -38.5zM544 56c60.667 0 115.667 11.168 165 33.501
s91.5 54.5 126.5 96.5s62 92.667 81 152s28.5 126 28.5 200c0 74.667 -9.5 141.667 -28.5 201s-46 109.833 -81 151.5s-77.167 73.667 -126.5 96s-104.333 33.5 -165 33.5s-115.667 -11.167 -165 -33.5s-91.5 -54.333 -126.5 -96s-62 -92.167 -81 -151.5
s-28.5 -126.333 -28.5 -201c0 -74 9.5 -140.833 28.5 -200.5s46 -110.334 81 -152.001s77.167 -73.667 126.5 -96s104.333 -33.5 165 -33.5z" />
    <glyph glyph-name="Obreve" unicode="&#x14e;" horiz-adv-x="1420" 
d="M710 1464c98 0 186.667 -17.333 266 -52s147 -84.167 203 -148.5s99 -142.333 129 -234s45 -194.167 45 -307.5c0 -114 -15 -216.833 -45 -308.5s-72.833 -169.667 -128.5 -234s-123.167 -113.833 -202.5 -148.5s-168.333 -52 -267 -52s-187.667 17.333 -267 52
s-146.833 84.167 -202.5 148.5s-98.5 142.333 -128.5 234s-45 194.5 -45 308.5c0 113.333 15 215.833 45 307.5s73 169.667 129 234s123.667 113.833 203 148.5s168 52 266 52zM710 1390c-86 0 -163.499 -15.667 -232.499 -47s-128 -76 -177 -134
s-86.667 -128.167 -113 -210.5s-39.5 -174.5 -39.5 -276.5s13.167 -194.333 39.5 -277s64 -153 113 -211s108.167 -102.667 177.5 -134s146.666 -47 231.999 -47c86 0 163.5 15.667 232.5 47s128 76 177 134s86.667 128.333 113 211s39.5 175 39.5 277
s-13.167 194.167 -39.5 276.5s-64 152.5 -113 210.5s-108 102.667 -177 134s-146.5 47 -232.5 47zM502.001 1789c0 -25.333 5.00098 -49 15.001 -71s24.167 -41 42.5 -57s40.166 -28.667 65.499 -38s53.666 -14 84.999 -14c30.667 0 58.834 4.66699 84.501 14
s47.667 22 66 38s32.5 35 42.5 57s15 45.667 15 71h61c0 -36 -6.66699 -68.5 -20 -97.5s-32 -53.833 -56 -74.5s-52.5 -36.5 -85.5 -47.5s-68.833 -16.5 -107.5 -16.5c-39.333 0 -75.333 5.5 -108 16.5s-61 26.833 -85 47.5s-42.667 45.5 -56 74.5s-20 61.5 -20 97.5h61z
" />
    <glyph glyph-name="obreve" unicode="&#x14f;" horiz-adv-x="1089" 
d="M334 1502c0 -29.333 4.99609 -56 14.9961 -80s24.333 -44.667 43 -62s40.834 -30.666 66.501 -39.999s54.167 -14 85.5 -14s59.833 4.66699 85.5 14s47.834 22.666 66.501 39.999s33 38 43 62s15 50.667 15 80h62c0 -40 -6.83301 -75.667 -20.5 -107
s-32.5 -57.833 -56.5 -79.5s-52.667 -38.167 -86 -49.5s-69.666 -17 -108.999 -17s-75.666 5.66699 -108.999 17s-62 27.833 -86 49.5s-42.833 48.167 -56.5 79.5s-20.5 67 -20.5 107h62zM543.996 -14c-72 0 -137.333 12.833 -196 38.5s-109 62.5 -151 110.5
s-74.5 106 -97.5 174s-34.5 144.333 -34.5 229s11.5 161.167 34.5 229.5s55.5 126.5 97.5 174.5s92.5 84.833 151.5 110.5s124.167 38.5 195.5 38.5c72 0 137.5 -12.833 196.5 -38.5s109.5 -62.5 151.5 -110.5s74.5 -106.167 97.5 -174.5s34.5 -144.833 34.5 -229.5
s-11.5 -161 -34.5 -229s-55.5 -126 -97.5 -174s-92.5 -84.833 -151.5 -110.5s-124.5 -38.5 -196.5 -38.5zM543.996 56c60.667 0 115.667 11.168 165 33.501s91.5 54.5 126.5 96.5s62 92.667 81 152s28.5 126 28.5 200c0 74.667 -9.5 141.667 -28.5 201
s-46 109.833 -81 151.5s-77.167 73.667 -126.5 96s-104.333 33.5 -165 33.5s-115.667 -11.167 -165 -33.5s-91.5 -54.333 -126.5 -96s-62 -92.167 -81 -151.5s-28.5 -126.333 -28.5 -201c0 -74 9.5 -140.833 28.5 -200.5s46 -110.334 81 -152.001s77.167 -73.667 126.5 -96
s104.333 -33.5 165 -33.5z" />
    <glyph glyph-name="Ohungarumlaut" unicode="&#x150;" horiz-adv-x="1420" 
d="M813 1553l280 290h92l-297 -290h-75zM546 1553l280 290h93l-298 -290h-75zM710 1464c98 0 186.667 -17.333 266 -52s147 -84.167 203 -148.5s99 -142.333 129 -234s45 -194.167 45 -307.5c0 -114 -15 -216.833 -45 -308.5s-72.833 -169.667 -128.5 -234
s-123.167 -113.833 -202.5 -148.5s-168.333 -52 -267 -52s-187.667 17.333 -267 52s-146.833 84.167 -202.5 148.5s-98.5 142.333 -128.5 234s-45 194.5 -45 308.5c0 113.333 15 215.833 45 307.5s73 169.667 129 234s123.667 113.833 203 148.5s168 52 266 52zM710 1390
c-86 0 -163.499 -15.667 -232.499 -47s-128 -76 -177 -134s-86.667 -128.167 -113 -210.5s-39.5 -174.5 -39.5 -276.5s13.167 -194.333 39.5 -277s64 -153 113 -211s108.167 -102.667 177.5 -134s146.666 -47 231.999 -47c86 0 163.5 15.667 232.5 47s128 76 177 134
s86.667 128.333 113 211s39.5 175 39.5 277s-13.167 194.167 -39.5 276.5s-64 152.5 -113 210.5s-108 102.667 -177 134s-146.5 47 -232.5 47z" />
    <glyph glyph-name="ohungarumlaut" unicode="&#x151;" horiz-adv-x="1089" 
d="M856 1555h92l-247 -303h-71zM612 1555h92l-247 -303h-71zM544 -14c-72 0 -137.333 12.833 -196 38.5s-109 62.5 -151 110.5s-74.5 106 -97.5 174s-34.5 144.333 -34.5 229s11.5 161.167 34.5 229.5s55.5 126.5 97.5 174.5s92.5 84.833 151.5 110.5
s124.167 38.5 195.5 38.5c72 0 137.5 -12.833 196.5 -38.5s109.5 -62.5 151.5 -110.5s74.5 -106.167 97.5 -174.5s34.5 -144.833 34.5 -229.5s-11.5 -161 -34.5 -229s-55.5 -126 -97.5 -174s-92.5 -84.833 -151.5 -110.5s-124.5 -38.5 -196.5 -38.5zM544 56
c60.667 0 115.667 11.168 165 33.501s91.5 54.5 126.5 96.5s62 92.667 81 152s28.5 126 28.5 200c0 74.667 -9.5 141.667 -28.5 201s-46 109.833 -81 151.5s-77.167 73.667 -126.5 96s-104.333 33.5 -165 33.5s-115.667 -11.167 -165 -33.5s-91.5 -54.333 -126.5 -96
s-62 -92.167 -81 -151.5s-28.5 -126.333 -28.5 -201c0 -74 9.5 -140.833 28.5 -200.5s46 -110.334 81 -152.001s77.167 -73.667 126.5 -96s104.333 -33.5 165 -33.5z" />
    <glyph glyph-name="OE" unicode="&#x152;" horiz-adv-x="2178" 
d="M716 1390c-86.667 0 -165 -15.6689 -235 -47.002s-129.667 -76 -179 -134s-87.333 -128.167 -114 -210.5s-40 -174.5 -40 -276.5s13.333 -194.167 40 -276.5s64.667 -152.666 114 -210.999s109 -103.166 179 -134.499s148.333 -47 235 -47s165 15.667 235 47
s129.667 76 179 134s87.333 128.333 114 211s40 175 40 277s-13.333 194.167 -40 276.5s-64.667 152.5 -114 210.5s-109 102.667 -179 134s-148.333 47 -235 47zM1285 371.998c-22.667 -62.667 -52.165 -118.335 -88.498 -167.002s-78.833 -89.834 -127.5 -123.501
s-102.667 -59.167 -162 -76.5s-123 -26 -191 -26c-100 0 -190 17.167 -270 51.5s-148.167 83.666 -204.5 147.999s-99.5 142.333 -129.5 234s-45 194.834 -45 309.501s15 217.834 45 309.501s73.167 169.5 129.5 233.5s124.5 113.167 204.5 147.5s170 51.5 270 51.5
c68.667 0 132.667 -8.66699 192 -26s113.166 -42.666 161.499 -75.999s90.666 -74.166 126.999 -122.499s65.833 -103.833 88.5 -166.5v370h815v-73h-735v-594h698v-72h-698v-631h735v-73h-815v372z" />
    <glyph glyph-name="oe" unicode="&#x153;" horiz-adv-x="1943" 
d="M1426 -14c-56 0 -108.501 8.66797 -157.501 26.001s-92.667 41.333 -131 72s-70.5 67.167 -96.5 109.5s-44.333 88.5 -55 138.5h-5c-11.333 -52 -29.833 -99.5 -55.5 -142.5s-57.334 -79.833 -95.001 -110.5s-80.667 -54.334 -129 -71.001s-100.833 -25 -157.5 -25
c-72.667 0 -138.5 12.833 -197.5 38.5s-109.333 62.5 -151 110.5s-73.834 106 -96.501 174s-34 144.333 -34 229s11.333 161.167 34 229.5s55 126.5 97 174.5s92.5 85 151.5 111s124.5 39 196.5 39c56 0 108.167 -8.33301 156.5 -25s91.333 -40.334 129 -71.001
s69.5 -67.167 95.5 -109.5s44.667 -89.5 56 -141.5h5c10.667 50.667 28.834 97.334 54.501 140.001s57.334 79.5 95.001 110.5s80.334 55.167 128.001 72.5s99.167 26 154.5 26c69.333 0 132.333 -12.333 189 -37s105 -59.834 145 -105.501s71 -100.5 93 -164.5
s33 -135 33 -213v-46h-853v-4c0 -69.333 9.5 -132.666 28.5 -189.999s46 -106.333 81 -147s77.333 -72.167 127 -94.5s105.167 -33.5 166.5 -33.5c48.667 0 93.167 6.16699 133.5 18.5s75.833 29.5 106.5 51.5s56 47.833 76 77.5s34 62.167 42 97.5h78
c-8.66699 -45.333 -25.167 -87.333 -49.5 -126s-55.333 -72 -93 -100s-81.5 -49.833 -131.5 -65.5s-104.667 -23.5 -164 -23.5zM1798 591.001c0 63.333 -9.33008 121.336 -27.9971 174.003s-44.834 98 -78.501 136s-73.834 67.5 -120.501 88.5s-98 31.5 -154 31.5
c-55.333 0 -106.333 -10.333 -153 -31s-87.167 -49.834 -121.5 -87.501s-61.833 -82.834 -82.5 -135.501s-32.334 -111.334 -35.001 -176.001h773zM143.002 535.004c0 -74 9.5 -140.667 28.5 -200s46 -109.833 81 -151.5s77.167 -73.667 126.5 -96s104.333 -33.5 165 -33.5
s115.667 11.167 165 33.5s91.5 54.333 126.5 96s62 92.167 81 151.5s28.5 126 28.5 200s-9.5 140.833 -28.5 200.5s-46 110.5 -81 152.5s-77.167 74.167 -126.5 96.5s-104.333 33.5 -165 33.5s-115.667 -11.167 -165 -33.5s-91.5 -54.5 -126.5 -96.5s-62 -92.833 -81 -152.5
s-28.5 -126.5 -28.5 -200.5z" />
    <glyph glyph-name="Racute" unicode="&#x154;" horiz-adv-x="1150" 
d="M449 1553l279 290h96l-297 -290h-78zM207 688l386.999 0.00195312c60.667 0 114.834 7.83301 162.501 23.5s88.167 38.167 121.5 67.5s58.833 65 76.5 107s26.5 89.667 26.5 143c0 54 -9 102.167 -27 144.5s-43.667 78.166 -77 107.499s-74 51.666 -122 66.999
s-102.333 23 -163 23h-385v-683zM206.999 0.00195312l-78.999 -0.00292969v1443h471c71.333 0 135.666 -9.5 192.999 -28.5s106 -46.333 146 -82s70.667 -79 92 -130s32 -108.167 32 -171.5c0 -52 -7.5 -100.167 -22.5 -144.5s-36.833 -83.666 -65.5 -117.999
s-63.667 -63.166 -105 -86.499s-88.333 -40.333 -141 -51l371 -631h-93l-361 619c-6.66699 -1.33301 -15 -2.16602 -25 -2.49902s-18.667 -0.5 -26 -0.5h-387v-616z" />
    <glyph glyph-name="racute" unicode="&#x155;" horiz-adv-x="614" 
d="M288 1253l230 303h93l-249 -303h-74zM119 1077l72.999 0.00195312v-213h3c21.333 74 56.666 130.333 105.999 169s110.333 58 183 58c19.333 0 38 -2 56 -6s32 -8 42 -12v-78c-11.333 5.33301 -26.666 10.333 -45.999 15s-40.666 7 -63.999 7
c-42 0 -80 -8.66699 -114 -26s-63 -41.333 -87 -72s-42.333 -67.334 -55 -110.001s-19 -89.334 -19 -140.001v-669h-78v1077z" />
    <glyph glyph-name="Rcommaaccent" unicode="&#x156;" horiz-adv-x="1150" 
d="M207 688l386.999 0.00195312c60.667 0 114.834 7.83301 162.501 23.5s88.167 38.167 121.5 67.5s58.833 65 76.5 107s26.5 89.667 26.5 143c0 54 -9 102.167 -27 144.5s-43.667 78.166 -77 107.499s-74 51.666 -122 66.999s-102.333 23 -163 23h-385v-683z
M206.999 0.00195312l-78.999 -0.00292969v1443h471c71.333 0 135.666 -9.5 192.999 -28.5s106 -46.333 146 -82s70.667 -79 92 -130s32 -108.167 32 -171.5c0 -52 -7.5 -100.167 -22.5 -144.5s-36.833 -83.666 -65.5 -117.999s-63.667 -63.166 -105 -86.499
s-88.333 -40.333 -141 -51l371 -631h-93l-361 619c-6.66699 -1.33301 -15 -2.16602 -25 -2.49902s-18.667 -0.5 -26 -0.5h-387v-616zM375 -493.001l99 344h78l-114 -344h-63z" />
    <glyph glyph-name="rcommaaccent" unicode="&#x157;" horiz-adv-x="614" 
d="M119 1077l72.999 0.00195312v-213h3c21.333 74 56.666 130.333 105.999 169s110.333 58 183 58c19.333 0 38 -2 56 -6s32 -8 42 -12v-78c-11.333 5.33301 -26.666 10.333 -45.999 15s-40.666 7 -63.999 7c-42 0 -80 -8.66699 -114 -26s-63 -41.333 -87 -72
s-42.333 -67.334 -55 -110.001s-19 -89.334 -19 -140.001v-669h-78v1077zM37.999 -492.998l99 344h78l-114 -344h-63z" />
    <glyph glyph-name="Rcaron" unicode="&#x158;" horiz-adv-x="1150" 
d="M207 688l386.999 0.00195312c60.667 0 114.834 7.83301 162.501 23.5s88.167 38.167 121.5 67.5s58.833 65 76.5 107s26.5 89.667 26.5 143c0 54 -9 102.167 -27 144.5s-43.667 78.166 -77 107.499s-74 51.666 -122 66.999s-102.333 23 -163 23h-385v-683z
M206.999 0.00195312l-78.999 -0.00292969v1443h471c71.333 0 135.666 -9.5 192.999 -28.5s106 -46.333 146 -82s70.667 -79 92 -130s32 -108.167 32 -171.5c0 -52 -7.5 -100.167 -22.5 -144.5s-36.833 -83.666 -65.5 -117.999s-63.667 -63.166 -105 -86.499
s-88.333 -40.333 -141 -51l371 -631h-93l-361 619c-6.66699 -1.33301 -15 -2.16602 -25 -2.49902s-18.667 -0.5 -26 -0.5h-387v-616zM190 1843h83l221 -239h2l221 239h83l-271 -290h-68z" />
    <glyph glyph-name="rcaron" unicode="&#x159;" horiz-adv-x="614" 
d="M311 1253l-268 303h81l217 -249h3l217 249h80l-268 -303h-62zM119 1077l72.999 0.00195312v-213h3c21.333 74 56.666 130.333 105.999 169s110.333 58 183 58c19.333 0 38 -2 56 -6s32 -8 42 -12v-78c-11.333 5.33301 -26.666 10.333 -45.999 15s-40.666 7 -63.999 7
c-42 0 -80 -8.66699 -114 -26s-63 -41.333 -87 -72s-42.333 -67.334 -55 -110.001s-19 -89.334 -19 -140.001v-669h-78v1077z" />
    <glyph glyph-name="Sacute" unicode="&#x15a;" horiz-adv-x="1137" 
d="M523 1553l279 290h96l-297 -290h-78zM136 385c2.66699 -49.333 15.835 -94.3311 39.502 -134.998s55.167 -75.667 94.5 -105s85.666 -52.166 138.999 -68.499s111.333 -24.5 174 -24.5c61.333 0 117.5 8.16699 168.5 24.5s94.833 39.166 131.5 68.499
s65.167 63.833 85.5 103.5s30.5 83.167 30.5 130.5c0 38 -6.5 72 -19.5 102s-33.5 57 -61.5 81s-63.667 45.5 -107 64.5s-95.333 36.167 -156 51.5l-171 42c-66.667 16.667 -124.334 36.334 -173.001 59.001s-89 48.5 -121 77.5s-55.667 61.667 -71 98
s-23 77.166 -23 122.499c0 56 12.333 107.667 37 155s58.334 88.166 101.001 122.499s92.667 61.166 150 80.499s119 29 185 29c68 0 131 -9.5 189 -28.5s108.5 -45 151.5 -78s77.167 -72.333 102.5 -118s39 -94.834 41 -147.501h-79
c-2.66699 43.333 -14.834 83.333 -36.501 120s-50.5 68.167 -86.5 94.5s-78.167 47 -126.5 62s-100.833 22.5 -157.5 22.5c-54 0 -104.833 -7.66699 -152.5 -23s-89 -36.833 -124 -64.5s-62.667 -60.667 -83 -99s-30.5 -80.166 -30.5 -125.499
c0 -72 27.333 -130.333 82 -175s140 -81.334 256 -110.001l161 -41c70 -17.333 130.333 -37.166 181 -59.499s92.5 -48.333 125.5 -78s57.5 -63.5 73.5 -101.5s24 -81 24 -129c0 -60 -12 -114.833 -36 -164.5s-58 -92.334 -102 -128.001s-97 -63.5 -159 -83.5
s-130.667 -30 -206 -30c-74 0 -142.167 10 -204.5 30s-116.333 47.833 -162 83.5s-82 78.334 -109 128.001s-41.833 104.5 -44.5 164.5h79z" />
    <glyph glyph-name="sacute" unicode="&#x15b;" horiz-adv-x="923" 
d="M94 801c0 42.667 9.49902 81.835 28.499 117.502s45.167 66.167 78.5 91.5s72.5 45.166 117.5 59.499s93.5 21.5 145.5 21.5c54 0 103.5 -7.66699 148.5 -23s84.167 -37.166 117.5 -65.499s60 -62.5 80 -102.5s32 -84.333 36 -133h-76
c-4 37.333 -13.833 71.666 -29.5 102.999s-36.667 58.333 -63 81s-57.5 40.334 -93.5 53.001s-76.333 19 -121 19c-40 0 -77.833 -5.33301 -113.5 -16s-66.667 -25.667 -93 -45s-47.333 -42.333 -63 -69s-23.5 -56.334 -23.5 -89.001c0 -53.333 18.5 -95.166 55.5 -125.499
s93.833 -54.5 170.5 -72.5l167 -41c53.333 -13.333 99 -28.333 137 -45s69 -36.334 93 -59.001s41.667 -48.5 53 -77.5s17 -61.833 17 -98.5c0 -44.667 -9.83301 -85.334 -29.5 -122.001s-47.167 -68.167 -82.5 -94.5s-77.333 -46.666 -126 -60.999s-102 -21.5 -160 -21.5
s-111.167 8.16699 -159.5 24.5s-90.333 38.833 -126 67.5s-64 62.334 -85 101.001s-32.833 80.334 -35.5 125.001h78c3.33301 -35.333 13.833 -68.333 31.5 -99s41 -57.334 70 -80.001s62.833 -40.334 101.5 -53.001s81 -19 127 -19c44.667 0 86.5 5.33301 125.5 16
s72.833 26 101.5 46s51.167 44 67.5 72s24.5 59 24.5 93c0 28 -4.5 53 -13.5 75s-23.5 41.667 -43.5 59s-45.5 32.666 -76.5 45.999s-68.5 25.333 -112.5 36l-173 42c-91.333 22 -159.666 53.833 -204.999 95.5s-68 97.5 -68 167.5zM409.999 1253l230 303h93l-249 -303h-74z
" />
    <glyph glyph-name="Scircumflex" unicode="&#x15c;" horiz-adv-x="1137" 
d="M136 385c2.66699 -49.333 15.835 -94.3311 39.502 -134.998s55.167 -75.667 94.5 -105s85.666 -52.166 138.999 -68.499s111.333 -24.5 174 -24.5c61.333 0 117.5 8.16699 168.5 24.5s94.833 39.166 131.5 68.499s65.167 63.833 85.5 103.5s30.5 83.167 30.5 130.5
c0 38 -6.5 72 -19.5 102s-33.5 57 -61.5 81s-63.667 45.5 -107 64.5s-95.333 36.167 -156 51.5l-171 42c-66.667 16.667 -124.334 36.334 -173.001 59.001s-89 48.5 -121 77.5s-55.667 61.667 -71 98s-23 77.166 -23 122.499c0 56 12.333 107.667 37 155
s58.334 88.166 101.001 122.499s92.667 61.166 150 80.499s119 29 185 29c68 0 131 -9.5 189 -28.5s108.5 -45 151.5 -78s77.167 -72.333 102.5 -118s39 -94.834 41 -147.501h-79c-2.66699 43.333 -14.834 83.333 -36.501 120s-50.5 68.167 -86.5 94.5s-78.167 47 -126.5 62
s-100.833 22.5 -157.5 22.5c-54 0 -104.833 -7.66699 -152.5 -23s-89 -36.833 -124 -64.5s-62.667 -60.667 -83 -99s-30.5 -80.166 -30.5 -125.499c0 -72 27.333 -130.333 82 -175s140 -81.334 256 -110.001l161 -41c70 -17.333 130.333 -37.166 181 -59.499
s92.5 -48.333 125.5 -78s57.5 -63.5 73.5 -101.5s24 -81 24 -129c0 -60 -12 -114.833 -36 -164.5s-58 -92.334 -102 -128.001s-97 -63.5 -159 -83.5s-130.667 -30 -206 -30c-74 0 -142.167 10 -204.5 30s-116.333 47.833 -162 83.5s-82 78.334 -109 128.001
s-41.833 104.5 -44.5 164.5h79zM603.001 1843l271 -290h-83l-221 238h-2l-221 -238h-83l271 290h68z" />
    <glyph glyph-name="scircumflex" unicode="&#x15d;" horiz-adv-x="923" 
d="M763 1253h-80l-217 249h-3l-217 -249h-81l268 303h62zM94 801c0 42.667 9.49902 81.835 28.499 117.502s45.167 66.167 78.5 91.5s72.5 45.166 117.5 59.499s93.5 21.5 145.5 21.5c54 0 103.5 -7.66699 148.5 -23s84.167 -37.166 117.5 -65.499s60 -62.5 80 -102.5
s32 -84.333 36 -133h-76c-4 37.333 -13.833 71.666 -29.5 102.999s-36.667 58.333 -63 81s-57.5 40.334 -93.5 53.001s-76.333 19 -121 19c-40 0 -77.833 -5.33301 -113.5 -16s-66.667 -25.667 -93 -45s-47.333 -42.333 -63 -69s-23.5 -56.334 -23.5 -89.001
c0 -53.333 18.5 -95.166 55.5 -125.499s93.833 -54.5 170.5 -72.5l167 -41c53.333 -13.333 99 -28.333 137 -45s69 -36.334 93 -59.001s41.667 -48.5 53 -77.5s17 -61.833 17 -98.5c0 -44.667 -9.83301 -85.334 -29.5 -122.001s-47.167 -68.167 -82.5 -94.5
s-77.333 -46.666 -126 -60.999s-102 -21.5 -160 -21.5s-111.167 8.16699 -159.5 24.5s-90.333 38.833 -126 67.5s-64 62.334 -85 101.001s-32.833 80.334 -35.5 125.001h78c3.33301 -35.333 13.833 -68.333 31.5 -99s41 -57.334 70 -80.001s62.833 -40.334 101.5 -53.001
s81 -19 127 -19c44.667 0 86.5 5.33301 125.5 16s72.833 26 101.5 46s51.167 44 67.5 72s24.5 59 24.5 93c0 28 -4.5 53 -13.5 75s-23.5 41.667 -43.5 59s-45.5 32.666 -76.5 45.999s-68.5 25.333 -112.5 36l-173 42c-91.333 22 -159.666 53.833 -204.999 95.5
s-68 97.5 -68 167.5z" />
    <glyph glyph-name="Scedilla" unicode="&#x15e;" horiz-adv-x="1137" 
d="M676 753c70 -17.333 130.338 -37.1602 181.005 -59.4932s92.5 -48.333 125.5 -78s57.5 -63.5 73.5 -101.5s24 -81 24 -129c0 -58 -11.333 -111.333 -34 -160s-54.834 -90.834 -96.501 -126.501s-91.667 -63.834 -150 -84.501s-123.5 -32.334 -195.5 -35.001l-50 -120
c64.667 0 115.334 -13.5 152.001 -40.5s55 -64.167 55 -111.5c0 -25.333 -5.33301 -48.333 -16 -69s-25.5 -38.5 -44.5 -53.5s-41.833 -26.667 -68.5 -35s-56 -12.5 -88 -12.5c-23.333 -0.666992 -46.5 0.5 -69.5 3.5s-42.5 7.16699 -58.5 12.5v56
c14 -5.33301 32.167 -9.5 54.5 -12.5s44.833 -4.5 67.5 -4.5s43.667 2.83301 63 8.5s36.166 13.5 50.499 23.5s25.5 22 33.5 36s12 29 12 45c0 33.333 -13.667 58.666 -41 75.999s-67 26 -119 26h-52v43l55 130c-69.333 3.33301 -132.833 15.5 -190.5 36.5
s-107.834 49.333 -150.501 85s-76.334 77.5 -101.001 125.5s-38.334 100.667 -41.001 158h79c2.66699 -49.333 15.834 -94.333 39.501 -135s55.167 -75.667 94.5 -105s85.666 -52.166 138.999 -68.499s111.333 -24.5 174 -24.5c61.333 0 117.5 8.16699 168.5 24.5
s94.833 39.166 131.5 68.499s65.167 63.833 85.5 103.5s30.5 83.167 30.5 130.5c0 38 -6.5 72 -19.5 102s-33.5 57 -61.5 81s-63.667 45.5 -107 64.5s-95.333 36.167 -156 51.5l-171 42c-66.667 16.667 -124.334 36.334 -173.001 59.001s-89 48.5 -121 77.5
s-55.667 61.667 -71 98s-23 77.166 -23 122.499c0 56 12.333 107.667 37 155s58.334 88.166 101.001 122.499s92.667 61.166 150 80.499s119 29 185 29c68 0 131 -9.5 189 -28.5s108.5 -45 151.5 -78s77.167 -72.333 102.5 -118s39 -94.834 41 -147.501h-79
c-2.66699 43.333 -14.834 83.333 -36.501 120s-50.5 68.167 -86.5 94.5s-78.167 47 -126.5 62s-100.833 22.5 -157.5 22.5c-54 0 -104.833 -7.66699 -152.5 -23s-89 -36.833 -124 -64.5s-62.667 -60.667 -83 -99s-30.5 -80.166 -30.5 -125.499
c0 -72 27.333 -130.333 82 -175s140 -81.334 256 -110.001z" />
    <glyph glyph-name="scedilla" unicode="&#x15f;" horiz-adv-x="923" 
d="M563 565c53.333 -13.333 98.9971 -28.3281 136.997 -44.9951s69 -36.334 93 -59.001s41.667 -48.5 53 -77.5s17 -61.833 17 -98.5c0 -42.667 -9.16699 -81.834 -27.5 -117.501s-43.833 -66.5 -76.5 -92.5s-71.667 -46.667 -117 -62s-95 -24 -149 -26l-52 -128
c64.667 0 115.334 -13.5 152.001 -40.5s55 -64.167 55 -111.5c0 -25.333 -5.33301 -48.333 -16 -69s-25.5 -38.5 -44.5 -53.5s-41.833 -26.667 -68.5 -35s-56 -12.5 -88 -12.5c-23.333 -0.666992 -46.5 0.5 -69.5 3.5s-42.5 7.16699 -58.5 12.5v56
c14 -5.33301 32.167 -9.5 54.5 -12.5s44.833 -4.5 67.5 -4.5s43.667 2.83301 63 8.5s36.166 13.5 50.499 23.5s25.5 22 33.5 36s12 29 12 45c0 33.333 -13.667 58.666 -41 75.999s-67 26 -119 26h-52v43l58 137c-53.333 3.33301 -102.166 13.833 -146.499 31.5
s-82.666 40.5 -114.999 68.5s-58 60.667 -77 98s-29.833 77 -32.5 119h78c3.33301 -35.333 13.833 -68.333 31.5 -99s41 -57.334 70 -80.001s62.833 -40.334 101.5 -53.001s81 -19 127 -19c44.667 0 86.5 5.33301 125.5 16s72.833 26 101.5 46s51.167 44 67.5 72
s24.5 59 24.5 93c0 28 -4.5 53 -13.5 75s-23.5 41.667 -43.5 59s-45.5 32.666 -76.5 45.999s-68.5 25.333 -112.5 36l-173 42c-91.333 22 -159.666 53.833 -204.999 95.5s-68 97.5 -68 167.5c0 42.667 9.5 81.834 28.5 117.501s45.167 66.167 78.5 91.5
s72.5 45.166 117.5 59.499s93.5 21.5 145.5 21.5c54 0 103.5 -7.66699 148.5 -23s84.167 -37.166 117.5 -65.499s60 -62.5 80 -102.5s32 -84.333 36 -133h-76c-4 37.333 -13.833 71.666 -29.5 102.999s-36.667 58.333 -63 81s-57.5 40.334 -93.5 53.001s-76.333 19 -121 19
c-40 0 -77.833 -5.33301 -113.5 -16s-66.667 -25.667 -93 -45s-47.333 -42.333 -63 -69s-23.5 -56.334 -23.5 -89.001c0 -53.333 18.5 -95.166 55.5 -125.499s93.833 -54.5 170.5 -72.5z" />
    <glyph glyph-name="Scaron" unicode="&#x160;" horiz-adv-x="1137" 
d="M136 385c2.66699 -49.333 15.835 -94.3311 39.502 -134.998s55.167 -75.667 94.5 -105s85.666 -52.166 138.999 -68.499s111.333 -24.5 174 -24.5c61.333 0 117.5 8.16699 168.5 24.5s94.833 39.166 131.5 68.499s65.167 63.833 85.5 103.5s30.5 83.167 30.5 130.5
c0 38 -6.5 72 -19.5 102s-33.5 57 -61.5 81s-63.667 45.5 -107 64.5s-95.333 36.167 -156 51.5l-171 42c-66.667 16.667 -124.334 36.334 -173.001 59.001s-89 48.5 -121 77.5s-55.667 61.667 -71 98s-23 77.166 -23 122.499c0 56 12.333 107.667 37 155
s58.334 88.166 101.001 122.499s92.667 61.166 150 80.499s119 29 185 29c68 0 131 -9.5 189 -28.5s108.5 -45 151.5 -78s77.167 -72.333 102.5 -118s39 -94.834 41 -147.501h-79c-2.66699 43.333 -14.834 83.333 -36.501 120s-50.5 68.167 -86.5 94.5s-78.167 47 -126.5 62
s-100.833 22.5 -157.5 22.5c-54 0 -104.833 -7.66699 -152.5 -23s-89 -36.833 -124 -64.5s-62.667 -60.667 -83 -99s-30.5 -80.166 -30.5 -125.499c0 -72 27.333 -130.333 82 -175s140 -81.334 256 -110.001l161 -41c70 -17.333 130.333 -37.166 181 -59.499
s92.5 -48.333 125.5 -78s57.5 -63.5 73.5 -101.5s24 -81 24 -129c0 -60 -12 -114.833 -36 -164.5s-58 -92.334 -102 -128.001s-97 -63.5 -159 -83.5s-130.667 -30 -206 -30c-74 0 -142.167 10 -204.5 30s-116.333 47.833 -162 83.5s-82 78.334 -109 128.001
s-41.833 104.5 -44.5 164.5h79zM264.001 1843h83l221 -239h2l221 239h83l-271 -290h-68z" />
    <glyph glyph-name="scaron" unicode="&#x161;" horiz-adv-x="923" 
d="M433 1253l-268 303h81l217 -249h3l217 249h80l-268 -303h-62zM94 801c0 42.667 9.49902 81.835 28.499 117.502s45.167 66.167 78.5 91.5s72.5 45.166 117.5 59.499s93.5 21.5 145.5 21.5c54 0 103.5 -7.66699 148.5 -23s84.167 -37.166 117.5 -65.499
s60 -62.5 80 -102.5s32 -84.333 36 -133h-76c-4 37.333 -13.833 71.666 -29.5 102.999s-36.667 58.333 -63 81s-57.5 40.334 -93.5 53.001s-76.333 19 -121 19c-40 0 -77.833 -5.33301 -113.5 -16s-66.667 -25.667 -93 -45s-47.333 -42.333 -63 -69
s-23.5 -56.334 -23.5 -89.001c0 -53.333 18.5 -95.166 55.5 -125.499s93.833 -54.5 170.5 -72.5l167 -41c53.333 -13.333 99 -28.333 137 -45s69 -36.334 93 -59.001s41.667 -48.5 53 -77.5s17 -61.833 17 -98.5c0 -44.667 -9.83301 -85.334 -29.5 -122.001
s-47.167 -68.167 -82.5 -94.5s-77.333 -46.666 -126 -60.999s-102 -21.5 -160 -21.5s-111.167 8.16699 -159.5 24.5s-90.333 38.833 -126 67.5s-64 62.334 -85 101.001s-32.833 80.334 -35.5 125.001h78c3.33301 -35.333 13.833 -68.333 31.5 -99s41 -57.334 70 -80.001
s62.833 -40.334 101.5 -53.001s81 -19 127 -19c44.667 0 86.5 5.33301 125.5 16s72.833 26 101.5 46s51.167 44 67.5 72s24.5 59 24.5 93c0 28 -4.5 53 -13.5 75s-23.5 41.667 -43.5 59s-45.5 32.666 -76.5 45.999s-68.5 25.333 -112.5 36l-173 42
c-91.333 22 -159.666 53.833 -204.999 95.5s-68 97.5 -68 167.5z" />
    <glyph glyph-name="Tcedilla" unicode="&#x162;" horiz-adv-x="1138" 
d="M603 0l-58 -140.999c64.667 0 115.334 -13.5 152.001 -40.5s55 -64.167 55 -111.5c0 -25.333 -5.33301 -48.333 -16 -69s-25.5 -38.5 -44.5 -53.5s-41.833 -26.667 -68.5 -35s-56 -12.5 -88 -12.5c-23.333 -0.666992 -46.5 0.5 -69.5 3.5s-42.5 7.16699 -58.5 12.5v56
c14 -5.33301 32.167 -9.5 54.5 -12.5s44.833 -4.5 67.5 -4.5s43.667 2.83301 63 8.5s36.166 13.5 50.499 23.5s25.5 22 33.5 36s12 29 12 45c0 33.333 -13.667 58.666 -41 75.999s-67 26 -119 26h-52v43l64 150h-11v1370h-508v73h1096v-73h-508v-1370h-6z" />
    <glyph glyph-name="tcedilla" unicode="&#x163;" horiz-adv-x="551" 
d="M331 -141c64.667 0 115.333 -13.499 152 -40.499s55 -64.167 55 -111.5c0 -25.333 -5.33301 -48.333 -16 -69s-25.5 -38.5 -44.5 -53.5s-41.833 -26.667 -68.5 -35s-56 -12.5 -88 -12.5c-23.333 -0.666992 -46.5 0.5 -69.5 3.5s-42.5 7.16699 -58.5 12.5v56
c14 -5.33301 32.167 -9.5 54.5 -12.5s44.833 -4.5 67.5 -4.5s43.667 2.83301 63 8.5s36.166 13.5 50.499 23.5s25.5 22 33.5 36s12 29 12 45c0 33.333 -13.667 58.666 -41 75.999s-67 26 -119 26h-52v43l66 155c-52 10.667 -89.833 34.834 -113.5 72.501
s-35.5 93.5 -35.5 167.5v764h-158v68h158v277h77v-277h224v-68h-224v-762c0 -64.667 12.5 -110.834 37.5 -138.501s64.5 -41.5 118.5 -41.5h15c8.66699 0 17.834 0.166992 27.501 0.5s18.5 0.666016 26.5 0.999023s12.333 0.5 13 0.5v-69
c-1.33301 0 -6.33301 -0.166992 -15 -0.5s-18.167 -0.666016 -28.5 -0.999023s-20.333 -0.5 -30 -0.5h-18.5h-14z" />
    <glyph glyph-name="Tcaron" unicode="&#x164;" horiz-adv-x="1138" 
d="M264 1843h83l221 -239h2l221 239h83l-271 -290h-68zM529 0v1370h-508v73h1096v-73h-508v-1370h-80z" />
    <glyph glyph-name="tcaron" unicode="&#x165;" horiz-adv-x="656" 
d="M467 1619l-15 -385h-53v385h68zM256 1354l-0.000976562 -276.999h224v-68h-224v-762c0 -64.667 12.5 -110.834 37.5 -138.501s64.5 -41.5 118.5 -41.5h15c8.66699 0 17.834 0.166992 27.501 0.5s18.5 0.666016 26.5 0.999023s12.333 0.5 13 0.5v-69
c-1.33301 0 -6.33301 -0.166992 -15 -0.5s-18.167 -0.666016 -28.5 -0.999023s-20.333 -0.5 -30 -0.5h-18.5c-39.333 0 -73 4.5 -101 13.5s-51 23.333 -69 43s-31.333 45.167 -40 76.5s-13 69.333 -13 114v764h-158v68h158v277h77z" />
    <glyph glyph-name="Tbar" unicode="&#x166;" horiz-adv-x="1149" 
d="M609 1370v-588h307v-67h-307v-715h-80v715h-295v67h295v588h-508v73h1096v-73h-508z" />
    <glyph glyph-name="tbar" unicode="&#x167;" horiz-adv-x="552" 
d="M256 247c0 -64.667 12.499 -110.833 37.499 -138.5s64.5 -41.5 118.5 -41.5h15c8.66699 0 17.834 0.166992 27.501 0.5s18.5 0.666016 26.5 0.999023s12.333 0.5 13 0.5v-69c-1.33301 0 -6.33301 -0.166992 -15 -0.5s-18.167 -0.666016 -28.5 -0.999023
s-20.333 -0.5 -30 -0.5h-18.5c-39.333 0 -73 4.5 -101 13.5s-51 23.333 -69 43s-31.333 45.167 -40 76.5s-13 69.333 -13 114v353h-158v68h158v343h-158v68h158v277h77v-277h224v-68h-224v-343h224v-68h-224v-351z" />
    </font>
</defs>
</svg>
